<svg xmlns="http://www.w3.org/2000/svg" xmlns:xlink="http://www.w3.org/1999/xlink" viewBox="0 0 928.05 1164.42"><defs><style>.cls-1{isolation:isolate;}.cls-2{fill:#bb6ce9;}.cls-10,.cls-11,.cls-12,.cls-13,.cls-14,.cls-15,.cls-16,.cls-17,.cls-18,.cls-19,.cls-2,.cls-20,.cls-21,.cls-22,.cls-23,.cls-24,.cls-25,.cls-27,.cls-28,.cls-29,.cls-3,.cls-30,.cls-31,.cls-32,.cls-33,.cls-35,.cls-36,.cls-37,.cls-38,.cls-39,.cls-4,.cls-40,.cls-41,.cls-43,.cls-44,.cls-45,.cls-46,.cls-47,.cls-48,.cls-49,.cls-5,.cls-50,.cls-55,.cls-6,.cls-7,.cls-8,.cls-9{fill-rule:evenodd;}.cls-10,.cls-2,.cls-37,.cls-41,.cls-45,.cls-51,.cls-52{opacity:0.5;}.cls-3{fill:url(#GradientFill_6);}.cls-4,.cls-41,.cls-53{fill:#fff;}.cls-5{fill:url(#linear-gradient);}.cls-6{fill:#4c68e5;}.cls-7{fill:#d0e7ff;}.cls-8{fill:url(#linear-gradient-2);}.cls-9{fill:#21389b;}.cls-10,.cls-20,.cls-23,.cls-37,.cls-45,.cls-51,.cls-52{mix-blend-mode:multiply;}.cls-10{fill:url(#linear-gradient-3);}.cls-11{fill:url(#GradientFill_6-2);}.cls-12{fill:url(#GradientFill_6-3);}.cls-13{fill:url(#linear-gradient-4);}.cls-14{fill:url(#linear-gradient-5);}.cls-15{fill:url(#linear-gradient-6);}.cls-16{fill:#9ed7fa;}.cls-17{fill:#ffa495;}.cls-18{fill:#273087;}.cls-19{fill:url(#linear-gradient-7);}.cls-20,.cls-34{fill:#9c5fef;}.cls-20{opacity:0.35;}.cls-21{fill:url(#linear-gradient-8);}.cls-22{fill:#4c57b7;}.cls-23{fill:#060921;opacity:0.3;}.cls-24{fill:url(#linear-gradient-9);}.cls-25{fill:url(#linear-gradient-10);}.cls-26{fill:#e7a376;}.cls-27{fill:url(#linear-gradient-11);}.cls-28{fill:url(#linear-gradient-12);}.cls-29{fill:#ffa698;}.cls-30{fill:#ffb49c;}.cls-31{fill:url(#linear-gradient-13);}.cls-32{fill:#5a2d68;}.cls-33{fill:url(#linear-gradient-14);}.cls-35{fill:url(#GradientFill_7);}.cls-36{fill:url(#linear-gradient-15);}.cls-37{fill:url(#linear-gradient-16);}.cls-38{fill:url(#linear-gradient-17);}.cls-39{fill:#6d6afd;}.cls-39,.cls-43{opacity:0.2;}.cls-40{fill:url(#linear-gradient-18);}.cls-42{fill:#6bb6ff;}.cls-43,.cls-44{fill:#2dffff;}.cls-45{fill:url(#linear-gradient-19);}.cls-46{fill:url(#GradientFill_6-4);}.cls-47{fill:url(#linear-gradient-20);}.cls-48{fill:url(#GradientFill_6-5);}.cls-49{fill:#8d6dfc;}.cls-50{fill:url(#linear-gradient-21);}.cls-52{fill:url(#linear-gradient-22);}.cls-54{fill:url(#linear-gradient-23);}.cls-55{fill:url(#linear-gradient-24);}</style><linearGradient id="GradientFill_6" x1="547.53" y1="378.44" x2="377.65" y2="963.98" gradientUnits="userSpaceOnUse"><stop offset="0" stop-color="#c4e0f5"/><stop offset="1" stop-color="#e1e8f6"/></linearGradient><linearGradient id="linear-gradient" x1="372.71" y1="670.86" x2="734.77" y2="395.97" gradientUnits="userSpaceOnUse"><stop offset="0" stop-color="#6d6afe"/><stop offset="1" stop-color="#3fb0f7"/></linearGradient><linearGradient id="linear-gradient-2" x1="466.03" y1="310.37" x2="466.62" y2="253.32" gradientUnits="userSpaceOnUse"><stop offset="0" stop-color="#965cf2"/><stop offset="1" stop-color="#ff8adc"/></linearGradient><linearGradient id="linear-gradient-3" x1="498.88" y1="866.67" x2="-32.9" y2="399.3" xlink:href="#linear-gradient"/><linearGradient id="GradientFill_6-2" x1="458.76" y1="1045.07" x2="434.82" y2="669.28" xlink:href="#GradientFill_6"/><linearGradient id="GradientFill_6-3" x1="467.66" y1="756.54" x2="398.68" y2="879.91" xlink:href="#GradientFill_6"/><linearGradient id="linear-gradient-4" x1="409.97" y1="946.37" x2="443.59" y2="926.59" xlink:href="#linear-gradient"/><linearGradient id="linear-gradient-5" x1="535.04" y1="873.11" x2="502.91" y2="860.41" xlink:href="#linear-gradient"/><linearGradient id="linear-gradient-6" x1="535.04" y1="932.74" x2="502.91" y2="920.04" xlink:href="#linear-gradient"/><linearGradient id="linear-gradient-7" x1="43.92" y1="720.77" x2="72.58" y2="605.75" xlink:href="#linear-gradient-2"/><linearGradient id="linear-gradient-8" x1="130.38" y1="807.73" x2="93.26" y2="985.3" gradientUnits="userSpaceOnUse"><stop offset="0" stop-color="#3e4795"/><stop offset="1" stop-color="#273088"/></linearGradient><linearGradient id="linear-gradient-9" x1="163.46" y1="827.78" x2="36.89" y2="1000.41" xlink:href="#linear-gradient-8"/><linearGradient id="linear-gradient-10" x1="136.66" y1="789.6" x2="133.46" y2="615.15" xlink:href="#linear-gradient-2"/><linearGradient id="linear-gradient-11" x1="137.22" y1="528.39" x2="112.6" y2="567.24" gradientUnits="userSpaceOnUse"><stop offset="0" stop-color="#ff8a78"/><stop offset="0.37" stop-color="#ff9584"/><stop offset="1" stop-color="#ffa799"/></linearGradient><linearGradient id="linear-gradient-12" x1="144.29" y1="504.96" x2="130.61" y2="545.56" gradientUnits="userSpaceOnUse"><stop offset="0" stop-color="#ffb89e"/><stop offset="1" stop-color="#ffa799"/></linearGradient><linearGradient id="linear-gradient-13" x1="142.83" y1="500.48" x2="131.36" y2="551.4" gradientUnits="userSpaceOnUse"><stop offset="0" stop-color="#5a2d68"/><stop offset="1" stop-color="#22043d"/></linearGradient><linearGradient id="linear-gradient-14" x1="168.63" y1="476.98" x2="142.22" y2="493.08" gradientUnits="userSpaceOnUse"><stop offset="0" stop-color="#8a4791"/><stop offset="1" stop-color="#562e65"/></linearGradient><linearGradient id="GradientFill_7" x1="327.96" y1="600.28" x2="333.61" y2="607.32" gradientUnits="userSpaceOnUse"><stop offset="0" stop-color="#f9b095"/><stop offset="1" stop-color="#f7a191"/></linearGradient><linearGradient id="linear-gradient-15" x1="269.69" y1="663.24" x2="176.33" y2="624.52" xlink:href="#linear-gradient-2"/><linearGradient id="linear-gradient-16" x1="322.63" y1="295.35" x2="167.07" y2="85.5" xlink:href="#linear-gradient"/><linearGradient id="linear-gradient-17" x1="199.44" y1="178.59" x2="193.42" y2="74.36" xlink:href="#linear-gradient"/><linearGradient id="linear-gradient-18" x1="105.53" y1="195.04" x2="106.52" y2="147.78" xlink:href="#linear-gradient"/><linearGradient id="linear-gradient-19" x1="617.96" y1="380.31" x2="641.45" y2="632.2" xlink:href="#linear-gradient"/><linearGradient id="GradientFill_6-4" x1="767.89" y1="481.08" x2="729.87" y2="740.65" xlink:href="#GradientFill_6"/><linearGradient id="linear-gradient-20" x1="727.47" y1="600.34" x2="802.08" y2="508.77" xlink:href="#linear-gradient"/><linearGradient id="GradientFill_6-5" x1="652.07" y1="441.88" x2="635.26" y2="475.22" xlink:href="#GradientFill_6"/><linearGradient id="linear-gradient-21" x1="496.01" y1="-24.84" x2="552.78" y2="134.67" gradientUnits="userSpaceOnUse"><stop offset="0" stop-color="#fd90da"/><stop offset="1" stop-color="#8e6dfd"/></linearGradient><linearGradient id="linear-gradient-22" x1="595.11" y1="847.89" x2="696.7" y2="847.89" xlink:href="#linear-gradient"/><linearGradient id="linear-gradient-23" x1="681.74" y1="742.79" x2="681.74" y2="932.02" gradientUnits="userSpaceOnUse"><stop offset="0" stop-color="#1c8ef4"/><stop offset="1" stop-color="#00cfdd"/></linearGradient><linearGradient id="linear-gradient-24" x1="646.58" y1="841.86" x2="696.83" y2="841.86" gradientUnits="userSpaceOnUse"><stop offset="0" stop-color="#a77ef7"/><stop offset="1" stop-color="#5e65d6"/></linearGradient></defs><g class="cls-1"><g id="Layer_2" data-name="Layer 2"><path class="cls-2" d="M699.52,1097.9,354.78,901c-12.79-5.85-31.59-11.36-44.14-3.72l-32.11,19.56c-6.46,3.94-27.7,17-13.49,24.72,41.79,22.73,308.84,178.76,351.28,201.85,8,4.37,19.77,5.94,32.1,4.92s25-4.34,34.76-10.35l12.83-7.91c9.06-5.59,14.08-11.7,14.57-17.56S707.37,1101.49,699.52,1097.9Z"/><path class="cls-3" d="M696.37,1071.65c0,16.78-6,28.59-15.59,34.15l-15.18,9.12c-52.07-22.22-32.75-286.1-35.92-361.12l16-393.71c-13.45-23.49-65.17-44-53.1-92L440,196.68c-6.78-4.61-184.88-107.75-152.91-127.09C292.4,66.36,297.69,63.1,303,60c11.8-7,26.85-2.67,37.89,3.71h0L644.55,237.92c29.81,17.18,53.19,58.73,53.09,92Z"/><path class="cls-4" d="M271.53,103.72c0-16.45,5.74-28.13,15-33.82,9.73-6,23.37-5.35,38.47,3.37L628.65,247.45c29.39,17,53.19,58.19,53.09,92l-1.26,741.77c-.1,33.77-24.05,47.42-53.45,30.45L323.35,937.45c-29.42-17-53.19-58.19-53.09-92Z"/><path class="cls-5" d="M271.53,103.72c0-16.45,5.74-28.13,15-33.82,9.73-6,23.37-5.35,38.47,3.37L628.65,247.45c29.39,17,53.19,58.19,53.09,92l-1.26,741.77c-.1,33.77-24.05,47.42-53.45,30.45L323.35,937.45c-29.42-17-53.19-58.19-53.09-92Z"/><path class="cls-6" d="M639.34,309.33c8,4.59,14.43.9,14.46-8.24s-6.41-20.28-14.37-24.88S625,275.3,625,284.45,631.38,304.73,639.34,309.33Z"/><path class="cls-6" d="M408.76,160.68c0-2.49,1.77-3.47,3.94-2.18,31.56,17.83,83.28,46.94,114.83,64.77a8.81,8.81,0,0,1,3.92,6.85v4.93c0,2.49-1.77,3.47-3.94,2.18C496,219.4,444.23,190.29,412.68,172.46a8.81,8.81,0,0,1-3.92-6.85Z"/><path class="cls-7" d="M461.68,225.1c24.49,6.48,46.41,35.47,48.94,64.75s-15.26,47.77-39.76,41.29-46.41-35.47-48.94-64.75S437.18,218.62,461.68,225.1Z"/><path class="cls-8" d="M450.54,267l.12-9.41c0-5.67,1-9.34,3.17-11.24,2.55-2.29,5.88-2,10.06.38l9.08,5.11c4.42,2.26,7,5,8.42,8.89,1.37,3.59,1.66,7.93,1.66,13.64v6.8a34.3,34.3,0,0,1,3.06,11.27c1.14,13.09-6.82,21.36-17.78,18.46S447.57,295,446.44,282c-.55-6.37,1.05-11.6,4.1-14.95Zm26.84,5.33c-.07-4.08-.37-7.22-1.27-9.61s-2.69-4.32-5.8-5.89-6.17-3.62-9.27-5.21c-1.85-1.08-3-1.46-3.45-1.07-.85.76-1.28,3.06-1.28,7l-.08,5.84a14.85,14.85,0,0,1,8,.06C469,264.77,473.64,268,477.38,272.33Z"/><path class="cls-9" d="M469.1,288.62v6.65a2.83,2.83,0,0,1-5.66,0v-8.83a8.31,8.31,0,0,1-1.77-4.36c-.27-3,1.58-4.95,4.12-4.28s4.82,3.68,5.08,6.72C471,286.49,470.32,288,469.1,288.62Z"/><path class="cls-10" d="M315.23,583.88c0-8.9,6.33-12.5,14.07-8,82.09,47.08,164,95.82,246.11,142.91,7.74,4.47,14,15.32,14,24.21l.41,325c0,8.89-6.34,12.48-14.08,8-82.09-47.09-164-95.83-246.11-142.91-7.75-4.47-14-15.32-14-24.21Z"/><path class="cls-11" d="M309.07,578.24l9.42-4.71c2.36-1.1,5.49-.79,8.92,1.19C405,619.21,482.41,665.28,560,709.78c7.31,4.22,13.23,14.48,13.21,22.88l.38,307.12c0,3.51-1.06,6.15-2.81,7.72s-8.61,4.53-11,5.76c-77.59-44.5-154.46-96.47-232-141-7.32-4.23-13.24-14.48-13.21-22.89Z"/><path class="cls-12" d="M304.87,586.92c0-8.41,6-11.81,13.29-7.58,77.58,44.5,155,90.56,232.59,135.06,7.32,4.22,13.24,14.48,13.21,22.88l.39,307.12c0,8.41-6,11.8-13.31,7.58-77.58-44.5-155-90.57-232.58-135.06-7.33-4.23-13.24-14.48-13.22-22.89Z"/><path class="cls-4" d="M402.3,717.51c0-2.59.9-4.43,2.36-5.33s3.68-.84,6.06.53l10.4,6a54.09,54.09,0,0,0,15.35,14.06c5.68,3.29,10.78,4.25,14.77,3.21l7.36,4.22c4.63,2.68,8.38,9.18,8.37,14.5l-.06,31.43c-21.56-12.54-43.11-25.18-64.67-37.74l.06-30.85ZM436,726.59c10.93,6.31,19.11,1.65,18.27-10.43s-10.37-27-21.29-33.29-19.11-1.65-18.27,10.42S425.12,720.27,436,726.59Z"/><path class="cls-4" d="M318.25,731.57c0-3.48,2.47-4.89,5.51-3.14Q434.57,792,545.33,855.55A12.07,12.07,0,0,1,550.8,865L551,899.5c0,3.48-2.48,4.89-5.51,3.14Q434.65,839.09,323.88,775.52A12.06,12.06,0,0,1,318.4,766Z"/><path class="cls-13" d="M356.24,884.74c0-3.49,2.48-4.9,5.51-3.14q59.88,34.33,119.8,68.63a12.12,12.12,0,0,1,5.48,9.49l.16,34.47c0,3.48-2.49,4.89-5.52,3.14Q421.79,963,361.87,928.69a12.07,12.07,0,0,1-5.47-9.48Z"/><path class="cls-4" d="M318.25,794.5c0-3.49,2.47-4.9,5.51-3.14Q434.57,854.9,545.33,918.47A12.07,12.07,0,0,1,550.8,928l.16,34.47c0,3.48-2.48,4.89-5.51,3.14Q434.65,902,323.88,838.45A12.06,12.06,0,0,1,318.4,829Z"/><path class="cls-14" d="M525.31,884.89c-8-4.64-15-15.6-15.66-24.47s5.4-12.31,13.43-7.66,15,15.6,15.66,24.47S533.34,889.53,525.31,884.89Z"/><polygon class="cls-4" points="529.24 862.5 531.37 863.56 521.91 877.96 513.56 865.58 516.31 866.65 520.72 870.84 529.24 862.5"/><path class="cls-15" d="M525.31,944.52c-8-4.64-15-15.6-15.66-24.47s5.4-12.31,13.43-7.66,15,15.6,15.66,24.47S533.34,949.16,525.31,944.52Z"/><polygon class="cls-4" points="529.24 922.13 531.37 923.2 521.91 937.59 513.56 925.21 516.31 926.28 520.72 930.47 529.24 922.13"/><path class="cls-16" d="M337.14,751.57a1.59,1.59,0,1,1,3.17-.22l.53,7.72,4.53-2.61a1.59,1.59,0,1,1,1.58,2.75l-4.34,2.5,6.51,3.77a1.59,1.59,0,0,1-1.59,2.75l-3.35-1.94,3.51,5.58a1.59,1.59,0,0,1-2.69,1.69l-3.55-5.64.28,3.93a1.59,1.59,0,0,1-3.18.22l-.53-7.72-3.93,2.26a1.59,1.59,0,0,1-1.58-2.75l3.74-2.15-6.51-3.77a1.59,1.59,0,0,1,1.59-2.75l3.35,1.94-3.51-5.58a1.59,1.59,0,1,1,2.69-1.69l3.55,5.64Z"/><path class="cls-16" d="M370.55,770.67a1.59,1.59,0,1,1,3.17-.21l.53,7.71,4.53-2.61a1.59,1.59,0,1,1,1.58,2.75l-4.34,2.5,6.51,3.77a1.59,1.59,0,0,1-1.59,2.75l-3.34-1.93,3.5,5.57a1.59,1.59,0,0,1-2.69,1.69L374.87,787l.27,3.94a1.59,1.59,0,0,1-3.18.21l-.53-7.71-3.93,2.26a1.59,1.59,0,0,1-1.58-2.75l3.74-2.16-6.51-3.76a1.59,1.59,0,1,1,1.59-2.75l3.35,1.93-3.5-5.58a1.58,1.58,0,1,1,2.68-1.69l3.55,5.65Z"/><path class="cls-16" d="M403.21,789.25a1.59,1.59,0,1,1,3.17-.22l.54,7.72,4.52-2.61a1.59,1.59,0,1,1,1.58,2.75l-4.34,2.5,6.52,3.77a1.59,1.59,0,1,1-1.6,2.75L410.26,804l3.5,5.58a1.59,1.59,0,0,1-2.69,1.69l-3.54-5.64.27,3.94a1.59,1.59,0,1,1-3.17.21l-.54-7.72-3.92,2.26a1.59,1.59,0,0,1-1.59-2.75l3.75-2.15-6.52-3.77a1.59,1.59,0,1,1,1.59-2.75l3.35,1.94-3.5-5.58a1.59,1.59,0,1,1,2.69-1.69l3.54,5.64Z"/><path class="cls-16" d="M435.87,807.82a1.59,1.59,0,0,1,3.17-.21l.54,7.71,4.53-2.6a1.59,1.59,0,0,1,1.58,2.75l-4.35,2.5,6.52,3.76a1.59,1.59,0,1,1-1.59,2.75l-3.35-1.93,3.5,5.58a1.59,1.59,0,0,1-2.69,1.69l-3.54-5.64.27,3.93a1.59,1.59,0,1,1-3.17.21l-.54-7.71-3.92,2.26a1.59,1.59,0,1,1-1.58-2.75L435,818l-6.52-3.77a1.59,1.59,0,0,1,1.6-2.75l3.34,1.93-3.5-5.57a1.59,1.59,0,1,1,2.69-1.69l3.54,5.64Z"/><path class="cls-16" d="M337.14,813.89a1.59,1.59,0,0,1,3.17-.21l.53,7.71,4.53-2.6a1.59,1.59,0,1,1,1.58,2.75l-4.34,2.5,6.51,3.76a1.59,1.59,0,1,1-1.59,2.75l-3.35-1.93,3.51,5.58a1.59,1.59,0,0,1-2.69,1.69l-3.55-5.65.28,3.94a1.59,1.59,0,0,1-3.18.21l-.53-7.71-3.93,2.26a1.59,1.59,0,0,1-1.58-2.75l3.74-2.15-6.51-3.77a1.59,1.59,0,1,1,1.59-2.75l3.35,1.93-3.51-5.57a1.6,1.6,0,0,1,.5-2.19,1.58,1.58,0,0,1,2.19.5l3.55,5.64Z"/><path class="cls-16" d="M370.55,833a1.59,1.59,0,0,1,3.17-.21l.53,7.72,4.53-2.61a1.59,1.59,0,1,1,1.58,2.75l-4.34,2.5,6.51,3.76a1.59,1.59,0,0,1-1.59,2.76l-3.34-1.94,3.5,5.58a1.59,1.59,0,0,1-2.69,1.69l-3.54-5.64.27,3.93a1.59,1.59,0,1,1-3.18.21l-.53-7.71L367.5,848a1.59,1.59,0,0,1-1.58-2.75l3.74-2.15-6.51-3.77a1.59,1.59,0,1,1,1.59-2.75l3.35,1.94-3.5-5.58a1.58,1.58,0,1,1,2.68-1.69l3.55,5.64Z"/><path class="cls-16" d="M403.21,851.57a1.59,1.59,0,0,1,3.17-.21l.54,7.71,4.52-2.6a1.59,1.59,0,1,1,1.58,2.75l-4.34,2.5,6.52,3.76a1.59,1.59,0,1,1-1.6,2.75l-3.34-1.93,3.5,5.58a1.58,1.58,0,0,1-.5,2.19,1.6,1.6,0,0,1-2.19-.5l-3.54-5.65.27,3.94a1.59,1.59,0,1,1-3.17.21l-.54-7.71-3.92,2.26a1.59,1.59,0,1,1-1.59-2.75l3.75-2.15L395.81,858a1.59,1.59,0,0,1,1.59-2.75l3.35,1.93-3.5-5.57a1.59,1.59,0,1,1,2.69-1.69l3.54,5.64Z"/><path class="cls-16" d="M435.87,870.15a1.59,1.59,0,1,1,3.17-.21l.54,7.71,4.53-2.61a1.59,1.59,0,0,1,1.58,2.75l-4.35,2.51,6.52,3.76a1.59,1.59,0,1,1-1.59,2.75l-3.35-1.93,3.5,5.57a1.59,1.59,0,0,1-2.69,1.7l-3.54-5.65.27,3.94a1.59,1.59,0,0,1-3.17.21l-.54-7.71-3.92,2.26a1.59,1.59,0,1,1-1.58-2.75L435,880.3l-6.52-3.77a1.59,1.59,0,0,1,1.6-2.75l3.34,1.93-3.5-5.57a1.59,1.59,0,0,1,2.69-1.7l3.54,5.65Z"/><path class="cls-2" d="M13.05,1099.81l138-78.61c15.05-6.87,36.59-12.35,51.92-4.37,14,7.27,37,22.15,47.15,27.95,7.73,4.41,34.55,20.48,17.84,29.56-49.15,26.73-97.79,56.79-147.7,83.94-9.44,5.13-23.25,7-37.74,5.79s-29.24-5.41-40.88-12.18l-24.48-14.24C6.36,1131.34.62,1123.89.05,1117-.51,1110.26,3.82,1104,13.05,1099.81Z"/><path class="cls-4" d="M54,1096.05c3.13-.07,13.67-10,23.66-5,12,6,34.77.68,46.26,3.44,2,.5,6-1,6.84.4,2.48,4.4,4.88,11-1.21,15.29-4.48,3.17-14.08,7.37-20.37,9.6-6.68,2.37-18.11,6.09-25.77,7.29-8.49,1.33-12.36,1.88-15.53,4.33-4.54,2.29-9.23,3.27-11.85,2.85-5.6-.89-12.12-4.17-15.11-10.54-1-2-1-11,.12-16.73.87-4.56,3.35-9.75,5.34-14.6Z"/><path class="cls-17" d="M78.56,1074.74c-3.79,9.11-2.63,23.2-11.62,28.1-6,3.27-15.43,3.3-19.53-6-2.29-5.21.75-14.11.08-25.55Z"/><path class="cls-18" d="M81.06,1088.85c6.9,2,25.92.66,38,1.64,5.17.41,9.8.37,12.22,5.07,2.22,4.32,1.06,8-4,11.58-4.48,3.17-12.08,6.78-18.37,9-6.68,2.36-18.11,6.09-25.77,7.29-8.49,1.33-12.36,1.87-15.53,4.32-4.54,2.29-9.24,3.27-11.85,2.86a20.9,20.9,0,0,1-15.11-11.22c-.95-2-1-10.28.12-16.06a29.41,29.41,0,0,1,.88-3.4c1-9,3.94-12.71,6.75-11.16,3.86,2.12,5.32,5.94,6.79,9.07a8.83,8.83,0,0,0,5.24,5c4.61,1.46,8.82-1.12,11.55-5.07a32.64,32.64,0,0,0,3.16-9.17c0-.31,0-.62,0-.93.91-7.91,4.76-7.22,4.17-5.55S79,1087.23,81.06,1088.85Z"/><path class="cls-4" d="M128.83,1094.23c-.1,3.06,4.59,3.34,3.23,8.72,2.26-2.21-.89-8.55-2.28-9.52C129.21,1093,128.73,1092.88,128.83,1094.23Z"/><path class="cls-4" d="M132.42,1064.69c2.91-1.14,9.41-14.08,20.5-12.82,4.48.51,11.68-.66,19-2.73,11.65-3.31,27.88-13.73,30.65-12,6,3.71,6.52,10.48,2.29,16.62-3.12,4.52-9,10.53-14.16,14.79-5.45,4.52-13.19,11.43-20,15.2-6.4,3.55-8.53,3.23-13.09,9.4-3.48,3.71-7.54,5.91-10.14,6.42-6.67,1.3-16.34-3-19.82-7.44-2.22-7.17-6.06-13.95-3.6-24.7Z"/><path class="cls-17" d="M147.81,1034.16c-.18,9.87,6.09,22.55-.47,30.41-4.39,5.25-13.14,8.74-20.39,1.56-4-4-4.49-13.4-9.32-23.78Z"/><path class="cls-18" d="M168.92,1046.2l2-.55c11.65-3.31,27.22-11.34,30-9.64,6,3.72,7.19,8.1,2.95,14.24-3.12,4.52-9,10.53-14.16,14.79-5.45,4.52-13.19,11.43-20,15.2-6.41,3.55-8.54,3.24-13.1,9.4-3.47,3.71-7.54,5.91-10.14,6.42-6.66,1.3-16.63-3-20.11-7.48-1.65-5.33-3.91-10.41-4.09-17.12-1-8.77-.36-13.24,3.45-13.13,7.11.21,10,4,13,5.78,6.32,3.94,10.55-1.15,11.58-7.45a36.76,36.76,0,0,0-.58-8.32c-.1-.29-.21-.58-.32-.86-2.07-7.69,1.76-8.46,1.83-6.7a6.6,6.6,0,0,0,5.86,6.72C160.92,1048.08,165.8,1046.46,168.92,1046.2Z"/><path class="cls-4" d="M200.19,1037c1.23,2.8,5.59,1,6.68,6.47,1.08-3-4.49-7.33-6.16-7.6C200,1035.76,199.52,1035.82,200.19,1037Z"/><path class="cls-19" d="M15.46,689.46C38.64,716.35,39,718.44,84.25,745l8.62-16.95c-15.2-31.1-19.74-35.25-39.46-59.46C71.34,656.2,90.61,637.25,99.8,625c29.52-39.41,13.13-66.79-12.38-61.24-22.24,4.84-56.95,62.42-75.82,94.89C3.73,672.16,1.83,673.64,15.46,689.46Z"/><path class="cls-20" d="M61,663c15.53-12,30.87-27.49,38.76-38,29.52-39.41,12.27-66-13.23-60.45C73.26,568.59,49.52,596.75,61,663Z"/><path class="cls-21" d="M141.1,767.66c2.55,28.59,16.88,119.91,12.89,145-6,37.69-4.28,83.24-4.21,123.25-1,16.81-24.13,25.6-30.86,14.92-5.4-35.76-13.09-67.08-16.21-86.95-3.5-22.24-2.34-49.28,3.3-63.9-2.31-16-13.21-57.18-22.3-85.73-3.29-10.31-21.89-43.6-2.63-76.69Z"/><path class="cls-22" d="M150.15,1025.16c0,3-.09,7.49-.08,10.4-1,16.81-24.42,25.93-31.15,15.25-.4-2.64-1-5.25-1.39-7.83C126.58,1052.73,144.31,1040.06,150.15,1025.16Z"/><path class="cls-23" d="M154.61,895.63c-7.54,37.8-28.85,88.3-40.49,126.31-6.06-32.57-21.22-88-8.11-122-1.32-9.1-5.42-26.38-10.39-44.85,10.09-19.12.45-34.39,5.21-61.32,26.71-4.65-13.6-37.25,42.92-2.92C148.8,831.44,153.55,857,154.61,895.63Z"/><path class="cls-24" d="M139.25,931.48c-15.4,34.88-43.83,103.3-58.95,146.11-7.82,11.37-35.71,10.18-35.66-.42,6.16-35.79,13.4-91,26.24-122.38,3.94-9.6,18.45-32.72,23.67-39.58,4.07-15.79,9.16-58.45,13.1-81.54-3.53-19.1-18.94-51,10.66-78.8,11.95,8.49,48.88,13.81,65.62,4.35C186.64,834.67,168.12,866.14,139.25,931.48Z"/><path class="cls-22" d="M83.43,1070.13c-.67,1.87-2,5.65-2.64,7.44-8.06,11.7-36.77,10.48-36.71-.44q.45-2.66.92-5.44C51.85,1078.67,72.55,1078.76,83.43,1070.13Z"/><path class="cls-25" d="M184.17,704.67c4.38-32.66,22.47-64,12.46-89.74-2.15-5.52-5.91-8.19-10.17-11.61-3.52-2.82-11.68-7.69-21.74-13.07a4.58,4.58,0,0,1-4.6,3.4c-4.54,0-5.88-5-4-7.9-20.42-10.43-44.87-21.25-55.19-22.47-50.31-6.52-29.67,77.5-27,101.81,2.49,22.42-4.25,44.46,2.61,64.93.31,2.11.5,10.41.86,12.66,4.52,26.51,60.6,53.33,107.36,27.9.26-3.29,0-6.72.21-12.81-.86-5.68,1.59-11.78,1.58-15.25C186.5,728.1,182,720.72,184.17,704.67Z"/><path class="cls-20" d="M185.24,697.28c2-8.55,4.73-18.38,7.25-28.41,5.06-20.1,9.18-41,4.14-53.94-2.15-5.52-5.91-8.19-10.17-11.61-11.05-8.88-9.4,14.95-26.72,12.9-2.76,3.68-1.91,12-1,19.93C162,664.85,175.77,706.14,185.24,697.28Z"/><path class="cls-26" d="M174.17,528.33c-1-2.11-2.28-3.1-2.31-4.05-.16-4.86,4.32-7.94,2.74-13.63-8.13-29.13-40.19-43.3-65.27-23.38-13.73,10.9-15.33,27.26-11,42,2.74,9.22,10.46,16,14.22,22.07C114,553.56,114.21,558,114,563h0l-.06.38c0,1.07-.1,2.16-.18,3.25.93,13.62,24.22,16.18,42,18.66-.69-9.89-2.85-14.28-3.08-21.5-.47-1.45,15.67.84,18.85-.73C175.47,561.11,175.58,531.25,174.17,528.33Z"/><path class="cls-27" d="M174.17,528.33c-1-2.11-2.28-3.1-2.31-4.05-.16-4.86,4.32-7.94,2.74-13.63-8.13-29.13-40.19-43.3-65.27-23.38-13.73,10.9-15.33,27.26-11,42,2.74,9.22,10.46,16,14.22,22.07,1,1.61.85,13.84.93,17.13,4.16,15.65,32,19.35,42.27,16.82-.69-9.89-2.85-14.28-3.08-21.5-.47-1.45,15.51.68,18.69-.9C175.31,561,175.58,531.25,174.17,528.33Z"/><path class="cls-28" d="M170.92,563.05c-1.69.9-8.66.31-13.86-1.69-3.27-1.25-5.64-4.06-6.14-4.27-2.16-.87-6.93-7.64.47-18.44,7.21-10.52-36.48,16.42-38.79,12.68-3.76-6.08-11.48-12.85-14.22-22.07-4.38-14.73-2.78-31.09,11-42,25.07-19.92,57.14-5.75,65.27,23.38,1.58,5.69-2.9,8.77-2.74,13.63,0,1,1.29,1.94,2.31,4.05C175.58,531.25,174.75,561,170.92,563.05Z"/><path class="cls-29" d="M153,539c-9-8.38-17.66,18.26-3.2,18C144.11,551,148.39,541.52,153,539Z"/><path class="cls-30" d="M152.9,542.86c1.35-3.73.21-5.08-1.43-4.68-1.8.44-4.35,3-5.68,6.89-2.15,6.22.93,14.09,6.94,11-5.17.3-4.69-5.94-3.14-9.78C150.64,543.7,152.27,541.84,152.9,542.86Z"/><path class="cls-29" d="M150.52,544.54c1.45,2.7,1.95,4.3,1.49,5.22-.33.65-1.33,1.38-3-.2A9.39,9.39,0,0,1,150.52,544.54Z"/><path class="cls-31" d="M161.84,503.84l.35-.18c12.07-6.44,10.17-19.76,5.07-24.28-9.85-8.74-36.57-7.83-53.51.9-17.25,8.88-21.48,31-16.32,48.35,3.43,11.56,11.78,17.59,15.95,26.35A10.5,10.5,0,0,0,124,558.85c12-2.47,14.72-15.09,21.9-20.64,3.94-3.05,8-3.86,9.48,4.45.28,3.66.34,7.37.61,10.73.41,5.28-.9,6.27,3.57,8.08,4.3,1.74,12.66,3.45,14.09,2.89,1.12-.44,1.05-7,.84-12-.45,0-.47,1.69-.7,1.66-.44-.06-1-.17-1.61-.24a19.47,19.47,0,0,1,.71-6c.56-1.93.81-3.32,2-4.49.45-.45.44-3.11.24-3.87a12.17,12.17,0,0,0-5.11,7.21,36.23,36.23,0,0,0-1.33,6.56c-2.56-.49-5.14-.87-6.12-2-2.52-2.91-3-6.57-3.88-12.27-.21-10,.23-11.51,5.44-19,1.44-2.06,1.52-6.26-2.06-15.63C162,504.19,161.9,504,161.84,503.84Z"/><path class="cls-32" d="M168.53,498c-3.72,4.66-19.7-6.12-42.07-2,4.79-14.77,7.56-17.91,14.27-22.23,8.76-5.64,23.51-3.34,28.14,4.43C173.3,485.66,171.52,494.27,168.53,498Z"/><path class="cls-33" d="M166.41,496.61c-3.32,4.16-17.57-5.46-37.51-1.79,4.27-13.17,6.74-16,12.73-19.82,7.81-5,21-3,25.08,3.95C170.67,485.58,169.08,493.26,166.41,496.61Z"/><path class="cls-34" d="M161.3,593.52c2.46-.29,4.83-.68,7.06-1.15a35.36,35.36,0,0,0-3.48-4.57A4.88,4.88,0,0,1,161.3,593.52Z"/><path class="cls-34" d="M160.12,593.65c-6.45,0-6.44-10,0-10a6,6,0,0,1,1.15.11c-2.16-2.22-4.38-4.15-6-4.66-14.15,1.39-37.7-3.28-42.06-14.93-4.85,1.5-9.73,6.3-8.85,9.49,4.28,17.49,33.58,22.4,55.84,20Z"/><path class="cls-35" d="M294.27,615.33c4.82-4.47,8.46-9.86,13.94-15.69,9.63-10.25,27.43-21.43,39.25-31.08,4.13-3.37,7.7,3.69,4.26,7.12s-12.54,11.9-12.57,11.92l-.42.27c3.39,3.72,5.1,9.55,5.18,13.82.11,5.72-10.65,15.22-17.25,21.86-5.86,5.9-15.44,2.49-19.29,7C298.92,628.51,296.7,622.64,294.27,615.33Z"/><path class="cls-36" d="M238.3,657c12.19-11.93,29.44-27.58,40.68-33,3-1.45,7.43-2.57,9.3-4.29,2-1.86,5-4.61,6.09-5.55,5.06,1.57,11.32,8.69,15.31,15.49-2,2.57-3.94,5.3-5.88,8.15-1.44,2.11-1.86,7.61-3.28,9.83-8.82,13.77-29.48,31.44-40.74,43.81-5.1,5.6-9.06,10.44-16.49,13.78A34.38,34.38,0,0,1,229,705c-.78-.06-1.56-.13-2.37-.24l-1.6-1.29a14.53,14.53,0,0,1-4.71-3.81c-2.71-2.22-5.53-4.58-8.17-6.86-10-8.62-32.39-29.4-45.4-47-18.14-24.61-4.16-46.74,13.75-47.51,15.39-.65,27.8,19.68,35.85,30C223.63,637.59,231.82,648.27,238.3,657Z"/><path class="cls-37" d="M271.11,147.25,317.06,174c20.16,11.64,36.49,39.92,36.42,63.1l-.86,116.33c-.07,23.17-16.5,32.54-36.68,20.9l-44.83-26.11Z"/><path class="cls-7" d="M62.51,63.07c0-7.06-2.47-11.43.55-15.28,1.92-2.45,8.61-5.43,11.44-6.4,5.48-1.9,12.44-.92,20,3.45L313.08,172.1c17.59,10.16,31.84,34.83,31.78,55.05l-.76,101.48c0,6.26-1.33,14.29-6.14,18.69-3.42,3.13-9.42,6.27-13.89,6.64s-6.35-3.87-12-7.11L93.53,219.59c-17.61-10.17-31.83-34.83-31.78-55.05Z"/><path class="cls-4" d="M57.42,66.06c.06-20.22,14.37-28.4,32-18.23L308,175.1c17.59,10.15,31.83,34.82,31.78,55L339,331.62c-.06,20.22-14.4,28.39-32,18.23L88.44,222.59c-17.61-10.17-31.84-34.83-31.78-55.05Z"/><path class="cls-38" d="M56.73,66.12c.05-20.27,14.41-28.76,32.07-18.56L307.94,175.07c18.41,10.18,31.88,35.26,31.82,55.53l-.06,19.2L56.66,85.57Z"/><path class="cls-4" d="M83.88,67.82c3.84,1,7.26,5.55,7.66,10.13s-2.39,7.47-6.22,6.46-7.26-5.55-7.66-10.13S80.05,66.8,83.88,67.82Z"/><path class="cls-4" d="M105.35,80.85c3.84,1,7.27,5.55,7.66,10.14s-2.38,7.47-6.22,6.46-7.26-5.55-7.66-10.13S101.52,79.84,105.35,80.85Z"/><path class="cls-4" d="M126.83,93.89c3.83,1,7.26,5.55,7.66,10.13s-2.39,7.48-6.23,6.46-7.26-5.55-7.65-10.13S123,92.88,126.83,93.89Z"/><path class="cls-39" d="M102,128.2c21.31,5.64,40.38,30.86,42.59,56.35s-13.28,41.57-34.6,35.93-40.39-30.87-42.59-56.35S80.65,122.56,102,128.2Z"/><path class="cls-40" d="M103.81,149.46c11.49,3,21.77,16.64,23,30.38s-7.16,22.41-18.65,19.38-21.78-16.65-23-30.38S92.32,146.42,103.81,149.46Z"/><path class="cls-39" d="M156.25,179.48c0-5.39,3.84-7.51,8.54-4.72l142.43,80.79c4.7,2.79,8.5,9.43,8.48,14.83v10.67c0,5.4-3.84,7.52-8.53,4.73L164.73,205c-4.7-2.79-8.5-9.44-8.48-14.83Z"/><path class="cls-39" d="M156.25,218.74c0-3.18,2.27-4.43,5-2.79l84.11,47.71a11.28,11.28,0,0,1,5,8.76v6.3c0,3.19-2.27,4.44-5,2.79L161.26,233.8a11.23,11.23,0,0,1-5-8.75Z"/><path class="cls-41" d="M278.57,186.05c0-2,1.43-2.82,3.18-1.81l30.38,16.34a7,7,0,0,1,3.15,5.46v7.47c0,2-1.43,2.82-3.17,1.81L281.73,199a7,7,0,0,1-3.16-5.47Z"/><path class="cls-42" d="M439.86,585.17c9.67,5.58,18.6,18.87,25.86,45.9,1.2,4.45-.51,7.64-3.77,7.14a6.34,6.34,0,0,1-2.2-.81,14.07,14.07,0,0,1-5.93-8.19c-5-18.79-9.85-27.08-14.43-29.73a8.08,8.08,0,0,0-1.11-.54c-6.09-2.31-13.65,1.63-21,5.64-1.22.7-2.83.47-4.43-.46a12.73,12.73,0,0,1-4.47-4.73c-2.46-4.29-2.4-8.85.1-10.23,8.78-4.82,17.87-9.54,27.79-5.71A24.58,24.58,0,0,1,439.86,585.17Z"/><g class="cls-1"><path class="cls-42" d="M540.24,503.67A194.26,194.26,0,0,1,539,596.22c-.76,2.85-3.34,3.54-6.16,1.91a11.16,11.16,0,0,1-1.56-1.12c-3.34-3-5.38-8.08-4.53-11.43A177.34,177.34,0,0,0,528.18,501c-5.71-24.81-17.46-50.53-37.58-75.45-.44-.58-1-1.28-1.64-2.07-12.8-15.42-26-26.77-39-34.28a81.93,81.93,0,0,0-28.75-10.51c-21.75-3.23-41.15,5.1-54.36,23.82a20.12,20.12,0,0,0-1.34,1.91c-1.14,1.74-3.31,1.85-5.55.55a11.27,11.27,0,0,1-3-2.61c-3.06-3.66-4.18-8.72-2.51-11.28a24.57,24.57,0,0,1,1.46-2.08c14.67-20.85,36.41-30.09,60.95-26.46,10.68,1.6,21.86,5.61,33.19,12.15,15,8.66,30.26,21.75,45,39.52l1.93,2.37C520.1,445.24,533.66,475,540.24,503.67Z"/><path class="cls-42" d="M365.92,350.28c-2.74-4-3.21-8.85-1.06-10.81a45.6,45.6,0,0,1,15.93-9.22c19.17-6.43,43.43-.87,68,13.3,1.16.67,2.32,1.36,3.48,2.06C477.83,361.18,503.55,386,524,416.16a258.5,258.5,0,0,1,18.11,31.15c2.17,4.41,1.71,8.74-1,9.65a5,5,0,0,1-3.93-.71,13.16,13.16,0,0,1-4.94-5.61,234,234,0,0,0-16-27.53c-18.25-27-41.31-49.23-64.33-63.21-1-.63-2.08-1.25-3.12-1.85-21.79-12.58-43.24-17.55-60.13-11.9a40.11,40.11,0,0,0-13.79,8c-1.25,1.11-3.1,1-5-.09A12.26,12.26,0,0,1,365.92,350.28Z"/></g><g class="cls-1"><path class="cls-42" d="M494.33,633.63c3.18,3.46,4.62,8.6,3.2,11.44-1.08,2.06-3.39,2.33-5.81.94a11,11,0,0,1-2.54-2.09c-13-14.19-22-29.57-26.72-44-5.09-15.46-5.33-29.75-.61-40.43,1-2.3,3.39-2.65,5.9-1.2a10.74,10.74,0,0,1,2.33,1.87c3.22,3.39,4.78,8.51,3.48,11.47-3.37,7.7-3.24,17.84.36,28.74C477.44,611,484.27,622.62,494.33,633.63Z"/><path class="cls-42" d="M450.43,556.84C431.5,571.05,406.52,581,388.8,582a5.59,5.59,0,0,1-3.05-.86,13.67,13.67,0,0,1-5.53-7c-1.68-4.5-.54-8.24,2.53-8.42,16.55-1,40.11-10.42,58.15-23.94C455.31,531,466,517.93,466,505.27a44.4,44.4,0,0,0-3-16.71c-2.17-5.33-6-10.88-12.31-16.29a32.09,32.09,0,0,0-4.81-3.48c-11.31-6.53-16.84,3.19-22.47,13-3.16,5.65-6.41,11.24-10.62,15-7.08,6.25-15.49,10.54-24.66,13.55a139.75,139.75,0,0,1-28.48,5.73,5.31,5.31,0,0,1-3.23-.83,13.66,13.66,0,0,1-5.42-6.68c-1.77-4.45-.79-8.33,2.2-8.7a129.51,129.51,0,0,0,27.14-5.43c8.41-2.76,16.13-6.65,22.52-12.33,3.52-3.11,6.41-8.17,9.25-13.17,7.44-13.05,14.77-25.93,32.33-15.79a62.28,62.28,0,0,1,9.27,6.74,71,71,0,0,1,20,27.24,66.17,66.17,0,0,1,4.85,25.44C478.56,529.06,466.61,544.65,450.43,556.84Z"/><path class="cls-42" d="M520.51,628.51c3.34,3.14,5.22,8.26,4.2,11.52-.86,2.61-3.37,3.19-6.08,1.63a10.38,10.38,0,0,1-1.83-1.37c-44.93-41.76-36.09-84.57-30.73-110.42.78-3.68,1.43-7,1.84-9.79a63.87,63.87,0,0,0-2.86-28.7c-2.88-8.85-7.9-18.76-16-29.48a69.36,69.36,0,0,0-20.39-18.42c-.71-.41-1.41-.79-2.12-1.16-9.43-4.84-18.27-6-24.49-4.49-7.51,1.83-12.41,8.65-17.72,16.16-8.84,12.43-18.73,26.34-43.27,26.37a5.76,5.76,0,0,1-2.85-.87,13.92,13.92,0,0,1-5.65-7.24c-1.52-4.5-.26-8.13,2.85-8.14,21.15,0,30.07-12.56,38-23.7,6-8.53,11.64-16.29,21.33-18.63,8-1.94,19.22-.5,31.19,5.67,1,.5,1.95,1,2.93,1.6,9.07,5.24,18.46,13.25,27,24.56,10.38,13.64,16.88,26.58,20.68,38.29,4.8,14.88,5.25,27.57,3.85,37.43-.41,3.1-1.15,6.66-2,10.64C494,561.43,486.61,597.07,520.51,628.51Z"/><path class="cls-42" d="M533.46,617.62c2.61,4.15,2.88,8.9.57,10.58-1.26.95-3,.77-4.77-.24a12.53,12.53,0,0,1-4.14-4.16c-11.85-18.76-17.46-33.41-19.28-48.75-1.69-14.43.17-28.8,3.29-47.92,1.72-10.46,1.12-23.8-4.05-39.26-4.28-12.73-11.71-27.08-23.53-42.67a109.82,109.82,0,0,0-32.08-28.94l-1.67-.94c-13.38-7.35-26-9.7-34.57-7.62-9.29,2.24-16.62,9.8-24,17.25-8.34,8.6-16.68,17.09-28.43,19a5.34,5.34,0,0,1-3.43-.81,13.57,13.57,0,0,1-5.31-6.41c-1.85-4.46-1-8.46,2-8.94,9.73-1.57,17.31-9.35,25-17.18,7.93-8.13,15.91-16.28,26.9-18.93,10.5-2.52,25.63.23,41.63,9,.63.34,1.26.7,1.9,1.06,13.12,7.58,26.77,19.17,38.93,35.17,14,18.43,22.87,35.7,28.07,51.28,6.45,19.26,7.21,35.7,5.11,48.5-2.91,17.89-4.65,31.18-3.19,43.48C519.72,591.55,524.09,602.8,533.46,617.62Z"/></g><path class="cls-42" d="M419.49,533.45a123.55,123.55,0,0,1-48.41,18.44,5.34,5.34,0,0,1-3.38-.83,13.62,13.62,0,0,1-5.32-6.42c-1.85-4.45-1-8.46,2-8.89a117.59,117.59,0,0,0,46-17.58c19.86-12.84,30.35-27.29,30.89-30.74.52-3.24,3.22-4.22,6.25-2.47a11.46,11.46,0,0,1,1,.69c3.46,2.69,5.79,7.8,5.18,11.38C452.89,501.57,441.17,519.44,419.49,533.45Z"/><path class="cls-43" d="M354.68,491.52c7.6,2,14.4,11,15.18,20.09s-4.73,14.82-12.33,12.81-14.4-11-15.19-20.09S347.08,489.51,354.68,491.52Z"/><path class="cls-43" d="M355.12,496.58c5.26,1.39,10,7.62,10.51,13.91s-3.28,10.26-8.54,8.87-10-7.62-10.51-13.91S349.85,495.19,355.12,496.58Z"/><path class="cls-44" d="M355.56,501.66c2.91.77,5.52,4.22,5.82,7.71s-1.82,5.68-4.73,4.91-5.52-4.22-5.82-7.7S352.64,500.89,355.56,501.66Z"/><path class="cls-43" d="M412.91,458.73c7.6,2,14.4,11,15.19,20.09s-4.74,14.82-12.34,12.81-14.4-11-15.19-20.09S405.31,456.72,412.91,458.73Z"/><path class="cls-43" d="M413.35,463.79c5.26,1.39,10,7.62,10.51,13.91s-3.28,10.26-8.54,8.87-10-7.62-10.51-13.91S408.09,462.4,413.35,463.79Z"/><path class="cls-44" d="M413.79,468.87c2.91.77,5.52,4.22,5.82,7.71s-1.81,5.68-4.73,4.91-5.52-4.22-5.82-7.7S410.87,468.1,413.79,468.87Z"/><path class="cls-43" d="M470.88,485.06c7.6,2,14.4,11,15.19,20.09S481.33,520,473.73,518s-14.4-11-15.18-20.09S463.28,483.05,470.88,485.06Z"/><path class="cls-43" d="M471.32,490.12c5.26,1.39,10,7.62,10.51,13.91s-3.27,10.26-8.54,8.87-10-7.62-10.51-13.91S466.06,488.73,471.32,490.12Z"/><path class="cls-44" d="M471.76,495.2c2.91.77,5.52,4.22,5.82,7.71s-1.81,5.68-4.73,4.91-5.52-4.22-5.82-7.71S468.85,494.43,471.76,495.2Z"/><path class="cls-43" d="M406.14,514.84c7.6,2,14.4,11,15.19,20.09s-4.74,14.82-12.34,12.81-14.4-11-15.18-20.09S398.54,512.83,406.14,514.84Z"/><path class="cls-43" d="M406.58,519.9c5.26,1.39,10,7.62,10.51,13.91s-3.27,10.26-8.54,8.87-10-7.62-10.51-13.91S401.32,518.51,406.58,519.9Z"/><path class="cls-44" d="M407,525c2.91.77,5.52,4.22,5.82,7.7s-1.81,5.69-4.73,4.92-5.52-4.22-5.82-7.71S404.11,524.21,407,525Z"/><path class="cls-43" d="M385.24,556.45c7.6,2,14.4,11,15.18,20.09s-4.73,14.82-12.33,12.81-14.4-11-15.19-20.09S377.64,554.44,385.24,556.45Z"/><path class="cls-43" d="M385.68,561.51c5.26,1.39,10,7.62,10.51,13.91s-3.28,10.26-8.54,8.87-10-7.62-10.51-13.91S380.42,560.12,385.68,561.51Z"/><path class="cls-44" d="M386.12,566.59c2.91.77,5.52,4.22,5.82,7.7s-1.82,5.69-4.73,4.92-5.52-4.22-5.82-7.71S383.2,565.82,386.12,566.59Z"/><path class="cls-43" d="M465.58,550c7.59,2,14.39,11,15.18,20.09S476,584.9,468.43,582.89s-14.4-11-15.19-20.09S458,548,465.58,550Z"/><path class="cls-43" d="M466,555.05c5.27,1.39,10,7.62,10.52,13.91s-3.28,10.26-8.54,8.87-10-7.62-10.52-13.91S460.75,553.66,466,555.05Z"/><path class="cls-44" d="M466.45,560.13c2.92.77,5.53,4.22,5.83,7.7s-1.82,5.69-4.73,4.92-5.53-4.23-5.83-7.71S463.54,559.36,466.45,560.13Z"/><path class="cls-43" d="M489,618.72c7.6,2,14.4,11,15.19,20.09s-4.74,14.82-12.34,12.81-14.4-11-15.18-20.09S481.4,616.71,489,618.72Z"/><path class="cls-43" d="M489.44,623.78c5.26,1.39,10,7.62,10.52,13.91s-3.28,10.26-8.55,8.87-10-7.62-10.51-13.91S484.18,622.39,489.44,623.78Z"/><path class="cls-44" d="M489.88,628.86c2.92.77,5.52,4.22,5.82,7.71s-1.81,5.68-4.73,4.91-5.52-4.22-5.82-7.7S487,628.09,489.88,628.86Z"/><path class="cls-43" d="M512.42,568.12c7.6,2,14.4,11,15.18,20.09S522.87,603,515.27,601s-14.4-11-15.19-20.09S504.82,566.11,512.42,568.12Z"/><path class="cls-43" d="M512.86,573.18c5.26,1.39,10,7.62,10.51,13.91s-3.28,10.26-8.54,8.87-10-7.62-10.52-13.91S507.59,571.79,512.86,573.18Z"/><path class="cls-44" d="M513.3,578.26c2.91.77,5.52,4.22,5.82,7.7s-1.82,5.69-4.73,4.91-5.52-4.22-5.83-7.7S510.38,577.49,513.3,578.26Z"/><path class="cls-43" d="M516.2,493.34c7.6,2,14.4,11,15.18,20.09s-4.73,14.82-12.33,12.81-14.4-11-15.19-20.08S508.6,491.33,516.2,493.34Z"/><path class="cls-43" d="M516.64,498.4c5.26,1.4,10,7.62,10.51,13.91s-3.28,10.27-8.54,8.87-10-7.62-10.51-13.91S511.37,497,516.64,498.4Z"/><path class="cls-44" d="M517.08,503.49c2.91.77,5.52,4.22,5.82,7.7s-1.82,5.68-4.73,4.91-5.52-4.22-5.82-7.7S514.16,502.72,517.08,503.49Z"/><path class="cls-43" d="M479.05,412.08c7.6,2,14.4,11,15.19,20.09S489.5,447,481.9,445s-14.4-11-15.19-20.09S471.45,410.07,479.05,412.08Z"/><path class="cls-43" d="M479.49,417.14c5.26,1.4,10,7.62,10.51,13.91s-3.28,10.27-8.54,8.87S471.49,432.3,471,426,474.23,415.75,479.49,417.14Z"/><path class="cls-44" d="M479.93,422.23c2.91.77,5.52,4.22,5.82,7.7s-1.81,5.68-4.73,4.91-5.52-4.22-5.82-7.7S477,421.45,479.93,422.23Z"/><path class="cls-43" d="M434.91,413.36c7.6,2,14.4,11,15.18,20.09s-4.73,14.82-12.33,12.81-14.4-11-15.19-20.09S427.31,411.35,434.91,413.36Z"/><path class="cls-43" d="M435.35,418.42c5.26,1.39,10,7.62,10.51,13.91s-3.28,10.26-8.54,8.87-10-7.62-10.52-13.91S430.08,417,435.35,418.42Z"/><path class="cls-44" d="M435.79,423.5c2.91.77,5.52,4.22,5.82,7.71s-1.82,5.68-4.73,4.91-5.52-4.22-5.83-7.7S432.87,422.73,435.79,423.5Z"/><path class="cls-43" d="M352.22,418.55c7.6,2,14.4,11,15.19,20.09s-4.74,14.82-12.34,12.81-14.4-11-15.18-20.09S344.62,416.54,352.22,418.55Z"/><path class="cls-43" d="M352.66,423.61c5.26,1.39,10,7.62,10.51,13.91s-3.27,10.26-8.54,8.87-10-7.62-10.51-13.91S347.4,422.22,352.66,423.61Z"/><path class="cls-44" d="M353.1,428.69c2.92.77,5.52,4.22,5.82,7.7s-1.81,5.69-4.73,4.92-5.52-4.23-5.82-7.71S350.19,427.92,353.1,428.69Z"/><path class="cls-43" d="M371.4,328c7.6,2,14.4,11,15.19,20.09s-4.74,14.82-12.34,12.81-14.4-11-15.18-20.09S363.8,326,371.4,328Z"/><path class="cls-43" d="M371.84,333.06c5.26,1.39,10,7.62,10.52,13.91s-3.28,10.26-8.54,8.87-10-7.62-10.52-13.91S366.58,331.67,371.84,333.06Z"/><path class="cls-44" d="M372.28,338.14c2.92.77,5.52,4.22,5.83,7.7s-1.82,5.69-4.74,4.92-5.52-4.22-5.82-7.71S369.37,337.37,372.28,338.14Z"/><path class="cls-43" d="M469.47,349.2c7.6,2,14.4,11,15.19,20.09s-4.74,14.82-12.34,12.81-14.4-11-15.18-20.09S461.87,347.19,469.47,349.2Z"/><path class="cls-43" d="M469.91,354.26c5.26,1.39,10,7.62,10.51,13.91s-3.27,10.26-8.54,8.87-10-7.62-10.51-13.91S464.65,352.87,469.91,354.26Z"/><path class="cls-44" d="M470.35,359.34c2.91.77,5.52,4.22,5.82,7.7s-1.81,5.69-4.73,4.92-5.52-4.23-5.82-7.71S467.44,358.57,470.35,359.34Z"/><path class="cls-43" d="M534.18,430.21c7.6,2,14.4,11,15.18,20.09s-4.73,14.82-12.33,12.81-14.4-11-15.19-20.09S526.58,428.2,534.18,430.21Z"/><path class="cls-43" d="M534.61,435.27c5.27,1.4,10,7.62,10.52,13.91s-3.28,10.26-8.54,8.87-10-7.62-10.52-13.91S529.35,433.88,534.61,435.27Z"/><path class="cls-44" d="M535.06,440.36c2.91.77,5.52,4.22,5.82,7.7s-1.82,5.68-4.73,4.91-5.52-4.22-5.83-7.7S532.14,439.58,535.06,440.36Z"/><path class="cls-43" d="M539.48,528.09c7.6,2,14.4,11,15.19,20.09S549.93,563,542.33,561s-14.4-11-15.18-20.09S531.88,526.08,539.48,528.09Z"/><path class="cls-43" d="M539.92,533.15c5.26,1.4,10,7.62,10.51,13.91s-3.27,10.26-8.54,8.87-10-7.62-10.51-13.91S534.66,531.76,539.92,533.15Z"/><path class="cls-44" d="M540.36,538.24c2.92.77,5.52,4.22,5.82,7.7s-1.81,5.68-4.73,4.91-5.52-4.22-5.82-7.7S537.45,537.46,540.36,538.24Z"/><path class="cls-43" d="M411.49,349.2c7.6,2,14.4,11,15.19,20.09s-4.74,14.82-12.34,12.81-14.4-11-15.18-20.09S403.89,347.19,411.49,349.2Z"/><path class="cls-43" d="M411.93,354.26c5.26,1.39,10,7.62,10.51,13.91s-3.27,10.26-8.54,8.87-10-7.62-10.51-13.91S406.67,352.87,411.93,354.26Z"/><path class="cls-44" d="M412.37,359.34c2.91.77,5.52,4.22,5.82,7.7s-1.81,5.69-4.73,4.92-5.52-4.23-5.82-7.71S409.46,358.57,412.37,359.34Z"/><path class="cls-4" d="M506.44,80.72l-4.05,7.06-14.13-8.1,4.05-7.07,14.13,8.11ZM593,968.89l4.05-7.06,14.13,8.1L607.16,977,593,968.89Zm-19.67-19.56,14.13,8.1-4,7.06-10-5.7Zm55,39.82,4-7.07,14.12,8.11-4,7.06-14.12-8.1Zm35.31,20.25,4.05-7.06,14.12,8.1-4.05,7.06-14.12-8.1ZM699,1029.65l4-7.06,14.13,8.1-4,7.07L699,1029.65Zm35.31,20.26,4.05-7.06,14.13,8.1-4.05,7.06-14.13-8.1Zm76.45,31.49a28.93,28.93,0,0,0,15.58-10.09l-6.37-5.07a20.69,20.69,0,0,1-11.28,7.28l2.07,7.88ZM835,1046.25c.33-5.45.14-11.09.15-16.51l-8.14,0c0,5.28.18,10.75-.14,16l8.13.48Zm.19-40.94H827L827,989l8.14,0,0,16.28Zm.07-40.71h-8.14l0-16.28h8.14l0,16.28Zm.08-40.71h-8.15l0-16.28h8.14l0,16.28Zm.07-40.71h-8.15l0-16.28h8.14l0,16.28Zm.07-40.7-8.14,0,0-16.28h8.14l0,16.29Zm.07-40.71-8.14,0,0-16.28h8.15l0,16.29Zm.07-40.71h-8.14l0-16.29h8.15l0,16.29Zm.07-40.71H827.5l0-16.29h8.14l0,16.29Zm.07-40.71h-8.14l0-16.29,8.14,0,0,16.28Zm.07-40.71h-8.15l0-16.29,8.14,0,0,16.28Zm.06-40.71H827.7l0-16.28h8.14l0,16.28Zm.07-40.71h-8.14l0-16.28h8.14l0,16.28ZM836,516.8h-8.14l0-16.28H836l0,16.28Zm.07-40.7-8.14,0,0-16.28h8.14l0,16.29Zm.07-40.71-8.14,0,0-16.28h8.14l0,16.29Zm.07-40.71-8.14,0,0-16.28h8.14l0,16.29Zm.06-40.71h-8.14l0-16.29,8.14,0,0,16.28Zm-2.09-41.45a108.29,108.29,0,0,0-4.94-16.15l-7.58,3a101.68,101.68,0,0,1,4.58,15l7.94-1.77Zm-16.4-38.6a124.5,124.5,0,0,0-10-13.52l-6.19,5.3a112.09,112.09,0,0,1,9.35,12.64l6.84-4.42Zm-28.69-30.73c-1.84-1.28-3.68-2.45-5.61-3.59l.12.07-8.77-5-4,7.06c4.61,2.64,9.31,5.14,13.68,8.17l4.63-6.69Zm-35.44-20.7-4.06,7.07-14.12-8.11,4-7.06,14.13,8.1Zm-35.32-20.25-4,7.06-14.12-8.1,4.05-7.06,14.12,8.1ZM683,182l-4,7.06L664.82,181l4-7.07L683,182Zm-35.31-20.26-4.05,7.06-14.13-8.1,4-7.06,14.13,8.1Zm-35.31-20.25-4.06,7.06-14.12-8.1,4-7.06,14.13,8.1Zm-35.32-20.26-4,7.07-14.12-8.11,4.05-7.06,14.12,8.1ZM541.75,101l-4,7.06-14.12-8.1,4-7.06Z"/><path class="cls-45" d="M563.18,373.16c.06-21.14,15-29.69,33.45-19.06l100.46,58,0,288.24-16,5-85.54-49c-18.42-10.63-33.3-36.42-33.24-57.56Z"/><path class="cls-46" d="M586.32,371.12c0-5.39-4.2-9.77-2.34-13.23,2-3.74,10.34-6,13.91-7.19,5.08-1.61,11.45-.64,18.37,3.35l282,162.77c16.47,9.51,29.8,32.61,29.75,51.53l-.71,202c0,9.27-3.27,15.84-8.5,19-3.19,1.93-12.19,5.47-16.6,4.71-3.1-.54-1.38-4.65-4.85-6.65l-282-162.78c-16.49-9.52-29.8-32.6-29.75-51.53Z"/><path class="cls-47" d="M578.93,373.78c.05-18.92,13.46-26.58,29.94-17.06l282,162.77c16.47,9.51,29.8,32.61,29.75,51.53L920,773c-.06,18.92-13.48,26.57-30,17.06L608,627.28c-16.49-9.52-29.8-32.6-29.75-51.53Z"/><path class="cls-48" d="M596.11,393.76c0-7.75,5.51-10.89,12.27-7l69.69,40c6.75,3.89,12.21,13.35,12.19,21.1l.35,76.7c0,7.75-5.52,10.89-12.27,7l-69.69-40c-6.76-3.9-12.21-13.36-12.19-21.11Z"/><path class="cls-41" d="M596.12,519.38c0-3.88,2.76-5.41,6.14-3.4L882.2,674.59a13.76,13.76,0,0,1,6.11,10.68V693c0,3.89-2.77,5.41-6.15,3.4L602.22,537.76a13.73,13.73,0,0,1-6.1-10.69Z"/><path class="cls-41" d="M596.12,564.17c0-3.89,2.76-5.41,6.14-3.4L882.2,719.37a13.76,13.76,0,0,1,6.11,10.69v7.69c0,3.88-2.77,5.41-6.15,3.4L602.22,582.54a13.72,13.72,0,0,1-6.1-10.68Z"/><path class="cls-49" d="M498.13,17.69c7.14,4,11.32,8.58,16,15.17-.05-1.15-.11,3.07-.07-3.46s-3.71-17.06,1.4-22.34c2-2.09,11.87-5.94,14.24-6.55,4.54-1.16,9.8-.37,15.43,2.7C553.62,7.88,561.36,17,567,27.92s9.13,29.24,9.12,35.84,0,2.28-.09,3.39c4.75-1.43,9-1.41,16.37,2.65S609,83.9,614.73,95s9.37,24.26,9.39,36.44c0,9.52-2.14,17.07-5.84,22.31s-10.91,8.38-16,10.07c-14.61,5.08-42.79-24.55-57.66-33l-47.09-26.64c-8.51-4.81-16.14-14-21.6-24.95s-8.74-23.67-8.63-35.55c.06-6.94-5-17.35,1.56-22.34C479.05,13.66,490,13.17,498.13,17.69Z"/><path class="cls-50" d="M489.86,21.28c7.14,4,11.32,8.58,16,15.17-.06-1.15-.12,3.07-.08-3.46s3.57-20.77,9.18-25.51,13.34-5.36,21.89-.68,16.29,13.77,21.91,24.71,9.13,29.24,9.12,35.84,0,2.28-.1,3.39c4.76-1.43,9-1.41,16.38,2.65s16.6,14.1,22.34,25.23,9.37,24.2,9.4,36.44-3.54,21.36-9.3,26.16-13.7,5.23-22.45.28l-47.76-27-47.09-26.64c-8.51-4.81-16.14-14-21.61-25S458.91,59.21,459,47.33s3.6-20.7,9.16-25.41S482.72,17.33,489.86,21.28Z"/><polygon class="cls-4" points="506.36 80.14 491.71 71.69 514.75 111.58 537.92 98.36 523.28 89.91 523.33 52.35 506.4 42.58 506.36 80.14"/><polygon class="cls-4" points="557.11 96.41 571.75 104.86 548.72 64.97 525.54 78.18 540.18 86.63 540.14 124.19 557.06 133.97 557.11 96.41"/><g class="cls-51"><path class="cls-52" d="M682,731c17,33.08,14.51,187.26,14.58,224.08-1.42,1.33-9.82,5.66-15.93,9.67-45.26-40.3-97.17-140.51-83.27-222.23C623.66,747.41,662.74,744.09,682,731Z"/></g><path class="cls-53" d="M682,728.19c15.71,30.52,55.31,82.56,77.66,104.24,8.3,71.48-41.08,117-78.33,115.12-37.13-41-86.09-143.36-77.42-205C628.14,747,664.21,740.25,682,728.19Z"/><path class="cls-54" d="M682,740.84c13.9,27,48.93,73,68.71,92.22,7.34,63.23-36.35,103.55-69.3,101.85-32.85-36.29-76.17-126.84-68.49-181.4C634.32,757.49,666.23,751.51,682,740.84Z"/><path class="cls-4" d="M679.72,883.24c-22.67-13.11-42.45-44-44.18-69.06s15.23-34.73,37.9-21.62,42.44,44,44.17,69.06S702.37,896.34,679.72,883.24Z"/><polygon class="cls-55" points="690.82 820.05 696.83 823.05 670.14 863.68 646.58 828.74 654.34 831.77 666.78 843.59 690.82 820.05"/></g></g></svg>