<svg xmlns="http://www.w3.org/2000/svg" xmlns:xlink="http://www.w3.org/1999/xlink" viewBox="0 0 1312.37 1386.54"><defs><style>.cls-1{isolation:isolate;}.cls-15,.cls-2{fill:#fff;}.cls-10,.cls-11,.cls-12,.cls-13,.cls-14,.cls-15,.cls-16,.cls-17,.cls-18,.cls-19,.cls-2,.cls-20,.cls-21,.cls-22,.cls-23,.cls-24,.cls-25,.cls-26,.cls-27,.cls-28,.cls-29,.cls-3,.cls-30,.cls-31,.cls-32,.cls-33,.cls-34,.cls-35,.cls-36,.cls-37,.cls-38,.cls-39,.cls-4,.cls-40,.cls-41,.cls-42,.cls-43,.cls-44,.cls-45,.cls-46,.cls-47,.cls-48,.cls-49,.cls-5,.cls-50,.cls-51,.cls-52,.cls-53,.cls-54,.cls-55,.cls-56,.cls-57,.cls-58,.cls-59,.cls-6,.cls-60,.cls-61,.cls-62,.cls-63,.cls-64,.cls-65,.cls-7,.cls-8,.cls-9{fill-rule:evenodd;}.cls-3{fill:#8d6dfc;}.cls-4{fill:url(#linear-gradient);}.cls-5{fill:url(#GradientFill_6);}.cls-6{fill:url(#linear-gradient-2);}.cls-7{fill:#4a9ff8;}.cls-8{fill:#4c68e5;}.cls-9{fill:#3856d8;}.cls-12,.cls-15,.cls-19,.cls-22,.cls-24,.cls-26,.cls-30,.cls-31,.cls-56,.cls-9{opacity:0.5;}.cls-10{fill:#6bb6ff;}.cls-11{fill:aqua;}.cls-12,.cls-19,.cls-22,.cls-24,.cls-26,.cls-30,.cls-31,.cls-39,.cls-42{mix-blend-mode:multiply;}.cls-12{fill:url(#linear-gradient-3);}.cls-13{fill:#e5edff;}.cls-14{fill:#d1e7ff;}.cls-16{fill:#22d2fb;}.cls-17{fill:#12a3eb;}.cls-18{fill:#1c8df3;}.cls-19{fill:url(#linear-gradient-4);}.cls-20{fill:#d0e7ff;}.cls-21{fill:url(#linear-gradient-5);}.cls-22{fill:url(#linear-gradient-6);}.cls-23{fill:url(#linear-gradient-7);}.cls-24{fill:url(#linear-gradient-8);}.cls-25{fill:url(#linear-gradient-9);}.cls-26{fill:url(#linear-gradient-10);}.cls-27{fill:url(#linear-gradient-11);}.cls-28,.cls-33{fill:#6d6afd;}.cls-28{opacity:0.25;}.cls-29{fill:#4a9ef8;}.cls-30{fill:#4164f3;}.cls-31{fill:url(#linear-gradient-12);}.cls-32{fill:url(#linear-gradient-13);}.cls-33{opacity:0.2;}.cls-34{fill:url(#linear-gradient-14);}.cls-35{fill:#ffa698;}.cls-36{fill:url(#linear-gradient-15);}.cls-37{fill:url(#linear-gradient-16);}.cls-38{fill:url(#linear-gradient-17);}.cls-39{fill:#3469c0;opacity:0.35;}.cls-40{fill:#193161;}.cls-41{fill:url(#linear-gradient-18);}.cls-42{fill:#1e2353;opacity:0.3;}.cls-43{fill:url(#linear-gradient-19);}.cls-44{fill:url(#linear-gradient-20);}.cls-45{fill:#70b4f5;}.cls-46{fill:url(#linear-gradient-21);}.cls-47{fill:url(#linear-gradient-22);}.cls-48{fill:url(#linear-gradient-23);}.cls-49{fill:url(#linear-gradient-24);}.cls-50{fill:#562e65;}.cls-51{fill:url(#linear-gradient-25);}.cls-52{fill:url(#linear-gradient-26);}.cls-53{fill:#22043d;}.cls-54{fill:url(#linear-gradient-27);}.cls-55{fill:url(#linear-gradient-28);}.cls-56{fill:#7e41df;}.cls-57{fill:#161f69;}.cls-58{fill:url(#linear-gradient-29);}.cls-59{fill:url(#linear-gradient-30);}.cls-60{fill:url(#linear-gradient-31);}.cls-61{fill:url(#linear-gradient-32);}.cls-62{fill:url(#linear-gradient-33);}.cls-63{fill:url(#linear-gradient-34);}.cls-64{fill:url(#linear-gradient-35);}.cls-65{fill:#ff8f7f;}</style><linearGradient id="linear-gradient" x1="765.33" y1="-29.8" x2="833.46" y2="161.61" gradientUnits="userSpaceOnUse"><stop offset="0" stop-color="#fd90da"/><stop offset="1" stop-color="#8e6dfd"/></linearGradient><linearGradient id="GradientFill_6" x1="807.3" y1="426.13" x2="614.29" y2="1151.39" gradientUnits="userSpaceOnUse"><stop offset="0" stop-color="#c4e0f5"/><stop offset="1" stop-color="#e1e8f6"/></linearGradient><linearGradient id="linear-gradient-2" x1="936.55" y1="803.03" x2="269.14" y2="432.09" gradientUnits="userSpaceOnUse"><stop offset="0" stop-color="#6d6afe"/><stop offset="1" stop-color="#3fb0f7"/></linearGradient><linearGradient id="linear-gradient-3" x1="570.16" y1="735.9" x2="665.72" y2="538.48" gradientUnits="userSpaceOnUse"><stop offset="0" stop-color="#965cf2"/><stop offset="1" stop-color="#ff8adc"/></linearGradient><linearGradient id="linear-gradient-4" x1="858.99" y1="859.27" x2="928.95" y2="754.8" xlink:href="#linear-gradient-3"/><linearGradient id="linear-gradient-5" x1="888.83" y1="760.06" x2="845.13" y2="855.27" xlink:href="#linear-gradient"/><linearGradient id="linear-gradient-6" x1="700.48" y1="1124.35" x2="806.2" y2="941.37" xlink:href="#linear-gradient-3"/><linearGradient id="linear-gradient-7" x1="791.91" y1="1156.21" x2="703.91" y2="843.75" gradientUnits="userSpaceOnUse"><stop offset="0" stop-color="#1c8ef4"/><stop offset="1" stop-color="#00cfdd"/></linearGradient><linearGradient id="linear-gradient-8" x1="420.59" y1="746.55" x2="459.83" y2="945.69" gradientUnits="userSpaceOnUse"><stop offset="0" stop-color="#fd70cb"/><stop offset="1" stop-color="#6e4dfd"/></linearGradient><linearGradient id="linear-gradient-9" x1="377.18" y1="907.87" x2="400.35" y2="828.67" xlink:href="#linear-gradient-2"/><linearGradient id="linear-gradient-10" x1="972.67" y1="455.71" x2="1031.68" y2="285.7" xlink:href="#linear-gradient-3"/><linearGradient id="linear-gradient-11" x1="1090.48" y1="247.17" x2="1042.92" y2="429.7" xlink:href="#linear-gradient-2"/><linearGradient id="linear-gradient-12" x1="546.37" y1="369.28" x2="525.35" y2="173.46" xlink:href="#linear-gradient-3"/><linearGradient id="linear-gradient-13" x1="446.63" y1="197.45" x2="456.13" y2="120.93" xlink:href="#linear-gradient-2"/><linearGradient id="linear-gradient-14" x1="340.19" y1="235.99" x2="350.91" y2="189.69" xlink:href="#linear-gradient-2"/><linearGradient id="linear-gradient-15" x1="370.24" y1="596.14" x2="372.93" y2="624.62" gradientUnits="userSpaceOnUse"><stop offset="0" stop-color="#ff8a78"/><stop offset="1" stop-color="#ffa799"/></linearGradient><linearGradient id="linear-gradient-16" x1="372.48" y1="594.16" x2="374.7" y2="617.66" xlink:href="#linear-gradient-15"/><linearGradient id="linear-gradient-17" x1="225.51" y1="541.03" x2="263.02" y2="641.97" xlink:href="#linear-gradient-2"/><linearGradient id="linear-gradient-18" x1="191.79" y1="803.06" x2="130.35" y2="1001.54" gradientUnits="userSpaceOnUse"><stop offset="0" stop-color="#235da3"/><stop offset="1" stop-color="#123a76"/></linearGradient><linearGradient id="linear-gradient-19" x1="156.22" y1="815.13" x2="42.29" y2="1044.68" xlink:href="#linear-gradient-18"/><linearGradient id="linear-gradient-20" x1="122.33" y1="567.36" x2="157.97" y2="750.02" xlink:href="#linear-gradient-2"/><linearGradient id="linear-gradient-21" x1="99.26" y1="794.22" x2="107.26" y2="780.29" xlink:href="#linear-gradient-15"/><linearGradient id="linear-gradient-22" x1="39.38" y1="604.54" x2="60.47" y2="758.86" xlink:href="#linear-gradient-2"/><linearGradient id="linear-gradient-23" x1="140.78" y1="514.13" x2="130.29" y2="525.89" xlink:href="#linear-gradient-15"/><linearGradient id="linear-gradient-24" x1="176.11" y1="479.52" x2="163.09" y2="511.65" gradientUnits="userSpaceOnUse"><stop offset="0" stop-color="#ffb89e"/><stop offset="1" stop-color="#ffa799"/></linearGradient><linearGradient id="linear-gradient-25" x1="182.58" y1="455.17" x2="172.99" y2="445.97" gradientUnits="userSpaceOnUse"><stop offset="0" stop-color="#8a4791"/><stop offset="1" stop-color="#562e65"/></linearGradient><linearGradient id="linear-gradient-26" x1="1203.61" y1="695.81" x2="1156.34" y2="786.69" gradientUnits="userSpaceOnUse"><stop offset="0" stop-color="#5a2d68"/><stop offset="1" stop-color="#22043d"/></linearGradient><linearGradient id="linear-gradient-27" x1="947.23" y1="655.08" x2="950.44" y2="652.64" xlink:href="#linear-gradient-15"/><linearGradient id="linear-gradient-28" x1="966.45" y1="726.09" x2="1081.03" y2="700.16" xlink:href="#linear-gradient-3"/><linearGradient id="linear-gradient-29" x1="1102.54" y1="947.06" x2="1209.29" y2="1155.27" gradientUnits="userSpaceOnUse"><stop offset="0" stop-color="#3e4795"/><stop offset="1" stop-color="#273088"/></linearGradient><linearGradient id="linear-gradient-30" x1="1079.56" y1="988.41" x2="1243.41" y2="1172.59" xlink:href="#linear-gradient-29"/><linearGradient id="linear-gradient-31" x1="1124.31" y1="880.37" x2="1147.57" y2="742.48" xlink:href="#linear-gradient-3"/><linearGradient id="linear-gradient-32" x1="1187.24" y1="927.66" x2="1182.03" y2="918.21" xlink:href="#linear-gradient-15"/><linearGradient id="linear-gradient-33" x1="1235.76" y1="863.38" x2="1208.16" y2="746.95" xlink:href="#linear-gradient-3"/><linearGradient id="linear-gradient-34" x1="1138.67" y1="698.22" x2="1140.9" y2="709.4" xlink:href="#linear-gradient-15"/><linearGradient id="linear-gradient-35" x1="1098.87" y1="654.63" x2="1116.1" y2="682.53" xlink:href="#linear-gradient-24"/></defs><g class="cls-1"><g id="Layer_2" data-name="Layer 2"><path class="cls-2" d="M1001.54,1193.24l-4.58,8.24-16.49-9.17,4.59-8.24,16.48,9.17ZM868.2,138.72l10.89,6.06,4.59-8.25-10.9-6.05-4.58,8.24Zm19.13,10.64,4.59-8.24,16.49,9.17-4.59,8.24-16.49-9.17Zm24.74,13.76,4.58-8.25L933.14,164l-4.59,8.24-16.48-9.16Zm24.73,13.75,4.58-8.25,16.49,9.17L953.28,186l-16.48-9.17Zm24.73,13.75,4.58-8.24,16.49,9.17L978,199.79l-16.48-9.17Zm24.72,13.75,4.59-8.24,16.49,9.17-4.59,8.24-16.49-9.17ZM1011,218.13l4.59-8.25,16.48,9.17-4.58,8.24L1011,218.13Zm24.73,13.75,4.59-8.25,16.48,9.17-4.58,8.25-16.49-9.17Zm24.73,13.75,4.59-8.24,16.48,9.17-4.58,8.24-16.49-9.17Zm24.73,13.75,4.58-8.24,16.49,9.17-4.59,8.24-16.48-9.17Zm24.73,13.76,4.58-8.25,16.49,9.17-4.59,8.24-16.48-9.16Zm24.73,13.75,4.58-8.25,16.49,9.17-4.59,8.25-16.48-9.17Zm24.72,13.75,4.59-8.24,16.48,9.17-4.58,8.24-16.49-9.17Zm24.73,13.75,4.59-8.24,16.48,9.17-4.58,8.24-16.49-9.17Zm24.73,13.76,4.59-8.25,16.48,9.17-4.58,8.24-16.49-9.16ZM1233,341.82a46.16,46.16,0,0,1,11.76,12.29l7.84-5.25a55.63,55.63,0,0,0-14.2-14.78l-5.4,7.74Zm16,19.88a58.72,58.72,0,0,1,5,16.65v0l9.35-1.25a68.53,68.53,0,0,0-5.79-19.39l-8.54,4Zm5.44,25.22c-.2,5.94-1.58,12.63-2.4,18.2l9.34,1.37c.86-5.91,2.28-12.93,2.49-19.19l-9.43-.38Zm-3.76,27.54,9.33,1.36-2.74,18.67-9.33-1.37,2.74-18.66Zm-4.1,28,9.33,1.37-2.74,18.67-9.33-1.37,2.74-18.67Zm-4.11,28,9.34,1.37-2.74,18.67-9.33-1.37,2.73-18.67Zm-4.1,28,9.33,1.37L1245,518.48l-9.33-1.36,2.73-18.67Zm-4.1,28,9.33,1.37-2.73,18.66-9.33-1.36,2.73-18.67Zm-4.1,28,9.33,1.37-2.73,18.66-9.34-1.37,2.74-18.66Zm-4.1,28,9.33,1.36-2.74,18.67-9.33-1.37,2.74-18.66Zm-4.1,28,9.33,1.37-2.74,18.67-9.33-1.37,2.74-18.67Zm-4.11,28,9.34,1.37-2.74,18.67-9.33-1.37,2.73-18.67Zm-4.1,28,9.33,1.37-2.73,18.66-9.33-1.36,2.73-18.67Zm-4.1,28,9.33,1.37-2.73,18.66L1207,713.1l2.73-18.66Zm-4.1,28,9.33,1.36-2.73,18.67-9.34-1.37,2.74-18.66Zm-4.1,28,9.33,1.36-2.74,18.67-9.33-1.37,2.74-18.66Zm-4.1,28,9.33,1.37L1204,798.47l-9.33-1.37,2.74-18.67Zm-4.11,28,9.34,1.37-2.74,18.67-9.33-1.37,2.73-18.67Zm-4.1,28,9.33,1.37-2.73,18.66-9.33-1.36,2.73-18.67Zm-4.1,28,9.33,1.36-2.73,18.67-9.33-1.37,2.73-18.66Zm-4.1,28,9.33,1.37-2.73,18.66-9.34-1.36,2.74-18.67Zm-4.1,28,9.33,1.37-2.74,18.66-9.33-1.37,2.74-18.66Zm-4.1,28,9.33,1.37-2.74,18.67-9.33-1.37,2.74-18.67Zm-4.11,28,9.34,1.37-2.74,18.66-9.33-1.37,2.73-18.66Zm-4.1,28,9.33,1.36-2.73,18.67-9.33-1.37,2.73-18.66Zm-4.1,28,9.33,1.37-2.73,18.66-9.33-1.36,2.73-18.67Zm-4.1,28,9.33,1.36-2.73,18.67-9.34-1.37,2.74-18.66Zm-4.1,28,9.33,1.37-2.74,18.66-9.33-1.36,2.74-18.67Zm-4.1,28,9.33,1.37-2.74,18.66-9.33-1.37,2.74-18.66Zm-4.11,28,9.34,1.37-2.74,18.66-9.33-1.36,2.73-18.67Zm-4.1,28,9.33,1.37-2.73,18.66-9.33-1.37,2.73-18.66Zm-4.1,28,9.33,1.37-2.73,18.67-9.33-1.37,2.73-18.67Zm-4.1,28,9.34,1.37-.64,4.32a40.71,40.71,0,0,1-5.35,15.41l-8-5a31.4,31.4,0,0,0,4-11.82l.63-4.32Zm-9.72,21.79a17.24,17.24,0,0,1-14.15,2.91l-1.92,9.24a26.62,26.62,0,0,0,21.66-4.55l-5.59-7.6Zm-21.62.08-4.57,8.25-16.49-9.17,4.58-8.24,16.48,9.16Zm-24.72-13.75-4.59,8.25-16.48-9.17,4.58-8.24,16.49,9.16ZM1051,1220.74l-4.58,8.24-16.49-9.16,4.59-8.25,16.48,9.17ZM1026.27,1207l-4.58,8.24-16.49-9.17,4.59-8.24Z"/><path class="cls-3" d="M767.86,21.23C776.44,26,781.45,31.52,787,39.43c-.06-1.38-.13,3.68-.09-4.14s-4.44-20.48,1.68-26.82C791,6,802.85,1.35,805.69.62c5.45-1.4,11.77-.46,18.51,3.23,10.26,5.61,19.55,16.53,26.29,29.66s11,35.08,11,43,0,2.74-.12,4.07c5.71-1.72,10.84-1.69,19.65,3.18S900.9,100.68,907.79,114s11.24,29.11,11.28,43.73c0,11.42-2.58,20.49-7,26.76s-13.1,10.07-19.21,12.1c-17.54,6.09-51.36-29.47-69.2-39.57q-28.39-16.08-56.51-32c-10.21-5.78-19.37-16.79-25.93-29.94s-10.48-28.41-10.35-42.66c.08-8.33-6-20.82,1.87-26.81C745,16.39,758.06,15.81,767.86,21.23Z"/><path class="cls-4" d="M758,25.54c8.57,4.74,13.58,10.29,19.14,18.2-.06-1.38-.13,3.68-.08-4.15S781.29,14.66,788,9s16-6.42,26.27-.81,19.54,16.53,26.29,29.66,10.95,35.08,10.94,43,0,2.74-.12,4.07c5.71-1.72,10.84-1.7,19.66,3.18S891,105,897.87,118.35s11.25,29,11.28,43.73S904.9,187.71,898,193.47s-16.44,6.28-26.94.34l-57.32-32.44q-28.4-16.08-56.51-32c-10.21-5.78-19.37-16.79-25.92-29.94S720.81,71.05,720.94,56.8s4.31-24.85,11-30.49S749.37,20.8,758,25.54Z"/><polygon class="cls-2" points="777.74 96.17 760.17 86.02 787.81 133.89 815.62 118.04 798.06 107.89 798.11 62.82 777.79 51.09 777.74 96.17"/><polygon class="cls-2" points="838.64 115.69 856.22 125.83 828.58 77.97 800.76 93.82 818.33 103.96 818.28 149.04 838.59 160.76 838.64 115.69"/><path class="cls-2" d="M314.27,153.06l4-7.19,14.37,8-4,7.19-14.38-8ZM335.43,826l-10.81-6-4,7.19,10.81,6,4-7.19Zm-18-10-4,7.19-14.38-8,4-7.19,14.37,8Zm-21.56-12-4,7.19-14.38-8,4-7.19,14.38,8ZM274.3,792l-4,7.19-14.38-8,4-7.19,14.37,8Zm-21.56-12-4,7.19-14.38-8,4-7.19,14.38,8Zm-21.56-12-4,7.19-14.38-8,4-7.19,14.38,8Zm-21.57-12-4,7.19-7.4-4.11a34.49,34.49,0,0,1-7.23-5.49l5.79-5.85a24.06,24.06,0,0,0,5.44,4.15l7.4,4.11ZM192.21,742a38.9,38.9,0,0,1-5.46-13.74l-8.08,1.5a47.3,47.3,0,0,0,6.59,16.65l7-4.41Zm-6-21c.21-5.22,1.4-10.83,2.14-15.85L180.17,704c-.76,5.19-2,11.26-2.22,16.74l8.22.3Zm3.33-24-8.13-1.19,2.38-16.28,8.14,1.2L189.5,697Zm3.58-24.41-8.13-1.2,2.38-16.27,8.14,1.19-2.39,16.28Zm3.58-24.42L188.53,647l2.38-16.28,8.14,1.19-2.39,16.28Zm3.58-24.41-8.14-1.2,2.39-16.27,8.14,1.19-2.39,16.28Zm3.58-24.42-8.14-1.19,2.39-16.28,8.13,1.19-2.38,16.28ZM207.4,575l-8.14-1.2,2.38-16.27,8.14,1.19L207.4,575ZM211,550.53l-8.14-1.19,2.39-16.28,8.14,1.2L211,550.53Zm3.58-24.41-8.14-1.2,2.39-16.27,8.13,1.19-2.38,16.28Zm3.58-24.42L210,500.51l2.38-16.28,8.14,1.2-2.38,16.27Zm3.57-24.41-8.13-1.19L216,459.82l8.14,1.19-2.39,16.28Zm3.58-24.42-8.14-1.19,2.39-16.27,8.14,1.19-2.39,16.27Zm3.58-24.41-8.14-1.19L223.1,411l8.14,1.19-2.38,16.28Zm3.57-24.41-8.13-1.2,2.38-16.27,8.14,1.19-2.39,16.28ZM236,379.63l-8.14-1.19,2.39-16.28,8.13,1.2L236,379.63Zm3.57-24.41-8.13-1.2,2.38-16.27,8.14,1.19-2.39,16.28Zm3.58-24.42L235,329.61l2.39-16.28,8.13,1.2-2.38,16.27Zm3.58-24.41-8.14-1.2L241,288.92l8.14,1.19-2.38,16.28ZM250.31,282l-8.14-1.19,2.39-16.28,8.14,1.2L250.31,282Zm3.58-24.41-8.14-1.19,2.38-16.28,8.14,1.19-2.38,16.28Zm3.57-24.42L249.33,232l2.38-16.27,8.14,1.19-2.39,16.27ZM261,208.73l-8.14-1.19,2.38-16.28,8.14,1.19L261,208.73Zm3.58-24.41-8.14-1.2,2.38-16.27L267,168l-2.38,16.28Zm3.57-24.42-8.14-1.19c.75-5.13,1.25-12,3.45-17.1l7.58,3.19c-1.8,4.13-2.38,11.63-2.89,15.1Zm6.49-20.32a11.1,11.1,0,0,1,11.34-1.9l2.68-7.77a19.27,19.27,0,0,0-19.5,3.53l5.48,6.14Zm18,1.49,4-7.19,14.38,8-4,7.19Z"/><path class="cls-5" d="M580.34,53c-7.19-4.08-15.6-5.6-23.49-2.63l-17.62,6.89C532.82,90.39,904.29,1304.77,912.47,1313.2l15.74-5.94c10.33-4.07,15.75-14.82,17.26-25.28l132.85-906.83a.44.44,0,0,0,0-.1c2.16-15.25-2.42-31.13-10.81-43.87-4.51-6.87-10.45-13.16-17.75-17.11Z"/><path class="cls-6" d="M1032.4,320.78,563,59.71c-19.15-10.61-37.38-.43-40.76,22.66L389.35,989.21c-3.38,23.1,9.34,50.45,28.49,61l469.44,261.08c19.15,10.61,37.42.44,40.8-22.65l132.85-906.84C1064.32,358.76,1051.54,331.39,1032.4,320.78Z"/><path class="cls-7" d="M1032.39,320.78,563,59.71c-19.15-10.61-37.38-.43-40.76,22.66l-6.8,46.44L1054.11,428.4l6.82-46.55C1064.32,358.76,1051.54,331.39,1032.39,320.78Z"/><path class="cls-8" d="M559,124c-6-5-9.66-15.33-8.08-23.13s7.77-10.06,13.81-5.08,9.66,15.34,8.08,23.12S565,129,559,124Z"/><path class="cls-8" d="M597.39,147.35c-6-5-9.66-15.33-8.08-23.12s7.77-10.07,13.82-5.09,9.65,15.34,8.07,23.12S603.43,152.33,597.39,147.35Z"/><path class="cls-8" d="M635.78,170.67c-6-5-9.66-15.33-8.08-23.12s7.77-10.07,13.82-5.09,9.65,15.34,8.07,23.13S641.82,175.65,635.78,170.67Z"/><path class="cls-9" d="M1004.16,540.76c-2-1.14-4.08,0-4.45,2.47a7.09,7.09,0,0,0,3.1,6.75c2.16,1.2,4.16,0,4.54-2.52a7,7,0,0,0-3.19-6.7ZM470.21,663.92l3.64,2,38.36-261.82-3.64-2L470.21,663.92Zm42-273.85c-2.05-1.14-4.08,0-4.46,2.56a7.08,7.08,0,0,0,3.1,6.71c2.16,1.2,4.2.06,4.57-2.46a7.09,7.09,0,0,0-3.21-6.81Zm15.54,319.32,3.64,2,38.36-261.86-3.64-2L527.78,709.39Zm42.07-273.88c-2.09-1.16-4.12,0-4.5,2.54a7.08,7.08,0,0,0,3.14,6.73c2.13,1.18,4.16,0,4.53-2.48a7.08,7.08,0,0,0-3.17-6.79Zm26.49,244.3,3.67,2L638.37,420l-3.67-2L596.34,679.81ZM638.48,406c-2.12-1.18-4.16-.05-4.53,2.52a7.08,7.08,0,0,0,3.18,6.75c2,1.14,4.08,0,4.45-2.52a7.08,7.08,0,0,0-3.1-6.75ZM665,650.29l3.56,2L706.94,390.4l-3.57-2L665,650.29Zm42-273.9c-2.13-1.18-4.09,0-4.47,2.6a7,7,0,0,0,3.11,6.67c2.16,1.2,4.12,0,4.49-2.46a7,7,0,0,0-3.13-6.81Zm19.2,294.29,3.64,2,38.36-261.83-3.64-2L726.24,670.68Zm42.07-273.84c-2.09-1.15-4.12,0-4.5,2.54a7.06,7.06,0,0,0,3.14,6.73c2.13,1.18,4.16.05,4.53-2.47a7.11,7.11,0,0,0-3.17-6.8ZM782,728.63l3.67,2L824,468.81l-3.68-2L782,728.63ZM824,454.8c-2-1.14-4.08-.05-4.46,2.56a7.05,7.05,0,0,0,3.11,6.66c2.16,1.2,4.16.05,4.52-2.43A7,7,0,0,0,824,454.8Zm11.89,344.26,3.63,2,38.36-261.83-3.64-2L835.93,799.06ZM878,525.24c-2.12-1.17-4.16,0-4.53,2.52a7.1,7.1,0,0,0,3.18,6.76c2.09,1.15,4.12,0,4.49-2.5a7.09,7.09,0,0,0-3.14-6.78Zm15.52,318.93,3.61,2L935.51,584.3l-3.6-2L893.54,844.17Zm42.07-273.83c-2.09-1.16-4.09-.05-4.45,2.47a7,7,0,0,0,3.09,6.75c2.13,1.18,4.16.05,4.54-2.52a7,7,0,0,0-3.18-6.7Zm26.5,244.25,3.66,2,38.37-261.86-3.68-2Z"/><path class="cls-9" d="M1027.06,566.55a6.32,6.32,0,0,0-2.41-2.54,3.16,3.16,0,0,0-3.49,0c-8.91,6.87-17.06,12.81-24.7,17.94s-14.62,9.45-21.18,13.1c-30.56,16.68-52.7,17.86-74.49,5.77-21.32-12.28-41.9-38.18-68.75-74.62-30-40.78-56.55-68.39-83.25-83.19a111.56,111.56,0,0,0-11.85-5.72c-30.77-12.68-62-8.27-99.5,12.76-3.89,2.08-7.64,4.33-11.38,6.49-28.82,16.69-55.83,32.3-85,16.15-15.15-8.41-30.89-25.4-47.75-55.32a6.35,6.35,0,0,0-2.39-2.52,3.11,3.11,0,0,0-3.52.1c-1.68,1.37-1.89,4.69-.41,7.3,18.84,33.45,36.25,52.32,52.93,61.57,31.4,17.41,60.21.68,91-17.11,3.82-2.12,7.56-4.28,11.37-6.4,35.73-20.11,65.36-24.44,94.18-12.6a102.3,102.3,0,0,1,10.68,5.17c25.18,14,50.61,40.48,79.62,79.85,27.87,37.71,49.27,64.63,72.42,78,.44.26.89.51,1.33.75,23,12.73,47,11.64,79.47-6q10.1-5.49,21.73-13.37c7.71-5.28,16-11.31,24.93-18.19C1028.41,572.52,1028.6,569.33,1027.06,566.55Z"/><path class="cls-10" d="M1022.05,547.31a6.23,6.23,0,0,0-2.41-2.51,3.17,3.17,0,0,0-3.49.07c-8.91,7-17.06,13-24.7,18.28s-14.62,9.66-21.18,13.4c-30.56,17.11-52.7,18.6-74.49,6.81-21.32-12-41.9-37.6-68.75-73.66-30-40.36-56.55-67.6-83.25-82a111.79,111.79,0,0,0-11.85-5.56c-30.77-12.24-62-7.4-99.5,14.16-3.88,2.13-7.64,4.43-11.38,6.64-28.82,17.09-55.83,33.08-85,17.34-15.15-8.19-30.89-25-47.75-54.65a6.19,6.19,0,0,0-2.39-2.49,3.09,3.09,0,0,0-3.52.15c-1.68,1.39-1.89,4.71-.41,7.31,18.84,33.19,36.24,51.81,52.93,60.82,31.4,17,60.21-.16,91-18.37,3.82-2.17,7.56-4.39,11.37-6.56,35.73-20.61,65.36-25.35,94.17-13.92a99.86,99.86,0,0,1,10.69,5c25.18,13.61,50.61,39.77,79.62,78.74,27.87,37.33,49.27,64,72.42,77l1.33.73c23,12.4,47,11,79.47-7.15q10.1-5.62,21.73-13.67c7.71-5.39,16-11.54,24.93-18.53C1023.4,553.26,1023.59,550.07,1022.05,547.31Z"/><path class="cls-11" d="M1016.15,544.87c-14.63,11.49-29.71,22.46-45.88,31.68-30.56,17.11-52.7,18.6-74.49,6.81-21.32-12-41.9-37.6-68.75-73.66-23.78-31.94-56.9-72.42-95.1-87.59-41-16.31-75.38-.2-110.88,20.8-28.82,17.09-55.83,33.08-85,17.34-15.15-8.19-30.89-25-47.75-54.65a6.19,6.19,0,0,0-2.39-2.49c4.78,12.29,26.24,48.77,47,60,31.41,17,58.42,2.09,89.17-16.13,34.31-19.53,69.74-37.09,109.36-21.38,36,14.37,70.61,56.37,93,86.46,27.87,37.33,47.92,62.82,71.07,75.85,19.3,10.82,35.46,10.23,52.48,3.88C965.8,585.12,1007.09,559.08,1016.15,544.87Z"/><path class="cls-12" d="M743.11,610.81,467.17,457.9,428.51,721.74l278.63,154.4c19.53,10.81,38.16.45,41.6-23.09l23.47-180C775.66,649.54,762.63,621.63,743.11,610.81Z"/><path class="cls-13" d="M738.09,666.63l-26.78,182,3.21.39,8.77-3.41c9.62-3.78,14.66-13.79,16.07-23.53l21.42-164.28a.44.44,0,0,0,0-.1c2-14.19-2.25-29-10.06-40.83-4.2-6.39-9.73-12.25-16.52-15.93L382.75,406.09c-6.68-3.8-14.52-5.21-21.86-2.44l-7.73,3c-3.89,1.46-5.09,2.63-5.07,2.87C351.74,443.56,743.2,631.74,738.09,666.63Z"/><path class="cls-14" d="M725.37,604.39,373.91,409.57c-7.81-4.33-15.45-4.94-21.84-2.45-8.19,3.19-14.32,11.48-16.09,23.55L314.56,595c-3.15,21.5,8.7,47,26.52,56.83L692.54,846.61c17.82,9.88,34.83.42,38-21.07l21.42-164.3C755.09,639.75,743.19,614.27,725.37,604.39Z"/><path class="cls-15" d="M731.91,672.89,531.72,562.76a6.09,6.09,0,0,0-5.22-.59c-2,.76-3.43,2.75-3.85,5.63l-1.34,8.1c-.75,5.14,2.08,11.23,6.34,13.59L727.84,699.62c4.27,2.36,8.33.1,9.08-5l1.34-8.1C739,681.35,736.17,675.25,731.91,672.89Z"/><path class="cls-15" d="M724.66,722.46,524.47,612.32a6.1,6.1,0,0,0-5.23-.58c-2,.76-3.42,2.74-3.84,5.63l-1.34,8.1c-.75,5.13,2.08,11.22,6.34,13.58L720.59,749.19c4.26,2.36,8.33.1,9.08-5l1.34-8.1C731.76,730.91,728.92,724.82,724.66,722.46Z"/><path class="cls-15" d="M596.84,704.27l-79.63-42.38a6.08,6.08,0,0,0-5.22-.59c-2,.76-3.42,2.75-3.85,5.64L506.81,675c-.76,5.14,2.08,11.23,6.33,13.59L592.77,731c4.26,2.36,8.33.1,9.08-5l1.34-8.1C603.94,712.73,601.1,706.63,596.84,704.27Z"/><path class="cls-16" d="M341.58,512c-6.18,55.44,24.56,123.16,68.75,151.16s86.54-8.06,91.19-49.8-3.17-59.09-15.8-86.61c-7.69,4.25-15.38,8.49-23.06,12.65,8.2,17.68,13.25,29,10.26,55.83s-30.22,50-58.59,32-48.12-61.5-44.16-97.09C360.74,524.06,351.13,518,341.58,512Z"/><path class="cls-17" d="M373,455.78c-16.51,9-28.3,28.41-31.39,56.17,9.55,6.06,19.16,12.11,28.59,18.13,2-17.8,9.52-30.35,20.14-36.11Q381.61,474.92,373,455.78Z"/><path class="cls-18" d="M432.77,462.13c-22.11-14-43.33-15.39-59.79-6.44q8.59,19.19,17.33,38.28c10.63-5.75,24.27-4.88,38.4,4.1S455,522.44,463,540c7.68-4.15,15.36-8.31,23.05-12.55C473.59,500.05,454.88,476.12,432.77,462.13Z"/><path class="cls-19" d="M862.32,917c-40.49-32.28-64.7-99.34-54.09-149.82s52-65.24,92.51-32.95,64.7,99.37,54.08,149.83S902.79,949.26,862.32,917Z"/><path class="cls-20" d="M817.21,731c7.36-7.67,25.84-12.07,36.2-12.63,12.08-.65,25.56,4.26,38.92,15.27,35.08,28.91,56.08,89,46.89,134.25-2.73,13.43-7.66,24.17-14.54,31.55-6.42,6.89-27.08,15.58-36.62,16.35C830.88,923.77,795.57,753.58,817.21,731Z"/><path class="cls-21" d="M845.09,901C810,872,789,811.94,798.21,766.7s45.09-58.44,80.19-29.52,56.08,89,46.88,134.25S880.17,929.86,845.09,901Z"/><polygon class="cls-2" points="896.7 790.57 906.24 797.4 837.2 863.64 811.25 795.43 823.98 802.73 840.97 826.88 896.7 790.57"/><path class="cls-22" d="M982.3,1052.44,565.56,821.72c-7.58-4.2-15-4.79-21.21-2.37-8,3.09-13.9,11.14-15.61,22.86l-28.9,204.87c-3.06,20.87,8.44,45.58,25.74,55.17l383.5,212.3c4.18-1.57,24.49-5.16,25.62-11.16Z"/><path class="cls-20" d="M1009.74,1113.2,977.2,1325.07l3,.36,8.12-3.16c.41-.16.81-.33,1.2-.52l.11,0c8.91-3.51,13.58-12.78,14.89-21.79l27.58-195.5s0-.06,0-.08c1.86-13.15-2.09-26.84-9.32-37.83-3.89-5.92-9-11.34-15.3-14.75l-420.94-233c-6.19-3.51-13.45-4.82-20.24-2.26l-7.16,2.8c-.76.28-1.4.55-2,.8-3.1,1.24-4.09,2.21-4.06,2.42C556.5,854,1014.48,1080.88,1009.74,1113.2Z"/><path class="cls-23" d="M998,1055.55,577,822.52c-7.23-4-14.32-4.58-20.23-2.27-7.59,3-13.27,10.63-14.91,21.81l-27.57,195.5c-2.92,19.91,8.06,43.49,24.56,52.64l420.93,233c16.51,9.14,32.26.38,35.18-19.52l27.58-195.51C1025.49,1088.3,1014.47,1064.69,998,1055.55Z"/><path class="cls-20" d="M538.56,970.07c4.74-27.6,15.47-36.93,29.2-33.08a28.46,28.46,0,0,1,6.52,2.77c13.46,7.67,27.19,27.73,29.28,61.14,1.34,21.14,5.38,40.52,23.1,50.63,46.58,24.93,29.78-122.64,73.88-97.47,38,21.68,15.25,100.06,30,149.71,5.13,17.22,14.38,25.32,20.76,29,26.82,14.3,29.79-30.91,33.28-49.94C800.78,994.88,811,990,827.39,999.36c17.09,9.92,24.69,16.65,21.53,108.47-1.31,37.55,0,71.17,26.42,87,29.5,16.84,32.09-17.66,45.19-34.46,7.78-10,17.89-12,27.11-6.76,10,5.69,18.93,19.91,22.82,41.86C977,1232.31,974,1283.24,972,1301L528,1049.62C531.8,1022.67,534.46,993.93,538.56,970.07Z"/><path class="cls-24" d="M489.76,814l-69.09-37.93L390.75,980.26l69.88,38.37c19.46,10.78,38,.45,41.47-23l16.66-119.57C522.2,852.58,509.21,824.76,489.76,814Z"/><path class="cls-20" d="M485.19,869.08,464.57,996.27l3.21.39,8.77-3.41c9.62-3.78,14.66-13.8,16.07-23.53l15.27-109.51s0-.06,0-.09c2-14.2-2.25-29-10.06-40.83-4.2-6.4-9.73-12.25-16.52-15.93L346.65,729.43c-6.69-3.8-14.52-5.21-21.86-2.44l-7.73,3c-3.89,1.46-5.09,2.63-5.07,2.87C315.64,766.89,490.31,834.19,485.19,869.08Z"/><path class="cls-2" d="M472.48,806.84,337.81,732.91C330,728.58,322.36,728,316,730.46c-8.19,3.19-14.31,11.47-16.08,23.55L284.61,863.52c-3.15,21.5,8.7,47,26.52,56.83L445.8,994.28c17.82,9.88,34.83.42,38-21.07L499,863.69C502.19,842.2,490.29,816.71,472.48,806.84Z"/><path class="cls-25" d="M448.91,846.68c-1.36,9.32-8.66,13.54-16.37,9.27S419.63,840.53,421,831.2s8.63-13.3,16.48-9c7.7,4.27,12.79,15.17,11.43,24.43Zm-42.32,82.83c1.37-9.32,8.64-13.36,16.49-9s12.8,15.17,11.43,24.48-8.66,13.54-16.37,9.27-12.91-15.42-11.55-24.74Zm-48.16-79.72c-1.36,9.27-8.78,13.23-16.48,9s-12.8-15.17-11.44-24.43,8.71-13.51,16.37-9.26,12.91,15.41,11.55,24.73Zm80.79-39.4c-13.12-7.28-25.71-.49-28,15.38V827l-45.74,7.2c-3.25-8.94-9.27-16.6-16.84-20.79-13.11-7.27-25.52-.32-27.85,15.54-2.3,15.69,6.35,34.44,19.47,41.71,7.56,4.2,14.78,3.69,20-.57l36.89,53.18-.28.85c-2.32,15.86,6.54,34.55,19.65,41.82s25.52.37,27.85-15.49c2.3-15.69-6.48-34.57-19.46-41.77-9.33-5.17-18.27-3.18-23.56,3.91l-34.94-50.92a20.86,20.86,0,0,0,1.78-6.47,28,28,0,0,0,.27-7.54l43.49-7.44c2.56,11.49,9.63,22.3,19,27.47,13,7.19,25.53.32,27.85-15.55S452.19,817.58,439.22,810.39Z"/><path class="cls-26" d="M1097.29,334.88,945.6,256.13l-15.82,7.59L907.54,425.29c-3.29,22.46,9.09,49,27.71,59.38l102.35,56.06L1055,534Z"/><path class="cls-20" d="M1189.48,313.89l-39.31,260.53,3.36.41,9.16-3.56c10-3.95,15.32-14.41,16.79-24.58l33.71-242.06a.58.58,0,0,0,0-.1c2.1-14.84-2.36-30.28-10.51-42.67-4.39-6.68-10.17-12.8-17.26-16.64L1006.31,147.1c-7-4-15.17-5.45-22.84-2.56l-8.08,3.16c-4.06,1.53-5.32,2.75-5.29,3C973.91,186.24,1194.83,277.43,1189.48,313.89Z"/><path class="cls-2" d="M1176.2,248.85,997.08,150.73c-8.17-4.52-16.16-5.16-22.83-2.56-8.56,3.33-15,12-16.81,24.61L923.72,414.85c-3.29,22.46,9.09,49,27.71,59.38l179.13,98.12c18.62,10.32,36.39.43,39.68-22L1204,308.25C1207.24,285.8,1194.81,259.17,1176.2,248.85Z"/><path class="cls-27" d="M1176.2,248.85,997.08,150.73c-8.17-4.52-16.16-5.16-22.83-2.56-8.56,3.33-15,12-16.81,24.61L930.59,365.52l246.57,135.07L1204,308.25C1207.24,285.8,1194.81,259.17,1176.2,248.85Z"/><path class="cls-28" d="M950.14,397.92c.6-4.49,4-6.47,7.56-4.41l81.07,44c3.57,2.06,6,7.38,5.37,11.88l-1.18,8.89c-.6,4.5-4,6.48-7.57,4.42l-81.07-44c-3.57-2.06-6-7.38-5.37-11.88Z"/><path class="cls-28" d="M945,436.93c.54-4,3.52-5.7,6.67-3.89,46,24.94,121.31,65.62,167.28,90.56,3.14,1.81,5.26,6.5,4.73,10.47l-1,7.83c-.54,4-3.53,5.71-6.67,3.89-46-24.93-121.32-65.62-167.28-90.56-3.15-1.81-5.26-6.5-4.73-10.46Z"/><path class="cls-29" d="M1148.36,300.33l-20.95,156.21,40.06,22.57,21-156.21-40.06-22.57ZM1034.37,185l-28.1,209.1,40,22.57,28.11-209.1L1034.37,185Zm55.26,69.65,40,22.56-23.26,173.31L1066.36,428l23.27-173.31Zm-122.49-50.6,40.06,22.56-21,156.21L946.19,360.3Z"/><path class="cls-30" d="M958.53,265.3c-1.07-1.07-.73-2.86.75-4s3.56-1.2,4.63-.13l36,36.07,18.8,7.2,43.9-11.73,29.74-30.46a3.92,3.92,0,0,1,4.69-.82,2.19,2.19,0,0,1,.63.62l52.25,61.87,35.94,6.7c1.82-.17,3.19.94,3,2.49a3.88,3.88,0,0,1-3.55,3.14l-37.54-6.54a2.92,2.92,0,0,1-2.67-.9l-51-60.39-27.56,28.23h0a4.32,4.32,0,0,1-2,1.14l-46.27,12.36a3.58,3.58,0,0,1-2.2-.07L996,302.35a2.52,2.52,0,0,1-1.1-.63Z"/><path class="cls-2" d="M958.42,266.13c-1-1.28-.66-3.38.84-4.71s3.58-1.37,4.62-.1L999,304.15l18.6,8.69,44.11-13.26,30.4-35.45c1.31-1.52,3.41-1.93,4.7-.9a2.51,2.51,0,0,1,.62.73l47.85,71.32,41-4.34a2.61,2.61,0,0,1,3,3,4.23,4.23,0,0,1-3.62,3.64L1143,342.06a2.65,2.65,0,0,1-2.64-1.09l-46.68-69.56-28.17,32.84h0a4.27,4.27,0,0,1-2,1.31l-46.48,14a3.13,3.13,0,0,1-2.2-.11L995,310.12a2.46,2.46,0,0,1-1.08-.75Z"/><path class="cls-31" d="M505.33,179.05l75.81,34.84c18.1,10.48,23.52,44.33,20.55,66.94l-15.4,113.49c-3,22.6-20.07,32.46-38.17,22l-68.71-41.7,2.72-18.8Z"/><path class="cls-20" d="M314.62,95.51c1-7.6-1.07-12.2,2.7-16.5,2.4-2.74,10-6.27,13.16-7.46,6.14-2.31,13.46-1.59,21,2.76L568.21,201c17.45,10.1,29.31,36,26.45,57.83L579.8,368.32c-.88,6.76-3.4,15.48-9.17,20.46-4.1,3.55-11,7.22-15.81,7.83s-6.28-3.86-11.84-7.08L326.21,262.83c-17.47-10.12-29.31-36-26.45-57.83Z"/><path class="cls-2" d="M308.75,99c2.86-21.81,19.34-31.32,36.82-21.2L562.33,204.48c17.46,10.11,29.31,36,26.46,57.84L573.93,371.8c-2.86,21.81-19.37,31.31-36.83,21.21L320.34,266.31c-17.48-10.12-29.32-36-26.46-57.84Z"/><path class="cls-32" d="M308.75,99c2.86-21.81,19.34-31.32,36.82-21.21l216.76,126.7c17.46,10.11,29.32,36,26.46,57.84l-1.4,10.27a56.63,56.63,0,0,0-5.85-3.9L307.46,108.48Z"/><path class="cls-33" d="M347,166c22.08,5.06,39,31.34,37.87,58.72s-20,45.47-42.07,40.42-39-31.33-37.88-58.71S324.93,161,347,166Z"/><path class="cls-34" d="M346,188.88c11.9,2.72,21,16.9,20.42,31.65s-10.78,24.52-22.68,21.8-21-16.9-20.42-31.66,10.78-24.51,22.68-21.79Zm-.53,12.53c-6.32-1.45-11.72,3.74-12.05,11.58s4.52,15.36,10.85,16.81,11.71-3.74,12.05-11.58S351.83,202.86,345.51,201.41Z"/><path class="cls-33" d="M398.12,218.72c.76-5.82,5.15-8.29,9.81-5.5l141.54,80.25c4.65,2.78,7.81,9.77,7,15.59L555,320.57c-.76,5.82-5.15,8.28-9.8,5.5L403.68,245.82c-4.65-2.78-7.8-9.77-7-15.59Z"/><path class="cls-33" d="M392.68,261.07c.45-3.44,3.05-4.9,5.79-3.25l83.59,47.38c2.74,1.65,4.61,5.77,4.16,9.21l-.88,6.8c-.45,3.43-3,4.89-5.79,3.25L396,277.07c-2.75-1.65-4.61-5.77-4.16-9.21Z"/><path class="cls-2" d="M332.39,89.38c4.82,1.1,8.51,6.83,8.26,12.8s-4.36,9.91-9.17,8.81-8.51-6.83-8.26-12.8S327.58,88.28,332.39,89.38Z"/><path class="cls-2" d="M354.31,102c4.81,1.1,8.5,6.83,8.25,12.79s-4.36,9.92-9.17,8.81-8.51-6.83-8.25-12.79S349.5,100.87,354.31,102Z"/><path class="cls-2" d="M378,115.79c4.81,1.1,8.51,6.83,8.25,12.8s-4.36,9.91-9.17,8.81-8.51-6.83-8.25-12.8S373.21,114.69,378,115.79Z"/><path class="cls-35" d="M367.87,596.73a28.39,28.39,0,0,1-3.69-.87c1.35-.19,2.46-.37,3.23-.52,5.59-3.22,8.64-4.7,15-9.56-4.51-9.14-15.72.35-17.91.52-.86.07-6.7-1-12.37-1.23-8.07-.37-13.19,1.35-18.72,7.47-2.58,1.81-5.48,4-8.44,6.35.7,7.63,1.67,14,6.34,20.66a14.58,14.58,0,0,1,4.38-1.23c5.73-.6,11.24.72,23.9,4.92,12.83,4.26,15.11,4.13,34.93-10.14,14.52-10.45,22.43-16.3,19.95-24C408.68,571.18,385.78,594.22,367.87,596.73Z"/><path class="cls-36" d="M366.23,615.46c-12.34-2-21-12.18-31.08-6.21-2.55,1.51-4.86,3-7.06,4.5a30.7,30.7,0,0,0,3.24,5.8,14.58,14.58,0,0,1,4.38-1.23c5.73-.6,11.24.72,23.9,4.92,12.83,4.26,15.11,4.13,34.93-10.14,9.75-7,16.52-12,19.16-16.78,1.3-2.35-2.49-5-5.6-2.78C392.13,605,384.14,613,366.23,615.46Z"/><path class="cls-37" d="M410.23,589.22c-5.42,4.12-33.87,17.24-40.54,15.91-1.79-.36-1.5-3.83-1.68-8.1-1.37,2.84.32,9.21-2.4,7.83-15.26-7.76-21.86-9.19-30.68-3.6a31.63,31.63,0,0,1,17.44,1.25c5.32,1.79,10.24,4.92,15.87,6.46C383,604.62,392,603.11,410.23,589.22Z"/><path class="cls-38" d="M206.34,668.17c-3.08-3-6-6.2-8-8.06-15.49-14.38-41-61-55.34-130.54,5.19-4.22,20.54-8.21,23.31-8.75,12.06-2.38,22.29,4,25.8,8.13,6.43,7.59,13,21.44,17,43.56,2.71,14.91,13.83,34.84,21.33,53.28.33.81.66,1.62,1,2.42a350.24,350.24,0,0,1,33-15c14.95-6,32-11.6,50.45-17,2.2-.63,4.24.81,6.42.19,1.21-.53,6.63-2.44,7.59-2.9-.08,11,3,19.74,9.05,26.77-1.12.38-7.07,3.12-8.28,3.57-1.82.88-3.91,3.64-5.3,5.08-13.88,14.33-53.93,35.79-90.79,47.06C221.07,679.88,211.62,677.79,206.34,668.17Z"/><path class="cls-39" d="M206.34,668.17c-3.08-3-6-6.2-8-8.06-15.49-14.38-41-61-55.34-130.54,30.87-25.12,60.43,16.37,65.49,44.2,6.55,36.05,13,66.82,13.3,104.07A17.48,17.48,0,0,1,206.34,668.17Z"/><path class="cls-40" d="M63.83,1118.38c-.85,3.1-.38,5.68-1.9,9.74a112,112,0,0,0-5,15.65c-2.56,10.9,1,25.5-2.49,40.92-1.79,6.16-1.66,11.1,2.44,16.55s11.57,13.89,21.43,13.57a14.79,14.79,0,0,0,10.39-5,24.84,24.84,0,0,0,6.21-18.28c-.21-2.94-1.92-12.41-1.63-21,.26-7.56,1.64-11.71,1.46-20-.18-8.76-.85-20.81-1-26.46Z"/><path class="cls-40" d="M150.86,1073.53c-2.86,7.76-4.74,11.07-4.87,21.9,1.75,5.71,5.78,8,10.26,12l3.17.69c7.84,4.25,10.7,19.12,18,25.9,5.13,4.78,15.35,7.38,25.49,9.34,10.83,2.09,21.13-1,18.31-9.53-7-21.17-37.3-45.09-38-68.75Z"/><path class="cls-41" d="M196.33,922.61c-.78,40.57-9.62,116.48-8.27,156.46-10.36,10.39-31.12,7.17-37.86-3.46-4.21-36.78-9.11-89-9.6-109.22-.4-16.8,1.1-32.25,5.39-47.33-6-44.39-31.65-104.95-25.55-146.71,2.68-18.34,14.7-38.09,18.2-53.22,30.23,37.25,53.27,19.4,65.78,16.16-.07,12.87.91,11.15.49,24.68-1.41,45.74-3.54,94.58-6,142C199,909.1,198.31,916.89,196.33,922.61Z"/><path class="cls-42" d="M143.23,1004.87c-1.41-16-2.42-29.88-2.63-38.48-.4-16.8,1.1-32.25,5.39-47.33-6-44.39-31.65-104.95-25.55-146.71,2.68-18.34,14.7-38.09,18.2-53.22,30.23,37.25,53.27,19.4,65.78,16.16,0,1.44,0,2.69,0,3.8l-39.63,29.28,9.77-2.2c-.38,52.7-6.9,100.76-7.88,152.74-10.22,29.47-16.24,54.65-23.3,85Z"/><path class="cls-43" d="M129,952.12c-7.29,40.56-28.54,139-33.61,179-13.09,7.28-29.8,3.48-34.43-7.16-.15-36.78,0-102.93,2.75-123.11C66,984,71.94,958.1,78.65,943c-2.68-94.78-13.27-120-.47-161.8,5.63-18.34,20.34-36,26.27-51.17,8.11,12.47,20.63,30.15,47.45,28,2.63-.21,25-16.19,32.38-18-9.36,56.38-36.33,130-49.45,191.53C133.78,938.61,131.89,946.4,129,952.12Z"/><path class="cls-44" d="M170.8,519.87a22.27,22.27,0,0,1,8.37,2.82c20,11.08,26.91,43.68,30.12,72.25,2.78,24.77.67,45.34-.12,68-.63,18.09,1.71,34.82.89,51.94-.24,5.07-2.16,10.57-2.68,16,0,3.86-1.36,7.7-1.31,10.68-10,38.09-104.41,41.25-118.15,15.45a75.54,75.54,0,0,0,2.42-11.53c-8.89-8.09-3.75-27.83-5.16-41.61-1.05-10.35-2.53-20.91-5.6-28.45-12.84-31.63-30.77-56-34.33-80.26-2.45-16.73,18.92-37.55,47.1-54.42C119.47,524.49,156.28,515.63,170.8,519.87Z"/><path class="cls-45" d="M209.38,595.81c-10,10.16-71.81,69.2-140.21,54l.7-4.66c72.1,16,137.2-54,137.39-54.25l1.76,1.68.27,2.33Z"/><path class="cls-45" d="M210.49,632.45C193.58,648.38,141,692.24,82.14,683.73c-.41-1.74-.86-3.41-1.36-5,62.67,10.2,118.85-42.25,129.87-53.29C210.62,627.8,210.56,630.13,210.49,632.45Z"/><path class="cls-45" d="M79.23,674.53l12.15-25.3,16.3,27.49,14-33.47L141,669.06l10-35.95,20.37,22,9.28-40.91,15.2,22.94,12.75-48q.38,2.93.7,5.8c.07.68.15,1.36.21,2l-12.47,47-15-22.68-9,39.66-20.56-22.19-10.17,36.62-19.77-26.44L108.21,683,91.75,655.25l-11.1,23.08c-.33-1-.69-2-1.07-2.93C79.47,675.11,79.35,674.82,79.23,674.53Z"/><path class="cls-45" d="M92.51,670.1a2.68,2.68,0,0,1,2.4,2.67,2.26,2.26,0,0,1-2.4,2.33,2.67,2.67,0,0,1-2.4-2.67A2.25,2.25,0,0,1,92.51,670.1Z"/><path class="cls-45" d="M107,655.39a2.68,2.68,0,0,1,2.41,2.67,2.26,2.26,0,0,1-2.41,2.33,2.68,2.68,0,0,1-2.4-2.67A2.26,2.26,0,0,1,107,655.39Z"/><path class="cls-45" d="M123.92,666.29a2.67,2.67,0,0,1,2.4,2.67,2.25,2.25,0,0,1-2.4,2.33,2.68,2.68,0,0,1-2.4-2.67A2.25,2.25,0,0,1,123.92,666.29Z"/><path class="cls-45" d="M138.25,647.32a2.67,2.67,0,0,1,2.4,2.67,2.25,2.25,0,0,1-2.4,2.33,2.67,2.67,0,0,1-2.4-2.67A2.24,2.24,0,0,1,138.25,647.32Z"/><path class="cls-45" d="M156.2,654.43a2.67,2.67,0,0,1,2.4,2.67,2.25,2.25,0,0,1-2.4,2.33,2.68,2.68,0,0,1-2.4-2.67A2.26,2.26,0,0,1,156.2,654.43Z"/><path class="cls-45" d="M166.91,633.47a2.67,2.67,0,0,1,2.4,2.67,2.25,2.25,0,0,1-2.4,2.33,2.68,2.68,0,0,1-2.4-2.68A2.24,2.24,0,0,1,166.91,633.47Z"/><path class="cls-45" d="M185,637.91a2.69,2.69,0,0,1,2.4,2.67,2.25,2.25,0,0,1-2.4,2.33,2.67,2.67,0,0,1-2.4-2.67A2.25,2.25,0,0,1,185,637.91Z"/><path class="cls-45" d="M194.62,615.14a2.68,2.68,0,0,1,2.41,2.67,2.26,2.26,0,0,1-2.41,2.33,2.68,2.68,0,0,1-2.4-2.67A2.26,2.26,0,0,1,194.62,615.14Z"/><path class="cls-45" d="M210.05,617.54a2.45,2.45,0,0,1,.61.13c0,1.62,0,3.23,0,4.83a2.18,2.18,0,0,1-.63,0,2.68,2.68,0,0,1-2.4-2.67A2.26,2.26,0,0,1,210.05,617.54Z"/><path class="cls-45" d="M76.45,655.88a2.68,2.68,0,0,1,2.4,2.67,2.26,2.26,0,0,1-2.4,2.33A2.68,2.68,0,0,1,74,658.21,2.26,2.26,0,0,1,76.45,655.88Z"/><path class="cls-39" d="M91.2,608.23c3.6,19.52-1,52.56-10.57,70a222.6,222.6,0,0,0-15.09-32.06C66.09,644.69,86.75,584.11,91.2,608.23Z"/><path class="cls-46" d="M84.84,755.36c4.36,2.27,12.18,4.25,15.37,5.89,1.65.85,13.54,7.22,20.24,11.12,7.17,4.17,9.54,10.71,14.12,17.84,3.33,5.85,4.87,10.13,5.49,13.12s-6.9,9.61-10.32,9.08c-7.76-1.2-16.18-10.09-18.27-11-17.71-7.78-26-8.13-32.63-14.8-2.84-2.85-5-11.58-11-19.16l9.9-10.19Z"/><path class="cls-47" d="M43.79,583.55C28,608.83,16.64,654.81,2.62,686a20.06,20.06,0,0,0-1.81,6.62c-2.6,7.73,1.45,14.19,6.81,21.07,13.12,16.84,23.61,32,50.62,52.15,2,1.5,4.16,1.48,7.07,2.08,1.69,1.23,4.1,3.48,5.9,4.76-2.3-2.6,9.53-17.39,15.37-16.85-1.6-1.74-3.24-3.64-4.92-5.65-.37-2.62-.53-4.32-1.67-6.5-4.72-9.06-20.59-31.42-35.76-47.35,6.27-8.17,11.59-17.68,16-24.39a406.16,406.16,0,0,0,20.87-36.09c2.45-4.76,3.82-7.12,6.18-12C104.77,587.43,62.93,552.89,43.79,583.55Z"/><path class="cls-35" d="M157.15,538.36c.29-1.53.65-3.05,1-4.69.93-4.66-.28-13.71,1-24.39L118.66,492.2c-.67,22.7-4.39,27.38-8.57,45.88.45,18.19,45.63,26.33,46.58,5A33.28,33.28,0,0,1,157.15,538.36Z"/><path class="cls-48" d="M157.15,538.36c.29-1.53.65-3.05,1-4.69.93-4.66-.28-13.71,1-24.39L118.66,492.2c-.15,5.15-.46,9.4-.9,13.09-1.44,15,13,41.23,38.91,37.76A33.28,33.28,0,0,1,157.15,538.36Z"/><path class="cls-35" d="M159.47,537.35c-5-3.28-18.52-11.51-23-14.78-9.72-7.13-8.54-16.23-11.36-30.48-9.09-6.5-12.14-11.65-13-17.48-1.93-13.83,6-28.74,16.51-36.88,9.24-7.12,19.86-9.12,31.8-6.5,23.2,5.08,32.76,22.63,34,42.7a13.31,13.31,0,0,1-.65,5,66.1,66.1,0,0,0-2.15,7.46c-1.22,5.95,2.8,8.11,1.2,15.5-2.18,10.06-10.53,29.69-13.95,33C176.31,537.36,164.6,538.18,159.47,537.35Z"/><path class="cls-49" d="M193.38,465.18a65.79,65.79,0,0,1,1.11,8.75,13.31,13.31,0,0,1-.65,5,63.65,63.65,0,0,0-2.14,7.46c-1.23,5.95,2.79,8.11,1.19,15.5a120,120,0,0,1-6.28,18.49c-14.94,11.36-28-2.52-30-5.09-9.36-12.07-10.08-30.13-3-47C164.39,471.89,182,471.18,193.38,465.18Z"/><path class="cls-50" d="M105.7,468.07c.62,7.67,6.63,27.37,11.17,34.68,4.71,7.57,2.66-1.71,5.14-6.89,1.91-4,8.08-4.45,10-8.55.91,3.49,2.14,6.89,4.39,8.12,1.43.78,4.33,1.85,4.44-2.27.4-14.23,7.13-15.22,5-23.75-1.6-6.4-1.21-9.15.35-11.46,4.65.65,7.64,5.41,13.08,7.76,3.79,1.64,20.49,3.41,32.36-3.07,11.47-6.27,12.54-20.24,2.9-29.22-5.36-5-11.37-6.26-19.79-11.89-16.06-10.75-36.12-6.93-47,5C106.62,430.77,104.32,450.92,105.7,468.07Z"/><path class="cls-35" d="M128.15,480.06c-8.75-4-9.84,6.48-9.05,13,.54,4.45,4.16,4.48,5.13,8,1.15,4.25,4.15,6.47,6.87,6.66,5.53.39,2.92-8.13,2.58-11.44C134.84,491,133.7,482.58,128.15,480.06Z"/><path class="cls-51" d="M152.14,451.06c-.84,5.95,6.8,12.94,17.56,13.53,10,.55,23.49-1.81,28.49-13.93,1.76-4.26-.35-11.83-5.24-15-3.34-2.14-7.61-1.86-12,.05-7.37,3.24-13.52,11.48-18.79,13.51C157.18,451.19,152.23,450.43,152.14,451.06Z"/><path class="cls-52" d="M1121.57,594.1c-13.16-2-23.57,7-28.85,19.11-6.16,14.15-5.86,32.45-3.22,42.06,8.58,31.22-6.54,44.82-12.1,59.37-2.45,6.41-3.52,14.81-3.21,24.07.37,11.18,6.82,16.94,12.23,26.95,1.36,10.22,3.88,19.7,7.87,27.68,14.82,29.62,64.66,43.92,112.5,41.73,38.28-1.75,75.29-15.29,92-30.85,18.39-17.08,20.77-60.45-10.12-64.87-7.19-1-15.57-2.59-21.71-10-4.23-5.11-.14-18.6.87-36.55,1-17.39-3-35.68-28.27-41.78-9.68-2.34-19.12-3.3-27.21-8.61-17.65-11.58-11.19-33.1-30.35-45.77-11.56-7.65-30.17-9.31-50.49-3.67C1128.26,593.32,1124.94,593.73,1121.57,594.1Z"/><path class="cls-53" d="M1110.15,610.47c-1.1,8.49,2,15.88,7,23,11.77,16.6,18,15.3,24.4,36.45,10.59-7.07,17.86-8.14,20.91-1.21,4.91,11.16,1.82,17.76,3,29.3,1.86,18.75,24.29-7,41.88,7.42,17.29,14.13,5.43,24.05,12.11,44.06,2.49,7.49,4.44,17.33,11.43,20.64,21.75,10.3,30.08,36.21-8.64,49.08-24,8-58.82,6-87.93-4-38.43-13.09-62.13-69.75-52.32-96.67,4.06-11.14,15-19.46,15.07-28.16C1097.26,660.52,1091.49,641.34,1110.15,610.47Z"/><path class="cls-54" d="M935.8,637c-5.86,1.9-2.75,8.7-.5,10.62,3.39,3.35,10.2,5.53,9.61,9-.65,4,21.35,11.57,21.3,11.25-3.25-10.71-8.94-17-10.14-17.83C944.25,642.21,945.6,647.24,935.8,637Z"/><path class="cls-35" d="M951.21,682.33c12.64,16.87,22.64,49.43,35.34,64.61,4,4.8,10,12.7,16.92,11.49,36-6.25,3.23-20.18,7.07-30-6.06-21.15-31.8-33-42.38-56.4a42.86,42.86,0,0,0-1.93-4.74c-4.36-8.89-8.53-11.61-25.46-14.81-4.94-.93-6.59-2.56-9.64-5l-11.1-11c-3.67-3-6.76-4-8.29-3.17-1.71.88-6.3,9.68-6.43,14.43v0c-.63,1.79,1.33,5,5.67,8.42l13.79,19.25,1.2.17C941.34,677.69,947.45,679.16,951.21,682.33Z"/><path class="cls-55" d="M1008.94,765.6c24.89-2.46,60.57-6.41,79.83-16.34,12.53-6.46,35.13-34.18,22.41-49.57-2.69-7.21-26.72,7.93-38.55,12.42-21.36,8.11-35.51,11.93-57.64,17.59-6-16.87-21.92-30.21-34.49-45.9a19.3,19.3,0,0,0-7-5.65,30.85,30.85,0,0,1-4-6c-2.12-.87-15.63,4.74-19.16,11.43,1,1.29,3.07,4.22,4,5.66,1.34,2,1,4.59,2.1,7,3.63,8,20.83,43,32.26,56.66,4.35,5.2,10.73,14.39,18.28,13.08Z"/><path class="cls-56" d="M1008.94,765.6c24.89-2.46,60.57-6.41,79.83-16.34,10.83-5.58,29.16-27,25.75-42.68-4.66-4.39-7.47-6.74-11.43-6.57-5,.22-11,5.55-22.42,11.47-17.34,9-33.66,9.44-47.07,25.31-9.9,11.71-26.42,21.83-40.44,21.39,3.85,4.42,8.57,8.69,13.88,7.76Z"/><path class="cls-35" d="M1200,1226.86c-.84,3.71,1.53,9.1,1.94,9.69,9.1,13.21-1.74,12.09-1.26,30.93,0,1.73-7.66,31.5-7.66,31.5s-18.14,4.39-19.49,4.15-12.37-4.49-12.37-4.49c.93-1.61,2.16-5.54,2.92-7,5.22-10.17,8-22.51,10-34.9,1.33-8.19,3.83-20.91,2.15-29.51Z"/><path class="cls-57" d="M1160.55,1298.42a79.94,79.94,0,0,0-5.1,12,5.68,5.68,0,0,0,.24,4.87c4.15,6,26.26-3.92,33.76-10.11,4.85-4,5.11-8.91,6.42-14.88,2-9,2.28-10,4.75-19.14l1.6,25.22,2,1.32c.8-10.22,2.33-23.72,4.21-32.43.75-3.46,2-7.4,2.18-9.33,1.28-11.35-4.17-17.14-9.24-20.52,1.67,7-4.52,18.08-7.28,32.17C1190.77,1284.66,1175.69,1298.53,1160.55,1298.42Z"/><path class="cls-58" d="M1080.46,879.52c1.72,7.74-6.19,34.48-4.17,44.76,1.93,33.85,7.88,62.5,30.7,130.2,0,.77,20.85,42.17,22.24,46.5,14.21,44.17,31.92,92.11,47,136.73,5.58,4.32,22.46,3,24.63-7.52-4.66-44.57.42-88.52-7.23-119-5.83-23.24-13.47-33.84-26-51.06-3.84-43.81-6.61-131.67-16.58-165.36Z"/><path class="cls-42" d="M1080.46,879.52c1.72,7.74,6.83,22.08,8.85,32.36,6.37,15.59,19.78,36.92,28.83,54.84,2.71,21.72,1.95,50.6,15.52,90.86l12.28,93.08c10.11,29.15,20.73,58.77,30.27,87,5.58,4.32,22.46,3,24.63-7.52-4.66-44.57.42-88.52-7.23-119-5.83-23.24-13.47-33.84-26-51.06-3.84-43.81-6.61-131.67-16.58-165.36Z"/><path class="cls-35" d="M1182.1,1272c-.43,4.11,1.47,8.28,2,12.38a144,144,0,0,1,1.35,21.91,195.19,195.19,0,0,1-4.88,39.39c-1.26,5.48-3.7,7.83-5.35,15.34l-32.33,5.27c3.19-12.22,7.57-37,10.87-57.7l6.17-38.74Z"/><path class="cls-57" d="M1183.75,1282.25c1.87,6.48,4,9.94,4.29,18.79s-3.81,22.68-3.47,33.63l.55,17.39c.32,10.12-2.26,17.15-13.77,25.52-10.43,7.59-20.59,10.7-26.12,8-4.07-2-7.32-9.15-1.08-28.06,5.19-15.75,6.53-31.15,9.58-48.24-1.07,16.8-1.47,22.41-5.53,38.86-1.13,4.6-1.8,12.3,3.66,13.08,22.59,3.22,23.72-2.85,25.59-9.81C1182.42,1332.8,1186.06,1299.7,1183.75,1282.25Z"/><path class="cls-59" d="M1192.07,906.26c25.1,31.4,25.73,48.81,20.29,86.54-3.64,25.23-11,55.85-12.89,100.19,2.17,22.87,6.27,48.48,3.15,84-2.3,26.14-9.65,71-15.19,102.69-5.22,9.8-29.88,5.54-33.9.49,1.16-45.44.44-76.59-1.73-113.29-2.11-35.69-6.37-68.8-9-104-2.21-29.13-11.06-68.75-12.23-100.22-4.7-14.83-49.14-64-39.88-63.33Z"/><path class="cls-60" d="M1189,835.6c-11.27,26.07,7.89,40.49,1,58.45l2.13,12.15c-20.56,14.76-94.12,15.86-112.56-13.4l-.39-14.59c-3.17-7-1.08-24.65-.15-29.31,3-14.82,1.58-22.68,3.2-39.81.4-4.33,1.22-7.06,1.62-11.45-16.38-12.23-15.35-35.9-5.64-50.08A125.08,125.08,0,0,0,1091,725.08a101.25,101.25,0,0,1,2.83-12.88,21.21,21.21,0,0,1,3.43-7c4.68-6.67,12.24-7.47,27.68-3.93,30.59,7,62.1,22.89,76.16,37.86,10.23,10.89,9.82,23,4,49.09C1201.25,805,1194.75,822.36,1189,835.6Z"/><path class="cls-56" d="M1189.24,835.45c-11.27,26.06,7.43,40.95.53,58.91l2.13,12c-20.57,16-94.13,15.24-112.57-14l.39-12.74c0-.5,36.12,32,77.23,13.93,8.92-3.92,17-23.45,5.45-60.75-1.1-3.55-14.2-3.8-32.76-17.46,13.7,5.81,39.53,13.76,40.81-21.08.56-15.57,2.86-27.28,10.83-38.11,3.87-5.25,26.55,22.29,23.09,35.5A330.41,330.41,0,0,1,1189.24,835.45Z"/><path class="cls-61" d="M1199,893.2c-3.75,2.27-10.56,4.47-13.3,6.11-1.42.84-11.59,7.17-17.31,11-6.12,4.11-7.84,10-11.49,16.63a41.42,41.42,0,0,0-4.12,11.94c-.39,2.78,6.67,8.12,9.67,7.46,6.81-1.51,13.77-9.87,15.56-10.8,15.27-7.91,22.57-8.69,28.09-15,2.36-2.69,3.8-10.55,8.66-17.61l-9.36-8.47Z"/><path class="cls-62" d="M1200.86,737.18c22.66,14.27,47.71,53.64,70.16,88.68,4.44,5.7,3.3,13.2,1,17.4a42.84,42.84,0,0,1-4.41,7.94c-10.67,15.67-21.09,29.64-43.89,49-1.71,1.45-4.1,2.06-6.64,2.75-1.43,1.19-3.43,3.32-5,4.56,1.89-2.44-9.45-14.66-14.6-13.84,1.33-1.64,2.67-3.41,4-5.29.18-2.34,0-3.79.91-5.79,7.43-16.88,16.87-33.85,28.65-46.75-20.45-22.11-32.16-27.46-51.21-50.66C1156.73,757,1185.82,727.72,1200.86,737.18Z"/><path class="cls-35" d="M1153.6,679.52c-2.37,13.47-1.12,26.22,3.05,39.29-11,10.21-30.64,5.87-35.2-3.38,1-6,2.09-11.48,2.73-17.62Z"/><path class="cls-63" d="M1153.6,679.52a76.88,76.88,0,0,0-1,19c-3.23,13.07-27.7,21.9-30.25,11.5.7-4,1.37-8,1.82-12.22Z"/><path class="cls-35" d="M1108,622.54c-5.49,8.74-8.43,17.5-7.15,29.91a12.91,12.91,0,0,1-1,7.15c-5.14,11.6-4.68,15.2-2.14,24.5,2.48,9,2.31,13.76,5.4,16.87s7.91,3.92,11.92,4.17c8.24.52,22.37-4.91,30.58-9.4,6.1-3.33,5.86-5.6,8.43-11.37,8.6-7.48,3-12.93.15-13.49-8.26-1.6-9.6,7.91-14.49,10C1140.51,664.18,1108.64,636,1108,622.54Z"/><path class="cls-64" d="M1104.38,629.24c-3.06,6.7-4.46,13.94-3.5,23.21a12.91,12.91,0,0,1-1,7.15c-5.14,11.6-4.68,15.2-2.13,24.5,1.11,4,1.68,7.24,2.26,9.8a7.73,7.73,0,0,0,9.61,2.78c3.44-1.53,6.82-5.59,7.67-12.37.61-4.81,10.46-8,12.5-12.87,1.69-4.05-2.87-8.58-5.62-10.91C1114.48,652.35,1108.46,641.26,1104.38,629.24Z"/><path class="cls-65" d="M1108,622.54c4.63,20.53,31.45,36.06,31.67,58.35C1132.36,657.73,1106.35,641.87,1108,622.54Z"/></g></g></svg>