<svg xmlns="http://www.w3.org/2000/svg" width="410" height="283.176" viewBox="0 0 410 283.176">
  <g id="Grupo_137176" data-name="Grupo 137176" transform="translate(-281 -1086)">
    <rect id="Rectángulo_35205" data-name="Rectángulo 35205" width="410" height="283.039" transform="translate(281 1086)" fill="#dad6f7"/>
    <g id="Grupo_107423" data-name="Grupo 107423" transform="translate(7275.725 2806.243)">
      <g id="Grupo_88436" data-name="Grupo 88436" transform="translate(-6862.649 -1638.356)">
        <g id="Grupo_88429" data-name="Grupo 88429" transform="translate(25.864 0)">
          <circle id="Elipse_4729" data-name="Elipse 4729" cx="34.41" cy="34.41" r="34.41" transform="translate(3.629 3.629)" fill="#1b1b25"/>
          <circle id="Elipse_4730" data-name="Elipse 4730" cx="34.41" cy="34.41" r="34.41" fill="#ffb54a"/>
          <path id="Trazado_145279" data-name="Trazado 145279" d="M-6698.751-1571.632a27.745,27.745,0,0,1-27.712-27.714,27.745,27.745,0,0,1,27.712-27.714,27.745,27.745,0,0,1,27.714,27.714A27.745,27.745,0,0,1-6698.751-1571.632Zm0-53.632a25.947,25.947,0,0,0-25.917,25.917,25.947,25.947,0,0,0,25.917,25.918,25.949,25.949,0,0,0,25.919-25.918A25.949,25.949,0,0,0-6698.751-1625.264Z" transform="translate(6733.16 1633.824)" fill="#fcf0e3"/>
          <g id="Grupo_88428" data-name="Grupo 88428" transform="translate(22.971 16.788)">
            <g id="Grupo_88427" data-name="Grupo 88427">
              <path id="Trazado_145280" data-name="Trazado 145280" d="M-6689.868-1580.2a19.664,19.664,0,0,1-5.007-1.3,19.052,19.052,0,0,1-4.408-2.493l3.112-4.546a23.911,23.911,0,0,0,3.17,2.053,12.053,12.053,0,0,0,3.331,1.177v-6.342a27.4,27.4,0,0,1-3.769-1.316,9.417,9.417,0,0,1-2.673-1.716,6.539,6.539,0,0,1-1.6-2.333,8.226,8.226,0,0,1-.539-3.091v-.08a7.427,7.427,0,0,1,.6-3.031,6.926,6.926,0,0,1,1.694-2.353,8.678,8.678,0,0,1,2.652-1.615,13.012,13.012,0,0,1,3.432-.818v-2.314h4.147v2.394a17.269,17.269,0,0,1,3.969,1.057,17.228,17.228,0,0,1,3.45,1.895l-2.673,4.667a22.759,22.759,0,0,0-2.432-1.416,12.318,12.318,0,0,0-2.512-.937v6.023a15.182,15.182,0,0,1,6.6,3.231,7.1,7.1,0,0,1,2.054,5.344v.08a7.22,7.22,0,0,1-.618,3.031,7.136,7.136,0,0,1-1.716,2.353,8.9,8.9,0,0,1-2.651,1.635,12.475,12.475,0,0,1-3.47.838v3.949h-4.147Zm.2-22.815a3.606,3.606,0,0,0-2.094.858,2.2,2.2,0,0,0-.659,1.615v.08a2.353,2.353,0,0,0,.56,1.575,5.338,5.338,0,0,0,2.194,1.256Zm3.75,17.909q2.832-.438,2.832-2.552v-.079a2.417,2.417,0,0,0-.6-1.7,5.755,5.755,0,0,0-2.232-1.257Z" transform="translate(6699.283 1610.319)" fill="#1b1b25"/>
            </g>
          </g>
        </g>
        <g id="Grupo_88432" data-name="Grupo 88432" transform="translate(25.864 0)">
          <circle id="Elipse_4731" data-name="Elipse 4731" cx="34.41" cy="34.41" r="34.41" transform="translate(3.629 3.629)" fill="#0f0140"/>
          <circle id="Elipse_4732" data-name="Elipse 4732" cx="34.41" cy="34.41" r="34.41" fill="#ffb54a"/>
          <path id="Trazado_145281" data-name="Trazado 145281" d="M-6698.751-1571.632a27.745,27.745,0,0,1-27.712-27.714,27.745,27.745,0,0,1,27.712-27.714,27.745,27.745,0,0,1,27.714,27.714A27.745,27.745,0,0,1-6698.751-1571.632Zm0-53.632a25.947,25.947,0,0,0-25.917,25.917,25.947,25.947,0,0,0,25.917,25.918,25.949,25.949,0,0,0,25.919-25.918A25.949,25.949,0,0,0-6698.751-1625.264Z" transform="translate(6733.16 1633.824)" fill="#fcf0e3"/>
          <g id="Grupo_88431" data-name="Grupo 88431" transform="translate(22.971 16.788)">
            <g id="Grupo_88430" data-name="Grupo 88430">
              <path id="Trazado_145282" data-name="Trazado 145282" d="M-6689.868-1580.2a19.664,19.664,0,0,1-5.007-1.3,19.052,19.052,0,0,1-4.408-2.493l3.112-4.546a23.911,23.911,0,0,0,3.17,2.053,12.053,12.053,0,0,0,3.331,1.177v-6.342a27.4,27.4,0,0,1-3.769-1.316,9.417,9.417,0,0,1-2.673-1.716,6.539,6.539,0,0,1-1.6-2.333,8.226,8.226,0,0,1-.539-3.091v-.08a7.427,7.427,0,0,1,.6-3.031,6.926,6.926,0,0,1,1.694-2.353,8.678,8.678,0,0,1,2.652-1.615,13.012,13.012,0,0,1,3.432-.818v-2.314h4.147v2.394a17.269,17.269,0,0,1,3.969,1.057,17.228,17.228,0,0,1,3.45,1.895l-2.673,4.667a22.759,22.759,0,0,0-2.432-1.416,12.318,12.318,0,0,0-2.512-.937v6.023a15.182,15.182,0,0,1,6.6,3.231,7.1,7.1,0,0,1,2.054,5.344v.08a7.22,7.22,0,0,1-.618,3.031,7.136,7.136,0,0,1-1.716,2.353,8.9,8.9,0,0,1-2.651,1.635,12.475,12.475,0,0,1-3.47.838v3.949h-4.147Zm.2-22.815a3.606,3.606,0,0,0-2.094.858,2.2,2.2,0,0,0-.659,1.615v.08a2.353,2.353,0,0,0,.56,1.575,5.338,5.338,0,0,0,2.194,1.256Zm3.75,17.909q2.832-.438,2.832-2.552v-.079a2.417,2.417,0,0,0-.6-1.7,5.755,5.755,0,0,0-2.232-1.257Z" transform="translate(6699.283 1610.319)" fill="#1b1b25"/>
            </g>
          </g>
        </g>
        <g id="Grupo_88435" data-name="Grupo 88435" transform="translate(8.776 1.273)">
          <circle id="Elipse_4733" data-name="Elipse 4733" cx="15.57" cy="15.57" r="15.57" transform="translate(1.642 1.642)" fill="#1b1b25"/>
          <circle id="Elipse_4734" data-name="Elipse 4734" cx="15.57" cy="15.57" r="15.57" fill="#ffb54a"/>
          <path id="Trazado_145283" data-name="Trazado 145283" d="M-6748.586-1606.04a12.556,12.556,0,0,1-12.541-12.541,12.555,12.555,0,0,1,12.541-12.54,12.554,12.554,0,0,1,12.539,12.54A12.554,12.554,0,0,1-6748.586-1606.04Zm0-24.267a11.74,11.74,0,0,0-11.728,11.727,11.74,11.74,0,0,0,11.728,11.728,11.74,11.74,0,0,0,11.727-11.728A11.74,11.74,0,0,0-6748.586-1630.307Z" transform="translate(6764.156 1634.18)" fill="#fcf0e3"/>
          <g id="Grupo_88434" data-name="Grupo 88434" transform="translate(10.395 7.596)">
            <g id="Grupo_88433" data-name="Grupo 88433">
              <path id="Trazado_145284" data-name="Trazado 145284" d="M-6744.567-1609.919a8.88,8.88,0,0,1-2.266-.586,8.629,8.629,0,0,1-1.994-1.128l1.408-2.057a10.776,10.776,0,0,0,1.436.929,5.449,5.449,0,0,0,1.506.532v-2.87a12.4,12.4,0,0,1-1.707-.6,4.3,4.3,0,0,1-1.209-.776,2.988,2.988,0,0,1-.722-1.055,3.732,3.732,0,0,1-.243-1.4v-.036a3.35,3.35,0,0,1,.272-1.371,3.137,3.137,0,0,1,.766-1.065,3.928,3.928,0,0,1,1.2-.73,5.866,5.866,0,0,1,1.553-.37v-1.047h1.876v1.083a7.771,7.771,0,0,1,1.8.478,7.752,7.752,0,0,1,1.561.857l-1.209,2.111a10.362,10.362,0,0,0-1.1-.641,5.577,5.577,0,0,0-1.137-.424v2.725a6.876,6.876,0,0,1,2.987,1.461,3.219,3.219,0,0,1,.93,2.418v.037a3.288,3.288,0,0,1-.28,1.371,3.233,3.233,0,0,1-.778,1.065,4.043,4.043,0,0,1-1.2.74,5.656,5.656,0,0,1-1.57.378v1.787h-1.876Zm.09-10.323a1.624,1.624,0,0,0-.948.388.989.989,0,0,0-.3.731v.036a1.07,1.07,0,0,0,.252.713,2.423,2.423,0,0,0,.994.568Zm1.7,8.1q1.282-.2,1.28-1.155v-.036a1.1,1.1,0,0,0-.27-.767,2.6,2.6,0,0,0-1.01-.568Z" transform="translate(6748.827 1623.545)" fill="#1b1b25"/>
            </g>
          </g>
        </g>
        <path id="Trazado_145285" data-name="Trazado 145285" d="M-6774.083-1572.6h0a6.76,6.76,0,0,0-6.761-6.761h0a6.761,6.761,0,0,0,6.761-6.762h0a6.762,6.762,0,0,0,6.763,6.762h0A6.762,6.762,0,0,0-6774.083-1572.6Z" transform="translate(6780.845 1617.396)" fill="#fff"/>
        <path id="Trazado_145286" data-name="Trazado 145286" d="M-6640.22-1513.415h0a4.967,4.967,0,0,0-4.967-4.965h0a4.967,4.967,0,0,0,4.967-4.966h0a4.964,4.964,0,0,0,4.964,4.966h0A4.964,4.964,0,0,0-6640.22-1513.415Z" transform="translate(6726.412 1592.209)" fill="#fff"/>
        <path id="Trazado_145287" data-name="Trazado 145287" d="M-6697.218-1479.058h0a9.131,9.131,0,0,0-9.132-9.131h0a9.131,9.131,0,0,0,9.132-9.131h0a9.131,9.131,0,0,0,9.131,9.131h0A9.131,9.131,0,0,0-6697.218-1479.058Z" transform="translate(6750.955 1581.767)" fill="#fff"/>
        <path id="Trazado_145288" data-name="Trazado 145288" d="M-6644.187-1595.947h0a8.558,8.558,0,0,0-8.558-8.557h0a8.557,8.557,0,0,0,8.558-8.556h0a8.556,8.556,0,0,0,8.556,8.556h0A8.556,8.556,0,0,0-6644.187-1595.947Z" transform="translate(6729.446 1628.206)" fill="#fcf0e3"/>
        <path id="Trazado_145289" data-name="Trazado 145289" d="M-6593.845-1581.151h0a4.72,4.72,0,0,0-4.719-4.72h0a4.72,4.72,0,0,0,4.719-4.72h0a4.72,4.72,0,0,0,4.72,4.72h0A4.72,4.72,0,0,0-6593.845-1581.151Z" transform="translate(6707.706 1619.191)" fill="#fff"/>
      </g>
      <g id="Grupo_88448" data-name="Grupo 88448" transform="translate(-6984.725 -1622.984)">
        <path id="Trazado_145290" data-name="Trazado 145290" d="M-6874.021-1601.127h-52.571a9.791,9.791,0,0,0-9.791,9.791,9.79,9.79,0,0,0,9.791,9.79h43.325l5.959,5.431v-5.431h3.287a9.79,9.79,0,0,0,9.79-9.79A9.791,9.791,0,0,0-6874.021-1601.127Z" transform="translate(6965.329 1608.046)" fill="#3e2ea6"/>
        <path id="Trazado_145291" data-name="Trazado 145291" d="M-6917.3-1590.711a3.1,3.1,0,0,0,1.122-2.388,3.1,3.1,0,0,0-3.1-3.1,3.1,3.1,0,0,0-3.1,3.1,3.1,3.1,0,0,0,1.122,2.388,5.751,5.751,0,0,0-3.774,5.4c0,3.179,11.512,3.179,11.512,0A5.753,5.753,0,0,0-6917.3-1590.711Z" transform="translate(6960.775 1606.071)" fill="#ffb54a"/>
        <g id="Grupo_88437" data-name="Grupo 88437" transform="translate(53.996 11.584)">
          <path id="Trazado_145292" data-name="Trazado 145292" d="M-6856.577-1592.738h-37.67a.3.3,0,0,1-.3-.3.3.3,0,0,1,.3-.3h37.67a.3.3,0,0,1,.3.3A.3.3,0,0,1-6856.577-1592.738Z" transform="translate(6894.547 1593.337)" fill="#fff"/>
          <path id="Trazado_145293" data-name="Trazado 145293" d="M-6862.421-1577.977h-31.826a.3.3,0,0,1-.3-.3.3.3,0,0,1,.3-.3h31.826a.3.3,0,0,1,.3.3A.3.3,0,0,1-6862.421-1577.977Z" transform="translate(6894.547 1587.414)" fill="#fff"/>
          <path id="Trazado_145294" data-name="Trazado 145294" d="M-6871.089-1584.89h-23.158a.3.3,0,0,1-.3-.3.3.3,0,0,1,.3-.3h23.158a.3.3,0,0,1,.3.3A.3.3,0,0,1-6871.089-1584.89Z" transform="translate(6894.547 1590.188)" fill="#fff"/>
          <path id="Trazado_145295" data-name="Trazado 145295" d="M-6839.121-1584.89h-11.624a.3.3,0,0,1-.3-.3.3.3,0,0,1,.3-.3h11.624a.3.3,0,0,1,.3.3A.3.3,0,0,1-6839.121-1584.89Z" transform="translate(6877.091 1590.188)" fill="#fff"/>
        </g>
        <path id="Trazado_145296" data-name="Trazado 145296" d="M-6911.317-1584.054a.9.9,0,0,1-.635-.263l-2.256-2.256a.9.9,0,0,1,0-1.27.9.9,0,0,1,1.271,0l1.62,1.621,4.356-4.355a.9.9,0,0,1,1.269,0,.9.9,0,0,1,0,1.27l-4.989,4.991A.9.9,0,0,1-6911.317-1584.054Z" transform="translate(6956.537 1603.92)" fill="#fff"/>
        <g id="Grupo_88443" data-name="Grupo 88443" transform="translate(315.732 57.904)">
          <path id="Trazado_145297" data-name="Trazado 145297" d="M-6447.371-1515.976h53.937a10.044,10.044,0,0,1,10.044,10.045,10.044,10.044,0,0,1-10.044,10.044h-44.451l-6.113,5.573v-5.573h-3.372a10.045,10.045,0,0,1-10.045-10.044A10.045,10.045,0,0,1-6447.371-1515.976Z" transform="translate(6457.416 1515.976)" fill="#ffb54a"/>
          <g id="Grupo_88441" data-name="Grupo 88441" transform="translate(55.037 3.076)">
            <g id="Grupo_88440" data-name="Grupo 88440">
              <g id="Grupo_88439" data-name="Grupo 88439">
                <path id="Trazado_145298" data-name="Trazado 145298" d="M-6357.761-1505.347a3.1,3.1,0,0,0,1.123-2.388,3.1,3.1,0,0,0-3.1-3.1,3.1,3.1,0,0,0-3.1,3.1,3.1,3.1,0,0,0,1.124,2.388,5.751,5.751,0,0,0-3.775,5.4c0,3.179,11.512,3.179,11.512,0A5.751,5.751,0,0,0-6357.761-1505.347Z" transform="translate(6365.498 1510.839)" fill="#4e69ff"/>
                <g id="Grupo_88438" data-name="Grupo 88438" transform="translate(7.258 5.44)">
                  <path id="Trazado_145299" data-name="Trazado 145299" d="M-6348.169-1499.975h-1.486v-1.487a.292.292,0,0,0-.293-.292h-1.356a.292.292,0,0,0-.292.292v1.487h-1.487a.292.292,0,0,0-.292.292v1.356a.291.291,0,0,0,.292.292h1.487v1.487a.292.292,0,0,0,.292.291h1.356a.292.292,0,0,0,.293-.291v-1.487h1.486a.292.292,0,0,0,.292-.292v-1.356A.292.292,0,0,0-6348.169-1499.975Z" transform="translate(6353.375 1501.753)" fill="#fff"/>
                </g>
              </g>
            </g>
          </g>
          <g id="Grupo_88442" data-name="Grupo 88442" transform="translate(12.357 5.391)">
            <path id="Trazado_145300" data-name="Trazado 145300" d="M-6398.809-1506.374h-37.669a.3.3,0,0,1-.3-.3.3.3,0,0,1,.3-.3h37.669a.3.3,0,0,1,.3.3A.3.3,0,0,1-6398.809-1506.374Z" transform="translate(6436.777 1506.973)" fill="#fff"/>
            <path id="Trazado_145301" data-name="Trazado 145301" d="M-6404.653-1491.612h-31.825a.3.3,0,0,1-.3-.3.3.3,0,0,1,.3-.3h31.825a.3.3,0,0,1,.3.3A.3.3,0,0,1-6404.653-1491.612Z" transform="translate(6436.777 1501.05)" fill="#fff"/>
            <path id="Trazado_145302" data-name="Trazado 145302" d="M-6413.319-1498.526h-23.159a.3.3,0,0,1-.3-.3.3.3,0,0,1,.3-.3h23.159a.3.3,0,0,1,.3.3A.3.3,0,0,1-6413.319-1498.526Z" transform="translate(6436.777 1503.824)" fill="#fff"/>
            <path id="Trazado_145303" data-name="Trazado 145303" d="M-6381.355-1498.526h-11.622a.3.3,0,0,1-.3-.3.3.3,0,0,1,.3-.3h11.622a.3.3,0,0,1,.3.3A.3.3,0,0,1-6381.355-1498.526Z" transform="translate(6419.322 1503.824)" fill="#fff"/>
          </g>
        </g>
        <g id="Grupo_88445" data-name="Grupo 88445" transform="translate(251.059 0)">
          <path id="Trazado_145304" data-name="Trazado 145304" d="M-6558.506-1612.683h37.155a6.919,6.919,0,0,1,6.92,6.919,6.919,6.919,0,0,1-6.92,6.919h-37.155a6.919,6.919,0,0,1-6.92-6.919A6.919,6.919,0,0,1-6558.506-1612.683Z" transform="translate(6565.426 1612.683)" fill="#3e2ea6"/>
          <g id="Grupo_88444" data-name="Grupo 88444" transform="translate(10.773 4.045)">
            <path id="Trazado_145305" data-name="Trazado 145305" d="M-6518.328-1605.329h-28.808a.3.3,0,0,1-.3-.3.3.3,0,0,1,.3-.3h28.808a.3.3,0,0,1,.3.3A.3.3,0,0,1-6518.328-1605.329Z" transform="translate(6547.435 1605.928)" fill="#3e2ea6"/>
            <path id="Trazado_145306" data-name="Trazado 145306" d="M-6522.8-1596.588h-24.338a.3.3,0,0,1-.3-.3.3.3,0,0,1,.3-.3h24.338a.3.3,0,0,1,.3.3A.3.3,0,0,1-6522.8-1596.588Z" transform="translate(6547.435 1602.421)" fill="#3e2ea6"/>
            <path id="Trazado_145307" data-name="Trazado 145307" d="M-6529.424-1600.682h-17.711a.3.3,0,0,1-.3-.3.3.3,0,0,1,.3-.3h17.711a.3.3,0,0,1,.3.3A.3.3,0,0,1-6529.424-1600.682Z" transform="translate(6547.435 1604.063)" fill="#3e2ea6"/>
            <path id="Trazado_145308" data-name="Trazado 145308" d="M-6504.979-1600.682h-8.887a.3.3,0,0,1-.3-.3.3.3,0,0,1,.3-.3h8.887a.3.3,0,0,1,.3.3A.3.3,0,0,1-6504.979-1600.682Z" transform="translate(6534.086 1604.063)" fill="#3e2ea6"/>
          </g>
        </g>
        <g id="Grupo_88447" data-name="Grupo 88447" transform="translate(0 98.095)">
          <path id="Trazado_145309" data-name="Trazado 145309" d="M-6978.572-1448.852h33.037a6.152,6.152,0,0,1,6.153,6.152,6.153,6.153,0,0,1-6.153,6.153h-33.037a6.152,6.152,0,0,1-6.153-6.153A6.152,6.152,0,0,1-6978.572-1448.852Z" transform="translate(6984.725 1448.852)" fill="#ffb54a"/>
          <g id="Grupo_88446" data-name="Grupo 88446" transform="translate(9.547 3.563)">
            <path id="Trazado_145310" data-name="Trazado 145310" d="M-6942.866-1442.3h-25.615a.3.3,0,0,1-.3-.3.3.3,0,0,1,.3-.3h25.615a.3.3,0,0,1,.3.3A.3.3,0,0,1-6942.866-1442.3Z" transform="translate(6968.78 1442.901)" fill="#fff"/>
            <path id="Trazado_145311" data-name="Trazado 145311" d="M-6946.841-1434.529h-21.641a.3.3,0,0,1-.3-.3.3.3,0,0,1,.3-.3h21.641a.3.3,0,0,1,.3.3A.3.3,0,0,1-6946.841-1434.529Z" transform="translate(6968.78 1439.782)" fill="#fff"/>
            <path id="Trazado_145312" data-name="Trazado 145312" d="M-6952.734-1438.171h-15.747a.3.3,0,0,1-.3-.3.3.3,0,0,1,.3-.3h15.747a.3.3,0,0,1,.3.3A.3.3,0,0,1-6952.734-1438.171Z" transform="translate(6968.78 1441.243)" fill="#fff"/>
            <path id="Trazado_145313" data-name="Trazado 145313" d="M-6931-1438.171h-7.9a.3.3,0,0,1-.3-.3.3.3,0,0,1,.3-.3h7.9a.3.3,0,0,1,.3.3A.3.3,0,0,1-6931-1438.171Z" transform="translate(6956.912 1441.243)" fill="#fff"/>
          </g>
        </g>
      </g>
      <g id="Grupo_88470" data-name="Grupo 88470" transform="translate(-6785.973 -1598.683)">
        <g id="Grupo_88454" data-name="Grupo 88454" transform="translate(0 9.401)">
          <g id="Grupo_88453" data-name="Grupo 88453">
            <g id="Grupo_88452" data-name="Grupo 88452">
              <g id="Grupo_88450" data-name="Grupo 88450">
                <path id="Trazado_145314" data-name="Trazado 145314" d="M-6623.333-1492.517l.02-.068,8.668-30.158-.037-.028a10.834,10.834,0,0,1,3.468-3.842,10.032,10.032,0,0,0,4-6.622c1.909-1.847,4.059-3.422,6.008-5.227a1.384,1.384,0,0,0,.475-.665,1.159,1.159,0,0,0-.247-.866,3.441,3.441,0,0,0-4.391-1.017,10.777,10.777,0,0,0-2.46,1.607,12.282,12.282,0,0,0-1.95,1.668l6.9-14.723a2.453,2.453,0,0,0-.89-3.315h0a2.049,2.049,0,0,0-1.741.035,2.787,2.787,0,0,0-.96.764l.035-.172c-8.077-6.791-18.042,16.324-18.042,16.324l-2.829,6.673-23.987,44.475a12.922,12.922,0,0,0,5.775,17.627h0c.1.046.191.086.285.13a13.023,13.023,0,0,0,6.533,1.749h47.207l10.173-24.176Zm13.449-45Z" transform="translate(6652.786 1556.397)" fill="#fec29e"/>
                <g id="Grupo_88449" data-name="Grupo 88449" transform="translate(20.531 63.812)">
                  <path id="Trazado_145315" data-name="Trazado 145315" d="M-6606.667-1441.844l-1.208,4.2C-6607.436-1439.094-6607.024-1440.518-6606.667-1441.844Z" transform="translate(6614.235 1446.622)" fill="none"/>
                  <path id="Trazado_145316" data-name="Trazado 145316" d="M-6617.66-1409.086Z" transform="translate(6618.497 1433.489)" fill="#ff887c" opacity="0.17"/>
                  <path id="Trazado_145317" data-name="Trazado 145317" d="M-6617.085-1409.069l.387.012Z" transform="translate(6617.931 1433.471)" fill="#ff887c" opacity="0.17"/>
                  <path id="Trazado_145318" data-name="Trazado 145318" d="M-6608.73-1449.824l-1.374,4.778c-.357,1.326-.77,2.75-1.208,4.2l-1.66,5.775a13.011,13.011,0,0,1-.861,2.106c-1.429,4.275-2.606,7.552-2.606,7.552l16.977-24.308C-6603.687-1449.718-6604.655-1449.819-6608.73-1449.824Z" transform="translate(6617.672 1449.824)" fill="#ff887c" opacity="0.17"/>
                  <path id="Trazado_145319" data-name="Trazado 145319" d="M-6617.1-1409.069h0Z" transform="translate(6617.936 1433.471)" fill="#ff887c" opacity="0.17"/>
                </g>
                <path id="Trazado_145320" data-name="Trazado 145320" d="M-6592.351-1524.7a.3.3,0,0,1-.177-.058.3.3,0,0,1-.063-.419,5.485,5.485,0,0,1,7.1-1.856.3.3,0,0,1,.114.406.3.3,0,0,1-.406.116,4.828,4.828,0,0,0-6.329,1.689A.3.3,0,0,1-6592.351-1524.7Z" transform="translate(6628.657 1544.86)" fill="#fb8e77"/>
                <path id="Trazado_145321" data-name="Trazado 145321" d="M-6579.2-1554.317a45.8,45.8,0,0,0-3.429,4.933,22.406,22.406,0,0,0-1.362,2.653,6.537,6.537,0,0,0-.641,2.787v.019a.3.3,0,0,1-.282.315.3.3,0,0,1-.315-.282v-.007a7.021,7.021,0,0,1,.744-3.043,22.756,22.756,0,0,1,1.448-2.689,46.035,46.035,0,0,1,3.563-4.913.177.177,0,0,1,.25-.024.18.18,0,0,1,.027.248Z" transform="translate(6625.679 1555.68)" fill="#fb8e77"/>
                <path id="Trazado_145322" data-name="Trazado 145322" d="M-6583.1-1555.78a11.3,11.3,0,0,0-2.134,2.012,17.773,17.773,0,0,0-1.693,2.427,21.167,21.167,0,0,0-1.3,2.667c-.2.455-.344.929-.516,1.392l-.429,1.422-.006.017a.3.3,0,0,1-.373.2.3.3,0,0,1-.2-.373l0-.005.465-1.445c.187-.471.346-.953.555-1.415a21.812,21.812,0,0,1,1.379-2.707,18.331,18.331,0,0,1,1.786-2.458,11.539,11.539,0,0,1,2.267-2.051.185.185,0,0,1,.257.052.186.186,0,0,1-.05.256Z" transform="translate(6627.494 1556.29)" fill="#fb8e77"/>
                <path id="Trazado_145323" data-name="Trazado 145323" d="M-6587.922-1555.364a29.259,29.259,0,0,0-3.136,3.874,16.564,16.564,0,0,0-1.235,2.144,8.7,8.7,0,0,0-.755,2.3l0,.007a.3.3,0,0,1-.343.249.3.3,0,0,1-.249-.343v-.007a9.294,9.294,0,0,1,.865-2.442,17.152,17.152,0,0,1,1.326-2.177,29.527,29.527,0,0,1,3.282-3.854.174.174,0,0,1,.247,0,.175.175,0,0,1,0,.243Z" transform="translate(6629.055 1556.103)" fill="#fb8e77"/>
              </g>
              <g id="Grupo_88451" data-name="Grupo 88451" transform="translate(42.141 63.793)">
                <path id="Trazado_145324" data-name="Trazado 145324" d="M-6486.143-1405.857l-11.579-31.565c-1.379-6.927-7.968-12.177-15.895-12.177l-32.346-.257-36.443.139v24.295h11.309l-5.837,63.365,80.247.454-.45-42.907Z" transform="translate(6582.405 1449.856)" fill="#0f0140"/>
                <path id="Trazado_145325" data-name="Trazado 145325" d="M-6554.767-1379.024" transform="translate(6571.315 1421.435)" fill="#0f0140"/>
              </g>
              <path id="Trazado_145326" data-name="Trazado 145326" d="M-6546.026-1449.585l.064-.271-36.443.139v24.295h11.309l.061-.642C-6571.036-1438.885-6559.89-1449.3-6546.026-1449.585Z" transform="translate(6624.546 1513.648)" fill="#1b1b25" opacity="0.05"/>
              <path id="Trazado_145327" data-name="Trazado 145327" d="M-6598.564-1508.118s2.045,17.372,2.166,16.954l3.509-12.208Z" transform="translate(6631.03 1537.026)" fill="#ff887c" opacity="0.18"/>
            </g>
          </g>
        </g>
        <g id="Grupo_88457" data-name="Grupo 88457" transform="translate(57.835 96.826)">
          <g id="Grupo_88455" data-name="Grupo 88455">
            <path id="Trazado_145328" data-name="Trazado 145328" d="M-6533.8-1380.951l-3.062-15.436-2.363-11.909a2.6,2.6,0,0,0-3.053-2.041l-11.828,2.347a2.6,2.6,0,0,0-2.041,3.052l2.376,11.986,1.888,9.506,1.16,5.851a2.6,2.6,0,0,0,3.053,2.042l6.986-1.386,4.842-.961A2.6,2.6,0,0,0-6533.8-1380.951Z" transform="translate(6556.193 1410.386)" fill="#1b1b25"/>
          </g>
          <g id="Grupo_88456" data-name="Grupo 88456" transform="translate(0.505 14)">
            <path id="Trazado_145329" data-name="Trazado 145329" d="M-6470.492-1357.345l-5.335-23.227-24.254,2.967,1.333,5.909-.124-.03-26.363-6.527-.023.032a8.836,8.836,0,0,1-3.3-3.03,7.892,7.892,0,0,0-5.924-3.394c-.716-.749-1.383-1.551-2.042-2.359l.619,3.114-.155.082a9.986,9.986,0,0,1-5.458,1.134l-11.593-.9a1.764,1.764,0,0,0-1.733.987c-3.393,7.132,11.175,13.658,14.5,15.037h0l.117.048c.047.02.092.039.136.056l.126.051.105.043.1.04.037.015.05.019,5.7,2.138,45.138,22.217a12.993,12.993,0,0,0,1.271.528,11.267,11.267,0,0,0,7.236.748h0A13.094,13.094,0,0,0-6470.492-1357.345Z" transform="translate(6555.35 1387.005)" fill="#fec29e"/>
            <path id="Trazado_145330" data-name="Trazado 145330" d="M-6435.176-1358.534l-27.866-12.772c.929,4.053.387,2.264,1.207,5.878l1.9.469C-6451.914-1364.418-6435.176-1358.534-6435.176-1358.534Z" transform="translate(6518.311 1380.706)" fill="#ff887c" opacity="0.17"/>
          </g>
          <path id="Trazado_145331" data-name="Trazado 145331" d="M-6469.339-1382.509a.3.3,0,0,1-.292-.239l-3.481-16.866a.3.3,0,0,1,.232-.353.3.3,0,0,1,.354.232l3.425,16.594,11.727-1.492a.3.3,0,0,1,.336.259.3.3,0,0,1-.259.335l-12,1.527A.275.275,0,0,1-6469.339-1382.509Z" transform="translate(6522.86 1406.208)" fill="#1b1b25" opacity="0.35"/>
        </g>
        <g id="Grupo_88458" data-name="Grupo 88458" transform="translate(141.477 132.998)">
          <path id="Trazado_145332" data-name="Trazado 145332" d="M-6416.186-1348.372l.047.239Z" transform="translate(6416.375 1349.332)" fill="#ff887c" opacity="0.17"/>
          <path id="Trazado_145333" data-name="Trazado 145333" d="M-6416.106-1347.973c0,.014,0,.017,0,0Z" transform="translate(6416.343 1349.172)" fill="#ff887c" opacity="0.17"/>
          <path id="Trazado_145334" data-name="Trazado 145334" d="M-6416.5-1349.975l.127.64C-6416.41-1349.506-6416.45-1349.708-6416.5-1349.975Z" transform="translate(6416.502 1349.975)" fill="#ff887c" opacity="0.17"/>
          <path id="Trazado_145335" data-name="Trazado 145335" d="M-6416.292-1348.906l.063.32C-6416.247-1348.682-6416.269-1348.792-6416.292-1348.906Z" transform="translate(6416.417 1349.546)" fill="#ff887c" opacity="0.17"/>
        </g>
        <g id="Grupo_88469" data-name="Grupo 88469" transform="translate(65.268)">
          <g id="Grupo_88460" data-name="Grupo 88460">
            <path id="Trazado_145336" data-name="Trazado 145336" d="M-6500.437-1561.181a9.55,9.55,0,0,0-10.52-8.122,9.527,9.527,0,0,0-3.741,1.245,8.414,8.414,0,0,0-8.13-3.986,8.373,8.373,0,0,0-4.9,2.318,11.034,11.034,0,0,0-6.206-1.106,11.1,11.1,0,0,0-9.777,12.271,11.042,11.042,0,0,0,3.692,7.073l-2.255,12.046a6.37,6.37,0,0,0,5.089,7.433l26.72,5a6.37,6.37,0,0,0,7.432-5.089l4.379-23.384A6.366,6.366,0,0,0-6500.437-1561.181Z" transform="translate(6543.781 1572.097)" fill="#1b1b25"/>
            <g id="Grupo_88459" data-name="Grupo 88459" transform="translate(2.411 4.864)">
              <path id="Trazado_145337" data-name="Trazado 145337" d="M-6537.764-1551.334a.3.3,0,0,1-.253-.14,8.982,8.982,0,0,1,1.868-12.444.3.3,0,0,1,.417.069.3.3,0,0,1-.068.417c-.254.183-6.177,4.569-1.71,11.638a.3.3,0,0,1-.094.413A.3.3,0,0,1-6537.764-1551.334Z" transform="translate(6539.753 1563.974)" fill="#fcf0e3"/>
            </g>
          </g>
          <g id="Grupo_88462" data-name="Grupo 88462" transform="translate(0.701 20.202)">
            <g id="Grupo_88461" data-name="Grupo 88461">
              <path id="Trazado_145338" data-name="Trazado 145338" d="M-6504.289-1524.028l-.584-.11-5.9-12.677a9.538,9.538,0,0,1-3.99-1.542,7.175,7.175,0,0,1-4.477,2.271,7.182,7.182,0,0,1-5.664-1.845,11.037,11.037,0,0,1-6.065,2.688,11.05,11.05,0,0,1-7.326-1.745l-4.109,21.948a12.092,12.092,0,0,0,1.524,8.458,12.275,12.275,0,0,0,8.639,7.378v14.493a9.18,9.18,0,0,0,9.153,9.154h2.889a9.181,9.181,0,0,0,9.153-9.154v-16.456a12.224,12.224,0,0,0,2.995-6l.75-4.007.585.11a6.433,6.433,0,0,0,7.485-5.125l.066-.351A6.433,6.433,0,0,0-6504.289-1524.028Z" transform="translate(6542.609 1538.358)" fill="#fec29e"/>
            </g>
            <path id="Trazado_145339" data-name="Trazado 145339" d="M-6507.5-1493.809l-.535,2.859a12.151,12.151,0,0,1-14.178,9.707l-9.324-1.745a12.109,12.109,0,0,1-8.184-5.719,12.286,12.286,0,0,0,9.14,7.5l.372.069a9.173,9.173,0,0,0,8.242,5.206h2.923a9.184,9.184,0,0,0,8.906-7.077,12.236,12.236,0,0,0,3.248-6.282l.75-4.008Z" transform="translate(6541.45 1520.483)" fill="#ff887c" opacity="0.32"/>
          </g>
          <g id="Grupo_88468" data-name="Grupo 88468" transform="translate(2.463 28.071)">
            <path id="Trazado_145340" data-name="Trazado 145340" d="M-6479.515-1503.5a.3.3,0,0,1-.183-.063l-2.329-1.808a.3.3,0,0,1-.115-.223.3.3,0,0,1,.093-.232l2.873-2.712a.3.3,0,0,1,.423.012.3.3,0,0,1-.012.424l-2.619,2.471,2.054,1.595a.3.3,0,0,1,.053.42A.3.3,0,0,1-6479.515-1503.5Z" transform="translate(6516.586 1518.556)" fill="#fb8e77"/>
            <g id="Grupo_88467" data-name="Grupo 88467" transform="translate(0)">
              <g id="Grupo_88466" data-name="Grupo 88466" transform="translate(2.884)">
                <g id="Grupo_88465" data-name="Grupo 88465">
                  <g id="Grupo_88463" data-name="Grupo 88463" transform="translate(13.821)">
                    <path id="Trazado_145341" data-name="Trazado 145341" d="M-6506.216-1521.3a3.558,3.558,0,0,1-1.375-.523c-.459-.249-.928-.488-1.343-.681s-.9-.4-1.388-.593a3.52,3.52,0,0,1-1.282-.716c-.286-.317-.23-.816.439-1.15a4.059,4.059,0,0,1,3.313.227,3.932,3.932,0,0,1,2.269,2.375C-6505.425-1521.641-6505.784-1521.282-6506.216-1521.3Z" transform="translate(6511.768 1525.215)" fill="#1b1b25"/>
                  </g>
                  <g id="Grupo_88464" data-name="Grupo 88464" transform="translate(0 0.495)">
                    <path id="Trazado_145342" data-name="Trazado 145342" d="M-6534.528-1522.61a3.984,3.984,0,0,0,1.44.3c.521.045,1.045.1,1.5.165s.975.153,1.487.253a3.967,3.967,0,0,0,1.463.109c.411-.092.625-.489.234-1.068a4.342,4.342,0,0,0-2.925-1.479,4.177,4.177,0,0,0-3.173.625C-6535.018-1523.255-6534.9-1522.812-6534.528-1522.61Z" transform="translate(6534.851 1524.39)" fill="#1b1b25"/>
                  </g>
                </g>
              </g>
              <rect id="Rectángulo_34290" data-name="Rectángulo 34290" width="1.523" height="2.447" rx="0.761" transform="matrix(-0.983, -0.184, 0.184, -0.983, 18.622, 9.178)" fill="#1b1b25"/>
              <rect id="Rectángulo_34291" data-name="Rectángulo 34291" width="1.523" height="2.447" rx="0.761" transform="matrix(-0.983, -0.184, 0.184, -0.983, 5.717, 7.081)" fill="#1b1b25"/>
              <rect id="Rectángulo_34292" data-name="Rectángulo 34292" width="4.501" height="1.886" rx="0.943" transform="translate(21.948 12.866) rotate(-173.583)" fill="#ff887c" opacity="0.17"/>
              <rect id="Rectángulo_34293" data-name="Rectángulo 34293" width="4.501" height="1.886" rx="0.943" transform="matrix(-0.994, -0.112, 0.112, -0.994, 4.473, 10.113)" fill="#ff887c" opacity="0.17"/>
              <path id="Trazado_145343" data-name="Trazado 145343" d="M-6525.449-1487.062a.3.3,0,0,1-.242-.123.3.3,0,0,1,.064-.418,2.831,2.831,0,0,1,3.229,0,.3.3,0,0,1,.073.416.3.3,0,0,1-.417.075,2.245,2.245,0,0,0-2.532,0A.3.3,0,0,1-6525.449-1487.062Z" transform="translate(6534.082 1510.33)" fill="#fb8e77"/>
              <path id="Trazado_145344" data-name="Trazado 145344" d="M-6521.867-1501.24l7-1-.768,2.432a3.741,3.741,0,0,1-3.568,2.616h0a2.485,2.485,0,0,1-2.471-2.22Z" transform="translate(6532.525 1515.997)" fill="#fff"/>
              <path id="Trazado_145345" data-name="Trazado 145345" d="M-6521.883-1512.166a.288.288,0,0,1-.075-.01l-2.172-.564a3.033,3.033,0,0,1-2.038-1.754,3.03,3.03,0,0,1,.137-2.685l3.307-5.951a.3.3,0,0,1,.406-.117.3.3,0,0,1,.116.407l-3.305,5.951a2.438,2.438,0,0,0-.111,2.159,2.44,2.44,0,0,0,1.639,1.41l2.171.565a.3.3,0,0,1,.213.365A.3.3,0,0,1-6521.883-1512.166Z" transform="translate(6534.352 1524.441)" fill="#fb8e77"/>
            </g>
          </g>
        </g>
      </g>
      <g id="Grupo_88489" data-name="Grupo 88489" transform="translate(-6943.231 -1584.059)">
        <g id="Grupo_88474" data-name="Grupo 88474" transform="translate(4.641 0)">
          <g id="Grupo_88473" data-name="Grupo 88473">
            <g id="Grupo_88471" data-name="Grupo 88471" transform="translate(80.55)">
              <path id="Trazado_145346" data-name="Trazado 145346" d="M-6722.562-1478.87l-23.986-44.474-2.828-6.673s-9.965-23.115-18.042-16.324l.033.171a2.771,2.771,0,0,0-.958-.763,2.053,2.053,0,0,0-1.744-.036h0a2.453,2.453,0,0,0-.89,3.315l6.9,14.724a12.131,12.131,0,0,0-1.951-1.668,10.638,10.638,0,0,0-2.46-1.607,3.44,3.44,0,0,0-4.39,1.017,1.158,1.158,0,0,0-.247.867,1.378,1.378,0,0,0,.474.665c1.949,1.8,4.1,3.38,6.008,5.227a10.036,10.036,0,0,0,4,6.622,10.835,10.835,0,0,1,3.468,3.842l-.038.028,8.688,30.226-12.687.17v24.176h28.061a13.034,13.034,0,0,0,6.542-1.752c.092-.042.185-.081.276-.126h0A12.922,12.922,0,0,0-6722.562-1478.87Z" transform="translate(6773.146 1547.641)" fill="#fec29e"/>
              <path id="Trazado_145347" data-name="Trazado 145347" d="M-6733.878-1416.6h0s-6.522-17.543-7.643-24.414c-4.319,0-4.976.192-9.3.192Z" transform="translate(6764.187 1504.88)" fill="#ff887c" opacity="0.17"/>
              <path id="Trazado_145348" data-name="Trazado 145348" d="M-6751.518-1515.888a.294.294,0,0,1-.241-.122,4.827,4.827,0,0,0-6.329-1.689.3.3,0,0,1-.407-.115.3.3,0,0,1,.115-.407,5.489,5.489,0,0,1,7.1,1.855.3.3,0,0,1-.064.419A.293.293,0,0,1-6751.518-1515.888Z" transform="translate(6767.282 1536.104)" fill="#fb8e77"/>
              <path id="Trazado_145349" data-name="Trazado 145349" d="M-6763.575-1545.752a25,25,0,0,1,2.018,2.3,24.744,24.744,0,0,1,1.735,2.521,18.417,18.417,0,0,1,1.341,2.768,11.8,11.8,0,0,1,.673,3.033.3.3,0,0,1-.275.322.3.3,0,0,1-.321-.275v-.017a11.306,11.306,0,0,0-.582-2.882,18.064,18.064,0,0,0-1.249-2.71,24.454,24.454,0,0,0-1.653-2.507,24.927,24.927,0,0,0-1.937-2.3l0,0a.177.177,0,0,1,0-.252A.177.177,0,0,1-6763.575-1545.752Z" transform="translate(6769.427 1546.924)" fill="#fb8e77"/>
              <path id="Trazado_145350" data-name="Trazado 145350" d="M-6760.17-1547.653a7.9,7.9,0,0,1,2.361,2.046,16.256,16.256,0,0,1,1.722,2.565,26.834,26.834,0,0,1,1.326,2.781l.544,1.439.484,1.46a.3.3,0,0,1-.19.379.3.3,0,0,1-.379-.19v0l0-.014-.45-1.445-.509-1.425a25.894,25.894,0,0,0-1.249-2.749,15.786,15.786,0,0,0-1.629-2.527,7.609,7.609,0,0,0-2.173-1.975l-.027-.015a.184.184,0,0,1-.075-.25A.184.184,0,0,1-6760.17-1547.653Z" transform="translate(6768.048 1547.674)" fill="#fb8e77"/>
              <path id="Trazado_145351" data-name="Trazado 145351" d="M-6754.687-1546.819a14.905,14.905,0,0,1,1.828,1.782,17.287,17.287,0,0,1,1.54,2.032,16.42,16.42,0,0,1,1.233,2.238,17.1,17.1,0,0,1,.883,2.405.3.3,0,0,1-.2.372.3.3,0,0,1-.373-.2l0-.005,0-.015a16.187,16.187,0,0,0-.794-2.34,15.68,15.68,0,0,0-1.143-2.2,16.827,16.827,0,0,0-1.45-2.018,14.59,14.59,0,0,0-1.732-1.775l-.006-.007a.174.174,0,0,1-.02-.246A.174.174,0,0,1-6754.687-1546.819Z" transform="translate(6765.853 1547.347)" fill="#fb8e77"/>
              <path id="Trazado_145352" data-name="Trazado 145352" d="M-6751.685-1495.006l9.27-1.144-5.732,11.4S-6749.853-1493.227-6751.685-1495.006Z" transform="translate(6764.534 1527.001)" fill="#ff887c" opacity="0.18"/>
            </g>
            <g id="Grupo_88472" data-name="Grupo 88472" transform="translate(0 63.981)">
              <path id="Trazado_145353" data-name="Trazado 145353" d="M-6851.523-1440.7v.011c-.142,0-.284-.011-.428-.011h-29.29a14.873,14.873,0,0,0-13.909,9.607h0l-.044.122-.021.058-12.457,33.956,11.564,1.415v37.71h62.937l4.706-58.691h10.949v-24.295Z" transform="translate(6907.674 1440.818)" fill="#fff"/>
              <path id="Trazado_145354" data-name="Trazado 145354" d="M-6778.967-1440.818l-33.437.14,0,0a23.531,23.531,0,0,1,22.538,23.51l-.051.641h10.949Z" transform="translate(6869.448 1440.818)" fill="#1b1b25" opacity="0.05"/>
              <path id="Trazado_145355" data-name="Trazado 145355" d="M-6774-1370.217" transform="translate(6854.039 1412.49)" fill="none" stroke="#fb8e77" stroke-linecap="round" stroke-miterlimit="10" stroke-width="1"/>
            </g>
          </g>
        </g>
        <g id="Grupo_88477" data-name="Grupo 88477" transform="translate(0 87.476)">
          <path id="Trazado_145356" data-name="Trazado 145356" d="M-6789.706-1399.183l-11.829-2.347a2.6,2.6,0,0,0-3.053,2.042l-2.362,11.909-3.063,15.435a2.606,2.606,0,0,0,2.043,3.052l4.842.961,6.986,1.386a2.6,2.6,0,0,0,3.053-2.041l1.161-5.851,1.887-9.507,2.377-11.986A2.6,2.6,0,0,0-6789.706-1399.183Z" transform="translate(6873.15 1401.58)" fill="#1b1b25"/>
          <g id="Grupo_88476" data-name="Grupo 88476" transform="translate(0 5.006)">
            <path id="Trazado_145357" data-name="Trazado 145357" d="M-6830.742-1373.908a1.726,1.726,0,0,0-.663-.728c-.051-.074-.091-.149-.146-.223l-.283.036a1.78,1.78,0,0,0-.644-.072l-11.59.9a9.992,9.992,0,0,1-5.459-1.134l-.28-.149.581-2.925c-.626.767-1.261,1.524-1.936,2.241a8.1,8.1,0,0,0-4.118,1.553,7.435,7.435,0,0,0-1.912,1.959,9.453,9.453,0,0,1-2.143,2.3,7.544,7.544,0,0,1-.99.608l-.024-.032-26.366,6.527-.122.03,1.339-5.936-24.259-2.939-5.334,23.227a13.092,13.092,0,0,0,9.83,15.69h0a11.256,11.256,0,0,0,7.235-.747,12.917,12.917,0,0,0,1.272-.528l44.627-21.967,6.049-2.267s.245-.094.673-.272l-.089-.018C-6842.732-1359.892-6827.257-1366.581-6830.742-1373.908Z" transform="translate(6915.426 1387.192)" fill="#fec29e"/>
            <g id="Grupo_88475" data-name="Grupo 88475" transform="translate(1.654 18.365)">
              <path id="Trazado_145358" data-name="Trazado 145358" d="M-6912.608-1339.6c-.024.127-.039.2-.048.24Z" transform="translate(6912.661 1353.339)" fill="#ff887c" opacity="0.17"/>
              <path id="Trazado_145359" data-name="Trazado 145359" d="M-6885.609-1356.64c.547-2.513.387-2.3,1.218-5.906l-27.875,12.8s2.762-.832,6.574-1.843c.354-.129.714-.249,1.086-.348Z" transform="translate(6912.504 1362.546)" fill="#ff887c" opacity="0.17"/>
              <path id="Trazado_145360" data-name="Trazado 145360" d="M-6912.508-1340.172l-.068.343C-6912.558-1339.917-6912.534-1340.032-6912.508-1340.172Z" transform="translate(6912.629 1353.569)" fill="#ff887c" opacity="0.17"/>
              <path id="Trazado_145361" data-name="Trazado 145361" d="M-6912.657-1339.2c-.007.035-.007.037,0,0Z" transform="translate(6912.662 1353.178)" fill="#ff887c" opacity="0.17"/>
              <path id="Trazado_145362" data-name="Trazado 145362" d="M-6912.344-1341.168c-.048.245-.085.433-.118.6Z" transform="translate(6912.583 1353.969)" fill="#ff887c" opacity="0.17"/>
            </g>
            <path id="Trazado_145363" data-name="Trazado 145363" d="M-6865.709-1374.554a.214.214,0,0,1-.037,0l-5.292-.653a.3.3,0,0,1-.26-.334.3.3,0,0,1,.333-.26l5,.618,2.787-17.779a.3.3,0,0,1,.343-.25.3.3,0,0,1,.25.342l-2.832,18.067A.3.3,0,0,1-6865.709-1374.554Z" transform="translate(6897.721 1393.219)" fill="#1b1b25" opacity="0.35"/>
          </g>
          <path id="Trazado_145364" data-name="Trazado 145364" d="M-6851.638-1359.669l11.95-.3c2.229.293,5.776-1.719,5.365-3.928h0Z" transform="translate(6889.831 1386.46)" fill="#ff887c" opacity="0.08"/>
        </g>
        <g id="Grupo_88488" data-name="Grupo 88488" transform="translate(18.003 2.001)">
          <g id="Grupo_88478" data-name="Grupo 88478">
            <path id="Trazado_145365" data-name="Trazado 145365" d="M-6827.472-1489.882l-4.062-27.656a30.593,30.593,0,0,0-2.561-8.525l2.207-.354s-1.548-22.447-26.725-17.088a30.625,30.625,0,0,0-7.612.166h0a22.384,22.384,0,0,0-18.892,25.4l2.37,16.122a22.383,22.383,0,0,0,25.4,18.892l27.735-4.075A2.537,2.537,0,0,0-6827.472-1489.882Z" transform="translate(6885.357 1544.332)" fill="#1b1b25"/>
            <path id="Trazado_145366" data-name="Trazado 145366" d="M-6816.775-1524.753a.3.3,0,0,1-.3-.259.3.3,0,0,1,.255-.338l8.1-1.105a.241.241,0,0,0,.163-.1.224.224,0,0,0,.041-.171c-1.309-7.3-8.032-10.664-8.1-10.7a.3.3,0,0,1-.139-.4.3.3,0,0,1,.4-.138c.07.034,7.063,3.527,8.428,11.129a.816.816,0,0,1-.147.629.839.839,0,0,1-.565.339l-8.1,1.106Z" transform="translate(6857.959 1541.787)" fill="#fcf0e3"/>
          </g>
          <g id="Grupo_88480" data-name="Grupo 88480" transform="translate(10.353 14.241)">
            <g id="Grupo_88479" data-name="Grupo 88479">
              <path id="Trazado_145367" data-name="Trazado 145367" d="M-6829.436-1516.154l-22.161,3.561-5.379-7.955c1.058,8.876-5.488,14.609-5.488,14.609s-.067-.092-.184-.26l-.183.034a6.434,6.434,0,0,0-5.125,7.486h0a6.432,6.432,0,0,0,7.485,5.125l.423-.079a16.5,16.5,0,0,0,4.8,8.394v14.2a9.18,9.18,0,0,0,9.153,9.154h0a9.182,9.182,0,0,0,9.154-9.154v-11.216a16.618,16.618,0,0,0,8.13-8.153l.01-.016a16.369,16.369,0,0,0,2.042-11.439Z" transform="translate(6868.065 1520.548)" fill="#fec29e"/>
            </g>
            <path id="Trazado_145368" data-name="Trazado 145368" d="M-6834.506-1464.783h0a16.438,16.438,0,0,1-18.651-11.059c-.082-.254-1.528.078-1.493.233a16.5,16.5,0,0,0,4.825,8.311,9.181,9.181,0,0,0,9.11,8.31h0a9.171,9.171,0,0,0,8.108-4.932,16.6,16.6,0,0,0,9.188-8.6A16.4,16.4,0,0,1-6834.506-1464.783Z" transform="translate(6862.684 1502.647)" fill="#ff887c" opacity="0.32"/>
          </g>
          <g id="Grupo_88487" data-name="Grupo 88487" transform="translate(14.089 21.619)">
            <path id="Trazado_145369" data-name="Trazado 145369" d="M-6861-1485.84a.3.3,0,0,1-.236-.116.3.3,0,0,1,.052-.419l1.992-1.545-2.541-2.4a.3.3,0,0,1-.012-.423.3.3,0,0,1,.423-.012l2.8,2.638a.3.3,0,0,1,.093.232.3.3,0,0,1-.115.222l-2.268,1.759A.294.294,0,0,1-6861-1485.84Z" transform="translate(6861.827 1501.248)" fill="#fb8e77"/>
            <g id="Grupo_88486" data-name="Grupo 88486" transform="translate(15.434)">
              <g id="Grupo_88485" data-name="Grupo 88485">
                <g id="Grupo_88484" data-name="Grupo 88484" transform="translate(0.941)">
                  <g id="Grupo_88483" data-name="Grupo 88483">
                    <g id="Grupo_88481" data-name="Grupo 88481" transform="translate(0 2.168)">
                      <path id="Trazado_145370" data-name="Trazado 145370" d="M-6834.08-1502.28a2.114,2.114,0,0,0,.817-.311c.273-.148.551-.29.8-.4s.535-.238.824-.352a2.1,2.1,0,0,0,.762-.425c.169-.188.136-.485-.261-.683a2.41,2.41,0,0,0-1.967.134,2.339,2.339,0,0,0-1.347,1.411C-6834.549-1502.482-6834.336-1502.27-6834.08-1502.28Z" transform="translate(6834.478 1504.605)" fill="#1b1b25"/>
                    </g>
                    <g id="Grupo_88482" data-name="Grupo 88482" transform="translate(12.622)">
                      <path id="Trazado_145371" data-name="Trazado 145371" d="M-6809.739-1506.5a2.11,2.11,0,0,1-.871-.072c-.3-.067-.611-.126-.879-.168s-.578-.08-.888-.11a2.091,2.091,0,0,1-.85-.2c-.215-.134-.265-.428.062-.729a2.409,2.409,0,0,1,1.927-.415,2.335,2.335,0,0,1,1.685.983C-6809.344-1506.819-6809.49-1506.557-6809.739-1506.5Z" transform="translate(6813.398 1508.226)" fill="#1b1b25"/>
                    </g>
                  </g>
                </g>
                <path id="Trazado_145372" data-name="Trazado 145372" d="M-6825.077-1481.67a5.9,5.9,0,0,1-4.115-1.953.3.3,0,0,1,.039-.421.3.3,0,0,1,.421.038,4.763,4.763,0,0,0,5.542,1.3.3.3,0,0,1,.4.147.3.3,0,0,1-.145.4A5.058,5.058,0,0,1-6825.077-1481.67Z" transform="translate(6833.325 1498.551)" fill="#fb8e77"/>
                <path id="Trazado_145373" data-name="Trazado 145373" d="M-6819.487-1493.1a.3.3,0,0,1-.294-.242.3.3,0,0,1,.235-.352l2.106-.414a2.422,2.422,0,0,0,1.906-2.84.875.875,0,0,0-1.026-.688,2.047,2.047,0,0,1-2.4-1.611l-.508-2.582a.3.3,0,0,1,.236-.352.3.3,0,0,1,.352.236l.507,2.583a1.45,1.45,0,0,0,1.7,1.14,1.462,1.462,0,0,1,1.1.222,1.462,1.462,0,0,1,.624.938,3.02,3.02,0,0,1-2.376,3.544l-2.107.414A.278.278,0,0,1-6819.487-1493.1Z" transform="translate(6829.524 1505.804)" fill="#fb8e77"/>
                <path id="Trazado_145374" data-name="Trazado 145374" d="M-6829.949-1493.861h0a.744.744,0,0,1-.864-.592l-.167-.884a.744.744,0,0,1,.593-.865h0a.743.743,0,0,1,.864.592l.166.883A.744.744,0,0,1-6829.949-1493.861Z" transform="translate(6834.021 1503.406)" fill="#1b1b25"/>
                <path id="Trazado_145375" data-name="Trazado 145375" d="M-6808.978-1497.268h0a.743.743,0,0,1-.864-.592l-.165-.884a.743.743,0,0,1,.592-.865h0a.744.744,0,0,1,.865.591l.164.884A.742.742,0,0,1-6808.978-1497.268Z" transform="translate(6825.604 1504.773)" fill="#1b1b25"/>
                <path id="Trazado_145376" data-name="Trazado 145376" d="M-6832.5-1487.937l-2.529.284a.92.92,0,0,1-1.014-.809h0a.921.921,0,0,1,.809-1.015l2.528-.284a.92.92,0,0,1,1.014.81h0A.92.92,0,0,1-6832.5-1487.937Z" transform="translate(6836.049 1500.819)" fill="#ff887c" opacity="0.17"/>
                <path id="Trazado_145377" data-name="Trazado 145377" d="M-6804.107-1492.409l-2.528.284a.921.921,0,0,1-1.015-.809h0a.92.92,0,0,1,.81-1.014l2.528-.284a.922.922,0,0,1,1.015.809h0A.922.922,0,0,1-6804.107-1492.409Z" transform="translate(6824.657 1502.613)" fill="#ff887c" opacity="0.17"/>
                <path id="Trazado_145378" data-name="Trazado 145378" d="M-6816.313-1469.848a.3.3,0,0,1-.176-.057,2.177,2.177,0,0,0-2.453,0,.3.3,0,0,1-.416-.074.3.3,0,0,1,.073-.416,2.76,2.76,0,0,1,3.149,0,.3.3,0,0,1,.065.419A.3.3,0,0,1-6816.313-1469.848Z" transform="translate(6829.374 1493.245)" fill="#fb8e77"/>
              </g>
            </g>
          </g>
        </g>
      </g>
    </g>
  </g>
</svg>
