<svg xmlns="http://www.w3.org/2000/svg" xmlns:xlink="http://www.w3.org/1999/xlink" width="425.544" height="297.943" viewBox="0 0 425.544 297.943">
  <defs>
    <clipPath id="clip-path">
      <path id="Trazado_150627" data-name="Trazado 150627" d="M325.706,761.8c0,59.082,42.56,99.753,96.782,99.753s98.084-43.3,98.084-102.382S476.706,647.6,422.487,647.6,325.706,702.718,325.706,761.8Z" transform="translate(-325.706 -647.602)" fill="none"/>
    </clipPath>
    <radialGradient id="radial-gradient" cx="0.5" cy="0.5" r="0.605" gradientTransform="matrix(0.716, 0.278, -0.207, 0.961, 0.245, -0.119)" gradientUnits="objectBoundingBox">
      <stop offset="0" stop-color="#fda06c"/>
      <stop offset="1" stop-color="#ffbf88"/>
    </radialGradient>
    <radialGradient id="radial-gradient-2" cx="0.5" cy="0.5" r="0.567" gradientTransform="translate(0.087) scale(0.827 1)" xlink:href="#radial-gradient"/>
  </defs>
  <g id="Grupo_137178" data-name="Grupo 137178" transform="translate(-944.501 -5389.333)">
    <path id="Trazado_153939" data-name="Trazado 153939" d="M-16.226,0h-3.408V-5.937h-5.049V0H-28.11V-14.219h3.428v5.645h5.049v-5.645h3.408Zm1.6-5.381A6.236,6.236,0,0,1-14.009-8.2a4.4,4.4,0,0,1,1.768-1.9,5.323,5.323,0,0,1,2.705-.664A4.858,4.858,0,0,1-5.8-9.292a5.64,5.64,0,0,1,1.367,4v.117A5.472,5.472,0,0,1-5.8-1.255,4.871,4.871,0,0,1-9.517.2,4.927,4.927,0,0,1-13.14-1.157a5.29,5.29,0,0,1-1.475-3.667Zm3.291.205a3.932,3.932,0,0,0,.459,2.148,1.529,1.529,0,0,0,1.357.684q1.758,0,1.8-2.705v-.332q0-2.842-1.816-2.842-1.65,0-1.787,2.451ZM2.554-2.969a.76.76,0,0,0-.439-.674A6.685,6.685,0,0,0,.444-4.17a7.615,7.615,0,0,1-2.031-.718A3.4,3.4,0,0,1-2.808-5.967a2.577,2.577,0,0,1-.42-1.455,2.92,2.92,0,0,1,1.2-2.4,4.948,4.948,0,0,1,3.145-.942,5.482,5.482,0,0,1,3.359.947,2.962,2.962,0,0,1,1.27,2.49h-3.3q0-1.27-1.338-1.27a1.326,1.326,0,0,0-.869.288.892.892,0,0,0-.352.718.819.819,0,0,0,.43.713,4.06,4.06,0,0,0,1.372.449,11.857,11.857,0,0,1,1.655.42A3.007,3.007,0,0,1,5.728-3.066,2.767,2.767,0,0,1,4.443-.713,5.632,5.632,0,0,1,1.118.2,5.747,5.747,0,0,1-1.3-.293a4.05,4.05,0,0,1-1.66-1.328,3.007,3.007,0,0,1-.6-1.768H-.483A1.272,1.272,0,0,0,0-2.319a2.009,2.009,0,0,0,1.2.337,1.58,1.58,0,0,0,1.011-.273A.875.875,0,0,0,2.554-2.969ZM11.1-13.193v2.627h1.738v2.285H11.1v4.834a1.234,1.234,0,0,0,.215.83,1.152,1.152,0,0,0,.85.234,4.828,4.828,0,0,0,.82-.059V-.088A6.074,6.074,0,0,1,11.128.2a3.448,3.448,0,0,1-2.51-.8,3.282,3.282,0,0,1-.811-2.432V-8.281H6.46v-2.285H7.808v-2.627ZM17.6,0H14.3V-10.566h3.3Zm-3.5-13.3a1.482,1.482,0,0,1,.508-1.159,1.909,1.909,0,0,1,1.318-.452,1.909,1.909,0,0,1,1.318.452,1.482,1.482,0,0,1,.508,1.159,1.482,1.482,0,0,1-.508,1.159,1.909,1.909,0,0,1-1.318.452,1.909,1.909,0,0,1-1.318-.452A1.482,1.482,0,0,1,14.106-13.3ZM23.1,0H19.8V-15h3.3Z" transform="translate(1157.001 5404.333)" fill="#12263f"/>
    <path id="Sustracción_3" data-name="Sustracción 3" d="M212.272,0a213.88,213.88,0,0,0-42.78,4.313,211.117,211.117,0,0,0-75.9,31.938,212.875,212.875,0,0,0-76.907,93.392A211.168,211.168,0,0,0,4.313,169.488,213.841,213.841,0,0,0,0,212.269c0,.294,0,.595,0,.888H78.747c0-.267,0-.549,0-.888a134.507,134.507,0,0,1,2.713-26.912,132.764,132.764,0,0,1,20.093-47.744A133.913,133.913,0,0,1,160.3,89.238a132.946,132.946,0,0,1,25.064-7.779,134.864,134.864,0,0,1,53.819,0,132.8,132.8,0,0,1,47.745,20.089A133.913,133.913,0,0,1,335.3,160.292a132.842,132.842,0,0,1,7.78,25.064,134.527,134.527,0,0,1,2.713,26.912c0,.3,0,.591,0,.888h78.748l0-.4c0-.163,0-.326,0-.488a213.836,213.836,0,0,0-4.313-42.78,211.115,211.115,0,0,0-31.941-75.9,212.888,212.888,0,0,0-93.394-76.9A211.221,211.221,0,0,0,255.051,4.313,213.871,213.871,0,0,0,212.272,0Z" transform="translate(945.001 5473.621)" fill="#3e2ea6" stroke="rgba(0,0,0,0)" stroke-miterlimit="10" stroke-width="1"/>
    <g id="Grupo_133629" data-name="Grupo 133629" transform="translate(733.911 4798.81)">
      <circle id="Elipse_4984" data-name="Elipse 4984" cx="98.174" cy="98.174" r="98.174" transform="translate(325.333 665.201)" fill="#dad6f7"/>
      <g id="Grupo_133628" data-name="Grupo 133628" transform="translate(326.45 647.602)">
        <g id="Grupo_133627" data-name="Grupo 133627" clip-path="url(#clip-path)">
          <g id="Grupo_136801" data-name="Grupo 136801" transform="translate(30.81 0)">
            <path id="Trazado_152380" data-name="Trazado 152380" d="M646.167,2998.089c-4.833.615-9.585,4.967-7.345,13.547s10.35,18.984,17.624,15.532-1.052-25.674-1.052-25.674S653.263,2997.185,646.167,2998.089Z" transform="translate(-638.251 -2898.911)" fill="#ffbf88"/>
            <path id="Trazado_152381" data-name="Trazado 152381" d="M648.394,3008.06c-4.742,3.652,1.141,18.512,10.833,16.754s4.789-11.961,4.789-11.961S656.558,3001.772,648.394,3008.06Z" transform="translate(-641.274 -2901.825)" fill="#fda06c"/>
            <path id="Trazado_152382" data-name="Trazado 152382" d="M834.713,2998.089c-7.1-.9-9.226,3.405-9.226,3.405s-8.325,22.222-1.052,25.674,15.383-6.952,17.624-15.532S839.547,2998.7,834.713,2998.089Z" transform="translate(-703.639 -2898.911)" fill="#ffbf88"/>
            <path id="Trazado_152383" data-name="Trazado 152383" d="M833.952,3008.06c-8.165-6.288-15.623,4.792-15.623,4.792s-4.9,10.2,4.79,11.961S838.694,3011.712,833.952,3008.06Z" transform="translate(-702.081 -2901.825)" fill="#fda06c"/>
            <path id="Trazado_152384" data-name="Trazado 152384" d="M749.58,3121.323c-8.511-9.948-5.653-24.4-5.653-24.4l-67.716,1.152s1.4,12.566-2.413,18.011-21.543,15.079-34.627,17.173c0,0,16.006,17.382,69.361,17.382s71.662-14.66,71.662-14.66S758.092,3131.271,749.58,3121.323Z" transform="translate(-638.579 -2934.231)" fill="#ffbf88"/>
            <path id="Trazado_152385" data-name="Trazado 152385" d="M719,2879.6c-25.929-1.1-68.837,3.632-62.17,62.9l-.019-.254s.019.254.056.731c.409,5.192,3.055,36.8,8.25,55.127,5.672,20.016,36.868,27.426,53.073,28.406s38.489-11.41,46.592-49.123,4.659-78.314,4.659-78.314S744.929,2880.7,719,2879.6Z" transform="translate(-644.635 -2856.619)" fill="#ffbf88"/>
            <path id="Trazado_152386" data-name="Trazado 152386" d="M783.077,2959.262c-6.569-1.3-12.516-5.7-15.792-5.676,0,0-2.407,6.1-2.3,7.326s4.293,3.392,5.4,4,2.344.326,3.563.111,4.25,1.541,10.979,1.458,20.322-1.57,19.553-3.657S789.646,2960.557,783.077,2959.262Z" transform="translate(-683.484 -2883.072)" fill="#63392c"/>
            <path id="Trazado_152387" data-name="Trazado 152387" d="M691.878,2958.04c-6.506,1.58-20.655,2.375-21.333,4.494s13.069,3.009,19.795,2.8,9.677-2.1,10.9-1.935,2.475.391,3.556-.265,5.168-3,5.222-4.231-2.615-7.22-2.615-7.22C704.133,2951.8,698.384,2956.46,691.878,2958.04Z" transform="translate(-649.769 -2882.392)" fill="#63392c"/>
            <path id="Trazado_152388" data-name="Trazado 152388" d="M764.82,2936.4s.152,19.173,0,28.415-3.042,25.656-6.692,33.242-12.1,10.207-20.041,10.483-15.4-1.311-18.591-1.724a56.013,56.013,0,0,0-9.4.362,56.013,56.013,0,0,0-9.4-.362c-3.194.413-10.646,2-18.592,1.724s-16.39-2.9-20.04-10.483-6.54-24-6.692-33.242,0-28.415,0-28.415-12.776-4.276-10.8,4.727,4.411,24.377,6.249,41.756,3.028,36.3,4.482,46.089,14.805,24.667,25.872,28.53a228.4,228.4,0,0,0,24.55,7.153,42.112,42.112,0,0,0,8.745,0,251.307,251.307,0,0,0,25.822-7.153c11.067-3.862,23.147-18.736,24.6-28.53s2.643-28.711,4.482-46.089,4.272-32.754,6.249-41.756S764.82,2936.4,764.82,2936.4Z" transform="translate(-640.431 -2876.574)" fill="#63392c"/>
            <path id="Trazado_152389" data-name="Trazado 152389" d="M749.029,2857.969c-11.179-4.288-41.094-14.032-41.094-14.032a51.161,51.161,0,0,1-18.906,15.007s3.8-5.133,2.585-8.641c0,0-10.494,7.276-19.012,11.3s-38.759,26.256-29.257,52.362c9.3,25.558,4.173,5.922,4.173,5.922l4.7,1.225,1.91-4.115s5.542-13.816,12.386-15.245,49.278-14.682,54.145-20.659c0,0,24.023,13.359,37.315,17.016a5.1,5.1,0,0,1,3.644,3.521,101.067,101.067,0,0,1,2.2,10.125c1.1,6.89,9.137,5.147,9.137,5.147s5.046-13.331,2.765-25.545S760.207,2862.256,749.029,2857.969Z" transform="translate(-639.417 -2843.936)" fill="#63392c"/>
            <path id="Trazado_152390" data-name="Trazado 152390" d="M748.787,3055.6c-4.452-.2-14.923,0-14.923,0s-10.471-.2-14.923,0-7.336,3.167-7.336,4.917c0,3.155,8.026,10.332,12.729,10.63s7.524-1.038,9.531-.889c2.007-.148,4.828,1.188,9.531.889s12.728-7.475,12.728-10.63C756.122,3058.771,753.238,3055.8,748.787,3055.6Z" transform="translate(-664.432 -2919.452)" fill="#ffbf88"/>
            <path id="Trazado_152391" data-name="Trazado 152391" d="M750.662,3029.963l-5.813,1.728a27.007,27.007,0,0,1-11.691.251l-5.687-1.384c-1.445-.288-3.627,4.049-2.458,4.765l13.46,3.444a1.706,1.706,0,0,0,1.774-.036l13-4.053C754.367,3033.913,752.086,3029.615,750.662,3029.963Z" transform="translate(-669.099 -2910.324)" fill="#f4996c"/>
            <ellipse id="Elipse_5216" data-name="Elipse 5216" cx="11.699" cy="8.722" rx="11.699" ry="8.722" transform="matrix(0.961, -0.278, 0.278, 0.961, 90.975, 113.102)" fill="url(#radial-gradient)"/>
            <path id="Trazado_152392" data-name="Trazado 152392" d="M691.544,3015.17c-5.882-2.673-12.267-1.285-14.259,3.1s1.16,10.108,7.043,12.781,12.266,1.285,14.259-3.1S697.427,3017.843,691.544,3015.17Z" transform="translate(-651.97 -2904.566)" fill="url(#radial-gradient-2)"/>
            <path id="Trazado_152393" data-name="Trazado 152393" d="M703.645,2877.4c-20.187,8.384-52.771,19.015-47.208,40.725,0,0-.06-14.374,26.276-22.758s50.5-23.207,39.37-40.725C722.083,2854.643,723.832,2869.017,703.645,2877.4Z" transform="translate(-644.517 -2847.758)" fill="#724336"/>
            <path id="Trazado_152394" data-name="Trazado 152394" d="M663.131,2899.667a54.83,54.83,0,0,1,23.736-14.873c15.365-4.891,25.961-13.675,27.551-17.269,0,0-12.4,9.583-27.021,13.974S665.25,2894.976,663.131,2899.667Z" transform="translate(-647.131 -2852.355)" fill="#724336"/>
            <path id="Trazado_152395" data-name="Trazado 152395" d="M798.192,2901.313a256.249,256.249,0,0,1-26.226-15.471s12.451,12.776,22.624,16.769,18.12,11.678,19.18,16.17C813.77,2918.781,812.71,2908.7,798.192,2901.313Z" transform="translate(-685.976 -2858.893)" fill="#724336"/>
            <path id="Trazado_152396" data-name="Trazado 152396" d="M693.638,3010.129c10.367.512,15.269-9.941,15.269-9.941l-27.777-1.179S683.271,3009.617,693.638,3010.129Z" transform="translate(-653.555 -2899.284)" fill="#e08658" opacity="0.27"/>
            <path id="Trazado_152397" data-name="Trazado 152397" d="M695.628,2984.247c-9,.781-11.56,8.629-12.163,10.8,8.564,10.37,23.269,2.771,26.282-.158C708.656,2992.252,705.915,2983.354,695.628,2984.247Z" transform="translate(-654.389 -2893.993)" fill="#fff"/>
            <path id="Trazado_152398" data-name="Trazado 152398" d="M699.582,2987.089a6.045,6.045,0,1,0,6.739,5.26A6.045,6.045,0,0,0,699.582,2987.089Z" transform="translate(-658.247 -2895.013)" fill="#b27738"/>
            <path id="Trazado_152399" data-name="Trazado 152399" d="M700.588,2989.482a4.5,4.5,0,1,0,5.018,3.917A4.5,4.5,0,0,0,700.588,2989.482Z" transform="translate(-659.09 -2895.871)" fill="#442519"/>
            <path id="Trazado_152400" data-name="Trazado 152400" d="M695.01,2998.513a1.5,1.5,0,1,0,2.262.381A1.633,1.633,0,0,0,695.01,2998.513Z" transform="translate(-658.177 -2899.006)" fill="#fff"/>
            <path id="Trazado_152401" data-name="Trazado 152401" d="M690.489,2981.575c-6.74,1.409-9.979,10.846-9.979,10.846l2.023,1.011c1.586-2.271,4.952-5.511,12.6-5.5,5.423.008,11.514,3.02,13.48,5.568a.11.11,0,0,0,.049-.033c.368-.619-1.925-4.115-1.925-4.115C701.875,2981.377,696.757,2980.265,690.489,2981.575Z" transform="translate(-653.334 -2892.895)" fill="#e08658"/>
            <path id="Trazado_152402" data-name="Trazado 152402" d="M703.434,2992.377c-2.983-1.527-7.011-1.5-10.129-.9-2.75.534-7.862,2.163-9.99,5.612l.507.426s2.047-2.539,8.31-4.1c7.154-1.778,11.662-.152,14.079,1.8,3.289,2.652,3.475,2.032,3.475,2.032S708.919,2995.185,703.434,2992.377Z" transform="translate(-654.336 -2896.459)" fill="#63392c"/>
            <path id="Trazado_152403" data-name="Trazado 152403" d="M683.587,3000.65c.185,1.193,4.044,6.31,11.534,6.491,10.351.251,14.662-6.368,14.662-6.368s-8.851,5.052-15.48,4.734A16.568,16.568,0,0,1,683.587,3000.65Z" transform="translate(-654.432 -2899.869)" fill="#dbf6fc"/>
            <path id="Trazado_152404" data-name="Trazado 152404" d="M785.964,3010.129c10.367-.512,12.509-11.12,12.509-11.12l-27.778,1.179S775.6,3010.642,785.964,3010.129Z" transform="translate(-685.522 -2899.284)" fill="#e08658" opacity="0.27"/>
            <path id="Trazado_152405" data-name="Trazado 152405" d="M786.175,3005.507c-6.628.318-15.48-4.734-15.48-4.734s4.312,6.619,14.662,6.368c7.491-.181,11.35-5.3,11.534-6.491A16.566,16.566,0,0,1,786.175,3005.507Z" transform="translate(-685.522 -2899.869)" fill="#dbf6fc"/>
            <path id="Trazado_152406" data-name="Trazado 152406" d="M784.96,2984.215c-10.312-.922-13.083,7.993-14.183,10.636,3.013,2.945,17.74,10.605,26.354.229C796.531,2992.9,793.985,2985.022,784.96,2984.215Z" transform="translate(-685.552 -2893.98)" fill="#fff"/>
            <path id="Trazado_152407" data-name="Trazado 152407" d="M789.53,2987.194a6.062,6.062,0,1,0,5.258,6.771A6.062,6.062,0,0,0,789.53,2987.194Z" transform="translate(-689.811 -2895.05)" fill="#b27738"/>
            <path id="Trazado_152408" data-name="Trazado 152408" d="M790.156,2989.584a4.514,4.514,0,1,0,3.915,5.042A4.514,4.514,0,0,0,790.156,2989.584Z" transform="translate(-690.656 -2895.907)" fill="#442519"/>
            <path id="Trazado_152409" data-name="Trazado 152409" d="M782.937,2996.686a1.506,1.506,0,1,0,2.1.927A1.638,1.638,0,0,0,782.937,2996.686Z" transform="translate(-689.422 -2898.424)" fill="#fff"/>
            <path id="Trazado_152410" data-name="Trazado 152410" d="M724.228,3068.645c6.639-2.5,15.793-1.9,15.793-1.9a96.519,96.519,0,0,1,15.818,1.9s-4.939-4.813-16.183-4.86S724.228,3068.645,724.228,3068.645Z" transform="translate(-668.938 -2922.403)" fill="#e08265" opacity="0.38"/>
            <path id="Trazado_152411" data-name="Trazado 152411" d="M739.1,3059.064c-9.7.276-15.64,8.322-15.64,8.322s4.714-4.746,15.922-4.92c11.437-.177,16.689,4.92,16.689,4.92S749,3058.782,739.1,3059.064Z" transform="translate(-668.663 -2920.716)" fill="#ce754e" opacity="0.38"/>
            <path id="Trazado_152412" data-name="Trazado 152412" d="M789.161,2981.575c-6.268-1.311-11.386-.2-16.244,7.776,0,0-2.292,3.5-1.925,4.115a.115.115,0,0,0,.049.033c1.965-2.548,8.058-5.56,13.48-5.568,7.644-.01,11.01,3.23,12.6,5.5l2.023-1.011S795.9,2982.984,789.161,2981.575Z" transform="translate(-685.614 -2892.895)" fill="#e08658"/>
            <path id="Trazado_152413" data-name="Trazado 152413" d="M787.352,2991.482c-3.118-.605-7.146-.632-10.129.9-5.485,2.808-6.253,4.876-6.253,4.876s.186.62,3.474-2.032c2.418-1.95,6.926-3.576,14.08-1.8,6.263,1.557,8.31,4.1,8.31,4.1l.507-.426C795.214,2993.645,790.1,2992.015,787.352,2991.482Z" transform="translate(-685.621 -2896.459)" fill="#63392c"/>
          </g>
        </g>
      </g>
    </g>
  </g>
</svg>
