<svg xmlns="http://www.w3.org/2000/svg" xmlns:xlink="http://www.w3.org/1999/xlink" width="425.544" height="297.943" viewBox="0 0 425.544 297.943">
  <defs>
    <clipPath id="clip-path">
      <path id="Trazado_150267" data-name="Trazado 150267" d="M459.5,759.22c0,57.749,41.6,97.5,94.6,97.5s95.869-42.325,95.869-100.071S607.088,647.6,554.094,647.6,459.5,701.474,459.5,759.22Z" transform="translate(-459.497 -647.602)" fill="none"/>
    </clipPath>
    <radialGradient id="radial-gradient" cx="0.5" cy="0.5" r="0.639" gradientTransform="translate(0.109 13.8) scale(0.782 0.81)" gradientUnits="objectBoundingBox">
      <stop offset="0" stop-color="#fda06c"/>
      <stop offset="1" stop-color="#ffbf88"/>
    </radialGradient>
    <radialGradient id="radial-gradient-2" cx="0.5" cy="0.5" r="0.639" xlink:href="#radial-gradient"/>
  </defs>
  <g id="Grupo_137185" data-name="Grupo 137185" transform="translate(-269.5 -5389.333)">
    <path id="Sustracción_2" data-name="Sustracción 2" d="M212.272,0a213.88,213.88,0,0,0-42.78,4.313,211.117,211.117,0,0,0-75.9,31.938,212.875,212.875,0,0,0-76.907,93.392A211.168,211.168,0,0,0,4.313,169.488,213.841,213.841,0,0,0,0,212.269c0,.294,0,.595,0,.888H78.747c0-.267,0-.549,0-.888a134.507,134.507,0,0,1,2.713-26.912,132.764,132.764,0,0,1,20.093-47.744A133.913,133.913,0,0,1,160.3,89.238a132.946,132.946,0,0,1,25.064-7.779,134.864,134.864,0,0,1,53.819,0,132.8,132.8,0,0,1,47.745,20.089A133.913,133.913,0,0,1,335.3,160.292a132.842,132.842,0,0,1,7.78,25.064,134.527,134.527,0,0,1,2.713,26.912c0,.3,0,.591,0,.888h78.748l0-.4c0-.163,0-.326,0-.488a213.836,213.836,0,0,0-4.313-42.78,211.115,211.115,0,0,0-31.941-75.9,212.888,212.888,0,0,0-93.394-76.9A211.221,211.221,0,0,0,255.051,4.313,213.871,213.871,0,0,0,212.272,0Z" transform="translate(270 5473.621)" fill="#3e2ea6" stroke="rgba(0,0,0,0)" stroke-miterlimit="10" stroke-width="1"/>
    <g id="Grupo_133573" data-name="Grupo 133573" transform="translate(-72.881 4803.64)">
      <path id="Trazado_152379" data-name="Trazado 152379" d="M95.958,0A95.958,95.958,0,1,1,0,95.958,95.958,95.958,0,0,1,95.958,0Z" transform="translate(459.124 664.804)" fill="#dad6f7"/>
      <g id="Grupo_133572" data-name="Grupo 133572" transform="translate(460.216 647.602)">
        <g id="Grupo_133571" data-name="Grupo 133571" clip-path="url(#clip-path)">
          <g id="Grupo_136800" data-name="Grupo 136800" transform="translate(26.599 7.572)">
            <path id="Trazado_152349" data-name="Trazado 152349" d="M5076.623,2426.668c-41.326-13.968-78.134,13.968-82.516,78.243s4.1,104.4,4.1,104.4l123.78,3.021s9.132-10.9,8.041-95.276C5128.855,2426.394,5076.623,2426.668,5076.623,2426.668Z" transform="translate(-4992.85 -2423.15)" fill="#63392c"/>
            <path id="Trazado_152350" data-name="Trazado 152350" d="M5012.815,2561.319c-4.7.661-9.33,5.332-7.149,14.54s10.075,20.374,17.154,16.67-1.024-27.554-1.024-27.554S5019.721,2560.35,5012.815,2561.319Z" transform="translate(-4997.467 -2475.141)" fill="#ffbf88"/>
            <path id="Trazado_152351" data-name="Trazado 152351" d="M5184.385,2560.963c-6.906-.969-8.981,3.655-8.981,3.655s-8.1,23.85-1.023,27.555,14.972-7.461,17.154-16.67S5189.09,2561.624,5184.385,2560.963Z" transform="translate(-5060.13 -2475.007)" fill="#ffbf88"/>
            <path id="Trazado_152352" data-name="Trazado 152352" d="M5184.385,2560.963c-6.906-.969-8.981,3.655-8.981,3.655s-.7,2.074-1.517,5.093c-1.941,7.22-4.5,19.849.493,22.462,7.079,3.7,14.972-7.461,17.154-16.67S5189.09,2561.624,5184.385,2560.963Z" transform="translate(-5060.13 -2475.007)" fill="#ffbf88"/>
            <path id="Trazado_152353" data-name="Trazado 152353" d="M5185.293,2571.943c-7.947-6.748-15.207,5.144-15.207,5.144s-4.772,10.95,4.662,12.837S5189.909,2575.862,5185.293,2571.943Z" transform="translate(-5059.15 -2478.411)" fill="#fda06c"/>
            <path id="Trazado_152354" data-name="Trazado 152354" d="M5015.244,2572.3c-4.616,3.92,1.109,19.868,10.544,17.981s4.662-12.837,4.662-12.837S5023.189,2565.551,5015.244,2572.3Z" transform="translate(-5000.671 -2478.546)" fill="#fda06c"/>
            <path id="Trazado_152355" data-name="Trazado 152355" d="M5094.867,2683.036c-8.118-11.51-5.392-28.231-5.392-28.231l-48.4,1.333s1.333,14.54-2.3,20.84-27.02,17.448-39.5,19.872c0,0,15.267,20.113,66.156,20.113S5126.006,2700,5126.006,2700,5102.984,2694.546,5094.867,2683.036Z" transform="translate(-4995.267 -2510.402)" fill="#ffbf88"/>
            <path id="Trazado_152356" data-name="Trazado 152356" d="M5066.327,2656.138s.293,3.2.229,7.256c3.7,4.033,11.214,11.124,23.559,11.513a38.928,38.928,0,0,0,24.48-7.813,50.508,50.508,0,0,1,.137-12.288Z" transform="translate(-5020.524 -2510.402)" fill="#fda06c"/>
            <path id="Trazado_152357" data-name="Trazado 152357" d="M5121.1,2468.068c-7.885-23.227-34.151-30.969-47.979-31.443-13.828.475-40.316,8.217-48.2,31.443-6.971,20.535-2.189,29.338-1.247,43.768a54.717,54.717,0,0,1,.062,6c-.824,18.328,1.646,34.515,11.358,45.417s26.5,23.788,38.027,23.788c9.585,0,28.314-12.886,38.027-23.788s12.181-27.089,11.358-45.417S5128.979,2491.3,5121.1,2468.068Z" transform="translate(-5003.525 -2428.225)" fill="#ffbf88"/>
            <path id="Trazado_152358" data-name="Trazado 152358" d="M5143.417,2524.29a68.131,68.131,0,0,0-13.406-2.564,1.466,1.466,0,0,0-1.549,1.118l-.936,3.874c-.24,1.133,7.476.66,14.245,1.625,7.3,1.04,17.671,9.943,17.966,8.766S5151.308,2526.666,5143.417,2524.29Z" transform="translate(-5043.573 -2460.276)" fill="#5b3523"/>
            <path id="Trazado_152359" data-name="Trazado 152359" d="M5151.714,2584.706c-6.319,1.826-10.338,7.126-8.977,11.837s7.588,7.049,13.907,5.223,10.339-7.125,8.977-11.837S5158.033,2582.88,5151.714,2584.706Z" transform="translate(-5049.205 -2483.765)" fill="url(#radial-gradient)"/>
            <path id="Trazado_152360" data-name="Trazado 152360" d="M5061.994,2518.859a68.17,68.17,0,0,0-13.23,3.351c-7.738,2.837-15.9,12.6-15.536,13.759s10.189-8.342,17.418-9.811c6.7-1.362,14.431-1.345,14.125-2.462l-1.164-3.812A1.464,1.464,0,0,0,5061.994,2518.859Z" transform="translate(-5008.053 -2459.193)" fill="#5b3523"/>
            <path id="Trazado_152361" data-name="Trazado 152361" d="M5046.006,2584.706c-6.319-1.826-12.546.512-13.907,5.224s2.657,10.011,8.977,11.837,12.545-.512,13.907-5.223S5052.326,2586.532,5046.006,2584.706Z" transform="translate(-5007.533 -2483.765)" fill="url(#radial-gradient-2)"/>
            <path id="Trazado_152362" data-name="Trazado 152362" d="M5108.177,2605.729l-5.266,1.3a19.927,19.927,0,0,1-8.711.188l-5.17-1.041c-1.077-.216-1.77.867-.9,1.406l10.029,6.2a1.261,1.261,0,0,0,1.322-.027l9.687-6.662C5110,2606.522,5109.238,2605.467,5108.177,2605.729Z" transform="translate(-5028.589 -2491.902)" fill="#fda06c"/>
            <path id="Trazado_152363" data-name="Trazado 152363" d="M5058.7,2431.869l-20.433,5.068-16.951,15.2-11.777,20.815,2.146,12.041-1.687,3.022-8.537,31.833-.73,22.411,14.606,42.16s-12.085-39.38.113-78.3l.371,2.08a52.208,52.208,0,0,1,2.265-9.5c1.21-3.034,2.351-5.836,3.428-8.425a54.689,54.689,0,0,1,27.191-26.491c29.441-13.009,34.372-24.239,33.687-27.662S5058.7,2431.869,5058.7,2431.869Z" transform="translate(-4995.816 -2426.434)" fill="#63392c"/>
            <path id="Trazado_152364" data-name="Trazado 152364" d="M5169.854,2493.011l.646-8.947-4.764-16.57-15.228-19.034-21.637-8.9a123.923,123.923,0,0,1,23.417,30.948c10.271,19.171,10.8,41.99,10.8,41.99l3.424-4.415c2.992,11.877,5.048,25.648,3.992,39.365-2.83,36.764-3.377,42.06-3.377,42.06s14.789-61.885,11.32-78.415C5177.218,2505.252,5173.783,2498.85,5169.854,2493.011Z" transform="translate(-5044.082 -2429.33)" fill="#63392c"/>
            <path id="Trazado_152365" data-name="Trazado 152365" d="M5001.348,2528.711c-2.727,45.641,9.689,81.063,9.689,81.063l5.112-4.962s-15.7-42.66-7.3-86.315,20.083-50.958,36.88-58.444,31.952-15.793,33.414-20.5a109.765,109.765,0,0,1-31.4,15.748C5030.026,2460.6,5004.075,2483.07,5001.348,2528.711Z" transform="translate(-4995.903 -2429.33)" fill="#724336"/>
            <path id="Trazado_152366" data-name="Trazado 152366" d="M5005.11,2497.444s6.624-30.364,27.3-38.991,36.288-15.885,38.617-19.993c0,0-14.639,8.49-27.792,12.873S5007.113,2463.583,5005.11,2497.444Z" transform="translate(-4997.467 -2428.916)" fill="#724336"/>
            <path id="Trazado_152367" data-name="Trazado 152367" d="M5151.353,2454.057s15.759,23.69,22.851,47.518,6.462,31.862,6.116,54.867-7.65,62.809-7.65,62.809,11.264-25.819,11.84-70.15S5172.58,2469.988,5151.353,2454.057Z" transform="translate(-5052.549 -2434.791)" fill="#724336"/>
            <path id="Trazado_152368" data-name="Trazado 152368" d="M5063.788,2557.255c-5.419-2.651-15.139-1.455-19.891,3.7,0,0,1.238,10.691,12.422,11.2,9.919.449,12.421-4.924,12.421-4.924C5069.021,2566.659,5068.708,2559.662,5063.788,2557.255Z" transform="translate(-5012.077 -2473.146)" fill="#fff"/>
            <circle id="Elipse_5213" data-name="Elipse 5213" cx="5.71" cy="5.71" r="5.71" transform="matrix(0.67, -0.742, 0.742, 0.67, 36.69, 90.908)" fill="#b27738"/>
            <circle id="Elipse_5214" data-name="Elipse 5214" cx="3.05" cy="3.05" r="3.05" transform="translate(41.73 87.445)" fill="#442519"/>
            <path id="Trazado_152369" data-name="Trazado 152369" d="M5056.286,2575.208c-11.184-.507-12.422-11.2-12.422-11.2-.506,1.708,2.414,12.977,13.518,12.076s11.326-5.8,11.326-5.8S5066.206,2575.657,5056.286,2575.208Z" transform="translate(-5012.043 -2476.204)" fill="#b58550"/>
            <path id="Trazado_152370" data-name="Trazado 152370" d="M5058.563,2553.826c-8.442-2.109-17.349,2.513-21.195.825a23.466,23.466,0,0,0,4.07,5.311c3.443-3.878,13.843-6.467,19.131-3.567a11.821,11.821,0,0,1,5.633,7.177S5065.59,2555.582,5058.563,2553.826Z" transform="translate(-5009.617 -2472.156)" fill="#5b3523"/>
            <path id="Trazado_152371" data-name="Trazado 152371" d="M5067.711,2561.042a1.326,1.326,0,1,0,1.952-.542A1.442,1.442,0,0,0,5067.711,2561.042Z" transform="translate(-5020.93 -2474.808)" fill="#fff"/>
            <path id="Trazado_152372" data-name="Trazado 152372" d="M5133.9,2557.216c-4.919,2.407-5.234,9.4-4.952,9.97,0,0,2.5,5.373,12.421,4.923,11.183-.506,12.421-11.2,12.421-11.2C5149.035,2555.76,5139.316,2554.565,5133.9,2557.216Z" transform="translate(-5044.082 -2473.131)" fill="#fff"/>
            <circle id="Elipse_5215" data-name="Elipse 5215" cx="5.71" cy="5.71" r="5.71" transform="translate(89.906 86.219) rotate(-13.23)" fill="#b27738"/>
            <path id="Trazado_152373" data-name="Trazado 152373" d="M5146.269,2563.4a3.019,3.019,0,1,0,3.019,3.019A3.019,3.019,0,0,0,5146.269,2563.4Z" transform="translate(-5049.497 -2475.976)" fill="#442519"/>
            <path id="Trazado_152374" data-name="Trazado 152374" d="M5141.41,2575.168c-9.919.449-12.421-4.923-12.421-4.923s.222,4.9,11.326,5.8,14.022-10.369,13.516-12.076C5153.832,2563.971,5152.594,2574.662,5141.41,2575.168Z" transform="translate(-5044.126 -2476.189)" fill="#b58550"/>
            <path id="Trazado_152375" data-name="Trazado 152375" d="M5136.755,2553.787c-7.027,1.755-7.64,9.747-7.64,9.747a11.82,11.82,0,0,1,5.633-7.177c5.29-2.9,15.689-.312,19.131,3.567a23.491,23.491,0,0,0,4.07-5.311C5154.1,2556.3,5145.2,2551.677,5136.755,2553.787Z" transform="translate(-5044.173 -2472.142)" fill="#5b3523"/>
            <path id="Trazado_152376" data-name="Trazado 152376" d="M5152.119,2561.383a1.326,1.326,0,1,0,2.016.208A1.443,1.443,0,0,0,5152.119,2561.383Z" transform="translate(-5052.56 -2475.099)" fill="#fff"/>
            <path id="Trazado_152377" data-name="Trazado 152377" d="M5100.5,2651.161c-4.307,0-7.8.85-7.8,1.9s3.492,1.9,7.8,1.9,7.8-.85,7.8-1.9S5104.807,2651.161,5100.5,2651.161Z" transform="translate(-5030.458 -2509.029)" fill="#fda06c" opacity="0.6"/>
            <path id="Trazado_152378" data-name="Trazado 152378" d="M5096.626,2630.924c-11.957-.472-17.124,6.065-17.124,6.065s5.876-3.072,15.415-3.387a31.262,31.262,0,0,1,16.636,4.332S5108.582,2631.4,5096.626,2630.924Z" transform="translate(-5025.487 -2501.398)" fill="#ce754e"/>
          </g>
        </g>
      </g>
    </g>
    <path id="Trazado_153946" data-name="Trazado 153946" d="M-42.72-4.824V0h-3.428V-14.219h5.674a6.608,6.608,0,0,1,2.886.6,4.526,4.526,0,0,1,1.943,1.709,4.667,4.667,0,0,1,.688,2.515,4.114,4.114,0,0,1-1.489,3.325,6.179,6.179,0,0,1-4.087,1.245Zm0-2.646h2.246a2.118,2.118,0,0,0,1.519-.5,1.85,1.85,0,0,0,.522-1.406,2.287,2.287,0,0,0-.537-1.592,1.9,1.9,0,0,0-1.465-.605H-42.72Zm15.83-.117-1.084-.078a1.947,1.947,0,0,0-1.992.977V0h-3.291V-10.566h3.086l.107,1.357a2.548,2.548,0,0,1,2.314-1.553,3.209,3.209,0,0,1,.918.117ZM-20.776.2a5.432,5.432,0,0,1-3.936-1.45,5.008,5.008,0,0,1-1.5-3.774V-5.3a6.489,6.489,0,0,1,.6-2.861,4.395,4.395,0,0,1,1.753-1.919,5.292,5.292,0,0,1,2.734-.679A4.574,4.574,0,0,1-17.612-9.38a5.43,5.43,0,0,1,1.289,3.853v1.279h-6.543a2.372,2.372,0,0,0,.771,1.4,2.3,2.3,0,0,0,1.543.508A2.958,2.958,0,0,0-18.11-3.437l1.5,1.777A4.2,4.2,0,0,1-18.35-.308,5.891,5.891,0,0,1-20.776.2Zm-.371-8.418q-1.445,0-1.719,1.914h3.32v-.254a1.63,1.63,0,0,0-.4-1.226A1.593,1.593,0,0,0-21.147-8.223Zm5.762,2.861a7.134,7.134,0,0,1,.527-2.832,4.245,4.245,0,0,1,1.514-1.9,3.99,3.99,0,0,1,2.295-.669A3.173,3.173,0,0,1-8.472-9.648l.117-.918h2.988V-.4a4.455,4.455,0,0,1-.649,2.427A4.167,4.167,0,0,1-7.9,3.608a6.91,6.91,0,0,1-2.852.552A5.961,5.961,0,0,1-13,3.721a4.063,4.063,0,0,1-1.665-1.143L-13.286.645a3.018,3.018,0,0,0,2.422,1.084A1.96,1.96,0,0,0-8.677-.518V-.85A3.09,3.09,0,0,1-11.069.2a3.819,3.819,0,0,1-3.125-1.479,6.13,6.13,0,0,1-1.191-3.96Zm3.3.205A3.759,3.759,0,0,0-11.6-3.1a1.541,1.541,0,0,0,1.367.757,1.748,1.748,0,0,0,1.553-.713V-7.5a1.7,1.7,0,0,0-1.533-.723,1.551,1.551,0,0,0-1.377.786A4.287,4.287,0,0,0-12.085-5.156ZM2.8-1.143A3.393,3.393,0,0,1-.024.2,3.328,3.328,0,0,1-2.656-.815,4.251,4.251,0,0,1-3.55-3.721v-6.846H-.259V-3.7A1.183,1.183,0,0,0,1.06-2.344a1.72,1.72,0,0,0,1.611-.811v-7.412H5.981V0H2.9Zm8.008-9.424.107,1.24a3.583,3.583,0,0,1,3.018-1.436,3.015,3.015,0,0,1,2.466.986,4.7,4.7,0,0,1,.845,2.969V0h-3.3V-6.67a1.783,1.783,0,0,0-.322-1.177,1.491,1.491,0,0,0-1.172-.376,1.569,1.569,0,0,0-1.436.762V0H7.72V-10.566ZM22.9-13.193v2.627h1.738v2.285H22.9v4.834a1.234,1.234,0,0,0,.215.83,1.152,1.152,0,0,0,.85.234,4.828,4.828,0,0,0,.82-.059V-.088A6.074,6.074,0,0,1,22.925.2a3.448,3.448,0,0,1-2.51-.8A3.282,3.282,0,0,1,19.6-3.037V-8.281H18.257v-2.285H19.6v-2.627ZM25.22-5.381A6.236,6.236,0,0,1,25.835-8.2,4.4,4.4,0,0,1,27.6-10.1a5.323,5.323,0,0,1,2.705-.664,4.858,4.858,0,0,1,3.74,1.47,5.64,5.64,0,0,1,1.367,4v.117a5.472,5.472,0,0,1-1.372,3.921A4.871,4.871,0,0,1,30.327.2,4.927,4.927,0,0,1,26.7-1.157a5.29,5.29,0,0,1-1.475-3.667Zm3.291.205a3.932,3.932,0,0,0,.459,2.148,1.529,1.529,0,0,0,1.357.684q1.758,0,1.8-2.705v-.332q0-2.842-1.816-2.842-1.65,0-1.787,2.451ZM30.757-15h3.477l-2.715,3.066-2.686,0Zm9.131,4.434L40-9.326a3.583,3.583,0,0,1,3.018-1.436,3.015,3.015,0,0,1,2.466.986,4.7,4.7,0,0,1,.845,2.969V0h-3.3V-6.67A1.783,1.783,0,0,0,42.7-7.847a1.491,1.491,0,0,0-1.172-.376,1.569,1.569,0,0,0-1.436.762V0H36.8V-10.566Z" transform="translate(482 5404.333)" fill="#12263f"/>
  </g>
</svg>
