<svg xmlns="http://www.w3.org/2000/svg" xmlns:xlink="http://www.w3.org/1999/xlink" width="425.544" height="299.499" viewBox="0 0 425.544 299.499">
  <defs>
    <clipPath id="clip-path">
      <path id="Trazado_150627" data-name="Trazado 150627" d="M325.706,761.8c0,59.082,42.56,99.754,96.782,99.754s98.084-43.3,98.084-102.382S476.706,647.6,422.488,647.6,325.706,702.718,325.706,761.8Z" transform="translate(-325.706 -647.602)" fill="none"/>
    </clipPath>
    <radialGradient id="radial-gradient" cx="0.5" cy="0.5" r="0.587" gradientTransform="translate(0.109) scale(0.782 1)" gradientUnits="objectBoundingBox">
      <stop offset="0" stop-color="#fda06c"/>
      <stop offset="1" stop-color="#ffbf88"/>
    </radialGradient>
    <radialGradient id="radial-gradient-2" cx="0.5" cy="0.5" r="0.567" gradientTransform="translate(0.087) scale(0.827 1)" xlink:href="#radial-gradient"/>
  </defs>
  <g id="Grupo_137179" data-name="Grupo 137179" transform="translate(-944.501 -6142.778)">
    <path id="Trazado_153940" data-name="Trazado 153940" d="M-13.584-11.572h-4.268V0h-3.428V-11.572h-4.189v-2.646h11.885ZM-8.047.2a5.432,5.432,0,0,1-3.936-1.45,5.008,5.008,0,0,1-1.5-3.774V-5.3a6.489,6.489,0,0,1,.6-2.861,4.395,4.395,0,0,1,1.753-1.919A5.292,5.292,0,0,1-8.4-10.762,4.574,4.574,0,0,1-4.883-9.38,5.43,5.43,0,0,1-3.594-5.527v1.279h-6.543a2.372,2.372,0,0,0,.771,1.4,2.3,2.3,0,0,0,1.543.508A2.958,2.958,0,0,0-5.381-3.437l1.5,1.777A4.2,4.2,0,0,1-5.62-.308,5.891,5.891,0,0,1-8.047.2Zm-.371-8.418q-1.445,0-1.719,1.914h3.32v-.254a1.63,1.63,0,0,0-.4-1.226A1.593,1.593,0,0,0-8.418-8.223Zm12.539.635L3.037-7.666a1.947,1.947,0,0,0-1.992.977V0H-2.246V-10.566H.84L.947-9.209a2.548,2.548,0,0,1,2.314-1.553,3.209,3.209,0,0,1,.918.117ZM9.59-2.344a1.464,1.464,0,0,0,1.074-.376,1.379,1.379,0,0,0,.371-1.05h3.086A3.653,3.653,0,0,1,12.876-.918,4.631,4.631,0,0,1,9.668.2,4.689,4.689,0,0,1,6.035-1.25a5.7,5.7,0,0,1-1.328-4v-.137A6.436,6.436,0,0,1,5.3-8.218,4.3,4.3,0,0,1,7-10.1a5.081,5.081,0,0,1,2.637-.659A4.573,4.573,0,0,1,12.91-9.619a4.053,4.053,0,0,1,1.211,3.1H11.035a1.807,1.807,0,0,0-.4-1.26,1.382,1.382,0,0,0-1.074-.439q-1.279,0-1.494,1.631A11.508,11.508,0,0,0,8-5.166a4.52,4.52,0,0,0,.381,2.207A1.319,1.319,0,0,0,9.59-2.344ZM15.1-5.381A6.236,6.236,0,0,1,15.713-8.2a4.4,4.4,0,0,1,1.768-1.9,5.323,5.323,0,0,1,2.705-.664,4.858,4.858,0,0,1,3.74,1.47,5.64,5.64,0,0,1,1.367,4v.117a5.472,5.472,0,0,1-1.372,3.921A4.871,4.871,0,0,1,20.205.2a4.927,4.927,0,0,1-3.623-1.353,5.29,5.29,0,0,1-1.475-3.667Zm3.291.205a3.932,3.932,0,0,0,.459,2.148,1.529,1.529,0,0,0,1.357.684q1.758,0,1.8-2.705v-.332q0-2.842-1.816-2.842-1.65,0-1.787,2.451Z" transform="translate(1157.001 6156.997)" fill="#12263f"/>
    <path id="Sustracción_4" data-name="Sustracción 4" d="M212.272,0a213.88,213.88,0,0,0-42.78,4.313,211.117,211.117,0,0,0-75.9,31.938,212.875,212.875,0,0,0-76.907,93.392A211.168,211.168,0,0,0,4.313,169.488,213.841,213.841,0,0,0,0,212.269c0,.294,0,.595,0,.888H78.747c0-.267,0-.549,0-.888a134.507,134.507,0,0,1,2.713-26.912,132.764,132.764,0,0,1,20.093-47.744A133.913,133.913,0,0,1,160.3,89.238a132.946,132.946,0,0,1,25.064-7.779,134.864,134.864,0,0,1,53.819,0,132.8,132.8,0,0,1,47.745,20.089A133.913,133.913,0,0,1,335.3,160.292a132.842,132.842,0,0,1,7.78,25.064,134.527,134.527,0,0,1,2.713,26.912c0,.3,0,.591,0,.888h78.748l0-.4c0-.163,0-.326,0-.488a213.836,213.836,0,0,0-4.313-42.78,211.115,211.115,0,0,0-31.941-75.9,212.888,212.888,0,0,0-93.394-76.9A211.221,211.221,0,0,0,255.051,4.313,213.871,213.871,0,0,0,212.272,0Z" transform="translate(945.001 6228.621)" fill="#3e2ea6" stroke="rgba(0,0,0,0)" stroke-miterlimit="10" stroke-width="1"/>
    <g id="Grupo_133655" data-name="Grupo 133655" transform="translate(732.993 5547.61)">
      <circle id="Elipse_4984" data-name="Elipse 4984" cx="98.175" cy="98.175" r="98.175" transform="translate(325.333 665.201)" fill="#dad6f7"/>
      <g id="Grupo_133628" data-name="Grupo 133628" transform="translate(326.45 647.602)">
        <g id="Grupo_133627" data-name="Grupo 133627" clip-path="url(#clip-path)">
          <g id="Grupo_136803" data-name="Grupo 136803" transform="translate(27.227 0)">
            <path id="Trazado_152453" data-name="Trazado 152453" d="M1001.677,457.913c-4.792.61-9.5,4.926-7.282,13.433s10.263,18.823,17.474,15.4-1.042-25.456-1.042-25.456S1008.712,457.018,1001.677,457.913Z" transform="translate(-993.828 -359.577)" fill="#ffbf88"/>
            <path id="Trazado_152454" data-name="Trazado 152454" d="M1003.956,467.869c-4.7,3.622,1.131,18.355,10.742,16.612s4.749-11.861,4.749-11.861S1012.052,461.635,1003.956,467.869Z" transform="translate(-996.898 -362.535)" fill="#fda06c"/>
            <path id="Trazado_152455" data-name="Trazado 152455" d="M1190.178,457.913c-7.036-.9-9.149,3.377-9.149,3.377s-8.255,22.033-1.043,25.456,15.252-6.893,17.474-15.4S1194.97,458.523,1190.178,457.913Z" transform="translate(-1060.215 -359.577)" fill="#ffbf88"/>
            <path id="Trazado_152456" data-name="Trazado 152456" d="M1189.386,467.869c-8.1-6.234-15.491,4.752-15.491,4.752s-4.861,10.117,4.749,11.861S1194.088,471.491,1189.386,467.869Z" transform="translate(-1058.634 -362.535)" fill="#fda06c"/>
            <path id="Trazado_152457" data-name="Trazado 152457" d="M1104.221,580.943c-8.439-9.863-5.6-24.192-5.6-24.192l-67.143,1.142s1.386,12.459-2.393,17.858-21.359,14.951-34.333,17.027c0,0,15.871,17.235,68.773,17.235s71.053-14.535,71.053-14.535S1112.66,590.806,1104.221,580.943Z" transform="translate(-994.161 -395.437)" fill="#ffbf88"/>
            <path id="Trazado_152458" data-name="Trazado 152458" d="M1074.045,339.426c-25.709-1.093-68.253,3.6-61.644,62.367l-.018-.252s.018.252.056.725c.4,5.147,3.028,36.484,8.179,54.66,5.624,19.846,36.555,27.193,52.623,28.165s38.162-11.313,46.2-48.706,4.62-77.65,4.62-77.65S1099.753,340.519,1074.045,339.426Z" transform="translate(-1000.309 -316.639)" fill="#ffbf88"/>
            <path id="Trazado_152459" data-name="Trazado 152459" d="M1050.153,427.026c-6.625-.418-19.571-6.032-20.837-4.226s10.8,8.9,17.235,10.678,9.779.861,10.895,1.375a5.237,5.237,0,0,0,3.445.794c1.217-.3,5.776-1.32,6.189-2.47s-.353-7.606-.353-7.606C1063.594,424.719,1056.778,427.443,1050.153,427.026Z" transform="translate(-1006.655 -346.768)" fill="#63392c"/>
            <path id="Trazado_152460" data-name="Trazado 152460" d="M1132.551,410.068c-6.645.608-9.453,2.651-10.678,2.563a5.234,5.234,0,0,0-3.5.474c-1.031.713-4.937,3.276-4.918,4.5s3.019,6.99,3.019,6.99c3.233-.31,8.646-5.266,14.991-7.217s20.441-1.274,20.985-3.411S1139.2,409.46,1132.551,410.068Z" transform="translate(-1037.176 -342.249)" fill="#63392c"/>
            <path id="Trazado_152461" data-name="Trazado 152461" d="M1119.375,396.214s.151,19.01,0,28.174-3.016,25.438-6.635,32.96-11.993,10.12-19.87,10.394-15.267-1.3-18.434-1.71a55.639,55.639,0,0,0-9.324.36,55.638,55.638,0,0,0-9.324-.36c-3.167.411-10.556,1.984-18.433,1.71s-16.251-2.873-19.87-10.394-6.484-23.8-6.635-32.96,0-28.174,0-28.174-12.667-4.24-10.706,4.687,4.373,24.171,6.2,41.4,3,35.988,4.444,45.7,14.68,26.663,25.652,30.492a226.479,226.479,0,0,0,24.342,7.092,19.813,19.813,0,0,0,4.212.451h.246a19.814,19.814,0,0,0,4.212-.451,249.2,249.2,0,0,0,25.6-7.092c10.973-3.83,22.951-20.782,24.392-30.492s2.621-28.468,4.444-45.7,4.236-32.476,6.2-41.4S1119.375,396.214,1119.375,396.214Z" transform="translate(-996.042 -336.899)" fill="#63392c"/>
            <path id="Trazado_152462" data-name="Trazado 152462" d="M1103.694,317.676c-11.084-4.252-40.746-13.914-40.746-13.914a50.717,50.717,0,0,1-18.745,14.88s3.77-5.089,2.563-8.567c0,0-10.406,7.214-18.85,11.208s-38.431,26.034-29.01,51.918c9.223,25.341,4.138,5.871,4.138,5.871l4.664,1.214,1.894-4.08s5.5-13.7,12.281-15.116,48.86-14.558,53.685-20.484c0,0,23.819,13.246,37,16.872a5.058,5.058,0,0,1,3.614,3.49,100.208,100.208,0,0,1,2.177,10.04c1.086,6.832,9.06,5.1,9.06,5.1s5-13.218,2.741-25.328S1114.778,321.927,1103.694,317.676Z" transform="translate(-995.012 -303.762)" fill="#63392c"/>
            <path id="Trazado_152463" data-name="Trazado 152463" d="M1104.528,512.394c-5.354-.253-17.945,0-17.945,0s-12.592-.253-17.946,0-8.822,4.03-8.822,6.257c0,4.014,9.651,13.147,15.306,13.526s9.048-1.321,11.462-1.132c2.412-.189,5.806,1.511,11.461,1.132s15.306-9.512,15.306-13.526C1113.35,516.424,1109.882,512.647,1104.528,512.394Z" transform="translate(-1017.74 -379.323)" fill="#ffbf88"/>
            <path id="Trazado_152464" data-name="Trazado 152464" d="M1106.018,489.789l-5.765,1.713a26.776,26.776,0,0,1-11.591.249l-5.639-1.372c-1.433-.286-3.6,4.014-2.437,4.725l13.345,3.414a1.691,1.691,0,0,0,1.759-.035l12.89-4.019C1109.693,493.706,1107.431,489.444,1106.018,489.789Z" transform="translate(-1025.148 -371.165)" fill="#f4996c"/>
            <path id="Trazado_152465" data-name="Trazado 152465" d="M1147.656,474.24c-6.154,1.779-10.069,6.941-8.743,11.529s7.39,6.866,13.545,5.087,10.069-6.94,8.743-11.528S1153.811,472.462,1147.656,474.24Z" transform="translate(-1046.309 -365.319)" fill="url(#radial-gradient)"/>
            <path id="Trazado_152466" data-name="Trazado 152466" d="M1047,474.985c-5.833-2.651-12.163-1.274-14.139,3.074s1.15,10.022,6.983,12.672S1052,492,1053.979,487.656,1052.828,477.635,1047,474.985Z" transform="translate(-1007.756 -365.319)" fill="url(#radial-gradient-2)"/>
            <path id="Trazado_152467" data-name="Trazado 152467" d="M1045.352,442.711c-6.73,1.3-9.816,8.4-9.816,8.4l1.881,1.1.682.023s24.76,3.307,25.2,2.807-.205-3.123-.205-3.123C1060.145,443.06,1052.633,441.307,1045.352,442.711Z" transform="translate(-1008.942 -353.956)" fill="#fda06c"/>
            <path id="Trazado_152468" data-name="Trazado 152468" d="M1051.708,444.237c-8.948-.358-12.376,6.709-13.222,8.678,7.227,10.786,22.578,5.427,25.881,3.039C1063.6,453.342,1061.934,444.646,1051.708,444.237Z" transform="translate(-1010.011 -354.661)" fill="#fff"/>
            <path id="Trazado_152469" data-name="Trazado 152469" d="M1055.877,448.271a5.994,5.994,0,1,0,5.994,5.994A5.993,5.993,0,0,0,1055.877,448.271Z" transform="translate(-1014.141 -356.128)" fill="#b27738"/>
            <path id="Trazado_152470" data-name="Trazado 152470" d="M1056.706,450.672a4.463,4.463,0,1,0,4.464,4.463A4.463,4.463,0,0,0,1056.706,450.672Z" transform="translate(-1014.996 -356.998)" fill="#442519"/>
            <path id="Trazado_152471" data-name="Trazado 152471" d="M1050.292,458.788a1.489,1.489,0,1,0,2.179.65A1.619,1.619,0,0,0,1050.292,458.788Z" transform="translate(-1013.887 -359.877)" fill="#fff"/>
            <path id="Trazado_152472" data-name="Trazado 152472" d="M1058.638,446.329c-4.339-2.927-6.483-2.408-9.647-2.2-2.79.181-7.574,2.026-10.863,8.558l.451.454s2.664-6.274,8.829-8.034,11.771,1.863,13.636,4.189a23.455,23.455,0,0,1,3.194,6.563S1063.634,449.7,1058.638,446.329Z" transform="translate(-1009.881 -354.564)" fill="#63392c"/>
            <path id="Trazado_152473" data-name="Trazado 152473" d="M1144.828,442.677c-7.3-1.408-14.834.35-17.791,9.232,0,0-.647,2.632-.205,3.133s25.27-2.816,25.27-2.816l.684-.023,1.887-1.1S1151.577,443.979,1144.828,442.677Z" transform="translate(-1041.969 -353.943)" fill="#fda06c"/>
            <path id="Trazado_152474" data-name="Trazado 152474" d="M1139.615,444.206c-10.254.411-11.926,9.131-12.695,11.75,3.312,2.395,18.706,7.769,25.954-3.047C1152.025,450.934,1148.588,443.847,1139.615,444.206Z" transform="translate(-1042.057 -354.65)" fill="#fff"/>
            <path id="Trazado_152475" data-name="Trazado 152475" d="M1142.209,444.1c-3.172-.206-5.323-.726-9.673,2.209-5.01,3.38-5.616,9.554-5.616,9.554a23.522,23.522,0,0,1,3.2-6.582c1.871-2.332,7.492-5.964,13.674-4.2s8.854,8.056,8.854,8.056l.452-.455C1149.8,446.127,1145.007,444.277,1142.209,444.1Z" transform="translate(-1042.057 -354.553)" fill="#63392c"/>
            <circle id="Elipse_5219" data-name="Elipse 5219" cx="6.01" cy="6.01" r="6.01" transform="matrix(0.062, -0.998, 0.998, 0.062, 91.806, 103.764)" fill="#b27738"/>
            <path id="Trazado_152476" data-name="Trazado 152476" d="M1145.218,450.654a4.476,4.476,0,1,0,4.475,4.476A4.476,4.476,0,0,0,1145.218,450.654Z" transform="translate(-1047.065 -356.991)" fill="#442519"/>
            <path id="Trazado_152477" data-name="Trazado 152477" d="M1138.786,458.793a1.493,1.493,0,1,0,2.185.652A1.624,1.624,0,0,0,1138.786,458.793Z" transform="translate(-1045.953 -359.879)" fill="#fff"/>
            <path id="Trazado_152478" data-name="Trazado 152478" d="M1058.817,337.034c-20.015,8.313-52.323,18.854-46.807,40.38,0,0-.06-14.252,26.053-22.565s50.068-23.01,39.036-40.38C1077.1,314.469,1078.832,328.721,1058.817,337.034Z" transform="translate(-1000.191 -307.642)" fill="#724336"/>
            <path id="Trazado_152479" data-name="Trazado 152479" d="M1018.708,359.221a54.369,54.369,0,0,1,23.535-14.747c15.235-4.849,25.741-13.559,27.317-17.122,0,0-12.292,9.5-26.792,13.856S1020.81,354.569,1018.708,359.221Z" transform="translate(-1002.844 -312.31)" fill="#724336"/>
            <path id="Trazado_152480" data-name="Trazado 152480" d="M1153.547,361.008a254.021,254.021,0,0,1-26-15.34s12.346,12.668,22.432,16.627,17.966,11.579,19.017,16.033C1168.992,378.328,1167.942,368.332,1153.547,361.008Z" transform="translate(-1042.282 -318.947)" fill="#724336"/>
            <path id="Trazado_152481" data-name="Trazado 152481" d="M1093.6,427.348c-.809.809,2.022,13.006,3.5,12.568S1094.324,426.619,1093.6,427.348Z" transform="translate(-1029.929 -348.535)" fill="#fda06c"/>
            <path id="Trazado_152482" data-name="Trazado 152482" d="M1108.789,427.786c-1.089-.2-2.28,9.636-1.337,10.04S1109.878,427.988,1108.789,427.786Z" transform="translate(-1034.878 -348.703)" fill="#fda06c"/>
            <path id="Trazado_152483" data-name="Trazado 152483" d="M1090.771,514.783c-9.265,0-17.286-2.2-17.286,9.7,0,9.123,8.355,5.331,17.012,4.763s20.574,3.8,20.8-4.763S1100.036,514.783,1090.771,514.783Z" transform="translate(-1022.693 -380.171)" fill="#963c3c"/>
            <path id="Trazado_152484" data-name="Trazado 152484" d="M1078.37,516.129c1.673,2.23,5.563,4.8,14.6,4.918,11.92.156,16.272-.265,17.682-2.284-3.829-3.4-11.532-3.979-18.116-3.979C1086.8,514.784,1081.544,513.944,1078.37,516.129Z" transform="translate(-1024.464 -380.172)" fill="#fff"/>
            <path id="Trazado_152485" data-name="Trazado 152485" d="M1073.375,493.436c-1.805,4.187-1.734,7.041-.949,6.93a36.359,36.359,0,0,1,1.639-6.762c1.234-3.506,3.4-4.687,3.143-5.08S1075.179,489.25,1073.375,493.436Z" transform="translate(-1022.119 -370.688)" fill="#fda06c"/>
            <path id="Trazado_152486" data-name="Trazado 152486" d="M1124.262,483.126c-.217.4,2.429,4.354,4.223,7.5s1.541,7.9,1.752,7.87.649-5.014-1.463-8.979A29.955,29.955,0,0,0,1124.262,483.126Z" transform="translate(-1041.089 -368.758)" fill="#fda06c"/>
          </g>
        </g>
      </g>
    </g>
  </g>
</svg>
