<svg xmlns="http://www.w3.org/2000/svg" xmlns:xlink="http://www.w3.org/1999/xlink" width="425.544" height="300.28" viewBox="0 0 425.544 300.28">
  <defs>
    <clipPath id="clip-path">
      <path id="Trazado_150627" data-name="Trazado 150627" d="M325.706,771.3c0,64,46.1,108.05,104.831,108.05s106.242-46.9,106.242-110.9S489.265,647.6,430.537,647.6,325.706,707.3,325.706,771.3Z" transform="translate(-325.706 -647.602)" fill="none"/>
    </clipPath>
    <radialGradient id="radial-gradient" cx="0.5" cy="0.5" r="0.587" gradientTransform="translate(0.109) scale(0.782 1)" gradientUnits="objectBoundingBox">
      <stop offset="0" stop-color="#fda06c"/>
      <stop offset="1" stop-color="#ffbf88"/>
    </radialGradient>
    <radialGradient id="radial-gradient-2" cx="0.5" cy="0.5" r="0.567" gradientTransform="translate(0.087) scale(0.827 1)" xlink:href="#radial-gradient"/>
  </defs>
  <g id="Grupo_137182" data-name="Grupo 137182" transform="translate(-944.501 -6914.497)">
    <path id="Trazado_153943" data-name="Trazado 153943" d="M-22.012-11.572h-4.268V0h-3.428V-11.572H-33.9v-2.646h11.885Zm7.051,3.984-1.084-.078a1.947,1.947,0,0,0-1.992.977V0h-3.291V-10.566h3.086l.107,1.357a2.548,2.548,0,0,1,2.314-1.553,3.209,3.209,0,0,1,.918.117ZM-8.115,0a3.716,3.716,0,0,1-.312-.947A3.06,3.06,0,0,1-10.967.2a3.749,3.749,0,0,1-2.539-.9,2.875,2.875,0,0,1-1.045-2.271,2.955,2.955,0,0,1,1.27-2.6A6.468,6.468,0,0,1-9.59-6.455h1.016v-.559q0-1.462-1.26-1.462a1.03,1.03,0,0,0-1.172,1.158H-14.3a2.95,2.95,0,0,1,1.3-2.487,5.479,5.479,0,0,1,3.325-.956,4.8,4.8,0,0,1,3.193.986,3.429,3.429,0,0,1,1.2,2.705v4.678A4.79,4.79,0,0,0-4.824-.166V0Zm-2.061-2.148a1.836,1.836,0,0,0,1.021-.264,1.653,1.653,0,0,0,.581-.6V-4.7h-.957q-1.719,0-1.719,1.543a.942.942,0,0,0,.3.728A1.1,1.1,0,0,0-10.176-2.148ZM-9.355-15h3.477l-2.715,3.066-2.686,0Zm5.518,9.639a7.134,7.134,0,0,1,.527-2.832,4.245,4.245,0,0,1,1.514-1.9A3.99,3.99,0,0,1,.5-10.762,3.173,3.173,0,0,1,3.076-9.648l.117-.918H6.182V-.4a4.455,4.455,0,0,1-.649,2.427,4.167,4.167,0,0,1-1.88,1.582A6.91,6.91,0,0,1,.8,4.16,5.961,5.961,0,0,1-1.45,3.721,4.063,4.063,0,0,1-3.115,2.578L-1.738.645A3.018,3.018,0,0,0,.684,1.729,1.96,1.96,0,0,0,2.871-.518V-.85A3.09,3.09,0,0,1,.479.2,3.819,3.819,0,0,1-2.646-1.284a6.13,6.13,0,0,1-1.191-3.96Zm3.3.205A3.759,3.759,0,0,0-.049-3.1a1.541,1.541,0,0,0,1.367.757,1.748,1.748,0,0,0,1.553-.713V-7.5a1.7,1.7,0,0,0-1.533-.723,1.551,1.551,0,0,0-1.377.786A4.287,4.287,0,0,0-.537-5.156ZM11.523,0h-3.3V-10.566h3.3Zm-3.5-13.3a1.482,1.482,0,0,1,.508-1.159,1.909,1.909,0,0,1,1.318-.452,1.909,1.909,0,0,1,1.318.452A1.482,1.482,0,0,1,11.68-13.3a1.482,1.482,0,0,1-.508,1.159,1.909,1.909,0,0,1-1.318.452,1.909,1.909,0,0,1-1.318-.452A1.482,1.482,0,0,1,8.027-13.3Zm9.99,10.957a1.464,1.464,0,0,0,1.074-.376,1.379,1.379,0,0,0,.371-1.05h3.086A3.653,3.653,0,0,1,21.3-.918,4.631,4.631,0,0,1,18.1.2,4.689,4.689,0,0,1,14.463-1.25a5.7,5.7,0,0,1-1.328-4v-.137a6.436,6.436,0,0,1,.591-2.827,4.3,4.3,0,0,1,1.7-1.885,5.081,5.081,0,0,1,2.637-.659,4.573,4.573,0,0,1,3.271,1.143,4.053,4.053,0,0,1,1.211,3.1H19.463a1.807,1.807,0,0,0-.4-1.26,1.382,1.382,0,0,0-1.074-.439q-1.279,0-1.494,1.631a11.508,11.508,0,0,0-.068,1.426,4.52,4.52,0,0,0,.381,2.207A1.319,1.319,0,0,0,18.018-2.344Zm5.508-3.037A6.236,6.236,0,0,1,24.141-8.2a4.4,4.4,0,0,1,1.768-1.9,5.323,5.323,0,0,1,2.705-.664,4.858,4.858,0,0,1,3.74,1.47,5.64,5.64,0,0,1,1.367,4v.117a5.472,5.472,0,0,1-1.372,3.921A4.871,4.871,0,0,1,28.633.2,4.927,4.927,0,0,1,25.01-1.157a5.29,5.29,0,0,1-1.475-3.667Zm3.291.205a3.932,3.932,0,0,0,.459,2.148,1.529,1.529,0,0,0,1.357.684q1.758,0,1.8-2.705v-.332q0-2.842-1.816-2.842-1.65,0-1.787,2.451Z" transform="translate(1157.001 6929.497)" fill="#12263f"/>
    <path id="Sustracción_7" data-name="Sustracción 7" d="M212.272,0a213.88,213.88,0,0,0-42.78,4.313,211.117,211.117,0,0,0-75.9,31.938,212.875,212.875,0,0,0-76.907,93.392A211.168,211.168,0,0,0,4.313,169.488,213.841,213.841,0,0,0,0,212.269c0,.294,0,.595,0,.888H78.747c0-.267,0-.549,0-.888a134.507,134.507,0,0,1,2.713-26.912,132.764,132.764,0,0,1,20.093-47.744A133.913,133.913,0,0,1,160.3,89.238a132.946,132.946,0,0,1,25.064-7.779,134.864,134.864,0,0,1,53.819,0,132.8,132.8,0,0,1,47.745,20.089A133.913,133.913,0,0,1,335.3,160.292a132.842,132.842,0,0,1,7.78,25.064,134.527,134.527,0,0,1,2.713,26.912c0,.3,0,.591,0,.888h78.748l0-.4c0-.163,0-.326,0-.488a213.836,213.836,0,0,0-4.313-42.78,211.115,211.115,0,0,0-31.941-75.9,212.888,212.888,0,0,0-93.394-76.9A211.221,211.221,0,0,0,255.051,4.313,213.871,213.871,0,0,0,212.272,0Z" transform="translate(945.001 7001.121)" fill="#3e2ea6" stroke="rgba(0,0,0,0)" stroke-miterlimit="10" stroke-width="1"/>
    <g id="Grupo_133660" data-name="Grupo 133660" transform="translate(716.661 6325.003)">
      <circle id="Elipse_4984" data-name="Elipse 4984" cx="106.34" cy="106.34" r="106.34" transform="translate(325.333 666.665)" fill="#dad6f7"/>
      <g id="Grupo_133628" data-name="Grupo 133628" transform="translate(326.543 647.602)">
        <g id="Grupo_133627" data-name="Grupo 133627" clip-path="url(#clip-path)">
          <g id="Grupo_136805" data-name="Grupo 136805" transform="translate(34.394 14.304)">
            <path id="Trazado_152522" data-name="Trazado 152522" d="M290.627,457.915c-4.856.618-9.631,4.991-7.38,13.612s10.4,19.074,17.708,15.606-1.057-25.8-1.057-25.8S297.757,457.007,290.627,457.915Z" transform="translate(-282.674 -358.266)" fill="#ffbf88"/>
            <path id="Trazado_152523" data-name="Trazado 152523" d="M292.825,467.895c-4.765,3.67,1.146,18.6,10.885,16.834s4.812-12.019,4.812-12.019S301.028,461.577,292.825,467.895Z" transform="translate(-285.671 -361.155)" fill="#fda06c"/>
            <path id="Trazado_152524" data-name="Trazado 152524" d="M479.2,457.915c-7.129-.907-9.271,3.422-9.271,3.422s-8.364,22.327-1.056,25.8,15.456-6.985,17.707-15.606S484.055,458.533,479.2,457.915Z" transform="translate(-347.502 -358.266)" fill="#ffbf88"/>
            <path id="Trazado_152525" data-name="Trazado 152525" d="M478.455,467.895c-8.2-6.317-15.7,4.815-15.7,4.815s-4.927,10.252,4.812,12.019S483.22,471.565,478.455,467.895Z" transform="translate(-345.957 -361.155)" fill="#fda06c"/>
            <path id="Trazado_152526" data-name="Trazado 152526" d="M394.527,581.266c-8.552-10-5.68-24.515-5.68-24.515l-68.038,1.157s1.4,12.626-2.425,18.1-21.645,15.151-34.792,17.255c0,0,16.083,17.465,69.691,17.465s72-14.729,72-14.729S403.079,591.261,394.527,581.266Z" transform="translate(-282.999 -393.284)" fill="#ffbf88"/>
            <path id="Trazado_152527" data-name="Trazado 152527" d="M363.722,339.428c-26.052-1.108-69.164,3.649-62.466,63.2l-.018-.255s.018.255.056.735c.411,5.216,3.069,36.971,8.288,55.389,5.7,20.111,37.043,27.556,53.326,28.541s38.672-11.464,46.812-49.356,4.682-78.686,4.682-78.686S389.774,340.535,363.722,339.428Z" transform="translate(-289.003 -316.337)" fill="#ffbf88"/>
            <path id="Trazado_152528" data-name="Trazado 152528" d="M345.2,408.727c-1.27-.031-2.242.792-3.231,1.547s-4.5.587-10.47,3.768S315.166,426.9,316.816,428.41s13.213-6.906,19.673-8.783,13.8-.689,16.712-2.226c0,0-.668-6.554-1.332-7.6S346.473,408.758,345.2,408.727Z" transform="translate(-294.693 -340.904)" fill="#63392c"/>
            <path id="Trazado_152529" data-name="Trazado 152529" d="M432.336,414.265c-5.576-3.825-9.087-4.048-9.987-4.909s-1.773-1.787-3.039-1.9-5.97-.638-6.746.326-2.168,7.4-2.168,7.4c2.722,1.851,10.15,1.487,16.361,4.071s16.767,12.232,18.574,10.917S437.911,418.09,432.336,414.265Z" transform="translate(-327.87 -340.37)" fill="#63392c"/>
            <path id="Trazado_152530" data-name="Trazado 152530" d="M409.815,396.228s.152,19.264,0,28.55-3.056,25.778-6.724,33.4-12.153,10.256-20.136,10.533-15.471-1.317-18.679-1.733a56.382,56.382,0,0,0-9.449.364,56.386,56.386,0,0,0-9.449-.364c-3.209.416-10.7,2.01-18.68,1.733s-16.468-2.911-20.135-10.533-6.571-24.115-6.724-33.4,0-28.55,0-28.55-12.837-4.3-10.85,4.749,4.432,24.493,6.279,41.954,3.043,36.468,4.5,46.308,14.875,27.018,25.995,30.9a229.521,229.521,0,0,0,24.667,7.187,20.085,20.085,0,0,0,4.268.457h.249a20.091,20.091,0,0,0,4.269-.457,252.549,252.549,0,0,0,25.945-7.187c11.119-3.881,23.257-21.06,24.717-30.9s2.656-28.848,4.5-46.308,4.292-32.909,6.279-41.954S409.815,396.228,409.815,396.228Z" transform="translate(-284.835 -336.121)" fill="#63392c"/>
            <path id="Trazado_152531" data-name="Trazado 152531" d="M393.962,317.861c-11.231-4.308-41.289-14.1-41.289-14.1a51.4,51.4,0,0,1-19,15.078s3.821-5.157,2.6-8.682c0,0-10.544,7.31-19.1,11.357s-38.943,26.381-29.4,52.611c9.346,25.68,4.193,5.95,4.193,5.95l4.727,1.23,1.918-4.134s5.569-13.882,12.446-15.317,49.512-14.752,54.4-20.757c0,0,24.137,13.423,37.492,17.1a5.127,5.127,0,0,1,3.662,3.537,101.587,101.587,0,0,1,2.207,10.173c1.1,6.923,9.18,5.172,9.18,5.172s5.07-13.395,2.778-25.666S405.194,322.169,393.962,317.861Z" transform="translate(-283.83 -303.762)" fill="#63392c"/>
            <path id="Trazado_152532" data-name="Trazado 152532" d="M393.97,512.426c-5.425-.325-18.185,0-18.185,0s-12.76-.325-18.184,0-8.94,5.183-8.94,8.047c0,5.161,9.78,16.907,15.511,17.395s9.169-1.7,11.614-1.456c2.446-.244,5.884,1.943,11.614,1.456s15.511-12.233,15.511-17.395C402.91,517.609,399.4,512.751,393.97,512.426Z" transform="translate(-306.024 -377.548)" fill="#ffbf88"/>
            <path id="Trazado_152533" data-name="Trazado 152533" d="M395.208,487.985l-5.842,1.736a27.136,27.136,0,0,1-11.746.252l-5.713-1.39c-1.453-.29-3.645,4.068-2.47,4.788l13.523,3.459a1.713,1.713,0,0,0,1.783-.036l13.062-4.073C398.931,491.954,396.639,487.635,395.208,487.985Z" transform="translate(-313.258 -368.944)" fill="#f4996c"/>
            <path id="Trazado_152534" data-name="Trazado 152534" d="M436.622,474.248c-6.237,1.8-10.2,7.033-8.859,11.683s7.489,6.958,13.725,5.155,10.2-7.033,8.86-11.682S442.859,472.446,436.622,474.248Z" transform="translate(-333.923 -363.873)" fill="url(#radial-gradient)"/>
            <path id="Trazado_152535" data-name="Trazado 152535" d="M336.038,475c-5.91-2.686-12.325-1.291-14.328,3.115s1.166,10.156,7.077,12.841,12.325,1.291,14.328-3.116S341.948,477.688,336.038,475Z" transform="translate(-296.275 -363.873)" fill="url(#radial-gradient-2)"/>
            <path id="Trazado_152536" data-name="Trazado 152536" d="M334.328,442.717c-6.819,1.316-9.947,8.514-9.947,8.514l1.907,1.112.691.023s25.09,3.352,25.535,2.845-.207-3.165-.207-3.165C349.319,443.071,341.706,441.294,334.328,442.717Z" transform="translate(-297.433 -352.778)" fill="#fda06c"/>
            <path id="Trazado_152537" data-name="Trazado 152537" d="M340.73,444.237c-9.068-.362-12.541,6.8-13.4,8.794,7.323,10.93,22.879,5.5,26.226,3.079C352.781,453.464,351.092,444.652,340.73,444.237Z" transform="translate(-298.477 -353.465)" fill="#fff"/>
            <path id="Trazado_152538" data-name="Trazado 152538" d="M347.757,446.361c-4.4-2.966-6.57-2.44-9.775-2.232-2.827.184-7.676,2.053-11.008,8.673l.457.46s2.7-6.358,8.947-8.141,11.928,1.888,13.818,4.245a23.756,23.756,0,0,1,3.236,6.651S352.82,449.776,347.757,446.361Z" transform="translate(-298.35 -353.371)" fill="#63392c"/>
            <path id="Trazado_152539" data-name="Trazado 152539" d="M433.916,442.683c-7.4-1.427-15.032.355-18.028,9.355,0,0-.655,2.667-.209,3.174s25.607-2.853,25.607-2.853l.693-.023,1.912-1.115S440.755,444,433.916,442.683Z" transform="translate(-329.684 -352.765)" fill="#fda06c"/>
            <path id="Trazado_152540" data-name="Trazado 152540" d="M428.63,444.206c-10.391.416-12.085,9.253-12.865,11.907,3.357,2.427,18.956,7.873,26.3-3.088C441.206,451.024,437.723,443.843,428.63,444.206Z" transform="translate(-329.77 -353.455)" fill="#fff"/>
            <path id="Trazado_152541" data-name="Trazado 152541" d="M431.258,444.1c-3.214-.209-5.393-.736-9.8,2.238-5.077,3.425-5.691,9.682-5.691,9.682a23.827,23.827,0,0,1,3.246-6.669c1.9-2.364,7.592-6.043,13.857-4.256s8.972,8.163,8.972,8.163l.458-.461C438.955,446.157,434.093,444.282,431.258,444.1Z" transform="translate(-329.77 -353.36)" fill="#63392c"/>
            <path id="Trazado_152542" data-name="Trazado 152542" d="M434.325,450.158a4.662,4.662,0,1,0,4.661,4.661A4.662,4.662,0,0,0,434.325,450.158Z" transform="translate(-334.688 -355.565)" fill="#b27738"/>
            <path id="Trazado_152543" data-name="Trazado 152543" d="M435.634,453.946a2.214,2.214,0,1,0,2.214,2.214A2.214,2.214,0,0,0,435.634,453.946Z" transform="translate(-336.017 -356.906)" fill="#442519"/>
            <path id="Trazado_152544" data-name="Trazado 152544" d="M429.988,458.231a1.158,1.158,0,1,0,1.695.506A1.259,1.259,0,0,0,429.988,458.231Z" transform="translate(-334.497 -358.376)" fill="#fff"/>
            <path id="Trazado_152545" data-name="Trazado 152545" d="M345.765,450.358a4.662,4.662,0,1,0,4.661,4.662A4.662,4.662,0,0,0,345.765,450.358Z" transform="translate(-303.35 -355.636)" fill="#b27738"/>
            <circle id="Elipse_5220" data-name="Elipse 5220" cx="2.14" cy="2.14" r="2.14" transform="translate(40.254 97.243)" fill="#442519"/>
            <path id="Trazado_152546" data-name="Trazado 152546" d="M341.428,458.432a1.158,1.158,0,1,0,1.694.505A1.259,1.259,0,0,0,341.428,458.432Z" transform="translate(-303.159 -358.447)" fill="#fff"/>
            <path id="Trazado_152547" data-name="Trazado 152547" d="M348.3,337.335c-20.282,8.424-53.022,19.106-47.432,40.919,0,0-.061-14.442,26.4-22.866S378,332.07,366.821,314.469C366.821,314.469,368.578,328.911,348.3,337.335Z" transform="translate(-288.887 -307.551)" fill="#724336"/>
            <path id="Trazado_152548" data-name="Trazado 152548" d="M307.554,359.646A55.094,55.094,0,0,1,331.4,344.7c15.438-4.914,26.085-13.74,27.682-17.35,0,0-12.457,9.628-27.15,14.041S309.684,354.932,307.554,359.646Z" transform="translate(-291.478 -312.109)" fill="#724336"/>
            <path id="Trazado_152549" data-name="Trazado 152549" d="M442.74,361.213a257.388,257.388,0,0,1-26.351-15.545S428.9,358.5,439.12,362.517s18.206,11.734,19.271,16.247C458.391,378.764,457.326,368.634,442.74,361.213Z" transform="translate(-329.99 -318.591)" fill="#724336"/>
            <path id="Trazado_152550" data-name="Trazado 152550" d="M364.174,517.719c-2.033.254-4.2,9.523-.457,13.858s31.176,3.875,33.4,1.9,4.629-14.842,2.015-16.747S371.543,516.8,364.174,517.719Z" transform="translate(-310.63 -378.84)" fill="#963c3c"/>
            <path id="Trazado_152551" data-name="Trazado 152551" d="M400.313,516.793c-2.615-2.046-27.584.07-34.954,1.058a.839.839,0,0,0-.331.133c.372,1.755-.27,4.583,2.625,4.24,4.161-.494,22.64-1.9,25.814-1.41,2.537.395,6.4-.222,7.621-2.674A2.628,2.628,0,0,0,400.313,516.793Z" transform="translate(-311.816 -378.84)" fill="#fff"/>
          </g>
        </g>
      </g>
    </g>
  </g>
</svg>
