<svg xmlns="http://www.w3.org/2000/svg" width="130" height="130" viewBox="0 0 130 130">
  <g id="Grupo_137183" data-name="Grupo 137183" transform="translate(5640 6133.604)">
    <g id="Elipse_5254" data-name="Elipse 5254" transform="translate(-5640 -6133.604)" fill="#fff" stroke="#3e33a3" stroke-width="8">
      <circle cx="65" cy="65" r="65" stroke="none"/>
      <circle cx="65" cy="65" r="61" fill="none"/>
    </g>
    <g id="Grupo_137179" data-name="Grupo 137179" transform="translate(-7030.202 -6160.023)">
      <g id="Grupo_136875" data-name="Grupo 136875" transform="translate(1416.518 82.41)">
        <path id="Trazado_153006" data-name="Trazado 153006" d="M1476.309,639.087H1421.5a4.988,4.988,0,0,1-4.982-4.982V602.5a4.987,4.987,0,0,1,4.982-4.981h54.809a4.986,4.986,0,0,1,4.981,4.981v31.606A4.987,4.987,0,0,1,1476.309,639.087Zm-54.809-39.9a3.314,3.314,0,0,0-3.311,3.31v31.606a3.315,3.315,0,0,0,3.311,3.311h54.809a3.314,3.314,0,0,0,3.31-3.311V602.5a3.314,3.314,0,0,0-3.31-3.31Z" transform="translate(-1416.518 -597.518)" fill="#3e2ea6"/>
        <path id="Trazado_153007" data-name="Trazado 153007" d="M1541.895,687.71h-56.316V657.7h56.316Zm-54.645-1.671h52.975V659.376H1487.25Z" transform="translate(-1481.351 -654.02)" fill="#3e2ea6"/>
        <rect id="Rectángulo_35770" data-name="Rectángulo 35770" width="2.013" height="1.671" transform="translate(31.38 36.025)" fill="#3e2ea6"/>
        <path id="Trazado_153008" data-name="Trazado 153008" d="M1819.5,1260.941h-17.584l3-11.711H1816.5Zm-15.432-1.671h13.28l-2.145-8.37h-8.991Z" transform="translate(-1778.321 -1209.332)" fill="#3e2ea6"/>
        <rect id="Rectángulo_35771" data-name="Rectángulo 35771" width="26.462" height="1.671" transform="translate(19.155 49.939)" fill="#3e2ea6"/>
      </g>
      <path id="Trazado_153009" data-name="Trazado 153009" d="M2289.1,108.215h-1.67V56.581a7.763,7.763,0,0,1,15.527,0v48.172h-1.671V56.581a6.093,6.093,0,0,0-12.186,0Z" transform="translate(-817.595)" fill="#3e2ea6"/>
      <g id="Grupo_136876" data-name="Grupo 136876" transform="translate(1483.696 73.235)">
        <path id="Trazado_153010" data-name="Trazado 153010" d="M2534.4,504.2a6.928,6.928,0,0,0,6.928-6.928V461.306H2527.47v35.962A6.928,6.928,0,0,0,2534.4,504.2Z" transform="translate(-2526.635 -460.47)" fill="#fff"/>
        <path id="Trazado_153011" data-name="Trazado 153011" d="M2521.589,492.219a7.772,7.772,0,0,1-7.763-7.764v-36.8h15.527v36.8A7.773,7.773,0,0,1,2521.589,492.219Zm-6.093-42.89v35.126a6.093,6.093,0,1,0,12.187,0V449.329Z" transform="translate(-2513.826 -447.658)" fill="#3e2ea6"/>
      </g>
      <rect id="Rectángulo_35772" data-name="Rectángulo 35772" width="11.866" height="1.671" transform="translate(1479.593 116.126)" fill="#3e2ea6"/>
      <g id="Grupo_136877" data-name="Grupo 136877" transform="translate(1445.755 48.818)">
        <path id="Trazado_153012" data-name="Trazado 153012" d="M1907.719,121.023V69.39a6.923,6.923,0,0,1,6.928-6.928h24.081a6.93,6.93,0,0,0-6.928,6.928v48.172" transform="translate(-1906.884 -61.627)" fill="#fff"/>
        <path id="Trazado_153013" data-name="Trazado 153013" d="M1895.75,108.215h-1.671V56.581a7.772,7.772,0,0,1,7.763-7.763h24.081v1.671a6.1,6.1,0,0,0-6.093,6.093v48.172h-1.671V56.581a7.752,7.752,0,0,1,2.957-6.093h-19.275a6.1,6.1,0,0,0-6.093,6.093Z" transform="translate(-1894.08 -48.818)" fill="#3e2ea6"/>
      </g>
      <g id="Grupo_136883" data-name="Grupo 136883" transform="translate(1451.878 57.561)">
        <g id="Grupo_136878" data-name="Grupo 136878" transform="translate(0 0)">
          <line id="Línea_214" data-name="Línea 214" x2="13.513" transform="translate(0 0.835)" fill="#3e2ea6"/>
          <rect id="Rectángulo_35773" data-name="Rectángulo 35773" width="13.513" height="1.671" fill="#3e2ea6"/>
        </g>
        <g id="Grupo_136879" data-name="Grupo 136879" transform="translate(0 5.939)">
          <line id="Línea_215" data-name="Línea 215" x2="13.513" transform="translate(0 0.835)" fill="#3e2ea6"/>
          <rect id="Rectángulo_35774" data-name="Rectángulo 35774" width="13.513" height="1.671" fill="#3e2ea6"/>
        </g>
        <g id="Grupo_136880" data-name="Grupo 136880" transform="translate(0 11.877)">
          <line id="Línea_216" data-name="Línea 216" x2="13.513" transform="translate(0 0.835)" fill="#3e2ea6"/>
          <rect id="Rectángulo_35775" data-name="Rectángulo 35775" width="13.513" height="1.671" fill="#3e2ea6"/>
        </g>
        <g id="Grupo_136881" data-name="Grupo 136881" transform="translate(0 17.816)">
          <line id="Línea_217" data-name="Línea 217" x2="13.513" transform="translate(0 0.836)" fill="#3e2ea6"/>
          <rect id="Rectángulo_35776" data-name="Rectángulo 35776" width="13.513" height="1.671" fill="#3e2ea6"/>
        </g>
        <g id="Grupo_136882" data-name="Grupo 136882" transform="translate(0 23.754)">
          <line id="Línea_218" data-name="Línea 218" x2="13.513" transform="translate(0 0.836)" fill="#3e2ea6"/>
          <rect id="Rectángulo_35777" data-name="Rectángulo 35777" width="13.513" height="1.671" fill="#3e2ea6"/>
        </g>
      </g>
      <rect id="Rectángulo_35778" data-name="Rectángulo 35778" width="13.82" height="1.671" transform="translate(1439.981 107.38)" fill="#3e2ea6"/>
      <rect id="Rectángulo_35779" data-name="Rectángulo 35779" width="10.836" height="1.671" transform="translate(1465.39 107.38)" fill="#3e2ea6"/>
    </g>
  </g>
</svg>
