<svg xmlns="http://www.w3.org/2000/svg" width="130" height="130" viewBox="0 0 130 130">
  <g id="Grupo_137184" data-name="Grupo 137184" transform="translate(5640 5972.604)">
    <g id="Elipse_5255" data-name="Elipse 5255" transform="translate(-5640 -5972.604)" fill="#fff" stroke="#3e33a3" stroke-width="8">
      <circle cx="65" cy="65" r="65" stroke="none"/>
      <circle cx="65" cy="65" r="61" fill="none"/>
    </g>
    <g id="Grupo_137180" data-name="Grupo 137180" transform="translate(-8777.035 -6122.491)">
      <g id="Grupo_136885" data-name="Grupo 136885" transform="translate(3164.514 173.312)">
        <path id="Trazado_153014" data-name="Trazado 153014" d="M3189.435,262.866l52.425-9.066-11.62-67.185-52.425,9.067Z" transform="translate(-3176.907 -185.706)" fill="#fff"/>
        <path id="Trazado_153015" data-name="Trazado 153015" d="M3176.4,251.38l-11.888-68.733,53.974-9.335,11.888,68.734Zm-10.07-67.452,11.352,65.635,50.875-8.8-11.352-65.635Z" transform="translate(-3164.514 -173.312)" fill="#3e2ea6"/>
      </g>
      <g id="Grupo_136886" data-name="Grupo 136886" transform="translate(3173.386 174.4)">
        <path id="Trazado_153016" data-name="Trazado 153016" d="M3307.192,269.732,3360,276.2l8.285-67.677-52.808-6.465Z" transform="translate(-3306.316 -201.181)" fill="#fff"/>
        <path id="Trazado_153017" data-name="Trazado 153017" d="M3348.747,265.136l-54.369-6.657.1-.78,8.38-68.456,54.369,6.655-.1.78Zm-52.617-8.026,51.248,6.275,8.094-66.117-51.248-6.273Z" transform="translate(-3294.378 -189.243)" fill="#3e2ea6"/>
      </g>
      <g id="Grupo_136887" data-name="Grupo 136887" transform="translate(3208.55 187.449)">
        <line id="Línea_219" data-name="Línea 219" x2="17.386" y2="2.128" transform="translate(0.095 0.779)" fill="#3e2ea6"/>
        <rect id="Rectángulo_35780" data-name="Rectángulo 35780" width="1.571" height="17.516" transform="translate(0 1.56) rotate(-83.021)" fill="#3e2ea6"/>
      </g>
      <g id="Grupo_136888" data-name="Grupo 136888" transform="translate(3207.59 195.288)">
        <line id="Línea_220" data-name="Línea 220" x2="17.386" y2="2.127" transform="translate(0.095 0.78)" fill="#3e2ea6"/>
        <rect id="Rectángulo_35781" data-name="Rectángulo 35781" width="1.571" height="17.516" transform="translate(0 1.56) rotate(-83.023)" fill="#3e2ea6"/>
      </g>
      <g id="Grupo_136889" data-name="Grupo 136889" transform="translate(3206.63 203.126)">
        <line id="Línea_221" data-name="Línea 221" x2="17.386" y2="2.13" transform="translate(0.095 0.78)" fill="#3e2ea6"/>
        <rect id="Rectángulo_35782" data-name="Rectángulo 35782" width="1.571" height="17.516" transform="matrix(0.122, -0.993, 0.993, 0.122, 0, 1.56)" fill="#3e2ea6"/>
      </g>
      <g id="Grupo_136890" data-name="Grupo 136890" transform="translate(3188.462 208.936)">
        <line id="Línea_222" data-name="Línea 222" x2="33.901" y2="4.15" transform="translate(0.789 0.787)" fill="#3e2ea6"/>
        <path id="Trazado_153018" data-name="Trazado 153018" d="M3548.507,700.343a.788.788,0,0,1-.684-.88h0a.8.8,0,0,1,.88-.684h0a.8.8,0,0,1,.684.88h0a.794.794,0,0,1-.778.692h0C3548.578,700.35,3548.547,700.343,3548.507,700.343Zm-2.342-.291a.785.785,0,0,1-.683-.872h0a.786.786,0,0,1,.879-.684h0a.783.783,0,0,1,.684.872h0a.78.78,0,0,1-.778.692h0A.505.505,0,0,1,3546.165,700.052Zm-2.334-.282a.785.785,0,0,1-.684-.873h0a.776.776,0,0,1,.873-.684h0a.776.776,0,0,1,.684.873h0a.782.782,0,0,1-.778.692h0C3543.894,699.777,3543.862,699.769,3543.831,699.769Zm-2.342-.283a.787.787,0,0,1-.684-.88h0a.784.784,0,0,1,.872-.684h0a.784.784,0,0,1,.684.873h0a.782.782,0,0,1-.778.692h-.093Zm-2.343-.291a.785.785,0,0,1-.684-.873h0a.789.789,0,0,1,.88-.684h0a.788.788,0,0,1,.684.873h0a.794.794,0,0,1-.778.692h0A.461.461,0,0,1,3539.146,699.2Zm-2.342-.283a.8.8,0,0,1-.684-.88h0a.786.786,0,0,1,.88-.683h0a.789.789,0,0,1,.683.872h0a.781.781,0,0,1-.778.692h-.1Zm-2.335-.291a.787.787,0,0,1-.692-.872h0a.788.788,0,0,1,.88-.684h0a.776.776,0,0,1,.684.873h0a.782.782,0,0,1-.778.692h0A.359.359,0,0,1,3534.47,698.621Zm-2.342-.282a.788.788,0,0,1-.684-.88h0a.78.78,0,0,1,.873-.684h0a.787.787,0,0,1,.683.88h0a.781.781,0,0,1-.777.684h-.094Zm-2.343-.291a.776.776,0,0,1-.684-.873h0a.785.785,0,0,1,.873-.684h0a.792.792,0,0,1,.691.873h0a.8.8,0,0,1-.786.692h0A.393.393,0,0,1,3529.786,698.048Zm-2.342-.283a.793.793,0,0,1-.684-.88h0a.8.8,0,0,1,.88-.683h0a.793.793,0,0,1,.684.88h0a.794.794,0,0,1-.778.684h-.1Zm-2.342-.291a.786.786,0,0,1-.684-.872h0a.788.788,0,0,1,.88-.684h0a.78.78,0,0,1,.684.873h0a.789.789,0,0,1-.786.692h0A.355.355,0,0,1,3525.1,697.474Zm-2.334-.282a.785.785,0,0,1-.684-.873h0a.787.787,0,0,1,.873-.692h0a.788.788,0,0,1,.684.88h0a.788.788,0,0,1-.778.692h0C3522.83,697.2,3522.8,697.191,3522.767,697.191Zm-2.343-.283a.787.787,0,0,1-.683-.88h0a.784.784,0,0,1,.872-.684h0a.785.785,0,0,1,.684.873h0a.782.782,0,0,1-.778.692h-.094Zm-2.342-.291a.784.784,0,0,1-.684-.872h0a.8.8,0,0,1,.873-.692h0a.8.8,0,0,1,.692.88h0a.8.8,0,0,1-.786.692h0A.357.357,0,0,1,3518.083,696.617Zm-2.343-.282a.8.8,0,0,1-.684-.88h0a.788.788,0,0,1,.881-.684h0a.793.793,0,0,1,.684.88h0a.781.781,0,0,1-.778.684h-.1Z" transform="translate(-3515.052 -694.764)" fill="#3e2ea6"/>
      </g>
      <g id="Grupo_136891" data-name="Grupo 136891" transform="translate(3187.502 216.774)">
        <line id="Línea_223" data-name="Línea 223" x2="33.902" y2="4.15" transform="translate(0.789 0.789)" fill="#3e2ea6"/>
        <path id="Trazado_153019" data-name="Trazado 153019" d="M3534.455,815.063a.775.775,0,0,1-.684-.872h0a.783.783,0,0,1,.872-.684h0a.787.787,0,0,1,.692.872h0a.8.8,0,0,1-.786.692h0A.357.357,0,0,1,3534.455,815.063Zm-2.335-.282a.8.8,0,0,1-.692-.88h0a.8.8,0,0,1,.88-.684h0a.788.788,0,0,1,.684.88h0a.788.788,0,0,1-.778.692h0C3532.184,814.788,3532.152,814.78,3532.121,814.78Zm-2.342-.291a.788.788,0,0,1-.692-.873h0a.788.788,0,0,1,.88-.684h0a.784.784,0,0,1,.683.873h0a.781.781,0,0,1-.778.692h0A.39.39,0,0,1,3529.779,814.489Zm-2.343-.283a.785.785,0,0,1-.684-.872h0a.792.792,0,0,1,.873-.692h0a.788.788,0,0,1,.684.88h0a.788.788,0,0,1-.778.691h0A.4.4,0,0,1,3527.436,814.206Zm-2.342-.291a.775.775,0,0,1-.684-.872h0a.784.784,0,0,1,.873-.684h0a.791.791,0,0,1,.692.872h0a.8.8,0,0,1-.786.692h0A.361.361,0,0,1,3525.094,813.915Zm-2.342-.282a.8.8,0,0,1-.684-.873h0a.788.788,0,0,1,.88-.684h0a.782.782,0,0,1,.684.873h0a.782.782,0,0,1-.778.692h0A.491.491,0,0,1,3522.752,813.633Zm-2.342-.283a.8.8,0,0,1-.684-.88h0a.788.788,0,0,1,.88-.684h0a.788.788,0,0,1,.684.88h0a.782.782,0,0,1-.778.684h-.1Zm-2.335-.291a.784.784,0,0,1-.683-.873h0a.775.775,0,0,1,.872-.683h0a.775.775,0,0,1,.684.872h0a.782.782,0,0,1-.778.692h0A.4.4,0,0,1,3518.075,813.059Zm-2.342-.283a.787.787,0,0,1-.684-.88h0a.79.79,0,0,1,.873-.684h0a.784.784,0,0,1,.684.872h0a.781.781,0,0,1-.778.692h-.094Zm-2.342-.29a.78.78,0,0,1-.683-.873h0a.784.784,0,0,1,.872-.684h0a.788.788,0,0,1,.692.873h0a.793.793,0,0,1-.778.692h0A.461.461,0,0,1,3513.391,812.485Zm-2.342-.283a.793.793,0,0,1-.684-.88h0a.794.794,0,0,1,.88-.684h0a.788.788,0,0,1,.684.88h0a.788.788,0,0,1-.778.684h-.1Zm-2.334-.291a.78.78,0,0,1-.684-.873h0a.775.775,0,0,1,.872-.683h0a.779.779,0,0,1,.684.872h0a.781.781,0,0,1-.777.692h0A.4.4,0,0,1,3508.715,811.911Zm-2.342-.283a.787.787,0,0,1-.684-.88h0a.792.792,0,0,1,.873-.684h0a.788.788,0,0,1,.684.88h0a.788.788,0,0,1-.778.691h0C3506.436,811.636,3506.4,811.628,3506.373,811.628Zm-2.342-.29a.776.776,0,0,1-.684-.873h0a.784.784,0,0,1,.872-.684h0a.784.784,0,0,1,.684.873h0a.782.782,0,0,1-.778.691h0A.393.393,0,0,1,3504.031,811.338Zm-2.335-.283a.794.794,0,0,1-.691-.88h0a.8.8,0,0,1,.88-.684h0a.8.8,0,0,1,.684.88h0a.782.782,0,0,1-.778.692h0C3501.759,811.062,3501.727,811.055,3501.7,811.055Z" transform="translate(-3500.998 -809.486)" fill="#3e2ea6"/>
      </g>
      <g id="Grupo_136892" data-name="Grupo 136892" transform="translate(3186.543 224.617)">
        <line id="Línea_224" data-name="Línea 224" x2="33.901" y2="4.15" transform="translate(0.789 0.785)" fill="#3e2ea6"/>
        <path id="Trazado_153020" data-name="Trazado 153020" d="M3520.418,929.859a.789.789,0,0,1-.684-.88h0a.788.788,0,0,1,.88-.684h0a.8.8,0,0,1,.684.873h0a.8.8,0,0,1-.786.692h-.094Zm-2.342-.291a.79.79,0,0,1-.684-.873h0a.788.788,0,0,1,.88-.684h0a.782.782,0,0,1,.684.873h0a.782.782,0,0,1-.778.692h0A.488.488,0,0,1,3518.077,929.568Zm-2.343-.283a.8.8,0,0,1-.684-.88h0a.787.787,0,0,1,.88-.683h0a.792.792,0,0,1,.684.88h0a.781.781,0,0,1-.778.684h-.1Zm-2.334-.291a.775.775,0,0,1-.684-.872h0a.777.777,0,0,1,.873-.684h0a.776.776,0,0,1,.684.873h0a.782.782,0,0,1-.778.692h0A.363.363,0,0,1,3513.4,928.994Zm-2.342-.283a.787.787,0,0,1-.684-.88h0a.789.789,0,0,1,.872-.684h0a.788.788,0,0,1,.684.88h0a.788.788,0,0,1-.778.692h0C3511.12,928.72,3511.089,928.712,3511.058,928.712Zm-2.342-.291a.786.786,0,0,1-.684-.873h0a.788.788,0,0,1,.88-.684h0a.786.786,0,0,1,.684.873h0a.794.794,0,0,1-.778.692h0A.452.452,0,0,1,3508.716,928.421Zm-2.343-.283a.8.8,0,0,1-.683-.88h0a.8.8,0,0,1,.88-.683h0a.786.786,0,0,1,.684.88h0a.787.787,0,0,1-.777.692h0C3506.445,928.146,3506.413,928.138,3506.373,928.138Zm-2.334-.291a.776.776,0,0,1-.684-.872h0a.777.777,0,0,1,.873-.684h0a.775.775,0,0,1,.684.873h0a.782.782,0,0,1-.778.692h0A.358.358,0,0,1,3504.039,927.847Zm-2.342-.282a.787.787,0,0,1-.684-.88h0a.791.791,0,0,1,.872-.684h0a.787.787,0,0,1,.684.88h0a.788.788,0,0,1-.778.692h0C3501.76,927.572,3501.729,927.564,3501.7,927.564Zm-2.342-.283a.789.789,0,0,1-.684-.88h0a.785.785,0,0,1,.873-.684h0a.8.8,0,0,1,.692.873h0a.794.794,0,0,1-.778.692h-.1Zm-2.342-.291a.783.783,0,0,1-.684-.872h0a.8.8,0,0,1,.88-.692h0a.8.8,0,0,1,.684.88h0a.79.79,0,0,1-.786.692h0A.392.392,0,0,1,3497.013,926.99Zm-2.335-.282a.8.8,0,0,1-.691-.88h0a.788.788,0,0,1,.88-.684h0a.785.785,0,0,1,.684.872h0a.782.782,0,0,1-.778.692h-.094Zm-2.342-.291a.781.781,0,0,1-.684-.873h0a.776.776,0,0,1,.873-.684h0a.776.776,0,0,1,.683.873h0a.781.781,0,0,1-.778.692h0A.39.39,0,0,1,3492.336,926.417Zm-2.343-.283a.788.788,0,0,1-.684-.88h0a.791.791,0,0,1,.873-.684h0a.8.8,0,0,1,.692.88h0a.8.8,0,0,1-.786.692h0C3490.057,926.141,3490.025,926.134,3489.994,926.134Zm-2.342-.291a.775.775,0,0,1-.684-.872h0a.784.784,0,0,1,.873-.684h0a.791.791,0,0,1,.691.872h0a.787.787,0,0,1-.778.692h0A.459.459,0,0,1,3487.652,925.843Z" transform="translate(-3486.962 -924.281)" fill="#3e2ea6"/>
      </g>
      <g id="Grupo_136895" data-name="Grupo 136895" transform="translate(3234.779 177.212)">
        <g id="Grupo_136893" data-name="Grupo 136893" transform="translate(0 0)">
          <path id="Trazado_153021" data-name="Trazado 153021" d="M4213.139,243.64l-3.732-.451-4.709,39.142,1.267,5.2,2.466-4.753Z" transform="translate(-4203.899 -242.316)" fill="#fff"/>
          <path id="Trazado_153022" data-name="Trazado 153022" d="M4194.819,277.836l-1.8-7.376,4.82-40.063,5.294.639-4.82,40.062Zm-.2-7.471.737,3.027,1.436-2.766,4.6-38.218-2.173-.263Z" transform="translate(-4193.022 -230.396)" fill="#3e2ea6"/>
        </g>
        <g id="Grupo_136894" data-name="Grupo 136894" transform="translate(5.06 3.033)">
          <line id="Línea_225" data-name="Línea 225" x2="3.733" y2="0.448" transform="translate(0.093 0.781)" fill="#3e2ea6"/>
          <rect id="Rectángulo_35783" data-name="Rectángulo 35783" width="1.572" height="3.759" transform="translate(0 1.561) rotate(-83.152)" fill="#3e2ea6"/>
        </g>
      </g>
      <g id="Grupo_136896" data-name="Grupo 136896" transform="translate(3191.664 234.092)">
        <path id="Trazado_153023" data-name="Trazado 153023" d="M3573.425,1078.991c1.893-2.236,6.956-3.782,9.811-4.521.056,2.106-4.22,3.012-4.084,5.446,1.5.1,2.616-1.267,4.075-1.089a8.063,8.063,0,0,0-.1,1.657c.441-.214,1.2-.167,1.622-.334a5.578,5.578,0,0,0,.226.72c1.8-.556,3.414-1.9,5.462-1.689" transform="translate(-3572.64 -1073.684)" fill="#fff"/>
        <path id="Trazado_153024" data-name="Trazado 153024" d="M3574.256,1070.942a.787.787,0,0,1-.763-.6l-.1.012a2.78,2.78,0,0,0-.638.12.785.785,0,0,1-1.117-.84,3.03,3.03,0,0,0,0-.489c0-.05,0-.1-.006-.154a7.75,7.75,0,0,0-.844.36,4.779,4.779,0,0,1-2.4.632.785.785,0,0,1-.735-.741c-.094-1.685,1.258-2.709,2.452-3.614.269-.2.532-.4.767-.6-3.8,1.133-6.453,2.445-7.562,3.756a.786.786,0,0,1-1.2-1.016c1.909-2.254,6.608-3.84,10.214-4.773a.786.786,0,0,1,.983.74c.038,1.413-1.18,2.335-2.253,3.148a8.436,8.436,0,0,0-1.465,1.29c.17-.071.345-.154.528-.241a4.486,4.486,0,0,1,2.491-.6.787.787,0,0,1,.635,1.07,1.2,1.2,0,0,0-.043.395h0a3.1,3.1,0,0,0,.537-.092.786.786,0,0,1,1.013.429c.3-.127.607-.271.922-.419a7.688,7.688,0,0,1,4.121-1.03.787.787,0,0,1,.7.863.8.8,0,0,1-.863.7,6.242,6.242,0,0,0-3.291.888,14.252,14.252,0,0,1-1.859.769A.777.777,0,0,1,3574.256,1070.942Z" transform="translate(-3561.924 -1062.972)" fill="#3e2ea6"/>
      </g>
    </g>
  </g>
</svg>
