<svg xmlns="http://www.w3.org/2000/svg" width="83.26" height="74.033" viewBox="0 0 83.26 74.033">
  <g id="Grupo_137063" data-name="Grupo 137063" transform="translate(-33.275 -171.627)">
    <g id="Grupo_137062" data-name="Grupo 137062" transform="translate(33.275 171.627)">
      <g id="Grupo_137061" data-name="Grupo 137061">
        <g id="Grupo_137060" data-name="Grupo 137060">
          <path id="Trazado_153258" data-name="Trazado 153258" d="M56.833,189.295l-4.511-3.76a9.94,9.94,0,1,0-3.84,4.458l4.65,3.876A22.268,22.268,0,0,1,56.833,189.295ZM65.084,231.6l1.283-4.805a21.987,21.987,0,0,1-5.482-2.279l-1.546,5.8a7.73,7.73,0,1,0,5.745,1.287Zm47.929-36.775a7.9,7.9,0,0,0-12.082,4.191l-7.526.5a22,22,0,0,1,.812,5.841l7.1-.473a7.928,7.928,0,0,0,2.714,3.2,8.01,8.01,0,1,0,8.981-13.266Z" transform="translate(-33.275 -171.627)" fill="#dad6f7"/>
          <path id="Trazado_153259" data-name="Trazado 153259" d="M61.508,180.034A17.271,17.271,0,1,0,78.78,197.305,17.272,17.272,0,0,0,61.508,180.034Zm-.963,13.951,3.987,2.052a6.014,6.014,0,0,1,3.217,6.4,5.855,5.855,0,0,1-3.45,4.505v1.145a2.452,2.452,0,1,1-4.9,0v-.99a7.234,7.234,0,0,1-4.368-3.983,2.452,2.452,0,0,1,4.5-1.955,2.364,2.364,0,0,0,2.369,1.408,1.045,1.045,0,0,0,1.014-.9,1.176,1.176,0,0,0-.62-1.269L58.3,198.343a6.045,6.045,0,0,1-3.183-6.535,5.878,5.878,0,0,1,4.278-4.693v-.367a2.452,2.452,0,0,1,4.9,0v.9a7.2,7.2,0,0,1,3.5,3.607,2.452,2.452,0,0,1-4.5,1.957,2.354,2.354,0,0,0-2.371-1.41,1.05,1.05,0,0,0-.992.9A1.13,1.13,0,0,0,60.545,193.985Z" transform="translate(-22.738 -163.545)" fill="#dad6f7"/>
        </g>
      </g>
    </g>
  </g>
</svg>
