<svg xmlns="http://www.w3.org/2000/svg" width="115" height="115" viewBox="0 0 115 115">
  <g id="Grupo_137184" data-name="Grupo 137184" transform="translate(-738 -8768)">
    <circle id="Elipse_4986" data-name="Elipse 4986" cx="57.5" cy="57.5" r="57.5" transform="translate(738 8768)" fill="#3e2ea6"/>
    <g id="Grupo_136809" data-name="Grupo 136809" transform="translate(502.943 8336.796)">
      <path id="Trazado_152616" data-name="Trazado 152616" d="M319.241,494.111a2.061,2.061,0,0,0-2.061,2.061,30.1,30.1,0,1,1-30.1-30.094,2.061,2.061,0,1,0,0-4.122A34.216,34.216,0,1,0,321.3,496.172,2.061,2.061,0,0,0,319.241,494.111Z" transform="translate(0 -6.538)" fill="#dad6f7"/>
      <path id="Trazado_152617" data-name="Trazado 152617" d="M313.819,521.879v8.34a4.37,4.37,0,0,0,1.245-.415,4.312,4.312,0,0,0,1.283-.987,3.362,3.362,0,0,0,.566-1.047,2.826,2.826,0,0,0,.185-.84v-.023a5.28,5.28,0,0,0-.977-3.665A5,5,0,0,0,313.819,521.879Z" transform="translate(-23.667 -29.806)" fill="#dad6f7"/>
      <path id="Trazado_152618" data-name="Trazado 152618" d="M300.248,505.4a5.912,5.912,0,0,0,.3,1.341,3.055,3.055,0,0,0,.765,1.1,6.855,6.855,0,0,0,1.721,1.165,7.2,7.2,0,0,0,1.768.573v-9.2a5.5,5.5,0,0,0-3.244,1.519A4.509,4.509,0,0,0,300.248,505.4Z" transform="translate(-18.395 -21.46)" fill="#dad6f7"/>
      <path id="Trazado_152619" data-name="Trazado 152619" d="M329.291,455.055l-2.375-9.936L316.145,455.89l1.754,7.338L309.129,472a23.095,23.095,0,1,0,2.893,2.936l8.6-8.6,7.829,1.871,10.772-10.771ZM303.7,497.221a7.058,7.058,0,0,1-1.943,4.273,7.483,7.483,0,0,1-4.627,2.187v1.1a1.757,1.757,0,0,1-.695,1.464,2.046,2.046,0,0,1-1.211.417,1.915,1.915,0,0,1-1.215-.443,1.786,1.786,0,0,1-.618-1.438v-1.05a12.366,12.366,0,0,1-5.51-1.767,7.531,7.531,0,0,1-3.443-5.18,1.443,1.443,0,0,1,.276-1.31,1.516,1.516,0,0,1,1.331-.5,1.645,1.645,0,0,1,1.685,1.441,5,5,0,0,0,1.962,2.806,7.443,7.443,0,0,0,3.7,1.264l-.008-9.04a10.045,10.045,0,0,1-5.354-2.153,7.788,7.788,0,0,1-2.66-5.157,7.2,7.2,0,0,1,.459-3.32,7.661,7.661,0,0,1,1.825-2.688,8.421,8.421,0,0,1,2.947-1.806,11.59,11.59,0,0,1,2.783-.651v-1.177a1.848,1.848,0,0,1,.561-1.375,1.876,1.876,0,0,1,2.515-.069,1.857,1.857,0,0,1,.671,1.444v1.379a8.162,8.162,0,0,1,4.168,2.187,7.468,7.468,0,0,1,2.134,5.347c-.209,1.127-.795,1.714-1.581,1.809a1.527,1.527,0,0,1-1.745-1.484,7.387,7.387,0,0,0-.327-1.593,4.185,4.185,0,0,0-.754-1.352,6.2,6.2,0,0,0-1.329-1.2,3.6,3.6,0,0,0-.566-.31v9.4a9.727,9.727,0,0,1,3.1,1.225,7.531,7.531,0,0,1,2.289,2.15,7.044,7.044,0,0,1,1.044,2.645A8.922,8.922,0,0,1,303.7,497.221Z" transform="translate(-6.982 0)" fill="#dad6f7"/>
    </g>
  </g>
</svg>
