<svg xmlns="http://www.w3.org/2000/svg" width="75.833" height="77.87" viewBox="0 0 75.833 77.87">
  <g id="Grupo_137059" data-name="Grupo 137059" transform="translate(-36 -239.503)">
    <g id="Grupo_137058" data-name="Grupo 137058" transform="translate(36 239.503)">
      <path id="Trazado_153256" data-name="Trazado 153256" d="M85.861,297.507a.989.989,0,0,0-1.254-.154,22.381,22.381,0,0,1-12.783,3.279,22.532,22.532,0,0,1-4.818-44.262,1.014,1.014,0,0,0,.762-.976V242.8a1.039,1.039,0,0,0-1.2-1.027c-20.948,3.622-35.851,24.89-28.794,47.951,3.121,10.2,13.81,20.676,24.047,23.664a37.221,37.221,0,0,0,32.606-5.329,1.015,1.015,0,0,0,.133-1.523C92.6,304.5,87.536,299.3,85.861,297.507Zm19.009-41.464a1.032,1.032,0,0,0-1.572-.127L96.5,262.708l-3.613,3.517a1.011,1.011,0,0,0-.174,1.213,22.411,22.411,0,0,1-2.931,25.578,1.01,1.01,0,0,0,.029,1.4L99.97,304.569a1.037,1.037,0,0,0,1.486-.018,38.687,38.687,0,0,0,3.415-48.508Z" transform="translate(-36 -237.133)" fill="#dad6f7"/>
      <path id="Trazado_153257" data-name="Trazado 153257" d="M82.714,251.265A40.828,40.828,0,0,0,55.06,239.5,1.046,1.046,0,0,0,54,240.546v20.508a1.021,1.021,0,0,0,.986,1.008,18.349,18.349,0,0,1,11.725,5.077,1.018,1.018,0,0,0,1.424.012l5.9-5.747,8.67-8.672A1.038,1.038,0,0,0,82.714,251.265Z" transform="translate(-17.108 -239.503)" fill="#dad6f7"/>
    </g>
  </g>
</svg>
