<svg xmlns="http://www.w3.org/2000/svg" width="130" height="130" viewBox="0 0 130 130">
  <g id="Grupo_137185" data-name="Grupo 137185" transform="translate(5640 5811.604)">
    <g id="Elipse_5256" data-name="Elipse 5256" transform="translate(-5640 -5811.604)" fill="#fff" stroke="#3e33a3" stroke-width="8">
      <circle cx="65" cy="65" r="65" stroke="none"/>
      <circle cx="65" cy="65" r="61" fill="none"/>
    </g>
    <g id="Grupo_137181" data-name="Grupo 137181" transform="translate(-10149.414 -6611.573)">
      <path id="Trazado_153025" data-name="Trazado 153025" d="M4741.542,832.574H4715.97a2.454,2.454,0,0,1-2.624-2.231V827.1a2.455,2.455,0,0,1,2.624-2.23h7.208c.458-2.174,2.784-3.833,5.578-3.833s5.12,1.659,5.578,3.833h7.208a2.454,2.454,0,0,1,2.624,2.23v3.242A2.454,2.454,0,0,1,4741.542,832.574Zm-25.572-6.132c-.621,0-1.053.347-1.053.66v3.242c0,.312.433.66,1.053.66h25.572c.621,0,1.053-.348,1.053-.66V827.1c0-.311-.45-.66-1.053-.66h-7.911a.785.785,0,0,1-.785-.785c0-1.68-1.835-3.048-4.089-3.048s-4.089,1.367-4.089,3.048a.785.785,0,0,1-.786.785Z" transform="translate(-154.28 0)" fill="#3e2ea6"/>
      <g id="Grupo_136898" data-name="Grupo 136898" transform="translate(4546.392 829.374)">
        <path id="Rectángulo_35784" data-name="Rectángulo 35784" d="M2.875,0H51.72A2.876,2.876,0,0,1,54.6,2.876V67.318A2.878,2.878,0,0,1,51.719,70.2H2.876A2.876,2.876,0,0,1,0,67.319V2.875A2.875,2.875,0,0,1,2.875,0Z" transform="translate(0.785 0.785)" fill="#fff"/>
        <path id="Trazado_153026" data-name="Trazado 153026" d="M4599.516,1002.619h-50.08a3.048,3.048,0,0,1-3.044-3.045V933.9a3.048,3.048,0,0,1,3.044-3.045h50.078a3.047,3.047,0,0,1,3.044,3.044v65.679A3.047,3.047,0,0,1,4599.516,1002.619Zm-50.079-70.195a1.475,1.475,0,0,0-1.474,1.474v65.676a1.475,1.475,0,0,0,1.474,1.474h50.08a1.474,1.474,0,0,0,1.473-1.472V933.9a1.475,1.475,0,0,0-1.474-1.473Z" transform="translate(-4546.392 -930.853)" fill="#3e2ea6"/>
      </g>
      <g id="Grupo_136899" data-name="Grupo 136899" transform="translate(4558.169 839.775)">
        <path id="Trazado_153027" data-name="Trazado 153027" d="M4714.52,1081.643h-12.209a.785.785,0,0,1-.785-.785v-12.209a.785.785,0,0,1,.785-.785h12.209a.785.785,0,0,1,.786.785v12.209A.785.785,0,0,1,4714.52,1081.643Zm-11.423-1.571h10.638v-10.639H4703.1Z" transform="translate(-4701.526 -1067.863)" fill="#3e2ea6"/>
        <path id="Trazado_153028" data-name="Trazado 153028" d="M4714.52,1081.643h-12.209a.785.785,0,0,1-.785-.785v-12.209a.785.785,0,0,1,.785-.785h12.209a.785.785,0,0,1,.786.785v12.209A.785.785,0,0,1,4714.52,1081.643Zm-11.423-1.571h10.638v-10.639H4703.1Z" transform="translate(-4701.526 -1067.863)" fill="#3e2ea6"/>
      </g>
      <g id="Grupo_136900" data-name="Grupo 136900" transform="translate(4558.169 857.444)">
        <path id="Trazado_153029" data-name="Trazado 153029" d="M4714.52,1314.395h-12.209a.785.785,0,0,1-.785-.785V1301.4a.785.785,0,0,1,.785-.785h12.209a.785.785,0,0,1,.786.785v12.208A.785.785,0,0,1,4714.52,1314.395Zm-11.423-1.571h10.638v-10.638H4703.1Z" transform="translate(-4701.526 -1300.616)" fill="#3e2ea6"/>
        <path id="Trazado_153030" data-name="Trazado 153030" d="M4714.52,1314.395h-12.209a.785.785,0,0,1-.785-.785V1301.4a.785.785,0,0,1,.785-.785h12.209a.785.785,0,0,1,.786.785v12.208A.785.785,0,0,1,4714.52,1314.395Zm-11.423-1.571h10.638v-10.638H4703.1Z" transform="translate(-4701.526 -1300.616)" fill="#3e2ea6"/>
        <path id="Trazado_153031" data-name="Trazado 153031" d="M4751.61,1351.935a.785.785,0,0,1-.66-.36l-2.767-4.3a.785.785,0,1,1,1.32-.85l2.035,3.16,2.233-4.287a.785.785,0,1,1,1.393.725l-2.857,5.486a.785.785,0,0,1-.661.422Z" transform="translate(-4744.526 -1341.518)" fill="#3e2ea6"/>
      </g>
      <g id="Grupo_136901" data-name="Grupo 136901" transform="translate(4558.169 875.112)">
        <path id="Trazado_153032" data-name="Trazado 153032" d="M4714.52,1547.138h-12.209a.785.785,0,0,1-.785-.785v-12.209a.785.785,0,0,1,.785-.785h12.209a.785.785,0,0,1,.786.785v12.209A.785.785,0,0,1,4714.52,1547.138Zm-11.423-1.571h10.638v-10.638H4703.1Z" transform="translate(-4701.526 -1533.358)" fill="#3e2ea6"/>
        <path id="Trazado_153033" data-name="Trazado 153033" d="M4714.52,1547.138h-12.209a.785.785,0,0,1-.785-.785v-12.209a.785.785,0,0,1,.785-.785h12.209a.785.785,0,0,1,.786.785v12.209A.785.785,0,0,1,4714.52,1547.138Zm-11.423-1.571h10.638v-10.638H4703.1Z" transform="translate(-4701.526 -1533.358)" fill="#3e2ea6"/>
      </g>
      <path id="Trazado_153034" data-name="Trazado 153034" d="M4936.19,1149.851h-14.38a.785.785,0,1,1,0-1.571h14.38a.785.785,0,0,1,0,1.571Z" transform="translate(-346.193 -302.4)" fill="#3e2ea6"/>
      <path id="Trazado_153035" data-name="Trazado 153035" d="M4936.19,1382.593h-14.38a.785.785,0,1,1,0-1.571h14.38a.785.785,0,0,1,0,1.571Z" transform="translate(-346.193 -517.474)" fill="#3e2ea6"/>
      <path id="Trazado_153036" data-name="Trazado 153036" d="M4936.19,1615.325h-14.38a.785.785,0,1,1,0-1.571h14.38a.785.785,0,0,1,0,1.571Z" transform="translate(-346.193 -732.539)" fill="#3e2ea6"/>
      <g id="Grupo_136903" data-name="Grupo 136903" transform="translate(4585.112 843.169)">
        <g id="Grupo_136902" data-name="Grupo 136902" transform="translate(0 0)">
          <path id="Trazado_153037" data-name="Trazado 153037" d="M5078.944,1154.978l-11.934.245-.22-11.935,19.6-20.38,12.154,11.689Z" transform="translate(-5066.005 -1122.124)" fill="#fff"/>
          <path id="Trazado_153038" data-name="Trazado 153038" d="M5057.453,1146.451a.785.785,0,0,1-.785-.771l-.22-11.934a.787.787,0,0,1,.219-.559l19.6-20.38a.782.782,0,0,1,.551-.241.793.793,0,0,1,.56.219l12.155,11.689a.785.785,0,0,1,.021,1.11l-19.6,20.38a.788.788,0,0,1-.55.241l-11.934.245Zm11.934-1.03h0Zm-11.362-11.379.2,10.822,10.823-.222,18.83-19.58-11.023-10.6Z" transform="translate(-5056.447 -1112.567)" fill="#3e2ea6"/>
        </g>
        <path id="Trazado_153039" data-name="Trazado 153039" d="M5069.389,1394.29a.784.784,0,0,1-.544-.219l-12.154-11.689a.785.785,0,0,1,1.089-1.132l12.154,11.689a.785.785,0,0,1-.545,1.351Z" transform="translate(-5056.45 -1360.651)" fill="#3e2ea6"/>
        <path id="Trazado_153040" data-name="Trazado 153040" d="M5137.289,1211.507a.785.785,0,0,1-.566-1.33l19.6-20.38a.785.785,0,1,1,1.132,1.089l-19.6,20.38A.781.781,0,0,1,5137.289,1211.507Z" transform="translate(-5130.426 -1183.713)" fill="#3e2ea6"/>
      </g>
    </g>
  </g>
</svg>
