<svg xmlns="http://www.w3.org/2000/svg" width="106" height="106" viewBox="0 0 106 106">
  <g id="Grupo_137181" data-name="Grupo 137181" transform="translate(-747 -4552)">
    <g id="Elipse_503" data-name="Elipse 503" transform="translate(747 4552)" fill="#3e2ea6" stroke="#707070" stroke-width="1">
      <circle cx="53" cy="53" r="53" stroke="none"/>
      <circle cx="53" cy="53" r="52.5" fill="none"/>
    </g>
    <g id="Grupo_87424" data-name="Grupo 87424" transform="translate(-2481.51 6768.029)">
      <path id="Trazado_101123" data-name="Trazado 101123" d="M3323.675-2154.4a1.35,1.35,0,0,0-.031.26,1.334,1.334,0,0,0-.018.145l1.478,19.825a9.969,9.969,0,0,1,2.595-.889l-.325-4.351,1.094,4.232a9.927,9.927,0,0,1,2.76.068l-4.994-19.314a1.343,1.343,0,0,0-.062-.132,1.427,1.427,0,0,0-.118-.24,1.368,1.368,0,0,0-.152-.193,1.342,1.342,0,0,0-.19-.167,1.26,1.26,0,0,0-.219-.125,1.2,1.2,0,0,0-.231-.084,1.3,1.3,0,0,0-.267-.032,1.308,1.308,0,0,0-.143-.019.91.91,0,0,0-.115.033,1.127,1.127,0,0,0-.118.005,1.124,1.124,0,0,0-.13.064,1.212,1.212,0,0,0-.243.117,1.247,1.247,0,0,0-.191.152,1.25,1.25,0,0,0-.169.192,1.269,1.269,0,0,0-.123.213A1.415,1.415,0,0,0,3323.675-2154.4Z" transform="translate(-46.541 -21.029)" fill="#dad6f7"/>
      <path id="Trazado_101124" data-name="Trazado 101124" d="M3281.51-2190.037a34.542,34.542,0,0,0-34.5,34.5,34.547,34.547,0,0,0,1.381,9.66l.279.956h24.147a10.009,10.009,0,0,1-.1-1.409,10.02,10.02,0,0,1,.08-1.245h-22.118a31.814,31.814,0,0,1-1.014-7.962,31.886,31.886,0,0,1,31.848-31.85,31.886,31.886,0,0,1,31.849,31.85,31.792,31.792,0,0,1-1.014,7.962h-19.856a9.973,9.973,0,0,1,.081,1.245,10.045,10.045,0,0,1-.1,1.409h21.885l.28-.956a34.519,34.519,0,0,0,1.38-9.66A34.541,34.541,0,0,0,3281.51-2190.037Z" transform="translate(0 0)" fill="#dad6f7"/>
      <g id="Grupo_87423" data-name="Grupo 87423" transform="translate(3253.541 -2183.302)">
        <path id="Trazado_101125" data-name="Trazado 101125" d="M3382.269-2102.672l10.61-.378-.134-1.323-10.437.37Z" transform="translate(-3335.706 2131.266)" fill="#dad6f7"/>
        <path id="Trazado_101126" data-name="Trazado 101126" d="M3382.265-2109.668l10.174-1.4-.266-1.3-10,1.377Z" transform="translate(-3335.645 2136.125)" fill="#dad6f7"/>
        <path id="Trazado_101127" data-name="Trazado 101127" d="M3381.643-2116.546l9.644-2.35-.4-1.269-9.474,2.309Z" transform="translate(-3335.186 2140.859)" fill="#dad6f7"/>
        <path id="Trazado_101128" data-name="Trazado 101128" d="M3380.456-2123.233l9.024-3.211-.526-1.221-8.861,3.153Z" transform="translate(-3334.384 2145.415)" fill="#dad6f7"/>
        <path id="Trazado_101129" data-name="Trazado 101129" d="M3378.7-2129.653l8.335-3.971-.646-1.158-8.18,3.9Z" transform="translate(-3333.242 2149.738)" fill="#dad6f7"/>
        <path id="Trazado_101130" data-name="Trazado 101130" d="M3376.4-2135.74l7.59-4.621-.764-1.089-7.442,4.532Z" transform="translate(-3331.768 2153.788)" fill="#dad6f7"/>
        <path id="Trazado_101131" data-name="Trazado 101131" d="M3379.5-2147.6l-6.666,5.058.732,1.108,6.8-5.162Z" transform="translate(-3329.972 2157.527)" fill="#dad6f7"/>
        <path id="Trazado_101132" data-name="Trazado 101132" d="M3375.234-2153.189l-5.865,5.472.841,1.029,5.992-5.59Z" transform="translate(-3327.869 2160.919)" fill="#dad6f7"/>
        <path id="Trazado_101133" data-name="Trazado 101133" d="M3370.483-2158.155l-5.053,5.779.942.938,5.166-5.909Z" transform="translate(-3325.477 2163.936)" fill="#dad6f7"/>
        <path id="Trazado_101134" data-name="Trazado 101134" d="M3365.3-2162.458l-4.237,5.981,1.031.838,4.338-6.121Z" transform="translate(-3322.823 2166.55)" fill="#dad6f7"/>
        <path id="Trazado_101135" data-name="Trazado 101135" d="M3359.724-2166.055l-3.434,6.081,1.112.727,3.519-6.231Z" transform="translate(-3319.925 2168.734)" fill="#dad6f7"/>
        <path id="Trazado_101136" data-name="Trazado 101136" d="M3353.817-2168.918l-2.654,6.084,1.181.609,2.723-6.243Z" transform="translate(-3316.81 2170.474)" fill="#dad6f7"/>
        <path id="Trazado_101137" data-name="Trazado 101137" d="M3347.638-2171.02l-1.907,6,1.238.485,1.96-6.161Z" transform="translate(-3313.51 2171.75)" fill="#dad6f7"/>
        <path id="Trazado_101138" data-name="Trazado 101138" d="M3341.251-2172.342l-1.207,5.822,1.282.355,1.243-5.992Z" transform="translate(-3310.056 2172.554)" fill="#dad6f7"/>
        <path id="Trazado_101139" data-name="Trazado 101139" d="M3334.155-2167.309l1.311.22.585-5.743-1.328-.049Z" transform="translate(-3306.479 2172.881)" fill="#dad6f7"/>
        <path id="Trazado_101140" data-name="Trazado 101140" d="M3328.5-2172.816l-.178.009-.1.008-.207.017.094,5.255.207.01.1,0,.056,0c-.021,0,.085,0-.039,0l.029,0c.078.006.161.011.243.018l.665.049.039-5.428-.663.038Z" transform="translate(-3302.75 2172.873)" fill="#dad6f7"/>
        <path id="Trazado_101141" data-name="Trazado 101141" d="M3320.763-2172l.5,4.883,1.33-.048-.514-5.055Z" transform="translate(-3298.344 2172.482)" fill="#dad6f7"/>
        <path id="Trazado_101142" data-name="Trazado 101142" d="M3313.563-2170.482l.925,4.468,1.317-.184-.96-4.637Z" transform="translate(-3293.97 2171.638)" fill="#dad6f7"/>
        <path id="Trazado_101143" data-name="Trazado 101143" d="M3306.623-2168.234l1.277,4.019,1.291-.32-1.328-4.183Z" transform="translate(-3289.754 2170.352)" fill="#dad6f7"/>
        <path id="Trazado_101144" data-name="Trazado 101144" d="M3300.018-2165.288l1.546,3.548,1.248-.449-1.615-3.708Z" transform="translate(-3285.742 2168.639)" fill="#dad6f7"/>
        <path id="Trazado_101145" data-name="Trazado 101145" d="M3293.812-2161.694l1.733,3.069,1.2-.576-1.818-3.22Z" transform="translate(-3281.972 2166.527)" fill="#dad6f7"/>
        <path id="Trazado_101146" data-name="Trazado 101146" d="M3288.066-2157.5l1.837,2.594,1.133-.7-1.937-2.736Z" transform="translate(-3278.482 2164.045)" fill="#dad6f7"/>
        <path id="Trazado_101147" data-name="Trazado 101147" d="M3282.835-2152.746l1.864,2.131,1.056-.806-1.979-2.263Z" transform="translate(-3275.304 2161.22)" fill="#dad6f7"/>
        <path id="Trazado_101148" data-name="Trazado 101148" d="M3278.161-2147.511l1.819,1.7.968-.91L3279-2148.54Z" transform="translate(-3272.465 2158.095)" fill="#dad6f7"/>
        <path id="Trazado_101149" data-name="Trazado 101149" d="M3274.086-2141.846l1.707,1.294.87-1-1.844-1.4Z" transform="translate(-3269.99 2154.702)" fill="#dad6f7"/>
        <path id="Trazado_101150" data-name="Trazado 101150" d="M3270.646-2135.816l1.534.933.763-1.086-1.681-1.023Z" transform="translate(-3267.901 2151.081)" fill="#dad6f7"/>
        <path id="Trazado_101151" data-name="Trazado 101151" d="M3267.874-2129.489l1.307.624.649-1.159-1.465-.7Z" transform="translate(-3266.216 2147.272)" fill="#dad6f7"/>
        <path id="Trazado_101152" data-name="Trazado 101152" d="M3265.783-2122.932l1.039.37.528-1.22-1.2-.429Z" transform="translate(-3264.947 2143.316)" fill="#dad6f7"/>
        <path id="Trazado_101153" data-name="Trazado 101153" d="M3264.4-2116.217l.736.18.4-1.269-.9-.221Z" transform="translate(-3264.106 2139.256)" fill="#dad6f7"/>
        <path id="Trazado_101154" data-name="Trazado 101154" d="M3263.725-2109.418l.407.057.267-1.3-.579-.08Z" transform="translate(-3263.696 2135.136)" fill="#dad6f7"/>
        <path id="Trazado_101155" data-name="Trazado 101155" d="M3263.69-2102.61l.066,0,.133-1.321-.238-.009Z" transform="translate(-3263.651 2131.001)" fill="#dad6f7"/>
      </g>
      <circle id="Elipse_4738" data-name="Elipse 4738" cx="10.194" cy="10.194" r="10.194" transform="translate(3272.417 -2156.41)" fill="#dad6f7"/>
    </g>
  </g>
</svg>
