<svg xmlns="http://www.w3.org/2000/svg" width="101" height="101" viewBox="0 0 101 101">
  <g id="Grupo_137187" data-name="Grupo 137187" transform="translate(-750 -7306.396)">
    <circle id="Elipse_1142" data-name="Elipse 1142" cx="50.5" cy="50.5" r="50.5" transform="translate(750 7306.396)" fill="#ef6c00"/>
    <g id="Grupo_136941" data-name="Grupo 136941" transform="translate(-482.075 6847.037)">
      <path id="Trazado_153079" data-name="Trazado 153079" d="M1299.559,499.3l-10.477-7.816V483.7h-5.306v3.828l-8.64-6.445a.761.761,0,0,0-.911,0L1249.8,499.3a.762.762,0,0,0,.456,1.372H1299.1A.762.762,0,0,0,1299.559,499.3Zm-25.639-1.253a4.363,4.363,0,0,1-3.532-3.531h3.532Zm0-5.054h-3.532a4.363,4.363,0,0,1,3.532-3.532Zm1.523,5.054v-3.531h3.531A4.363,4.363,0,0,1,1275.444,498.045Zm0-5.054v-3.532a4.363,4.363,0,0,1,3.531,3.532Z" fill="#fcecdf"/>
      <path id="Trazado_153080" data-name="Trazado 153080" d="M1317.574,550.4c-4.844,0-8.84-2.263-9.427-5.188a3.809,3.809,0,0,0-.074.745c0,3.277,4.254,5.933,9.5,5.933s9.5-2.656,9.5-5.933a3.8,3.8,0,0,0-.074-.745C1326.415,548.135,1322.418,550.4,1317.574,550.4Z" transform="translate(-25.507 -27.991)" fill="#fcecdf"/>
      <path id="Trazado_153081" data-name="Trazado 153081" d="M1317.574,555.674c-4.844,0-8.84-2.263-9.427-5.188a3.8,3.8,0,0,0-.074.745c0,3.277,4.254,5.932,9.5,5.932s9.5-2.656,9.5-5.932a3.8,3.8,0,0,0-.074-.745C1326.415,553.411,1322.418,555.674,1317.574,555.674Z" transform="translate(-25.507 -30.289)" fill="#fcecdf"/>
      <path id="Trazado_153082" data-name="Trazado 153082" d="M1317.574,560.95c-4.844,0-8.84-2.263-9.427-5.188a3.8,3.8,0,0,0-.074.745c0,3.277,4.254,5.932,9.5,5.932s9.5-2.656,9.5-5.932a3.8,3.8,0,0,0-.074-.745C1326.415,558.687,1322.418,560.95,1317.574,560.95Z" transform="translate(-25.507 -32.586)" fill="#fcecdf"/>
      <path id="Trazado_153083" data-name="Trazado 153083" d="M1317.574,566.226c-4.844,0-8.84-2.263-9.427-5.188a3.8,3.8,0,0,0-.074.745c0,3.276,4.254,5.932,9.5,5.932s9.5-2.656,9.5-5.932a3.8,3.8,0,0,0-.074-.745C1326.415,563.963,1322.418,566.226,1317.574,566.226Z" transform="translate(-25.507 -34.884)" fill="#fcecdf"/>
      <path id="Trazado_153084" data-name="Trazado 153084" d="M1317.574,571.5c-4.844,0-8.84-2.263-9.427-5.188a3.8,3.8,0,0,0-.074.745c0,3.276,4.254,5.932,9.5,5.932s9.5-2.656,9.5-5.932a3.814,3.814,0,0,0-.074-.745C1326.415,569.238,1322.418,571.5,1317.574,571.5Z" transform="translate(-25.507 -37.181)" fill="#fcecdf"/>
      <path id="Trazado_153085" data-name="Trazado 153085" d="M1317.574,576.777c-4.844,0-8.84-2.263-9.427-5.188a3.8,3.8,0,0,0-.074.744c0,3.277,4.254,5.933,9.5,5.933s9.5-2.656,9.5-5.933a3.809,3.809,0,0,0-.074-.745C1326.415,574.514,1322.418,576.777,1317.574,576.777Z" transform="translate(-25.507 -39.478)" fill="#fcecdf"/>
      <path id="Trazado_153086" data-name="Trazado 153086" d="M1317.574,542.61c5.247,0,9.5-2.656,9.5-5.933s-4.254-5.932-9.5-5.932-9.5,2.656-9.5,5.932S1312.327,542.61,1317.574,542.61Zm-.278-5.2c-1-.391-2.023-.968-2.023-2.262a2.156,2.156,0,0,1,1.558-2.064v-1.154h1.668v1.048a3.1,3.1,0,0,1,1.088.385l.375.22-.626,1.651-.523-.3a1.967,1.967,0,0,0-1.044-.283c-.368,0-.58.136-.58.373,0,.149,0,.3.962.7a2.539,2.539,0,0,1,1.917,2.364,2.249,2.249,0,0,1-1.63,2.157v1.184h-1.679v-1.085a3.242,3.242,0,0,1-1.363-.507l-.316-.226.6-1.678.548.366a2.246,2.246,0,0,0,1.2.357c.329,0,.714-.13.714-.5C1318.142,538.005,1318.142,537.749,1317.3,537.407Z" transform="translate(-25.507 -21.692)" fill="#fcecdf"/>
      <path id="Trazado_153087" data-name="Trazado 153087" d="M1355.863,555.488a3.643,3.643,0,0,0-.072-.723c-.57,2.841-4.452,5.039-9.157,5.039a14.491,14.491,0,0,1-2.494-.213l-.005,1.445a14.478,14.478,0,0,0,2.5.216C1351.731,561.251,1355.863,558.671,1355.863,555.488Z" transform="translate(-41.21 -32.152)" fill="#fcecdf"/>
      <path id="Trazado_153088" data-name="Trazado 153088" d="M1355.871,546.476c0-3.182-4.132-5.762-9.229-5.762a14.481,14.481,0,0,0-2.447.207l-.041,11.1a14.478,14.478,0,0,0,2.489.214C1351.739,552.239,1355.871,549.659,1355.871,546.476Zm-11.345,3.068-.307-.219.583-1.63.532.355a2.182,2.182,0,0,0,1.166.347c.32,0,.693-.126.693-.482,0-.148,0-.4-.821-.729-.969-.38-1.966-.94-1.966-2.2a2.1,2.1,0,0,1,1.514-2.005v-1.121h1.621v1.018a3.009,3.009,0,0,1,1.056.374l.365.214-.609,1.6-.508-.291a1.907,1.907,0,0,0-1.014-.275c-.358,0-.563.132-.563.362,0,.145,0,.294.934.68a2.467,2.467,0,0,1,1.862,2.3,2.185,2.185,0,0,1-1.584,2.1v1.15h-1.631v-1.053A3.142,3.142,0,0,1,1344.526,549.544Z" transform="translate(-41.218 -26.034)" fill="#fcecdf"/>
      <path id="Trazado_153089" data-name="Trazado 153089" d="M1345.874,575.179a14.4,14.4,0,0,1-2.815-.274,12.908,12.908,0,0,1-.669,1.295,14.159,14.159,0,0,0,3.484.426c5.1,0,9.229-2.58,9.229-5.763a3.638,3.638,0,0,0-.072-.723C1354.461,572.98,1350.579,575.179,1345.874,575.179Z" transform="translate(-40.451 -38.847)" fill="#fcecdf"/>
      <path id="Trazado_153090" data-name="Trazado 153090" d="M1346.617,570.054a14.494,14.494,0,0,1-2.516-.217l-.005,1.444a14.444,14.444,0,0,0,2.521.22c5.1,0,9.229-2.58,9.229-5.762a3.652,3.652,0,0,0-.072-.724C1355.2,567.855,1351.322,570.054,1346.617,570.054Z" transform="translate(-41.193 -36.615)" fill="#fcecdf"/>
      <path id="Trazado_153091" data-name="Trazado 153091" d="M1346.625,564.929a14.49,14.49,0,0,1-2.5-.215l-.005,1.444a14.488,14.488,0,0,0,2.51.217c5.1,0,9.229-2.58,9.229-5.762a3.653,3.653,0,0,0-.072-.724C1355.212,562.73,1351.33,564.929,1346.625,564.929Z" transform="translate(-41.202 -34.383)" fill="#fcecdf"/>
      <path id="Trazado_153092" data-name="Trazado 153092" d="M1284.55,533.052a5.56,5.56,0,0,1-.334-1.9c0-4.292,4.93-7.655,11.224-7.655a16.558,16.558,0,0,1,3.428.351v-5.786h-41.626v29.516h27.193a5.495,5.495,0,0,1-.111-2.618h.226a5.523,5.523,0,0,1-.226-2.979h.226a5.521,5.521,0,0,1-.226-2.978h.226a5.562,5.562,0,0,1-.334-1.9,5.507,5.507,0,0,1,.108-1.083h.226a5.523,5.523,0,0,1-.226-2.979Zm-20.993-7.974h6.487v5.112h-6.487Zm14.5,11.748h-14.5v-5.113h6.487v5.113h1.523v-5.113h6.487Zm0-6.636h-6.487v-5.112h6.487Z" transform="translate(-3.372 -16.172)" fill="#fcecdf"/>
    </g>
  </g>
</svg>
