<svg xmlns="http://www.w3.org/2000/svg" width="115" height="115" viewBox="0 0 115 115">
  <g id="Grupo_137185" data-name="Grupo 137185" transform="translate(-1159 -8768)">
    <circle id="Elipse_4987" data-name="Elipse 4987" cx="57.5" cy="57.5" r="57.5" transform="translate(1159 8768)" fill="#3e2ea6"/>
    <g id="Grupo_136810" data-name="Grupo 136810" transform="translate(1110.116 8530.742)">
      <path id="Trazado_152620" data-name="Trazado 152620" d="M72.514,306.945v34.262l22.647-19.659Z" transform="translate(0 -23.064)" fill="#dad6f7"/>
      <path id="Trazado_152621" data-name="Trazado 152621" d="M144.794,321.548l22.647,19.659V306.945Z" transform="translate(-32.188 -23.064)" fill="#dad6f7"/>
      <path id="Trazado_152622" data-name="Trazado 152622" d="M78.165,353.054h56.47L106.4,328.545Z" transform="translate(-2.517 -32.683)" fill="#dad6f7"/>
      <path id="Trazado_152623" data-name="Trazado 152623" d="M123.161,282.332a3.741,3.741,0,0,0,.191.84,1.744,1.744,0,0,0,.437.625,4.507,4.507,0,0,0,1.111.75,4.149,4.149,0,0,0,.719.264v-5.5a3.238,3.238,0,0,0-1.647.872A2.791,2.791,0,0,0,123.161,282.332Z" transform="translate(-22.553 -10.758)" fill="#dad6f7"/>
      <path id="Trazado_152624" data-name="Trazado 152624" d="M134.656,299.939a1.963,1.963,0,0,0,.326-.6,1.756,1.756,0,0,0,.113-.483v-.025a3.36,3.36,0,0,0-.591-2.3,2.73,2.73,0,0,0-.984-.672v4.825a2.11,2.11,0,0,0,.351-.148A2.718,2.718,0,0,0,134.656,299.939Z" transform="translate(-27.168 -18.128)" fill="#dad6f7"/>
      <path id="Trazado_152625" data-name="Trazado 152625" d="M103.652,291.975a1.865,1.865,0,0,1,2.448,0l4.558,3.956,24.35-15.7-27.954-24.269a3.338,3.338,0,0,0-4.356,0L74.744,280.231l24.35,15.7Zm-5.509-12.617a1.352,1.352,0,0,1,1.211-.467,1.474,1.474,0,0,1,1.484,1.311,3.154,3.154,0,0,0,1.222,1.694,4.459,4.459,0,0,0,2,.757l0-5.55a7.314,7.314,0,0,1-3.583-1.53,5.734,5.734,0,0,1-1.962-3.8,5.343,5.343,0,0,1,.337-2.464,5.682,5.682,0,0,1,1.346-1.987A6.188,6.188,0,0,1,102.356,266a8.279,8.279,0,0,1,1.7-.433v-.507a1.613,1.613,0,0,1,.495-1.2,1.653,1.653,0,0,1,2.792,1.2v.678a5.914,5.914,0,0,1,2.783,1.544,5.508,5.508,0,0,1,1.579,3.939c-.185,1.012-.7,1.52-1.4,1.6a1.409,1.409,0,0,1-1.6-1.324,4.744,4.744,0,0,0-.213-1.043,2.561,2.561,0,0,0-.456-.818,3.977,3.977,0,0,0-.7-.663v5.627a6.786,6.786,0,0,1,1.987.829,5.523,5.523,0,0,1,1.683,1.586,5.2,5.2,0,0,1,.779,1.962,6.475,6.475,0,0,1,.1,1.844,5.187,5.187,0,0,1-1.438,3.158,5.348,5.348,0,0,1-3.109,1.574v.465a1.55,1.55,0,0,1-.625,1.3,1.742,1.742,0,0,1-1.042.354,1.671,1.671,0,0,1-1.062-.385,1.614,1.614,0,0,1-.555-1.265v-.414a8.763,8.763,0,0,1-3.649-1.24,5.553,5.553,0,0,1-2.54-3.814A1.324,1.324,0,0,1,98.143,279.358Z" transform="translate(-0.993)" fill="#dad6f7"/>
    </g>
  </g>
</svg>
