<svg xmlns="http://www.w3.org/2000/svg" xmlns:xlink="http://www.w3.org/1999/xlink" width="505" height="375" viewBox="0 0 505 375">
  <defs>
    <linearGradient id="linear-gradient" x1="0.638" y1="0.304" x2="0.228" y2="0.857" gradientUnits="objectBoundingBox">
      <stop offset="0" stop-color="#c4e0f5"/>
      <stop offset="1" stop-color="#e1e8f6"/>
    </linearGradient>
    <linearGradient id="linear-gradient-2" x1="0.249" y1="0.574" x2="1.129" y2="0.313" gradientUnits="objectBoundingBox">
      <stop offset="0" stop-color="#6d6afe"/>
      <stop offset="1" stop-color="#3fb0f7"/>
    </linearGradient>
    <linearGradient id="linear-gradient-3" x1="0.494" y1="0.983" x2="0.509" y2="0.128" gradientUnits="objectBoundingBox">
      <stop offset="0" stop-color="#965cf2"/>
      <stop offset="1" stop-color="#ff8adc"/>
    </linearGradient>
    <linearGradient id="linear-gradient-4" x1="0.669" y1="0.581" x2="-1.268" y2="-0.347" xlink:href="#linear-gradient-2"/>
    <linearGradient id="linear-gradient-5" x1="0.566" y1="0.983" x2="0.475" y2="0.201" xlink:href="#linear-gradient"/>
    <linearGradient id="linear-gradient-6" x1="0.627" y1="0.376" x2="0.362" y2="0.635" xlink:href="#linear-gradient"/>
    <linearGradient id="linear-gradient-7" x1="0.41" y1="0.559" x2="0.667" y2="0.39" xlink:href="#linear-gradient-2"/>
    <linearGradient id="linear-gradient-8" x1="0.872" y1="0.618" x2="-0.229" y2="0.268" xlink:href="#linear-gradient-2"/>
    <linearGradient id="linear-gradient-10" x1="0.349" y1="0.867" x2="0.61" y2="0.235" xlink:href="#linear-gradient-3"/>
    <linearGradient id="linear-gradient-11" x1="0.704" y1="0.221" x2="0.253" y2="0.779" gradientUnits="objectBoundingBox">
      <stop offset="0" stop-color="#3e4795"/>
      <stop offset="1" stop-color="#273088"/>
    </linearGradient>
    <linearGradient id="linear-gradient-12" x1="0.851" y1="0.22" x2="-0.056" y2="0.742" xlink:href="#linear-gradient-11"/>
    <linearGradient id="linear-gradient-13" x1="0.524" y1="1.04" x2="0.499" y2="0.24" xlink:href="#linear-gradient-3"/>
    <linearGradient id="linear-gradient-14" x1="0.521" y1="0.467" x2="0.208" y2="0.826" gradientUnits="objectBoundingBox">
      <stop offset="0" stop-color="#ff8a78"/>
      <stop offset="0.37" stop-color="#ff9584"/>
      <stop offset="1" stop-color="#ffa799"/>
    </linearGradient>
    <linearGradient id="linear-gradient-15" x1="0.61" y1="0.316" x2="0.437" y2="0.791" gradientUnits="objectBoundingBox">
      <stop offset="0" stop-color="#ffb89e"/>
      <stop offset="1" stop-color="#ffa799"/>
    </linearGradient>
    <linearGradient id="linear-gradient-16" x1="0.594" y1="0.298" x2="0.45" y2="0.857" gradientUnits="objectBoundingBox">
      <stop offset="0" stop-color="#5a2d68"/>
      <stop offset="1" stop-color="#22043d"/>
    </linearGradient>
    <linearGradient id="linear-gradient-17" x1="0.988" y1="0.187" x2="0.331" y2="0.819" gradientUnits="objectBoundingBox">
      <stop offset="0" stop-color="#8a4791"/>
      <stop offset="1" stop-color="#562e65"/>
    </linearGradient>
    <linearGradient id="linear-gradient-18" x1="0.573" y1="0.519" x2="0.669" y2="0.631" gradientUnits="objectBoundingBox">
      <stop offset="0" stop-color="#f9b095"/>
      <stop offset="1" stop-color="#f7a191"/>
    </linearGradient>
    <linearGradient id="linear-gradient-19" x1="0.736" y1="0.604" x2="0.119" y2="0.244" xlink:href="#linear-gradient-3"/>
    <linearGradient id="linear-gradient-20" x1="0.625" y1="0.638" x2="-1.263" y2="-0.266" xlink:href="#linear-gradient-2"/>
    <linearGradient id="linear-gradient-21" x1="0.504" y1="0.655" x2="0.483" y2="0.151" xlink:href="#linear-gradient-2"/>
    <linearGradient id="linear-gradient-22" x1="0.489" y1="0.906" x2="0.513" y2="-0.021" xlink:href="#linear-gradient-2"/>
    <linearGradient id="linear-gradient-23" x1="0.413" y1="0.087" x2="0.587" y2="0.794" xlink:href="#linear-gradient-2"/>
    <linearGradient id="linear-gradient-24" x1="0.535" y1="0.295" x2="0.425" y2="0.88" xlink:href="#linear-gradient"/>
    <linearGradient id="linear-gradient-25" x1="0.436" y1="0.561" x2="0.654" y2="0.354" xlink:href="#linear-gradient-2"/>
    <linearGradient id="linear-gradient-26" x1="0.592" y1="0.383" x2="0.414" y2="0.608" xlink:href="#linear-gradient"/>
    <linearGradient id="linear-gradient-27" x1="0.236" y1="-0.176" x2="0.598" y2="0.812" gradientUnits="objectBoundingBox">
      <stop offset="0" stop-color="#fd90da"/>
      <stop offset="1" stop-color="#8e6dfd"/>
    </linearGradient>
    <linearGradient id="linear-gradient-28" x1="0" y1="0.5" x2="1" y2="0.5" xlink:href="#linear-gradient-2"/>
    <linearGradient id="linear-gradient-29" x1="0.5" y1="0.01" x2="0.5" y2="0.985" gradientUnits="objectBoundingBox">
      <stop offset="0" stop-color="#1c8ef4"/>
      <stop offset="1" stop-color="#00cfdd"/>
    </linearGradient>
    <linearGradient id="linear-gradient-30" y1="0.5" x2="1" y2="0.5" gradientUnits="objectBoundingBox">
      <stop offset="0" stop-color="#a77ef7"/>
      <stop offset="1" stop-color="#5e65d6"/>
    </linearGradient>
  </defs>
  <g id="Grupo_137191" data-name="Grupo 137191" transform="translate(-180 -13345)">
    <g id="grafico2-06" transform="translate(295.425 13347.395)" style="isolation: isolate">
      <g id="Layer_2" data-name="Layer 2" transform="translate(0.002 0.001)">
        <path id="Trazado_153307" data-name="Trazado 153307" d="M394.945,956.208,289.231,895.829c-3.922-1.794-9.687-3.484-13.535-1.141l-9.846,6c-1.981,1.208-8.494,5.213-4.137,7.58,12.815,6.97,94.706,54.817,107.72,61.9,2.453,1.34,6.062,1.821,9.843,1.509a24.68,24.68,0,0,0,10.659-3.174l3.934-2.426c2.778-1.714,4.318-3.588,4.468-5.385S397.352,957.309,394.945,956.208Z" transform="translate(-180.438 -619.538)" fill="#bb6ce9" fill-rule="evenodd" opacity="0.5"/>
        <path id="Trazado_153308" data-name="Trazado 153308" d="M409.935,367.734c0,5.146-1.84,8.767-4.781,10.472L400.5,381c-15.967-6.814-10.043-87.732-11.015-110.737l4.906-120.731c-4.124-7.2-19.984-13.493-16.283-28.212l-46.789-21.9c-2.079-1.414-56.693-33.041-46.89-38.972,1.628-.99,3.25-1.99,4.879-2.941,3.618-2.147,8.234-.819,11.619,1.138h0l93.117,53.421c9.141,5.268,16.311,18.009,16.28,28.212Z" transform="translate(-196.394 -39.114)" fill-rule="evenodd" fill="url(#linear-gradient)"/>
        <path id="Trazado_153309" data-name="Trazado 153309" d="M270.649,77.54c0-5.044,1.76-8.626,4.6-10.371,2.984-1.84,7.166-1.641,11.8,1.033l93.114,53.412c9.012,5.213,16.311,17.844,16.28,28.212l-.386,227.463c-.031,10.356-7.375,14.541-16.39,9.337L286.54,333.2c-9.022-5.213-16.311-17.844-16.28-28.212Z" transform="translate(-187.385 -45.735)" fill="#fff" fill-rule="evenodd"/>
        <path id="Trazado_153310" data-name="Trazado 153310" d="M270.649,77.54c0-5.044,1.76-8.626,4.6-10.371,2.984-1.84,7.166-1.641,11.8,1.033l93.114,53.412c9.012,5.213,16.311,17.844,16.28,28.212l-.386,227.463c-.031,10.356-7.375,14.541-16.39,9.337L286.54,333.2c-9.022-5.213-16.311-17.844-16.28-28.212Z" transform="translate(-187.385 -45.735)" fill-rule="evenodd" fill="url(#linear-gradient-2)"/>
        <path id="Trazado_153311" data-name="Trazado 153311" d="M629.4,284.994c2.453,1.408,4.425.276,4.434-2.527a9.711,9.711,0,0,0-4.407-7.629c-2.441-1.411-4.425-.279-4.425,2.527A9.721,9.721,0,0,0,629.4,284.994Z" transform="translate(-433.345 -190.138)" fill="#4c68e5" fill-rule="evenodd"/>
        <path id="Trazado_153312" data-name="Trazado 153312" d="M408.76,158.774c0-.764.543-1.064,1.208-.668,9.678,5.468,25.538,14.394,35.213,19.862a2.7,2.7,0,0,1,1.2,2.1v1.512c0,.764-.543,1.064-1.208.669-9.662-5.468-25.538-14.394-35.212-19.862a2.7,2.7,0,0,1-1.2-2.1Z" transform="translate(-283.415 -109.502)" fill="#4c68e5" fill-rule="evenodd"/>
        <path id="Trazado_153313" data-name="Trazado 153313" d="M433.946,224.2c7.51,1.987,14.232,10.877,15.007,19.856s-4.68,14.649-12.192,12.661-14.232-10.877-15.007-19.855S426.433,222.216,433.946,224.2Z" transform="translate(-292.373 -155.176)" fill="#d0e7ff" fill-rule="evenodd"/>
        <path id="Trazado_153314" data-name="Trazado 153314" d="M447.623,251.594l.037-2.886c0-1.739.307-2.864.972-3.447.782-.7,1.8-.613,3.085.117l2.784,1.567a4.823,4.823,0,0,1,2.582,2.726,11.9,11.9,0,0,1,.509,4.183v2.085a10.518,10.518,0,0,1,.938,3.456c.35,4.014-2.091,6.55-5.452,5.661s-6.366-4.876-6.713-8.862a5.95,5.95,0,0,1,1.257-4.584Zm8.23,1.634a9.124,9.124,0,0,0-.389-2.947,3.349,3.349,0,0,0-1.779-1.806c-.954-.481-1.892-1.11-2.843-1.6-.567-.331-.92-.448-1.058-.328-.261.233-.393.938-.393,2.147l-.024,1.791a4.554,4.554,0,0,1,2.453.018A8.545,8.545,0,0,1,455.854,253.228Z" transform="translate(-309.466 -169.719)" fill-rule="evenodd" fill="url(#linear-gradient-3)"/>
        <path id="Trazado_153315" data-name="Trazado 153315" d="M463.93,281.026v2.039a.868.868,0,0,1-1.736,0v-2.708a2.548,2.548,0,0,1-.543-1.337c-.083-.92.485-1.518,1.263-1.312a2.416,2.416,0,0,1,1.558,2.061A1.237,1.237,0,0,1,463.93,281.026Z" transform="translate(-320.082 -192.522)" fill="#21389b" fill-rule="evenodd"/>
        <path id="Trazado_153316" data-name="Trazado 153316" d="M315.23,576.988c0-2.729,1.941-3.833,4.315-2.453,25.173,14.437,50.29,29.383,75.469,43.823a9.482,9.482,0,0,1,4.293,7.424l.126,99.661c0,2.726-1.944,3.827-4.318,2.453-25.173-14.44-50.29-29.386-75.469-43.823a9.474,9.474,0,0,1-4.293-7.424Z" transform="translate(-218.566 -397.942)" fill-rule="evenodd" opacity="0.5" fill="url(#linear-gradient-4)" style="mix-blend-mode: multiply;isolation: isolate"/>
        <path id="Trazado_153317" data-name="Trazado 153317" d="M309.07,574.538l2.889-1.444a2.973,2.973,0,0,1,2.735.365c23.793,13.643,47.531,27.77,71.323,41.416a8.94,8.94,0,0,1,4.051,7.016l.117,94.178a3.088,3.088,0,0,1-.862,2.367,26.37,26.37,0,0,1-3.373,1.766c-23.793-13.646-47.365-29.582-71.143-43.238a8.93,8.93,0,0,1-4.051-7.019Z" transform="translate(-214.295 -397.222)" fill-rule="evenodd" fill="url(#linear-gradient-5)"/>
        <path id="Trazado_153318" data-name="Trazado 153318" d="M304.87,580.4c0-2.579,1.84-3.622,4.075-2.324,23.79,13.646,47.531,27.77,71.323,41.416a8.924,8.924,0,0,1,4.051,7.016l.12,94.178c0,2.579-1.84,3.618-4.081,2.324-23.79-13.646-47.531-27.773-71.321-41.416a8.933,8.933,0,0,1-4.054-7.019Z" transform="translate(-211.382 -400.425)" fill-rule="evenodd" fill="url(#linear-gradient-6)"/>
        <path id="Trazado_153319" data-name="Trazado 153319" d="M402.258,691.548a1.571,1.571,0,0,1,2.582-1.472l3.189,1.84a16.588,16.588,0,0,0,4.707,4.312,6.162,6.162,0,0,0,4.529.984l2.257,1.294a5.674,5.674,0,0,1,2.567,4.446l-.018,9.638c-6.611-3.845-13.22-7.721-19.831-11.573l.018-9.46Zm10.334,2.784c3.352,1.935,5.86.506,5.6-3.2a14.412,14.412,0,0,0-6.529-10.208c-3.349-1.929-5.86-.506-5.6,3.2A14.481,14.481,0,0,0,412.592,694.332Z" transform="translate(-278.894 -471.524)" fill="#fff" fill-rule="evenodd"/>
        <path id="Trazado_153320" data-name="Trazado 153320" d="M318.25,728.872c0-1.067.757-1.5,1.69-.963l67.944,38.981a3.7,3.7,0,0,1,1.677,2.9l.061,10.579c0,1.067-.76,1.5-1.69.963q-33.989-19.488-67.957-38.981a3.7,3.7,0,0,1-1.68-2.919Z" transform="translate(-220.66 -504.537)" fill="#fff" fill-rule="evenodd"/>
        <path id="Trazado_153321" data-name="Trazado 153321" d="M356.24,882.037c0-1.07.76-1.5,1.69-.963q18.362,10.527,36.737,21.045a3.717,3.717,0,0,1,1.68,2.91l.049,10.57c0,1.067-.764,1.5-1.693.963q-18.362-10.527-36.737-21.048a3.7,3.7,0,0,1-1.677-2.907Z" transform="translate(-247 -610.733)" fill-rule="evenodd" fill="url(#linear-gradient-7)"/>
        <path id="Trazado_153322" data-name="Trazado 153322" d="M318.25,791.8c0-1.07.757-1.5,1.69-.963q33.98,19.484,67.944,38.978a3.7,3.7,0,0,1,1.677,2.922l.049,10.57c0,1.067-.76,1.5-1.69.963q-33.977-19.506-67.944-38.993a3.7,3.7,0,0,1-1.68-2.9Z" transform="translate(-220.66 -548.165)" fill="#fff" fill-rule="evenodd"/>
        <path id="Trazado_153323" data-name="Trazado 153323" d="M514.418,861.176a10.681,10.681,0,0,1-4.8-7.5c-.2-2.72,1.656-3.775,4.118-2.349a10.658,10.658,0,0,1,4.8,7.5C518.739,861.547,516.88,862.6,514.418,861.176Z" transform="translate(-353.333 -589.825)" fill-rule="evenodd" fill="url(#linear-gradient-8)"/>
        <path id="Trazado_153324" data-name="Trazado 153324" d="M518.368,862.5l.653.325-2.9,4.416-2.56-3.8.843.328,1.352,1.285Z" transform="translate(-356.078 -598.015)" fill="#fff" fill-rule="evenodd"/>
        <path id="Trazado_153325" data-name="Trazado 153325" d="M514.418,920.806a10.681,10.681,0,0,1-4.8-7.5c-.2-2.72,1.656-3.775,4.118-2.349a10.657,10.657,0,0,1,4.8,7.5C518.739,921.177,516.88,922.228,514.418,920.806Z" transform="translate(-353.333 -631.17)" fill-rule="evenodd" fill="url(#linear-gradient-8)"/>
        <path id="Trazado_153326" data-name="Trazado 153326" d="M518.368,922.13l.653.328-2.9,4.413-2.56-3.8.843.328,1.352,1.285Z" transform="translate(-356.078 -639.36)" fill="#fff" fill-rule="evenodd"/>
        <path id="Trazado_153327" data-name="Trazado 153327" d="M331.5,749.826a.488.488,0,1,1,.972-.067l.163,2.367,1.389-.8a.488.488,0,1,1,.485.843l-1.331.767,2,1.156a.488.488,0,0,1-.488.843l-1.027-.595,1.076,1.711a.488.488,0,0,1-.825.518l-1.089-1.729.086,1.205a.489.489,0,0,1-.975.068l-.163-2.367-1.205.693a.488.488,0,0,1-.484-.843l1.147-.659-2-1.156a.488.488,0,0,1,.488-.843l1.027.595-1.076-1.711a.488.488,0,1,1,.825-.518l1.089,1.73Z" transform="translate(-228.119 -519.358)" fill="#9ed7fa" fill-rule="evenodd"/>
        <path id="Trazado_153328" data-name="Trazado 153328" d="M364.824,768.958a.488.488,0,1,1,.972-.064l.163,2.364,1.389-.8a.488.488,0,1,1,.485.843l-1.331.767,2,1.156a.488.488,0,0,1-.488.843l-1.024-.592,1.073,1.708a.488.488,0,0,1-.825.518l-1.086-1.736.083,1.208a.489.489,0,0,1-.975.064l-.162-2.364-1.205.693a.488.488,0,0,1-.484-.843l1.147-.662-2-1.153a.488.488,0,1,1,.488-.843l1.027.592L363,768.946a.486.486,0,0,1,.822-.518l1.089,1.733Z" transform="translate(-251.195 -532.633)" fill="#9ed7fa" fill-rule="evenodd"/>
        <path id="Trazado_153329" data-name="Trazado 153329" d="M397.484,787.527a.488.488,0,1,1,.972-.068l.166,2.367,1.386-.8a.488.488,0,1,1,.485.843l-1.331.767,2,1.156a.488.488,0,1,1-.491.843l-1.024-.586,1.073,1.711a.488.488,0,0,1-.825.518l-1.086-1.729.083,1.208a.488.488,0,1,1-.972.064l-.166-2.367-1.2.693a.488.488,0,0,1-.488-.843l1.15-.659-2-1.156a.488.488,0,1,1,.488-.843l1.027.595-1.073-1.711a.488.488,0,1,1,.825-.518l1.086,1.73Z" transform="translate(-273.84 -545.504)" fill="#9ed7fa" fill-rule="evenodd"/>
        <path id="Trazado_153330" data-name="Trazado 153330" d="M430.2,806.1a.488.488,0,0,1,.972-.064l.166,2.364,1.389-.8a.488.488,0,0,1,.484.843l-1.334.767,2,1.153a.488.488,0,1,1-.488.843l-1.027-.592,1.073,1.711a.488.488,0,0,1-.825.518l-1.086-1.729.083,1.205a.488.488,0,1,1-.972.064l-.166-2.364-1.2.693a.488.488,0,1,1-.484-.843l1.15-.65-2-1.156a.488.488,0,1,1,.491-.843l1.024.592-1.073-1.708a.488.488,0,1,1,.825-.518l1.086,1.729Z" transform="translate(-296.539 -558.387)" fill="#9ed7fa" fill-rule="evenodd"/>
        <path id="Trazado_153331" data-name="Trazado 153331" d="M331.414,812.194a.488.488,0,0,1,.972-.064l.163,2.364,1.389-.8a.488.488,0,1,1,.484.843l-1.331.767,2,1.153a.488.488,0,1,1-.488.843l-1.027-.592,1.076,1.711a.488.488,0,0,1-.825.518l-1.089-1.733.086,1.208a.489.489,0,1,1-.975.064l-.163-2.364-1.205.693a.488.488,0,0,1-.484-.843l1.147-.659-2-1.156a.488.488,0,1,1,.488-.843l1.027.592-1.076-1.708a.491.491,0,0,1,.153-.672.485.485,0,0,1,.672.153L331.5,813.4Z" transform="translate(-228.031 -562.615)" fill="#9ed7fa" fill-rule="evenodd"/>
        <path id="Trazado_153332" data-name="Trazado 153332" d="M364.824,831.274a.488.488,0,0,1,.972-.064l.163,2.367,1.389-.8a.488.488,0,1,1,.485.843l-1.331.767,2,1.153a.488.488,0,1,1-.488.846l-1.024-.595,1.073,1.711a.488.488,0,0,1-.825.518l-1.086-1.73.083,1.205a.489.489,0,0,1-.975.064l-.163-2.364-1.205.678a.488.488,0,0,1-.485-.843l1.147-.659-2-1.156a.488.488,0,1,1,.488-.843l1.027.6L363,831.255a.486.486,0,1,1,.822-.518l1.089,1.729Z" transform="translate(-251.196 -575.835)" fill="#9ed7fa" fill-rule="evenodd"/>
        <path id="Trazado_153333" data-name="Trazado 153333" d="M397.572,849.868a.488.488,0,0,1,.972-.064l.166,2.364,1.386-.8a.488.488,0,1,1,.484.843l-1.331.767,2,1.153a.488.488,0,1,1-.491.843l-1.024-.592,1.073,1.711a.484.484,0,0,1-.153.671.491.491,0,0,1-.672-.153l-1.086-1.733.083,1.208a.488.488,0,1,1-.972.064l-.166-2.364-1.2.693a.488.488,0,1,1-.488-.843l1.15-.659-2-1.141a.488.488,0,0,1,.488-.843l1.027.592-1.073-1.708a.488.488,0,1,1,.825-.518l1.086,1.729Z" transform="translate(-273.929 -588.735)" fill="#9ed7fa" fill-rule="evenodd"/>
        <path id="Trazado_153334" data-name="Trazado 153334" d="M430.2,868.45a.488.488,0,1,1,.972-.064l.166,2.364,1.389-.8a.488.488,0,0,1,.484.843l-1.334.77,2,1.153a.488.488,0,1,1-.488.843l-1.027-.592,1.073,1.708a.488.488,0,0,1-.825.521l-1.086-1.733.083,1.208a.488.488,0,0,1-.972.064l-.166-2.364-1.2.693a.488.488,0,1,1-.484-.843l1.15-.659-2-1.156a.488.488,0,1,1,.491-.843l1.024.592-1.073-1.708a.488.488,0,1,1,.825-.521l1.086,1.733Z" transform="translate(-296.539 -601.62)" fill="#9ed7fa" fill-rule="evenodd"/>
        <path id="Trazado_153335" data-name="Trazado 153335" d="M4,1039.537l42.318-24.106c4.615-2.107,11.22-3.787,15.921-1.34,4.293,2.229,11.346,6.792,14.459,8.571,2.37,1.352,10.595,6.28,5.471,9.064-15.072,8.2-29.987,17.415-45.292,25.74-2.895,1.573-7.13,2.147-11.573,1.776a30.623,30.623,0,0,1-12.536-3.735l-7.507-4.367c-3.312-1.935-5.072-4.219-5.247-6.332C-.155,1042.742,1.173,1040.822,4,1039.537Z" transform="translate(-0.002 -702.282)" fill="#bb6ce9" fill-rule="evenodd" opacity="0.5"/>
        <path id="Trazado_153336" data-name="Trazado 153336" d="M44.421,1091.608c.96-.021,4.192-3.067,7.255-1.533,3.68,1.84,10.662.209,14.186,1.055.613.153,1.84-.307,2.1.123.76,1.349,1.5,3.373-.371,4.689a31.993,31.993,0,0,1-6.246,2.944,52.712,52.712,0,0,1-7.9,2.235c-2.6.408-3.79.576-4.762,1.328a6.914,6.914,0,0,1-3.634.874,6.13,6.13,0,0,1-4.633-3.232,13.41,13.41,0,0,1,.037-5.13,25.967,25.967,0,0,1,1.638-4.477Z" transform="translate(-27.862 -755.505)" fill="#fff" fill-rule="evenodd"/>
        <path id="Trazado_153337" data-name="Trazado 153337" d="M56.36,1072.348c-1.162,2.794-.806,7.114-3.563,8.617-1.84,1-4.732,1.012-5.989-1.84-.7-1.6.23-4.327.025-7.835Z" transform="translate(-32.27 -742.78)" fill="#ffa495" fill-rule="evenodd"/>
        <path id="Trazado_153338" data-name="Trazado 153338" d="M52.545,1083.443c2.116.613,7.948.2,11.653.5,1.585.126,3.005.113,3.747,1.555.681,1.325.325,2.453-1.227,3.551a25.973,25.973,0,0,1-5.633,2.76,53.075,53.075,0,0,1-7.9,2.236c-2.6.408-3.79.573-4.762,1.325a6.961,6.961,0,0,1-3.634.877,6.409,6.409,0,0,1-4.633-3.441,12.632,12.632,0,0,1,.037-4.925,9.027,9.027,0,0,1,.27-1.043c.307-2.76,1.208-3.9,2.07-3.422a5.346,5.346,0,0,1,2.082,2.781,2.707,2.707,0,0,0,1.607,1.533,3.175,3.175,0,0,0,3.542-1.555,10.011,10.011,0,0,0,.969-2.812q0-.143,0-.285c.279-2.426,1.46-2.214,1.279-1.7A2.059,2.059,0,0,0,52.545,1083.443Z" transform="translate(-27.689 -749.549)" fill="#273087" fill-rule="evenodd"/>
        <path id="Trazado_153339" data-name="Trazado 153339" d="M128.821,1093.472c-.031.938,1.408,1.024.99,2.674.693-.678-.273-2.622-.7-2.919C128.937,1093.1,128.79,1093.058,128.821,1093.472Z" transform="translate(-89.316 -757.928)" fill="#fff" fill-rule="evenodd"/>
        <path id="Trazado_153340" data-name="Trazado 153340" d="M126.066,1045.455c.892-.349,2.886-4.318,6.286-3.931a17.374,17.374,0,0,0,5.826-.837c3.572-1.015,8.549-4.21,9.4-3.68,1.84,1.138,2,3.214.7,5.1a25.96,25.96,0,0,1-4.342,4.535,45.491,45.491,0,0,1-6.133,4.661c-1.963,1.089-2.616.99-4.014,2.883a6.573,6.573,0,0,1-3.109,1.969,7.419,7.419,0,0,1-6.078-2.281c-.681-2.2-1.858-4.278-1.1-7.574Z" transform="translate(-85.46 -718.969)" fill="#fff" fill-rule="evenodd"/>
        <path id="Trazado_153341" data-name="Trazado 153341" d="M126.885,1034.16c-.055,3.027,1.868,6.915-.144,9.325-1.346,1.61-4.029,2.68-6.253.478-1.227-1.227-1.377-4.109-2.858-7.292Z" transform="translate(-81.559 -717.036)" fill="#ffa495" fill-rule="evenodd"/>
        <path id="Trazado_153342" data-name="Trazado 153342" d="M136.283,1038.973l.613-.169c3.572-1.015,8.347-3.478,9.2-2.956,1.84,1.141,2.2,2.484.9,4.367a25.964,25.964,0,0,1-4.342,4.535,45.48,45.48,0,0,1-6.133,4.661c-1.966,1.089-2.619.994-4.017,2.883a6.56,6.56,0,0,1-3.109,1.969,7.578,7.578,0,0,1-6.167-2.294,18.16,18.16,0,0,1-1.254-5.25c-.307-2.689-.11-4.06,1.058-4.026,2.18.064,3.066,1.227,3.986,1.772,1.938,1.208,3.235-.353,3.551-2.284a11.271,11.271,0,0,0-.178-2.551c-.031-.089-.064-.178-.1-.264-.635-2.358.54-2.594.561-2.054a2.024,2.024,0,0,0,1.8,2.061A15.909,15.909,0,0,0,136.283,1038.973Z" transform="translate(-84.485 -718.157)" fill="#273087" fill-rule="evenodd"/>
        <path id="Trazado_153343" data-name="Trazado 153343" d="M199.968,1036.19c.377.859,1.714.307,2.048,1.984.331-.92-1.377-2.248-1.889-2.331C199.909,1035.81,199.762,1035.828,199.968,1036.19Z" transform="translate(-138.58 -718.195)" fill="#fff" fill-rule="evenodd"/>
        <path id="Trazado_153344" data-name="Trazado 153344" d="M8.52,601.81c7.108,8.246,7.219,8.887,21.094,17.031l2.643-5.2c-4.661-9.537-6.053-10.809-12.1-18.233a70.339,70.339,0,0,0,14.225-13.367c9.052-12.085,4.026-20.481-3.8-18.779-6.82,1.484-17.464,19.141-23.25,29.1C4.923,596.505,4.34,596.959,8.52,601.81Z" transform="translate(-3.78 -390.388)" fill-rule="evenodd" fill="url(#linear-gradient-10)"/>
        <path id="Trazado_153345" data-name="Trazado 153345" d="M58.889,594.232A69.978,69.978,0,0,0,70.775,582.58c9.052-12.085,3.763-20.239-4.057-18.537C62.649,565.281,55.369,573.917,58.889,594.232Z" transform="translate(-40.184 -390.924)" fill="#9c5fef" fill-rule="evenodd" opacity="0.35" style="mix-blend-mode: multiply;isolation: isolate"/>
        <path id="Trazado_153346" data-name="Trazado 153346" d="M93.516,746.79c.782,8.767,5.176,36.77,3.953,44.464-1.84,11.558-1.312,25.525-1.291,37.794-.307,5.155-7.4,7.85-9.463,4.575-1.656-10.966-4.014-20.57-4.971-26.663-1.073-6.82-.718-15.112,1.012-19.595-.708-4.906-4.051-17.534-6.838-26.289-1.009-3.162-6.713-13.37-.806-23.517Z" transform="translate(-50.248 -511.388)" fill-rule="evenodd" fill="url(#linear-gradient-11)"/>
        <path id="Trazado_153347" data-name="Trazado 153347" d="M127.533,1025.16c0,.92-.028,2.3-.025,3.189-.307,5.155-7.488,7.951-9.552,4.676-.123-.809-.307-1.61-.426-2.4C120.305,1033.614,125.742,1029.729,127.533,1025.16Z" transform="translate(-81.49 -710.796)" fill="#4c57b7" fill-rule="evenodd"/>
        <path id="Trazado_153348" data-name="Trazado 153348" d="M113.709,812.209c-2.312,11.591-8.847,27.077-12.416,38.733-1.858-9.988-6.507-26.985-2.487-37.411-.4-2.791-1.662-8.089-3.186-13.753,3.094-5.863.138-10.546,1.6-18.8,8.191-1.426-4.17-11.423,13.161-.9C111.928,792.525,113.384,800.363,113.709,812.209Z" transform="translate(-66.299 -537.565)" fill="#060921" fill-rule="evenodd" opacity="0.3" style="mix-blend-mode: multiply;isolation: isolate"/>
        <path id="Trazado_153349" data-name="Trazado 153349" d="M73.652,809.027c-4.722,10.7-13.44,31.677-18.077,44.8-2.4,3.487-10.95,3.122-10.935-.129,1.889-10.975,4.109-27.905,8.046-37.528a86.866,86.866,0,0,1,7.258-12.137c1.248-4.842,2.809-17.924,4.017-25-1.082-5.857-5.808-15.639,3.269-24.164,3.664,2.6,14.989,4.235,20.122,1.334C88.184,779.341,82.5,788.991,73.652,809.027Z" transform="translate(-30.952 -523.39)" fill-rule="evenodd" fill="url(#linear-gradient-12)"/>
        <path id="Trazado_153350" data-name="Trazado 153350" d="M56.147,1070.13c-.205.573-.613,1.733-.81,2.281-2.472,3.588-11.275,3.214-11.257-.135l.282-1.668C46.463,1072.749,52.81,1072.776,56.147,1070.13Z" transform="translate(-30.563 -741.976)" fill="#4c57b7" fill-rule="evenodd"/>
        <path id="Trazado_153351" data-name="Trazado 153351" d="M103.269,606.388c1.343-10.015,6.89-19.626,3.821-27.519-.659-1.693-1.812-2.511-3.119-3.56A53.665,53.665,0,0,0,97.3,571.3a1.4,1.4,0,0,1-1.411,1.043,1.543,1.543,0,0,1-1.227-2.423c-6.262-3.2-13.759-6.516-16.924-6.891-15.428-2-9.1,23.765-8.28,31.22.764,6.875-1.3,13.634.8,19.911.1.647.153,3.192.264,3.882,1.386,8.129,18.583,16.354,32.922,8.555.08-1.009,0-2.061.064-3.928-.264-1.742.488-3.612.484-4.676C103.983,613.573,102.6,611.31,103.269,606.388Z" transform="translate(-46.794 -390.302)" fill-rule="evenodd" fill="url(#linear-gradient-13)"/>
        <path id="Trazado_153352" data-name="Trazado 153352" d="M166.258,630.753c.613-2.622,1.45-5.636,2.223-8.712,1.552-6.164,2.815-12.573,1.27-16.541-.659-1.693-1.812-2.511-3.119-3.56-3.388-2.723-2.883,4.584-8.194,3.956-.846,1.128-.586,3.68-.307,6.111C159.132,620.808,163.354,633.47,166.258,630.753Z" transform="translate(-109.455 -416.933)" fill="#9c5fef" fill-rule="evenodd" opacity="0.35" style="mix-blend-mode: multiply;isolation: isolate"/>
        <path id="Trazado_153353" data-name="Trazado 153353" d="M120.107,493.428c-.307-.647-.7-.951-.708-1.242-.049-1.49,1.325-2.435.84-4.18-2.493-8.933-12.324-13.278-20.015-7.169-4.21,3.342-4.7,8.359-3.373,12.879.84,2.827,3.208,4.906,4.361,6.768a7.022,7.022,0,0,1,.445,3.576h0l-.018.117c0,.328-.031.662-.055,1,.285,4.177,7.427,4.962,12.879,5.722-.212-3.033-.874-4.379-.944-6.593-.144-.445,4.805.258,5.78-.224C120.506,503.48,120.54,494.324,120.107,493.428Z" transform="translate(-66.699 -331.417)" fill="#e7a376"/>
        <path id="Trazado_153354" data-name="Trazado 153354" d="M120.107,493.428c-.307-.647-.7-.951-.708-1.242-.049-1.49,1.325-2.435.84-4.18-2.493-8.933-12.324-13.278-20.015-7.169-4.21,3.342-4.7,8.359-3.373,12.879.84,2.827,3.208,4.906,4.361,6.768.307.494.261,4.244.285,5.253,1.276,4.8,9.813,5.934,12.962,5.158-.212-3.033-.874-4.379-.944-6.593-.144-.445,4.756.209,5.731-.276C120.457,503.447,120.54,494.324,120.107,493.428Z" transform="translate(-66.699 -331.417)" fill-rule="evenodd" fill="url(#linear-gradient-14)"/>
        <path id="Trazado_153355" data-name="Trazado 153355" d="M119.123,504.068c-.518.276-2.656.1-4.25-.518a7.256,7.256,0,0,1-1.883-1.309c-.662-.267-2.125-2.343.144-5.655,2.211-3.226-11.187,5.035-11.895,3.888-1.153-1.865-3.52-3.94-4.361-6.768-1.343-4.517-.852-9.534,3.373-12.879,7.688-6.108,17.522-1.763,20.015,7.169.485,1.745-.889,2.689-.84,4.18,0,.307.4.595.708,1.242C120.552,494.317,120.3,503.44,119.123,504.068Z" transform="translate(-66.711 -331.41)" fill-rule="evenodd" fill="url(#linear-gradient-15)"/>
        <path id="Trazado_153356" data-name="Trazado 153356" d="M145.428,537.869c-2.76-2.57-5.415,5.6-.981,5.52C142.7,541.549,144.015,538.641,145.428,537.869Z" transform="translate(-98.512 -372.585)" fill="#ffa698" fill-rule="evenodd"/>
        <path id="Trazado_153357" data-name="Trazado 153357" d="M147.5,539.568c.414-1.144.064-1.558-.438-1.435a3.22,3.22,0,0,0-1.742,2.113c-.659,1.907.285,4.321,2.128,3.373-1.585.092-1.438-1.821-.963-3C146.8,539.826,147.3,539.255,147.5,539.568Z" transform="translate(-100.61 -373.101)" fill="#ffb49c" fill-rule="evenodd"/>
        <path id="Trazado_153358" data-name="Trazado 153358" d="M149.473,544.54c.445.828.6,1.319.457,1.6-.1.2-.408.423-.92-.061A2.879,2.879,0,0,1,149.473,544.54Z" transform="translate(-103.317 -377.558)" fill="#ffa698" fill-rule="evenodd"/>
        <path id="Trazado_153359" data-name="Trazado 153359" d="M115.755,482.638l.107-.055a4.714,4.714,0,0,0,1.555-7.445c-3.02-2.68-11.214-2.4-16.409.276-5.29,2.723-6.587,9.506-5,14.826,1.052,3.545,3.612,5.394,4.891,8.08a3.22,3.22,0,0,0,3.257,1.187c3.68-.758,4.514-4.627,6.716-6.329,1.208-.935,2.453-1.184,2.907,1.365.086,1.122.1,2.26.187,3.29.126,1.619-.276,1.923,1.095,2.478a12.349,12.349,0,0,0,4.321.886c.343-.135.322-2.147.258-3.68-.138,0-.144.518-.215.509-.135-.018-.307-.052-.494-.074a5.969,5.969,0,0,1,.218-1.84,2.831,2.831,0,0,1,.613-1.377,2.333,2.333,0,0,0,.074-1.187,3.732,3.732,0,0,0-1.567,2.211,11.109,11.109,0,0,0-.408,2.012,3.832,3.832,0,0,1-1.877-.613c-.773-.892-.92-2.015-1.19-3.763-.064-3.066.071-3.53,1.668-5.826.442-.632.466-1.92-.632-4.793A.719.719,0,0,1,115.755,482.638Z" transform="translate(-66.128 -328.136)" fill-rule="evenodd" fill="url(#linear-gradient-16)"/>
        <path id="Trazado_153360" data-name="Trazado 153360" d="M139.361,479.033c-1.141,1.429-6.041-1.877-12.9-.613,1.469-4.529,2.318-5.492,4.376-6.817,2.686-1.729,7.209-1.024,8.629,1.359A5.7,5.7,0,0,1,139.361,479.033Z" transform="translate(-87.682 -326.322)" fill="#5a2d68" fill-rule="evenodd"/>
        <path id="Trazado_153361" data-name="Trazado 153361" d="M140.4,479.7c-1.018,1.276-5.388-1.674-11.5-.549,1.309-4.039,2.067-4.906,3.9-6.078,2.395-1.533,6.44-.92,7.691,1.211A5.081,5.081,0,0,1,140.4,479.7Z" transform="translate(-89.374 -327.414)" fill-rule="evenodd" fill="url(#linear-gradient-17)"/>
        <path id="Trazado_153362" data-name="Trazado 153362" d="M161.3,589.554c.754-.089,1.481-.209,2.165-.353a10.842,10.842,0,0,0-1.067-1.4A1.5,1.5,0,0,1,161.3,589.554Z" transform="translate(-111.838 -407.552)" fill="#9c5fef"/>
        <path id="Trazado_153363" data-name="Trazado 153363" d="M121.387,573.21a1.534,1.534,0,0,1,0-3.067,1.843,1.843,0,0,1,.353.034,5.726,5.726,0,0,0-1.84-1.429c-4.339.426-11.561-1.006-12.9-4.578-1.487.46-2.984,1.932-2.714,2.91,1.312,5.363,10.3,6.869,17.123,6.133Z" transform="translate(-72.287 -391.168)" fill="#9c5fef"/>
        <path id="Trazado_153364" data-name="Trazado 153364" d="M294.27,582.286c1.478-1.371,2.594-3.024,4.275-4.811,2.953-3.143,8.411-6.571,12.036-9.531,1.266-1.033,2.361,1.132,1.306,2.183s-3.845,3.649-3.855,3.655l-.129.083a6.944,6.944,0,0,1,1.588,4.238c.034,1.754-3.266,4.667-5.29,6.7-1.8,1.809-4.735.764-5.915,2.147C295.7,586.328,295.015,584.528,294.27,582.286Z" transform="translate(-204.033 -393.596)" fill-rule="evenodd" fill="url(#linear-gradient-18)"/>
        <path id="Trazado_153365" data-name="Trazado 153365" d="M182.812,616.283c3.738-3.658,9.028-8.457,12.474-10.12a14.892,14.892,0,0,0,2.852-1.315c.613-.57,1.533-1.414,1.867-1.7,1.552.481,3.471,2.665,4.695,4.75-.613.788-1.208,1.625-1.8,2.5-.442.647-.57,2.334-1.006,3.014-2.7,4.222-9.04,9.641-12.493,13.434-1.564,1.717-2.778,3.2-5.057,4.226a10.543,10.543,0,0,1-4.382-.067c-.239-.019-.478-.04-.727-.074l-.491-.4a4.455,4.455,0,0,1-1.444-1.168c-.831-.681-1.7-1.4-2.505-2.1-3.066-2.643-9.932-9.016-13.922-14.412-5.563-7.547-1.276-14.333,4.216-14.569,4.719-.2,8.525,6.035,10.993,9.2C178.314,610.331,180.825,613.606,182.812,616.283Z" transform="translate(-109.739 -414.815)" fill-rule="evenodd" fill="url(#linear-gradient-19)"/>
        <path id="Trazado_153366" data-name="Trazado 153366" d="M271.11,147.25l14.091,8.2c6.182,3.569,11.19,12.241,11.168,19.35l-.264,35.672c-.021,7.105-5.06,9.978-11.248,6.409l-13.747-8.007Z" transform="translate(-187.975 -102.096)" fill-rule="evenodd" opacity="0.5" fill="url(#linear-gradient-20)" style="mix-blend-mode: multiply;isolation: isolate"/>
        <path id="Trazado_153367" data-name="Trazado 153367" d="M61.85,47.4c0-2.165-.757-3.5.169-4.686a10.218,10.218,0,0,1,3.508-1.963c1.68-.583,3.815-.282,6.133,1.058l67.027,39.024c5.394,3.116,9.764,10.681,9.745,16.881l-.233,31.119c0,1.92-.408,4.382-1.883,5.731a8.4,8.4,0,0,1-4.259,2.036c-1.371.113-1.947-1.187-3.68-2.18L71.363,95.4c-5.4-3.119-9.761-10.681-9.745-16.881Z" transform="translate(-42.682 -28.058)" fill="#d0e7ff" fill-rule="evenodd"/>
        <path id="Trazado_153368" data-name="Trazado 153368" d="M56.893,50.389c.018-6.2,4.407-8.709,9.813-5.59l67.027,39.027c5.394,3.112,9.761,10.678,9.745,16.866l-.239,31.131c-.018,6.2-4.416,8.706-9.813,5.59L66.405,98.389c-5.4-3.119-9.764-10.681-9.745-16.881Z" transform="translate(-39.286 -30.132)" fill="#fff" fill-rule="evenodd"/>
        <path id="Trazado_153369" data-name="Trazado 153369" d="M56.681,50.251c.015-6.216,4.419-8.819,9.834-5.691l67.2,39.1c5.645,3.122,9.776,10.812,9.758,17.028l-.018,5.888L56.66,56.215Z" transform="translate(-39.286 -29.976)" fill-rule="evenodd" fill="url(#linear-gradient-21)"/>
        <path id="Trazado_153370" data-name="Trazado 153370" d="M79.541,67.678a3.638,3.638,0,0,1,2.349,3.106c.123,1.4-.733,2.291-1.907,1.981a3.647,3.647,0,0,1-2.349-3.106C77.511,68.255,78.366,67.366,79.541,67.678Z" transform="translate(-53.82 -46.882)" fill="#fff" fill-rule="evenodd"/>
        <path id="Trazado_153371" data-name="Trazado 153371" d="M101.011,80.711a3.634,3.634,0,0,1,2.349,3.109c.12,1.408-.73,2.291-1.907,1.981A3.642,3.642,0,0,1,99.1,82.695C98.981,81.29,99.836,80.4,101.011,80.711Z" transform="translate(-68.706 -55.918)" fill="#fff" fill-rule="evenodd"/>
        <path id="Trazado_153372" data-name="Trazado 153372" d="M122.492,93.75a3.643,3.643,0,0,1,2.349,3.106c.123,1.4-.733,2.294-1.91,1.981a3.638,3.638,0,0,1-2.346-3.106C120.465,94.327,121.318,93.441,122.492,93.75Z" transform="translate(-83.6 -64.959)" fill="#fff" fill-rule="evenodd"/>
        <path id="Trazado_153373" data-name="Trazado 153373" d="M77.865,127.419c6.535,1.73,12.382,9.463,13.06,17.28s-4.072,12.747-10.61,11.018-12.386-9.466-13.06-17.28S71.318,125.689,77.865,127.419Z" transform="translate(-46.588 -88.107)" fill="#6d6afd" fill-rule="evenodd" opacity="0.2"/>
        <path id="Trazado_153374" data-name="Trazado 153374" d="M90.8,149.04c3.523.92,6.676,5.1,7.053,9.316s-2.2,6.872-5.719,5.943-6.679-5.106-7.053-9.316S87.274,148.107,90.8,149.04Z" transform="translate(-58.965 -103.208)" fill-rule="evenodd" fill="url(#linear-gradient-22)"/>
        <path id="Trazado_153375" data-name="Trazado 153375" d="M156.25,175.355c0-1.653,1.178-2.3,2.619-1.447l43.676,24.774a5.841,5.841,0,0,1,2.6,4.548V206.5c0,1.656-1.178,2.306-2.616,1.45L158.85,183.181a5.846,5.846,0,0,1-2.6-4.548Z" transform="translate(-108.337 -120.318)" fill="#6d6afd" fill-rule="evenodd" opacity="0.2"/>
        <path id="Trazado_153376" data-name="Trazado 153376" d="M156.25,216.305c0-.975.7-1.358,1.533-.856l25.792,14.63a3.459,3.459,0,0,1,1.533,2.686V234.7c0,.978-.7,1.362-1.533.856l-25.789-14.63a3.444,3.444,0,0,1-1.533-2.683Z" transform="translate(-108.337 -149.229)" fill="#6d6afd" fill-rule="evenodd" opacity="0.2"/>
        <path id="Trazado_153377" data-name="Trazado 153377" d="M278.57,184.495c0-.613.438-.865.975-.555l9.316,5.011a2.146,2.146,0,0,1,.966,1.674v2.291c0,.613-.438.865-.972.555l-9.316-5a2.146,2.146,0,0,1-.969-1.677Z" transform="translate(-193.147 -127.443)" fill="#fff" fill-rule="evenodd" opacity="0.5"/>
        <path id="Trazado_153378" data-name="Trazado 153378" d="M416.778,583.005c2.965,1.711,5.7,5.786,7.93,14.075.368,1.365-.156,2.343-1.156,2.19a1.944,1.944,0,0,1-.675-.248,4.315,4.315,0,0,1-1.818-2.512c-1.533-5.762-3.021-8.3-4.425-9.117a2.488,2.488,0,0,0-.34-.166c-1.867-.708-4.186.5-6.44,1.729a1.363,1.363,0,0,1-1.358-.141,3.9,3.9,0,0,1-1.371-1.451c-.754-1.315-.736-2.714.031-3.137,2.692-1.478,5.48-2.925,8.522-1.751a7.526,7.526,0,0,1,1.1.527Z" transform="translate(-281.896 -403.564)" fill="#6bb6ff"/>
        <g id="Grupo_137072" data-name="Grupo 137072" transform="translate(108.454 100.456)" style="isolation: isolate">
          <path id="Trazado_153379" data-name="Trazado 153379" d="M410.886,405.283a59.57,59.57,0,0,1-.38,28.38c-.233.874-1.024,1.086-1.889.586a3.424,3.424,0,0,1-.478-.343,4.052,4.052,0,0,1-1.389-3.5,54.381,54.381,0,0,0,.438-25.936,57.073,57.073,0,0,0-11.524-23.137c-.135-.178-.307-.393-.5-.635A45.487,45.487,0,0,0,383.2,370.18a25.122,25.122,0,0,0-8.816-3.223,16.651,16.651,0,0,0-16.669,7.3,6.162,6.162,0,0,0-.411.586c-.35.534-1.015.567-1.7.169a3.455,3.455,0,0,1-.92-.8c-.938-1.122-1.282-2.674-.77-3.459a7.528,7.528,0,0,1,.448-.638,18.62,18.62,0,0,1,18.69-8.114,29.1,29.1,0,0,1,10.178,3.726,52.381,52.381,0,0,1,13.8,12.119l.592.727A65.878,65.878,0,0,1,410.886,405.283Z" transform="translate(-353.676 -351.289)" fill="#6bb6ff"/>
          <path id="Trazado_153380" data-name="Trazado 153380" d="M364.25,334.551c-.84-1.227-.984-2.714-.325-3.315a13.983,13.983,0,0,1,4.885-2.827c5.878-1.972,13.318-.267,20.852,4.078.356.205.711.417,1.067.632,7.838,4.775,15.725,12.386,22,21.634a79.27,79.27,0,0,1,5.553,9.552c.665,1.352.524,2.68-.307,2.959a1.534,1.534,0,0,1-1.205-.218,4.036,4.036,0,0,1-1.515-1.72,71.745,71.745,0,0,0-4.906-8.442A66.407,66.407,0,0,0,390.619,337.5c-.307-.193-.638-.383-.957-.567-6.682-3.858-13.26-5.382-18.439-3.649a12.3,12.3,0,0,0-4.229,2.453,1.284,1.284,0,0,1-1.533-.028A3.76,3.76,0,0,1,364.25,334.551Z" transform="translate(-360.495 -327.595)" fill="#6bb6ff"/>
        </g>
        <g id="Grupo_137073" data-name="Grupo 137073" transform="translate(107.363 119.834)" style="isolation: isolate">
          <path id="Trazado_153381" data-name="Trazado 153381" d="M469.466,580.792c.975,1.061,1.417,2.637.981,3.508-.331.632-1.04.714-1.782.288a3.371,3.371,0,0,1-.779-.641,37.9,37.9,0,0,1-8.194-13.493c-1.561-4.741-1.634-9.123-.187-12.4.307-.705,1.04-.813,1.809-.368a3.3,3.3,0,0,1,.714.573,3.7,3.7,0,0,1,1.067,3.517c-1.033,2.361-.994,5.471.11,8.813A29.12,29.12,0,0,0,469.466,580.792Z" transform="translate(-425.244 -506.324)" fill="#6bb6ff"/>
          <path id="Trazado_153382" data-name="Trazado 153382" d="M380.879,482.412c-5.8,4.357-13.465,7.409-18.9,7.715a1.715,1.715,0,0,1-.935-.264,4.192,4.192,0,0,1-1.7-2.147c-.515-1.38-.166-2.527.776-2.582,5.075-.307,12.3-3.2,17.832-7.341,4.419-3.306,7.7-7.314,7.7-11.2a13.615,13.615,0,0,0-.92-5.124,13.168,13.168,0,0,0-3.775-5,9.842,9.842,0,0,0-1.475-1.067c-3.468-2-5.164.978-6.89,3.986a17.8,17.8,0,0,1-3.257,4.6,21.262,21.262,0,0,1-7.562,4.155,42.857,42.857,0,0,1-8.733,1.757,1.628,1.628,0,0,1-.99-.255,4.189,4.189,0,0,1-1.662-2.048c-.543-1.365-.242-2.554.675-2.668a39.719,39.719,0,0,0,8.322-1.665,19.282,19.282,0,0,0,6.906-3.781,16.163,16.163,0,0,0,2.836-4.039c2.281-4,4.529-7.951,9.914-4.842a19.1,19.1,0,0,1,2.843,2.067,21.772,21.772,0,0,1,6.133,8.353,20.292,20.292,0,0,1,1.487,7.8C389.505,473.893,385.841,478.674,380.879,482.412Z" transform="translate(-350.119 -431.491)" fill="#6bb6ff"/>
          <path id="Trazado_153383" data-name="Trazado 153383" d="M403.615,484.615a3.929,3.929,0,0,1,1.288,3.533c-.264.8-1.033.978-1.864.5a3.181,3.181,0,0,1-.561-.42c-13.778-12.806-11.067-25.933-9.423-33.86.239-1.128.439-2.147.564-3a19.586,19.586,0,0,0-.877-8.8,31.067,31.067,0,0,0-4.906-9.04,21.268,21.268,0,0,0-6.253-5.648c-.218-.126-.432-.242-.65-.356a11.33,11.33,0,0,0-7.51-1.377c-2.3.561-3.805,2.652-5.434,4.955-2.711,3.812-5.744,8.077-13.269,8.086a1.766,1.766,0,0,1-.874-.267,4.269,4.269,0,0,1-1.733-2.22c-.466-1.38-.08-2.493.874-2.5,6.486,0,9.221-3.852,11.653-7.268,1.84-2.616,3.569-5,6.541-5.713,2.453-.595,5.894-.153,9.564,1.739.307.153.6.307.9.491a28.214,28.214,0,0,1,8.28,7.531,39.739,39.739,0,0,1,6.342,11.742,25.608,25.608,0,0,1,1.181,11.478c-.126.951-.353,2.042-.613,3.263C395.486,464.045,393.22,474.974,403.615,484.615Z" transform="translate(-351.365 -411.717)" fill="#6bb6ff"/>
          <path id="Trazado_153384" data-name="Trazado 153384" d="M407.011,460.345c.8,1.273.883,2.729.175,3.244a1.309,1.309,0,0,1-1.463-.074,3.843,3.843,0,0,1-1.27-1.276c-3.634-5.753-5.354-10.245-5.912-14.949-.518-4.425.052-8.831,1.009-14.695a25.194,25.194,0,0,0-1.242-12.039,46.37,46.37,0,0,0-7.215-13.085,33.676,33.676,0,0,0-9.837-8.874l-.512-.288c-4.1-2.254-7.973-2.974-10.6-2.337-2.849.687-5.1,3.005-7.36,5.29-2.557,2.637-5.115,5.241-8.718,5.826a1.638,1.638,0,0,1-1.052-.248,4.161,4.161,0,0,1-1.628-1.966c-.567-1.368-.307-2.594.613-2.741,2.984-.481,5.308-2.867,7.666-5.268,2.432-2.493,4.879-4.992,8.249-5.8,3.22-.773,7.859.071,12.766,2.76.193.1.386.215.583.325A41.023,41.023,0,0,1,393.2,404.93a54.968,54.968,0,0,1,8.608,15.725,31.131,31.131,0,0,1,1.567,14.872c-.892,5.486-1.426,9.561-.978,13.333C402.8,452.35,404.138,455.8,407.011,460.345Z" transform="translate(-350.789 -390.786)" fill="#6bb6ff"/>
        </g>
        <path id="Trazado_153385" data-name="Trazado 153385" d="M379.217,499.235a37.886,37.886,0,0,1-14.845,5.655,1.637,1.637,0,0,1-1.036-.255,4.177,4.177,0,0,1-1.631-1.969c-.567-1.365-.307-2.594.613-2.726a36.058,36.058,0,0,0,14.106-5.391c6.09-3.937,9.307-8.368,9.472-9.426.159-.994.987-1.294,1.917-.757a3.5,3.5,0,0,1,.307.212,4.148,4.148,0,0,1,1.588,3.49C389.459,489.459,385.866,494.939,379.217,499.235Z" transform="translate(-250.582 -335.653)" fill="#6bb6ff"/>
        <path id="Trazado_153386" data-name="Trazado 153386" d="M346.072,491.242c2.331.613,4.416,3.373,4.655,6.161s-1.45,4.545-3.781,3.928-4.416-3.373-4.658-6.161S343.741,490.625,346.072,491.242Z" transform="translate(-237.31 -340.518)" fill="#2dffff" fill-rule="evenodd" opacity="0.2"/>
        <path id="Trazado_153387" data-name="Trazado 153387" d="M349.167,496.388a4.987,4.987,0,0,1,3.223,4.266c.156,1.929-1.006,3.146-2.619,2.72a4.987,4.987,0,0,1-3.223-4.265C346.392,497.179,347.551,495.961,349.167,496.388Z" transform="translate(-240.27 -344.112)" fill="#2dffff" fill-rule="evenodd" opacity="0.2"/>
        <path id="Trazado_153388" data-name="Trazado 153388" d="M352.261,501.554a2.772,2.772,0,0,1,1.785,2.364c.092,1.07-.558,1.742-1.45,1.506a2.772,2.772,0,0,1-1.785-2.361C350.718,502,351.365,501.318,352.261,501.554Z" transform="translate(-243.229 -347.721)" fill="#2dffff" fill-rule="evenodd"/>
        <path id="Trazado_153389" data-name="Trazado 153389" d="M404.3,458.452c2.331.613,4.416,3.373,4.658,6.161s-1.453,4.545-3.784,3.928-4.416-3.373-4.658-6.161S401.971,457.835,404.3,458.452Z" transform="translate(-277.684 -317.783)" fill="#2dffff" fill-rule="evenodd" opacity="0.2"/>
        <path id="Trazado_153390" data-name="Trazado 153390" d="M407.4,463.6a4.987,4.987,0,0,1,3.223,4.265c.156,1.929-1.006,3.146-2.619,2.72a4.987,4.987,0,0,1-3.223-4.266C404.622,464.389,405.784,463.171,407.4,463.6Z" transform="translate(-280.644 -321.377)" fill="#2dffff" fill-rule="evenodd" opacity="0.2"/>
        <path id="Trazado_153391" data-name="Trazado 153391" d="M410.491,468.764a2.772,2.772,0,0,1,1.785,2.364c.092,1.07-.555,1.742-1.45,1.506a2.767,2.767,0,0,1-1.785-2.361C408.948,469.205,409.6,468.528,410.491,468.764Z" transform="translate(-283.603 -324.986)" fill="#2dffff" fill-rule="evenodd"/>
        <path id="Trazado_153392" data-name="Trazado 153392" d="M462.28,484.783c2.331.613,4.416,3.373,4.658,6.161s-1.453,4.554-3.784,3.94-4.416-3.373-4.655-6.161S459.949,484.167,462.28,484.783Z" transform="translate(-317.886 -336.04)" fill="#2dffff" fill-rule="evenodd" opacity="0.2"/>
        <path id="Trazado_153393" data-name="Trazado 153393" d="M465.367,489.928a4.987,4.987,0,0,1,3.223,4.265c.156,1.929-1,3.146-2.619,2.72a4.982,4.982,0,0,1-3.223-4.266C462.592,490.719,463.754,489.5,465.367,489.928Z" transform="translate(-320.838 -339.633)" fill="#2dffff" fill-rule="evenodd" opacity="0.2"/>
        <path id="Trazado_153394" data-name="Trazado 153394" d="M468.461,495.093a2.772,2.772,0,0,1,1.785,2.364c.092,1.07-.555,1.742-1.451,1.506a2.767,2.767,0,0,1-1.785-2.364C466.918,495.529,467.568,494.857,468.461,495.093Z" transform="translate(-323.797 -343.241)" fill="#2dffff" fill-rule="evenodd"/>
        <path id="Trazado_153395" data-name="Trazado 153395" d="M397.54,514.562c2.331.613,4.416,3.373,4.658,6.161s-1.453,4.545-3.784,3.928-4.416-3.373-4.655-6.161S395.209,513.945,397.54,514.562Z" transform="translate(-272.998 -356.687)" fill="#2dffff" fill-rule="evenodd" opacity="0.2"/>
        <path id="Trazado_153396" data-name="Trazado 153396" d="M400.627,519.708a4.987,4.987,0,0,1,3.223,4.265c.156,1.929-1,3.146-2.619,2.72a4.982,4.982,0,0,1-3.223-4.266C397.852,520.5,399.014,519.281,400.627,519.708Z" transform="translate(-275.95 -360.281)" fill="#2dffff" fill-rule="evenodd" opacity="0.2"/>
        <path id="Trazado_153397" data-name="Trazado 153397" d="M403.7,524.889a2.772,2.772,0,0,1,1.785,2.361c.092,1.067-.555,1.745-1.45,1.509a2.767,2.767,0,0,1-1.785-2.364C402.159,525.324,402.815,524.647,403.7,524.889Z" transform="translate(-278.895 -363.898)" fill="#2dffff" fill-rule="evenodd"/>
        <path id="Trazado_153398" data-name="Trazado 153398" d="M376.632,556.172c2.331.613,4.416,3.373,4.655,6.161s-1.45,4.545-3.781,3.928-4.416-3.373-4.658-6.161S374.3,555.555,376.632,556.172Z" transform="translate(-258.499 -385.537)" fill="#2dffff" fill-rule="evenodd" opacity="0.2"/>
        <path id="Trazado_153399" data-name="Trazado 153399" d="M379.727,561.318a4.987,4.987,0,0,1,3.223,4.265c.156,1.929-1.006,3.146-2.619,2.72a4.987,4.987,0,0,1-3.223-4.266C376.952,562.109,378.114,560.891,379.727,561.318Z" transform="translate(-261.459 -389.131)" fill="#2dffff" fill-rule="evenodd" opacity="0.2"/>
        <path id="Trazado_153400" data-name="Trazado 153400" d="M382.821,566.483a2.772,2.772,0,0,1,1.785,2.361c.092,1.067-.558,1.745-1.45,1.509a2.772,2.772,0,0,1-1.785-2.364C381.278,566.919,381.925,566.247,382.821,566.483Z" transform="translate(-264.418 -392.739)" fill="#2dffff" fill-rule="evenodd"/>
        <path id="Trazado_153401" data-name="Trazado 153401" d="M456.972,549.723c2.327.613,4.413,3.373,4.655,6.161s-1.46,4.541-3.781,3.925-4.416-3.373-4.658-6.161S454.648,549.11,456.972,549.723Z" transform="translate(-314.203 -381.066)" fill="#2dffff" fill-rule="evenodd" opacity="0.2"/>
        <path id="Trazado_153402" data-name="Trazado 153402" d="M460.046,554.858a4.99,4.99,0,0,1,3.226,4.266c.159,1.929-1.006,3.146-2.619,2.72a5,5,0,0,1-3.226-4.266C457.268,555.649,458.436,554.431,460.046,554.858Z" transform="translate(-317.148 -384.652)" fill="#2dffff" fill-rule="evenodd" opacity="0.2"/>
        <path id="Trazado_153403" data-name="Trazado 153403" d="M463.151,560.023a2.77,2.77,0,0,1,1.788,2.361c.092,1.067-.558,1.745-1.45,1.509a2.779,2.779,0,0,1-1.788-2.364C461.608,560.462,462.258,559.787,463.151,560.023Z" transform="translate(-320.115 -388.26)" fill="#2dffff" fill-rule="evenodd"/>
        <path id="Trazado_153404" data-name="Trazado 153404" d="M480.4,618.442c2.331.613,4.416,3.373,4.658,6.161s-1.454,4.544-3.784,3.928-4.416-3.373-4.655-6.161S478.069,617.825,480.4,618.442Z" transform="translate(-330.449 -428.712)" fill="#2dffff" fill-rule="evenodd" opacity="0.2"/>
        <path id="Trazado_153405" data-name="Trazado 153405" d="M483.487,623.588a5,5,0,0,1,3.226,4.266c.159,1.929-1.006,3.146-2.622,2.72a4.982,4.982,0,0,1-3.223-4.265C480.712,624.379,481.874,623.161,483.487,623.588Z" transform="translate(-333.401 -432.306)" fill="#2dffff" fill-rule="evenodd" opacity="0.2"/>
        <path id="Trazado_153406" data-name="Trazado 153406" d="M486.581,628.754a2.767,2.767,0,0,1,1.785,2.364c.092,1.07-.555,1.742-1.45,1.506a2.767,2.767,0,0,1-1.785-2.361C485.039,629.2,485.7,628.518,486.581,628.754Z" transform="translate(-336.36 -435.915)" fill="#2dffff" fill-rule="evenodd"/>
        <path id="Trazado_153407" data-name="Trazado 153407" d="M503.812,567.841c2.331.613,4.416,3.373,4.655,6.161s-1.45,4.535-3.781,3.922-4.416-3.373-4.658-6.161S501.481,567.224,503.812,567.841Z" transform="translate(-346.679 -393.628)" fill="#2dffff" fill-rule="evenodd" opacity="0.2"/>
        <path id="Trazado_153408" data-name="Trazado 153408" d="M506.9,572.988a4.987,4.987,0,0,1,3.223,4.266c.156,1.929-1.006,3.146-2.619,2.72a5,5,0,0,1-3.226-4.266C504.118,573.779,505.283,572.561,506.9,572.988Z" transform="translate(-349.631 -397.223)" fill="#2dffff" fill-rule="evenodd" opacity="0.2"/>
        <path id="Trazado_153409" data-name="Trazado 153409" d="M509.993,578.154a2.772,2.772,0,0,1,1.785,2.361c.092,1.067-.558,1.745-1.45,1.506a2.784,2.784,0,0,1-1.788-2.361C508.444,578.592,509.1,577.917,509.993,578.154Z" transform="translate(-352.59 -400.831)" fill="#2dffff" fill-rule="evenodd"/>
        <path id="Trazado_153410" data-name="Trazado 153410" d="M507.592,493.062c2.331.613,4.416,3.373,4.655,6.161s-1.45,4.545-3.781,3.928-4.416-3.373-4.658-6.158S505.261,492.446,507.592,493.062Z" transform="translate(-349.3 -341.78)" fill="#2dffff" fill-rule="evenodd" opacity="0.2"/>
        <path id="Trazado_153411" data-name="Trazado 153411" d="M510.687,498.206a4.991,4.991,0,0,1,3.223,4.266c.156,1.929-1.006,3.149-2.619,2.72a4.991,4.991,0,0,1-3.223-4.265C507.912,499,509.071,497.776,510.687,498.206Z" transform="translate(-352.26 -345.372)" fill="#2dffff" fill-rule="evenodd" opacity="0.2"/>
        <path id="Trazado_153412" data-name="Trazado 153412" d="M513.781,503.384a2.771,2.771,0,0,1,1.785,2.361c.092,1.067-.558,1.742-1.45,1.506a2.772,2.772,0,0,1-1.785-2.361C512.238,503.822,512.885,503.147,513.781,503.384Z" transform="translate(-355.219 -348.989)" fill="#2dffff" fill-rule="evenodd"/>
        <path id="Trazado_153413" data-name="Trazado 153413" d="M470.442,411.8c2.331.613,4.416,3.373,4.658,6.161s-1.454,4.548-3.784,3.934-4.416-3.373-4.658-6.161S468.111,411.186,470.442,411.8Z" transform="translate(-323.542 -285.438)" fill="#2dffff" fill-rule="evenodd" opacity="0.2"/>
        <path id="Trazado_153414" data-name="Trazado 153414" d="M473.573,416.947a4.991,4.991,0,0,1,3.223,4.266c.156,1.929-1.006,3.149-2.619,2.72a4.967,4.967,0,0,1-3.208-4.269C470.82,417.732,471.96,416.521,473.573,416.947Z" transform="translate(-326.539 -289.032)" fill="#2dffff" fill-rule="evenodd" opacity="0.2"/>
        <path id="Trazado_153415" data-name="Trazado 153415" d="M476.631,422.121a2.772,2.772,0,0,1,1.785,2.361c.092,1.067-.555,1.742-1.45,1.506a2.767,2.767,0,0,1-1.785-2.361C475.088,422.56,475.732,421.882,476.631,422.121Z" transform="translate(-329.461 -292.645)" fill="#2dffff" fill-rule="evenodd"/>
        <path id="Trazado_153416" data-name="Trazado 153416" d="M426.3,413.082c2.331.613,4.416,3.373,4.655,6.161s-1.45,4.545-3.781,3.928-4.416-3.373-4.658-6.161S423.971,412.465,426.3,413.082Z" transform="translate(-292.938 -286.325)" fill="#2dffff" fill-rule="evenodd" opacity="0.2"/>
        <path id="Trazado_153417" data-name="Trazado 153417" d="M429.389,418.221a4.987,4.987,0,0,1,3.223,4.265c.156,1.929-1.006,3.146-2.619,2.72a5,5,0,0,1-3.226-4.266C426.608,419.013,427.773,417.786,429.389,418.221Z" transform="translate(-295.89 -289.914)" fill="#2dffff" fill-rule="evenodd" opacity="0.2"/>
        <path id="Trazado_153418" data-name="Trazado 153418" d="M432.483,423.394a2.772,2.772,0,0,1,1.785,2.364c.092,1.07-.558,1.742-1.45,1.506a2.78,2.78,0,0,1-1.788-2.361C430.934,423.835,431.587,423.158,432.483,423.394Z" transform="translate(-298.849 -293.528)" fill="#2dffff" fill-rule="evenodd"/>
        <path id="Trazado_153419" data-name="Trazado 153419" d="M343.62,418.272c2.331.613,4.416,3.373,4.658,6.161s-1.454,4.545-3.784,3.928-4.416-3.373-4.655-6.161S341.289,417.655,343.62,418.272Z" transform="translate(-235.613 -289.924)" fill="#2dffff" fill-rule="evenodd" opacity="0.2"/>
        <path id="Trazado_153420" data-name="Trazado 153420" d="M346.707,423.418a4.987,4.987,0,0,1,3.223,4.265c.156,1.929-1,3.146-2.619,2.72a4.982,4.982,0,0,1-3.223-4.266C343.932,424.209,345.094,422.991,346.707,423.418Z" transform="translate(-238.565 -293.518)" fill="#2dffff" fill-rule="evenodd" opacity="0.2"/>
        <path id="Trazado_153421" data-name="Trazado 153421" d="M349.8,428.584a2.767,2.767,0,0,1,1.785,2.361c.092,1.067-.555,1.745-1.45,1.509a2.771,2.771,0,0,1-1.785-2.364C348.258,429.022,348.908,428.347,349.8,428.584Z" transform="translate(-241.524 -297.126)" fill="#2dffff" fill-rule="evenodd"/>
        <path id="Trazado_153422" data-name="Trazado 153422" d="M362.8,327.724c2.331.613,4.416,3.373,4.658,6.161s-1.454,4.545-3.784,3.928-4.416-3.373-4.655-6.161S360.469,327.11,362.8,327.724Z" transform="translate(-248.911 -227.143)" fill="#2dffff" fill-rule="evenodd" opacity="0.2"/>
        <path id="Trazado_153423" data-name="Trazado 153423" d="M365.886,332.868a5,5,0,0,1,3.226,4.265c.159,1.929-1.006,3.146-2.619,2.72a5,5,0,0,1-3.226-4.266C363.108,333.659,364.273,332.441,365.886,332.868Z" transform="translate(-251.862 -230.735)" fill="#2dffff" fill-rule="evenodd" opacity="0.2"/>
        <path id="Trazado_153424" data-name="Trazado 153424" d="M368.981,338.033a2.775,2.775,0,0,1,1.788,2.361c.1,1.067-.558,1.745-1.454,1.509a2.767,2.767,0,0,1-1.785-2.364C367.438,338.469,368.088,337.8,368.981,338.033Z" transform="translate(-254.822 -234.343)" fill="#2dffff" fill-rule="evenodd"/>
        <path id="Trazado_153425" data-name="Trazado 153425" d="M460.87,348.922c2.331.613,4.416,3.373,4.658,6.161s-1.453,4.545-3.784,3.928-4.416-3.373-4.655-6.161S458.539,348.305,460.87,348.922Z" transform="translate(-316.908 -241.84)" fill="#2dffff" fill-rule="evenodd" opacity="0.2"/>
        <path id="Trazado_153426" data-name="Trazado 153426" d="M463.957,354.068a4.987,4.987,0,0,1,3.223,4.265c.156,1.929-1,3.146-2.619,2.72a4.982,4.982,0,0,1-3.223-4.266C461.182,354.859,462.344,353.641,463.957,354.068Z" transform="translate(-319.86 -245.434)" fill="#2dffff" fill-rule="evenodd" opacity="0.2"/>
        <path id="Trazado_153427" data-name="Trazado 153427" d="M467.051,359.233a2.771,2.771,0,0,1,1.785,2.361c.092,1.067-.555,1.745-1.45,1.509a2.771,2.771,0,0,1-1.785-2.364C465.508,359.672,466.159,359,467.051,359.233Z" transform="translate(-322.819 -249.042)" fill="#2dffff" fill-rule="evenodd"/>
        <path id="Trazado_153428" data-name="Trazado 153428" d="M525.572,429.932c2.33.613,4.416,3.373,4.655,6.161s-1.45,4.545-3.781,3.928-4.416-3.373-4.658-6.161S523.241,429.315,525.572,429.932Z" transform="translate(-361.767 -298.008)" fill="#2dffff" fill-rule="evenodd" opacity="0.2"/>
        <path id="Trazado_153429" data-name="Trazado 153429" d="M528.656,435.078a4.994,4.994,0,0,1,3.226,4.266c.159,1.929-1.006,3.146-2.619,2.72a5,5,0,0,1-3.226-4.266C525.878,435.869,527.043,434.651,528.656,435.078Z" transform="translate(-364.719 -301.603)" fill="#2dffff" fill-rule="evenodd" opacity="0.2"/>
        <path id="Trazado_153430" data-name="Trazado 153430" d="M531.753,440.251a2.771,2.771,0,0,1,1.785,2.361c.092,1.067-.558,1.742-1.45,1.506a2.779,2.779,0,0,1-1.788-2.361C530.2,440.69,530.857,440.012,531.753,440.251Z" transform="translate(-367.678 -305.216)" fill="#2dffff" fill-rule="evenodd"/>
        <path id="Trazado_153431" data-name="Trazado 153431" d="M530.88,527.812c2.331.613,4.416,3.373,4.658,6.161s-1.453,4.544-3.784,3.931-4.416-3.373-4.655-6.161S528.549,527.2,530.88,527.812Z" transform="translate(-365.449 -365.874)" fill="#2dffff" fill-rule="evenodd" opacity="0.2"/>
        <path id="Trazado_153432" data-name="Trazado 153432" d="M533.967,532.958a4.991,4.991,0,0,1,3.223,4.265c.156,1.929-1,3.146-2.619,2.72a4.982,4.982,0,0,1-3.223-4.265C531.192,533.749,532.354,532.531,533.967,532.958Z" transform="translate(-368.402 -369.468)" fill="#2dffff" fill-rule="evenodd" opacity="0.2"/>
        <path id="Trazado_153433" data-name="Trazado 153433" d="M537.061,538.131a2.766,2.766,0,0,1,1.785,2.361c.092,1.067-.555,1.742-1.451,1.506a2.767,2.767,0,0,1-1.785-2.361C535.518,538.57,536.168,537.892,537.061,538.131Z" transform="translate(-371.36 -373.081)" fill="#2dffff" fill-rule="evenodd"/>
        <path id="Trazado_153434" data-name="Trazado 153434" d="M402.89,348.922c2.331.613,4.416,3.373,4.658,6.161s-1.454,4.545-3.784,3.928-4.416-3.373-4.655-6.161S400.559,348.305,402.89,348.922Z" transform="translate(-276.708 -241.84)" fill="#2dffff" fill-rule="evenodd" opacity="0.2"/>
        <path id="Trazado_153435" data-name="Trazado 153435" d="M405.977,354.068a4.987,4.987,0,0,1,3.223,4.265c.156,1.929-1,3.146-2.619,2.72a4.982,4.982,0,0,1-3.223-4.266C403.2,354.859,404.364,353.641,405.977,354.068Z" transform="translate(-279.66 -245.434)" fill="#2dffff" fill-rule="evenodd" opacity="0.2"/>
        <path id="Trazado_153436" data-name="Trazado 153436" d="M409.071,359.233a2.772,2.772,0,0,1,1.785,2.361c.092,1.067-.555,1.745-1.451,1.509a2.771,2.771,0,0,1-1.785-2.364C407.528,359.672,408.178,359,409.071,359.233Z" transform="translate(-282.619 -249.042)" fill="#2dffff" fill-rule="evenodd"/>
        <path id="Trazado_153437" data-name="Trazado 153437" d="M493.835,75.1l-1.242,2.165-4.333-2.484L489.5,72.61Zm26.544,272.357,1.242-2.165,4.333,2.484-1.233,2.168Zm-6.032-6,4.333,2.484-1.227,2.165-3.067-1.748Zm16.866,12.211,1.227-2.168,4.33,2.487-1.227,2.165Zm10.828,6.21,1.242-2.165,4.33,2.484-1.242,2.165Zm10.843,6.21,1.227-2.165,4.333,2.484-1.227,2.168Zm10.828,6.213,1.242-2.165,4.333,2.484-1.242,2.165Zm23.443,9.656a8.872,8.872,0,0,0,4.778-3.094l-1.953-1.555a6.345,6.345,0,0,1-3.459,2.232l.635,2.416Zm7.433-10.779c.1-1.671.043-3.4.046-5.063h-2.5c0,1.619.055,3.3-.043,4.906l2.493.147Zm.058-12.554h-2.511v-5h2.5v4.992Zm.021-12.484h-2.5v-4.992h2.5Zm.024-12.484h-2.5v-4.992h2.5v4.992Zm.022-12.484h-2.5v-4.992h2.5v4.992Zm.021-12.481h-2.5V303.7h2.5v5Zm.021-12.484h-2.5v-4.992h2.5v5Zm.022-12.484h-2.5v-5h2.5v5Zm.021-12.484h-2.512v-5h2.5v5Zm.022-12.484h-2.5v-5h2.5v4.992Zm.021-12.484h-2.5v-5h2.5v4.992Zm.018-12.484h-2.511V228.8h2.5v4.992Zm.022-12.484h-2.5v-4.992h2.5Zm.012-12.484h-2.5v-4.992h2.5Zm.021-12.481h-2.5v-4.992h2.5v5Zm.022-12.484h-2.5v-4.992h2.5v5Zm.021-12.484h-2.5V166.38h2.5v5Zm.018-12.484h-2.5v-5h2.5v4.992Zm-.641-12.711a33.21,33.21,0,0,0-1.515-4.952l-2.324.92a31.17,31.17,0,0,1,1.4,4.6l2.435-.543Zm-5.029-11.837a38.176,38.176,0,0,0-3.067-4.146l-1.9,1.625a34.376,34.376,0,0,1,2.867,3.876Zm-8.8-9.423c-.564-.393-1.128-.751-1.72-1.1l.037.021-2.689-1.533-1.227,2.165c1.414.81,2.855,1.576,4.195,2.505l1.42-2.051Zm-10.868-6.348-1.245,2.168-4.33-2.487,1.227-2.165,4.333,2.484Zm-10.831-6.21-1.227,2.165-4.33-2.484,1.242-2.165,4.33,2.484Zm-10.834-6.207-1.227,2.165-4.348-2.472,1.227-2.168Zm-10.828-6.213-1.242,2.165-4.333-2.484,1.227-2.165,4.333,2.484Zm-10.828-6.21L525.076,95.9l-4.33-2.484,1.227-2.165,4.333,2.484Zm-10.831-6.213-1.227,2.168-4.33-2.487,1.242-2.165,4.33,2.484Zm-10.828-6.2-1.227,2.165L499.106,81l1.227-2.165Z" transform="translate(-338.536 -50.344)" fill="#fff" fill-rule="evenodd"/>
        <path id="Trazado_153438" data-name="Trazado 153438" d="M562.577,356.776c.018-6.483,4.6-9.1,10.257-5.845l30.806,17.786v88.389l-4.906,1.533L572.5,443.613c-5.648-3.26-10.211-11.168-10.193-17.651Z" transform="translate(-389.879 -242.347)" fill-rule="evenodd" opacity="0.5" fill="url(#linear-gradient-23)" style="mix-blend-mode: multiply;isolation: isolate"/>
        <path id="Trazado_153439" data-name="Trazado 153439" d="M584.368,356.448c0-1.653-1.288-3-.718-4.057.613-1.147,3.171-1.84,4.266-2.2a7.1,7.1,0,0,1,5.633,1.027l86.475,49.913c5.051,2.916,9.138,10,9.123,15.8l-.218,61.943c0,2.843-1,4.857-2.606,5.826-.978.592-3.738,1.677-5.09,1.444-.951-.166-.423-1.426-1.487-2.039L593.27,434.187c-5.057-2.919-9.138-10-9.123-15.8Z" transform="translate(-404.574 -242.645)" fill-rule="evenodd" fill="url(#linear-gradient-24)"/>
        <path id="Trazado_153440" data-name="Trazado 153440" d="M578.458,359.114c.015-5.8,4.128-8.151,9.181-5.231L674.115,403.8c5.051,2.916,9.138,10,9.123,15.8l-.19,61.937c-.018,5.8-4.134,8.148-9.2,5.231L587.373,436.85c-5.057-2.919-9.138-10-9.123-15.8Z" transform="translate(-400.931 -244.495)" fill-rule="evenodd" fill="url(#linear-gradient-25)"/>
        <path id="Trazado_153441" data-name="Trazado 153441" d="M596.11,387.749c0-2.376,1.69-3.339,3.763-2.147l21.37,12.266a8.236,8.236,0,0,1,3.738,6.47l.107,23.52c0,2.377-1.693,3.339-3.763,2.147l-21.37-12.266a8.239,8.239,0,0,1-3.738-6.473Z" transform="translate(-413.314 -267.003)" fill-rule="evenodd" fill="url(#linear-gradient-26)"/>
        <path id="Trazado_153442" data-name="Trazado 153442" d="M596.12,516.409c0-1.19.846-1.659,1.883-1.043L683.846,564a4.22,4.22,0,0,1,1.874,3.275v2.37c0,1.193-.849,1.659-1.886,1.043l-85.843-48.647a4.21,4.21,0,0,1-1.871-3.278Z" transform="translate(-413.321 -357.142)" fill="#fff" fill-rule="evenodd" opacity="0.5"/>
        <path id="Trazado_153443" data-name="Trazado 153443" d="M596.12,561.2c0-1.193.846-1.659,1.883-1.043l85.843,48.635a4.22,4.22,0,0,1,1.874,3.278v2.358c0,1.19-.849,1.659-1.886,1.043l-85.843-48.638a4.207,4.207,0,0,1-1.871-3.275Z" transform="translate(-413.321 -388.195)" fill="#fff" fill-rule="evenodd" opacity="0.5"/>
        <path id="Trazado_153444" data-name="Trazado 153444" d="M475.5,5.425a14.115,14.115,0,0,1,4.906,4.652c-.015-.353-.034.941-.021-1.061s-1.138-5.231.429-6.851A16.834,16.834,0,0,1,485.183.157a6.489,6.489,0,0,1,4.732.828,18.026,18.026,0,0,1,6.706,7.577,31.553,31.553,0,0,1,2.8,10.99c0,2.024,0,.7-.028,1.04,1.457-.439,2.76-.432,5.02.813s5.09,4.324,6.847,7.728a25.292,25.292,0,0,1,2.879,11.174,11.805,11.805,0,0,1-1.791,6.841c-1.135,1.607-3.346,2.57-4.906,3.088-4.48,1.558-13.122-7.528-17.681-10.119l-14.44-8.169a17.9,17.9,0,0,1-6.624-7.651,24.61,24.61,0,0,1-2.646-10.9c.018-2.128-1.533-5.32.478-6.851C469.651,4.189,473.009,4.039,475.5,5.425Z" transform="translate(-322.751 -0.001)" fill="#8d6dfc" fill-rule="evenodd"/>
        <path id="Trazado_153445" data-name="Trazado 153445" d="M468.462,9.015a14.116,14.116,0,0,1,4.906,4.652c-.018-.353-.037.941-.025-1.061s1.095-6.369,2.815-7.823,4.091-1.644,6.713-.209a17.868,17.868,0,0,1,6.719,7.577,31.722,31.722,0,0,1,2.8,10.99c0,2.024,0,.7-.031,1.04,1.46-.439,2.76-.432,5.023.813s5.09,4.324,6.851,7.737a25.265,25.265,0,0,1,2.882,11.174c.009,3.753-1.085,6.55-2.852,8.022s-4.2,1.6-6.884.086l-14.646-8.28-14.44-8.169a17.886,17.886,0,0,1-6.627-7.666A24.7,24.7,0,0,1,459,17c.028-3.643,1.1-6.348,2.809-7.792S466.273,7.8,468.462,9.015Z" transform="translate(-318.247 -2.49)" fill-rule="evenodd" fill="url(#linear-gradient-27)"/>
        <path id="Trazado_153446" data-name="Trazado 153446" d="M496.2,54.1l-4.492-2.591,7.065,12.232,7.105-4.054-4.489-2.591.015-11.518-5.192-3Z" transform="translate(-340.928 -29.523)" fill="#fff" fill-rule="evenodd"/>
        <path id="Trazado_153447" data-name="Trazado 153447" d="M535.221,74.611,539.71,77.2,532.648,64.97l-7.108,4.051,4.489,2.591-.012,11.518,5.189,3Z" transform="translate(-364.384 -45.047)" fill="#fff" fill-rule="evenodd"/>
        <g id="Grupo_137074" data-name="Grupo 137074" transform="translate(182.482 224.16)" opacity="0.5" style="mix-blend-mode: multiply;isolation: isolate">
          <path id="Trazado_153448" data-name="Trazado 153448" d="M621.737,731c5.213,10.144,4.449,57.423,4.471,68.714-.435.408-3.011,1.736-4.885,2.965-13.879-12.358-29.8-43.087-25.535-68.147C603.847,736.032,615.831,735.014,621.737,731Z" transform="translate(-595.084 -731)" opacity="0.5" fill="url(#linear-gradient-28)" style="mix-blend-mode: multiply;isolation: isolate"/>
        </g>
        <path id="Trazado_153449" data-name="Trazado 153449" d="M627.156,728.19c4.818,9.359,16.961,25.317,23.814,31.965,2.545,21.919-12.6,35.878-24.02,35.3-11.386-12.573-26.4-43.961-23.741-62.863C610.64,733.958,621.7,731.888,627.156,728.19Z" transform="translate(-418.022 -504.892)" fill="#fff"/>
        <path id="Trazado_153450" data-name="Trazado 153450" d="M633.482,740.84c4.262,8.28,15,22.385,21.07,28.279,2.251,19.389-11.147,31.754-21.251,31.232-10.073-11.128-23.357-38.9-21-55.626C618.861,745.946,628.647,744.112,633.482,740.84Z" transform="translate(-424.348 -513.662)" fill="url(#linear-gradient-29)"/>
        <path id="Trazado_153451" data-name="Trazado 153451" d="M649,816.312c-6.952-4.02-13.017-13.493-13.548-21.177s4.67-10.65,11.622-6.63S660.092,802,660.623,809.682,655.949,820.329,649,816.312Z" transform="translate(-440.569 -545.468)" fill="#fff" fill-rule="evenodd"/>
        <path id="Trazado_153452" data-name="Trazado 153452" d="M660.146,820.05l1.843.92L653.8,833.429l-7.225-10.714,2.38.929,3.815,3.625Z" transform="translate(-448.308 -568.583)" fill-rule="evenodd" fill="url(#linear-gradient-30)"/>
      </g>
    </g>
    <g id="Grupo_137075" data-name="Grupo 137075">
      <rect id="Rectngulo_35796" data-name="Rectngulo 35796" width="505" height="375" transform="translate(180 13345)" fill="none"/>
    </g>
  </g>
</svg>
