<svg xmlns="http://www.w3.org/2000/svg" xmlns:xlink="http://www.w3.org/1999/xlink" width="610" height="454.662" viewBox="0 0 610 454.662">
  <defs>
    <clipPath id="clip-path">
      <path id="Trazado_152930" data-name="Trazado 152930" d="M220.63,263.77l-20.73,12-12.74,7.34c-.41.21-.81.45-1.2.7a16.91,16.91,0,0,0-8.09,14.53v59.55A16.85,16.85,0,0,1,171,371.52,17.26,17.26,0,0,1,160.72,375a17,17,0,0,1-8.52-2.31,51.33,51.33,0,0,1-25.65-44.44V266.46A51.334,51.334,0,0,0,100.882,222L195,167.71h0a51.38,51.38,0,0,1,25.67,44.46v26.9C220.64,246.77,220.63,263.77,220.63,263.77Z" fill="none"/>
    </clipPath>
  </defs>
  <g id="Grupo_137178" data-name="Grupo 137178" transform="translate(-180 -3939.587)">
    <rect id="Rectángulo_35640" data-name="Rectángulo 35640" width="610" height="213.185" transform="translate(180 4166.918)" fill="#dad6f7"/>
    <g id="Data_report-amico" data-name="Data report-amico" transform="translate(235 3923.87)">
      <g id="freepik--Shadows--inject-2">
        <ellipse id="freepik--Shadow--inject-2" cx="43.59" cy="25.17" rx="43.59" ry="25.17" transform="translate(349.66 314.8)" fill="#e0e0e0"/>
        <path id="freepik--shadow--inject-2-2" data-name="freepik--shadow--inject-2" d="M115,357.81,309.98,470.38l89.37-51.59L204.32,306.19Z" fill="#8a7cbf"/>
        <path id="freepik--shadow--inject-2-3" data-name="freepik--shadow--inject-2" d="M80.34,380,40,356.71a1.32,1.32,0,0,1,0-2.5l141.9-81.93a4.79,4.79,0,0,1,4.33,0l40.35,23.3a1.32,1.32,0,0,1,0,2.5L84.67,380a4.79,4.79,0,0,1-4.33,0Z" fill="#8a7cbf"/>
      </g>
      <g id="freepik--Device--inject-2">
        <g id="freepik--device--inject-2-2" data-name="freepik--device--inject-2">
          <g id="freepik--device--inject-2-3" data-name="freepik--device--inject-2">
            <path id="Trazado_152837" data-name="Trazado 152837" d="M207.91,24.66,88.13,93.8a9.7,9.7,0,0,0-4.35,7.55V371.46c0,2.77,2,3.9,4.35,2.51l119.78-69.14a9.67,9.67,0,0,0,4.35-7.55V27.18C212.26,24.4,210.3,23.27,207.91,24.66ZM206,272.39c0,2.38-1.67,3.89-3.74,5.08L93.35,340.34c-2,1.19-3.73.23-3.73-2.16V126.6a8.31,8.31,0,0,1,3.73-6.48l108.9-62.86c2.07-1.19,3.74-.22,3.74,2.15Z" fill="#37474f"/>
            <path id="Trazado_152838" data-name="Trazado 152838" d="M87.59,374.24a9.71,9.71,0,0,1-8.17-.27l-5-2.88a9.58,9.58,0,0,1-4.37-7.54V93.46a8.3,8.3,0,0,1,.75-3.26,11.2,11.2,0,0,1,.52-1h0l13.71,7.91h0a13,13,0,0,0-.76,1.6,8,8,0,0,0-.53,2.69V371.46C83.78,374,85.45,375.18,87.59,374.24Z" fill="#263238"/>
            <path id="Trazado_152839" data-name="Trazado 152839" d="M149.05,315.66c3.8-2.19,6.88-.41,6.88,4a15.19,15.19,0,0,1-6.88,11.91c-3.79,2.2-6.87.42-6.87-4a15.23,15.23,0,0,1,6.87-11.91Z" fill="#ba68c8"/>
            <path id="Trazado_152840" data-name="Trazado 152840" d="M148,65.06c1.61-.93,2.92-.18,2.92,1.68A6.45,6.45,0,0,1,148,71.8c-1.61.93-2.92.18-2.92-1.68A6.45,6.45,0,0,1,148,65.06Z"/>
            <path id="Trazado_152841" data-name="Trazado 152841" d="M136.75,82.82l22.54-13c1.35-.77,2.44-.22,2.44,1.24a5.22,5.22,0,0,1-2.44,4l-22.54,13c-1.35.77-2.44.22-2.44-1.24A5.22,5.22,0,0,1,136.75,82.82Z"/>
            <path id="Trazado_152842" data-name="Trazado 152842" d="M206,272.17c0,2.38-1.67,3.89-3.74,5.08L93.35,340.12c-2,1.19-3.73.23-3.73-2.16V126.38a8.31,8.31,0,0,1,3.73-6.48L202.25,57c2.07-1.2,3.74-.23,3.74,2.15Z" fill="#ba68c8"/>
            <path id="Trazado_152843" data-name="Trazado 152843" d="M91.69,341.13a2.45,2.45,0,0,1-1.23-.32A3.1,3.1,0,0,1,89.12,338V126.38a8.74,8.74,0,0,1,4-6.91L202,56.61a2.76,2.76,0,0,1,4.49,2.58v213c0,2.89-2.28,4.53-4,5.51L93.6,340.55a3.81,3.81,0,0,1-1.91.58ZM203.92,57a3,3,0,0,0-1.42.44L93.6,120.34a7.75,7.75,0,0,0-3.48,6V338a1.79,1.79,0,0,0,3,1.73L202,276.81c2.41-1.38,3.49-2.81,3.49-4.64v-213a2.13,2.13,0,0,0-.85-2,1.43,1.43,0,0,0-.72-.17Z" fill="#fff"/>
            <path id="Trazado_152844" data-name="Trazado 152844" d="M212.21,26.48c-.31-2.26-2.12-3.08-4.3-1.82L88.13,93.8a8.79,8.79,0,0,0-3.07,3.26L71.35,89.15a8.86,8.86,0,0,1,3.09-3.24L194.19,16.76a9.64,9.64,0,0,1,8.72,0l5,2.87a9.74,9.74,0,0,1,4.3,6.85Z" fill="#455a64"/>
          </g>
          <path id="Trazado_152845" data-name="Trazado 152845" d="M122.08,155a7.26,7.26,0,0,1,3.42-1.11,4,4,0,0,1,2.67.85,5.8,5.8,0,0,1,1.76,2.68,14.19,14.19,0,0,1,.72,4.28c0,.58,0,1.11,0,1.6v4.33a24.211,24.211,0,0,1-.71,5.13,22.211,22.211,0,0,1-1.72,4.67,18.43,18.43,0,0,1-2.62,3.91,13.43,13.43,0,0,1-3.39,2.81l-7.32,4.23a.39.39,0,0,1-.51,0,.87.87,0,0,1-.22-.67v-27a2.1,2.1,0,0,1,.22-.92,1.39,1.39,0,0,1,.51-.63Zm3.55,9.43c-.11-3.13-1.34-4-3.69-2.67l-2.76,1.6V179.2l2.9-1.67q3.42-2,3.55-6.85v-4.67q.03-.73,0-1.6Z" fill="#fff"/>
          <path id="Trazado_152846" data-name="Trazado 152846" d="M143.31,142.72c.36-.2.64-.21.83,0a1.48,1.48,0,0,1,.39.69l5.92,22.89a2,2,0,0,1,.1.56,1.86,1.86,0,0,1-.17.75,1.11,1.11,0,0,1-.42.51l-3.42,2c-.36.21-.62.24-.77.09a.93.93,0,0,1-.29-.53l-.76-3-7.21,4.16-.76,3.91a3.48,3.48,0,0,1-.28.85,1.87,1.87,0,0,1-.78.8l-3.41,2a.3.3,0,0,1-.42,0,.7.7,0,0,1-.18-.54,3.83,3.83,0,0,1,.11-.69l5.91-29.72a5.32,5.32,0,0,1,.39-1.14,2,2,0,0,1,.83-.94Zm-4.39,20.79,4.39-2.54-2.19-8.75Z" fill="#fff"/>
          <path id="Trazado_152847" data-name="Trazado 152847" d="M164.79,130.32a.41.41,0,0,1,.52,0,.91.91,0,0,1,.21.67v4.42a2.17,2.17,0,0,1-.21.92,1.36,1.36,0,0,1-.52.63l-4.79,2.8v21.42a2.1,2.1,0,0,1-.22.92,1.39,1.39,0,0,1-.51.63l-3.56,2.05a.39.39,0,0,1-.51,0,.87.87,0,0,1-.22-.67V142.66l-4.77,2.75a.4.4,0,0,1-.52,0,.93.93,0,0,1-.21-.67v-4.43a2.2,2.2,0,0,1,.21-.92,1.47,1.47,0,0,1,.52-.63Z" fill="#fff"/>
          <path id="Trazado_152848" data-name="Trazado 152848" d="M176.1,123.79c.36-.2.64-.21.83,0a1.48,1.48,0,0,1,.39.69l5.91,22.89a2.09,2.09,0,0,1,.11.56,1.72,1.72,0,0,1-.18.75,1,1,0,0,1-.42.51l-3.41,2q-.54.32-.78.09a1,1,0,0,1-.28-.53l-.76-3-7.21,4.16-.76,3.91a3.05,3.05,0,0,1-.29.85,1.79,1.79,0,0,1-.77.8l-3.42,2a.31.31,0,0,1-.42,0,.74.74,0,0,1-.17-.54,3.58,3.58,0,0,1,.1-.69l5.92-29.72a5.32,5.32,0,0,1,.39-1.14,2,2,0,0,1,.83-.94Zm-4.39,20.79L176.1,142l-2.2-8.75Z" fill="#fff"/>
        </g>
      </g>
      <g id="freepik--Character--inject-2">
        <g id="freepik--character--inject-2-2" data-name="freepik--character--inject-2">
          <path id="Trazado_152849" data-name="Trazado 152849" d="M387.39,127.45c-6.35.3-8.52,1.51-11.85,5.43s-18.91,32.85-18.91,32.85,2.94,8.24,9.37,7.54l12-19.39Z" fill="#ffa8a7"/>
          <path id="Trazado_152850" data-name="Trazado 152850" d="M388.24,127.46s-4.57-.59-7.82.59-4.88,3.53-7.12,6.95c-1.73,2.65-7.81,13.64-7.81,13.64s3,8.23,11.37,8.23Z" fill="#e0e0e0"/>
          <g id="freepik--character--inject-2-3" data-name="freepik--character--inject-2">
            <path id="Trazado_152851" data-name="Trazado 152851" d="M410,333.91v-1.38c-.55,1.62-3.06,8.57-6.88,12.05-3,2.77-7.18,6-8.23,9.05s5.76,4.29,8.6,3.79c3.29-.58,7.56-2.45,9.88-5.3,1.63-2,2.67-4.38,3.83-6s3.85-3.34,4.48-5.16c.35-1-.06-3.2-.55-5.06-.44-1.7-.93-3.57-1.51-3.41v1.05a7.67,7.67,0,0,1-4.81,1.63C413.4,335.26,410,335,410,333.91Z" fill="#263238"/>
            <path id="Trazado_152852" data-name="Trazado 152852" d="M400.37,347c.94-.85,1.89-1.67,2.75-2.45,2.67-2.43,4.7-6.56,5.87-9.38a13.32,13.32,0,0,0,1-5.06v-5.49h9.62v8.93h0v.24h-.05c-.46,2-4.88,7.32-7.39,10.78-1.68,2.33-4.87,5.29-8.69,5.8C399.87,350.9,398,349.76,400.37,347Z" fill="#ffa8a7"/>
            <path id="Trazado_152853" data-name="Trazado 152853" d="M376,324.42V323c-.54,1.62-3.06,8.57-6.88,12-3,2.77-7.17,6-8.23,9.06s5.77,4.29,8.6,3.78c3.3-.58,7.56-2.45,9.88-5.3,1.63-2,2.67-4.38,3.84-6s3.85-3.34,4.48-5.16c.35-1-.07-3.2-.55-5.05s-.93-3.58-1.51-3.42v1a7.55,7.55,0,0,1-4.81,1.63C379.43,325.77,376,325.49,376,324.42Z" fill="#263238"/>
            <path id="Trazado_152854" data-name="Trazado 152854" d="M366.4,337.53c.94-.84,1.88-1.66,2.74-2.45,2.67-2.43,4.71-6.56,5.87-9.38a13.089,13.089,0,0,0,1-5.06v-5.49h9.63v8.93h0v.24h0c-.46,2-4.88,7.32-7.39,10.79-1.68,2.32-4.88,5.28-8.7,5.79C365.89,341.41,364,340.27,366.4,337.53Z" fill="#ffa8a7"/>
            <path id="Trazado_152855" data-name="Trazado 152855" d="M417.71,184.33c7.46,16.3-.27,73.7-.27,73.7.22,2.65,3.25,7.85,4.37,19.49,1.33,13.76-2.09,48.29-2.09,48.29a10.42,10.42,0,0,1-9.72.39s-9.18-52-10.9-65.69c-1.51-11.93-4.4-38.17-4.4-38.17l-4.64,38.11a70.534,70.534,0,0,1,2.6,11.77c.78,8-7,45.5-7,45.5s-3.32,1.22-9.63.29c0,0-2.75-49.7-3.48-59.39-1.22-16.27-.47-67,2.52-76.68Z" fill="#455a64"/>
            <path id="Trazado_152856" data-name="Trazado 152856" d="M394.7,222.34l-2.42-15.14s-10.25-2.12-14.9-6.49c0,0,4.88,6.06,12.12,8l2.73,11.65-1.86,37.5Z" fill="#37474f"/>
            <path id="Trazado_152857" data-name="Trazado 152857" d="M404.54,127.71h0c2.84.19,3.79.13,5.85.34,4.11.42,5.1,6.44,6.79,10a16.39,16.39,0,0,1,.45,12.33L411,169.65s3.12,7.55,6.75,14.68c-16.73,9.33-37.62,4.43-42.65-2.39-.22-1.44,1.08-12.74,1.87-20.12-2.94-7.39-3.72-12.08-2.48-17,2.31-9.07,10.58-17.42,12.94-17.41Z" fill="#f0f0f0"/>
            <path id="Trazado_152858" data-name="Trazado 152858" d="M418.84,91.1l-3.46-.3a2.68,2.68,0,0,0,1-1,3,3,0,0,0-1.11-3.94l-2.23,4.06a20.16,20.16,0,0,0-18.51-10l-1.79.09a20.19,20.19,0,0,0-19.09,21.24c.61,11.5,1.29,24.37,1.29,24.37l20.78-1.11A21.37,21.37,0,0,0,416,102l-.16-3a19.889,19.889,0,0,0-1.1-5.54,2.81,2.81,0,0,0,1,.29,2.94,2.94,0,0,0,3.1-2.65Z" fill="#455a64"/>
            <path id="Trazado_152859" data-name="Trazado 152859" d="M377.41,102.56a41.335,41.335,0,0,0,.17,6.61c.79,10.36,4.29,12.74,6,13.39s5,0,8.09-.67V128s-3.77,5.41-3.34,8.24,6.5,3.19,10.44.19a18.22,18.22,0,0,0,5.54-8.11V114s2.29,2.74,5.66.23,3.19-8.25,1-10.2-6.56-1.13-7.22,1.76c0,0-7.3-.61-8.22-12.62C388.81,102,377.84,95.65,377.41,102.56Z" fill="#ffa8a7"/>
            <path id="Trazado_152860" data-name="Trazado 152860" d="M403.76,105l.28,5.13h0a3.5,3.5,0,0,1-3.68-3.31l-.3-5.72Z" fill="#455a64"/>
            <path id="Trazado_152861" data-name="Trazado 152861" d="M390.38,105.63a1.31,1.31,0,1,0,1.3-1.36,1.34,1.34,0,0,0-1.3,1.36Z" fill="#263238"/>
            <path id="Trazado_152862" data-name="Trazado 152862" d="M390.29,114.82l-3.49,1.32a1.83,1.83,0,0,0,2.38,1.15A2,2,0,0,0,390.29,114.82Z" fill="#f28f8f"/>
            <path id="Trazado_152863" data-name="Trazado 152863" d="M391.81,99.78l3.05,1a1.55,1.55,0,0,0-1-2,1.69,1.69,0,0,0-2.05,1Z" fill="#455a64"/>
            <path id="Trazado_152864" data-name="Trazado 152864" d="M379.18,106.2a1.32,1.32,0,0,0,1.3,1.35,1.35,1.35,0,0,0,1.31-1.37,1.31,1.31,0,1,0-2.61,0Z" fill="#263238"/>
            <path id="Trazado_152865" data-name="Trazado 152865" d="M386.79,105.09l.21,7.86-4.2-1.06Z" fill="#f28f8f"/>
            <path id="Trazado_152866" data-name="Trazado 152866" d="M391.68,121.89c3.31-.62,10.07-3,11-5.72a7,7,0,0,1-2.22,3.59c-1.95,1.86-8.77,4.2-8.77,4.2Z" fill="#f28f8f"/>
            <path id="Trazado_152867" data-name="Trazado 152867" d="M400.27,186.14c5.49-1.3,6.54-3.37,5.08-8.83a3.321,3.321,0,0,0-.17-.53c-1.07-2.58-5.37-1.05-5.37-1.05s1.76-2.19,3.73-5,2.86-7.4,3.12-10.64.79-9.73.79-9.73,4.28-2.56,2.61-7.24l6.6-4,1.24.86a16.81,16.81,0,0,1-.27,10.42L411,169.65a109.5,109.5,0,0,1,6.75,14.68A43.353,43.353,0,0,1,382,186.7a48.86,48.86,0,0,0,18.27-.56Z" fill="#e6e6e6"/>
            <path id="Trazado_152868" data-name="Trazado 152868" d="M404.94,104l-7.56.4a4.22,4.22,0,0,0-4.3-3.12h-.65a4.21,4.21,0,0,0-3.75,2.82,3.55,3.55,0,0,0-2.51-.94A3.1,3.1,0,0,0,384,104a4.21,4.21,0,0,0-3.79-2h-.65a4.221,4.221,0,0,0,.45,8.43h.65a4.22,4.22,0,0,0,4-4.43,4.531,4.531,0,0,0-.31-1.33,2.32,2.32,0,0,1,1.8-.72,2.77,2.77,0,0,1,2.28,1h0a4.1,4.1,0,0,0,0,.86,4.22,4.22,0,0,0,4.43,4h.65a4.21,4.21,0,0,0,4-4.44v-.15l6.76-.36a3.55,3.55,0,0,1,.67-.86Zm-24.29,5.67H380a3.51,3.51,0,1,1-.37-7h.65a3.5,3.5,0,1,1,.37,7ZM393.5,109h-.66a3.51,3.51,0,0,1-.37-7h.65a3.51,3.51,0,0,1,.38,7Z" fill="#263238"/>
          </g>
          <path id="Trazado_152869" data-name="Trazado 152869" d="M342.78,159.6l33.78,8.9,9.3,38.22-32.12-9.33Z" fill="#ba68c8"/>
          <path id="Trazado_152870" data-name="Trazado 152870" d="M342.78,159.6l33.78,8.9,9.3,38.22-32.12-9.33Z" opacity="0.25"/>
          <path id="Trazado_152871" data-name="Trazado 152871" d="M365.54,191.17c.22,2.07,1.67,4.46,5.89,6.48s12.44.89,12.44.89l-1.14-4.71Z" opacity="0.2"/>
          <g id="Grupo_136868" data-name="Grupo 136868" opacity="0.2">
            <path id="Trazado_152872" data-name="Trazado 152872" d="M358,186.67c-.31.85-1.82,3.75-6.22,4.1l-.34-1.17Z"/>
          </g>
          <g id="Grupo_136869" data-name="Grupo 136869" opacity="0.1">
            <path id="Trazado_152873" data-name="Trazado 152873" d="M353,165.67l-.27-1.29c-.16-.71,1.83-.74,4.42-.07l5,1.29c2.6.68,4.83,1.8,5,2.51l.28,1.29Z"/>
          </g>
          <path id="Trazado_152874" data-name="Trazado 152874" d="M350.36,160.82c-.1-.44.71-.56,1.79-.26l2,.55s-.59-2.79,3.78-1.81,5.33,4.13,5.33,4.13l2.11.6a4.178,4.178,0,0,1,2.35,1.4l.25.8-17.4-4.58S350.46,161.27,350.36,160.82Z" fill="#37474f"/>
          <path id="Trazado_152875" data-name="Trazado 152875" d="M352.76,162.2c1.59.38,2.25.6,2.49,1.69.27,1.26.39,2.17.39,2.17l7.7,2s-.37-1.59-.49-2.2.14-1,1.37-.67l.1-.49-12.07-3.08Z" fill="#37474f"/>
          <path id="Trazado_152876" data-name="Trazado 152876" d="M352.49,165.79s-.12-.58-.28-1.29,1.83-.74,4.43-.07l5,1.29c2.6.68,4.83,1.8,5,2.51l.27,1.29Z" fill="#37474f"/>
          <path id="Trazado_152877" data-name="Trazado 152877" d="M346.34,171.87s1.26,4.32,1.55,5.35,4.07,2.88,6.56,3.56,5.2,1.5,4,5c-1.08,3.2-5.17,3.93-7.25,3.84s-4.93-2.08-6.05-5.28c-1.43-4.09-.66-8.46-1.23-10.85S345.09,170.44,346.34,171.87Z" fill="#ffa8a7"/>
          <path id="Trazado_152878" data-name="Trazado 152878" d="M409.62,128c4.38.27,8.91,2.65,9.6,7.91s4.95,33,3.28,36.08c-3.87,7.21-29.37,20.92-31.91,22.09a28.46,28.46,0,0,1-11.76,3.16c-4,0-9.27-.09-11.95-3.68-2.37-3.19-3.71-9.08,1.65-8.07a58.32,58.32,0,0,0,12.29.54l-.62-2.57a12.45,12.45,0,0,1,4.09.67c2.68.8,5.11-1.5,9.84-4.42,6.09-3.77,15.36-11.73,15.36-11.73l-3.78-23.12S405.59,134.84,409.62,128Z" fill="#ffa8a7"/>
          <path id="Trazado_152879" data-name="Trazado 152879" d="M408.83,128a9.32,9.32,0,0,1,4.92.44c2.57,1,4.86,2.28,5.93,7.47S422.86,160,422.86,160s-5.61,4.06-14.74,2.13L404.83,145S402.28,132.92,408.83,128Z" fill="#e0e0e0"/>
        </g>
      </g>
      <g id="freepik--Analysis--inject-2">
        <g id="freepik--analysis--inject-2-2" data-name="freepik--analysis--inject-2">
          <path id="Trazado_152880" data-name="Trazado 152880" d="M96.62,219.56l106.9-61.72v14.81L96.62,234.37Z" fill="#455a64"/>
          <path id="Trazado_152881" data-name="Trazado 152881" d="M100.89,222.03v4.93l98.36-56.78v-4.94Z" fill="#263238"/>
          <path id="Trazado_152882" data-name="Trazado 152882" d="M96.62,219.56l-4.28-2.47,106.91-61.72,4.27,2.47Z" fill="#37474f"/>
          <path id="Trazado_152883" data-name="Trazado 152883" d="M92.34,217.09l4.28,2.47v14.81l-4.28-2.47Z" fill="#263238"/>
          <path id="Trazado_152884" data-name="Trazado 152884" d="M404.51,412.16l-94.09,54.28v-2.41l94.08-54.28Z" fill="#37474f"/>
          <path id="Trazado_152885" data-name="Trazado 152885" d="M220.63,263.77l-20.73,12-12.74,7.34c-.41.21-.81.45-1.2.7a16.91,16.91,0,0,0-8.09,14.53v59.55A16.85,16.85,0,0,1,171,371.52,17.26,17.26,0,0,1,160.72,375a17,17,0,0,1-8.52-2.31,51.33,51.33,0,0,1-25.65-44.44V266.46A51.334,51.334,0,0,0,100.882,222L195,167.71h0a51.38,51.38,0,0,1,25.67,44.46v26.9C220.64,246.77,220.63,263.77,220.63,263.77Z" fill="#f5f5f5"/>
          <path id="Trazado_152886" data-name="Trazado 152886" d="M254.84,431.93a51.29,51.29,0,0,1-25.66-44.42V327.92a51.151,51.151,0,0,0-25.63-44.43h0a17.1,17.1,0,0,0-25.64,14.83v59.51a17.12,17.12,0,0,1-25.66,14.84,51.33,51.33,0,0,1-25.65-44.44V266.46A51.33,51.33,0,0,0,100.89,222v2.46a49.32,49.32,0,0,1,23.55,42v61.77a53.58,53.58,0,0,0,26.71,46.26,19,19,0,0,0,19.21,0c.37-.21.73-.43,1.09-.67h0A19,19,0,0,0,180,357.86V298.31a15,15,0,0,1,22.5-13,49.29,49.29,0,0,1,24.6,42.6V387.5a53.55,53.55,0,0,0,26.71,46.25l56.63,32.68V464Z" fill="#455a64"/>
          <path id="Trazado_152887" data-name="Trazado 152887" d="M404.5,409.75,310.42,464l-55.58-32.1a51.29,51.29,0,0,1-25.66-44.42V327.92a51.2,51.2,0,0,0-4-19.93,53.6,53.6,0,0,0-2.85-5.73,51.3,51.3,0,0,0-18.78-18.77,16.94,16.94,0,0,0-16.36-.41l12.74-7.34,25.63-14.8,54.86-31.67.13-.08a16.93,16.93,0,0,1,17.08,0,51.29,51.29,0,0,1,25.65,44.43V333.2a51.328,51.328,0,0,0,25.646,44.438Z" fill="#fafafa"/>
          <path id="Trazado_152888" data-name="Trazado 152888" d="M227.07,327.92a49.29,49.29,0,0,0-24.6-42.6,15,15,0,0,0-22.5,13v59.55a19,19,0,0,1-8.48,15.93h0c-.36.24-.72.46-1.09.67l56.71-32.75Z" fill="#e0e0e0"/>
          <path id="Trazado_152889" data-name="Trazado 152889" d="M227.07,327.92a49.29,49.29,0,0,0-24.6-42.6,15,15,0,0,0-22.5,13v59.55a19,19,0,0,1-8.48,15.93h0c-.36.24-.72.46-1.09.67l56.71-32.75Z" opacity="0.15"/>
          <g id="Grupo_136872" data-name="Grupo 136872" clip-path="url(#clip-path)">
            <path id="Trazado_152890" data-name="Trazado 152890" d="M117.6,222.32a7.32,7.32,0,0,0,8,.6l67.13-38.75c2.52-1.46,3.11-4.18,1.14-5.88s-5.74-1.72-8.26-.27L118.44,216.8C115.92,218.25,115.62,220.63,117.6,222.32Z" fill="#ba68c8"/>
            <path id="Trazado_152891" data-name="Trazado 152891" d="M171.73,207.66a.75.75,0,0,1-.38-1.39l31.39-18.12a.74.74,0,0,1,1,.27.75.75,0,0,1-.27,1L172.1,207.56a.74.74,0,0,1-.37.1Z" opacity="0.4"/>
            <path id="Trazado_152892" data-name="Trazado 152892" d="M174.15,211.7a.75.75,0,0,1-.65-.37.76.76,0,0,1,.27-1l31.39-18.12a.75.75,0,0,1,.75,1.29l-31.39,18.1a.71.71,0,0,1-.37.1Z" opacity="0.4"/>
            <path id="Trazado_152893" data-name="Trazado 152893" d="M176.18,215.91a.75.75,0,0,1-.37-1.39L207.2,196.4a.74.74,0,0,1,1,.27.75.75,0,0,1-.28,1l-31.38,18.12a.75.75,0,0,1-.36.12Z" opacity="0.4"/>
            <path id="Trazado_152894" data-name="Trazado 152894" d="M177.82,220.29a.75.75,0,0,1-.65-.37.76.76,0,0,1,.27-1l31.39-18.12a.74.74,0,0,1,1,.27.75.75,0,0,1-.27,1l-31.39,18.12A.71.71,0,0,1,177.82,220.29Z" opacity="0.4"/>
            <path id="Trazado_152895" data-name="Trazado 152895" d="M179,224.58a.73.73,0,0,1-.64-.37.74.74,0,0,1,.27-1L210,205.07a.73.73,0,0,1,1,.27.74.74,0,0,1-.27,1l-31.38,18.12A.75.75,0,0,1,179,224.58Z" opacity="0.4"/>
            <path id="Trazado_152896" data-name="Trazado 152896" d="M179.82,229.19a.74.74,0,0,1-.37-1.39l31.38-18.12a.75.75,0,0,1,.75,1.29l-31.39,18.12a.69.69,0,0,1-.37.1Z" opacity="0.4"/>
            <path id="Trazado_152897" data-name="Trazado 152897" d="M180.26,234.11a.74.74,0,0,1-.37-1.39l31.38-18.12a.75.75,0,0,1,.75,1.29L180.63,234a.71.71,0,0,1-.37.11Z" opacity="0.4"/>
            <path id="Trazado_152898" data-name="Trazado 152898" d="M135.51,269.2a.54.54,0,0,1-.46-.27.53.53,0,0,1,.2-.72l76.15-44a.53.53,0,0,1,.72.19.52.52,0,0,1-.19.72l-76.16,44a.5.5,0,0,1-.26.08Z" opacity="0.4"/>
            <path id="Trazado_152899" data-name="Trazado 152899" d="M135.51,273.9a.54.54,0,0,1-.46-.27.53.53,0,0,1,.2-.72l76.15-44a.53.53,0,0,1,.72.2.51.51,0,0,1-.19.71l-76.16,44a.59.59,0,0,1-.26.08Z" opacity="0.4"/>
            <path id="Trazado_152900" data-name="Trazado 152900" d="M135.51,278.6a.54.54,0,0,1-.46-.27.53.53,0,0,1,.2-.72l76.15-44a.531.531,0,1,1,.53.92l-76.16,44a.59.59,0,0,1-.26.07Z" opacity="0.4"/>
            <path id="Trazado_152901" data-name="Trazado 152901" d="M135.51,283.3a.54.54,0,0,1-.46-.27.51.51,0,0,1,.2-.71l76.15-44a.53.53,0,0,1,.53.91l-76.16,44a.48.48,0,0,1-.26.07Z" opacity="0.4"/>
            <path id="Trazado_152902" data-name="Trazado 152902" d="M135.51,262.36a.52.52,0,0,1-.26-1l40.31-23.28a.53.53,0,1,1,.53.91l-40.32,23.28a.479.479,0,0,1-.26.09Z" opacity="0.4"/>
            <path id="Trazado_152903" data-name="Trazado 152903" d="M134.37,235.37a50,50,0,0,1,5.48,20,.76.76,0,0,0,1.24.65l2.24-1.29a2.3,2.3,0,0,0,1-2A54.161,54.161,0,0,0,142.5,242a58.752,58.752,0,0,0-3.61-9.22,1.27,1.27,0,0,0-1.77-.49l-2.21,1.27A1.41,1.41,0,0,0,134.37,235.37Z" fill="#ba68c8"/>
            <path id="Trazado_152904" data-name="Trazado 152904" d="M141,226.06a53.32,53.32,0,0,1,5.4,11.5,50,50,0,0,1,2.41,12.59.75.75,0,0,0,1.22.66l2.24-1.3a2.3,2.3,0,0,0,1.06-2A53.41,53.41,0,0,0,150.9,235a51.43,51.43,0,0,0-5.36-11.43,1.43,1.43,0,0,0-1.87-.46l-2.23,1.24a1.2,1.2,0,0,0-.44,1.71Z" fill="#ba68c8"/>
            <path id="Trazado_152905" data-name="Trazado 152905" d="M158.72,230.46l-2.2,1.27a1.72,1.72,0,0,0-.74,1.91,51.24,51.24,0,0,1,2,11.34.75.75,0,0,0,1.22.65l2.24-1.29a2.31,2.31,0,0,0,1.06-2,53.75,53.75,0,0,0-2.06-11.31,1,1,0,0,0-1.52-.57Z" fill="#ba68c8"/>
            <path id="Trazado_152906" data-name="Trazado 152906" d="M167.68,221.52A1.12,1.12,0,0,0,166,221l-2.22,1.26a1.55,1.55,0,0,0-.64,1.87c.4,1,.78,2,1.16,3.14a49.511,49.511,0,0,1,2.4,12.58.76.76,0,0,0,1.23.66l2.24-1.29a2.33,2.33,0,0,0,1.06-2,53.5,53.5,0,0,0-2.45-12.56A30.558,30.558,0,0,0,167.68,221.52Z" fill="#ba68c8"/>
            <path id="Trazado_152907" data-name="Trazado 152907" d="M137.06,253.33a.38.38,0,0,0-.51-.14l-.94.54c-.21-1.29-.45-2.57-.74-3.83l1.27-.73a.38.38,0,0,0-.38-.65l-1.08.63c-.32-1.27-.67-2.53-1.08-3.76l1.21-.69a.374.374,0,0,0-.37-.65l-1.09.63c-.42-1.2-.86-2.39-1.37-3.55a.36.36,0,0,0,0-.09l1.2-.69a.37.37,0,0,0,.14-.51.38.38,0,0,0-.51-.14l-1.13.65c-.52-1.17-1.1-2.33-1.73-3.49l1.19-.69a.37.37,0,0,0,.14-.51.38.38,0,0,0-.51-.14l-1.18.69c-.64-1.12-1.32-2.23-2.06-3.33l1.35-.77a.36.36,0,0,0,.13-.51.37.37,0,0,0-.51-.14l-1.38.81c-.8-1.15-1.63-2.29-2.53-3.42a.38.38,0,0,0-.59.47c.88,1.09,1.7,2.2,2.47,3.32l-1.28.74a.37.37,0,0,0,.18.69.32.32,0,0,0,.19,0l1.33-.76c.73,1.1,1.42,2.2,2.05,3.32l-1.49.86a.37.37,0,0,0,.19.69.29.29,0,0,0,.18,0l1.48-.85c.63,1.16,1.21,2.33,1.73,3.5l-1.54.89a.37.37,0,0,0,.19.69.31.31,0,0,0,.18-.05l1.47-.85h0a38.781,38.781,0,0,1,1.39,3.63l-1.57.91a.37.37,0,0,0,.18.69.32.32,0,0,0,.19,0l1.45-.84c.41,1.24.76,2.49,1.07,3.77l-1.56.9a.37.37,0,0,0-.14.51.36.36,0,0,0,.32.18.32.32,0,0,0,.19,0l1.38-.79c.29,1.26.52,2.55.72,3.84l-1.69,1a.37.37,0,0,0,.19.69.31.31,0,0,0,.18-.05l1.44-.83c.22,1.57.37,3.17.46,4.79a.37.37,0,0,0,.37.35h0a.37.37,0,0,0,.35-.39c-.09-1.74-.26-3.46-.5-5.15l1.18-.68a.37.37,0,0,0,.13-.71Z" opacity="0.4"/>
            <g id="Grupo_136870" data-name="Grupo 136870" opacity="0.15">
              <path id="Trazado_152908" data-name="Trazado 152908" d="M140.88,326.42a58.618,58.618,0,0,1-.34-8.48c.3-1.09,4.84-16.68,13.2-21.53a5.449,5.449,0,0,1,1.65-.69,2.788,2.788,0,0,1,.68-.08c2.22,0,3.21,3.08,4.17,6.06a29.34,29.34,0,0,0,1.32,3.58c.57,1.2,1.54,2.79,3.38,2.79a4.72,4.72,0,0,0,2.29-.7c4-2.29,5.17-8.49,6.4-15.05a74.408,74.408,0,0,1,2-8.7c1.22-3.83,2.8-6.2,5-7.46a3.92,3.92,0,0,1,1.86-.61c2.33,0,3.21,4.15,4.06,8.16a33.22,33.22,0,0,0,1.7,6.15c.85,1.93,2,2.87,3.41,2.87A4.9,4.9,0,0,0,194,292c4.93-2.84,6.42-7.67,7.86-12.33,1.23-4,2.38-7.7,5.63-9.59a4.84,4.84,0,0,1,2.42-.76,3.21,3.21,0,0,1,1.07.18,21.223,21.223,0,0,1,.15,2.24l.06,9.44c.08,1.81.21,3.23.37,4.45Z" fill="#ba68c8"/>
              <path id="Trazado_152909" data-name="Trazado 152909" d="M212.14,285.88c-.21-1.41-.33-3-.42-4.73l-.05-9.44a21.563,21.563,0,0,0-.2-2.6,3.49,3.49,0,0,0-1.55-.35h0a5.32,5.32,0,0,0-2.68.83c-7.26,4.22-4.49,16.73-13.5,21.93a4.39,4.39,0,0,1-2.14.68c-1.35,0-2.25-1-2.93-2.56-2.12-4.78-2.07-14.61-6.24-14.61a4.3,4.3,0,0,0-2.12.68c-2.58,1.49-4.13,4.34-5.21,7.76-2.69,8.42-2.53,20.25-8.13,23.44a4.22,4.22,0,0,1-2,.64c-1.33,0-2.21-1-2.91-2.49-1.73-3.64-2.34-9.95-6-9.95a3.751,3.751,0,0,0-.79.09,6.239,6.239,0,0,0-1.8.75c-8.91,5.18-13.47,21.91-13.47,21.91a60.9,60.9,0,0,0,.43,9.41l1-.59a10.108,10.108,0,0,1-.17-1.13,61.061,61.061,0,0,1-.25-7.53c.42-1.48,4.89-16.47,12.95-21.16a5.141,5.141,0,0,1,1.5-.63,2.322,2.322,0,0,1,.56-.07c1.83,0,2.77,2.9,3.67,5.7a29.451,29.451,0,0,0,1.34,3.65c.37.76,1.47,3.09,3.86,3.09a5.09,5.09,0,0,0,2.55-.78c4.23-2.4,5.41-8.72,6.65-15.41a74.793,74.793,0,0,1,2-8.63c1.18-3.69,2.68-6,4.74-7.16a3.29,3.29,0,0,1,1.59-.54c1.9,0,2.78,4.11,3.55,7.74a33.76,33.76,0,0,0,1.72,6.25c.93,2.11,2.24,3.19,3.9,3.19a5.34,5.34,0,0,0,2.67-.83c5.11-2.95,6.7-8.1,8.1-12.64,1.2-3.86,2.32-7.5,5.4-9.29a4.31,4.31,0,0,1,2.15-.69h0a2.249,2.249,0,0,1,.58.07c.11,1.06.12,1.82.12,1.83v9.49c.08,1.63.19,3,.33,4.12a7.7,7.7,0,0,0,.21,1.1l.93-.54"/>
            </g>
            <g id="Grupo_136871" data-name="Grupo 136871" opacity="0.4">
              <path id="Trazado_152910" data-name="Trazado 152910" d="M140,313.09v4.77a60.67,60.67,0,0,0,.43,9.41l71.7-41.39a47.5,47.5,0,0,1-.42-4.74l-.05-9.43s0-14.11-9-8.93c-9.42,5.44-6.76,22.7-13.44,26.56s-4.48-11.52-13.44-6.34-4.48,16.69-13.44,21.86-4.48-20.92-13.44-15.75S140,307.14,140,313.09Z" fill="#ba68c8"/>
            </g>
            <path id="Trazado_152911" data-name="Trazado 152911" d="M136.73,334.55a.374.374,0,0,1-.18-.7l76.26-43.67a.374.374,0,0,1,.37.65L136.92,334.5A.41.41,0,0,1,136.73,334.55Z" opacity="0.4"/>
            <path id="Trazado_152912" data-name="Trazado 152912" d="M149,291.63a.38.38,0,0,1-.38-.37v-.75a.36.36,0,0,1,.37-.37.37.37,0,0,1,.37.37v.75a.38.38,0,0,1-.36.37Z" fill="#fff"/>
            <path id="Trazado_152913" data-name="Trazado 152913" d="M149.16,320.31a.38.38,0,0,1-.37-.34c0-.48-.08-1-.11-1.44a.37.37,0,0,1,.35-.39.34.34,0,0,1,.39.34c0,.48.07.95.11,1.42a.37.37,0,0,1-.33.41Zm-.17-2.86a.38.38,0,0,1-.38-.37v-1.44a.375.375,0,0,1,.75,0v1.43a.37.37,0,0,1-.37.38Zm0-2.87a.38.38,0,0,1-.37-.37v-1.44a.38.38,0,0,1,.37-.37h0a.38.38,0,0,1,.37.37v1.44a.38.38,0,0,1-.38.37Zm0-2.87a.37.37,0,0,1-.37-.37V309.9a.38.38,0,0,1,.38-.37h0a.38.38,0,0,1,.37.37v1.44a.37.37,0,0,1-.37.37Zm0-2.87a.38.38,0,0,1-.37-.37V307a.38.38,0,0,1,.75,0v1.44a.38.38,0,0,1-.43.4Zm0-2.87a.37.37,0,0,1-.37-.37v-1.43a.37.37,0,0,1,.74,0v1.43a.37.37,0,0,1-.42.4Zm0-2.87a.36.36,0,0,1-.37-.37V301.3a.37.37,0,0,1,.74,0v1.43a.36.36,0,0,1-.42.37Zm0-2.87h0a.36.36,0,0,1-.37-.37v-1.43a.38.38,0,0,1,.37-.38.37.37,0,0,1,.37.38v1.43a.36.36,0,0,1-.42.37Zm0-2.86h0a.38.38,0,0,1-.37-.38v-1.43a.38.38,0,0,1,.75,0V297a.39.39,0,0,1-.43.37Zm0-2.87a.38.38,0,0,1-.37-.37V292.7a.38.38,0,0,1,.38-.38h0a.37.37,0,0,1,.37.37v1.44a.38.38,0,0,1-.43.37Z" fill="#fff"/>
            <path id="Trazado_152914" data-name="Trazado 152914" d="M149.4,322.47a.38.38,0,0,1-.37-.32l-.09-.75a.372.372,0,0,1,.74-.08l.09.73a.37.37,0,0,1-.32.42Z" fill="#fff"/>
            <path id="Trazado_152915" data-name="Trazado 152915" d="M202.72,263.9a.38.38,0,0,1-.38-.38v-.74a.38.38,0,0,1,.38-.38h0a.38.38,0,0,1,.37.38v.74A.38.38,0,0,1,202.72,263.9Z" fill="#fff"/>
            <path id="Trazado_152916" data-name="Trazado 152916" d="M202.93,292.58a.38.38,0,0,1-.37-.34c-.05-.48-.08-1-.11-1.44a.38.38,0,0,1,.35-.4.36.36,0,0,1,.39.35c0,.48.07.95.11,1.42a.37.37,0,0,1-.34.41Zm-.17-2.86a.38.38,0,0,1-.38-.37q0-.615,0-1.44a.37.37,0,0,1,.37-.37h0a.37.37,0,0,1,.37.37c0,.54,0,1,0,1.43a.37.37,0,0,1-.37.38Zm0-2.87a.37.37,0,0,1-.37-.37V285a.37.37,0,0,1,.37-.37h0a.38.38,0,0,1,.38.37v1.43a.37.37,0,0,1-.37.38Zm0-2.87a.38.38,0,0,1-.38-.37v-1.44a.38.38,0,0,1,.37-.37h0a.38.38,0,0,1,.38.37v1.44a.38.38,0,0,1-.37.37Zm0-2.87a.38.38,0,0,1-.37-.37V279.3a.37.37,0,0,1,.74,0v1.44a.37.37,0,0,1-.42.37Zm0-2.87a.38.38,0,0,1-.38-.37v-1.44a.38.38,0,0,1,.75,0v1.44a.38.38,0,0,1-.42.37Zm0-2.87a.37.37,0,0,1-.38-.37v-1.43a.38.38,0,1,1,.75,0V275a.37.37,0,0,1-.42.37Zm0-2.87h0a.37.37,0,0,1-.38-.37V270.7a.37.37,0,0,1,.37-.38.38.38,0,0,1,.37.38v1.43a.37.37,0,0,1-.41.37Zm0-2.86h0a.37.37,0,0,1-.37-.38v-1.43a.37.37,0,0,1,.74,0v1.43a.38.38,0,0,1-.42.38Zm0-2.87h0a.38.38,0,0,1-.37-.38V265a.38.38,0,0,1,.75,0v1.44a.38.38,0,0,1-.43.33Z" fill="#fff"/>
            <path id="Trazado_152917" data-name="Trazado 152917" d="M203.17,294.74a.38.38,0,0,1-.37-.32l-.09-.75a.36.36,0,0,1,.32-.41.37.37,0,0,1,.42.32l.09.74a.37.37,0,0,1-.32.42Z" fill="#fff"/>
            <path id="Trazado_152918" data-name="Trazado 152918" d="M175.83,285.41a.38.38,0,0,1-.38-.37v-.75a.38.38,0,0,1,.75,0V285a.38.38,0,0,1-.37.41Z" fill="#fff"/>
            <path id="Trazado_152919" data-name="Trazado 152919" d="M176,305a.37.37,0,0,1-.37-.34c0-.46-.08-.93-.11-1.4a.38.38,0,0,1,.35-.4.36.36,0,0,1,.4.35c0,.46.06.92.1,1.38a.37.37,0,0,1-.33.41Zm-.17-2.79a.38.38,0,0,1-.38-.37v-1.4a.37.37,0,0,1,.37-.38h0a.38.38,0,0,1,.37.37v1.4a.38.38,0,0,1-.37.38Zm0-2.8a.36.36,0,0,1-.37-.37v-1.4a.38.38,0,0,1,.37-.38h0a.37.37,0,0,1,.37.38V299a.37.37,0,0,1-.37.37Zm0-2.8a.38.38,0,0,1-.38-.37v-1.4a.37.37,0,0,1,.37-.37h0a.37.37,0,0,1,.38.37v1.4A.38.38,0,0,1,175.83,296.61Zm0-2.8a.37.37,0,0,1-.37-.37V292a.38.38,0,0,1,.75,0v1.4a.37.37,0,0,1-.39.4Zm0-2.79h0a.38.38,0,0,1-.37-.38v-1.4a.38.38,0,0,1,.75,0v1.4a.38.38,0,0,1-.39.36Zm0-2.8h0a.38.38,0,0,1-.37-.38v-1.39a.38.38,0,1,1,.75,0v1.4a.38.38,0,0,1-.38.36Z" fill="#fff"/>
            <path id="Trazado_152920" data-name="Trazado 152920" d="M176.28,307.12a.38.38,0,0,1-.37-.32l-.09-.75a.36.36,0,0,1,.33-.41.37.37,0,0,1,.41.32l.09.74a.37.37,0,0,1-.32.42Z" fill="#fff"/>
            <path id="Trazado_152921" data-name="Trazado 152921" d="M148.94,287.64c.71-.41,1.29-.14,1.29.61a2.76,2.76,0,0,1-1.29,2.1c-.71.41-1.29.13-1.29-.61a2.73,2.73,0,0,1,1.29-2.1Z" opacity="0.4"/>
            <path id="Trazado_152922" data-name="Trazado 152922" d="M175.83,281.42c.71-.41,1.29-.14,1.29.61a2.73,2.73,0,0,1-1.29,2.09c-.71.42-1.29.14-1.29-.6a2.73,2.73,0,0,1,1.29-2.1Z" opacity="0.4"/>
            <path id="Trazado_152923" data-name="Trazado 152923" d="M202.71,261.42c.71-.41,1.29-.13,1.29.61a2.73,2.73,0,0,1-1.29,2.1c-.72.41-1.29.14-1.29-.61A2.72,2.72,0,0,1,202.71,261.42Z" opacity="0.4"/>
            <path id="Trazado_152924" data-name="Trazado 152924" d="M137.23,296.32a.37.37,0,1,0-.37-.64l-1,.56v-3.85l1.35-.78a.37.37,0,0,0,.14-.51.38.38,0,0,0-.51-.14l-1,.57v-4.06a.38.38,0,0,0-.37-.37.37.37,0,0,0-.37.37V292l-1.36.78a.37.37,0,0,0-.13.51.36.36,0,0,0,.32.18.34.34,0,0,0,.19-.05l1-.56v3.85l-1.36.78a.37.37,0,0,0,.19.69.34.34,0,0,0,.19-.05l1-.56v3.85l-1.36.78a.378.378,0,0,0,.19.7.37.37,0,0,0,.18-.05l1-.57v3.85l-1.36.78a.37.37,0,0,0-.14.51.39.39,0,0,0,.33.19.37.37,0,0,0,.18-.05l1-.57v3.85l-1.36.78a.37.37,0,0,0-.14.51.39.39,0,0,0,.33.19.41.41,0,0,0,.18,0l1-.57v3.85l-1.36.78a.38.38,0,0,0-.14.51.39.39,0,0,0,.33.19.409.409,0,0,0,.18-.05l1-.57v3.85l-1.36.78a.375.375,0,0,0,.18.7.41.41,0,0,0,.19-.05l1-.57V325l-1.39.8a.37.37,0,0,0,.18.7.41.41,0,0,0,.19-.05l1.07-.62c.08,1.4.2,2.8.37,4.17a.38.38,0,0,0,.37.32h0a.37.37,0,0,0,.32-.42c-.18-1.47-.31-3-.39-4.48l1.28-.74a.374.374,0,1,0-.37-.65l-.94.54c0-1.27-.06-2.55,0-3.83l1.34-.78a.37.37,0,1,0-.37-.64l-1,.56v-3.85l1.34-.78a.37.37,0,1,0-.37-.64l-1,.56v-3.85l1.35-.78a.37.37,0,0,0,.13-.51.38.38,0,0,0-.51-.13l-1,.56v-3.85l1.35-.78a.372.372,0,0,0-.38-.64l-1,.56V301.9l1.35-.78a.36.36,0,0,0,.13-.51.35.35,0,0,0-.5-.13l-1,.56V297.1Z" opacity="0.4"/>
            <path id="Trazado_152925" data-name="Trazado 152925" d="M230.66,319.42,159,360.77c-2.52,1.45-6.17,1.28-8-.57s-1.07-4.69,1.45-6.14l71.6-41.34a6.54,6.54,0,0,1,7.68.86C233.61,315.44,233.18,318,230.66,319.42Z" fill="#ba68c8"/>
            <path id="Trazado_152926" data-name="Trazado 152926" d="M138.06,339.53a.52.52,0,0,1-.26-1L218.47,292a.53.53,0,0,1,.53.91l-80.68,46.58a.48.48,0,0,1-.26.04Z" opacity="0.4"/>
            <path id="Trazado_152927" data-name="Trazado 152927" d="M139.71,343.9a.54.54,0,0,1-.46-.27.53.53,0,0,1,.19-.72l80.69-46.58a.52.52,0,0,1,.72.19.53.53,0,0,1-.19.72L140,343.82a.5.5,0,0,1-.29.08Z" opacity="0.4"/>
            <path id="Trazado_152928" data-name="Trazado 152928" d="M141.74,348.08a.53.53,0,0,1-.26-1l80.7-46.6a.53.53,0,0,1,.53.91L142,348a.68.68,0,0,1-.26.08Z" opacity="0.4"/>
            <path id="Trazado_152929" data-name="Trazado 152929" d="M144.15,352.06a.54.54,0,0,1-.46-.27.51.51,0,0,1,.19-.71l80.71-46.6a.53.53,0,0,1,.53.91L144.41,352a.48.48,0,0,1-.26.06Z" opacity="0.4"/>
          </g>
          <path id="Trazado_152931" data-name="Trazado 152931" d="M214.58,274.9,281,236.57c2.52-1.45,6.53-2.31,8.78-1.4s1.83,3.27-.69,4.72L221.9,278.66c-2.52,1.46-6.1,1.61-8.1.53S212.06,276.35,214.58,274.9Z" fill="#ba68c8"/>
          <path id="Trazado_152932" data-name="Trazado 152932" d="M222.28,285.44a.54.54,0,0,1-.46-.27.53.53,0,0,1,.2-.72l76.52-44.17a.53.53,0,0,1,.72.19.52.52,0,0,1-.2.72l-76.52,44.17a.5.5,0,0,1-.26.08Z" opacity="0.4"/>
          <path id="Trazado_152933" data-name="Trazado 152933" d="M225.45,288.86a.54.54,0,0,1-.46-.27.53.53,0,0,1,.2-.72l76.64-44.23a.51.51,0,0,1,.71.19.53.53,0,0,1-.19.72l-76.64,44.24A.59.59,0,0,1,225.45,288.86Z" opacity="0.4"/>
          <path id="Trazado_152934" data-name="Trazado 152934" d="M238.14,328h0a.37.37,0,0,1-.37-.38v-4.06c0-3.05,0-3.05-.08-5.12v-.34A49.43,49.43,0,0,0,235,304.24a38.59,38.59,0,0,0-6.9-12.05.373.373,0,1,1,.58-.47,39.35,39.35,0,0,1,7,12.28,50,50,0,0,1,2.76,14v.35c.09,2.08.09,2.08.08,5.16v4.06a.38.38,0,0,1-.38.43Z" opacity="0.4"/>
          <path id="Trazado_152935" data-name="Trazado 152935" d="M237.37,296c-.34-.6-.71-1.18-1.1-1.76a1.18,1.18,0,0,1,.38-1.73l29.24-16.88a1.38,1.38,0,0,1,1.86.44c.35.57.69,1.18,1,1.81a1.41,1.41,0,0,1-.55,1.84L239.12,296.5a1.27,1.27,0,0,1-1.75-.5Z" fill="#ba68c8"/>
          <path id="Trazado_152936" data-name="Trazado 152936" d="M240.22,302.78c.21.67.42,1.33.6,2a1,1,0,0,0,1.47.62l69.37-40.05a1.81,1.81,0,0,0,.81-1.93c-.19-.69-.39-1.36-.59-2a1,1,0,0,0-1.56-.59l-69.39,40.05a1.68,1.68,0,0,0-.71,1.9Z" fill="#ba68c8"/>
          <path id="Trazado_152937" data-name="Trazado 152937" d="M240.22,302.78c.21.67.42,1.33.6,2a1,1,0,0,0,1.47.62l69.37-40.05a1.81,1.81,0,0,0,.81-1.93c-.19-.69-.39-1.36-.59-2a1,1,0,0,0-1.56-.59l-69.39,40.05a1.68,1.68,0,0,0-.71,1.9Z" fill="#fff" opacity="0.7"/>
          <path id="Trazado_152938" data-name="Trazado 152938" d="M242.24,312c.09.74.16,1.46.22,2.15a.75.75,0,0,0,1.22.66l47-27.13a2.27,2.27,0,0,0,1.05-2c-.06-.72-.14-1.43-.22-2.15a.82.82,0,0,0-1.32-.64l-47,27.12A2.14,2.14,0,0,0,242.24,312Z" fill="#ba68c8"/>
          <path id="Trazado_152939" data-name="Trazado 152939" d="M242.24,312c.09.74.16,1.46.22,2.15a.75.75,0,0,0,1.22.66l47-27.13a2.27,2.27,0,0,0,1.05-2c-.06-.72-.14-1.43-.22-2.15a.82.82,0,0,0-1.32-.64l-47,27.12A2.14,2.14,0,0,0,242.24,312Z" opacity="0.15"/>
          <path id="Trazado_152940" data-name="Trazado 152940" d="M242.62,321.59v2.12c0,.72.51,1,1.14.65l20.12-11.61a2.52,2.52,0,0,0,1.14-2v-2.12c0-.73-.51-1-1.14-.66l-20.12,11.62a2.52,2.52,0,0,0-1.14,2Z" fill="#ba68c8"/>
          <path id="Trazado_152941" data-name="Trazado 152941" d="M242.62,321.59v2.12c0,.72.51,1,1.14.65l20.12-11.61a2.52,2.52,0,0,0,1.14-2v-2.12c0-.73-.51-1-1.14-.66l-20.12,11.62a2.52,2.52,0,0,0-1.14,2Z" fill="#fff" opacity="0.5"/>
          <path id="Trazado_152942" data-name="Trazado 152942" d="M314.3,288.18a.38.38,0,0,0-.38.38v1.81l-5.36,3.09v-1.35a.38.38,0,0,0-.75,0v1.78l-5.36,3.1v-1.33a.38.38,0,1,0-.75,0v1.76l-5.36,3.09v-1.3a.38.38,0,0,0-.37-.38.37.37,0,0,0-.37.38v1.73l-5.37,3.1v-1.28a.37.37,0,0,0-.74,0v1.71l-5.37,3.1v-1.26a.36.36,0,0,0-.37-.37.37.37,0,0,0-.37.37V308L278,311.09v-1.23a.38.38,0,0,0-.75,0v1.66l-5.36,3.1v-1.21a.38.38,0,0,0-.75,0v1.64l-5.36,3.09V317a.38.38,0,0,0-.75,0v1.61l-5.36,3.1v-1.16a.38.38,0,0,0-.75,0v1.59l-5.36,3.1V324.1a.38.38,0,0,0-.75,0v1.57l-5.36,3.09v-1.11a.38.38,0,0,0-.75,0v1.54l-4.65,2.69a.37.37,0,0,0-.14.51.39.39,0,0,0,.33.19.32.32,0,0,0,.18-.06l4.28-2.47v1.52a.38.38,0,0,0,.75,0v-1.95l5.36-3.09V328a.38.38,0,0,0,.75,0v-1.92l5.36-3.1v1.47a.38.38,0,0,0,.75,0v-1.9l5.36-3.09v1.44a.38.38,0,0,0,.75,0V319l5.36-3.09v1.42a.38.38,0,0,0,.75,0v-1.85l5.36-3.1v1.4a.38.38,0,0,0,.75,0V312l5.36-3.09v1.37a.38.38,0,0,0,.37.37.37.37,0,0,0,.37-.37v-1.8l5.37-3.1v1.35a.37.37,0,0,0,.74,0V304.9l5.37-3.1v1.33a.37.37,0,0,0,.37.37.38.38,0,0,0,.37-.37v-1.76l5.36-3.09v1.3a.38.38,0,0,0,.75,0v-1.73l5.36-3.1V296a.38.38,0,0,0,.75,0v-1.71l5.36-3.09v1.25a.38.38,0,0,0,.75,0v-3.92A.38.38,0,0,0,314.3,288.18Z" opacity="0.4"/>
          <path id="Trazado_152943" data-name="Trazado 152943" d="M255.49,337.37a13.379,13.379,0,0,0-3.9,1.58c-7.42,4.36-13.43,15.27-13.43,24.36v.71l13.41-6.14Z" fill="#ba68c8"/>
          <path id="Trazado_152944" data-name="Trazado 152944" d="M255.49,337.37l-3.91,20.51,13.29-7.71a21.049,21.049,0,0,0,.15-2.49C265,340.2,261,336.22,255.49,337.37Z" fill="#ba68c8"/>
          <path id="Trazado_152945" data-name="Trazado 152945" d="M263.19,357.08a28.539,28.539,0,0,0,1.68-6.91l-13.29,7.71Z" fill="#ba68c8"/>
          <path id="Trazado_152946" data-name="Trazado 152946" d="M238.17,364c.3,8.6,6.2,12.19,13.42,8,5-2.86,9.28-8.67,11.6-15l-11.61.8Z" fill="#ba68c8"/>
          <path id="Trazado_152947" data-name="Trazado 152947" d="M255.49,337.37l-3.91,20.51,13.29-7.71a21.049,21.049,0,0,0,.15-2.49C265,340.2,261,336.22,255.49,337.37Z" fill="#fff" opacity="0.7"/>
          <path id="Trazado_152948" data-name="Trazado 152948" d="M263.19,357.08a28.539,28.539,0,0,0,1.68-6.91l-13.29,7.71Z" opacity="0.15"/>
          <path id="Trazado_152949" data-name="Trazado 152949" d="M238.17,364c.3,8.6,6.2,12.19,13.42,8,5-2.86,9.28-8.67,11.6-15l-11.61.8Z" fill="#fff" opacity="0.5"/>
          <path id="Trazado_152950" data-name="Trazado 152950" d="M238.17,364.55a.57.57,0,0,1-.28-.08.53.53,0,0,1-.25-.43c0-.24,0-.48,0-.73,0-9.25,6.14-20.38,13.69-24.81a13.749,13.749,0,0,1,4.06-1.64.529.529,0,0,1,.63.61L252.09,358a.52.52,0,0,1-.29.38l-13.41,6.14A.59.59,0,0,1,238.17,364.55Zm16.65-26.46a13.211,13.211,0,0,0-3,1.32c-7.24,4.25-13.13,14.9-13.18,23.79l12.43-5.68Z" fill="#fff"/>
          <path id="Trazado_152951" data-name="Trazado 152951" d="M251.58,358.41a.5.5,0,0,1-.31-.1.54.54,0,0,1-.21-.53l3.92-20.5a.52.52,0,0,1,.41-.42,7.64,7.64,0,0,1,6.6,1.4c2.29,1.86,3.56,5.21,3.56,9.42a22.583,22.583,0,0,1-.15,2.55.53.53,0,0,1-.26.39l-13.3,7.72A.59.59,0,0,1,251.58,358.41ZM256,337.83l-3.64,19,12.07-7a20.085,20.085,0,0,0,.12-2.16c0-3.89-1.13-6.95-3.18-8.61A6.5,6.5,0,0,0,256,337.83Z" fill="#fff"/>
          <path id="Trazado_152952" data-name="Trazado 152952" d="M251.58,358.41a.52.52,0,0,1-.5-.37.51.51,0,0,1,.23-.61l13.3-7.72a.54.54,0,0,1,.55,0,.53.53,0,0,1,.24.5,29,29,0,0,1-1.72,7,.54.54,0,0,1-.45.34l-11.62.8Zm12.64-7.25-10.42,6,9-.62A28.539,28.539,0,0,0,264.22,351.16Zm-1,5.92Z" fill="#fff"/>
          <path id="Trazado_152953" data-name="Trazado 152953" d="M245.87,374.31a7.53,7.53,0,0,1-3.64-.91c-2.8-1.56-4.43-4.88-4.59-9.36a.52.52,0,0,1,.31-.5l13.41-6.14a.581.581,0,0,1,.18,0l11.61-.8a.5.5,0,0,1,.46.21.49.49,0,0,1,.07.49c-2.42,6.59-7,12.42-11.83,15.24a12.15,12.15,0,0,1-5.98,1.77Zm-7.16-10c.21,3.92,1.64,6.8,4,8.12s5.37,1,8.59-.89c4.48-2.58,8.67-7.87,11.07-13.92l-10.69.74Z" fill="#fff"/>
          <path id="Trazado_152954" data-name="Trazado 152954" d="M294.78,315.68c-4.37,5.26-7.36,12.61-7.36,19.07a13.75,13.75,0,0,0,1.7,7.12L300.86,327Z" fill="#ba68c8"/>
          <path id="Trazado_152955" data-name="Trazado 152955" d="M306.92,308.64a11.17,11.17,0,0,0-6.06,1.72,23,23,0,0,0-6.08,5.32l6.08,11.3Z" fill="#ba68c8"/>
          <path id="Trazado_152956" data-name="Trazado 152956" d="M313.05,312.93a7,7,0,0,0-6.13-4.29L300.86,327Z" fill="#ba68c8"/>
          <path id="Trazado_152957" data-name="Trazado 152957" d="M313.05,312.93,300.86,327l-11.74,14.89c2.3,3.75,6.69,4.65,11.74,1.74,7.42-4.29,13.44-15.2,13.44-24.39a14.52,14.52,0,0,0-1.25-6.31Z" fill="#ba68c8"/>
          <path id="Trazado_152958" data-name="Trazado 152958" d="M306.92,308.64a11.17,11.17,0,0,0-6.06,1.72,23,23,0,0,0-6.08,5.32l6.08,11.3Z" fill="#fff" opacity="0.7"/>
          <path id="Trazado_152959" data-name="Trazado 152959" d="M313.05,312.93a7,7,0,0,0-6.13-4.29L300.86,327Z" opacity="0.15"/>
          <path id="Trazado_152960" data-name="Trazado 152960" d="M313.05,312.93,300.86,327l-11.74,14.89c2.3,3.75,6.69,4.65,11.74,1.74,7.42-4.29,13.44-15.2,13.44-24.39a14.52,14.52,0,0,0-1.25-6.31Z" fill="#fff" opacity="0.5"/>
          <path id="Trazado_152961" data-name="Trazado 152961" d="M289.12,342.4h0a.56.56,0,0,1-.42-.26,14.28,14.28,0,0,1-1.77-7.39c0-6.41,2.86-13.85,7.48-19.41a.56.56,0,0,1,.45-.19.54.54,0,0,1,.42.28l6.07,11.31a.52.52,0,0,1-.05.57L289.53,342.2A.54.54,0,0,1,289.12,342.4Zm5.57-25.77c-4.17,5.3-6.74,12.18-6.74,18.12a14,14,0,0,0,1.25,6.17l11-14Z" fill="#fff"/>
          <path id="Trazado_152962" data-name="Trazado 152962" d="M300.86,327.51a.52.52,0,0,1-.47-.28l-6.07-11.3a.53.53,0,0,1,.06-.59,23,23,0,0,1,6.21-5.43,11.64,11.64,0,0,1,6.35-1.8.51.51,0,0,1,.41.23.5.5,0,0,1,.07.46l-6.06,18.35a.54.54,0,0,1-.46.36Zm-5.45-11.77,5.33,9.92,5.45-16.5a11.4,11.4,0,0,0-5.07,1.66,22,22,0,0,0-5.71,4.92Z" fill="#fff"/>
          <path id="Trazado_152963" data-name="Trazado 152963" d="M300.86,327.51a.48.48,0,0,1-.26-.07.52.52,0,0,1-.24-.62l6.06-18.35a.52.52,0,0,1,.52-.36,7.54,7.54,0,0,1,6.58,4.59.54.54,0,0,1-.08.58l-12.19,14.05a.51.51,0,0,1-.39.18Zm6.43-18.32-5.11,15.46,10.24-11.8a6.49,6.49,0,0,0-5.13-3.66Z" fill="#fff"/>
          <path id="Trazado_152964" data-name="Trazado 152964" d="M295.16,345.86a7.37,7.37,0,0,1-6.49-3.71.53.53,0,0,1,0-.61l11.73-14.88,12.21-14.07a.51.51,0,0,1,.47-.18.52.52,0,0,1,.4.29,14.92,14.92,0,0,1,1.31,6.52c0,9.33-6.15,20.48-13.71,24.84a12,12,0,0,1-5.92,1.8Zm-5.39-4c2.29,3.39,6.31,3.86,10.82,1.25,7.27-4.19,13.18-14.93,13.18-23.93a14.81,14.81,0,0,0-.87-5.31l-11.65,13.42Z" fill="#fff"/>
          <path id="Trazado_152965" data-name="Trazado 152965" d="M270.64,327.84l2.2-1.27c.63-.36,1.14-.06,1.14.66v2.12a2.52,2.52,0,0,1-1.14,2l-2.2,1.27c-.63.36-1.14.07-1.14-.66v-2.11A2.53,2.53,0,0,1,270.64,327.84Z" fill="#ba68c8"/>
          <path id="Trazado_152966" data-name="Trazado 152966" d="M270.64,337.33l2.2-1.27c.63-.37,1.14-.07,1.14.66v2.11a2.5,2.5,0,0,1-1.14,2l-2.2,1.27c-.63.37-1.14.07-1.14-.66V339.3A2.5,2.5,0,0,1,270.64,337.33Z" fill="#ba68c8"/>
          <path id="Trazado_152967" data-name="Trazado 152967" d="M270.64,337.33l2.2-1.27c.63-.37,1.14-.07,1.14.66v2.11a2.5,2.5,0,0,1-1.14,2l-2.2,1.27c-.63.37-1.14.07-1.14-.66V339.3A2.5,2.5,0,0,1,270.64,337.33Z" fill="#fff" opacity="0.7"/>
          <path id="Trazado_152968" data-name="Trazado 152968" d="M270.64,346.81l2.2-1.27c.63-.36,1.14-.07,1.14.66v2.11a2.53,2.53,0,0,1-1.14,2l-2.2,1.27c-.63.36-1.14.06-1.14-.66V348.8A2.52,2.52,0,0,1,270.64,346.81Z" fill="#ba68c8"/>
          <path id="Trazado_152969" data-name="Trazado 152969" d="M270.64,346.81l2.2-1.27c.63-.36,1.14-.07,1.14.66v2.11a2.53,2.53,0,0,1-1.14,2l-2.2,1.27c-.63.36-1.14.06-1.14-.66V348.8A2.52,2.52,0,0,1,270.64,346.81Z" opacity="0.15"/>
          <path id="Trazado_152970" data-name="Trazado 152970" d="M270.64,356.29l2.2-1.27c.63-.36,1.14-.06,1.14.66v2.12a2.52,2.52,0,0,1-1.14,2l-2.2,1.27c-.63.36-1.14.07-1.14-.66V358.3a2.53,2.53,0,0,1,1.14-2.01Z" fill="#ba68c8"/>
          <path id="Trazado_152971" data-name="Trazado 152971" d="M270.64,356.29l2.2-1.27c.63-.36,1.14-.06,1.14.66v2.12a2.52,2.52,0,0,1-1.14,2l-2.2,1.27c-.63.36-1.14.07-1.14-.66V358.3a2.53,2.53,0,0,1,1.14-2.01Z" fill="#fff" opacity="0.5"/>
          <path id="Trazado_152972" data-name="Trazado 152972" d="M276.24,327.63a.73.73,0,0,1-.64-.38.74.74,0,0,1,.27-1l6.69-3.86a.75.75,0,0,1,.75,1.29l-6.7,3.87a.79.79,0,0,1-.37.08Z" opacity="0.4"/>
          <path id="Trazado_152973" data-name="Trazado 152973" d="M276.14,337.2a.74.74,0,0,1-.37-1.39l6.69-3.86a.75.75,0,1,1,.75,1.29l-6.7,3.86A.71.71,0,0,1,276.14,337.2Z" opacity="0.4"/>
          <path id="Trazado_152974" data-name="Trazado 152974" d="M276,346.78a.75.75,0,0,1-.38-1.39l6.7-3.86a.74.74,0,0,1,1,.27.76.76,0,0,1-.27,1l-6.7,3.86a.74.74,0,0,1-.35.12Z" opacity="0.4"/>
          <path id="Trazado_152975" data-name="Trazado 152975" d="M275.93,356.36a.72.72,0,0,1-.64-.37.74.74,0,0,1,.27-1l6.7-3.87a.75.75,0,1,1,.74,1.3l-6.7,3.86a.69.69,0,0,1-.37.08Z" opacity="0.4"/>
          <path id="Trazado_152976" data-name="Trazado 152976" d="M239,390.06a.73.73,0,0,1-.64-.38.74.74,0,0,1,.27-1L270,370.57a.74.74,0,0,1,1,.27.75.75,0,0,1-.28,1L239.36,390a.79.79,0,0,1-.36.06Z" opacity="0.4"/>
          <path id="Trazado_152977" data-name="Trazado 152977" d="M240,394.7a.74.74,0,0,1-.37-1.39L271,375.21a.744.744,0,1,1,.74,1.29l-31.36,18.1A.69.69,0,0,1,240,394.7Z" opacity="0.4"/>
          <path id="Trazado_152978" data-name="Trazado 152978" d="M241.45,399.19a.75.75,0,0,1-.38-1.39l31.36-18.1a.75.75,0,1,1,.75,1.29l-31.36,18.1a.739.739,0,0,1-.37.1Z" opacity="0.4"/>
          <path id="Trazado_152979" data-name="Trazado 152979" d="M288.21,361.65a.73.73,0,0,1-.64-.37.74.74,0,0,1,.27-1l31.36-18.1a.76.76,0,0,1,1,.27.75.75,0,0,1-.28,1l-31.35,18.1A.75.75,0,0,1,288.21,361.65Z" opacity="0.4"/>
          <path id="Trazado_152980" data-name="Trazado 152980" d="M289.22,366.29a.73.73,0,0,1-.64-.37.74.74,0,0,1,.27-1l31.36-18.1a.76.76,0,0,1,1,.27.75.75,0,0,1-.28,1l-31.35,18.1A.75.75,0,0,1,289.22,366.29Z" opacity="0.4"/>
          <path id="Trazado_152981" data-name="Trazado 152981" d="M290.67,370.78a.75.75,0,0,1-.65-.37.76.76,0,0,1,.27-1l31.36-18.1a.75.75,0,1,1,.75,1.3L291,370.68a.71.71,0,0,1-.33.1Z" opacity="0.4"/>
          <path id="Trazado_152982" data-name="Trazado 152982" d="M250.05,404.28,321.55,363a5.5,5.5,0,0,1,7.16,1.29c1.53,2.09.91,4.83-1.61,6.29l-71.52,41.27c-2.52,1.45-6,1.07-7.51-1S247.54,405.73,250.05,404.28Z" fill="#ba68c8"/>
          <path id="Trazado_152983" data-name="Trazado 152983" d="M261.85,424.5a.77.77,0,0,1-.65-.37.75.75,0,0,1,.28-1L292.83,405a.76.76,0,0,1,1,.27.75.75,0,0,1-.27,1l-31.36,18.1A.71.71,0,0,1,261.85,424.5Z" opacity="0.4"/>
          <path id="Trazado_152984" data-name="Trazado 152984" d="M257.93,421.73a.75.75,0,0,1-.38-1.39l31.36-18.1a.75.75,0,0,1,1,.28.76.76,0,0,1-.27,1L258.3,421.63a.74.74,0,0,1-.37.1Z" opacity="0.4"/>
          <path id="Trazado_152985" data-name="Trazado 152985" d="M266,426.94a.75.75,0,0,1-.64-.38.74.74,0,0,1,.27-1L297,407.45a.76.76,0,0,1,1,.27.75.75,0,0,1-.28,1l-31.35,18.1a.86.86,0,0,1-.37.12Z" opacity="0.4"/>
          <path id="Trazado_152986" data-name="Trazado 152986" d="M306.62,398.66a.74.74,0,0,1-.37-1.39l31.35-18.1a.75.75,0,0,1,.75,1.3L307,398.56a.71.71,0,0,1-.38.1Z" opacity="0.4"/>
          <path id="Trazado_152987" data-name="Trazado 152987" d="M302.7,395.89a.75.75,0,0,1-.38-1.39l31.36-18.09a.74.74,0,0,1,1,.27.75.75,0,0,1-.28,1l-31.35,18.1a.84.84,0,0,1-.35.11Z" opacity="0.4"/>
          <path id="Trazado_152988" data-name="Trazado 152988" d="M310.74,401.1a.73.73,0,0,1-.64-.37.74.74,0,0,1,.27-1l31.36-18.1a.75.75,0,1,1,.74,1.3L311.12,401a.749.749,0,0,1-.38.1Z" opacity="0.4"/>
          <path id="Trazado_152989" data-name="Trazado 152989" d="M311.21,423.66c-6.8-3.93-18.34-3.64-25.76.64s-7.92,10.94-1.11,14.87,18.34,3.65,25.76-.63S318,427.6,311.21,423.66Zm-4.63,12.84c-5.3,3.06-13.54,3.27-18.4.46s-4.51-7.57.79-10.63,13.54-3.26,18.41-.45S311.88,433.44,306.58,436.5Z" fill="#ba68c8"/>
          <path id="Trazado_152990" data-name="Trazado 152990" d="M292.49,428.37c3.18-1.84,8.13-2,11.05-.28s2.7,4.54-.48,6.38-8.13,2-11,.27S289.31,430.2,292.49,428.37Z" fill="#ba68c8"/>
          <path id="Trazado_152991" data-name="Trazado 152991" d="M292.49,428.37c3.18-1.84,8.13-2,11.05-.28s2.7,4.54-.48,6.38-8.13,2-11,.27S289.31,430.2,292.49,428.37Z" opacity="0.5"/>
          <path id="Trazado_152992" data-name="Trazado 152992" d="M311.21,423.66c-6.8-3.93-18.34-3.64-25.76.64s-7.92,10.94-1.11,14.87,18.34,3.65,25.76-.63S318,427.6,311.21,423.66Zm-4.63,12.84c-5.3,3.06-13.54,3.27-18.4.46s-4.51-7.57.79-10.63,13.54-3.26,18.41-.45S311.88,433.44,306.58,436.5Z" opacity="0.15"/>
          <path id="Trazado_152993" data-name="Trazado 152993" d="M292.32,421.69l1.55,2.78a22.16,22.16,0,0,1,9.13-.17l2.1-2.85a31.15,31.15,0,0,0-12.78.24Z" fill="#ba68c8"/>
          <path id="Trazado_152994" data-name="Trazado 152994" d="M292.32,421.69l1.55,2.78a22.16,22.16,0,0,1,9.13-.17l2.1-2.85a31.15,31.15,0,0,0-12.78.24Z" fill="#fff" opacity="0.7"/>
          <path id="Trazado_152995" data-name="Trazado 152995" d="M298.71,420.31h0a.75.75,0,0,1-.7-.79l.21-3.42,13.78-8a.75.75,0,0,1,.75,1.3L299.61,417l-.16,2.62a.74.74,0,0,1-.74.69Z" opacity="0.4"/>
          <path id="Trazado_152996" data-name="Trazado 152996" d="M351.52,400.41c-6.81-3.93-18.34-3.64-25.77.64s-7.92,10.94-1.11,14.87,18.35,3.65,25.77-.63S358.33,404.34,351.52,400.41Zm-4.63,12.84c-5.3,3.06-13.54,3.27-18.41.46s-4.5-7.57.8-10.63,13.54-3.26,18.4-.45,4.51,7.56-.79,10.62Z" fill="#ba68c8"/>
          <path id="Trazado_152997" data-name="Trazado 152997" d="M332.8,405.12c3.18-1.84,8.12-2,11-.28s2.71,4.54-.48,6.38-8.12,2-11,.27S329.62,407,332.8,405.12Z" fill="#ba68c8"/>
          <path id="Trazado_152998" data-name="Trazado 152998" d="M332.8,405.12c3.18-1.84,8.12-2,11-.28s2.71,4.54-.48,6.38-8.12,2-11,.27S329.62,407,332.8,405.12Z" opacity="0.5"/>
          <path id="Trazado_152999" data-name="Trazado 152999" d="M351.52,400.41c-6.81-3.93-18.34-3.64-25.77.64s-7.92,10.94-1.11,14.87,18.35,3.65,25.77-.63S358.33,404.34,351.52,400.41Zm-4.63,12.84c-5.3,3.06-13.54,3.27-18.41.46s-4.5-7.57.8-10.63,13.54-3.26,18.4-.45,4.51,7.56-.79,10.62Z" opacity="0.15"/>
          <path id="Trazado_153000" data-name="Trazado 153000" d="M351.52,400.41c-5.75-3.32-14.87-3.62-22-1.05l2.46,2.51c5.12-1.83,11.63-1.61,15.74.76a8.849,8.849,0,0,1,1.87,1.43l4.59-1.64a12.38,12.38,0,0,0-2.66-2.01Z" fill="#ba68c8"/>
          <path id="Trazado_153001" data-name="Trazado 153001" d="M351.52,400.41c-5.75-3.32-14.87-3.62-22-1.05l2.46,2.51c5.12-1.83,11.63-1.61,15.74.76a8.849,8.849,0,0,1,1.87,1.43l4.59-1.64a12.38,12.38,0,0,0-2.66-2.01Z" fill="#fff" opacity="0.7"/>
          <path id="Trazado_153002" data-name="Trazado 153002" d="M339.13,397h-.05a.75.75,0,0,1-.7-.79l.21-3.43,13.78-7.95a.75.75,0,0,1,.75,1.29L340,393.66l-.16,2.63a.74.74,0,0,1-.71.71Z" opacity="0.4"/>
          <path id="Trazado_153003" data-name="Trazado 153003" d="M303,448.3a.75.75,0,0,1-.38-1.4L378.74,403a.744.744,0,0,1,.74,1.29L303.33,448.2A.861.861,0,0,1,303,448.3Z" opacity="0.4"/>
          <path id="Trazado_153004" data-name="Trazado 153004" d="M307.07,450.66a.75.75,0,0,1-.37-1.39l76.15-43.94a.75.75,0,1,1,.75,1.29l-76.15,43.94a.75.75,0,0,1-.38.1Z" opacity="0.4"/>
          <path id="Trazado_153005" data-name="Trazado 153005" d="M311.18,453a.75.75,0,0,1-.64-.38.74.74,0,0,1,.27-1L387,407.7a.744.744,0,0,1,.74,1.29l-76.15,43.95a.86.86,0,0,1-.41.06Z" opacity="0.4"/>
        </g>
      </g>
    </g>
  </g>
</svg>
