<?xml version="1.0" encoding="utf-8"?>
<!-- Generator: Adobe Illustrator 25.4.1, SVG Export Plug-In . SVG Version: 6.00 Build 0)  -->
<svg version="1.1" id="Layer_1" xmlns="http://www.w3.org/2000/svg" xmlns:xlink="http://www.w3.org/1999/xlink" x="0px" y="0px"
	 viewBox="0 0 405 405" style="enable-background:new 0 0 405 405;" xml:space="preserve">
<style type="text/css">
	.st0{fill:#FFFFFF;}
	.st1{fill:#707070;}
	.st2{fill:url(#Trazado_153262_00000043431031930123912380000014501981797144666276_);}
	.st3{fill:url(#Trazado_153263_00000094578185538008787660000004232958575301669545_);}
	.st4{fill:#8A7CBF;}
	.st5{fill:#05DBF2;}
	.st6{fill:#515150;}
</style>
<g id="Grupo_137192" transform="translate(5642 157)">
	<g id="Trazado_153948" transform="translate(-5629 -144.604)">
		<path class="st0" d="M189.9,349.6c-10.8,0-21.6-1.1-32.2-3.2c-10.2-2.1-20.3-5.2-29.9-9.3c-9.5-4-18.6-8.9-27.1-14.7
			c-8.4-5.7-16.4-12.3-23.6-19.5c-7.2-7.2-13.8-15.2-19.5-23.6c-5.8-8.5-10.7-17.6-14.7-27.1c-4.1-9.6-7.2-19.7-9.3-29.9
			c-2.2-10.5-3.2-21.3-3.2-32.2s1.1-21.6,3.2-32.2c2.1-10.2,5.2-20.3,9.3-29.9c4-9.5,8.9-18.6,14.7-27.1
			c5.7-8.4,12.3-16.4,19.5-23.6c7.2-7.2,15.2-13.8,23.6-19.5c8.5-5.8,17.6-10.7,27.1-14.7c9.6-4.1,19.7-7.2,29.9-9.3
			c10.5-2.2,21.3-3.2,32.2-3.2s21.6,1.1,32.2,3.2c10.2,2.1,20.3,5.2,29.9,9.3c9.5,4,18.6,8.9,27.1,14.7c8.4,5.7,16.4,12.3,23.6,19.5
			c7.2,7.2,13.8,15.2,19.5,23.6c5.8,8.5,10.7,17.6,14.7,27.1c4.1,9.6,7.2,19.7,9.3,29.9c2.2,10.5,3.2,21.3,3.2,32.2
			s-1.1,21.6-3.2,32.2c-2.1,10.2-5.2,20.3-9.3,29.9c-4,9.5-8.9,18.6-14.7,27.1c-5.7,8.4-12.3,16.4-19.5,23.6
			c-7.2,7.2-15.2,13.8-23.6,19.5c-8.5,5.8-17.6,10.7-27.1,14.7c-9.6,4.1-19.7,7.2-29.9,9.3C211.6,348.5,200.7,349.6,189.9,349.6z"/>
		<path class="st1" d="M189.9,30.9c-10.8,0-21.6,1.1-32.1,3.2c-10.2,2.1-20.3,5.2-29.9,9.3c-9.4,4-18.5,8.9-27,14.7
			c-8.4,5.7-16.4,12.2-23.6,19.4C70.2,84.7,63.7,92.6,58,101c-5.7,8.5-10.7,17.6-14.7,27c-4.1,9.6-7.2,19.7-9.3,29.9
			c-2.1,10.5-3.2,21.3-3.2,32.1s1.1,21.6,3.2,32.1c2.1,10.2,5.2,20.3,9.3,29.9c4,9.4,8.9,18.5,14.7,27c5.7,8.4,12.2,16.4,19.4,23.6
			c7.2,7.2,15.1,13.7,23.6,19.4c8.5,5.7,17.6,10.7,27,14.7c9.6,4.1,19.7,7.2,29.9,9.3c10.5,2.1,21.3,3.2,32.1,3.2s21.6-1.1,32.1-3.2
			c10.2-2.1,20.3-5.2,29.9-9.3c9.4-4,18.5-8.9,27-14.7c8.4-5.7,16.4-12.2,23.6-19.4c7.2-7.2,13.7-15.1,19.4-23.6
			c5.7-8.5,10.7-17.6,14.7-27c4.1-9.6,7.2-19.7,9.3-29.9c2.1-10.5,3.2-21.3,3.2-32.1s-1.1-21.6-3.2-32.1
			c-2.1-10.2-5.2-20.3-9.3-29.9c-4-9.4-8.9-18.5-14.7-27c-5.7-8.4-12.2-16.4-19.4-23.6c-7.2-7.2-15.1-13.7-23.6-19.4
			c-8.5-5.7-17.6-10.7-27-14.7c-9.6-4.1-19.7-7.2-29.9-9.3C211.5,32,200.7,30.9,189.9,30.9 M189.9,30c88.4,0,160,71.6,160,160
			s-71.6,160-160,160s-160-71.6-160-160S101.6,30,189.9,30z"/>
	</g>
	
		<linearGradient id="Trazado_153262_00000122703039856084141290000007922177729036990901_" gradientUnits="userSpaceOnUse" x1="-6396.6211" y1="584.246" x2="-6396.6055" y2="585.3885" gradientTransform="matrix(401.698 0 0 -401.7 2564068.25 234903.8281)">
		<stop  offset="0" style="stop-color:#FFFFFF"/>
		<stop  offset="1" style="stop-color:#D2D7DA"/>
	</linearGradient>
	<path id="Trazado_153262" style="fill:url(#Trazado_153262_00000122703039856084141290000007922177729036990901_);" d="
		M-5439.5-123.6c-93.4,0-169.1,75.7-169.1,169.1s75.7,169.1,169.1,169.1s169.1-75.7,169.1-169.1S-5346.1-123.6-5439.5-123.6z
		 M-5439.5,117.8c-39.9,0-72.3-32.4-72.2-72.3c0-39.9,32.4-72.3,72.3-72.2c39.9,0,72.2,32.4,72.2,72.3
		C-5367.2,85.4-5399.6,117.8-5439.5,117.8C-5439.5,117.8-5439.5,117.8-5439.5,117.8L-5439.5,117.8z"/>
	
		<linearGradient id="Trazado_153263_00000133495189130726865260000004523440840694864038_" gradientUnits="userSpaceOnUse" x1="-6396.9111" y1="584.354" x2="-6396.3506" y2="584.9818" gradientTransform="matrix(405 0 0 -405 2585196 236836)">
		<stop  offset="0" style="stop-color:#D2D7DA"/>
		<stop  offset="1" style="stop-color:#FFFFFF"/>
	</linearGradient>
	<path id="Trazado_153263" style="fill:url(#Trazado_153263_00000133495189130726865260000004523440840694864038_);" d="
		M-5439.5,216c-94,0-170.5-76.5-170.5-170.5s76.5-170.5,170.5-170.5S-5269-48.5-5269,45.5S-5345.5,216-5439.5,216z M-5439.5-122.2
		c-92.5,0-167.7,75.2-167.7,167.7s75.2,167.7,167.7,167.7s167.7-75.2,167.7-167.7S-5347-122.2-5439.5-122.2z M-5439.5,119.2
		c-40.7,0-73.7-33-73.6-73.7c0-40.7,33-73.7,73.7-73.6c40.7,0,73.6,33,73.6,73.7C-5365.8,86.2-5398.8,119.1-5439.5,119.2z
		 M-5439.5-25.4c-39.2,0-70.9,31.8-70.9,70.9s31.8,70.9,70.9,70.9c39.1,0,70.9-31.8,70.9-70.9C-5368.6,6.4-5400.4-25.4-5439.5-25.4z
		"/>
	<path id="Trazado_153264" class="st4" d="M-5424.9-103.4c-4.8-0.5-9.7-0.7-14.6-0.7c-42,0-82.1,17.7-110.4,48.8h40.5v38.7
		c33.8-38.1,91.9-42.1,130.6-9h41.9v-37.7C-5361-86.1-5391.9-100.2-5424.9-103.4z"/>
	<path id="Trazado_153265" class="st5" d="M-5533.1,45.5c0-22.9,8.4-45,23.7-62.1v-38.7h-40.5c-22.2,24.2-35.8,55.2-38.6,87.9
		c-0.4,4.3-0.6,8.6-0.6,12.9c0,41.5,17.3,81.2,47.7,109.4v-37.8h41.7C-5520.8,99.4-5533.1,73.1-5533.1,45.5z"/>
	<path id="Trazado_153266" class="st4" d="M-5370.5,145.3v-36.7c-33.8,37-90.8,40.8-129.2,8.5h-41.7v37.8
		c24.1,22.5,55.1,36.4,87.9,39.5c4.6,0.4,9.2,0.7,13.9,0.7c42.5,0,83-18.1,111.4-49.8H-5370.5z"/>
	<path id="Trazado_153267" class="st5" d="M-5337-63.3v37.7h-41.9c39.3,33.4,44.1,92.3,10.7,131.6c-0.8,0.9-1.6,1.8-2.4,2.7v36.7
		h42.3c21.9-24.4,35.2-55.3,37.8-87.9c0.3-3.9,0.5-7.9,0.5-11.8C-5289.9,4.3-5306.9-35.1-5337-63.3z"/>
	<path id="Trazado_153268" class="st0" d="M-5486.7-78c1.5-0.5,3.5-1.2,5.3-0.8c2.1,0.5,3.8,2.3,5,5.5c1.2,3.3,1,5.8-0.2,7.5
		c-1,1.5-2.6,2.3-4.5,3l-2,0.7l3.3,9.1l-2.6,0.9l-8.8-24.3L-5486.7-78z M-5484-64.3l2.3-0.8c1.1-0.3,2.1-0.9,2.8-1.9
		c0.8-1.2,0.6-3-0.2-5.1c-0.8-2.3-1.9-3.7-3.2-4.1c-1.1-0.2-2.3-0.1-3.3,0.4l-2.3,0.8L-5484-64.3z"/>
	<path id="Trazado_153269" class="st0" d="M-5471.1-83.4l6.4,25.8l-2.6,0.6l-6.4-25.8L-5471.1-83.4z"/>
	<path id="Trazado_153270" class="st0" d="M-5463.2-76.6c1.4-0.7,2.9-1.2,4.4-1.4c2.2-0.3,4-0.1,5.2,1.2c1,1.2,1.2,2.7,1.6,5.1
		l1.7,11.5l-1.9,0.3l-1-2.7c-0.1,2-1.7,3.6-3.7,3.7c-2.8,0.4-5.1-1.1-5.6-4.6c-0.4-1.8,0.2-3.7,1.6-5c1.5-1.4,3.7-1.7,6.5-2.1
		l-0.1-1c-0.2-1.5-0.4-2.6-1-3.4c-0.6-0.7-1.6-1.1-3.2-0.9c-1.3,0.2-2.6,0.7-3.8,1.4l-0.2,0L-5463.2-76.6z M-5456.6-61.1
		c1.2-0.1,2.3-1,2.6-2.2c0.3-1.1,0.3-2.3,0.1-3.4l-0.3-1.9c-2.7,0.4-4,0.6-4.9,1.5c-0.7,0.8-1,1.9-0.7,3
		C-5459.5-61.8-5458.3-60.8-5456.6-61.1z"/>
	<path id="Trazado_153271" class="st0" d="M-5444.7-79.1l0.6,2.7c0.3-2,1.9-3.1,4.3-3.1c2.2,0,3.5,0.9,4.3,2.1
		c0.8,1.3,0.8,3,0.8,4.8l0.1,12.1l-2.7,0l-0.1-12.1c0.1-1.1-0.1-2.2-0.6-3.3c-0.6-0.9-1.6-1.4-2.7-1.3c-3.1,0-3.3,2.6-3.3,4
		l0.1,12.6l-2.7,0l-0.1-18.6L-5444.7-79.1z"/>
	<path id="Trazado_153272" class="st0" d="M-5426.1-78.3l-1.9,18.6l-2.7-0.3l1.9-18.6L-5426.1-78.3z M-5425.4-85l-0.3,3.1l-2.8-0.3
		l0.3-3.1L-5425.4-85z"/>
	<path id="Trazado_153273" class="st0" d="M-5416.8-74.6l-3,16l-2.7-0.5l3-16l-2.9-0.5l0.4-2.1l2.9,0.5l0.4-2.1
		c0.1-1.3,0.6-2.6,1.3-3.7c0.8-1,2.2-1.7,4.6-1.3c0.7,0.1,1.4,0.3,2.1,0.6l-0.4,2.2l-0.2,0c-0.5-0.3-1.1-0.5-1.7-0.6
		c-0.8-0.2-1.6,0.1-2.1,0.7c-0.5,0.8-0.8,1.8-0.9,2.7l-0.4,2.1l4.2,0.8l-0.4,2.1L-5416.8-74.6z"/>
	<path id="Trazado_153274" class="st0" d="M-5405.5-74.3l-4.9,18l-2.6-0.7l4.9-18L-5405.5-74.3z M-5403.6-80.7l-0.8,3l-2.7-0.8
		l0.8-3L-5403.6-80.7z"/>
	<path id="Trazado_153275" class="st0" d="M-5397.6-52.1c-1.1,0-2.1-0.3-3.1-0.6c-4.9-1.8-5.2-5.9-3.2-11.3c2-5.4,5-8.4,9.9-6.5
		c1,0.4,1.9,0.9,2.7,1.5l-0.8,2.1l-0.2-0.1c-0.7-0.6-1.5-1.1-2.3-1.5c-3-1.1-5,0.8-6.7,5.3c-1.7,4.5-1.4,7.3,1.6,8.5
		c0.9,0.3,1.8,0.5,2.7,0.4l0.2,0.1L-5397.6-52.1z"/>
	<path id="Trazado_153276" class="st0" d="M-5386.4-66.6c1.5,0.2,3,0.7,4.4,1.5c1.9,1,3.3,2.3,3.5,4c0.2,1.6-0.6,2.9-1.7,5.1
		l-5.4,10.3l-1.7-0.9l0.7-2.8c-1.3,1.5-3.5,1.9-5.2,0.8c-2.5-1.3-3.5-3.8-1.8-7c0.7-1.7,2.3-2.9,4.2-3.2c2-0.2,4,0.8,6.5,2.1
		l0.5-0.9c0.7-1.3,1.2-2.3,1.2-3.3c0-1-0.7-1.8-2.1-2.6c-1.2-0.6-2.5-1-3.9-1.1l-0.2-0.1L-5386.4-66.6z M-5390.2-50.2
		c1.1,0.6,2.5,0.5,3.4-0.3c0.9-0.7,1.6-1.7,2-2.7l0.9-1.7c-2.4-1.3-3.6-1.8-4.9-1.6c-1.1,0.3-1.9,1-2.3,2
		C-5392.1-52.5-5391.7-51-5390.2-50.2L-5390.2-50.2z"/>
	<path id="Trazado_153277" class="st0" d="M-5367.1-52.7c-0.4-0.4-0.8-0.7-1.2-1c-2.7-1.8-4.2,0.2-5.2,1.6l-6.7,9.9l-2.2-1.5
		l10.4-15.5l1.7,1.1l-1.2,2.8c1.9-1.8,3.7-1.4,5.6-0.1l0.4,0.3L-5367.1-52.7z"/>
	<path id="Trazado_153278" class="st0" d="M-5311.6,11.4l-10.8,2.6l2.2,9l10.8-2.6l0.6,2.7l-25.1,6.1l-0.6-2.7l12-2.9l-2.2-9
		l-12,2.9l-0.6-2.7l25.1-6.1L-5311.6,11.4z"/>
	<path id="Trazado_153279" class="st0" d="M-5315.3,31.8c0.6,1.4,1,2.9,1.1,4.5c0.2,2.2-0.1,4-1.5,5.1c-1.2,1-2.8,1.1-5.2,1.3
		l-11.6,1l-0.2-1.9l2.7-0.8c-2-0.2-3.5-1.9-3.5-4c-0.2-2.8,1.4-5,5-5.3c1.9-0.3,3.7,0.4,4.9,1.9c1.3,1.6,1.5,3.8,1.7,6.6l1-0.1
		c1.5-0.1,2.6-0.2,3.4-0.8c0.8-0.5,1.2-1.6,1-3.1c-0.1-1.3-0.5-2.7-1.1-3.9l0-0.2L-5315.3,31.8z M-5331.1,37.4
		c0.1,1.3,0.9,2.3,2.1,2.7c1.1,0.3,2.2,0.4,3.4,0.3l2-0.2c-0.2-2.7-0.4-4-1.2-5c-0.8-0.8-1.9-1.1-2.9-0.9
		C-5330.3,34.6-5331.3,35.7-5331.1,37.4L-5331.1,37.4z"/>
	<path id="Trazado_153280" class="st0" d="M-5332.7,56.8c-0.3-1-0.4-2.1-0.3-3.1c0.3-5.2,4-6.8,9.8-6.4c5.8,0.3,9.5,2.3,9.2,7.5
		c0,1-0.3,2.1-0.6,3.1l-2.3-0.1l0-0.2c0.4-0.8,0.6-1.7,0.7-2.6c0.2-3.2-2.3-4.5-7-4.8c-4.8-0.3-7.4,0.8-7.6,4c0,0.9,0.1,1.8,0.4,2.7
		l0,0.2L-5332.7,56.8z"/>
	<path id="Trazado_153281" class="st0" d="M-5334.3,69.8c-0.2-1.4-0.2-2.8,0-4.2c0.4-2.8,1.6-4.3,3.1-5c1.7-0.9,4.3-1,7.4-0.5
		c5.7,0.9,9.3,3.2,8.6,7.8c-0.2,1.9-1.5,3.6-3.3,4.2c-2.1,0.7-4.6,0.4-7.9-0.1l1.5-9.3c-4.5-0.7-6.8,0.3-7.3,3.5
		c-0.2,1.3-0.1,2.6,0.2,3.8l0,0.2L-5334.3,69.8z M-5324,69.4c4,0.6,6.4,0.2,6.7-2.1c0.4-2.4-1.9-3.7-5.7-4.5L-5324,69.4z"/>
	<path id="Trazado_153282" class="st0" d="M-5322.4,85.3c0.2-0.5,0.4-0.9,0.5-1.4c0.9-3.1-1.5-3.9-3.1-4.4l-11.5-3.2l0.7-2.6l18,5
		l-0.5,1.9l-3.1-0.3c2.3,1.2,2.5,3.1,1.8,5.3l-0.1,0.4L-5322.4,85.3z"/>
	<path id="Trazado_153283" class="st0" d="M-5546.4,66.1l-6.6,3.3l1.7,7.5l7.4,0.2l0.5,2.4l-26.7-0.9l-0.7-3.1l23.7-12.1
		L-5546.4,66.1z M-5553.7,76.8l-1.4-6.4l-12.1,6L-5553.7,76.8z"/>
	<path id="Trazado_153284" class="st0" d="M-5548.2,52.2c0.4,1,0.7,2,0.8,3.1c0.5,5.2-3,7.3-8.8,7.8c-5.8,0.5-9.7-0.9-10.2-6.1
		c-0.1-1,0-2.1,0.2-3.1l2.3-0.2l0,0.2c-0.3,0.9-0.4,1.8-0.3,2.7c0.3,3.1,2.9,4.2,7.6,3.7c4.8-0.4,7.2-1.9,7-5.1
		c-0.1-0.9-0.4-1.8-0.8-2.6l0-0.2L-5548.2,52.2z"/>
	<path id="Trazado_153285" class="st0" d="M-5547.9,40.8c0.2,0.9,0.4,1.8,0.3,2.7c0,1.7-0.5,3.1-1.7,3.8c-1,0.6-2.2,0.6-4.3,0.6
		l-10.6-0.2l-0.1,2.8l-2.1,0l0.1-2.8l-4.9-0.1l-0.7-2.7l5.7,0.1l0.1-4.4l2.1,0l-0.1,4.4l10.7,0.2c0.9,0.1,1.9,0,2.8-0.3
		c0.7-0.3,1-1,1-1.8c0-0.7-0.1-1.4-0.3-2.1v-0.2L-5547.9,40.8z"/>
	<path id="Trazado_153286" class="st0" d="M-5546.2,28.2l-2.8,0.2c1.9,0.6,2.8,2.2,2.5,4.6c-0.1,1.6-1.1,3.1-2.6,3.8
		c-1.3,0.6-2.8,0.4-4.9,0.1l-11.9-1.7l0.4-2.7l11.9,1.7c1.1,0.3,2.2,0.2,3.3-0.1c1-0.4,1.6-1.4,1.7-2.4c0.4-2.9-2.1-3.5-3.5-3.7
		l-12.5-1.8l0.4-2.7l18.5,2.6L-5546.2,28.2z"/>
	<path id="Trazado_153287" class="st0" d="M-5562.5,17.3c-0.1-1.6,0.1-3.1,0.6-4.6c0.6-2.1,1.6-3.7,3.2-4.3c1.5-0.5,3,0,5.3,0.7
		l11.2,3.2l-0.5,1.9l-2.8-0.2c1.8,0.9,2.6,3.1,1.8,4.9c-0.8,2.7-3.1,4.2-6.5,3.2c-1.8-0.4-3.3-1.7-3.9-3.5c-0.6-2,0-4.1,0.7-6.8
		l-1-0.3c-1.5-0.4-2.5-0.7-3.5-0.5c-0.9,0.2-1.7,1.1-2.1,2.5c-0.3,1.3-0.4,2.7-0.3,4l-0.1,0.2L-5562.5,17.3z M-5545.7,17.7
		c0.4-1.2,0-2.5-1-3.3c-0.9-0.7-1.9-1.2-3-1.4l-1.9-0.5c-0.8,2.6-1.1,3.9-0.6,5.1c0.5,1,1.4,1.7,2.4,1.9
		C-5547.5,20-5546.1,19.3-5545.7,17.7L-5545.7,17.7z"/>
	<path id="Trazado_153288" class="st0" d="M-5552.6-4.5c-0.3,0.4-0.5,0.9-0.7,1.3c-1.3,3,1,4.1,2.6,4.7l11,4.6l-1,2.5l-17.2-7.2
		l0.8-1.8l3,0.6c-2.1-1.5-2.1-3.4-1.2-5.5l0.2-0.4L-5552.6-4.5z"/>
	<path id="Trazado_153289" class="st0" d="M-5392.9,172.5l-12.1-19.4l1.7,22.9l-2.4,0.8l-1.7-26.7l2.8-0.9l14.4,22.4L-5392.9,172.5z
		"/>
	<path id="Trazado_153290" class="st0" d="M-5424.6,154.6c1.2-0.7,2.6-1.2,4-1.5c2.8-0.5,4.6,0.1,5.8,1.2c1.4,1.3,2.4,3.7,3,6.8
		c1.1,5.6,0.2,9.8-4.3,10.7c-1.9,0.5-3.9-0.1-5.1-1.6c-1.4-1.7-1.9-4.2-2.6-7.4l9.2-1.8c-0.9-4.5-2.6-6.3-5.8-5.7
		c-1.3,0.3-2.4,0.8-3.5,1.5l-0.2,0L-5424.6,154.6z M-5420.7,164.2c0.8,4,2,6.1,4.3,5.6c2.4-0.5,2.8-3.1,2.2-6.9L-5420.7,164.2z"/>
	<path id="Trazado_153291" class="st0" d="M-5435,171.1c0.5,0,1,0.1,1.5,0c3.3-0.3,3.2-2.8,3.1-4.4l-0.9-11.9l2.7-0.2l1.5,18.6
		l-2,0.2l-0.8-3c-0.4,2.6-2,3.4-4.3,3.5l-0.4,0L-5435,171.1z"/>
	<path id="Trazado_153292" class="st0" d="M-5441.5,180.5l0-3.1l2.9,0l0,3.1L-5441.5,180.5z M-5441.5,173.8l0-18.7l2.7,0l0,18.6
		L-5441.5,173.8z"/>
	<path id="Trazado_153293" class="st0" d="M-5451.1,171l1.3-16.3l2.7,0.2l-1.3,16.3l2.9,0.2l-0.2,2.1l-2.9-0.2l-0.2,2.2
		c0,1.3-0.3,2.6-0.9,3.8c-0.7,1.1-2,1.9-4.4,1.7c-0.7-0.1-1.4-0.2-2.1-0.4l0.2-2.2l0.2,0c0.6,0.2,1.2,0.4,1.8,0.5
		c0.8,0.1,1.6-0.2,2-0.9c0.4-0.9,0.6-1.8,0.6-2.8l0.2-2.1l-4.3-0.3l0.2-2.1L-5451.1,171z"/>
	<path id="Trazado_153294" class="st0" d="M-5463.6,178.5l0.5-3.1l2.8,0.5l-0.5,3.1L-5463.6,178.5z M-5462.4,171.9l3.1-18.4l2.7,0.4
		l-3.1,18.4L-5462.4,171.9z"/>
	<path id="Trazado_153295" class="st0" d="M-5472.5,150.6c1.1-0.1,2.1,0,3.1,0.3c5.1,1.3,5.8,5.3,4.4,10.9c-1.5,5.6-4.1,8.8-9.2,7.5
		c-1-0.2-2-0.7-2.9-1.2l0.6-2.2l0.2,0.1c0.7,0.6,1.6,1,2.5,1.2c3.1,0.8,4.9-1.3,6.1-5.9c1.2-4.6,0.7-7.5-2.4-8.3
		c-0.9-0.2-1.8-0.3-2.7-0.2l-0.2-0.1L-5472.5,150.6z"/>
	<path id="Trazado_153296" class="st0" d="M-5482.1,166.3c-1.6-0.1-3.1-0.4-4.5-1c-2-0.8-3.6-1.9-3.9-3.6c-0.3-1.5,0.3-3,1.2-5.2
		l4.3-10.8l1.8,0.7l-0.5,2.8c1.1-1.7,3.3-2.3,5.1-1.3c2.6,1.1,3.9,3.5,2.5,6.8c-0.6,1.8-2,3.1-3.9,3.6c-2,0.4-4.1-0.4-6.7-1.4
		l-0.4,0.9c-0.6,1.4-1,2.4-0.8,3.4c0.1,0.9,0.9,1.8,2.3,2.3c1.3,0.5,2.6,0.7,4,0.7l0.2,0.1L-5482.1,166.3z M-5480,149.6
		c-1.2-0.5-2.5-0.2-3.4,0.7c-0.8,0.8-1.4,1.8-1.7,2.9l-0.7,1.8c2.6,1,3.7,1.5,5,1.1c1-0.4,1.8-1.2,2.1-2.2
		C-5477.9,151.6-5478.5,150.2-5480,149.6z"/>
	<path id="Trazado_153297" class="st0" d="M-5502.8,154.3c0.4,0.3,0.8,0.6,1.3,0.8c2.9,1.5,4.2-0.6,5-2.1l5.6-10.5l2.4,1.3
		l-8.8,16.4l-1.8-0.9l0.9-2.9c-1.7,2-3.5,1.7-5.6,0.6l-0.4-0.2L-5502.8,154.3z"/>
	<path id="Trazado_153298" class="st6" d="M-5455.2,28.8c-1,0.3-2,0.5-3,0.5c-5.3,0-6.6-4.3-6.6-9.6c0-5.3,1.3-9.7,6.6-9.7
		c1,0,2,0.1,2.9,0.5v1.7h-0.2c-0.8-0.3-1.7-0.5-2.6-0.5c-3.5,0-4.6,2.9-4.6,7.9c0,5,1.2,8,4.7,8c0.9,0,1.8-0.2,2.6-0.5h0.2
		L-5455.2,28.8z"/>
	<path id="Trazado_153299" class="st6" d="M-5450.2,10.1v19h-2v-19H-5450.2z"/>
	<path id="Trazado_153300" class="st6" d="M-5437.6,28.8c-1,0.3-2,0.5-3,0.5c-5.3,0-6.6-4.3-6.6-9.6c0-5.3,1.3-9.7,6.6-9.7
		c1,0,2,0.1,2.9,0.5v1.7h-0.2c-0.8-0.3-1.7-0.5-2.6-0.5c-3.5,0-4.6,2.9-4.6,7.9c0,5,1.2,8,4.7,8c0.9,0,1.8-0.2,2.6-0.5h0.2V28.8z"/>
	<path id="Trazado_153301" class="st6" d="M-5432.6,10.1v17.2h5.6v1.8h-7.6v-19H-5432.6z"/>
	<path id="Trazado_153302" class="st6" d="M-5415.1,27.2c-1.1,1.5-2.9,2.3-4.8,2.2c-1.9,0.1-3.7-0.7-4.8-2.2
		c-1.1-1.6-1.4-3.9-1.4-7.4c0-3.8,0.4-6.1,1.5-7.6c1.1-1.5,2.9-2.3,4.8-2.2c1.9-0.1,3.7,0.7,4.8,2.2c1.1,1.6,1.4,3.8,1.4,7.4
		C-5413.6,23.3-5414,25.6-5415.1,27.2z M-5416.8,26.1c0.7-1.2,1-2.9,1-6.5s-0.3-5.3-1-6.5c-1.2-1.7-3.6-2.1-5.3-0.9
		c-0.3,0.2-0.6,0.5-0.9,0.9c-0.7,1.2-1.1,2.9-1.1,6.5s0.3,5.3,1.1,6.5c1.2,1.7,3.6,2.1,5.3,0.9C-5417.3,26.8-5417,26.5-5416.8,26.1z
		"/>
	<path id="Trazado_153303" class="st6" d="M-5480,37.4c2.3,0,5.3,0.1,7.5,1.5c2.6,1.7,3.9,4.9,3.9,9.7c0,5-1.5,8.2-3.9,9.8
		c-2.1,1.5-4.6,1.8-7.5,1.8h-3.1V74h-3.9V37.4H-5480z M-5483,56.8h3.5c1.4,0,3.2,0,4.6-1.1c1.6-1.2,2.2-3.7,2.2-6.9
		c0-3.5-0.7-5.9-2.2-7.1c-1.4-1-3.1-1.1-4.6-1.1h-3.5L-5483,56.8z"/>
	<path id="Trazado_153304" class="st6" d="M-5459.4,37.4v15.8h13.1V37.4h3.9V74h-3.9V56.6h-13.1V74h-3.9V37.4H-5459.4z"/>
	<path id="Trazado_153305" class="st6" d="M-5433.8,37.4l7.6,31.5l8-31.5h3.5l-9.7,36.6h-4.2l-9.4-36.6L-5433.8,37.4z"/>
	<path id="Trazado_153306" class="st6" d="M-5395.4,74l-2.5-10.2h-10.8l-2.6,10.2h-3.5l9.6-36.6h4.6l9.2,36.6H-5395.4z
		 M-5407.9,60.5h9.2l-4.5-18.6L-5407.9,60.5z"/>
</g>
</svg>
