<svg xmlns="http://www.w3.org/2000/svg" xmlns:xlink="http://www.w3.org/1999/xlink" width="475.752" height="502.656" viewBox="0 0 475.752 502.656">
  <defs>
    <linearGradient id="linear-gradient" x1="0.236" y1="-0.176" x2="0.598" y2="0.812" gradientUnits="objectBoundingBox">
      <stop offset="0" stop-color="#fd90da"/>
      <stop offset="1" stop-color="#8e6dfd"/>
    </linearGradient>
    <linearGradient id="linear-gradient-2" x1="0.497" y1="0.298" x2="0.139" y2="0.872" gradientUnits="objectBoundingBox">
      <stop offset="0" stop-color="#c4e0f5"/>
      <stop offset="1" stop-color="#e1e8f6"/>
    </linearGradient>
    <linearGradient id="linear-gradient-3" x1="0.814" y1="0.593" x2="-0.178" y2="0.299" gradientUnits="objectBoundingBox">
      <stop offset="0" stop-color="#6d6afe"/>
      <stop offset="1" stop-color="#3fb0f7"/>
    </linearGradient>
    <linearGradient id="linear-gradient-4" x1="0.411" y1="0.658" x2="0.689" y2="0.191" gradientUnits="objectBoundingBox">
      <stop offset="0" stop-color="#965cf2"/>
      <stop offset="1" stop-color="#ff8adc"/>
    </linearGradient>
    <linearGradient id="linear-gradient-5" x1="0.351" y1="0.655" x2="0.813" y2="0.174" xlink:href="#linear-gradient-4"/>
    <linearGradient id="linear-gradient-6" x1="0.706" y1="0.197" x2="0.374" y2="0.686" xlink:href="#linear-gradient"/>
    <linearGradient id="linear-gradient-7" x1="0.416" y1="0.617" x2="0.635" y2="0.249" xlink:href="#linear-gradient-4"/>
    <linearGradient id="linear-gradient-8" x1="0.546" y1="0.664" x2="0.373" y2="0.049" gradientUnits="objectBoundingBox">
      <stop offset="0" stop-color="#1c8ef4"/>
      <stop offset="1" stop-color="#00cfdd"/>
    </linearGradient>
    <linearGradient id="linear-gradient-9" x1="0.232" y1="-0.12" x2="0.537" y2="0.687" gradientUnits="objectBoundingBox">
      <stop offset="0" stop-color="#fd70cb"/>
      <stop offset="1" stop-color="#6e4dfd"/>
    </linearGradient>
    <linearGradient id="linear-gradient-10" x1="0.409" y1="0.622" x2="0.576" y2="0.131" xlink:href="#linear-gradient-3"/>
    <linearGradient id="linear-gradient-11" x1="0.345" y1="0.701" x2="0.655" y2="0.104" xlink:href="#linear-gradient-4"/>
    <linearGradient id="linear-gradient-12" x1="0.584" y1="0.284" x2="0.41" y2="0.8" xlink:href="#linear-gradient-3"/>
    <linearGradient id="linear-gradient-13" x1="0.544" y1="0.788" x2="0.373" y2="-0.023" xlink:href="#linear-gradient-4"/>
    <linearGradient id="linear-gradient-14" x1="0.494" y1="0.622" x2="0.528" y2="0.237" xlink:href="#linear-gradient-3"/>
    <linearGradient id="linear-gradient-15" x1="0.392" y1="0.875" x2="0.64" y2="0.023" xlink:href="#linear-gradient-3"/>
    <linearGradient id="linear-gradient-16" x1="0.491" y1="0.104" x2="0.522" y2="0.968" gradientUnits="objectBoundingBox">
      <stop offset="0" stop-color="#ff8a78"/>
      <stop offset="1" stop-color="#ffa799"/>
    </linearGradient>
    <linearGradient id="linear-gradient-17" x1="0.499" y1="0.25" x2="0.528" y2="1.44" xlink:href="#linear-gradient-16"/>
    <linearGradient id="linear-gradient-18" x1="0.423" y1="0.132" x2="0.616" y2="0.772" xlink:href="#linear-gradient-3"/>
    <linearGradient id="linear-gradient-19" x1="0.845" y1="0.229" x2="0.127" y2="0.771" gradientUnits="objectBoundingBox">
      <stop offset="0" stop-color="#235da3"/>
      <stop offset="1" stop-color="#123a76"/>
    </linearGradient>
    <linearGradient id="linear-gradient-20" x1="0.773" y1="0.21" x2="-0.151" y2="0.777" xlink:href="#linear-gradient-19"/>
    <linearGradient id="linear-gradient-21" x1="0.467" y1="0.19" x2="0.682" y2="0.907" xlink:href="#linear-gradient-3"/>
    <linearGradient id="linear-gradient-22" x1="0.435" y1="0.681" x2="0.546" y2="0.437" xlink:href="#linear-gradient-16"/>
    <linearGradient id="linear-gradient-23" x1="0.431" y1="0.163" x2="0.661" y2="0.931" xlink:href="#linear-gradient-3"/>
    <linearGradient id="linear-gradient-24" x1="0.557" y1="0.429" x2="0.304" y2="0.658" xlink:href="#linear-gradient-16"/>
    <linearGradient id="linear-gradient-25" x1="0.597" y1="0.241" x2="0.312" y2="0.78" gradientUnits="objectBoundingBox">
      <stop offset="0" stop-color="#ffb89e"/>
      <stop offset="1" stop-color="#ffa799"/>
    </linearGradient>
    <linearGradient id="linear-gradient-26" x1="0.653" y1="0.689" x2="0.448" y2="0.387" gradientUnits="objectBoundingBox">
      <stop offset="0" stop-color="#8a4791"/>
      <stop offset="1" stop-color="#562e65"/>
    </linearGradient>
    <linearGradient id="linear-gradient-27" x1="0.544" y1="0.432" x2="0.345" y2="0.802" gradientUnits="objectBoundingBox">
      <stop offset="0" stop-color="#5a2d68"/>
      <stop offset="1" stop-color="#22043d"/>
    </linearGradient>
    <linearGradient id="linear-gradient-28" x1="0.438" y1="0.585" x2="0.533" y2="0.506" xlink:href="#linear-gradient-16"/>
    <linearGradient id="linear-gradient-29" x1="0.098" y1="0.575" x2="0.794" y2="0.299" xlink:href="#linear-gradient-4"/>
    <linearGradient id="linear-gradient-30" x1="0.213" y1="0.187" x2="1.067" y2="0.765" gradientUnits="objectBoundingBox">
      <stop offset="0" stop-color="#3e4795"/>
      <stop offset="1" stop-color="#273088"/>
    </linearGradient>
    <linearGradient id="linear-gradient-31" x1="-0.078" y1="0.231" x2="1.225" y2="0.707" xlink:href="#linear-gradient-30"/>
    <linearGradient id="linear-gradient-32" x1="0.385" y1="0.834" x2="0.554" y2="0.199" xlink:href="#linear-gradient-4"/>
    <linearGradient id="linear-gradient-33" x1="0.556" y1="0.648" x2="0.472" y2="0.47" xlink:href="#linear-gradient-16"/>
    <linearGradient id="linear-gradient-34" x1="0.628" y1="0.744" x2="0.359" y2="0.067" xlink:href="#linear-gradient-4"/>
    <linearGradient id="linear-gradient-35" x1="0.522" y1="0.533" x2="0.594" y2="0.852" xlink:href="#linear-gradient-16"/>
    <linearGradient id="linear-gradient-36" x1="0.087" y1="0.373" x2="0.59" y2="0.782" xlink:href="#linear-gradient-25"/>
  </defs>
  <g id="grafico1-05" transform="translate(-0.002 -0.002)" style="isolation: isolate">
    <g id="Layer_2" data-name="Layer 2" transform="translate(0.002 0.002)">
      <path id="Trazado_152724" data-name="Trazado 152724" d="M916.539,515.758l-1.66,2.987-5.978-3.324,1.664-2.987ZM868.2,133.467l3.948,2.2,1.664-2.991-3.952-2.193Zm6.935,3.857,1.664-2.987,5.978,3.324-1.664,2.987Zm8.969,4.988,1.66-2.991,5.978,3.31-1.664,2.987L884.1,142.3Zm8.965,4.985,1.66-2.991,5.978,3.324-1.664,2.976-5.974-3.324Zm8.965,4.985,1.66-2.987,5.978,3.324-1.668,2.987-5.974-3.324ZM911,157.267l1.664-2.987,5.978,3.324-1.664,2.987Zm8.973,4.988,1.664-2.991,5.974,3.324-1.66,2.987Zm8.965,4.985,1.664-2.991,5.974,3.324-1.66,2.991Zm8.965,4.985,1.664-2.987,5.974,3.324-1.66,2.987Zm8.965,4.985,1.66-2.987,5.978,3.324-1.664,2.987-5.974-3.324Zm8.965,4.988,1.66-2.991,5.978,3.324-1.664,2.987Zm8.965,4.985,1.66-2.991,5.978,3.324-1.664,2.991Zm8.962,4.985,1.664-2.987L981.4,192.5l-1.66,2.987Zm8.965,4.985,1.664-2.987,5.974,3.324-1.66,2.987Zm8.965,4.988,1.664-2.991,5.974,3.324-1.66,2.987Zm8.762,4.956a16.732,16.732,0,0,1,4.263,4.455l2.842-1.9a20.168,20.168,0,0,0-5.148-5.358Zm5.8,7.207a21.282,21.282,0,0,1,1.813,6.036h0l3.39-.453a24.845,24.845,0,0,0-2.1-7.029l-3.1,1.45Zm1.972,9.143a61.434,61.434,0,0,1-.87,6.6l3.386.5a65.636,65.636,0,0,0,.9-6.957Zm-1.363,9.984,3.382.493-.993,6.768-3.382-.5Zm-1.486,10.151,3.382.5-.993,6.768-3.382-.5Zm-1.49,10.151,3.386.5-.993,6.768-3.382-.5Zm-1.486,10.151,3.382.5-.979,6.761-3.382-.493.99-6.768Zm-1.486,10.151,3.382.5-.99,6.765-3.382-.493Zm-1.486,10.151,3.382.5-.99,6.765-3.386-.5Zm-1.486,10.151,3.382.493-.993,6.768-3.382-.5Zm-1.486,10.151,3.382.5-.993,6.768-3.382-.5Zm-1.49,10.151,3.386.5-.993,6.768-3.382-.5Zm-1.486,10.151,3.382.5-.99,6.765-3.382-.493Zm-1.486,10.151,3.382.5-.99,6.765-3.357-.5.99-6.765ZM990.5,345.088l3.382.493-.99,6.768-3.386-.5Zm-1.486,10.151,3.382.493L991.4,362.5l-3.382-.5Zm-1.486,10.151,3.382.5-.975,6.757-3.382-.5.993-6.768Zm-1.49,10.151,3.386.5-.993,6.768-3.382-.5Zm-1.486,10.151,3.382.5-.99,6.765-3.382-.493Zm-1.486,10.151,3.382.493-.99,6.768-3.382-.5Zm-1.486,10.151,3.382.5-.99,6.765-3.386-.493Zm-1.486,10.151,3.382.5-.993,6.765-3.382-.5Zm-1.486,10.151,3.382.5L981,433.559l-3.382-.5Zm-1.49,10.151,3.386.5-.993,6.765-3.382-.5ZM975.631,446.6l3.382.493-.99,6.768-3.382-.5Zm-1.486,10.151,3.382.5-.99,6.765-3.382-.493ZM972.659,466.9l3.382.493-.99,6.768-3.386-.5Zm-1.486,10.151,3.382.5-.993,6.765-3.382-.493ZM969.686,487.2l3.382.5-.993,6.765-3.382-.5Zm-1.49,10.151,3.386.5-.993,6.765-3.382-.493ZM966.709,507.5l3.382.5-.99,6.765-3.382-.5Zm-1.486,10.151,3.382.5-.99,6.768-3.382-.5ZM963.737,527.8l3.386.5-.232,1.566a14.759,14.759,0,0,1-1.94,5.587l-2.9-1.813a11.384,11.384,0,0,0,1.45-4.285l.228-1.566Zm-3.524,7.9a6.25,6.25,0,0,1-5.13,1.055l-.7,3.35a9.65,9.65,0,0,0,7.852-1.65Zm-7.838.029-1.657,2.991L944.74,535.4l1.66-2.987Zm-8.962-4.985-1.664,2.991-5.974-3.324,1.66-2.987Zm-8.944-5.017-1.66,2.987-5.978-3.321L928.5,522.4Zm-8.965-4.981-1.66,2.987-5.978-3.324,1.664-2.987Z" transform="translate(-553.455 -83.178)" fill="#fff" fill-rule="evenodd"/>
      <path id="Trazado_152725" data-name="Trazado 152725" d="M742.9,7.7a19.616,19.616,0,0,1,6.939,6.6c-.022-.5-.047,1.334-.033-1.5s-1.61-7.425.609-9.723c.874-.9,5.17-2.581,6.2-2.846a9.167,9.167,0,0,1,6.71,1.171c3.719,2.034,7.087,5.993,9.531,10.753a45.224,45.224,0,0,1,3.988,15.589c0,2.871,0,.993-.044,1.475,2.07-.624,3.93-.613,7.124,1.153s7.207,6.134,9.7,10.963a35.9,35.9,0,0,1,4.089,15.853c0,4.14-.935,7.428-2.538,9.7s-4.749,3.651-6.964,4.387c-6.359,2.208-18.619-10.684-25.087-14.345l-20.486-11.6c-3.7-2.1-7.022-6.087-9.4-10.854a34.9,34.9,0,0,1-3.752-15.465c.029-3.02-2.175-7.548.678-9.719C734.612,5.943,739.346,5.733,742.9,7.7Z" transform="translate(-464.531 -0.002)" fill="#8d6dfc" fill-rule="evenodd"/>
      <path id="Trazado_152726" data-name="Trazado 152726" d="M734.373,12.031a19.581,19.581,0,0,1,6.939,6.6c-.022-.5-.047,1.334-.029-1.5s1.533-9.038,3.966-11.09,5.8-2.327,9.524-.294,7.084,5.993,9.531,10.753a44.953,44.953,0,0,1,3.966,15.589c0,2.871,0,.993-.043,1.475,2.07-.624,3.93-.616,7.127,1.153s7.236,6.127,9.727,10.966a35.844,35.844,0,0,1,4.089,15.853c.011,5.34-1.541,9.292-4.042,11.38s-5.96,2.277-9.766.123l-20.78-11.76-20.486-11.6c-3.7-2.1-7.022-6.087-9.4-10.854a34.913,34.913,0,0,1-3.759-15.454c.047-5.166,1.563-9.009,3.988-11.053S731.245,10.312,734.373,12.031Z" transform="translate(-459.579 -2.773)" fill-rule="evenodd" fill="url(#linear-gradient)"/>
      <path id="Trazado_152727" data-name="Trazado 152727" d="M766.54,67.433l-6.37-3.68,10.02,17.354,10.082-5.746-6.366-3.68.018-16.339-7.367-4.252Z" transform="translate(-484.589 -32.569)" fill="#fff" fill-rule="evenodd"/>
      <path id="Trazado_152728" data-name="Trazado 152728" d="M814.492,91.644l6.373,3.676L810.845,77.97,800.76,83.716l6.37,3.676-.018,16.343,7.363,4.249Z" transform="translate(-510.464 -49.705)" fill="#fff" fill-rule="evenodd"/>
      <path id="Trazado_152729" data-name="Trazado 152729" d="M227.37,137.511l1.45-2.607,5.209,2.9-1.45,2.607-5.213-2.9Zm7.671,243.958-3.919-2.175-1.45,2.607,3.919,2.175Zm-6.525-3.625-1.45,2.607-5.213-2.9,1.45-2.607,5.21,2.9Zm-7.816-4.35-1.45,2.607-5.213-2.9,1.45-2.607Zm-7.82-4.35-1.45,2.607-5.213-2.9,1.45-2.607,5.209,2.9Zm-7.816-4.35-1.45,2.607-5.213-2.9,1.45-2.607Zm-7.816-4.35-1.45,2.607-5.213-2.9,1.45-2.607Zm-7.82-4.35-1.45,2.607-2.683-1.49a12.5,12.5,0,0,1-2.621-1.99l2.1-2.121a8.722,8.722,0,0,0,1.972,1.5l2.683,1.49Zm-6.308-5.075a14.1,14.1,0,0,1-1.979-4.981l-2.929.544a17.148,17.148,0,0,0,2.389,6.036l2.538-1.6Zm-2.175-7.613a56.037,56.037,0,0,1,.776-5.746l-2.965-.417a60.13,60.13,0,0,0-.8,6.069l2.98.109Zm1.207-8.7-2.947-.431.863-5.9,2.951.435-.881,5.9Zm1.3-8.849-2.947-.435.863-5.9,2.951.431Zm1.3-8.853-2.962-.424.863-5.9,2.951.431-.866,5.9Zm1.3-8.849-2.951-.435.866-5.9,2.951.431Zm1.3-8.853-2.951-.431.866-5.9,2.947.431Zm1.283-8.824-2.951-.435.863-5.9,2.951.431Zm1.305-8.871-2.951-.431.866-5.9,2.951.435Zm1.3-8.849-2.951-.435.866-5.9,2.947.431Zm1.3-8.853-2.958-.431.863-5.9,2.951.435-.863,5.9Zm1.294-8.849-2.947-.431.87-5.9,2.951.431-.866,5.9Zm1.3-8.853-2.951-.431.866-5.9,2.951.431Zm1.3-8.849-2.951-.431.852-5.9,2.951.431-.863,5.9Zm1.294-8.849-2.947-.435.863-5.9,2.951.431Zm1.283-8.853-2.951-.431.866-5.9,2.947.435Zm1.294-8.849-2.947-.435.863-5.9,2.951.431Zm1.3-8.853-2.955-.431.866-5.9,2.947.435-.863,5.9Zm1.3-8.849-2.951-.435.874-5.9,2.951.431-.863,5.9Zm1.3-8.842-2.951-.431.866-5.9,2.951.435Zm1.3-8.849-2.951-.431.863-5.9,2.951.431Zm1.294-8.853-2.947-.424.863-5.9,2.951.431-.866,5.9Zm1.283-8.86-2.951-.431.863-5.9,2.951.431Zm1.3-8.849-2.951-.435.863-5.9,2.965.417-.863,5.9Zm1.294-8.853-2.951-.431a25.858,25.858,0,0,1,1.251-6.2l2.748,1.156a25.022,25.022,0,0,0-1.048,5.474ZM213,132.624a4.024,4.024,0,0,1,4.111-.689l.972-2.817a6.986,6.986,0,0,0-7.069,1.28Zm6.525.54,1.45-2.607,5.213,2.9-1.45,2.607Z" transform="translate(-113.439 -82.023)" fill="#fff" fill-rule="evenodd"/>
      <path id="Trazado_152730" data-name="Trazado 152730" d="M554.081,50.334a10.012,10.012,0,0,0-8.516-.953l-6.388,2.5c-2.324,12.01,132.344,452.255,135.309,455.311l5.706-2.153c3.745-1.475,5.71-5.373,6.257-9.165l48.162-328.75a.157.157,0,0,0,0-.036,23.485,23.485,0,0,0-3.919-15.9,18.461,18.461,0,0,0-6.435-6.2Z" transform="translate(-343.693 -31.121)" fill-rule="evenodd" fill="url(#linear-gradient-2)"/>
      <path id="Trazado_152731" data-name="Trazado 152731" d="M622.126,151.676,451.956,57.031c-6.942-3.846-13.551-.156-14.777,8.215L389,394c-1.225,8.374,3.386,18.289,10.328,22.114l170.184,94.648c6.942,3.846,13.566.16,14.791-8.211L632.469,173.8C633.7,165.445,629.065,155.522,622.126,151.676Z" transform="translate(-247.854 -35.385)" fill-rule="evenodd" fill="url(#linear-gradient-3)"/>
      <path id="Trazado_152732" data-name="Trazado 152732" d="M702.848,151.676,532.682,57.031c-6.942-3.846-13.551-.156-14.777,8.215L515.44,82.082,710.722,190.691l2.472-16.876C714.423,165.445,709.79,155.522,702.848,151.676Z" transform="translate(-328.58 -35.385)" fill="#4a9ff8" fill-rule="evenodd"/>
      <path id="Trazado_152733" data-name="Trazado 152733" d="M553.615,104.332a9.528,9.528,0,0,1-2.929-8.385c.573-2.828,2.817-3.647,5.006-1.842a9.481,9.481,0,0,1,2.929,8.382C558.048,105.307,555.79,106.145,553.615,104.332Z" transform="translate(-350.963 -59.38)" fill="#4c68e5" fill-rule="evenodd"/>
      <path id="Trazado_152734" data-name="Trazado 152734" d="M592,127.686a9.524,9.524,0,0,1-2.929-8.382c.573-2.824,2.817-3.651,5.01-1.845a9.469,9.469,0,0,1,2.926,8.382C596.438,128.661,594.194,129.491,592,127.686Z" transform="translate(-375.436 -74.268)" fill="#4c68e5" fill-rule="evenodd"/>
      <path id="Trazado_152735" data-name="Trazado 152735" d="M630.395,151.006a9.524,9.524,0,0,1-2.929-8.382c.573-2.824,2.817-3.651,5.01-1.845a9.473,9.473,0,0,1,2.926,8.385C634.828,151.988,632.584,152.811,630.395,151.006Z" transform="translate(-399.908 -89.134)" fill="#4c68e5" fill-rule="evenodd"/>
      <path id="Trazado_152736" data-name="Trazado 152736" d="M663.781,435.686a1.06,1.06,0,0,0-1.613.9,2.57,2.57,0,0,0,1.124,2.447,1.071,1.071,0,0,0,1.646-.914,2.538,2.538,0,0,0-1.156-2.429ZM470.21,480.335l1.32.725,13.906-94.917-1.32-.725Zm15.226-99.278c-.743-.413-1.479,0-1.617.928a2.567,2.567,0,0,0,1.124,2.433,1.069,1.069,0,0,0,1.657-.892A2.57,2.57,0,0,0,485.436,381.057Zm5.634,115.762,1.32.725L506.3,402.613l-1.32-.725-13.9,94.931Zm15.251-99.289c-.758-.421-1.494,0-1.631.921a2.567,2.567,0,0,0,1.138,2.44,1.07,1.07,0,0,0,1.642-.9A2.567,2.567,0,0,0,506.321,397.53Zm9.6,88.565,1.331.725,13.917-94.913-1.33-.725L515.935,486.1Zm15.288-99.263a1.067,1.067,0,0,0-1.642.914,2.567,2.567,0,0,0,1.153,2.447,1.062,1.062,0,0,0,1.613-.914A2.567,2.567,0,0,0,531.212,386.832Zm9.614,88.562,1.291.725,13.914-94.942-1.294-.725Zm15.226-99.3c-.772-.428-1.483,0-1.62.943a2.537,2.537,0,0,0,1.127,2.418,1.055,1.055,0,0,0,1.628-.892A2.537,2.537,0,0,0,556.053,376.1Zm6.96,106.688,1.32.725,13.907-94.92-1.32-.725-13.892,94.92Zm15.251-99.274a1.071,1.071,0,0,0-1.631.921,2.56,2.56,0,0,0,1.138,2.44,1.064,1.064,0,0,0,1.642-.9,2.577,2.577,0,0,0-1.149-2.465Zm4.978,120.283,1.33.725,13.9-94.917-1.334-.725Zm15.226-99.271c-.725-.413-1.479-.018-1.617.928a2.556,2.556,0,0,0,1.127,2.414,1.055,1.055,0,0,0,1.639-.881A2.538,2.538,0,0,0,598.468,404.523Zm4.31,124.8,1.316.725L618,435.132l-1.32-.725-13.888,94.92Zm15.266-99.267a1.073,1.073,0,0,0-1.642.914,2.574,2.574,0,0,0,1.153,2.451,1.066,1.066,0,0,0,1.628-.906A2.57,2.57,0,0,0,618.045,430.06Zm5.626,115.62,1.309.725,13.914-94.935-1.305-.725-13.91,94.935Zm15.251-99.271a1.047,1.047,0,0,0-1.613.9,2.538,2.538,0,0,0,1.12,2.447,1.069,1.069,0,0,0,1.646-.914,2.538,2.538,0,0,0-1.153-2.429Zm9.607,88.547,1.327.725,13.91-94.931-1.334-.725Z" transform="translate(-299.747 -239.647)" fill="#3856d8" fill-rule="evenodd" opacity="0.5"/>
      <path id="Trazado_152737" data-name="Trazado 152737" d="M682.148,469.528a2.29,2.29,0,0,0-.874-.921,1.145,1.145,0,0,0-1.265,0c-3.23,2.49-6.185,4.644-8.954,6.5s-5.3,3.426-7.678,4.749c-11.079,6.047-19.105,6.475-27,2.092-7.729-4.452-15.19-13.841-24.924-27.052-10.876-14.784-20.5-24.793-30.18-30.159a40.445,40.445,0,0,0-4.3-2.074c-11.155-4.6-22.477-3-36.071,4.626-1.41.754-2.77,1.57-4.126,2.353-10.448,6.051-20.24,11.71-30.815,5.855-5.492-3.049-11.2-9.208-17.311-20.055a2.3,2.3,0,0,0-.866-.914,1.127,1.127,0,0,0-1.276.036,2.2,2.2,0,0,0-.149,2.646c6.83,12.127,13.142,18.967,19.188,22.321,11.383,6.312,21.828.247,32.99-6.2,1.385-.769,2.741-1.552,4.122-2.32,12.953-7.29,23.695-8.86,34.143-4.568a37.091,37.091,0,0,1,3.872,1.874c9.128,5.075,18.347,14.675,28.864,28.948,10.1,13.671,17.862,23.43,26.254,28.277.159.094.323.185.482.272,8.338,4.615,17.039,4.22,28.81-2.175q3.662-1.99,7.878-4.847c2.8-1.914,5.8-4.1,9.038-6.594A2.159,2.159,0,0,0,682.148,469.528Z" transform="translate(-309.812 -264.14)" fill="#3856d8" fill-rule="evenodd" opacity="0.5"/>
      <path id="Trazado_152738" data-name="Trazado 152738" d="M677.138,455.1a2.259,2.259,0,0,0-.874-.91,1.149,1.149,0,0,0-1.265.025c-3.23,2.538-6.185,4.713-8.954,6.627s-5.3,3.5-7.678,4.858c-11.079,6.2-19.105,6.743-27,2.469-7.729-4.35-15.19-13.631-24.924-26.7-10.876-14.632-20.5-24.507-30.18-29.727a40.527,40.527,0,0,0-4.3-2.016c-11.155-4.437-22.477-2.683-36.071,5.133-1.407.772-2.77,1.606-4.126,2.407-10.448,6.2-20.24,11.992-30.815,6.286-5.492-2.969-11.2-9.063-17.311-19.812a2.244,2.244,0,0,0-.866-.9,1.12,1.12,0,0,0-1.276.054,2.211,2.211,0,0,0-.149,2.65c6.83,12.032,13.138,18.782,19.188,22.049,11.383,6.163,21.828-.058,32.99-6.66,1.385-.787,2.741-1.591,4.122-2.378,12.953-7.472,23.695-9.19,34.139-5.046a36.19,36.19,0,0,1,3.875,1.813c9.128,4.934,18.347,14.418,28.864,28.545,10.1,13.533,17.862,23.2,26.254,27.915l.482.265c8.338,4.5,17.039,3.988,28.81-2.592q3.661-2.037,7.878-4.956c2.8-1.954,5.8-4.184,9.038-6.718A2.168,2.168,0,0,0,677.138,455.1Z" transform="translate(-306.618 -256.687)" fill="#6bb6ff" fill-rule="evenodd"/>
      <path id="Trazado_152739" data-name="Trazado 152739" d="M678.136,454.5A137.129,137.129,0,0,1,661.5,465.987c-11.079,6.2-19.105,6.743-27,2.469-7.729-4.35-15.19-13.631-24.924-26.7C600.954,430.173,588.947,415.5,575.1,410c-14.864-5.913-27.327-.073-40.2,7.541-10.448,6.2-20.24,11.992-30.815,6.286-5.492-2.969-11.2-9.063-17.311-19.812a2.244,2.244,0,0,0-.866-.9c1.733,4.455,9.513,17.68,17.039,21.752,11.387,6.163,21.179.758,32.326-5.848,12.438-7.08,25.283-13.446,39.646-7.751,13.051,5.21,25.6,20.436,33.715,31.344,10.1,13.533,17.372,22.774,25.765,27.5,7,3.923,12.855,3.709,19.025,1.407C659.883,469.093,674.852,459.653,678.136,454.5Z" transform="translate(-309.756 -256.973)" fill="aqua" fill-rule="evenodd"/>
      <path id="Trazado_152740" data-name="Trazado 152740" d="M542.561,513.334,442.525,457.9,428.51,553.549l101.011,55.974c7.08,3.919,13.834.163,15.081-8.371L553.11,535.9C554.361,527.375,549.637,517.256,542.561,513.334Z" transform="translate(-273.165 -291.9)" fill-rule="evenodd" opacity="0.5" fill="url(#linear-gradient-4)" style="mix-blend-mode: multiply;isolation: isolate"/>
      <path id="Trazado_152741" data-name="Trazado 152741" d="M489.475,498.063l-9.708,65.98,1.164.141,3.179-1.236c3.487-1.37,5.315-5,5.826-8.53l7.765-59.556a.156.156,0,0,0,0-.036,21.864,21.864,0,0,0-3.647-14.8,17.233,17.233,0,0,0-5.989-5.775L360.655,403.61a9.3,9.3,0,0,0-7.925-.885l-2.8,1.088c-1.41.529-1.845.953-1.838,1.04C349.413,417.194,491.328,485.414,489.475,498.063Z" transform="translate(-221.899 -256.393)" fill="#e5edff" fill-rule="evenodd"/>
      <path id="Trazado_152742" data-name="Trazado 152742" d="M463.166,477.7,335.753,407.076a9.224,9.224,0,0,0-7.918-.888c-2.969,1.156-5.191,4.162-5.833,8.537L314.237,474.3c-1.142,7.794,3.154,17.039,9.614,20.6l127.413,70.613c6.46,3.582,12.627.152,13.776-7.638l7.765-59.563C473.94,490.522,469.626,481.285,463.166,477.7Z" transform="translate(-200.201 -258.597)" fill="#d1e7ff" fill-rule="evenodd"/>
      <path id="Trazado_152743" data-name="Trazado 152743" d="M597.581,602.1,525.007,562.17a2.208,2.208,0,0,0-1.892-.214,2.4,2.4,0,0,0-1.4,2.041l-.486,2.936a5.141,5.141,0,0,0,2.3,4.927l72.574,39.925c1.548.856,3.02.036,3.292-1.813l.486-2.936A5.164,5.164,0,0,0,597.581,602.1Z" transform="translate(-332.245 -358.156)" fill="#fff" fill-rule="evenodd" opacity="0.5"/>
      <path id="Trazado_152744" data-name="Trazado 152744" d="M590.331,651.662l-72.574-39.929a2.211,2.211,0,0,0-1.9-.21,2.393,2.393,0,0,0-1.392,2.041l-.486,2.936a5.139,5.139,0,0,0,2.3,4.923l72.574,39.929c1.544.856,3.02.036,3.292-1.813l.486-2.936A5.154,5.154,0,0,0,590.331,651.662Z" transform="translate(-327.624 -389.752)" fill="#fff" fill-rule="evenodd" opacity="0.5"/>
      <path id="Trazado_152745" data-name="Trazado 152745" d="M539.37,676.663,510.5,661.3a2.2,2.2,0,0,0-1.892-.214,2.408,2.408,0,0,0-1.4,2.045l-.482,2.922a5.139,5.139,0,0,0,2.295,4.927l28.868,15.375c1.544.856,3.02.036,3.292-1.813l.486-2.936A5.158,5.158,0,0,0,539.37,676.663Z" transform="translate(-323 -421.348)" fill="#fff" fill-rule="evenodd" opacity="0.5"/>
      <path id="Trazado_152746" data-name="Trazado 152746" d="M341.076,512c-2.24,20.1,8.9,44.649,24.924,54.8s31.373-2.922,33.059-18.054-1.149-21.422-5.728-31.4c-2.788,1.541-5.576,3.078-8.36,4.586,2.973,6.409,4.8,10.513,3.72,20.24s-10.956,18.126-21.24,11.6-17.445-22.3-16.009-35.2C348.022,516.372,344.538,514.175,341.076,512Z" transform="translate(-217.245 -326.387)" fill="#22d2fb" fill-rule="evenodd"/>
      <path id="Trazado_152747" data-name="Trazado 152747" d="M352.99,455.78c-5.985,3.263-10.26,10.3-11.38,20.363,3.462,2.2,6.946,4.39,10.365,6.573.725-6.453,3.451-11,7.3-13.091Q356.111,462.719,352.99,455.78Z" transform="translate(-217.768 -290.549)" fill="#12a3eb" fill-rule="evenodd"/>
      <path id="Trazado_152748" data-name="Trazado 152748" d="M394.655,454.431c-8.015-5.075-15.708-5.579-21.675-2.335q3.114,6.957,6.283,13.878c3.854-2.085,8.8-1.769,13.921,1.486s9.531,8.835,12.431,15.2c2.784-1.5,5.568-3.013,8.356-4.55C409.454,468.178,402.671,459.5,394.655,454.431Z" transform="translate(-237.766 -286.897)" fill="#1c8df3" fill-rule="evenodd"/>
      <path id="Trazado_152749" data-name="Trazado 152749" d="M826.249,789.582c-14.679-11.7-23.455-36.013-19.609-54.314s18.851-23.651,33.537-11.945,23.455,36.024,19.605,54.317S840.92,801.278,826.249,789.582Z" transform="translate(-513.636 -457.147)" fill-rule="evenodd" opacity="0.5" fill="url(#linear-gradient-5)" style="mix-blend-mode: multiply;isolation: isolate"/>
      <path id="Trazado_152750" data-name="Trazado 152750" d="M813.11,722.912c2.668-2.781,9.368-4.376,13.123-4.579,4.379-.236,9.266,1.544,14.109,5.536,12.717,10.481,20.331,32.265,17,48.669-.99,4.869-2.777,8.762-5.271,11.438-2.327,2.5-9.817,5.648-13.276,5.927C818.066,792.8,805.265,731.1,813.11,722.912Z" transform="translate(-516.851 -457.907)" fill="#d0e7ff" fill-rule="evenodd"/>
      <path id="Trazado_152751" data-name="Trazado 152751" d="M813.824,786.8c-12.721-10.513-20.334-32.287-17-48.687s16.346-21.186,29.071-10.7,20.33,32.265,17,48.669S826.541,797.26,813.824,786.8Z" transform="translate(-507.457 -460.163)" fill-rule="evenodd" fill="url(#linear-gradient-6)"/>
      <path id="Trazado_152752" data-name="Trazado 152752" d="M842.228,790.57l3.458,2.476L820.658,817.06l-9.408-24.728,4.615,2.646,6.159,8.755Z" transform="translate(-517.151 -503.968)" fill="#fff" fill-rule="evenodd"/>
      <path id="Trazado_152753" data-name="Trazado 152753" d="M674.43,902.944,523.351,819.3a8.959,8.959,0,0,0-7.689-.859c-2.9,1.12-5.039,4.039-5.659,8.287L499.526,901c-1.109,7.566,3.06,16.524,9.331,20l139.029,76.964c1.515-.569,8.878-1.871,9.288-4.046Z" transform="translate(-318.321 -521.408)" fill-rule="evenodd" opacity="0.5" fill="url(#linear-gradient-7)" style="mix-blend-mode: multiply;isolation: isolate"/>
      <path id="Trazado_152754" data-name="Trazado 152754" d="M718.631,923.234l-11.8,76.808,1.088.13,2.944-1.146c.149-.058.294-.12.435-.189h.04c3.23-1.272,4.923-4.633,5.4-7.9l10-70.874v-.029a20.269,20.269,0,0,0-3.379-13.714,15.92,15.92,0,0,0-5.547-5.347l-152.6-84.469a8.632,8.632,0,0,0-7.338-.819l-2.6,1.015c-.276.1-.508.2-.725.29-1.124.45-1.483.8-1.472.877C554.319,829.267,720.349,911.517,718.631,923.234Z" transform="translate(-352.574 -519.671)" fill="#d0e7ff" fill-rule="evenodd"/>
      <path id="Trazado_152755" data-name="Trazado 152755" d="M689.348,904.69l-152.624-84.48a8.554,8.554,0,0,0-7.334-.823c-2.752,1.088-4.811,3.854-5.405,7.907l-9.995,70.874c-1.059,7.218,2.922,15.766,8.9,19.083l152.6,84.469c5.985,3.314,11.7.138,12.754-7.077l10-70.878C699.314,916.563,695.319,908,689.348,904.69Z" transform="translate(-327.547 -522.026)" fill-rule="evenodd" fill="url(#linear-gradient-8)"/>
      <path id="Trazado_152756" data-name="Trazado 152756" d="M531.828,948.454c1.718-10.006,5.608-13.388,10.586-11.992a10.32,10.32,0,0,1,2.364,1c4.88,2.781,9.857,10.053,10.615,22.165.486,7.664,1.95,14.69,8.374,18.355,16.886,9.038,10.8-44.46,26.783-35.335,13.776,7.86,5.529,36.274,10.876,54.274,1.86,6.243,5.213,9.179,7.526,10.513,9.723,5.184,10.8-11.206,12.065-18.1,5.873-31.884,9.578-33.653,15.52-30.26,6.2,3.6,8.951,6.036,7.805,39.323-.475,13.613,0,25.8,9.578,31.54,10.695,6.1,11.633-6.4,16.383-12.493,2.82-3.625,6.486-4.35,9.828-2.451,3.625,2.063,6.863,7.218,8.273,15.175,2.371,13.356,1.283,31.819.558,38.257L528,977.293C529.378,967.523,530.342,957.1,531.828,948.454Z" transform="translate(-336.587 -596.779)" fill="#d0e7ff" fill-rule="evenodd"/>
      <path id="Trazado_152757" data-name="Trazado 152757" d="M426.644,789.821,401.6,776.07,390.75,850.094,416.083,864c7.055,3.908,13.776.163,15.034-8.338l6.04-43.347C438.4,803.807,433.695,793.721,426.644,789.821Z" transform="translate(-249.094 -494.725)" fill-rule="evenodd" opacity="0.5" fill="url(#linear-gradient-9)" style="mix-blend-mode: multiply;isolation: isolate"/>
      <path id="Trazado_152758" data-name="Trazado 152758" d="M374.779,777.577l-7.475,46.11,1.164.141,3.179-1.236c3.487-1.37,5.315-5,5.826-8.53l5.536-39.7v-.033a21.859,21.859,0,0,0-3.647-14.8,17.2,17.2,0,0,0-5.989-5.775l-48.818-26.8a9.305,9.305,0,0,0-7.925-.885l-2.8,1.088c-1.41.529-1.845.953-1.838,1.04C313.313,740.53,376.636,764.928,374.779,777.577Z" transform="translate(-198.886 -462.514)" fill="#d0e7ff" fill-rule="evenodd"/>
      <path id="Trazado_152759" data-name="Trazado 152759" d="M352.395,757.226l-48.821-26.8a9.241,9.241,0,0,0-7.907-.888c-2.969,1.156-5.188,4.158-5.829,8.538l-5.55,39.7c-1.142,7.794,3.154,17.039,9.614,20.6l48.821,26.8c6.46,3.582,12.627.152,13.776-7.638l5.51-39.7C363.165,770.045,358.851,760.8,352.395,757.226Z" transform="translate(-181.109 -464.726)" fill="#fff" fill-rule="evenodd"/>
      <path id="Trazado_152760" data-name="Trazado 152760" d="M367,821.686c-.493,3.379-3.139,4.909-5.935,3.361s-4.68-5.59-4.184-8.972,3.129-4.822,5.974-3.263A9.216,9.216,0,0,1,367,821.668Zm-15.342,30.028c.5-3.379,3.132-4.843,5.978-3.263a9.15,9.15,0,0,1,4.144,8.875c-.5,3.375-3.139,4.909-5.935,3.361s-4.68-5.59-4.187-8.969Zm-17.459-28.9c-.493,3.361-3.183,4.8-5.974,3.263a9.206,9.206,0,0,1-4.147-8.857c.493-3.357,3.158-4.9,5.935-3.357s4.68,5.586,4.187,8.965Zm29.288-14.284c-4.756-2.639-9.321-.178-10.151,5.576v.446l-16.582,2.61a14.051,14.051,0,0,0-6.1-7.537c-4.753-2.636-9.252-.116-10.1,5.634-.834,5.688,2.3,12.485,7.058,15.121,2.741,1.523,5.358,1.338,7.251-.207l13.374,19.279-.1.308c-.841,5.75,2.371,12.525,7.124,15.161s9.252.134,10.1-5.616c.834-5.688-2.349-12.533-7.055-15.143-3.382-1.874-6.623-1.153-8.541,1.417l-12.667-18.46a7.562,7.562,0,0,0,.645-2.346,10.149,10.149,0,0,0,.1-2.733l15.766-2.7c.928,4.165,3.491,8.084,6.888,9.958,4.713,2.607,9.255.116,10.1-5.637S368.19,811.136,363.488,808.53Z" transform="translate(-204.26 -514.743)" fill-rule="evenodd" fill="url(#linear-gradient-10)"/>
      <path id="Trazado_152761" data-name="Trazado 152761" d="M975.992,284.679,921,256.13l-5.735,2.752L907.2,317.455c-1.193,8.142,3.3,17.764,10.046,21.527l37.1,20.323,6.308-2.44Z" transform="translate(-578.196 -163.277)" fill-rule="evenodd" opacity="0.5" fill="url(#linear-gradient-11)" style="mix-blend-mode: multiply;isolation: isolate"/>
      <path id="Trazado_152762" data-name="Trazado 152762" d="M1049.631,204.967l-14.251,94.449,1.218.149,3.321-1.291c3.625-1.432,5.554-5.224,6.087-8.911l12.221-87.753a.256.256,0,0,0,0-.036,22.861,22.861,0,0,0-3.81-15.469,17.993,17.993,0,0,0-6.257-6.032L983.227,144.5a9.692,9.692,0,0,0-8.28-.928l-2.929,1.146c-1.472.555-1.929,1-1.918,1.088C971.481,158.69,1051.57,191.749,1049.631,204.967Z" transform="translate(-618.414 -91.174)" fill="#d0e7ff" fill-rule="evenodd"/>
      <path id="Trazado_152763" data-name="Trazado 152763" d="M1014.913,183.7l-64.936-35.571a9.655,9.655,0,0,0-8.276-.928c-3.1,1.207-5.438,4.35-6.094,8.922l-12.224,87.757c-1.193,8.142,3.3,17.764,10.046,21.527l64.939,35.571c6.75,3.741,13.192.156,14.385-7.976l12.239-87.768C1026.166,197.092,1021.66,187.438,1014.913,183.7Z" transform="translate(-588.51 -93.483)" fill="#fff" fill-rule="evenodd"/>
      <path id="Trazado_152764" data-name="Trazado 152764" d="M1019.63,183.7l-64.936-35.571a9.655,9.655,0,0,0-8.276-.928c-3.1,1.207-5.438,4.35-6.094,8.922l-9.734,69.873,89.388,48.966,9.73-69.728C1030.883,197.092,1026.377,187.438,1019.63,183.7Z" transform="translate(-593.227 -93.483)" fill-rule="evenodd" fill="url(#linear-gradient-12)"/>
      <path id="Trazado_152765" data-name="Trazado 152765" d="M949.318,394.589c.217-1.628,1.45-2.346,2.741-1.6l29.39,15.951a4.576,4.576,0,0,1,1.947,4.307l-.428,3.223c-.217,1.631-1.45,2.349-2.744,1.6l-29.39-15.951a4.576,4.576,0,0,1-1.947-4.307Z" transform="translate(-604.868 -250.333)" fill="#6d6afd" fill-rule="evenodd" opacity="0.25"/>
      <path id="Trazado_152766" data-name="Trazado 152766" d="M944.31,433.99c.2-1.45,1.276-2.066,2.418-1.41,16.676,9.041,43.978,23.789,60.643,32.83a4.052,4.052,0,0,1,1.715,3.8l-.362,2.839c-.2,1.45-1.28,2.07-2.418,1.41-16.676-9.038-43.982-23.789-60.643-32.83a4.042,4.042,0,0,1-1.715-3.792Z" transform="translate(-601.724 -275.592)" fill="#6d6afd" fill-rule="evenodd" opacity="0.25"/>
      <path id="Trazado_152767" data-name="Trazado 152767" d="M1019.482,226.81l-7.595,56.63,14.523,8.182,7.613-56.63L1019.5,226.81ZM978.158,185l-10.187,75.8,14.5,8.182,10.191-75.8Zm20.033,25.25,14.5,8.179-8.432,62.829-14.5-8.164,8.436-62.829Zm-44.406-18.344,14.523,8.179-7.613,56.63-14.5-8.164Z" transform="translate(-603.172 -117.933)" fill="#4a9ef8" fill-rule="evenodd"/>
      <path id="Trazado_152768" data-name="Trazado 152768" d="M958.132,262.179a.967.967,0,0,1,.272-1.45,1.324,1.324,0,0,1,1.678-.047l13.051,13.076,6.815,2.61,15.915-4.252,10.782-11.043a1.421,1.421,0,0,1,1.7-.3.794.794,0,0,1,.228.225l18.942,22.429,13.029,2.429c.66-.062,1.156.341,1.088.9a1.406,1.406,0,0,1-1.287,1.138l-13.609-2.371a1.059,1.059,0,0,1-.968-.326l-18.489-21.893-9.991,10.234h0a1.566,1.566,0,0,1-.725.413l-16.774,4.481a1.3,1.3,0,0,1-.8-.025l-7.276-2.8a.913.913,0,0,1-.4-.228Z" transform="translate(-610.64 -166.002)" fill="#4164f3" fill-rule="evenodd" opacity="0.5" style="mix-blend-mode: multiply;isolation: isolate"/>
      <path id="Trazado_152769" data-name="Trazado 152769" d="M958.057,262.474a1.29,1.29,0,0,1,.3-1.707,1.168,1.168,0,0,1,1.675-.036l12.732,15.527,6.743,3.15L995.5,274.6l11.021-12.852a1.272,1.272,0,0,1,1.7-.326.91.91,0,0,1,.225.265l17.347,25.855,14.864-1.573a.946.946,0,0,1,1.088,1.088,1.533,1.533,0,0,1-1.312,1.32L1024.972,290a.961.961,0,0,1-.957-.4l-16.923-25.217L996.88,276.293h0a1.548,1.548,0,0,1-.725.475l-16.85,5.075a1.135,1.135,0,0,1-.8-.04l-7.189-3.382a.892.892,0,0,1-.392-.272Z" transform="translate(-610.605 -165.995)" fill="#fff" fill-rule="evenodd"/>
      <path id="Trazado_152770" data-name="Trazado 152770" d="M488.807,179.05l27.483,12.63c6.562,3.8,8.527,16.071,7.45,24.268l-5.583,41.143c-1.088,8.193-7.276,11.768-13.838,7.976L479.41,249.949l.986-6.815Z" transform="translate(-305.612 -114.141)" fill-rule="evenodd" opacity="0.5" fill="url(#linear-gradient-13)" style="mix-blend-mode: multiply;isolation: isolate"/>
      <path id="Trazado_152771" data-name="Trazado 152771" d="M304.875,79.414c.363-2.755-.388-4.423.979-5.982.87-.993,3.625-2.273,4.771-2.7a8.831,8.831,0,0,1,7.613,1l78.57,45.928c6.326,3.662,10.626,13.051,9.589,20.965l-5.387,39.693c-.319,2.451-1.233,5.612-3.324,7.417a12.942,12.942,0,0,1-5.732,2.839c-1.744.221-2.277-1.4-4.292-2.567l-78.585-45.932c-6.333-3.669-10.626-13.051-9.589-20.965Z" transform="translate(-190.818 -44.79)" fill="#d0e7ff" fill-rule="evenodd"/>
      <path id="Trazado_152772" data-name="Trazado 152772" d="M299,82.9c1.037-7.907,7.011-11.354,13.348-7.686l78.581,45.925c6.33,3.665,10.626,13.051,9.592,20.969L395.134,181.8c-1.037,7.907-7.022,11.351-13.352,7.689L303.2,143.559c-6.337-3.669-10.629-13.051-9.592-20.969Z" transform="translate(-187.07 -47.015)" fill="#fff" fill-rule="evenodd"/>
      <path id="Trazado_152773" data-name="Trazado 152773" d="M307.928,82.9c1.037-7.907,7.011-11.354,13.348-7.689l78.581,45.932c6.33,3.665,10.629,13.051,9.592,20.969l-.508,3.723a20.529,20.529,0,0,0-2.121-1.414L307.46,86.339Z" transform="translate(-195.998 -47.013)" fill-rule="evenodd" fill="url(#linear-gradient-14)"/>
      <path id="Trazado_152774" data-name="Trazado 152774" d="M320.142,165.47c8,1.834,14.139,11.362,13.729,21.288s-7.251,16.484-15.251,14.653-14.139-11.358-13.733-21.284S312.141,163.657,320.142,165.47Z" transform="translate(-194.346 -105.291)" fill="#6d6afd" fill-rule="evenodd" opacity="0.2"/>
      <path id="Trazado_152775" data-name="Trazado 152775" d="M331.525,188.59c4.314.986,7.613,6.127,7.4,11.474s-3.908,8.889-8.222,7.9-7.613-6.127-7.4-11.478S327.211,187.6,331.525,188.59Zm-.192,4.542c-2.291-.526-4.249,1.356-4.368,4.2s1.639,5.568,3.933,6.094,4.245-1.356,4.368-4.2-1.628-5.568-3.919-6.094Z" transform="translate(-206.092 -120.117)" fill-rule="evenodd" fill="url(#linear-gradient-15)"/>
      <path id="Trazado_152776" data-name="Trazado 152776" d="M397.123,214.482c.276-2.11,1.867-3.005,3.556-1.994l51.312,29.093a6.089,6.089,0,0,1,2.538,5.652L454,251.405c-.276,2.11-1.867,3-3.553,1.994l-51.3-29.093a6.1,6.1,0,0,1-2.538-5.652Z" transform="translate(-252.795 -135.191)" fill="#6d6afd" fill-rule="evenodd" opacity="0.2"/>
      <path id="Trazado_152777" data-name="Trazado 152777" d="M392.1,258.565c.163-1.247,1.106-1.776,2.1-1.178l30.3,17.176a3.633,3.633,0,0,1,1.508,3.339l-.319,2.465c-.163,1.243-1.088,1.773-2.1,1.178l-30.289-17.18a3.625,3.625,0,0,1-1.508-3.339Z" transform="translate(-249.746 -163.921)" fill="#6d6afd" fill-rule="evenodd" opacity="0.2"/>
      <path id="Trazado_152778" data-name="Trazado 152778" d="M326.537,89.263c1.747.4,3.085,2.476,2.994,4.64s-1.581,3.593-3.324,3.194-3.085-2.476-2.994-4.64S324.793,88.864,326.537,89.263Z" transform="translate(-206.037 -56.861)" fill="#fff" fill-rule="evenodd"/>
      <path id="Trazado_152779" data-name="Trazado 152779" d="M348.456,101.878c1.744.4,3.081,2.476,2.991,4.637s-1.581,3.6-3.324,3.194-3.085-2.476-2.991-4.637S346.712,101.468,348.456,101.878Z" transform="translate(-220.01 -64.901)" fill="#fff" fill-rule="evenodd"/>
      <path id="Trazado_152780" data-name="Trazado 152780" d="M372.146,115.673c1.744.4,3.085,2.476,2.991,4.64s-1.581,3.593-3.324,3.194-3.085-2.476-2.991-4.64S370.41,115.274,372.146,115.673Z" transform="translate(-235.112 -73.697)" fill="#fff" fill-rule="evenodd"/>
      <path id="Trazado_152781" data-name="Trazado 152781" d="M340.522,587.22a10.28,10.28,0,0,1-1.338-.315c.489-.069.892-.134,1.171-.188a39.358,39.358,0,0,0,5.438-3.466c-1.635-3.314-5.7.127-6.493.188-.312.025-2.429-.363-4.484-.446a7.518,7.518,0,0,0-6.786,2.708c-.935.656-1.987,1.45-3.06,2.3.254,2.766.605,5.075,2.3,7.49a5.287,5.287,0,0,1,1.588-.446c2.077-.218,4.075.261,8.664,1.784,4.651,1.544,5.478,1.5,12.663-3.676,5.264-3.788,8.131-5.909,7.232-8.7C355.317,577.958,347.015,586.31,340.522,587.22Z" transform="translate(-207.161 -370.891)" fill="#ffa698" fill-rule="evenodd"/>
      <path id="Trazado_152782" data-name="Trazado 152782" d="M341.917,600.954c-4.474-.725-7.613-4.416-11.267-2.251-.924.547-1.762,1.088-2.559,1.631a11.129,11.129,0,0,0,1.175,2.1,5.285,5.285,0,0,1,1.588-.446c2.077-.218,4.075.261,8.664,1.784,4.651,1.544,5.478,1.5,12.663-3.676,3.535-2.538,5.989-4.35,6.946-6.083.471-.852-.9-1.813-2.03-1.008C351.306,597.162,348.41,600.062,341.917,600.954Z" transform="translate(-209.15 -377.835)" fill-rule="evenodd" fill="url(#linear-gradient-16)"/>
      <path id="Trazado_152783" data-name="Trazado 152783" d="M362.228,589.22c-1.965,1.494-12.279,6.25-14.7,5.768-.649-.131-.544-1.389-.609-2.937-.5,1.03.116,3.339-.87,2.839-5.532-2.813-7.925-3.332-11.122-1.305a11.467,11.467,0,0,1,6.322.453c1.929.649,3.712,1.784,5.753,2.342C352.357,594.8,355.619,594.255,362.228,589.22Z" transform="translate(-213.51 -375.613)" fill-rule="evenodd" fill="url(#linear-gradient-17)"/>
      <path id="Trazado_152784" data-name="Trazado 152784" d="M165.962,573.909c-1.117-1.088-2.175-2.248-2.9-2.922-5.616-5.213-14.864-22.114-20.062-47.324,1.882-1.53,7.446-2.976,8.45-3.172a10.406,10.406,0,0,1,9.353,2.947c2.331,2.752,4.713,7.773,6.163,15.792.982,5.405,5.014,12.63,7.733,19.315.12.294.239.587.363.877a126.972,126.972,0,0,1,11.963-5.438c5.42-2.175,11.6-4.205,18.289-6.163.8-.228,1.537.294,2.327.069.439-.192,2.4-.885,2.752-1.051a14.085,14.085,0,0,0,3.281,9.7c-.406.138-2.563,1.131-3,1.294a9.325,9.325,0,0,0-1.921,1.842c-5.032,5.2-19.551,12.975-32.914,17.06C171.3,578.154,167.877,577.4,165.962,573.909Z" transform="translate(-91.159 -331.68)" fill-rule="evenodd" fill="url(#linear-gradient-18)"/>
      <path id="Trazado_152785" data-name="Trazado 152785" d="M165.962,574.867c-1.117-1.088-2.175-2.248-2.9-2.922-5.616-5.213-14.864-22.114-20.062-47.324,11.191-9.107,21.907,5.935,23.742,16.024,2.375,13.069,4.713,24.224,4.822,37.728a6.337,6.337,0,0,1-5.6-3.506Z" transform="translate(-91.159 -332.639)" fill="#3469c0" fill-rule="evenodd" opacity="0.35" style="mix-blend-mode: multiply;isolation: isolate"/>
      <path id="Trazado_152786" data-name="Trazado 152786" d="M57.145,1118.38a24.987,24.987,0,0,1-.689,3.531,40.6,40.6,0,0,0-1.813,5.674c-.928,3.952.363,9.244-.9,14.834a6.105,6.105,0,0,0,.885,6c1.486,1.976,4.194,5.036,7.769,4.919a5.362,5.362,0,0,0,3.767-1.813,9.005,9.005,0,0,0,2.251-6.627,55.09,55.09,0,0,1-.591-7.613c.094-2.741.595-4.245.529-7.25-.065-3.176-.308-7.544-.363-9.593Z" transform="translate(-34.006 -712.939)" fill="#193161" fill-rule="evenodd"/>
      <path id="Trazado_152787" data-name="Trazado 152787" d="M147.756,1068.143c-1.037,2.813-1.718,4.013-1.766,7.939.634,2.07,2.1,2.9,3.72,4.35l1.149.25c2.842,1.541,3.879,6.932,6.525,9.389,1.86,1.733,5.565,2.676,9.241,3.386,3.926.758,7.66-.363,6.638-3.455-2.538-7.675-13.522-16.346-13.776-24.924Z" transform="translate(-93.066 -678.961)" fill="#193161" fill-rule="evenodd"/>
      <path id="Trazado_152788" data-name="Trazado 152788" d="M147.359,792.9c-.283,14.708-3.488,42.227-3,56.721-3.756,3.767-11.282,2.6-13.725-1.254-1.526-13.334-3.3-32.265-3.48-39.6a56.8,56.8,0,0,1,1.954-17.158c-2.175-16.093-11.474-38.047-9.263-53.186.972-6.649,5.329-13.809,6.6-19.294,10.959,13.5,19.312,7.033,23.847,5.858-.025,4.666.33,4.042.178,8.947-.511,16.582-1.283,34.288-2.175,51.479A23.569,23.569,0,0,1,147.359,792.9Z" transform="translate(-76.185 -458.427)" fill-rule="evenodd" fill="url(#linear-gradient-19)"/>
      <path id="Trazado_152789" data-name="Trazado 152789" d="M128.109,822.718c-.511-5.8-.877-10.832-.953-13.95a56.8,56.8,0,0,1,1.954-17.158c-2.175-16.093-11.474-38.047-9.263-53.186.972-6.649,5.329-13.809,6.6-19.294,10.959,13.5,19.312,7.033,23.847,5.858v1.378l-14.367,10.615,3.542-.8c-.138,19.105-2.5,36.528-2.857,55.372-3.705,10.684-5.887,19.812-8.447,30.815Z" transform="translate(-76.185 -458.427)" fill="#1e2353" fill-rule="evenodd" opacity="0.3" style="mix-blend-mode: multiply;isolation: isolate"/>
      <path id="Trazado_152790" data-name="Trazado 152790" d="M85.6,810.543c-2.643,14.7-10.347,50.391-12.185,64.892-4.745,2.639-10.8,1.262-12.482-2.6-.054-13.334,0-37.315,1-44.631.83-6.109,2.984-15.5,5.416-20.972-.972-34.36-4.811-43.5-.17-58.657,2.041-6.649,7.374-13.051,9.524-18.55,2.94,4.521,7.479,10.93,17.2,10.151.953-.076,9.063-5.869,11.739-6.525-3.393,20.439-13.171,47.128-17.927,69.435A26,26,0,0,1,85.6,810.543Z" transform="translate(-38.836 -465.376)" fill-rule="evenodd" fill="url(#linear-gradient-20)"/>
      <path id="Trazado_152791" data-name="Trazado 152791" d="M90.643,519.2a8.074,8.074,0,0,1,3.034,1.022c7.251,4.017,9.756,15.835,10.919,26.192,1.008,8.98.243,16.437-.044,24.652-.228,6.558.62,12.623.323,18.83-.087,1.838-.783,3.832-.972,5.8,0,1.4-.493,2.792-.475,3.872-3.625,13.809-37.851,14.954-42.832,5.6a27.388,27.388,0,0,0,.877-4.18C58.251,598.054,60.115,590.9,59.6,585.9c-.381-3.752-.917-7.58-2.03-10.314-4.655-11.467-11.155-20.3-12.446-29.1-.888-6.065,6.859-13.613,17.075-19.729C72.035,520.872,85.379,517.66,90.643,519.2Z" transform="translate(-28.724 -330.732)" fill-rule="evenodd" fill="url(#linear-gradient-21)"/>
      <path id="Trazado_152792" data-name="Trazado 152792" d="M120,592.68c-3.625,3.683-26.033,25.087-50.83,19.576l.254-1.689c26.138,5.8,49.739-19.576,49.807-19.667l.638.609.1.845Z" transform="translate(-44.095 -376.684)" fill="#70b4f5" fill-rule="evenodd"/>
      <path id="Trazado_152793" data-name="Trazado 152793" d="M127.8,627.981c-6.13,5.775-25.192,21.675-46.53,18.59q-.223-.946-.493-1.813c22.72,3.7,43.086-15.317,47.081-19.319C127.85,626.3,127.829,627.14,127.8,627.981Z" transform="translate(-51.496 -398.702)" fill="#70b4f5" fill-rule="evenodd"/>
      <path id="Trazado_152794" data-name="Trazado 152794" d="M79.23,620.1l4.4-9.172,5.909,9.966,5.075-12.134,7,9.357,3.625-13.033,7.385,7.976L116,598.225l5.51,8.316,4.622-17.4q.138,1.062.254,2.1c.025.246.054.493.076.725l-4.521,17.039-5.438-8.222-3.263,14.378-7.454-8.044L102.1,620.393l-7.167-9.585-5.2,12.358-5.967-10.06-4.024,8.367c-.12-.363-.25-.725-.388-1.062C79.317,620.306,79.273,620.2,79.23,620.1Z" transform="translate(-50.508 -375.562)" fill="#70b4f5" fill-rule="evenodd"/>
      <path id="Trazado_152795" data-name="Trazado 152795" d="M90.979,670.1a.972.972,0,0,1,.87.968.819.819,0,0,1-.87.845.968.968,0,0,1-.87-.968.816.816,0,0,1,.87-.845Z" transform="translate(-57.442 -427.169)" fill="#70b4f5" fill-rule="evenodd"/>
      <path id="Trazado_152796" data-name="Trazado 152796" d="M105.469,655.387a.972.972,0,0,1,.874.968.819.819,0,0,1-.874.845.972.972,0,0,1-.87-.968.819.819,0,0,1,.87-.845Z" transform="translate(-66.68 -417.792)" fill="#70b4f5" fill-rule="evenodd"/>
      <path id="Trazado_152797" data-name="Trazado 152797" d="M122.389,666.287a.968.968,0,0,1,.87.968.816.816,0,0,1-.87.845.972.972,0,0,1-.87-.968.816.816,0,0,1,.87-.845Z" transform="translate(-77.466 -424.74)" fill="#70b4f5" fill-rule="evenodd"/>
      <path id="Trazado_152798" data-name="Trazado 152798" d="M136.719,647.316a.968.968,0,0,1,.87.968.816.816,0,0,1-.87.845.968.968,0,0,1-.87-.968.812.812,0,0,1,.87-.845Z" transform="translate(-86.6 -412.647)" fill="#70b4f5" fill-rule="evenodd"/>
      <path id="Trazado_152799" data-name="Trazado 152799" d="M154.669,654.427a.968.968,0,0,1,.87.968.816.816,0,0,1-.87.845.972.972,0,0,1-.87-.968.819.819,0,0,1,.87-.845Z" transform="translate(-98.043 -417.18)" fill="#70b4f5" fill-rule="evenodd"/>
      <path id="Trazado_152800" data-name="Trazado 152800" d="M165.379,633.466a.968.968,0,0,1,.87.968.816.816,0,0,1-.87.845.972.972,0,0,1-.87-.972.812.812,0,0,1,.87-.841Z" transform="translate(-104.871 -403.818)" fill="#70b4f5" fill-rule="evenodd"/>
      <path id="Trazado_152801" data-name="Trazado 152801" d="M183.469,637.907a.975.975,0,0,1,.87.968.816.816,0,0,1-.87.845.968.968,0,0,1-.87-.968.816.816,0,0,1,.87-.845Z" transform="translate(-116.402 -406.648)" fill="#70b4f5" fill-rule="evenodd"/>
      <path id="Trazado_152802" data-name="Trazado 152802" d="M193.089,615.137a.972.972,0,0,1,.874.968.819.819,0,0,1-.874.845.972.972,0,0,1-.87-.968.819.819,0,0,1,.87-.845Z" transform="translate(-122.535 -392.134)" fill="#70b4f5" fill-rule="evenodd"/>
      <path id="Trazado_152803" data-name="Trazado 152803" d="M208.507,617.536a.885.885,0,0,1,.221.047v1.751a.791.791,0,0,1-.228,0,.972.972,0,0,1-.87-.968.819.819,0,0,1,.877-.83Z" transform="translate(-132.359 -393.663)" fill="#70b4f5" fill-rule="evenodd"/>
      <path id="Trazado_152804" data-name="Trazado 152804" d="M74.887,655.875a.972.972,0,0,1,.87.968.819.819,0,0,1-.87.845.972.972,0,0,1-.888-.968.819.819,0,0,1,.888-.845Z" transform="translate(-47.173 -418.102)" fill="#70b4f5" fill-rule="evenodd"/>
      <path id="Trazado_152805" data-name="Trazado 152805" d="M74.842,604.617c1.305,7.077-.363,19.054-3.832,25.377a80.7,80.7,0,0,0-5.471-11.623C65.739,617.835,73.229,595.873,74.842,604.617Z" transform="translate(-41.781 -384.118)" fill="#3469c0" fill-rule="evenodd" opacity="0.35" style="mix-blend-mode: multiply;isolation: isolate"/>
      <path id="Trazado_152806" data-name="Trazado 152806" d="M74,755.36c1.581.823,4.416,1.541,5.572,2.135.6.308,4.909,2.617,7.338,4.031,2.6,1.512,3.458,3.883,5.119,6.467a16.951,16.951,0,0,1,1.99,4.756c.225,1.084-2.5,3.484-3.741,3.292-2.813-.435-5.866-3.658-6.623-3.988-6.42-2.82-9.426-2.947-11.829-5.365-1.03-1.033-1.813-4.2-3.988-6.946l3.589-3.694Z" transform="translate(-43.247 -481.523)" fill-rule="evenodd" fill="url(#linear-gradient-22)"/>
      <path id="Trazado_152807" data-name="Trazado 152807" d="M15.876,576.014c-5.724,9.165-9.843,25.834-14.925,37.141a7.271,7.271,0,0,0-.656,2.4c-.943,2.8.526,5.144,2.469,7.638,4.756,6.1,8.559,11.6,18.351,18.906a5.912,5.912,0,0,0,2.563.754c.613.446,1.486,1.262,2.139,1.726-.834-.943,3.455-6.3,5.572-6.109-.58-.631-1.175-1.32-1.784-2.048A6.417,6.417,0,0,0,29,634.065c-1.711-3.284-7.464-11.391-12.964-17.166,2.273-2.962,4.2-6.409,5.8-8.842A147.252,147.252,0,0,0,29.4,594.974c.888-1.726,1.385-2.581,2.24-4.35C37.983,577.421,22.815,564.9,15.876,576.014Z" transform="translate(-0.002 -364.463)" fill-rule="evenodd" fill="url(#linear-gradient-23)"/>
      <path id="Trazado_152808" data-name="Trazado 152808" d="M127.15,508.934c.105-.555.236-1.106.363-1.7.337-1.689-.1-4.97.363-8.842L113.2,492.2c-.243,8.229-1.591,9.926-3.107,16.633.163,6.594,16.542,9.545,16.886,1.813A12.067,12.067,0,0,1,127.15,508.934Z" transform="translate(-70.18 -313.765)" fill="#ffa698" fill-rule="evenodd"/>
      <path id="Trazado_152809" data-name="Trazado 152809" d="M131.977,508.934c.105-.555.236-1.106.363-1.7.337-1.689-.1-4.97.363-8.842L118.024,492.2c-.054,1.867-.167,3.408-.326,4.745-.522,5.438,4.713,14.947,14.106,13.689A12.066,12.066,0,0,1,131.977,508.934Z" transform="translate(-75.007 -313.765)" fill-rule="evenodd" fill="url(#linear-gradient-24)"/>
      <path id="Trazado_152810" data-name="Trazado 152810" d="M129.094,469c-1.813-1.189-6.714-4.173-8.338-5.358-3.524-2.585-3.1-5.884-4.118-11.05-3.3-2.356-4.4-4.223-4.713-6.337-.7-5.014,2.175-10.419,5.985-13.37a13.308,13.308,0,0,1,11.528-2.356c8.411,1.842,11.876,8.2,12.326,15.48a4.826,4.826,0,0,1-.236,1.813,23.963,23.963,0,0,0-.779,2.7c-.442,2.157,1.015,2.94.435,5.619-.79,3.647-3.817,10.763-5.057,11.963C135.2,469,130.954,469.3,129.094,469Z" transform="translate(-71.283 -274.195)" fill="#ffa698" fill-rule="evenodd"/>
      <path id="Trazado_152811" data-name="Trazado 152811" d="M165,465.18a23.851,23.851,0,0,1,.4,3.172,4.825,4.825,0,0,1-.236,1.813,23.073,23.073,0,0,0-.776,2.7c-.446,2.157,1.011,2.94.431,5.619a43.506,43.506,0,0,1-2.277,6.7c-5.416,4.118-10.151-.914-10.876-1.845-3.393-4.376-3.654-10.923-1.088-17.039A20.826,20.826,0,0,0,165,465.18Z" transform="translate(-94.899 -296.541)" fill-rule="evenodd" fill="url(#linear-gradient-25)"/>
      <path id="Trazado_152812" data-name="Trazado 152812" d="M105.495,434.373c.225,2.781,2.4,9.922,4.049,12.572,1.707,2.744.964-.62,1.863-2.5.692-1.45,2.929-1.613,3.625-3.1.33,1.265.776,2.5,1.591,2.944.518.283,1.57.671,1.61-.823.145-5.159,2.585-5.518,1.813-8.61-.58-2.32-.439-3.317.127-4.155,1.686.236,2.77,1.961,4.742,2.813a17.26,17.26,0,0,0,11.731-1.113c4.158-2.273,4.546-7.337,1.051-10.593-1.943-1.813-4.122-2.269-7.174-4.31a13.239,13.239,0,0,0-17.039,1.813C105.828,420.85,104.994,428.155,105.495,434.373Z" transform="translate(-67.176 -264.686)" fill="#562e65" fill-rule="evenodd"/>
      <path id="Trazado_152813" data-name="Trazado 152813" d="M122.246,479.5c-3.172-1.45-3.567,2.349-3.281,4.713.2,1.613,1.508,1.624,1.86,2.9a2.993,2.993,0,0,0,2.491,2.414c2,.141,1.059-2.947.935-4.147C124.671,483.462,124.258,480.409,122.246,479.5Z" transform="translate(-75.789 -305.462)" fill="#ffa698" fill-rule="evenodd"/>
      <path id="Trazado_152814" data-name="Trazado 152814" d="M152.1,440.289c-.3,2.157,2.465,4.691,6.366,4.9,3.625.2,8.516-.656,10.328-5.05a5.036,5.036,0,0,0-1.9-5.438,4.559,4.559,0,0,0-4.35.018c-2.672,1.175-4.9,4.162-6.812,4.9C153.927,440.336,152.132,440.061,152.1,440.289Z" transform="translate(-96.946 -276.769)" fill-rule="evenodd" fill="url(#linear-gradient-26)"/>
      <path id="Trazado_152815" data-name="Trazado 152815" d="M1091.333,591.245c-4.771-.725-8.545,2.538-10.459,6.928a25.879,25.879,0,0,0-1.167,15.248c3.11,11.318-2.371,16.248-4.387,21.523a22.975,22.975,0,0,0-1.164,8.726c.134,4.053,2.472,6.141,4.434,9.77a32.015,32.015,0,0,0,2.853,10.035c5.372,10.738,23.441,15.922,40.784,15.128,13.877-.634,27.295-5.543,33.352-11.184,6.667-6.192,7.53-21.915-3.669-23.517-2.606-.363-5.645-.939-7.87-3.625-1.533-1.853-.051-6.743.315-13.25.362-6.3-1.088-12.935-10.249-15.146-3.509-.848-6.932-1.2-9.864-3.121-6.4-4.2-4.057-12-11-16.593-4.191-2.773-10.937-3.375-18.3-1.33C1093.758,590.963,1092.555,591.111,1091.333,591.245Z" transform="translate(-684.735 -375.869)" fill-rule="evenodd" fill="url(#linear-gradient-27)"/>
      <path id="Trazado_152816" data-name="Trazado 152816" d="M1090.786,610.47c-.4,3.078.725,5.757,2.538,8.338,4.267,6.018,6.526,5.547,8.846,13.214,3.839-2.563,6.475-2.951,7.58-.439,1.78,4.046.66,6.438,1.088,10.622.674,6.8,8.806-2.538,15.183,2.69,6.268,5.122,1.969,8.719,4.39,15.973.9,2.715,1.609,6.283,4.144,7.482,7.885,3.734,10.9,13.127-3.132,17.793-8.7,2.9-21.324,2.175-31.877-1.45-13.932-4.745-22.524-25.286-18.967-35.045,1.472-4.039,5.438-7.055,5.463-10.209C1086.113,628.614,1084.021,621.661,1090.786,610.47Z" transform="translate(-688.328 -389.159)" fill="#22043d" fill-rule="evenodd"/>
      <path id="Trazado_152817" data-name="Trazado 152817" d="M933.655,637c-2.124.689-1,3.154-.181,3.85,1.229,1.214,3.7,2,3.484,3.263-.236,1.45,7.74,4.194,7.722,4.078A14.637,14.637,0,0,0,941,641.727C936.718,638.889,937.207,640.712,933.655,637Z" transform="translate(-594.403 -406.072)" fill-rule="evenodd" fill="url(#linear-gradient-28)"/>
      <path id="Trazado_152818" data-name="Trazado 152818" d="M921.876,650.9c4.582,6.116,8.208,17.92,12.812,23.423,1.45,1.74,3.625,4.6,6.134,4.165,13.051-2.266,1.171-7.316,2.563-10.876-2.2-7.667-11.528-11.963-15.364-20.447a15.565,15.565,0,0,0-.7-1.718c-1.581-3.223-3.092-4.209-9.23-5.369a6.568,6.568,0,0,1-3.495-1.813l-4.024-3.988c-1.331-1.088-2.451-1.45-3.005-1.149-.62.319-2.284,3.509-2.331,5.231h0c-.228.649.482,1.813,2.055,3.052l5,6.979.435.062C918.3,649.22,920.513,649.753,921.876,650.9Z" transform="translate(-577.039 -403.541)" fill="#ffa698" fill-rule="evenodd"/>
      <path id="Trazado_152819" data-name="Trazado 152819" d="M971.584,705.971c9.023-.892,21.958-2.324,28.94-5.924,4.542-2.342,12.736-12.391,8.124-17.97-.975-2.614-9.687,2.875-13.975,4.5a171.07,171.07,0,0,1-20.9,6.377c-2.175-6.116-7.947-10.952-12.5-16.64a7,7,0,0,0-2.538-2.048,11.18,11.18,0,0,1-1.45-2.175c-.769-.315-5.666,1.718-6.946,4.144.363.468,1.113,1.53,1.45,2.052.486.725.362,1.664.761,2.538,1.316,2.9,7.551,15.589,11.7,20.541,1.577,1.885,3.89,5.217,6.627,4.742Z" transform="translate(-605.817 -428.422)" fill-rule="evenodd" fill="url(#linear-gradient-29)"/>
      <path id="Trazado_152820" data-name="Trazado 152820" d="M998.881,723.783c9.023-.892,21.958-2.324,28.94-5.924,3.926-2.023,10.571-9.788,9.335-15.473-1.689-1.591-2.708-2.443-4.144-2.382-1.813.08-3.988,2.012-8.128,4.158-6.286,3.263-12.2,3.422-17.064,9.176-3.589,4.245-9.578,7.914-14.661,7.754,1.4,1.6,3.107,3.15,5.032,2.813Z" transform="translate(-633.114 -446.233)" fill="#7e41df" fill-rule="evenodd" opacity="0.5"/>
      <path id="Trazado_152821" data-name="Trazado 152821" d="M1175.24,1226.86a6.264,6.264,0,0,0,.7,3.513c3.3,4.789-.631,4.383-.457,11.213,0,.627-2.777,11.42-2.777,11.42s-6.576,1.591-7.066,1.5-4.484-1.628-4.484-1.628c.337-.584.783-2.008,1.059-2.538a43.193,43.193,0,0,0,3.625-12.652c.482-2.969,1.388-7.581.779-10.7Z" transform="translate(-740.21 -782.092)" fill="#ffa698" fill-rule="evenodd"/>
      <path id="Trazado_152822" data-name="Trazado 152822" d="M1157.021,1258.259a28.972,28.972,0,0,0-1.849,4.35,2.059,2.059,0,0,0,.087,1.766c1.5,2.175,9.52-1.421,12.239-3.665,1.758-1.45,1.852-3.23,2.328-5.395.725-3.263.827-3.625,1.722-6.939l.58,9.143.725.479a102.127,102.127,0,0,1,1.526-11.757c.272-1.254.725-2.683.79-3.382a7.234,7.234,0,0,0-3.35-7.439c.605,2.538-1.639,6.554-2.639,11.662C1167.977,1253.271,1162.51,1258.3,1157.021,1258.259Z" transform="translate(-736.292 -787.549)" fill="#161f69" fill-rule="evenodd"/>
      <path id="Trazado_152823" data-name="Trazado 152823" d="M1077.59,879.52c.624,2.806-2.244,12.5-1.512,16.227.7,12.271,2.857,22.658,11.129,47.2,0,.279,7.559,15.288,8.063,16.857,5.151,16.013,11.572,33.392,17.039,49.568,2.023,1.566,8.142,1.088,8.929-2.726-1.689-16.158.152-32.091-2.621-43.141-2.114-8.425-4.883-12.268-9.426-18.511-1.392-15.882-2.4-47.734-6.011-59.947Z" transform="translate(-685.895 -560.672)" fill-rule="evenodd" fill="url(#linear-gradient-30)"/>
      <path id="Trazado_152824" data-name="Trazado 152824" d="M1080.46,879.52c.624,2.806,2.476,8,3.208,11.731,2.309,5.652,7.171,13.384,10.452,19.881.983,7.874.707,18.344,5.626,32.939l4.452,33.744c3.665,10.568,7.515,21.306,10.974,31.54,2.023,1.566,8.142,1.088,8.929-2.726-1.689-16.158.152-32.091-2.621-43.141-2.114-8.425-4.883-12.268-9.426-18.511-1.392-15.882-2.4-47.734-6.011-59.947Z" transform="translate(-688.766 -560.672)" fill="#1e2353" fill-rule="evenodd" opacity="0.3" style="mix-blend-mode: multiply;isolation: isolate"/>
      <path id="Trazado_152825" data-name="Trazado 152825" d="M1157.1,1270.63c-.156,1.49.533,3,.725,4.488a52.223,52.223,0,0,1,.489,7.943,70.766,70.766,0,0,1-1.769,14.28c-.457,1.987-1.341,2.839-1.939,5.561l-11.72,1.91c1.156-4.43,2.744-13.413,3.941-20.918l2.237-14.044Z" transform="translate(-728.563 -809.497)" fill="#ffa698" fill-rule="evenodd"/>
      <path id="Trazado_152826" data-name="Trazado 152826" d="M1156.283,1282.25c.678,2.349,1.45,3.6,1.555,6.812s-1.381,8.222-1.258,12.192l.2,6.3c.116,3.669-.819,6.217-4.992,9.252-3.781,2.752-7.464,3.879-9.469,2.9-1.475-.725-2.654-3.317-.391-10.172,1.881-5.71,2.367-11.293,3.473-17.488a62.053,62.053,0,0,1-2,14.088c-.41,1.668-.652,4.459,1.327,4.742,8.19,1.167,8.6-1.033,9.277-3.556C1155.8,1300.576,1157.12,1288.576,1156.283,1282.25Z" transform="translate(-727.143 -817.401)" fill="#161f69" fill-rule="evenodd"/>
      <path id="Trazado_152827" data-name="Trazado 152827" d="M1126.636,901.838c9.1,11.383,9.328,17.695,7.356,31.373-1.32,9.146-3.988,20.247-4.673,36.322.787,8.291,2.273,17.575,1.142,30.452-.834,9.477-3.5,25.739-5.507,37.228-1.892,3.553-10.832,2.009-12.29.178.42-16.473.159-27.766-.627-41.071-.765-12.939-2.309-24.942-3.263-37.7-.8-10.56-4.01-24.924-4.434-36.332-1.7-5.376-17.814-23.2-14.458-22.959Z" transform="translate(-694.48 -573.296)" fill-rule="evenodd" fill="url(#linear-gradient-31)"/>
      <path id="Trazado_152828" data-name="Trazado 152828" d="M1113.886,748.648c-4.086,9.451,2.86,14.679.363,21.19l.772,4.4c-7.453,5.351-34.121,5.75-40.806-4.858l-.141-5.289c-1.149-2.538-.392-8.936-.054-10.626,1.088-5.373.573-8.222,1.16-14.432.145-1.57.442-2.559.587-4.151-5.938-4.434-5.565-13.015-2.045-18.155a45.35,45.35,0,0,0,4.637-8.15,36.716,36.716,0,0,1,1.026-4.669,7.691,7.691,0,0,1,1.244-2.538c1.7-2.418,4.437-2.708,10.035-1.425,11.09,2.538,22.513,8.3,27.61,13.725,3.709,3.948,3.56,8.338,1.45,17.8A103.04,103.04,0,0,1,1113.886,748.648Z" transform="translate(-682.843 -445.721)" fill-rule="evenodd" fill="url(#linear-gradient-32)"/>
      <path id="Trazado_152829" data-name="Trazado 152829" d="M1119.175,784.479c-4.086,9.448,2.693,14.845.192,21.356l.772,4.35c-7.457,5.8-34.125,5.525-40.81-5.075l.141-4.619c0-.181,13.094,11.6,28,5.05,3.234-1.421,6.163-8.5,1.976-22.023-.4-1.287-5.148-1.378-11.876-6.33,4.967,2.106,14.331,4.988,14.795-7.642.2-5.645,1.037-9.89,3.926-13.816,1.4-1.9,9.625,8.081,8.371,12.87A119.794,119.794,0,0,1,1119.175,784.479Z" transform="translate(-688.045 -481.608)" fill="#7e41df" fill-rule="evenodd" opacity="0.5"/>
      <path id="Trazado_152830" data-name="Trazado 152830" d="M1169.526,893.2c-1.359.823-3.828,1.62-4.822,2.215-.515.3-4.2,2.6-6.275,3.988-2.219,1.49-2.842,3.625-4.166,6.029a15.018,15.018,0,0,0-1.494,4.329c-.141,1.008,2.418,2.944,3.506,2.7,2.469-.547,4.992-3.578,5.641-3.915,5.536-2.868,8.182-3.15,10.183-5.438.855-.975,1.378-3.825,3.139-6.384l-3.393-3.071Z" transform="translate(-734.858 -569.392)" fill-rule="evenodd" fill="url(#linear-gradient-33)"/>
      <path id="Trazado_152831" data-name="Trazado 152831" d="M1181.97,736.024c8.215,5.173,17.3,19.446,25.435,32.149a5.946,5.946,0,0,1,.363,6.308,15.537,15.537,0,0,1-1.6,2.878,78.8,78.8,0,0,1-15.911,17.764,6.174,6.174,0,0,1-2.407,1c-.518.431-1.243,1.2-1.813,1.653.685-.885-3.426-5.315-5.293-5.017.482-.594.968-1.236,1.45-1.918a5.412,5.412,0,0,1,.33-2.1c2.694-6.119,6.116-12.271,10.386-16.948-7.414-8.015-11.659-9.955-18.565-18.366C1165.972,743.21,1176.518,732.595,1181.97,736.024Z" transform="translate(-746.628 -468.778)" fill-rule="evenodd" fill="url(#linear-gradient-34)"/>
      <path id="Trazado_152832" data-name="Trazado 152832" d="M1133.105,679.52a29.092,29.092,0,0,0,1.106,14.244c-3.988,3.7-11.108,2.128-12.761-1.225.362-2.175.758-4.162.99-6.388Z" transform="translate(-714.896 -433.177)" fill="#ffa698" fill-rule="evenodd"/>
      <path id="Trazado_152833" data-name="Trazado 152833" d="M1133.679,679.52a27.87,27.87,0,0,0-.363,6.888c-1.171,4.738-10.042,7.939-10.966,4.169.254-1.45.5-2.9.66-4.43Z" transform="translate(-715.469 -433.177)" fill-rule="evenodd" fill="url(#linear-gradient-35)"/>
      <path id="Trazado_152834" data-name="Trazado 152834" d="M1100.264,622.54a15.837,15.837,0,0,0-2.592,10.843,4.681,4.681,0,0,1-.363,2.592c-1.864,4.205-1.7,5.51-.776,8.882.9,3.263.838,4.988,1.958,6.116a6.62,6.62,0,0,0,4.321,1.512c2.987.189,8.11-1.78,11.086-3.408,2.212-1.207,2.125-2.03,3.056-4.122,3.118-2.712,1.088-4.687.054-4.891-2.995-.58-3.48,2.868-5.253,3.625C1112.05,637.636,1100.5,627.42,1100.264,622.54Z" transform="translate(-698.586 -396.854)" fill="#ffa698" fill-rule="evenodd"/>
      <path id="Trazado_152835" data-name="Trazado 152835" d="M1098.972,629.24a15.516,15.516,0,0,0-1.269,8.414,4.681,4.681,0,0,1-.363,2.592c-1.863,4.205-1.7,5.51-.772,8.882.4,1.45.609,2.625.819,3.553a2.8,2.8,0,0,0,3.484,1.008c1.247-.555,2.472-2.027,2.781-4.484.221-1.744,3.792-2.9,4.531-4.666.613-1.468-1.041-3.111-2.037-3.955A24.842,24.842,0,0,1,1098.972,629.24Z" transform="translate(-698.606 -401.125)" fill-rule="evenodd" fill="url(#linear-gradient-36)"/>
      <path id="Trazado_152836" data-name="Trazado 152836" d="M1107.952,622.54c1.678,7.443,11.4,13.073,11.481,21.153C1116.783,635.3,1107.354,629.548,1107.952,622.54Z" transform="translate(-706.274 -396.854)" fill="#ff8f7f" fill-rule="evenodd"/>
    </g>
  </g>
</svg>
