<svg xmlns="http://www.w3.org/2000/svg" width="78" height="78" viewBox="0 0 78 78">
  <g id="Grupo_137177" data-name="Grupo 137177" transform="translate(-922 -1518.096)">
    <circle id="Elipse_500" data-name="Elipse 500" cx="39" cy="39" r="39" transform="translate(922 1518.096)" fill="#ef6c00"/>
    <g id="Grupo_136794" data-name="Grupo 136794" transform="translate(682.054 1292.686)">
      <path id="Trazado_152339" data-name="Trazado 152339" d="M313.027,256.019a2.165,2.165,0,0,0,.112.5,1.035,1.035,0,0,0,.261.37,2.628,2.628,0,0,0,.66.446,2.306,2.306,0,0,0,.428.157v-3.274a1.929,1.929,0,0,0-.979.518A1.659,1.659,0,0,0,313.027,256.019Z" transform="translate(-36.03 -12.204)" fill="#fcecdf"/>
      <path id="Trazado_152340" data-name="Trazado 152340" d="M322.148,268.789v2.872a1.175,1.175,0,0,0,.206-.086,1.558,1.558,0,0,0,.472-.36,1.2,1.2,0,0,0,.193-.36,1.018,1.018,0,0,0,.068-.282v-.013a2.01,2.01,0,0,0-.354-1.37A1.638,1.638,0,0,0,322.148,268.789Z" transform="translate(-41.732 -21.309)" fill="#fcecdf"/>
      <path id="Trazado_152341" data-name="Trazado 152341" d="M310.687,246.011a11.324,11.324,0,1,0-11.325,11.322A11.337,11.337,0,0,0,310.687,246.011Zm-7.148,3.312a3.083,3.083,0,0,1-.854,1.88,3.181,3.181,0,0,1-1.852.938v.278a.94.94,0,0,1-.367.768,1.038,1.038,0,0,1-.625.215,1,1,0,0,1-.634-.23.94.94,0,0,1-.329-.753v-.246a5.235,5.235,0,0,1-2.174-.739,3.314,3.314,0,0,1-1.513-2.273.787.787,0,0,1,.158-.708.8.8,0,0,1,.722-.283.875.875,0,0,1,.887.775,1.865,1.865,0,0,0,.727,1.017,2.646,2.646,0,0,0,1.191.449l0-3.3a4.331,4.331,0,0,1-2.131-.912,3.407,3.407,0,0,1-1.17-2.261,3.193,3.193,0,0,1,.2-1.466,3.35,3.35,0,0,1,.8-1.184,3.666,3.666,0,0,1,1.282-.787,4.9,4.9,0,0,1,1.012-.257v-.3a.96.96,0,0,1,.294-.715.972.972,0,0,1,1.307-.045.986.986,0,0,1,.357.76v.4a3.52,3.52,0,0,1,1.657.919,3.278,3.278,0,0,1,.94,2.345c-.108.6-.415.9-.831.956a.844.844,0,0,1-.953-.795,2.732,2.732,0,0,0-.127-.614,1.53,1.53,0,0,0-.272-.491,2.311,2.311,0,0,0-.414-.392v3.35a4.02,4.02,0,0,1,1.183.493,3.288,3.288,0,0,1,1,.945,3.112,3.112,0,0,1,.463,1.171A3.846,3.846,0,0,1,303.539,249.323Z" transform="translate(-20.417)" fill="#fcecdf"/>
      <path id="Trazado_152342" data-name="Trazado 152342" d="M344.544,297.878a9.644,9.644,0,0,1,2.1-1.994l.607-6.535a6.618,6.618,0,0,0-2.349,4.476Z" transform="translate(-55.727 -34.157)" fill="#fcecdf"/>
      <path id="Trazado_152343" data-name="Trazado 152343" d="M359.553,271.771a4.028,4.028,0,0,0-2.457,3.346l-.8,8.6a9.664,9.664,0,0,1,2.22-.514Z" transform="translate(-63.071 -23.172)" fill="#fcecdf"/>
      <path id="Trazado_152344" data-name="Trazado 152344" d="M352.3,260.287a.8.8,0,0,0-.81-.016,4.842,4.842,0,0,0-2.569,3.495l-1.127,12.444a2.349,2.349,0,0,1,.885,3.154l-5.089,9.657A1.1,1.1,0,0,1,341.649,288l5.1-9.671-.125-.238h-.011a7.514,7.514,0,0,0-6.027,3.059l-2.658,3.617a11.655,11.655,0,0,0-2.273,6.944v10.682h9.526v-4.708a1.091,1.091,0,0,1,.12-.5l5.547-10.847a16.865,16.865,0,0,0,1.85-7.681V260.989A.8.8,0,0,0,352.3,260.287Z" transform="translate(-50.17 -15.922)" fill="#fcecdf"/>
      <path id="Trazado_152345" data-name="Trazado 152345" d="M287.4,297.878l-.356-4.053a6.619,6.619,0,0,0-2.349-4.476l.607,6.535A9.635,9.635,0,0,1,287.4,297.878Z" transform="translate(-18.331 -34.157)" fill="#fcecdf"/>
      <path id="Trazado_152346" data-name="Trazado 152346" d="M274.733,283.717l-.8-8.6a4.028,4.028,0,0,0-2.457-3.346l1.037,11.431A9.664,9.664,0,0,1,274.733,283.717Z" transform="translate(-10.068 -23.172)" fill="#fcecdf"/>
      <path id="Trazado_152347" data-name="Trazado 152347" d="M267.479,281.149a7.514,7.514,0,0,0-6.027-3.059h-.011l-.125.238,5.1,9.671a1.1,1.1,0,0,1-1.939,1.022l-5.089-9.657a2.349,2.349,0,0,1,.885-3.154l-1.127-12.444a4.842,4.842,0,0,0-2.569-3.495.817.817,0,0,0-1.208.718v17.667a16.866,16.866,0,0,0,1.85,7.681l5.548,10.847a1.091,1.091,0,0,1,.12.5v4.708h9.526V291.709a11.655,11.655,0,0,0-2.273-6.944Z" transform="translate(0 -15.922)" fill="#fcecdf"/>
    </g>
  </g>
</svg>
