<svg xmlns="http://www.w3.org/2000/svg" width="78" height="78" viewBox="0 0 78 78">
  <g id="Grupo_137175" data-name="Grupo 137175" transform="translate(-285 -1518.096)">
    <circle id="Elipse_498" data-name="Elipse 498" cx="39" cy="39" r="39" transform="translate(285 1518.096)" fill="#ef6c00"/>
    <g id="Grupo_136792" data-name="Grupo 136792" transform="translate(229.063 1477.969)">
      <path id="Trazado_152326" data-name="Trazado 152326" d="M126.518,147.932v5.33a2.808,2.808,0,0,0,1.577-.889,2.1,2.1,0,0,0,.363-.668,1.841,1.841,0,0,0,.12-.537v-.016a3.4,3.4,0,0,0-.627-2.359A3.18,3.18,0,0,0,126.518,147.932Z" transform="translate(-32.213 -57.456)" fill="#fcecdf"/>
      <path id="Trazado_152327" data-name="Trazado 152327" d="M164.346,163.572a6.486,6.486,0,0,0-.769.417c-.089.057-.179.111-.264.172a6.559,6.559,0,0,0-1.577,1.577c-.061.086-.116.177-.173.266a6.537,6.537,0,0,0-.417.766c-.04.088-.086.174-.122.264a6.46,6.46,0,0,0-.32,1.026h4.931v-4.93a6.47,6.47,0,0,0-1.028.32C164.518,163.487,164.433,163.532,164.346,163.572Z" transform="translate(-52.026 -66.264)" fill="#fcecdf"/>
      <path id="Trazado_152328" data-name="Trazado 152328" d="M113.67,130.782a3.724,3.724,0,0,0,.193.865,1.939,1.939,0,0,0,.485.7,4.456,4.456,0,0,0,1.112.753,4.69,4.69,0,0,0,1.1.359v-5.893a3.538,3.538,0,0,0-2.048.971A2.9,2.9,0,0,0,113.67,130.782Z" transform="translate(-24.764 -45.652)" fill="#fcecdf"/>
      <path id="Trazado_152329" data-name="Trazado 152329" d="M75.423,166.77a6.474,6.474,0,0,0-.415-.764c-.057-.09-.112-.18-.173-.267a6.552,6.552,0,0,0-1.577-1.577c-.085-.06-.174-.114-.262-.171a6.536,6.536,0,0,0-.772-.42c-.086-.04-.17-.084-.258-.12a6.425,6.425,0,0,0-1.028-.32v4.93h4.929a6.424,6.424,0,0,0-.319-1.026C75.51,166.945,75.465,166.859,75.423,166.77Z" transform="translate(0 -66.265)" fill="#fcecdf"/>
      <path id="Trazado_152330" data-name="Trazado 152330" d="M161.024,114.241c.037.09.082.175.122.264a6.5,6.5,0,0,0,.417.766c.057.09.112.18.173.266a6.559,6.559,0,0,0,1.577,1.577c.086.061.176.116.264.172a6.551,6.551,0,0,0,.769.418c.087.04.172.085.261.121a6.426,6.426,0,0,0,1.028.32v-4.93H160.7A6.465,6.465,0,0,0,161.024,114.241Z" transform="translate(-52.026 -37.334)" fill="#fcecdf"/>
      <path id="Trazado_152331" data-name="Trazado 152331" d="M72.223,117.7a6.54,6.54,0,0,0,.772-.42c.088-.056.177-.111.262-.171a6.551,6.551,0,0,0,1.577-1.577c.061-.087.116-.177.173-.267a6.473,6.473,0,0,0,.415-.764c.041-.089.087-.175.124-.266a6.411,6.411,0,0,0,.319-1.026H70.937v4.93a6.425,6.425,0,0,0,1.028-.32C72.053,117.788,72.137,117.744,72.223,117.7Z" transform="translate(0 -37.334)" fill="#fcecdf"/>
      <path id="Trazado_152332" data-name="Trazado 152332" d="M112.78,120.84a9.2,9.2,0,0,1-1.087-.338c-.187-.072-.37-.146-.551-.229a9.3,9.3,0,0,1-1.009-.549c-.148-.092-.3-.174-.444-.274a9.389,9.389,0,0,1-1.267-1.046l-.006-.006a9.4,9.4,0,0,1-1.044-1.265c-.1-.142-.181-.294-.272-.441a9.286,9.286,0,0,1-.55-1.012c-.083-.181-.157-.364-.229-.55a9.288,9.288,0,0,1-.338-1.087c-.047-.187-.1-.37-.133-.562-.016-.091-.049-.175-.063-.267H78.758c-.014.092-.047.176-.063.267-.035.191-.086.374-.133.56a9.14,9.14,0,0,1-.339,1.089c-.071.186-.145.367-.227.547a9.219,9.219,0,0,1-.553,1.018c-.09.145-.17.295-.268.435a9.4,9.4,0,0,1-2.322,2.322c-.14.1-.289.178-.434.267a9.2,9.2,0,0,1-1.02.554c-.179.082-.36.156-.545.227a9.184,9.184,0,0,1-1.092.34c-.186.046-.368.1-.559.133-.091.016-.175.049-.267.063v10.273c.092.014.176.047.267.063.19.035.373.086.559.132a9.187,9.187,0,0,1,1.092.34c.185.071.366.144.545.227a9.274,9.274,0,0,1,1.02.554c.145.09.294.17.434.267a9.4,9.4,0,0,1,2.322,2.322c.1.14.178.29.268.435A9.214,9.214,0,0,1,78,136.667c.083.18.156.362.227.547a9.164,9.164,0,0,1,.339,1.089c.047.187.1.37.133.561.017.09.05.175.063.267h27.028c.014-.091.047-.176.063-.267.035-.191.087-.375.133-.562a9.257,9.257,0,0,1,.338-1.087c.072-.187.145-.37.229-.55a9.294,9.294,0,0,1,.55-1.012c.091-.147.173-.3.272-.441a9.4,9.4,0,0,1,1.044-1.266l.006-.006a9.421,9.421,0,0,1,1.267-1.046c.143-.1.3-.182.444-.274a9.3,9.3,0,0,1,1.009-.549c.181-.083.364-.157.551-.229a9.282,9.282,0,0,1,1.087-.338c.188-.047.37-.1.562-.133.09-.016.175-.049.267-.063V121.036c-.092-.014-.176-.047-.267-.063C113.151,120.938,112.968,120.886,112.78,120.84Zm-14.2,10.272a4.617,4.617,0,0,1-1.276,2.8,4.873,4.873,0,0,1-3,1.43v.684a1.184,1.184,0,0,1-.463.981,1.362,1.362,0,0,1-.815.281,1.287,1.287,0,0,1-.814-.3,1.207,1.207,0,0,1-.417-.967v-.648a8.094,8.094,0,0,1-3.568-1.152,4.945,4.945,0,0,1-2.256-3.4.973.973,0,0,1,.188-.883,1.007,1.007,0,0,1,.9-.341,1.1,1.1,0,0,1,1.133.971,3.22,3.22,0,0,0,1.262,1.8,4.755,4.755,0,0,0,2.345.81l0-5.807a6.529,6.529,0,0,1-3.47-1.4,5.1,5.1,0,0,1-1.747-3.38,4.745,4.745,0,0,1,.3-2.177,5.035,5.035,0,0,1,1.2-1.763,5.52,5.52,0,0,1,1.931-1.184,7.56,7.56,0,0,1,1.786-.423v-.732a1.235,1.235,0,0,1,.378-.923,1.266,1.266,0,0,1,2.135.923v.868a5.329,5.329,0,0,1,2.7,1.426,4.905,4.905,0,0,1,1.4,3.506c-.14.757-.531,1.15-1.059,1.215a1.03,1.03,0,0,1-1.179-.993,4.726,4.726,0,0,0-.212-1.034,2.727,2.727,0,0,0-.485-.87,4,4,0,0,0-.854-.774,2.463,2.463,0,0,0-.312-.176v6.033a6.327,6.327,0,0,1,2,.8,4.933,4.933,0,0,1,1.5,1.408,4.646,4.646,0,0,1,.686,1.735A5.862,5.862,0,0,1,98.581,131.112Z" transform="translate(0 -37.334)" fill="#fcecdf"/>
      <path id="Trazado_152333" data-name="Trazado 152333" d="M119.858,98.264h-45.5a1.227,1.227,0,1,0,0,2.455H118.63v27.522a1.229,1.229,0,0,0,2.457,0V99.491A1.228,1.228,0,0,0,119.858,98.264Z" transform="translate(-1.269 -28.67)" fill="#fcecdf"/>
      <path id="Trazado_152334" data-name="Trazado 152334" d="M96.63,56.3l3.313-3.312v11.8a1.229,1.229,0,0,0,2.457,0V52.99l3.311,3.312a1.228,1.228,0,0,0,1.738-1.736l-5.408-5.41a1.23,1.23,0,0,0-1.738,0l-5.41,5.41A1.228,1.228,0,0,0,96.63,56.3Z" transform="translate(-13.676)" fill="#fcecdf"/>
      <path id="Trazado_152335" data-name="Trazado 152335" d="M136.4,65.66a1.229,1.229,0,0,0,1.738,0l5.41-5.409a1.228,1.228,0,1,0-1.738-1.736L138.5,61.827v-11.8a1.229,1.229,0,0,0-2.457,0v11.8l-3.311-3.312a1.228,1.228,0,1,0-1.738,1.736Z" transform="translate(-34.598)" fill="#fcecdf"/>
    </g>
  </g>
</svg>
