<svg xmlns="http://www.w3.org/2000/svg" xmlns:xlink="http://www.w3.org/1999/xlink" width="425.544" height="300.192" viewBox="0 0 425.544 300.192">
  <defs>
    <clipPath id="clip-path">
      <path id="Trazado_150267" data-name="Trazado 150267" d="M459.5,761.886c0,59.128,42.593,99.83,96.856,99.83s98.159-43.336,98.159-102.461S610.613,647.6,556.353,647.6,459.5,702.761,459.5,761.886Z" transform="translate(-459.497 -647.602)" fill="none"/>
    </clipPath>
  </defs>
  <g id="Grupo_137180" data-name="Grupo 137180" transform="translate(-269.5 -6142.085)">
    <path id="Sustracción_5" data-name="Sustracción 5" d="M212.272,0a213.88,213.88,0,0,0-42.78,4.313,211.117,211.117,0,0,0-75.9,31.938,212.875,212.875,0,0,0-76.907,93.392A211.168,211.168,0,0,0,4.313,169.488,213.841,213.841,0,0,0,0,212.269c0,.294,0,.595,0,.888H78.747c0-.267,0-.549,0-.888a134.507,134.507,0,0,1,2.713-26.912,132.764,132.764,0,0,1,20.093-47.744A133.913,133.913,0,0,1,160.3,89.238a132.946,132.946,0,0,1,25.064-7.779,134.864,134.864,0,0,1,53.819,0,132.8,132.8,0,0,1,47.745,20.089A133.913,133.913,0,0,1,335.3,160.292a132.842,132.842,0,0,1,7.78,25.064,134.527,134.527,0,0,1,2.713,26.912c0,.3,0,.591,0,.888h78.748l0-.4c0-.163,0-.326,0-.488a213.836,213.836,0,0,0-4.313-42.78,211.115,211.115,0,0,0-31.941-75.9,212.888,212.888,0,0,0-93.394-76.9A211.221,211.221,0,0,0,255.051,4.313,213.871,213.871,0,0,0,212.272,0Z" transform="translate(270 6228.621)" fill="#3e2ea6" stroke="rgba(0,0,0,0)" stroke-miterlimit="10" stroke-width="1"/>
    <g id="Grupo_133656" data-name="Grupo 133656" transform="translate(-77.464 5547.446)">
      <circle id="Elipse_4980" data-name="Elipse 4980" cx="98.25" cy="98.25" r="98.25" transform="translate(459.124 665.215)" fill="#dad6f7"/>
      <g id="Grupo_133572" data-name="Grupo 133572" transform="translate(460.242 647.602)">
        <g id="Grupo_133571" data-name="Grupo 133571" clip-path="url(#clip-path)">
          <g id="Grupo_136802" data-name="Grupo 136802" transform="translate(26.363 0)">
            <path id="Trazado_152414" data-name="Trazado 152414" d="M4744.2,2850.159c-42.836-14.478-80.991,14.479-85.534,81.105s4.25,108.216,4.25,108.216l128.307,3.13s9.466-11.3,8.335-98.761C4798.339,2849.875,4744.2,2850.159,4744.2,2850.159Z" transform="translate(-4657.36 -2846.512)" fill="#63392c"/>
            <path id="Trazado_152415" data-name="Trazado 152415" d="M4677.607,2984.687c-4.877.684-9.671,5.526-7.411,15.072s10.443,21.119,17.78,17.279-1.061-28.562-1.061-28.562S4684.766,2983.682,4677.607,2984.687Z" transform="translate(-4661.699 -2895.356)" fill="#ffbf88"/>
            <path id="Trazado_152416" data-name="Trazado 152416" d="M4849.369,2984.331c-7.159-1-9.309,3.788-9.309,3.788s-8.4,24.722-1.061,28.562,15.52-7.734,17.781-17.279S4854.246,2985.016,4849.369,2984.331Z" transform="translate(-4720.569 -2895.23)" fill="#ffbf88"/>
            <path id="Trazado_152417" data-name="Trazado 152417" d="M4849.369,2984.331c-7.159-1-9.309,3.788-9.309,3.788s-.73,2.149-1.572,5.279c-2.013,7.485-4.663,20.575.511,23.283,7.337,3.84,15.52-7.734,17.781-17.279S4854.246,2985.016,4849.369,2984.331Z" transform="translate(-4720.569 -2895.23)" fill="#ffbf88"/>
            <path id="Trazado_152418" data-name="Trazado 152418" d="M4850.4,2995.38c-8.237-6.995-15.762,5.332-15.762,5.332s-4.947,11.351,4.833,13.307S4855.189,2999.444,4850.4,2995.38Z" transform="translate(-4719.648 -2898.428)" fill="#fda06c"/>
            <path id="Trazado_152419" data-name="Trazado 152419" d="M4679.813,2995.737c-4.784,4.063,1.151,20.594,10.93,18.638s4.833-13.307,4.833-13.307S4688.051,2988.741,4679.813,2995.737Z" transform="translate(-4664.708 -2898.554)" fill="#fda06c"/>
            <path id="Trazado_152420" data-name="Trazado 152420" d="M4762.874,3107.431c-8.415-11.931-5.589-29.264-5.589-29.264l-50.175,1.381s1.382,15.072-2.386,21.6-28.008,18.086-40.944,20.6c0,0,15.825,20.848,68.575,20.848s62.8-17.583,62.8-17.583S4771.289,3119.363,4762.874,3107.431Z" transform="translate(-4659.632 -2928.482)" fill="#ffbf88"/>
            <path id="Trazado_152421" data-name="Trazado 152421" d="M4730.838,3079.548s.3,3.321.238,7.521c3.722,7.448,11.625,16.337,24.421,16.74,12.666.4,21.05-9.869,25.374-12.9a52.332,52.332,0,0,1,.143-12.739Z" transform="translate(-4683.36 -2928.482)" fill="#fda06c"/>
            <path id="Trazado_152422" data-name="Trazado 152422" d="M4789.26,2892.582c-8.174-24.076-35.4-32.1-49.734-32.594-14.334.491-41.79,8.517-49.963,32.594-7.225,21.285-2.269,30.41-1.293,45.368a56.233,56.233,0,0,1,.065,6.223c-.853,19,1.707,39.783,11.774,51.084s27.9,26.354,39.846,26.354c9.936,0,28.92-15.053,38.988-26.354s12.627-32.085,11.774-51.084S4797.432,2916.658,4789.26,2892.582Z" transform="translate(-4667.39 -2851.281)" fill="#ffbf88"/>
            <path id="Trazado_152423" data-name="Trazado 152423" d="M4793.839,2958.52a70.668,70.668,0,0,0-13.264,4.922,1.518,1.518,0,0,0-.773,1.823l1.25,3.938c.394,1.134,6.983-3.427,13.5-6.206,7.035-3,21.009-.667,20.638-1.871S4802.112,2956.391,4793.839,2958.52Z" transform="translate(-4700.661 -2885.909)" fill="#5b3523"/>
            <path id="Trazado_152425" data-name="Trazado 152425" d="M4736.492,2961.264a70.675,70.675,0,0,0-13.1-5.344c-8.2-2.393-21.016.73-21.425,1.921s13.631-.69,20.567,2.531c6.428,2.986,12.867,7.755,13.3,6.635l1.376-3.9A1.519,1.519,0,0,0,4736.492,2961.264Z" transform="translate(-4673.142 -2884.915)" fill="#5b3523"/>
            <path id="Trazado_152427" data-name="Trazado 152427" d="M4773.436,3022.9l-5.458,1.347a20.66,20.66,0,0,1-9.029.195l-5.359-1.078c-1.116-.225-1.834.9-.931,1.456l10.4,6.43a1.305,1.305,0,0,0,1.37-.027l10.041-6.906C4775.33,3023.717,4774.536,3022.623,4773.436,3022.9Z" transform="translate(-4690.937 -2908.91)" fill="#fda06c"/>
            <path id="Trazado_152428" data-name="Trazado 152428" d="M4725.326,2855.232l-21.179,5.252-17.572,15.756-12.208,21.576,2.225,12.482-1.75,3.133-8.85,33-.758,23.232,15.142,43.7s-12.527-40.82.117-81.168l.384,2.156a54.168,54.168,0,0,1,2.347-9.85c1.255-3.146,2.438-6.05,3.554-8.733a56.686,56.686,0,0,1,28.186-27.461c30.519-13.484,35.629-25.124,34.918-28.673S4725.326,2855.232,4725.326,2855.232Z" transform="translate(-4660.146 -2849.597)" fill="#63392c"/>
            <path id="Trazado_152429" data-name="Trazado 152429" d="M4835.863,2918.327l.67-9.274-4.937-17.176-15.785-19.73-22.429-9.227a128.457,128.457,0,0,1,24.273,32.08c10.646,19.873,11.191,43.526,11.191,43.526l3.549-4.575c3.1,12.31,5.233,26.585,4.138,40.8-2.933,38.109-3.5,43.6-3.5,43.6s15.33-64.148,11.733-81.282C4843.5,2931.017,4839.936,2924.38,4835.863,2918.327Z" transform="translate(-4705.491 -2852.318)" fill="#63392c"/>
            <path id="Trazado_152430" data-name="Trazado 152430" d="M4665.874,2955.334c-2.827,47.31,10.043,84.027,10.043,84.027l5.3-5.143s-16.274-44.221-7.569-89.471,20.817-52.821,38.23-60.581,33.12-16.371,34.635-21.245a113.79,113.79,0,0,1-32.553,16.324C4695.6,2884.733,4668.7,2908.024,4665.874,2955.334Z" transform="translate(-4660.229 -2852.318)" fill="#724336"/>
            <path id="Trazado_152431" data-name="Trazado 152431" d="M4669.621,2922.963s6.866-31.474,28.3-40.416,37.616-16.466,40.029-20.725c0,0-15.175,8.8-28.809,13.343S4671.7,2887.864,4669.621,2922.963Z" transform="translate(-4661.699 -2851.929)" fill="#724336"/>
            <path id="Trazado_152432" data-name="Trazado 152432" d="M4815.865,2877.42s16.334,24.557,23.686,49.255,6.7,33.026,6.339,56.874-7.93,65.107-7.93,65.107,11.676-26.763,12.273-72.716S4837.867,2893.933,4815.865,2877.42Z" transform="translate(-4713.446 -2857.449)" fill="#724336"/>
            <path id="Trazado_152433" data-name="Trazado 152433" d="M4727.2,2977.381c-5.9-2.888-16.492-1.586-21.669,4.027,0,0,1.349,11.647,13.532,12.2,10.808.49,13.532-5.364,13.532-5.364C4732.9,2987.626,4732.56,2980,4727.2,2977.381Z" transform="translate(-4674.405 -2892.293)" fill="#fff"/>
            <circle id="Elipse_5217" data-name="Elipse 5217" cx="6.221" cy="6.221" r="6.221" transform="translate(36.738 89.697) rotate(-29.518)" fill="#b27738"/>
            <path id="Trazado_152434" data-name="Trazado 152434" d="M4724.438,2980.65a5.372,5.372,0,1,0,5.372,5.372A5.372,5.372,0,0,0,4724.438,2980.65Z" transform="translate(-4679.194 -2893.977)" fill="#442519"/>
            <path id="Trazado_152435" data-name="Trazado 152435" d="M4719.031,2996.628c-12.183-.552-13.531-12.2-13.531-12.2-.552,1.859,2.629,14.137,14.725,13.156s12.339-6.322,12.339-6.322S4729.839,2997.117,4719.031,2996.628Z" transform="translate(-4674.374 -2895.314)" fill="#b58550"/>
            <path id="Trazado_152436" data-name="Trazado 152436" d="M4721.759,2973.747c-9.2-2.3-18.9,2.737-23.09.9a25.569,25.569,0,0,0,4.435,5.786c3.75-4.225,15.08-7.046,20.842-3.886a12.873,12.873,0,0,1,6.136,7.819S4729.415,2975.66,4721.759,2973.747Z" transform="translate(-4671.977 -2891.317)" fill="#5b3523"/>
            <path id="Trazado_152437" data-name="Trazado 152437" d="M4730.571,2981.338a1.445,1.445,0,1,0,2.127-.59A1.571,1.571,0,0,0,4730.571,2981.338Z" transform="translate(-4683.147 -2893.935)" fill="#fff"/>
            <path id="Trazado_152438" data-name="Trazado 152438" d="M4798.144,2977.381c-5.359,2.623-5.7,10.245-5.4,10.863,0,0,2.725,5.854,13.532,5.364,12.184-.552,13.531-12.2,13.531-12.2C4814.636,2975.8,4804.046,2974.493,4798.144,2977.381Z" transform="translate(-4705.239 -2892.293)" fill="#fff"/>
            <circle id="Elipse_5218" data-name="Elipse 5218" cx="6.221" cy="6.221" r="6.221" transform="translate(92.005 89.697) rotate(-29.518)" fill="#b27738"/>
            <path id="Trazado_152439" data-name="Trazado 152439" d="M4809.887,2980.65a5.372,5.372,0,1,0,5.372,5.372A5.373,5.373,0,0,0,4809.887,2980.65Z" transform="translate(-4709.431 -2893.977)" fill="#442519"/>
            <path id="Trazado_152440" data-name="Trazado 152440" d="M4806.324,2996.628c-10.807.49-13.532-5.364-13.532-5.364s.242,5.341,12.339,6.322,15.277-11.3,14.725-13.156C4819.856,2984.429,4818.508,2996.076,4806.324,2996.628Z" transform="translate(-4705.283 -2895.314)" fill="#b58550"/>
            <path id="Trazado_152441" data-name="Trazado 152441" d="M4801.248,2973.747c-7.656,1.913-8.323,10.619-8.323,10.619a12.881,12.881,0,0,1,6.136-7.819c5.762-3.16,17.093-.34,20.842,3.886a25.58,25.58,0,0,0,4.436-5.786C4820.147,2976.484,4810.444,2971.45,4801.248,2973.747Z" transform="translate(-4705.33 -2891.317)" fill="#5b3523"/>
            <path id="Trazado_152442" data-name="Trazado 152442" d="M4816.2,2981.338a1.445,1.445,0,1,0,2.127-.59A1.571,1.571,0,0,0,4816.2,2981.338Z" transform="translate(-4713.446 -2893.935)" fill="#fff"/>
            <path id="Trazado_152443" data-name="Trazado 152443" d="M4761.874,2967.7c-.6.6,1.5,9.662,2.6,9.337S4762.415,2967.16,4761.874,2967.7Z" transform="translate(-4694.305 -2889.387)" fill="#fda06c"/>
            <path id="Trazado_152444" data-name="Trazado 152444" d="M4774.716,2968.022c-.809-.15-1.694,7.159-.993,7.459S4775.525,2968.173,4774.716,2968.022Z" transform="translate(-4698.445 -2889.507)" fill="#fda06c"/>
            <path id="Trazado_152445" data-name="Trazado 152445" d="M4770.025,3045.31c-1.6-.7-16.444-.746-17.823,0-2.4,1.3-6.957,12-6.408,14.819.569,2.9,6.989,12.741,15.82,12.761,9.913.022,15.689-12.1,15.566-14.073C4776.868,3053.754,4771.628,3046.011,4770.025,3045.31Z" transform="translate(-4688.637 -2916.664)" fill="#963c3c"/>
            <path id="Trazado_152446" data-name="Trazado 152446" d="M4772.381,3045.31c-1.6-.7-16.444-.746-17.822,0a7.582,7.582,0,0,0-2.151,2.568c.081.877.219,1.578.449,1.671.668.267,22.031,0,22.031,0s.055-.618.078-1.426A9.606,9.606,0,0,0,4772.381,3045.31Z" transform="translate(-4690.993 -2916.664)" fill="#fff"/>
            <path id="Trazado_152447" data-name="Trazado 152447" d="M4761.224,3057.684c-6.862-.2-11.64,5.592-13.841,8.981,2.211,4.182,7.735,10.777,14.81,10.793,7.892.019,13.158-8,14.917-12.308A22.179,22.179,0,0,0,4761.224,3057.684Z" transform="translate(-4689.214 -2921.233)" fill="#a84747"/>
            <path id="Trazado_152448" data-name="Trazado 152448" d="M4763.187,3079.974c-4.6-.294-8.262-1.25-9.965-2.19a7.211,7.211,0,0,0-2.61-.7c2.81,3.53,7.313,7.228,12.723,7.24,5.128.012,9.146-3.228,11.816-6.63C4773.248,3077.085,4769.443,3080.375,4763.187,3079.974Z" transform="translate(-4690.357 -2928.1)" fill="#fff"/>
            <path id="Trazado_152449" data-name="Trazado 152449" d="M4743.607,3052.347c-.65.2-3.354,6.156-2.2,10.612s4.655,10.012,4.756,9.612-3.154-7.008-4.055-9.511S4744.453,3052.085,4743.607,3052.347Z" transform="translate(-4687 -2919.344)" fill="#fda06c"/>
            <path id="Trazado_152450" data-name="Trazado 152450" d="M4738.392,3059.32c-1.652,5.757.952,7.91.952,7.91C4737.74,3064.677,4738.392,3059.32,4738.392,3059.32Z" transform="translate(-4685.839 -2921.814)" fill="#fda06c"/>
            <path id="Trazado_152451" data-name="Trazado 152451" d="M4792.384,3053.432s3.154,6.809,2.854,9.162-2.854,7.709-2.854,7.709a14.267,14.267,0,0,0,3.3-8.409C4795.788,3057.037,4793.036,3053.432,4792.384,3053.432Z" transform="translate(-4705.138 -2919.73)" fill="#fda06c"/>
            <path id="Trazado_152452" data-name="Trazado 152452" d="M4799.355,3067.754c2.4-3.4.7-5.257.7-5.257C4800.858,3063.949,4799.269,3067.876,4799.355,3067.754Z" transform="translate(-4707.604 -2922.938)" fill="#fda06c"/>
          </g>
        </g>
      </g>
    </g>
    <path id="Trazado_153941" data-name="Trazado 153941" d="M-31.133-2.656h-4.7L-36.65,0h-3.662L-35.1-14.219h3.223L-26.621,0H-30.3ZM-35.01-5.3h3.057l-1.533-4.932Zm8.887-.059A7.134,7.134,0,0,1-25.6-8.193a4.245,4.245,0,0,1,1.514-1.9,3.99,3.99,0,0,1,2.295-.669,3.173,3.173,0,0,1,2.578,1.113l.117-.918H-16.1V-.4a4.455,4.455,0,0,1-.649,2.427,4.167,4.167,0,0,1-1.88,1.582,6.91,6.91,0,0,1-2.852.552,5.961,5.961,0,0,1-2.251-.439A4.063,4.063,0,0,1-25.4,2.578L-24.023.645A3.018,3.018,0,0,0-21.6,1.729,1.96,1.96,0,0,0-19.414-.518V-.85A3.09,3.09,0,0,1-21.807.2a3.819,3.819,0,0,1-3.125-1.479,6.13,6.13,0,0,1-1.191-3.96Zm3.3.205A3.759,3.759,0,0,0-22.334-3.1a1.541,1.541,0,0,0,1.367.757,1.748,1.748,0,0,0,1.553-.713V-7.5a1.7,1.7,0,0,0-1.533-.723,1.551,1.551,0,0,0-1.377.786A4.287,4.287,0,0,0-22.822-5.156Zm14.98-2.432-1.084-.078a1.947,1.947,0,0,0-1.992.977V0h-3.291V-10.566h3.086l.107,1.357A2.548,2.548,0,0,1-8.7-10.762a3.209,3.209,0,0,1,.918.117ZM-1.729.2a5.432,5.432,0,0,1-3.936-1.45,5.008,5.008,0,0,1-1.5-3.774V-5.3a6.489,6.489,0,0,1,.6-2.861,4.395,4.395,0,0,1,1.753-1.919,5.292,5.292,0,0,1,2.734-.679A4.574,4.574,0,0,1,1.436-9.38,5.43,5.43,0,0,1,2.725-5.527v1.279H-3.818a2.372,2.372,0,0,0,.771,1.4A2.3,2.3,0,0,0-1.5-2.344,2.958,2.958,0,0,0,.938-3.437l1.5,1.777A4.2,4.2,0,0,1,.7-.308,5.891,5.891,0,0,1-1.729.2ZM-2.1-8.223q-1.445,0-1.719,1.914H-.5v-.254A1.63,1.63,0,0,0-.9-7.788,1.593,1.593,0,0,0-2.1-8.223ZM9.58-2.969a.76.76,0,0,0-.439-.674,6.685,6.685,0,0,0-1.67-.527,7.615,7.615,0,0,1-2.031-.718A3.4,3.4,0,0,1,4.219-5.967,2.577,2.577,0,0,1,3.8-7.422,2.92,2.92,0,0,1,5-9.819a4.948,4.948,0,0,1,3.145-.942,5.482,5.482,0,0,1,3.359.947,2.962,2.962,0,0,1,1.27,2.49h-3.3q0-1.27-1.338-1.27a1.326,1.326,0,0,0-.869.288.892.892,0,0,0-.352.718.819.819,0,0,0,.43.713,4.06,4.06,0,0,0,1.372.449,11.857,11.857,0,0,1,1.655.42,3.007,3.007,0,0,1,2.383,2.939A2.767,2.767,0,0,1,11.47-.713,5.632,5.632,0,0,1,8.145.2,5.747,5.747,0,0,1,5.723-.293a4.05,4.05,0,0,1-1.66-1.328,3.007,3.007,0,0,1-.6-1.768H6.543a1.272,1.272,0,0,0,.488,1.069,2.009,2.009,0,0,0,1.2.337,1.58,1.58,0,0,0,1.011-.273A.875.875,0,0,0,9.58-2.969ZM17.764,0h-3.3V-10.566h3.3Zm-3.5-13.3a1.482,1.482,0,0,1,.508-1.159,1.909,1.909,0,0,1,1.318-.452,1.909,1.909,0,0,1,1.318.452A1.482,1.482,0,0,1,17.92-13.3a1.482,1.482,0,0,1-.508,1.159,1.909,1.909,0,0,1-1.318.452,1.909,1.909,0,0,1-1.318-.452A1.482,1.482,0,0,1,14.268-13.3ZM24-3.916l1.67-6.65h3.467L25.693,0H22.334L18.887-10.566h3.477Zm5.557-1.465A6.236,6.236,0,0,1,30.176-8.2a4.4,4.4,0,0,1,1.768-1.9,5.323,5.323,0,0,1,2.705-.664,4.858,4.858,0,0,1,3.74,1.47,5.64,5.64,0,0,1,1.367,4v.117a5.472,5.472,0,0,1-1.372,3.921A4.871,4.871,0,0,1,34.668.2a4.927,4.927,0,0,1-3.623-1.353A5.29,5.29,0,0,1,29.57-4.824Zm3.291.205a3.932,3.932,0,0,0,.459,2.148,1.529,1.529,0,0,0,1.357.684q1.758,0,1.8-2.705v-.332q0-2.842-1.816-2.842-1.65,0-1.787,2.451Z" transform="translate(482 6156.997)" fill="#12263f"/>
  </g>
</svg>
