<svg xmlns="http://www.w3.org/2000/svg" xmlns:xlink="http://www.w3.org/1999/xlink" width="425.544" height="300.28" viewBox="0 0 425.544 300.28">
  <defs>
    <clipPath id="clip-path">
      <path id="Trazado_150267" data-name="Trazado 150267" d="M459.5,765.386c0,60.939,43.9,102.888,99.823,102.888s101.165-44.663,101.165-105.6S615.242,647.6,559.32,647.6,459.5,704.45,459.5,765.386Z" transform="translate(-459.497 -647.602)" fill="none"/>
    </clipPath>
  </defs>
  <g id="Grupo_137181" data-name="Grupo 137181" transform="translate(-269.5 -6914.497)">
    <path id="Sustracción_6" data-name="Sustracción 6" d="M212.272,0a213.88,213.88,0,0,0-42.78,4.313,211.117,211.117,0,0,0-75.9,31.938,212.875,212.875,0,0,0-76.907,93.392A211.168,211.168,0,0,0,4.313,169.488,213.841,213.841,0,0,0,0,212.269c0,.294,0,.595,0,.888H78.747c0-.267,0-.549,0-.888a134.507,134.507,0,0,1,2.713-26.912,132.764,132.764,0,0,1,20.093-47.744A133.913,133.913,0,0,1,160.3,89.238a132.946,132.946,0,0,1,25.064-7.779,134.864,134.864,0,0,1,53.819,0,132.8,132.8,0,0,1,47.745,20.089A133.913,133.913,0,0,1,335.3,160.292a132.842,132.842,0,0,1,7.78,25.064,134.527,134.527,0,0,1,2.713,26.912c0,.3,0,.591,0,.888h78.748l0-.4c0-.163,0-.326,0-.488a213.836,213.836,0,0,0-4.313-42.78,211.115,211.115,0,0,0-31.941-75.9,212.888,212.888,0,0,0-93.394-76.9A211.221,211.221,0,0,0,255.051,4.313,213.871,213.871,0,0,0,212.272,0Z" transform="translate(270 7001.121)" fill="#3e2ea6" stroke="rgba(0,0,0,0)" stroke-miterlimit="10" stroke-width="1"/>
    <g id="Grupo_133659" data-name="Grupo 133659" transform="translate(-83.483 6325.003)">
      <circle id="Elipse_4980" data-name="Elipse 4980" cx="101.259" cy="101.259" r="101.259" transform="translate(459.124 665.754)" fill="#dad6f7"/>
      <g id="Grupo_133572" data-name="Grupo 133572" transform="translate(460.276 647.602)">
        <g id="Grupo_133571" data-name="Grupo 133571" clip-path="url(#clip-path)">
          <g id="Grupo_136804" data-name="Grupo 136804" transform="translate(27.17 0)">
            <path id="Trazado_152487" data-name="Trazado 152487" d="M5417.835,310.1c-44.148-14.922-83.472,14.922-88.153,83.589s4.38,111.53,4.38,111.53l132.236,3.226s9.756-11.643,8.59-101.786C5473.636,309.8,5417.835,310.1,5417.835,310.1Z" transform="translate(-5328.339 -306.338)" fill="#63392c"/>
            <path id="Trazado_152488" data-name="Trazado 152488" d="M5348.83,444.517c-5.026.706-9.967,5.7-7.637,15.534s10.762,21.766,18.326,17.808-1.094-29.437-1.094-29.437S5356.208,443.482,5348.83,444.517Z" transform="translate(-5332.434 -352.45)" fill="#ffbf88"/>
            <path id="Trazado_152489" data-name="Trazado 152489" d="M5520.757,444.161c-7.379-1.036-9.594,3.9-9.594,3.9s-8.657,25.478-1.094,29.437,16-7.971,18.325-17.809S5525.782,444.867,5520.757,444.161Z" transform="translate(-5388.012 -352.332)" fill="#ffbf88"/>
            <path id="Trazado_152490" data-name="Trazado 152490" d="M5520.757,444.161c-7.379-1.036-9.594,3.9-9.594,3.9s-.752,2.215-1.621,5.441c-2.074,7.714-4.806,21.2.527,24,7.563,3.958,16-7.971,18.325-17.809S5525.782,444.867,5520.757,444.161Z" transform="translate(-5388.012 -352.332)" fill="#ffbf88"/>
            <path id="Trazado_152491" data-name="Trazado 152491" d="M5521.9,455.272c-8.49-7.209-16.245,5.495-16.245,5.495s-5.1,11.7,4.98,13.714S5526.834,459.46,5521.9,455.272Z" transform="translate(-5387.144 -355.351)" fill="#fda06c"/>
            <path id="Trazado_152492" data-name="Trazado 152492" d="M5350.844,455.628c-4.931,4.188,1.186,21.225,11.264,19.209s4.979-13.714,4.979-13.714S5359.333,448.419,5350.844,455.628Z" transform="translate(-5335.276 -355.47)" fill="#fda06c"/>
            <path id="Trazado_152493" data-name="Trazado 152493" d="M5436.887,568.153c-8.673-12.3-5.761-30.16-5.761-30.16l-51.712,1.424s1.424,15.533-2.459,22.264-28.865,18.64-42.2,21.228c0,0,16.31,21.487,70.675,21.487s64.72-18.122,64.72-18.122S5445.559,580.45,5436.887,568.153Z" transform="translate(-5330.483 -383.725)" fill="#ffbf88"/>
            <path id="Trazado_152494" data-name="Trazado 152494" d="M5401.815,539.417s.314,3.423.246,7.752c3.958,4.309,11.98,10.646,25.168,11.061,13.054.411,21.7-3.979,26.152-7.108a53.94,53.94,0,0,1,.146-13.128Z" transform="translate(-5352.884 -383.725)" fill="#fda06c"/>
            <path id="Trazado_152495" data-name="Trazado 152495" d="M5463.409,353.405c-8.423-24.814-36.483-33.085-51.256-33.591-14.773.506-43.071,8.777-51.494,33.591-7.446,21.937-2.337,31.341-1.332,46.757a58.023,58.023,0,0,1,.066,6.415c-.878,19.581,1.759,36.461,12.136,48.108s28.313,25.827,40.624,25.827c10.241,0,30.249-14.179,40.625-25.827s13.014-28.528,12.134-48.108S5471.832,378.219,5463.409,353.405Z" transform="translate(-5337.807 -310.84)" fill="#ffbf88"/>
            <path id="Trazado_152496" data-name="Trazado 152496" d="M5475.552,411.7a72.87,72.87,0,0,0-14.582-.057,1.565,1.565,0,0,0-1.406,1.478l-.222,4.253c-.029,1.237,7.98-.777,15.277-1.1,7.874-.344,20.512,6.966,20.59,5.672S5484.306,412.642,5475.552,411.7Z" transform="translate(-5372.102 -341.403)" fill="#5b3523"/>
            <path id="Trazado_152498" data-name="Trazado 152498" d="M5403.3,409.523a72.814,72.814,0,0,0-14.566.659c-8.707,1.3-19.35,9.763-19.218,11.053s12.457-6.536,20.337-6.517c7.305.017,15.39,1.7,15.309.464l-.4-4.239A1.565,1.565,0,0,0,5403.3,409.523Z" transform="translate(-5342.093 -340.771)" fill="#5b3523"/>
            <path id="Trazado_152500" data-name="Trazado 152500" d="M5445.063,488.921l-5.626,1.388a21.289,21.289,0,0,1-9.3.2l-5.524-1.111c-1.15-.232-1.89.926-.959,1.5l10.715,6.628a1.347,1.347,0,0,0,1.411-.029l10.349-7.118C5447.014,489.767,5446.2,488.641,5445.063,488.921Z" transform="translate(-5360.037 -367.317)" fill="#fda06c"/>
            <path id="Trazado_152501" data-name="Trazado 152501" d="M5398.146,315.057l-21.828,5.413-18.11,16.238-12.582,22.237,2.293,12.864-1.8,3.229-9.122,34.008-.78,23.943,15.6,45.04s-12.911-42.069.121-83.654l.4,2.222a55.866,55.866,0,0,1,2.419-10.152c1.293-3.242,2.513-6.235,3.663-9a58.419,58.419,0,0,1,29.048-28.3c31.452-13.9,36.719-25.894,35.988-29.551S5398.146,315.057,5398.146,315.057Z" transform="translate(-5330.97 -309.251)" fill="#63392c"/>
            <path id="Trazado_152502" data-name="Trazado 152502" d="M5508.143,379.851l.692-9.558-5.09-17.7-16.27-20.335-23.114-9.509a132.375,132.375,0,0,1,25.016,33.062c10.972,20.482,11.535,44.859,11.535,44.859l3.657-4.716c3.2,12.688,5.394,27.4,4.266,42.054-3.023,39.276-3.609,44.933-3.609,44.933s15.8-66.113,12.093-83.772C5516.01,392.928,5512.34,386.089,5508.143,379.851Z" transform="translate(-5373.779 -311.82)" fill="#63392c"/>
            <path id="Trazado_152503" data-name="Trazado 152503" d="M5336.863,417.991c-2.913,48.759,10.351,86.6,10.351,86.6l5.462-5.3s-16.772-45.575-7.8-92.212,21.454-54.439,39.4-62.437,34.135-16.872,35.7-21.895a117.3,117.3,0,0,1-33.55,16.824C5367.5,345.227,5339.777,369.232,5336.863,417.991Z" transform="translate(-5331.046 -311.82)" fill="#724336"/>
            <path id="Trazado_152504" data-name="Trazado 152504" d="M5340.6,384.661s7.076-32.438,29.167-41.655,38.768-16.97,41.256-21.359c0,0-15.641,9.07-29.691,13.752S5342.739,348.487,5340.6,384.661Z" transform="translate(-5332.435 -311.453)" fill="#724336"/>
            <path id="Trazado_152505" data-name="Trazado 152505" d="M5486.843,337.246s16.835,25.308,24.412,50.764,6.9,34.038,6.533,58.615-8.173,67.1-8.173,67.1,12.034-27.583,12.649-74.942S5509.52,354.265,5486.843,337.246Z" transform="translate(-5381.289 -316.663)" fill="#724336"/>
            <path id="Trazado_152506" data-name="Trazado 152506" d="M5435.9,530.575c-4.6,0-8.33.908-8.33,2.027s3.729,2.027,8.33,2.027,8.331-.908,8.331-2.027S5440.5,530.575,5435.9,530.575Z" transform="translate(-5361.488 -381.247)" fill="#fda06c" opacity="0.6"/>
            <path id="Trazado_152507" data-name="Trazado 152507" d="M5467.881,439.609a12.857,12.857,0,0,0-6.239,8.206s2.732,5.87,13.57,5.379c12.218-.553,13.252-12.233,13.252-12.233C5484.837,439.363,5473.659,436.44,5467.881,439.609Z" transform="translate(-5372.87 -350.386)" fill="#fff"/>
            <path id="Trazado_152508" data-name="Trazado 152508" d="M5475.212,454.582c-10.838.491-13.57-5.379-13.57-5.379s.243,5.356,12.373,6.34,15.321-11.329,14.768-13.194C5488.782,442.349,5487.43,454.029,5475.212,454.582Z" transform="translate(-5372.87 -351.774)" fill="#b58550"/>
            <path id="Trazado_152509" data-name="Trazado 152509" d="M5479.03,436.884a6.713,6.713,0,1,0,6.713,6.713A6.712,6.712,0,0,0,5479.03,436.884Z" transform="translate(-5376.437 -349.948)" fill="#b27738"/>
            <path id="Trazado_152510" data-name="Trazado 152510" d="M5479.675,439.357a5.157,5.157,0,1,0,5.156,5.157A5.157,5.157,0,0,0,5479.675,439.357Z" transform="translate(-5377.171 -350.774)" fill="#442519"/>
            <path id="Trazado_152511" data-name="Trazado 152511" d="M5473.78,450.828a1.522,1.522,0,1,0,2.24-.621A1.656,1.656,0,0,0,5473.78,450.828Z" transform="translate(-5376.807 -354.323)" fill="#fff"/>
            <path id="Trazado_152512" data-name="Trazado 152512" d="M5474.962,430.115c-9.676-1.011-13.23,12.813-13.23,12.813a11.765,11.765,0,0,1,6.309-5.423l6.907-.579,5.574.805,8.9,3.719,2.257-.858S5485.672,431.234,5474.962,430.115Z" transform="translate(-5372.9 -347.669)" fill="#e08658"/>
            <path id="Trazado_152513" data-name="Trazado 152513" d="M5472.03,439.675a11.669,11.669,0,0,0-10.388,6.883c.606-1.142,2.752-3.3,7.613-4.65,6.35-1.768,17.042,2.118,20.208,4.5a6.389,6.389,0,0,0,5.072-2.158s-.53.256-1.275.543l1.275-.543C5490.864,444.215,5480.414,439.281,5472.03,439.675Z" transform="translate(-5372.87 -350.873)" fill="#5b3523"/>
            <path id="Trazado_152514" data-name="Trazado 152514" d="M5397,439.609c-5.779-3.169-16.957-.246-20.583,1.353,0,0,1.035,11.68,13.252,12.233,10.838.491,13.57-5.379,13.57-5.379A12.859,12.859,0,0,0,5397,439.609Z" transform="translate(-5344.401 -350.386)" fill="#fff"/>
            <path id="Trazado_152515" data-name="Trazado 152515" d="M5389.483,454.582c-12.217-.553-13.571-12.233-13.571-12.233-.553,1.865,2.637,14.177,14.768,13.194s12.374-6.34,12.374-6.34S5400.322,455.073,5389.483,454.582Z" transform="translate(-5344.211 -351.774)" fill="#b58550"/>
            <path id="Trazado_152516" data-name="Trazado 152516" d="M5394.433,436.884a6.713,6.713,0,1,0,6.713,6.713A6.713,6.713,0,0,0,5394.433,436.884Z" transform="translate(-5348.176 -349.948)" fill="#b27738"/>
            <path id="Trazado_152517" data-name="Trazado 152517" d="M5395.077,439.357a5.157,5.157,0,1,0,5.157,5.157A5.157,5.157,0,0,0,5395.077,439.357Z" transform="translate(-5348.911 -350.774)" fill="#442519"/>
            <path id="Trazado_152518" data-name="Trazado 152518" d="M5390.549,451.5a1.521,1.521,0,1,0,2.311.24A1.654,1.654,0,0,0,5390.549,451.5Z" transform="translate(-5348.837 -354.714)" fill="#fff"/>
            <path id="Trazado_152519" data-name="Trazado 152519" d="M5388.653,430.5c-10.716,1.071-16.763,10.4-16.763,10.4l2.253.868,8.917-3.68,5.577-.78,6.9.61a11.766,11.766,0,0,1,6.287,5.451S5398.333,429.528,5388.653,430.5Z" transform="translate(-5342.888 -347.798)" fill="#e08658"/>
            <path id="Trazado_152520" data-name="Trazado 152520" d="M5390.08,440.07c-8.383-.431-18.854,4.456-22.525,4.476l1.272.548c-.744-.29-1.272-.548-1.272-.548a6.387,6.387,0,0,0,5.062,2.181c3.178-2.369,13.887-6.207,20.228-4.41,4.855,1.374,6.991,3.538,7.593,4.683A11.67,11.67,0,0,0,5390.08,440.07Z" transform="translate(-5341.439 -351.004)" fill="#5b3523"/>
            <path id="Trazado_152521" data-name="Trazado 152521" d="M5432.665,510.34c-12.773-.5-18.292,6.48-18.292,6.48s6.277-3.282,16.467-3.618a33.4,33.4,0,0,1,17.773,4.628S5445.438,510.845,5432.665,510.34Z" transform="translate(-5357.08 -374.478)" fill="#ce754e"/>
          </g>
        </g>
      </g>
    </g>
    <path id="Trazado_153942" data-name="Trazado 153942" d="M-25.356-2.656h-4.7L-30.874,0h-3.662l5.215-14.219H-26.1L-20.845,0h-3.682ZM-29.233-5.3h3.057l-1.533-4.932Zm18.613.1a6.372,6.372,0,0,1-1.108,3.931A3.554,3.554,0,0,1-14.722.2,3.046,3.046,0,0,1-17.114-.869V4.063h-3.291V-10.566h3.076l.1.977a3.046,3.046,0,0,1,2.49-1.172A3.582,3.582,0,0,1-11.7-9.321a6.45,6.45,0,0,1,1.084,3.96Zm-3.291-.205q0-2.812-1.641-2.812a1.549,1.549,0,0,0-1.562.84v4.16a1.6,1.6,0,0,0,1.582.879q1.572,0,1.621-2.715ZM-3.218,0A3.716,3.716,0,0,1-3.53-.947,3.06,3.06,0,0,1-6.069.2a3.749,3.749,0,0,1-2.539-.9A2.875,2.875,0,0,1-9.653-2.979a2.955,2.955,0,0,1,1.27-2.6,6.468,6.468,0,0,1,3.691-.879h1.016v-.559q0-1.462-1.26-1.462A1.03,1.03,0,0,0-6.108-7.319H-9.4A2.95,2.95,0,0,1-8.1-9.806a5.479,5.479,0,0,1,3.325-.956,4.8,4.8,0,0,1,3.193.986A3.429,3.429,0,0,1-.376-7.07v4.678A4.79,4.79,0,0,0,.073-.166V0ZM-5.278-2.148a1.836,1.836,0,0,0,1.021-.264,1.653,1.653,0,0,0,.581-.6V-4.7h-.957q-1.719,0-1.719,1.543a.942.942,0,0,0,.3.728A1.1,1.1,0,0,0-5.278-2.148ZM-4.458-15H-.981L-3.7-11.934l-2.686,0Zm9.736,1.807v2.627H7.017v2.285H5.278v4.834a1.234,1.234,0,0,0,.215.83,1.152,1.152,0,0,0,.85.234,4.828,4.828,0,0,0,.82-.059V-.088A6.074,6.074,0,0,1,5.308.2a3.448,3.448,0,0,1-2.51-.8,3.282,3.282,0,0,1-.811-2.432V-8.281H.64v-2.285H1.987v-2.627ZM11.782,0h-3.3V-10.566h3.3Zm-3.5-13.3a1.482,1.482,0,0,1,.508-1.159,1.909,1.909,0,0,1,1.318-.452,1.909,1.909,0,0,1,1.318.452,1.482,1.482,0,0,1,.508,1.159,1.482,1.482,0,0,1-.508,1.159,1.909,1.909,0,0,1-1.318.452,1.909,1.909,0,0,1-1.318-.452A1.482,1.482,0,0,1,8.286-13.3Zm9.99,10.957a1.464,1.464,0,0,0,1.074-.376,1.379,1.379,0,0,0,.371-1.05h3.086A3.653,3.653,0,0,1,21.563-.918,4.631,4.631,0,0,1,18.354.2,4.689,4.689,0,0,1,14.722-1.25a5.7,5.7,0,0,1-1.328-4v-.137a6.436,6.436,0,0,1,.591-2.827,4.3,4.3,0,0,1,1.7-1.885,5.081,5.081,0,0,1,2.637-.659A4.573,4.573,0,0,1,21.6-9.619a4.053,4.053,0,0,1,1.211,3.1H19.722a1.807,1.807,0,0,0-.4-1.26,1.382,1.382,0,0,0-1.074-.439q-1.279,0-1.494,1.631a11.508,11.508,0,0,0-.068,1.426,4.52,4.52,0,0,0,.381,2.207A1.319,1.319,0,0,0,18.276-2.344Zm5.508-3.037A6.236,6.236,0,0,1,24.4-8.2a4.4,4.4,0,0,1,1.768-1.9,5.323,5.323,0,0,1,2.705-.664,4.858,4.858,0,0,1,3.74,1.47,5.64,5.64,0,0,1,1.367,4v.117a5.472,5.472,0,0,1-1.372,3.921A4.871,4.871,0,0,1,28.892.2a4.927,4.927,0,0,1-3.623-1.353,5.29,5.29,0,0,1-1.475-3.667Zm3.291.205a3.932,3.932,0,0,0,.459,2.148,1.529,1.529,0,0,0,1.357.684q1.758,0,1.8-2.705v-.332q0-2.842-1.816-2.842-1.65,0-1.787,2.451Z" transform="translate(482 6929.497)" fill="#12263f"/>
  </g>
</svg>
