<svg xmlns="http://www.w3.org/2000/svg" xmlns:xlink="http://www.w3.org/1999/xlink" width="425.544" height="300.28" viewBox="0 0 425.544 300.28">
  <defs>
    <clipPath id="clip-path">
      <path id="Trazado_150267" data-name="Trazado 150267" d="M459.5,763.9c0,60.168,43.342,101.587,98.561,101.587s99.886-44.1,99.886-104.264S613.273,647.6,558.058,647.6,459.5,703.732,459.5,763.9Z" transform="translate(-459.497 -647.602)" fill="none"/>
    </clipPath>
    <radialGradient id="radial-gradient" cx="0.5" cy="0.5" r="0.639" gradientTransform="translate(0.109 10.873) scale(0.782 0.81)" gradientUnits="objectBoundingBox">
      <stop offset="0" stop-color="#fda06c"/>
      <stop offset="1" stop-color="#ffbf88"/>
    </radialGradient>
    <radialGradient id="radial-gradient-2" cx="0.5" cy="0.5" r="0.639" xlink:href="#radial-gradient"/>
  </defs>
  <g id="Grupo_137183" data-name="Grupo 137183" transform="translate(-269.5 -7669.497)">
    <path id="Sustracción_8" data-name="Sustracción 8" d="M212.272,0a213.88,213.88,0,0,0-42.78,4.313,211.117,211.117,0,0,0-75.9,31.938,212.875,212.875,0,0,0-76.907,93.392A211.168,211.168,0,0,0,4.313,169.488,213.841,213.841,0,0,0,0,212.269c0,.294,0,.595,0,.888H78.747c0-.267,0-.549,0-.888a134.507,134.507,0,0,1,2.713-26.912,132.764,132.764,0,0,1,20.093-47.744A133.913,133.913,0,0,1,160.3,89.238a132.946,132.946,0,0,1,25.064-7.779,134.864,134.864,0,0,1,53.819,0,132.8,132.8,0,0,1,47.745,20.089A133.913,133.913,0,0,1,335.3,160.292a132.842,132.842,0,0,1,7.78,25.064,134.527,134.527,0,0,1,2.713,26.912c0,.3,0,.591,0,.888h78.748l0-.4c0-.163,0-.326,0-.488a213.836,213.836,0,0,0-4.313-42.78,211.115,211.115,0,0,0-31.941-75.9,212.888,212.888,0,0,0-93.394-76.9A211.221,211.221,0,0,0,255.051,4.313,213.871,213.871,0,0,0,212.272,0Z" transform="translate(270 7756.121)" fill="#3e2ea6" stroke="rgba(0,0,0,0)" stroke-miterlimit="10" stroke-width="1"/>
    <g id="Grupo_133663" data-name="Grupo 133663" transform="translate(-82.203 7082.793)">
      <circle id="Elipse_4980" data-name="Elipse 4980" cx="99.979" cy="99.979" r="99.979" transform="translate(459.124 665.525)" fill="#dad6f7"/>
      <g id="Grupo_133572" data-name="Grupo 133572" transform="translate(460.262 647.602)">
        <g id="Grupo_133571" data-name="Grupo 133571" clip-path="url(#clip-path)">
          <g id="Grupo_136806" data-name="Grupo 136806" transform="translate(29.422 12.029)">
            <path id="Trazado_152552" data-name="Trazado 152552" d="M6082.8,733.207c-41.184-13.92-77.867,13.92-82.234,77.975s4.086,104.041,4.086,104.041l123.357,3.01s9.1-10.862,8.013-94.951C6134.857,732.934,6082.8,733.207,6082.8,733.207Z" transform="translate(-5999.317 -729.701)" fill="#63392c"/>
            <path id="Trazado_152553" data-name="Trazado 152553" d="M6019.257,867.87c-4.688.658-9.3,5.313-7.125,14.49s10.039,20.3,17.094,16.612-1.021-27.46-1.021-27.46S6026.139,866.9,6019.257,867.87Z" transform="translate(-6003.961 -781.986)" fill="#ffbf88"/>
            <path id="Trazado_152554" data-name="Trazado 152554" d="M6190.81,867.514c-6.883-.966-8.951,3.642-8.951,3.642s-8.075,23.768-1.02,27.46,14.921-7.435,17.1-16.612S6195.5,868.172,6190.81,867.514Z" transform="translate(-6066.978 -781.851)" fill="#ffbf88"/>
            <path id="Trazado_152555" data-name="Trazado 152555" d="M6190.808,867.514c-6.882-.966-8.95,3.642-8.95,3.642s-.7,2.067-1.511,5.075c-1.936,7.2-4.485,19.781.491,22.385,7.055,3.693,14.921-7.435,17.1-16.612S6195.5,868.172,6190.808,867.514Z" transform="translate(-6066.977 -781.851)" fill="#ffbf88"/>
            <path id="Trazado_152556" data-name="Trazado 152556" d="M6191.7,878.486c-7.919-6.725-15.154,5.126-15.154,5.126s-4.756,10.913,4.646,12.794S6196.3,882.392,6191.7,878.486Z" transform="translate(-6065.993 -785.275)" fill="#fda06c"/>
            <path id="Trazado_152557" data-name="Trazado 152557" d="M6021.7,878.842c-4.6,3.907,1.107,19.8,10.509,17.919s4.646-12.793,4.646-12.793S6029.624,872.116,6021.7,878.842Z" transform="translate(-6007.183 -785.409)" fill="#fda06c"/>
            <path id="Trazado_152558" data-name="Trazado 152558" d="M6101.007,989.491c-8.089-11.472-5.374-28.135-5.374-28.135l-48.239,1.328s1.328,14.489-2.294,20.769-26.928,17.388-39.364,19.8c0,0,15.214,20.044,65.929,20.044s60.375-16.9,60.375-16.9S6109.1,1000.961,6101.007,989.491Z" transform="translate(-6001.749 -817.446)" fill="#ffbf88"/>
            <path id="Trazado_152559" data-name="Trazado 152559" d="M6072.795,962.684s.293,3.193.229,7.23c3.692,4.019,11.176,9.931,23.479,10.319,12.176.383,20.238-3.712,24.4-6.631a50.335,50.335,0,0,1,.137-12.247Z" transform="translate(-6027.149 -817.446)" fill="#fda06c"/>
            <path id="Trazado_152560" data-name="Trazado 152560" d="M6127.221,774.512c-7.857-23.147-34.034-30.864-47.814-31.336-13.781.472-40.179,8.188-48.036,31.336-6.947,20.465-2.183,29.237-1.243,43.618a54.2,54.2,0,0,1,.063,5.984c-.821,18.266,1.64,34.013,11.319,44.878s26.412,24.092,37.9,24.092c9.552,0,28.217-13.227,37.9-24.092s12.14-26.611,11.319-44.878S6135.079,797.659,6127.221,774.512Z" transform="translate(-6010.053 -734.805)" fill="#ffbf88"/>
            <path id="Trazado_152561" data-name="Trazado 152561" d="M6144.861,831.925a67.926,67.926,0,0,0-13.6.154,1.459,1.459,0,0,0-1.291,1.4l-.146,3.969c-.01,1.154,7.433-.837,14.234-1.238,7.339-.432,19.231,6.207,19.286,5S6153.04,832.68,6144.861,831.925Z" transform="translate(-6048.75 -768.319)" fill="#5b3523"/>
            <path id="Trazado_152562" data-name="Trazado 152562" d="M6073.857,830.691a67.975,67.975,0,0,0-13.6-.08c-8.173.8-18.49,8.173-18.43,9.382s11.917-5.5,19.258-5.1c6.8.363,14.256,2.315,14.24,1.161l-.167-3.968A1.46,1.46,0,0,0,6073.857,830.691Z" transform="translate(-6015.417 -767.808)" fill="#5b3523"/>
            <path id="Trazado_152563" data-name="Trazado 152563" d="M6114.575,909.771l-5.249,1.295a19.865,19.865,0,0,1-8.681.188l-5.153-1.037c-1.073-.216-1.763.864-.9,1.4l9.995,6.183a1.256,1.256,0,0,0,1.317-.027l9.654-6.64C6116.4,910.561,6115.632,909.51,6114.575,909.771Z" transform="translate(-6035.258 -797.892)" fill="#fda06c"/>
            <path id="Trazado_152564" data-name="Trazado 152564" d="M6064.965,738.42l-20.363,5.049-16.895,15.148-11.736,20.744,2.138,12-1.681,3.012L6007.92,826.1l-.728,22.335,14.557,42.016s-12.044-39.245.113-78.036l.369,2.072a52.139,52.139,0,0,1,2.256-9.47h0q1.811-4.536,3.417-8.4a54.5,54.5,0,0,1,27.1-26.4c29.341-12.965,34.254-24.156,33.571-27.568S6064.965,738.42,6064.965,738.42Z" transform="translate(-6002.3 -733.003)" fill="#63392c"/>
            <path id="Trazado_152565" data-name="Trazado 152565" d="M6176.181,799.378l.645-8.916-4.748-16.513-15.177-18.97-21.562-8.87a123.463,123.463,0,0,1,23.337,30.843c10.235,19.106,10.76,41.847,10.76,41.847l3.412-4.4c2.982,11.836,5.03,25.56,3.979,39.23-2.821,36.639-3.366,41.915-3.366,41.915s14.738-61.673,11.281-78.147C6183.521,811.578,6180.1,805.2,6176.181,799.378Z" transform="translate(-6050.839 -735.916)" fill="#63392c"/>
            <path id="Trazado_152566" data-name="Trazado 152566" d="M6007.814,834.957c-2.719,45.485,9.656,80.785,9.656,80.785l5.095-4.944s-15.646-42.515-7.277-86.02,20.014-50.783,36.754-58.243,31.843-15.74,33.3-20.425a109.394,109.394,0,0,1-31.3,15.694C6036.393,767.08,6010.531,789.472,6007.814,834.957Z" transform="translate(-6002.388 -735.916)" fill="#724336"/>
            <path id="Trazado_152567" data-name="Trazado 152567" d="M6011.578,803.792s6.6-30.259,27.208-38.857,36.165-15.831,38.485-19.925c0,0-14.591,8.462-27.7,12.828S6013.574,770.047,6011.578,803.792Z" transform="translate(-6003.961 -735.5)" fill="#724336"/>
            <path id="Trazado_152568" data-name="Trazado 152568" d="M6157.822,760.608s15.7,23.61,22.772,47.355,6.44,31.752,6.095,54.679-7.624,62.6-7.624,62.6,11.225-25.73,11.8-69.91S6178.975,776.484,6157.822,760.608Z" transform="translate(-6059.355 -741.408)" fill="#724336"/>
            <path id="Trazado_152569" data-name="Trazado 152569" d="M6159.188,886.005c-6.5,1.88-10.64,7.334-9.239,12.183s7.81,7.256,14.314,5.376,10.64-7.334,9.238-12.183S6165.692,884.125,6159.188,886.005Z" transform="translate(-6056.271 -788.663)" fill="url(#radial-gradient)"/>
            <path id="Trazado_152570" data-name="Trazado 152570" d="M6050,886.005c-6.5-1.88-12.913.527-14.313,5.376s2.735,10.3,9.238,12.183,12.912-.527,14.314-5.376S6056.508,887.885,6050,886.005Z" transform="translate(-6012.991 -788.663)" fill="url(#radial-gradient-2)"/>
            <path id="Trazado_152571" data-name="Trazado 152571" d="M6068.346,857.653c-5.576-2.728-15.58-1.5-20.471,3.8,0,0,1.274,11,12.784,11.524,10.21.462,12.785-5.067,12.785-5.067C6073.733,867.332,6073.409,860.13,6068.346,857.653Z" transform="translate(-6017.709 -777.634)" fill="#fff"/>
            <path id="Trazado_152572" data-name="Trazado 152572" d="M6065.72,859.63a5.877,5.877,0,1,0,5.878,5.877A5.876,5.876,0,0,0,6065.72,859.63Z" transform="translate(-6022.244 -778.915)" fill="#b27738"/>
            <path id="Trazado_152573" data-name="Trazado 152573" d="M6066.647,861.969a4.424,4.424,0,1,0,4.424,4.424A4.425,4.425,0,0,0,6066.647,861.969Z" transform="translate(-6023.144 -779.801)" fill="#442519"/>
            <path id="Trazado_152574" data-name="Trazado 152574" d="M6060.626,876.159c-11.51-.521-12.784-11.524-12.784-11.524-.521,1.756,2.484,13.355,13.912,12.429s11.657-5.972,11.657-5.972S6070.836,876.621,6060.626,876.159Z" transform="translate(-6017.676 -780.811)" fill="#b58550"/>
            <path id="Trazado_152575" data-name="Trazado 152575" d="M6062.947,854.115c-8.689-2.171-17.855,2.586-21.814.849a24.158,24.158,0,0,0,4.189,5.467c3.542-3.992,14.246-6.656,19.689-3.672a12.168,12.168,0,0,1,5.8,7.387S6070.179,855.921,6062.947,854.115Z" transform="translate(-6015.156 -776.607)" fill="#5b3523"/>
            <path id="Trazado_152576" data-name="Trazado 152576" d="M6072.468,861.566a1.365,1.365,0,1,0,2.009-.557A1.485,1.485,0,0,0,6072.468,861.566Z" transform="translate(-6026.905 -779.36)" fill="#fff"/>
            <path id="Trazado_152577" data-name="Trazado 152577" d="M6140.8,857.613c-5.063,2.477-5.387,9.679-5.1,10.261,0,0,2.574,5.529,12.783,5.067,11.51-.521,12.785-11.524,12.785-11.524C6156.384,856.114,6146.379,854.884,6140.8,857.613Z" transform="translate(-6050.949 -777.618)" fill="#fff"/>
            <circle id="Elipse_5221" data-name="Elipse 5221" cx="5.877" cy="5.877" r="5.877" transform="translate(89.943 82.197) rotate(-13.282)" fill="#b27738"/>
            <circle id="Elipse_5222" data-name="Elipse 5222" cx="4.595" cy="4.595" r="4.595" transform="translate(90.515 86.541) rotate(-45)" fill="#442519"/>
            <path id="Trazado_152578" data-name="Trazado 152578" d="M6148.536,876.118c-10.209.462-12.784-5.067-12.784-5.067s.229,5.046,11.656,5.972,14.433-10.672,13.912-12.429C6161.32,864.594,6160.046,875.6,6148.536,876.118Z" transform="translate(-6050.996 -780.795)" fill="#b58550"/>
            <path id="Trazado_152579" data-name="Trazado 152579" d="M6143.746,854.074c-7.232,1.807-7.862,10.031-7.862,10.031a12.159,12.159,0,0,1,5.8-7.386c5.444-2.985,16.147-.321,19.691,3.671a24.157,24.157,0,0,0,4.188-5.466C6161.6,856.66,6152.435,851.9,6143.746,854.074Z" transform="translate(-6051.045 -776.591)" fill="#5b3523"/>
            <path id="Trazado_152580" data-name="Trazado 152580" d="M6159.637,861.92a1.365,1.365,0,1,0,2.074.215A1.487,1.487,0,0,0,6159.637,861.92Z" transform="translate(-6059.755 -779.662)" fill="#fff"/>
            <path id="Trazado_152581" data-name="Trazado 152581" d="M6073.607,923.624c-.108,2.716,8.113,19.84,24.679,19.623s24.027-20.231,24.027-20.231a83.351,83.351,0,0,1-24.48,5.932A44.554,44.554,0,0,1,6073.607,923.624Z" transform="translate(-6027.456 -802.924)" fill="#963c3c"/>
            <path id="Trazado_152582" data-name="Trazado 152582" d="M6077.781,925.382c1.5,2.981,5.979,8.621,20.66,8.621,17.228,0,22.368-6.7,23.687-9.833a84.771,84.771,0,0,1-22.714,5.215A44.693,44.693,0,0,1,6077.781,925.382Z" transform="translate(-6029.037 -803.361)" fill="#fff"/>
          </g>
        </g>
      </g>
    </g>
    <path id="Trazado_153945" data-name="Trazado 153945" d="M-93.779-6.035H-99.17v3.4H-92.8V0H-102.6V-14.219h9.814v2.646H-99.17v3h5.391Zm6.5-1.621,1.533-2.91h3.418L-85.107-5.42-82.187,0h-3.437l-1.66-3.125L-88.916,0h-3.457l2.93-5.42-2.773-5.146h3.457Zm10.283,5.313a1.464,1.464,0,0,0,1.074-.376,1.379,1.379,0,0,0,.371-1.05h3.086A3.653,3.653,0,0,1-73.706-.918,4.631,4.631,0,0,1-76.914.2,4.689,4.689,0,0,1-80.547-1.25a5.7,5.7,0,0,1-1.328-4v-.137a6.436,6.436,0,0,1,.591-2.827,4.3,4.3,0,0,1,1.7-1.885,5.081,5.081,0,0,1,2.637-.659,4.573,4.573,0,0,1,3.271,1.143,4.053,4.053,0,0,1,1.211,3.1h-3.086a1.806,1.806,0,0,0-.4-1.26,1.382,1.382,0,0,0-1.074-.439q-1.279,0-1.494,1.631a11.508,11.508,0,0,0-.068,1.426A4.52,4.52,0,0,0-78.2-2.959,1.319,1.319,0,0,0-76.992-2.344ZM-65.957.2a5.432,5.432,0,0,1-3.936-1.45,5.008,5.008,0,0,1-1.5-3.774V-5.3a6.489,6.489,0,0,1,.6-2.861,4.395,4.395,0,0,1,1.753-1.919,5.292,5.292,0,0,1,2.734-.679A4.574,4.574,0,0,1-62.793-9.38,5.43,5.43,0,0,1-61.5-5.527v1.279h-6.543a2.372,2.372,0,0,0,.771,1.4,2.3,2.3,0,0,0,1.543.508,2.958,2.958,0,0,0,2.441-1.094l1.5,1.777A4.2,4.2,0,0,1-63.53-.308,5.891,5.891,0,0,1-65.957.2Zm-.371-8.418q-1.445,0-1.719,1.914h3.32v-.254a1.63,1.63,0,0,0-.4-1.226A1.593,1.593,0,0,0-66.328-8.223Zm11.68,5.254a.76.76,0,0,0-.439-.674,6.685,6.685,0,0,0-1.67-.527,7.615,7.615,0,0,1-2.031-.718A3.4,3.4,0,0,1-60.01-5.967a2.577,2.577,0,0,1-.42-1.455,2.92,2.92,0,0,1,1.2-2.4,4.948,4.948,0,0,1,3.145-.942,5.482,5.482,0,0,1,3.359.947,2.962,2.962,0,0,1,1.27,2.49h-3.3q0-1.27-1.338-1.27a1.326,1.326,0,0,0-.869.288.892.892,0,0,0-.352.718.819.819,0,0,0,.43.713,4.06,4.06,0,0,0,1.372.449,11.857,11.857,0,0,1,1.655.42,3.007,3.007,0,0,1,2.383,2.939A2.767,2.767,0,0,1-52.759-.713,5.632,5.632,0,0,1-56.084.2a5.747,5.747,0,0,1-2.422-.488,4.05,4.05,0,0,1-1.66-1.328,3.007,3.007,0,0,1-.6-1.768h3.076A1.272,1.272,0,0,0-57.2-2.319a2.009,2.009,0,0,0,1.2.337,1.58,1.58,0,0,0,1.011-.273A.875.875,0,0,0-54.648-2.969ZM-46.465,0h-3.3V-10.566h3.3Zm-3.5-13.3a1.482,1.482,0,0,1,.508-1.159,1.909,1.909,0,0,1,1.318-.452,1.909,1.909,0,0,1,1.318.452,1.482,1.482,0,0,1,.508,1.159,1.482,1.482,0,0,1-.508,1.159,1.909,1.909,0,0,1-1.318.452,1.909,1.909,0,0,1-1.318-.452A1.482,1.482,0,0,1-49.961-13.3Zm9.736,9.385,1.67-6.65h3.467L-38.535,0h-3.359l-3.447-10.566h3.477ZM-28.3,0a3.716,3.716,0,0,1-.312-.947A3.06,3.06,0,0,1-31.152.2a3.749,3.749,0,0,1-2.539-.9,2.875,2.875,0,0,1-1.045-2.271,2.955,2.955,0,0,1,1.27-2.6,6.468,6.468,0,0,1,3.691-.879h1.016v-.559q0-1.462-1.26-1.462a1.03,1.03,0,0,0-1.172,1.158h-3.291a2.95,2.95,0,0,1,1.3-2.487,5.479,5.479,0,0,1,3.325-.956,4.8,4.8,0,0,1,3.193.986,3.429,3.429,0,0,1,1.2,2.705v4.678A4.79,4.79,0,0,0-25.01-.166V0Zm-2.061-2.148a1.836,1.836,0,0,0,1.021-.264,1.653,1.653,0,0,0,.581-.6V-4.7h-.957q-1.719,0-1.719,1.543a.942.942,0,0,0,.3.728A1.1,1.1,0,0,0-30.361-2.148Zm9.834-8.418.107,1.24A3.633,3.633,0,0,1-17.4-10.762,2.675,2.675,0,0,1-14.7-9.17a3.517,3.517,0,0,1,3.105-1.592q3.213,0,3.3,3.887V0h-3.3V-6.67a2.014,2.014,0,0,0-.273-1.182,1.164,1.164,0,0,0-1-.371,1.559,1.559,0,0,0-1.455.869l.01.137V0h-3.3V-6.65a2.117,2.117,0,0,0-.264-1.2,1.161,1.161,0,0,0-1.006-.371,1.578,1.578,0,0,0-1.445.869V0h-3.291V-10.566ZM-1.3.2a5.432,5.432,0,0,1-3.936-1.45,5.008,5.008,0,0,1-1.5-3.774V-5.3a6.489,6.489,0,0,1,.6-2.861,4.395,4.395,0,0,1,1.753-1.919,5.292,5.292,0,0,1,2.734-.679A4.574,4.574,0,0,1,1.865-9.38,5.43,5.43,0,0,1,3.154-5.527v1.279H-3.389a2.372,2.372,0,0,0,.771,1.4,2.3,2.3,0,0,0,1.543.508A2.958,2.958,0,0,0,1.367-3.437l1.5,1.777A4.2,4.2,0,0,1,1.128-.308,5.891,5.891,0,0,1-1.3.2ZM-1.67-8.223q-1.445,0-1.719,1.914h3.32v-.254a1.63,1.63,0,0,0-.4-1.226A1.593,1.593,0,0,0-1.67-8.223ZM7.5-10.566l.107,1.24a3.583,3.583,0,0,1,3.018-1.436,3.015,3.015,0,0,1,2.466.986,4.7,4.7,0,0,1,.845,2.969V0h-3.3V-6.67a1.783,1.783,0,0,0-.322-1.177,1.491,1.491,0,0,0-1.172-.376,1.569,1.569,0,0,0-1.436.762V0H4.414V-10.566Zm12.09-2.627v2.627h1.738v2.285H19.59v4.834a1.234,1.234,0,0,0,.215.83,1.152,1.152,0,0,0,.85.234,4.828,4.828,0,0,0,.82-.059V-.088A6.074,6.074,0,0,1,19.619.2a3.448,3.448,0,0,1-2.51-.8A3.282,3.282,0,0,1,16.3-3.037V-8.281H14.951v-2.285H16.3v-2.627ZM27.734.2A5.432,5.432,0,0,1,23.8-1.255a5.008,5.008,0,0,1-1.5-3.774V-5.3a6.489,6.489,0,0,1,.6-2.861,4.395,4.395,0,0,1,1.753-1.919,5.292,5.292,0,0,1,2.734-.679A4.574,4.574,0,0,1,30.9-9.38a5.43,5.43,0,0,1,1.289,3.853v1.279H25.645a2.372,2.372,0,0,0,.771,1.4,2.3,2.3,0,0,0,1.543.508A2.958,2.958,0,0,0,30.4-3.437L31.9-1.66A4.2,4.2,0,0,1,30.161-.308,5.891,5.891,0,0,1,27.734.2Zm-.371-8.418q-1.445,0-1.719,1.914h3.32v-.254a1.63,1.63,0,0,0-.4-1.226A1.593,1.593,0,0,0,27.363-8.223ZM44.443,0a3.716,3.716,0,0,1-.312-.947A3.06,3.06,0,0,1,41.592.2a3.749,3.749,0,0,1-2.539-.9,2.875,2.875,0,0,1-1.045-2.271,2.955,2.955,0,0,1,1.27-2.6,6.468,6.468,0,0,1,3.691-.879h1.016v-.559q0-1.462-1.26-1.462a1.03,1.03,0,0,0-1.172,1.158H38.262a2.95,2.95,0,0,1,1.3-2.487,5.479,5.479,0,0,1,3.325-.956,4.8,4.8,0,0,1,3.193.986,3.429,3.429,0,0,1,1.2,2.705v4.678a4.79,4.79,0,0,0,.449,2.227V0ZM42.383-2.148A1.836,1.836,0,0,0,43.4-2.412a1.653,1.653,0,0,0,.581-.6V-4.7h-.957q-1.719,0-1.719,1.543a.942.942,0,0,0,.3.728A1.1,1.1,0,0,0,42.383-2.148Zm9.834-8.418.107,1.24a3.633,3.633,0,0,1,3.018-1.436A2.675,2.675,0,0,1,58.047-9.17a3.516,3.516,0,0,1,3.105-1.592q3.213,0,3.3,3.887V0h-3.3V-6.67a2.014,2.014,0,0,0-.273-1.182,1.164,1.164,0,0,0-1-.371,1.559,1.559,0,0,0-1.455.869l.01.137V0h-3.3V-6.65a2.117,2.117,0,0,0-.264-1.2,1.161,1.161,0,0,0-1.006-.371,1.578,1.578,0,0,0-1.445.869V0H49.131V-10.566ZM72.285,0a3.716,3.716,0,0,1-.312-.947A3.06,3.06,0,0,1,69.434.2a3.749,3.749,0,0,1-2.539-.9A2.875,2.875,0,0,1,65.85-2.979a2.955,2.955,0,0,1,1.27-2.6,6.468,6.468,0,0,1,3.691-.879h1.016v-.559q0-1.462-1.26-1.462a1.03,1.03,0,0,0-1.172,1.158H66.1a2.95,2.95,0,0,1,1.3-2.487,5.479,5.479,0,0,1,3.325-.956,4.8,4.8,0,0,1,3.193.986,3.429,3.429,0,0,1,1.2,2.705v4.678a4.79,4.79,0,0,0,.449,2.227V0ZM70.225-2.148a1.836,1.836,0,0,0,1.021-.264,1.653,1.653,0,0,0,.581-.6V-4.7h-.957q-1.719,0-1.719,1.543a.942.942,0,0,0,.3.728A1.1,1.1,0,0,0,70.225-2.148ZM86.758-5.2A6.44,6.44,0,0,1,85.684-1.2,3.6,3.6,0,0,1,82.656.2a3.122,3.122,0,0,1-2.6-1.279L79.922,0H76.973V-15h3.291v5.283a3.013,3.013,0,0,1,2.373-1.045,3.6,3.6,0,0,1,3.047,1.416,6.473,6.473,0,0,1,1.074,3.984Zm-3.3-.21a4.3,4.3,0,0,0-.405-2.169,1.366,1.366,0,0,0-1.245-.648,1.576,1.576,0,0,0-1.543.848v4.192a1.585,1.585,0,0,0,1.563.838A1.4,1.4,0,0,0,83.3-3.475,8.121,8.121,0,0,0,83.457-5.405ZM91.68,0h-3.3V-15h3.3Zm7.139.2a5.432,5.432,0,0,1-3.936-1.45,5.008,5.008,0,0,1-1.5-3.774V-5.3a6.489,6.489,0,0,1,.6-2.861,4.395,4.395,0,0,1,1.753-1.919,5.292,5.292,0,0,1,2.734-.679,4.574,4.574,0,0,1,3.516,1.382,5.43,5.43,0,0,1,1.289,3.853v1.279H96.729a2.372,2.372,0,0,0,.771,1.4,2.3,2.3,0,0,0,1.543.508,2.958,2.958,0,0,0,2.441-1.094l1.5,1.777a4.2,4.2,0,0,1-1.743,1.353A5.891,5.891,0,0,1,98.818.2Zm-.371-8.418q-1.445,0-1.719,1.914h3.32v-.254a1.63,1.63,0,0,0-.4-1.226A1.593,1.593,0,0,0,98.447-8.223Z" transform="translate(482 7684.497)" fill="#12263f"/>
  </g>
</svg>
