<svg xmlns="http://www.w3.org/2000/svg" xmlns:xlink="http://www.w3.org/1999/xlink" width="425.544" height="300.28" viewBox="0 0 425.544 300.28">
  <defs>
    <clipPath id="clip-path">
      <path id="Trazado_150627" data-name="Trazado 150627" d="M325.706,761.214c0,58.78,42.343,99.244,96.287,99.244s97.583-43.081,97.583-101.859-43.641-111-97.583-111S325.706,702.437,325.706,761.214Z" transform="translate(-325.706 -647.602)" fill="none"/>
    </clipPath>
    <radialGradient id="radial-gradient" cx="0.5" cy="0.5" r="0.605" gradientTransform="matrix(0.716, 0.278, -0.207, 0.961, 0.245, -0.119)" gradientUnits="objectBoundingBox">
      <stop offset="0.005" stop-color="#e26842"/>
      <stop offset="0.651" stop-color="#f9a97d"/>
      <stop offset="1" stop-color="#ffbf88"/>
    </radialGradient>
    <radialGradient id="radial-gradient-2" cx="0.5" cy="0.5" r="0.567" gradientTransform="translate(0.087) scale(0.827 1)" xlink:href="#radial-gradient"/>
  </defs>
  <g id="Grupo_137184" data-name="Grupo 137184" transform="translate(-944.501 -7669.497)">
    <path id="Trazado_153944" data-name="Trazado 153944" d="M-57.617-14.219l3.174,9.893,3.164-9.893h4.512V0h-3.437V-3.32l.332-6.8L-53.311,0h-2.266l-3.447-10.127.332,6.807V0h-3.428V-14.219Zm19.17,13.076A3.393,3.393,0,0,1-41.27.2,3.328,3.328,0,0,1-43.9-.815a4.251,4.251,0,0,1-.894-2.905v-6.846H-41.5V-3.7a1.183,1.183,0,0,0,1.318,1.357,1.72,1.72,0,0,0,1.611-.811v-7.412h3.311V0H-38.35Zm9.209-3.467,1.758-5.957h3.525L-28.262,1.768l-.186.449a3.272,3.272,0,0,1-3.242,2.051,5.158,5.158,0,0,1-1.357-.195V1.729h.43a2.251,2.251,0,0,0,1.06-.2A1.216,1.216,0,0,0-31.016.81l.264-.7-3.672-10.673h3.516Zm10.7-.771A6.236,6.236,0,0,1-17.92-8.2a4.4,4.4,0,0,1,1.768-1.9,5.323,5.323,0,0,1,2.705-.664,4.858,4.858,0,0,1,3.74,1.47,5.64,5.64,0,0,1,1.367,4v.117A5.472,5.472,0,0,1-9.712-1.255,4.871,4.871,0,0,1-13.428.2a4.927,4.927,0,0,1-3.623-1.353,5.29,5.29,0,0,1-1.475-3.667Zm3.291.205a3.932,3.932,0,0,0,.459,2.148,1.529,1.529,0,0,0,1.357.684q1.758,0,1.8-2.705v-.332q0-2.842-1.816-2.842-1.65,0-1.787,2.451ZM-2.422-2.344A1.464,1.464,0,0,0-1.348-2.72,1.379,1.379,0,0,0-.977-3.77H2.109A3.653,3.653,0,0,1,.864-.918,4.631,4.631,0,0,1-2.344.2,4.689,4.689,0,0,1-5.977-1.25a5.7,5.7,0,0,1-1.328-4v-.137a6.436,6.436,0,0,1,.591-2.827A4.3,4.3,0,0,1-5.01-10.1a5.081,5.081,0,0,1,2.637-.659A4.573,4.573,0,0,1,.9-9.619a4.053,4.053,0,0,1,1.211,3.1H-.977a1.807,1.807,0,0,0-.4-1.26,1.382,1.382,0,0,0-1.074-.439q-1.279,0-1.494,1.631a11.508,11.508,0,0,0-.068,1.426,4.52,4.52,0,0,0,.381,2.207A1.319,1.319,0,0,0-2.422-2.344Zm12.217,1.2A3.393,3.393,0,0,1,6.973.2,3.328,3.328,0,0,1,4.341-.815a4.251,4.251,0,0,1-.894-2.905v-6.846H6.738V-3.7A1.183,1.183,0,0,0,8.057-2.344a1.72,1.72,0,0,0,1.611-.811v-7.412h3.311V0H9.893ZM24.59-5.205a6.372,6.372,0,0,1-1.108,3.931A3.554,3.554,0,0,1,20.488.2,3.046,3.046,0,0,1,18.1-.869V4.063H14.8V-10.566h3.076l.1.977a3.046,3.046,0,0,1,2.49-1.172,3.582,3.582,0,0,1,3.037,1.44,6.45,6.45,0,0,1,1.084,3.96ZM21.3-5.41q0-2.812-1.641-2.812a1.549,1.549,0,0,0-1.562.84v4.16a1.6,1.6,0,0,0,1.582.879q1.572,0,1.621-2.715ZM31.992,0a3.716,3.716,0,0,1-.312-.947A3.06,3.06,0,0,1,29.141.2a3.749,3.749,0,0,1-2.539-.9,2.875,2.875,0,0,1-1.045-2.271,2.955,2.955,0,0,1,1.27-2.6,6.468,6.468,0,0,1,3.691-.879h1.016v-.559q0-1.462-1.26-1.462A1.03,1.03,0,0,0,29.1-7.319H25.811a2.95,2.95,0,0,1,1.3-2.487,5.479,5.479,0,0,1,3.325-.956,4.8,4.8,0,0,1,3.193.986,3.429,3.429,0,0,1,1.2,2.705v4.678a4.79,4.79,0,0,0,.449,2.227V0ZM29.932-2.148a1.836,1.836,0,0,0,1.021-.264,1.653,1.653,0,0,0,.581-.6V-4.7h-.957q-1.719,0-1.719,1.543a.942.942,0,0,0,.3.728A1.1,1.1,0,0,0,29.932-2.148ZM36.24-5.361a6.455,6.455,0,0,1,1.084-3.955,3.568,3.568,0,0,1,3.027-1.445,3.035,3.035,0,0,1,2.383,1.113V-15h3.3V0H43.076L42.91-1.133A3.116,3.116,0,0,1,40.332.2,3.562,3.562,0,0,1,37.344-1.25,6.659,6.659,0,0,1,36.24-5.361Zm3.291.205q0,2.813,1.641,2.813a1.62,1.62,0,0,0,1.563-.918V-7.285a1.576,1.576,0,0,0-1.543-.937q-1.523,0-1.65,2.461Zm7.959-.225A6.236,6.236,0,0,1,48.105-8.2a4.4,4.4,0,0,1,1.768-1.9,5.323,5.323,0,0,1,2.705-.664,4.858,4.858,0,0,1,3.74,1.47,5.64,5.64,0,0,1,1.367,4v.117a5.472,5.472,0,0,1-1.372,3.921A4.871,4.871,0,0,1,52.6.2a4.927,4.927,0,0,1-3.623-1.353A5.29,5.29,0,0,1,47.5-4.824Zm3.291.205a3.932,3.932,0,0,0,.459,2.148,1.529,1.529,0,0,0,1.357.684q1.758,0,1.8-2.705v-.332q0-2.842-1.816-2.842-1.65,0-1.787,2.451Z" transform="translate(1157.001 7684.497)" fill="#12263f"/>
    <path id="Sustracción_9" data-name="Sustracción 9" d="M212.272,0a213.88,213.88,0,0,0-42.78,4.313,211.117,211.117,0,0,0-75.9,31.938,212.875,212.875,0,0,0-76.907,93.392A211.168,211.168,0,0,0,4.313,169.488,213.841,213.841,0,0,0,0,212.269c0,.294,0,.595,0,.888H78.747c0-.267,0-.549,0-.888a134.507,134.507,0,0,1,2.713-26.912,132.764,132.764,0,0,1,20.093-47.744A133.913,133.913,0,0,1,160.3,89.238a132.946,132.946,0,0,1,25.064-7.779,134.864,134.864,0,0,1,53.819,0,132.8,132.8,0,0,1,47.745,20.089A133.913,133.913,0,0,1,335.3,160.292a132.842,132.842,0,0,1,7.78,25.064,134.527,134.527,0,0,1,2.713,26.912c0,.3,0,.591,0,.888h78.748l0-.4c0-.163,0-.326,0-.488a213.836,213.836,0,0,0-4.313-42.78,211.115,211.115,0,0,0-31.941-75.9,212.888,212.888,0,0,0-93.394-76.9A211.221,211.221,0,0,0,255.051,4.313,213.871,213.871,0,0,0,212.272,0Z" transform="translate(945.001 7756.121)" fill="#3e2ea6" stroke="rgba(0,0,0,0)" stroke-miterlimit="10" stroke-width="1"/>
    <g id="Grupo_133664" data-name="Grupo 133664" transform="translate(733.996 7087.819)">
      <circle id="Elipse_4984" data-name="Elipse 4984" cx="97.673" cy="97.673" r="97.673" transform="translate(325.333 665.111)" fill="#dad6f7"/>
      <g id="Grupo_133628" data-name="Grupo 133628" transform="translate(326.444 647.602)">
        <g id="Grupo_133627" data-name="Grupo 133627" clip-path="url(#clip-path)">
          <g id="Grupo_136807" data-name="Grupo 136807" transform="translate(31.79 11.55)">
            <path id="Trazado_152583" data-name="Trazado 152583" d="M289.957,2574.716c-4.446.566-8.819,4.57-6.757,12.464s9.523,17.466,16.215,14.29-.968-23.621-.968-23.621S296.485,2573.886,289.957,2574.716Z" transform="translate(-282.674 -2483.469)" fill="#ffbf88"/>
            <path id="Trazado_152584" data-name="Trazado 152584" d="M292.683,2584.543c-4.363,3.361,1.049,17.032,9.967,15.415s4.407-11.006,4.407-11.006S300.195,2578.757,292.683,2584.543Z" transform="translate(-286.133 -2486.802)" fill="#fda06c"/>
            <path id="Trazado_152585" data-name="Trazado 152585" d="M478.076,2574.716c-6.528-.831-8.489,3.133-8.489,3.133s-7.659,20.445-.967,23.621,14.153-6.4,16.214-14.29S482.523,2575.282,478.076,2574.716Z" transform="translate(-357.483 -2483.469)" fill="#ffbf88"/>
            <path id="Trazado_152586" data-name="Trazado 152586" d="M477.026,2584.543c-7.511-5.785-14.373,4.409-14.373,4.409s-4.511,9.388,4.406,11.006S481.389,2587.9,477.026,2584.543Z" transform="translate(-355.7 -2486.802)" fill="#fda06c"/>
            <path id="Trazado_152587" data-name="Trazado 152587" d="M385.174,2696.01c-7.831-9.152-5.2-22.447-5.2-22.447l-62.3,1.06s1.286,11.561-2.221,16.571-19.82,13.873-31.859,15.8c0,0,14.727,15.993,63.815,15.993s65.931-13.488,65.931-13.488S393,2705.163,385.174,2696.01Z" transform="translate(-283.049 -2523.878)" fill="#ffbf88"/>
            <path id="Trazado_152588" data-name="Trazado 152588" d="M358.4,2456.229c-23.856-1.014-63.332,3.34-57.2,57.871l-.017-.234s.017.234.051.673c.376,4.776,2.81,33.854,7.589,50.719,5.218,18.415,33.92,25.232,48.83,26.134s35.411-10.5,42.865-45.195,4.287-72.052,4.287-72.052S382.252,2457.243,358.4,2456.229Z" transform="translate(-289.977 -2435.084)" fill="#ffbf88"/>
            <path id="Trazado_152589" data-name="Trazado 152589" d="M349.873,2541.386a4.861,4.861,0,0,0-3.228-.588c-1.139.029-3.655-1.984-9.788-2.829s-19.023.766-18.608,2.77,13.509,1.974,19.308,4.051,10.606,6.9,13.591,7.325c0,0,3.024-5.22,3.094-6.351S350.8,2542.091,349.873,2541.386Z" transform="translate(-297.196 -2468.417)" fill="#63392c"/>
            <path id="Trazado_152590" data-name="Trazado 152590" d="M419.285,2539.46c-6.189.152-8.915,1.869-10.044,1.713a4.857,4.857,0,0,0-3.273.222c-1,.6-4.772,2.728-4.83,3.861s2.362,6.658,2.362,6.658c3.013-.087,8.331-4.341,14.326-5.755s19,.084,19.64-1.861S425.475,2539.308,419.285,2539.46Z" transform="translate(-331.047 -2469.117)" fill="#63392c"/>
            <path id="Trazado_152591" data-name="Trazado 152591" d="M399.611,2512.953s.14,17.64,0,26.143-2.8,23.6-6.157,30.584-11.129,9.391-18.438,9.645-14.166-1.205-17.1-1.586a51.59,51.59,0,0,0-8.652.334,51.594,51.594,0,0,0-8.652-.334c-2.939.381-9.8,1.84-17.105,1.586s-15.079-2.665-18.437-9.645-6.017-22.082-6.157-30.584,0-26.143,0-26.143-11.755-3.934-9.935,4.348,4.058,22.428,5.75,38.417,2.786,33.394,4.123,42.4,13.621,22.7,23.8,26.248a210.02,210.02,0,0,0,22.587,6.582,38.765,38.765,0,0,0,8.045,0,231.09,231.09,0,0,0,23.757-6.582c10.182-3.552,21.3-17.238,22.633-26.248s2.432-26.416,4.124-42.4,3.93-30.135,5.749-38.417S399.611,2512.953,399.611,2512.953Z" transform="translate(-285.168 -2457.914)" fill="#63392c"/>
            <path id="Trazado_152592" data-name="Trazado 152592" d="M384.854,2433.484c-10.284-3.945-37.808-12.911-37.808-12.911a47.061,47.061,0,0,1-17.394,13.808s3.5-4.722,2.379-7.949a151.55,151.55,0,0,1-17.491,10.4c-7.836,3.706-35.66,24.156-26.918,48.176,8.558,23.514,3.839,5.448,3.839,5.448l4.328,1.126,1.757-3.785s5.1-12.711,11.4-14.026,45.337-13.508,49.815-19.007c0,0,22.1,12.292,34.331,15.656a4.694,4.694,0,0,1,3.354,3.239,93.022,93.022,0,0,1,2.021,9.316c1.008,6.339,8.406,4.735,8.406,4.735s4.642-12.265,2.544-23.5S395.139,2437.429,384.854,2433.484Z" transform="translate(-284.008 -2420.573)" fill="#63392c"/>
            <path id="Trazado_152593" data-name="Trazado 152593" d="M390.236,2632.235c-4.1-.183-13.73,0-13.73,0s-9.633-.183-13.73,0-6.75,2.914-6.75,4.524c0,2.9,7.384,9.505,11.711,9.78s6.922-.956,8.768-.818c1.846-.137,4.442,1.092,8.769.818s11.71-6.878,11.71-9.78C396.986,2635.149,394.332,2632.418,390.236,2632.235Z" transform="translate(-312.627 -2506.969)" fill="#ffbf88"/>
            <path id="Trazado_152594" data-name="Trazado 152594" d="M393.007,2606.6l-5.349,1.589a24.85,24.85,0,0,1-10.756.231l-5.232-1.273c-1.33-.265-3.338,3.725-2.261,4.385l12.383,3.168a1.57,1.57,0,0,0,1.632-.033l11.961-3.73C396.416,2610.234,394.317,2606.279,393.007,2606.6Z" transform="translate(-317.966 -2496.527)" fill="#f4996c"/>
            <ellipse id="Elipse_5223" data-name="Elipse 5223" cx="10.764" cy="8.025" rx="10.764" ry="8.025" transform="translate(83.7 104.058) rotate(-16.12)" fill="url(#radial-gradient)"/>
            <path id="Trazado_152595" data-name="Trazado 152595" d="M334.779,2591.7c-5.412-2.459-11.286-1.182-13.12,2.853s1.068,9.3,6.48,11.759,11.286,1.182,13.12-2.853S340.191,2594.158,334.779,2591.7Z" transform="translate(-298.369 -2489.939)" fill="url(#radial-gradient-2)"/>
            <path id="Trazado_152596" data-name="Trazado 152596" d="M339.6,2561.048c-8.3-.332-11.484,6.225-12.269,8.052,6.706,10.009,20.95,5.036,24.015,2.82C350.635,2569.5,349.089,2561.427,339.6,2561.048Z" transform="translate(-300.91 -2477.929)" fill="#fff"/>
            <path id="Trazado_152597" data-name="Trazado 152597" d="M344.291,2563.354a5.562,5.562,0,1,0,5.562,5.562A5.562,5.562,0,0,0,344.291,2563.354Z" transform="translate(-305.564 -2478.876)" fill="#b27738"/>
            <path id="Trazado_152598" data-name="Trazado 152598" d="M345.23,2565.755a4.141,4.141,0,1,0,4.141,4.141A4.141,4.141,0,0,0,345.23,2565.755Z" transform="translate(-306.527 -2479.856)" fill="#442519"/>
            <path id="Trazado_152599" data-name="Trazado 152599" d="M339.057,2573.859a1.381,1.381,0,1,0,2.022.6A1.5,1.5,0,0,0,339.057,2573.859Z" transform="translate(-305.277 -2483.101)" fill="#fff"/>
            <path id="Trazado_152600" data-name="Trazado 152600" d="M427.545,2561.017c-9.515.381-11.066,8.473-11.78,10.9,3.074,2.222,17.358,7.209,24.082-2.828C439.061,2567.259,435.872,2560.683,427.545,2561.017Z" transform="translate(-337.02 -2477.917)" fill="#fff"/>
            <path id="Trazado_152601" data-name="Trazado 152601" d="M432.8,2563.33a5.577,5.577,0,1,0,5.577,5.577A5.578,5.578,0,0,0,432.8,2563.33Z" transform="translate(-341.698 -2478.866)" fill="#b27738"/>
            <path id="Trazado_152602" data-name="Trazado 152602" d="M433.741,2565.737a4.153,4.153,0,1,0,4.153,4.153A4.153,4.153,0,0,0,433.741,2565.737Z" transform="translate(-342.665 -2479.849)" fill="#442519"/>
            <path id="Trazado_152603" data-name="Trazado 152603" d="M427.551,2573.864a1.385,1.385,0,1,0,2.028.6A1.507,1.507,0,0,0,427.551,2573.864Z" transform="translate(-341.411 -2483.103)" fill="#fff"/>
            <path id="Trazado_152604" data-name="Trazado 152604" d="M344.243,2452.219c-18.572,7.714-48.551,17.5-43.433,37.469,0,0-.056-13.225,24.175-20.939s46.459-21.352,36.222-37.468C361.207,2431.281,362.815,2444.505,344.243,2452.219Z" transform="translate(-289.843 -2424.946)" fill="#724336"/>
            <path id="Trazado_152605" data-name="Trazado 152605" d="M307.554,2473.735a50.452,50.452,0,0,1,21.838-13.683c14.137-4.5,23.885-12.581,25.348-15.887,0,0-11.407,8.816-24.861,12.857S309.5,2469.418,307.554,2473.735Z" transform="translate(-292.834 -2430.206)" fill="#724336"/>
            <path id="Trazado_152606" data-name="Trazado 152606" d="M440.518,2476.714a235.659,235.659,0,0,1-24.129-14.235s11.455,11.755,20.815,15.429,16.671,10.745,17.646,14.877C454.849,2492.785,453.874,2483.51,440.518,2476.714Z" transform="translate(-337.275 -2437.685)" fill="#724336"/>
            <path id="Trazado_152607" data-name="Trazado 152607" d="M382.431,2544.158c-.751.75,1.876,12.068,3.251,11.661S383.107,2543.482,382.431,2544.158Z" transform="translate(-323.354 -2471.026)" fill="#fda06c"/>
            <path id="Trazado_152608" data-name="Trazado 152608" d="M397.514,2544.6c-1.011-.188-2.116,8.941-1.241,9.317S398.524,2544.785,397.514,2544.6Z" transform="translate(-328.931 -2471.215)" fill="#fda06c"/>
            <path id="Trazado_152609" data-name="Trazado 152609" d="M382.426,2635.75c-10.549-.417-15.107,5.352-15.107,5.352a34.163,34.163,0,0,1,13.6-2.989,27.592,27.592,0,0,1,14.679,3.823S392.975,2636.167,382.426,2635.75Z" transform="translate(-317.238 -2508.429)" fill="#ce754e"/>
            <path id="Trazado_152610" data-name="Trazado 152610" d="M431.08,2557.8c-5.871-.491-10.42,1.1-13.959,8.928,0,0-1.7,3.451-1.294,3.974a.1.1,0,0,0,.048.025c1.305-2.846,6.667-6.5,11.618-7.121,6.978-.87,11.4,2.058,12.185,4.125l1.734-1.152S437.393,2558.328,431.08,2557.8Z" transform="translate(-337.02 -2476.575)" fill="#e08658"/>
            <path id="Trazado_152611" data-name="Trazado 152611" d="M430.092,2566.739c-2.915-.2-5.062-.207-9.061,2.667-4.6,3.308-5.16,5.156-5.16,5.156s.239.545,2.944-2.247c1.988-2.053,6.886-5.661,12.566-3.935s8.137,3.513,8.137,3.513l.415-.445C438.552,2567.549,432.663,2566.916,430.092,2566.739Z" transform="translate(-337.063 -2480.227)" fill="#63392c"/>
            <path id="Trazado_152612" data-name="Trazado 152612" d="M334.93,2557.8c-6.313.528-10.333,8.78-10.333,8.78l1.734,1.152c.78-2.067,5.207-4.995,12.185-4.125,4.95.616,10.313,4.275,11.618,7.121a.1.1,0,0,0,.049-.025c.405-.523-1.294-3.974-1.294-3.974C345.35,2558.9,340.8,2557.309,334.93,2557.8Z" transform="translate(-299.793 -2476.575)" fill="#e08658"/>
            <path id="Trazado_152613" data-name="Trazado 152613" d="M346.073,2569.405c-4-2.873-6.146-2.869-9.061-2.667-2.571.177-8.46.81-9.841,4.708l.415.445s2.455-1.787,8.137-3.513,10.578,1.882,12.566,3.935c2.7,2.792,2.944,2.247,2.944,2.247S350.678,2572.713,346.073,2569.405Z" transform="translate(-300.844 -2480.227)" fill="#63392c"/>
          </g>
        </g>
      </g>
    </g>
  </g>
</svg>
