<svg xmlns="http://www.w3.org/2000/svg" width="130" height="130" viewBox="0 0 130 130">
  <g id="Grupo_137186" data-name="Grupo 137186" transform="translate(5640 5651.604)">
    <g id="Elipse_5257" data-name="Elipse 5257" transform="translate(-5640 -5651.604)" fill="#fff" stroke="#3e33a3" stroke-width="8">
      <circle cx="65" cy="65" r="65" stroke="none"/>
      <circle cx="65" cy="65" r="61" fill="none"/>
    </g>
    <g id="Grupo_137182" data-name="Grupo 137182" transform="translate(-11107.958 -6672.262)">
      <g id="Grupo_136923" data-name="Grupo 136923" transform="translate(5518.556 1045.049)">
        <g id="Grupo_136910" data-name="Grupo 136910" transform="translate(0 0)">
          <g id="Grupo_136905" data-name="Grupo 136905" transform="translate(0 1.386)">
            <rect id="Rectángulo_35785" data-name="Rectángulo 35785" width="50.332" height="64.039" transform="translate(0.797 0.796)" fill="#fff"/>
            <path id="Trazado_153041" data-name="Trazado 153041" d="M5784.424,1124.944h-50.331a.8.8,0,0,1-.8-.8v-64.039a.8.8,0,0,1,.8-.8h50.331a.8.8,0,0,1,.8.8v64.039A.8.8,0,0,1,5784.424,1124.944Zm-49.535-1.592h48.739v-62.447h-48.739Z" transform="translate(-5733.296 -1059.313)" fill="#3e2ea6"/>
          </g>
          <g id="Grupo_136908" data-name="Grupo 136908" transform="translate(7.56 4.08)">
            <g id="Grupo_136906" data-name="Grupo 136906">
              <path id="Trazado_153042" data-name="Trazado 153042" d="M5854.483,1142.847v-47.628h-35.211v55.514h26.918Z" transform="translate(-5818.476 -1094.423)" fill="#fff"/>
              <path id="Trazado_153043" data-name="Trazado 153043" d="M5838.792,1144.131h-26.918a.8.8,0,0,1-.8-.8V1087.82a.8.8,0,0,1,.8-.8h35.211a.8.8,0,0,1,.8.8v47.628a.8.8,0,0,1-.247.577l-8.292,7.886A.8.8,0,0,1,5838.792,1144.131Zm-26.122-1.593h25.8l7.814-7.431v-46.491H5812.67Zm34.415-7.09h0Z" transform="translate(-5811.078 -1087.024)" fill="#3e2ea6"/>
            </g>
            <g id="Grupo_136907" data-name="Grupo 136907" transform="translate(26.918 47.628)">
              <path id="Trazado_153044" data-name="Trazado 153044" d="M6104.5,1585.217h-8.292v7.886Z" transform="translate(-6095.409 -1584.421)" fill="#3e2ea6"/>
              <path id="Trazado_153045" data-name="Trazado 153045" d="M6088.81,1586.506a.8.8,0,0,1-.8-.8v-7.886a.8.8,0,0,1,.8-.8h8.293a.8.8,0,0,1,.549,1.373l-8.292,7.886A.8.8,0,0,1,6088.81,1586.506Zm.8-7.886v5.234l5.5-5.234Z" transform="translate(-6088.014 -1577.027)" fill="#3e2ea6"/>
            </g>
          </g>
          <g id="Grupo_136909" data-name="Grupo 136909" transform="translate(14.946)">
            <rect id="Rectángulo_35786" data-name="Rectángulo 35786" width="20.441" height="5.65" rx="2.825" transform="translate(0.796 0.796)" fill="#3e2ea6"/>
            <path id="Trazado_153046" data-name="Trazado 153046" d="M5905.866,1052.291h-15.581a3.229,3.229,0,0,1-3.226-3.226v-.791a3.229,3.229,0,0,1,3.226-3.225h15.581a3.229,3.229,0,0,1,3.227,3.225v.791A3.229,3.229,0,0,1,5905.866,1052.291Zm-15.581-5.65a1.635,1.635,0,0,0-1.633,1.633v.791a1.635,1.635,0,0,0,1.633,1.634h15.581a1.636,1.636,0,0,0,1.635-1.634v-.791a1.636,1.636,0,0,0-1.635-1.633Z" transform="translate(-5887.06 -1045.049)" fill="#3e2ea6"/>
          </g>
        </g>
        <g id="Grupo_136914" data-name="Grupo 136914" transform="translate(20.231 11.041)">
          <g id="Grupo_136911" data-name="Grupo 136911">
            <path id="Trazado_153047" data-name="Trazado 153047" d="M5954.564,1166.659l1.956,2.5,2.979,1.089-1.77,2.632-.115,3.17-3.05-.87-3.049.87-.115-3.17-1.77-2.632,2.979-1.089Z" transform="translate(-5948.833 -1165.879)" fill="#fff"/>
            <path id="Trazado_153048" data-name="Trazado 153048" d="M5944.115,1169.6a.8.8,0,0,1-.794-.767l-.107-2.942-1.644-2.443a.8.8,0,0,1,.388-1.193l2.766-1.01,1.816-2.317a.823.823,0,0,1,1.253,0l1.815,2.317,2.765,1.01a.8.8,0,0,1,.388,1.193l-1.644,2.443-.106,2.942a.8.8,0,0,1-1.014.737l-2.831-.808-2.832.808A.808.808,0,0,1,5944.115,1169.6Zm-.656-6.2,1.2,1.788a.792.792,0,0,1,.134.416l.078,2.154,2.074-.592a.8.8,0,0,1,.437,0l2.073.592.078-2.154a.81.81,0,0,1,.134-.416l1.2-1.788-2.023-.739a.8.8,0,0,1-.354-.257l-1.329-1.7-1.329,1.7a.794.794,0,0,1-.354.257Z" transform="translate(-5941.435 -1158.638)" fill="#3e2ea6"/>
          </g>
          <g id="Grupo_136912" data-name="Grupo 136912" transform="translate(0 13.558)">
            <path id="Trazado_153049" data-name="Trazado 153049" d="M5954.564,1306.148l1.956,2.5,2.979,1.088-1.77,2.632-.115,3.17-3.05-.87-3.049.87-.115-3.17-1.77-2.632,2.979-1.088Z" transform="translate(-5948.833 -1305.368)" fill="#fff"/>
            <path id="Trazado_153050" data-name="Trazado 153050" d="M5944.115,1309.086a.8.8,0,0,1-.794-.768l-.107-2.943-1.644-2.443a.8.8,0,0,1,.388-1.193l2.766-1.011,1.816-2.317a.823.823,0,0,1,1.253,0l1.815,2.318,2.765,1.01a.8.8,0,0,1,.388,1.193l-1.644,2.443-.106,2.943a.8.8,0,0,1-1.014.737l-2.831-.808-2.832.808A.8.8,0,0,1,5944.115,1309.086Zm-.656-6.2,1.2,1.788a.793.793,0,0,1,.134.416l.078,2.154,2.074-.592a.8.8,0,0,1,.437,0l2.073.592.078-2.154a.811.811,0,0,1,.134-.416l1.2-1.788-2.023-.74a.8.8,0,0,1-.354-.258l-1.329-1.7-1.329,1.7a.794.794,0,0,1-.354.258Z" transform="translate(-5941.435 -1298.123)" fill="#3e2ea6"/>
          </g>
          <g id="Grupo_136913" data-name="Grupo 136913" transform="translate(0 27.117)">
            <path id="Trazado_153051" data-name="Trazado 153051" d="M5954.564,1445.637l1.956,2.5,2.979,1.089-1.77,2.632-.115,3.17-3.05-.87-3.049.87-.115-3.17-1.77-2.632,2.979-1.089Z" transform="translate(-5948.833 -1444.858)" fill="#fff"/>
            <path id="Trazado_153052" data-name="Trazado 153052" d="M5950.216,1448.577a.8.8,0,0,1-.219-.03l-2.831-.808-2.832.808a.8.8,0,0,1-.687-.122.791.791,0,0,1-.327-.615l-.107-2.942-1.644-2.443a.8.8,0,0,1,.388-1.193l2.766-1.011,1.816-2.317a.823.823,0,0,1,1.253,0l1.815,2.318,2.765,1.01a.8.8,0,0,1,.388,1.193l-1.644,2.443-.106,2.942a.8.8,0,0,1-.8.768Zm-6.757-6.2,1.2,1.788a.793.793,0,0,1,.134.416l.078,2.154,2.074-.592a.8.8,0,0,1,.437,0l2.073.592.078-2.154a.81.81,0,0,1,.134-.416l1.2-1.788-2.023-.74a.794.794,0,0,1-.354-.257l-1.329-1.7-1.329,1.7a.793.793,0,0,1-.354.257Z" transform="translate(-5941.435 -1437.615)" fill="#3e2ea6"/>
          </g>
        </g>
        <g id="Grupo_136922" data-name="Grupo 136922" transform="translate(12.65 15.717)">
          <g id="Grupo_136918" data-name="Grupo 136918" transform="translate(20.886)">
            <g id="Grupo_136915" data-name="Grupo 136915">
              <line id="Línea_226" data-name="Línea 226" x2="4.147" transform="translate(0.797 0.797)" fill="#3e2ea6"/>
              <path id="Trazado_153053" data-name="Trazado 153053" d="M6083.253,1208.341h-4.147a.8.8,0,0,1,0-1.592h4.147a.8.8,0,1,1,0,1.592Z" transform="translate(-6078.31 -1206.749)" fill="#3e2ea6"/>
            </g>
            <g id="Grupo_136916" data-name="Grupo 136916" transform="translate(0 13.559)">
              <line id="Línea_227" data-name="Línea 227" x2="4.147" transform="translate(0.797 0.796)" fill="#3e2ea6"/>
              <path id="Trazado_153054" data-name="Trazado 153054" d="M6083.253,1347.833h-4.147a.8.8,0,0,1,0-1.592h4.147a.8.8,0,1,1,0,1.592Z" transform="translate(-6078.31 -1346.241)" fill="#3e2ea6"/>
            </g>
            <g id="Grupo_136917" data-name="Grupo 136917" transform="translate(0 27.117)">
              <line id="Línea_228" data-name="Línea 228" x2="4.147" transform="translate(0.797 0.796)" fill="#3e2ea6"/>
              <path id="Trazado_153055" data-name="Trazado 153055" d="M6083.253,1487.326h-4.147a.8.8,0,0,1,0-1.593h4.147a.8.8,0,1,1,0,1.593Z" transform="translate(-6078.31 -1485.733)" fill="#3e2ea6"/>
            </g>
          </g>
          <g id="Grupo_136921" data-name="Grupo 136921">
            <g id="Grupo_136919" data-name="Grupo 136919">
              <line id="Línea_229" data-name="Línea 229" x2="4.147" transform="translate(0.797 0.797)" fill="#3e2ea6"/>
              <path id="Trazado_153056" data-name="Trazado 153056" d="M5868.379,1208.341h-4.147a.8.8,0,0,1,0-1.592h4.147a.8.8,0,1,1,0,1.592Z" transform="translate(-5863.436 -1206.749)" fill="#3e2ea6"/>
            </g>
            <g id="Grupo_136920" data-name="Grupo 136920" transform="translate(0 13.559)">
              <line id="Línea_230" data-name="Línea 230" x2="4.147" transform="translate(0.797 0.796)" fill="#3e2ea6"/>
              <path id="Trazado_153057" data-name="Trazado 153057" d="M5868.379,1347.833h-4.147a.8.8,0,0,1,0-1.592h4.147a.8.8,0,1,1,0,1.592Z" transform="translate(-5863.436 -1346.241)" fill="#3e2ea6"/>
            </g>
          </g>
        </g>
      </g>
      <g id="Grupo_136938" data-name="Grupo 136938" transform="translate(5495.437 1065.306)">
        <g id="Grupo_136924" data-name="Grupo 136924" transform="translate(18.922 36.215)">
          <path id="Trazado_153058" data-name="Trazado 153058" d="M5698.295,1634.228h14.229l-7.114,3.939Z" transform="translate(-5697.499 -1633.431)" fill="#3e2ea6"/>
          <path id="Trazado_153059" data-name="Trazado 153059" d="M5698.017,1631.566a.8.8,0,0,1-.385-.1l-7.114-3.94a.8.8,0,0,1,.386-1.493h14.229a.8.8,0,0,1,.385,1.493l-7.114,3.94A.8.8,0,0,1,5698.017,1631.566Zm-4.033-3.94,4.033,2.233,4.033-2.233Z" transform="translate(-5690.106 -1626.034)" fill="#3e2ea6"/>
        </g>
        <g id="Grupo_136925" data-name="Grupo 136925" transform="translate(0 40.155)">
          <path id="Trazado_153060" data-name="Trazado 153060" d="M5539.626,1674.758h-19.918s-16.518,1.624-16.067,15.379v3.833h52.052v-3.833C5556.145,1676.382,5539.626,1674.758,5539.626,1674.758Z" transform="translate(-5502.835 -1673.962)" fill="#fff"/>
          <path id="Trazado_153061" data-name="Trazado 153061" d="M5548.3,1687.373h-52.054a.8.8,0,0,1-.8-.8v-3.833c-.47-14.309,16.613-16.154,16.786-16.171l20,0c.026,0,.053,0,.078,0,.172.017,17.255,1.862,16.785,16.2v3.807A.8.8,0,0,1,5548.3,1687.373Zm-51.257-1.593h50.46v-3.037c.176-5.384-2.313-9.454-7.4-12.122a24.672,24.672,0,0,0-7.917-2.461h-19.876a24.845,24.845,0,0,0-7.874,2.461c-5.085,2.668-7.573,6.738-7.4,12.1Z" transform="translate(-5495.437 -1666.568)" fill="#3e2ea6"/>
        </g>
        <g id="Grupo_136928" data-name="Grupo 136928" transform="translate(16.077 36.214)">
          <g id="Grupo_136926" data-name="Grupo 136926">
            <path id="Trazado_153062" data-name="Trazado 153062" d="M5671.869,1634.228l-2.845,3.939,6.4,8.693,3.557-8.693Z" transform="translate(-5668.229 -1633.431)" fill="#3e2ea6"/>
            <path id="Trazado_153063" data-name="Trazado 153063" d="M5668.031,1640.255a.8.8,0,0,1-.641-.324l-6.4-8.694a.8.8,0,0,1,0-.938l2.845-3.94a.8.8,0,0,1,1.032-.231l7.114,3.94a.8.8,0,0,1,.352,1l-3.558,8.694a.8.8,0,0,1-.639.488A.9.9,0,0,1,5668.031,1640.255Zm-5.417-9.494,5.217,7.083,2.751-6.725-5.876-3.255Z" transform="translate(-5660.833 -1626.028)" fill="#3e2ea6"/>
          </g>
          <g id="Grupo_136927" data-name="Grupo 136927" transform="translate(9.959 0.001)">
            <path id="Trazado_153064" data-name="Trazado 153064" d="M5778.6,1634.228l2.845,3.939-6.4,8.693-3.558-8.693Z" transform="translate(-5770.69 -1633.432)" fill="#3e2ea6"/>
            <path id="Trazado_153065" data-name="Trazado 153065" d="M5767.648,1640.264a.883.883,0,0,1-.1-.006.8.8,0,0,1-.638-.488l-3.558-8.693a.8.8,0,0,1,.351-1l7.114-3.94a.8.8,0,0,1,1.031.231l2.845,3.94a.8.8,0,0,1,0,.938l-6.4,8.693A.8.8,0,0,1,5767.648,1640.264Zm-2.552-9.136,2.751,6.725,5.217-7.084-2.091-2.9Z" transform="translate(-5763.294 -1626.039)" fill="#3e2ea6"/>
          </g>
        </g>
        <g id="Grupo_136936" data-name="Grupo 136936" transform="translate(12.343)">
          <g id="Grupo_136929" data-name="Grupo 136929" transform="translate(9.438 28.486)">
            <path id="Trazado_153066" data-name="Trazado 153066" d="M5727.721,1554.709v9.251l4.254,3.94,4.253-3.94v-9.251Z" transform="translate(-5726.925 -1553.913)" fill="#fff"/>
            <path id="Trazado_153067" data-name="Trazado 153067" d="M5724.578,1561.3a.794.794,0,0,1-.541-.212l-4.254-3.939a.794.794,0,0,1-.256-.584v-9.252a.8.8,0,0,1,.8-.8h8.508a.8.8,0,0,1,.8.8v9.252a.8.8,0,0,1-.255.584l-4.254,3.939A.8.8,0,0,1,5724.578,1561.3Zm-3.458-5.083,3.458,3.2,3.458-3.2v-8.108h-6.916Z" transform="translate(-5719.527 -1546.516)" fill="#3e2ea6"/>
          </g>
          <g id="Grupo_136930" data-name="Grupo 136930" transform="translate(0 2.781)">
            <path id="Trazado_153068" data-name="Trazado 153068" d="M5656.312,1302.736c-.385-6.462-3.934-12.269-11.656-12.478-8.161-.22-11.923,5.775-12.332,12.472-.98.427-1.705,1.839-1.705,3.533,0,2.032,1.036,3.679,2.313,3.679a1.465,1.465,0,0,0,.19-.031c1.636,5.719,5.582,10.467,11.16,10.482,5.559.015,9.548-4.745,11.208-10.484a1.461,1.461,0,0,0,.2.032c1.277,0,2.313-1.647,2.313-3.679C5658,1304.576,5657.286,1303.17,5656.312,1302.736Z" transform="translate(-5629.823 -1289.455)" fill="#fff"/>
            <path id="Trazado_153069" data-name="Trazado 153069" d="M5636.912,1313.793h-.027c-5.255-.014-9.717-4.015-11.751-10.487-1.546-.276-2.707-2.127-2.707-4.439a4.872,4.872,0,0,1,1.737-4.015c.524-6.305,4.1-12.793,12.651-12.793q.23,0,.466.006c8.4.227,11.9,6.679,12.4,12.8a4.891,4.891,0,0,1,1.724,4c0,2.319-1.167,4.173-2.72,4.442C5646.626,1309.795,5642.157,1313.793,5636.912,1313.793Zm-11.184-12.075a.8.8,0,0,1,.765.577c1.367,4.779,4.815,9.891,10.4,9.906h.025c5.568,0,9.03-5.116,10.415-9.909a.8.8,0,0,1,.875-.568c.02,0,.116.021.136.025.671,0,1.471-1.232,1.471-2.882a3.071,3.071,0,0,0-1.219-2.8.793.793,0,0,1-.47-.68c-.161-2.687-1.419-11.474-10.883-11.729-2.524-.081-10.834.575-11.517,11.724a.794.794,0,0,1-.475.68,3.1,3.1,0,0,0-1.227,2.8c0,1.65.8,2.882,1.517,2.882.022,0,.063-.021.084-.024A.847.847,0,0,1,5625.728,1301.718Z" transform="translate(-5622.427 -1282.059)" fill="#3e2ea6"/>
          </g>
          <g id="Grupo_136931" data-name="Grupo 136931" transform="translate(1.619)">
            <path id="Trazado_153070" data-name="Trazado 153070" d="M5663.641,1261.647h-8.581a7.782,7.782,0,0,0-7.782,7.783v7.476s1.21,2.6,3.731,2.592v-7.57c3.1,2.582,13.583,2.583,16.682,0v7.57c2.523.006,3.733-2.592,3.733-2.592v-7.476A7.783,7.783,0,0,0,5663.641,1261.647Z" transform="translate(-5646.481 -1260.85)" fill="#fff"/>
            <path id="Trazado_153071" data-name="Trazado 153071" d="M5660.3,1272.9h-.011a.8.8,0,0,1-.794-.8v-6.158c-3.8,1.76-11.293,1.76-15.09,0v6.158a.8.8,0,0,1-.794.8h-.011c-2.988,0-4.387-2.927-4.443-3.052a.784.784,0,0,1-.075-.336v-7.477a8.588,8.588,0,0,1,8.578-8.579h8.581a8.588,8.588,0,0,1,8.579,8.579v7.477a.806.806,0,0,1-.075.337C5664.687,1269.968,5663.289,1272.9,5660.3,1272.9Zm-.009-9.162a.8.8,0,0,1,.8.8v6.655a4.069,4.069,0,0,0,2.14-1.875v-7.279a6.994,6.994,0,0,0-6.986-6.987h-8.581a6.994,6.994,0,0,0-6.986,6.987v7.279a4.074,4.074,0,0,0,2.139,1.875v-6.655a.8.8,0,0,1,1.306-.612c2.781,2.319,12.881,2.318,15.662,0A.8.8,0,0,1,5660.292,1263.733Zm3.732,5.774h0Z" transform="translate(-5639.082 -1253.452)" fill="#3e2ea6"/>
          </g>
          <g id="Grupo_136934" data-name="Grupo 136934" transform="translate(6.087 20.488)">
            <g id="Grupo_136932" data-name="Grupo 136932" transform="translate(11.023)">
              <path id="Trazado_153072" data-name="Trazado 153072" d="M5810.833,1473.4a2.749,2.749,0,0,0-4.188,0" transform="translate(-5805.849 -1471.635)" fill="#3e2ea6"/>
              <path id="Trazado_153073" data-name="Trazado 153073" d="M5803.438,1466.8a.8.8,0,0,1-.606-.28,2.014,2.014,0,0,0-2.976,0,.8.8,0,0,1-1.213-1.033,3.545,3.545,0,0,1,5.4,0,.8.8,0,0,1-.606,1.313Z" transform="translate(-5798.453 -1464.238)" fill="#3e2ea6"/>
            </g>
            <g id="Grupo_136933" data-name="Grupo 136933">
              <path id="Trazado_153074" data-name="Trazado 153074" d="M5697.426,1473.4a2.749,2.749,0,0,0-4.188,0" transform="translate(-5692.441 -1471.635)" fill="#3e2ea6"/>
              <path id="Trazado_153075" data-name="Trazado 153075" d="M5690.033,1466.8a.792.792,0,0,1-.606-.279,2.013,2.013,0,0,0-2.976,0,.8.8,0,1,1-1.213-1.033,3.543,3.543,0,0,1,5.4,0,.8.8,0,0,1-.6,1.313Z" transform="translate(-5685.048 -1464.238)" fill="#3e2ea6"/>
            </g>
          </g>
          <g id="Grupo_136935" data-name="Grupo 136935" transform="translate(11.598 27.198)">
            <path id="Trazado_153076" data-name="Trazado 153076" d="M5749.94,1541.458a2.749,2.749,0,0,0,4.188,0" transform="translate(-5749.145 -1540.662)" fill="#3e2ea6"/>
            <path id="Trazado_153077" data-name="Trazado 153077" d="M5744.642,1535.828a3.543,3.543,0,0,1-2.7-1.248.8.8,0,1,1,1.212-1.033,2.016,2.016,0,0,0,2.976,0,.8.8,0,0,1,1.212,1.033A3.543,3.543,0,0,1,5744.642,1535.828Z" transform="translate(-5741.752 -1533.267)" fill="#3e2ea6"/>
          </g>
        </g>
        <g id="Grupo_136937" data-name="Grupo 136937" transform="translate(26.036 48.125)">
          <line id="Línea_231" data-name="Línea 231" y2="11.242" transform="translate(0.796 0.796)" fill="#3e2ea6"/>
          <path id="Trazado_153078" data-name="Trazado 153078" d="M5764.091,1761.4a.8.8,0,0,1-.8-.8v-11.242a.8.8,0,1,1,1.593,0V1760.6A.8.8,0,0,1,5764.091,1761.4Z" transform="translate(-5763.295 -1748.566)" fill="#3e2ea6"/>
        </g>
      </g>
    </g>
  </g>
</svg>
