<svg xmlns="http://www.w3.org/2000/svg" width="71.5" height="65.081" viewBox="0 0 71.5 65.081">
  <g id="Grupo_137065" data-name="Grupo 137065" transform="translate(-376 -377.661)">
    <g id="Grupo_137064" data-name="Grupo 137064" transform="translate(376 377.661)">
      <path id="Trazado_153260" data-name="Trazado 153260" d="M412.392,393.339a17.392,17.392,0,1,0,17.392,17.392A17.392,17.392,0,0,0,412.392,393.339Zm-.845,14.062,3.929,2.021a5.926,5.926,0,0,1,3.167,6.309,5.764,5.764,0,0,1-3.4,4.437v.524a2.416,2.416,0,0,1-4.831,0v-.369a7.152,7.152,0,0,1-4.307-3.927,2.416,2.416,0,1,1,4.431-1.928,2.348,2.348,0,0,0,2.336,1.389,1.026,1.026,0,0,0,1-.889,1.163,1.163,0,0,0-.611-1.252l-3.929-2.021a5.956,5.956,0,0,1-3.138-6.441,5.8,5.8,0,0,1,4.219-4.624v-.359a2.416,2.416,0,0,1,4.831,0v.891a7.055,7.055,0,0,1,3.444,3.554,2.416,2.416,0,1,1-4.431,1.925,2.344,2.344,0,0,0-2.334-1.387,1.032,1.032,0,0,0-.978.891A1.115,1.115,0,0,0,411.547,407.4Z" transform="translate(-358.284 -363.042)" fill="#dad6f7"/>
      <path id="Trazado_153261" data-name="Trazado 153261" d="M435.905,377.661h-7.73a3.865,3.865,0,0,0-3.865,3.865,3.865,3.865,0,1,1-7.73,0,3.865,3.865,0,0,0-3.865-3.865h-9.662a3.865,3.865,0,0,0-3.865,3.865,3.865,3.865,0,1,1-7.73,0,3.865,3.865,0,0,0-3.865-3.865h-7.73A3.865,3.865,0,0,0,376,381.526v48.311a3.866,3.866,0,0,0,3.865,3.865h29.663a22.178,22.178,0,0,1,30.243-28.333V381.526A3.865,3.865,0,0,0,435.905,377.661Zm-48.311,46.722a3.865,3.865,0,1,1,3.865-3.865A3.865,3.865,0,0,1,387.595,424.383Zm0-11.595a3.865,3.865,0,1,1,3.865-3.865A3.865,3.865,0,0,1,387.595,412.789Zm11.595,11.595a3.865,3.865,0,1,1,3.865-3.865A3.865,3.865,0,0,1,399.189,424.383Zm0-11.595a3.865,3.865,0,1,1,3.865-3.865A3.865,3.865,0,0,1,399.189,412.789Zm0-11.595a3.865,3.865,0,1,1,3.865-3.865A3.865,3.865,0,0,1,399.189,401.194Zm11.595,0a3.865,3.865,0,1,1,3.865-3.865A3.865,3.865,0,0,1,410.784,401.194Z" transform="translate(-376 -377.661)" fill="#dad6f7"/>
    </g>
  </g>
</svg>
