<svg xmlns="http://www.w3.org/2000/svg" width="106" height="106" viewBox="0 0 106 106">
  <g id="Grupo_137182" data-name="Grupo 137182" transform="translate(-1156 -4552)">
    <g id="Elipse_504" data-name="Elipse 504" transform="translate(1156 4552)" fill="#3e2ea6" stroke="#707070" stroke-width="1">
      <circle cx="53" cy="53" r="53" stroke="none"/>
      <circle cx="53" cy="53" r="52.5" fill="none"/>
    </g>
    <g id="Grupo_87428" data-name="Grupo 87428" transform="translate(-2486.801 6769.406)">
      <path id="Trazado_101189" data-name="Trazado 101189" d="M3782.464-2108.733a1.328,1.328,0,0,0-.253.036,1.309,1.309,0,0,0-.142.019l-18.3,6.369a9.71,9.71,0,0,1,1.488,2.22l4.015-1.4-3.71,2.092a9.657,9.657,0,0,1,.629,2.615l16.933-9.551a1.233,1.233,0,0,0,.108-.091,1.318,1.318,0,0,0,.2-.172,1.249,1.249,0,0,0,.144-.191,1.278,1.278,0,0,0,.11-.221,1.234,1.234,0,0,0,.063-.237,1.138,1.138,0,0,0,.021-.239,1.23,1.23,0,0,0-.037-.26,1.221,1.221,0,0,0-.018-.14.847.847,0,0,0-.06-.1,1.052,1.052,0,0,0-.034-.111,1.1,1.1,0,0,0-.093-.105,1.167,1.167,0,0,0-.171-.2,1.244,1.244,0,0,0-.191-.142,1.271,1.271,0,0,0-.223-.112,1.274,1.274,0,0,0-.231-.062A1.341,1.341,0,0,0,3782.464-2108.733Z" transform="translate(-62.731 -50.202)" fill="#dad6f7"/>
      <path id="Trazado_101190" data-name="Trazado 101190" d="M3695.8-2190.037a33.661,33.661,0,0,0-33.623,33.624,33.667,33.667,0,0,0,1.347,9.414l.271.932h23.531a9.761,9.761,0,0,1-.1-1.373,9.8,9.8,0,0,1,.078-1.213h-21.554a30.976,30.976,0,0,1-.988-7.759,31.072,31.072,0,0,1,31.036-31.038,31.073,31.073,0,0,1,31.037,31.038,31.01,31.01,0,0,1-.988,7.759H3706.5a9.748,9.748,0,0,1,.079,1.213,9.724,9.724,0,0,1-.1,1.373h21.327l.272-.932a33.629,33.629,0,0,0,1.345-9.414A33.66,33.66,0,0,0,3695.8-2190.037Z" transform="translate(0)" fill="#dad6f7"/>
      <g id="Grupo_87427" data-name="Grupo 87427" transform="translate(3668.546 -2183.474)">
        <path id="Trazado_101191" data-name="Trazado 101191" d="M3797.441-2102.715l10.339-.368-.13-1.29-10.171.361Z" transform="translate(-3752.064 2130.58)" fill="#dad6f7"/>
        <path id="Trazado_101192" data-name="Trazado 101192" d="M3797.434-2109.738l9.914-1.365-.259-1.271-9.749,1.342Z" transform="translate(-3752.002 2135.519)" fill="#dad6f7"/>
        <path id="Trazado_101193" data-name="Trazado 101193" d="M3796.809-2116.638l9.4-2.29-.389-1.237-9.232,2.25Z" transform="translate(-3751.537 2140.331)" fill="#dad6f7"/>
        <path id="Trazado_101194" data-name="Trazado 101194" d="M3795.618-2123.346l8.794-3.129-.513-1.19-8.635,3.073Z" transform="translate(-3750.721 2144.962)" fill="#dad6f7"/>
        <path id="Trazado_101195" data-name="Trazado 101195" d="M3793.863-2129.784l8.123-3.87-.63-1.129-7.971,3.8Z" transform="translate(-3749.56 2149.356)" fill="#dad6f7"/>
        <path id="Trazado_101196" data-name="Trazado 101196" d="M3791.558-2135.885l7.4-4.5-.745-1.061-7.252,4.417Z" transform="translate(-3748.061 2153.474)" fill="#dad6f7"/>
        <path id="Trazado_101197" data-name="Trazado 101197" d="M3794.5-2147.6l-6.5,4.929.713,1.08,6.631-5.03Z" transform="translate(-3746.236 2157.274)" fill="#dad6f7"/>
        <path id="Trazado_101198" data-name="Trazado 101198" d="M3790.255-2153.189l-5.715,5.333.82,1,5.839-5.447Z" transform="translate(-3744.099 2160.722)" fill="#dad6f7"/>
        <path id="Trazado_101199" data-name="Trazado 101199" d="M3785.526-2158.155l-4.924,5.632.918.914,5.034-5.759Z" transform="translate(-3741.667 2163.788)" fill="#dad6f7"/>
        <path id="Trazado_101200" data-name="Trazado 101200" d="M3780.361-2162.458l-4.129,5.829,1.005.816,4.228-5.965Z" transform="translate(-3738.969 2166.445)" fill="#dad6f7"/>
        <path id="Trazado_101201" data-name="Trazado 101201" d="M3774.808-2166.055l-3.346,5.926,1.084.708,3.429-6.072Z" transform="translate(-3736.023 2168.666)" fill="#dad6f7"/>
        <path id="Trazado_101202" data-name="Trazado 101202" d="M3768.921-2168.918l-2.586,5.929,1.151.594,2.654-6.083Z" transform="translate(-3732.858 2170.434)" fill="#dad6f7"/>
        <path id="Trazado_101203" data-name="Trazado 101203" d="M3762.761-2171.02l-1.859,5.843,1.207.472,1.91-6Z" transform="translate(-3729.503 2171.732)" fill="#dad6f7"/>
        <path id="Trazado_101204" data-name="Trazado 101204" d="M3756.392-2172.342l-1.177,5.673,1.25.346,1.211-5.839Z" transform="translate(-3725.992 2172.548)" fill="#dad6f7"/>
        <path id="Trazado_101205" data-name="Trazado 101205" d="M3749.327-2167.451l1.278.214.57-5.6-1.294-.047Z" transform="translate(-3722.356 2172.881)" fill="#dad6f7"/>
        <path id="Trazado_101206" data-name="Trazado 101206" d="M3743.661-2172.817l-.174.009-.1.007-.2.016.09,5.121.2.01.1,0,.056,0c-.021,0,.083,0-.039,0l.029,0,.237.018.647.047.039-5.29-.646.037Z" transform="translate(-3718.566 2172.873)" fill="#dad6f7"/>
        <path id="Trazado_101207" data-name="Trazado 101207" d="M3735.934-2172.01l.483,4.758,1.3-.046-.5-4.926Z" transform="translate(-3714.086 2172.475)" fill="#dad6f7"/>
        <path id="Trazado_101208" data-name="Trazado 101208" d="M3728.735-2170.491l.9,4.354,1.283-.179-.935-4.519Z" transform="translate(-3709.641 2171.617)" fill="#dad6f7"/>
        <path id="Trazado_101209" data-name="Trazado 101209" d="M3721.794-2168.246l1.244,3.916,1.258-.311-1.294-4.076Z" transform="translate(-3705.356 2170.31)" fill="#dad6f7"/>
        <path id="Trazado_101210" data-name="Trazado 101210" d="M3715.19-2165.3l1.507,3.458,1.216-.438-1.574-3.613Z" transform="translate(-3701.278 2168.569)" fill="#dad6f7"/>
        <path id="Trazado_101211" data-name="Trazado 101211" d="M3708.984-2161.712l1.688,2.991,1.168-.561-1.771-3.138Z" transform="translate(-3697.446 2166.422)" fill="#dad6f7"/>
        <path id="Trazado_101212" data-name="Trazado 101212" d="M3703.238-2157.517l1.791,2.527,1.1-.677-1.888-2.667Z" transform="translate(-3693.898 2163.899)" fill="#dad6f7"/>
        <path id="Trazado_101213" data-name="Trazado 101213" d="M3698.006-2152.77l1.817,2.077,1.029-.786-1.928-2.205Z" transform="translate(-3690.668 2161.028)" fill="#dad6f7"/>
        <path id="Trazado_101214" data-name="Trazado 101214" d="M3693.333-2147.538l1.772,1.653.943-.887-1.9-1.768Z" transform="translate(-3687.782 2157.851)" fill="#dad6f7"/>
        <path id="Trazado_101215" data-name="Trazado 101215" d="M3689.257-2141.875l1.663,1.261.848-.979-1.8-1.362Z" transform="translate(-3685.266 2154.403)" fill="#dad6f7"/>
        <path id="Trazado_101216" data-name="Trazado 101216" d="M3685.818-2135.846l1.5.909.743-1.059-1.638-1Z" transform="translate(-3683.142 2150.721)" fill="#dad6f7"/>
        <path id="Trazado_101217" data-name="Trazado 101217" d="M3683.045-2129.521l1.274.608.633-1.13-1.427-.681Z" transform="translate(-3681.43 2146.851)" fill="#dad6f7"/>
        <path id="Trazado_101218" data-name="Trazado 101218" d="M3680.955-2122.965l1.012.361.514-1.189-1.171-.418Z" transform="translate(-3680.139 2142.829)" fill="#dad6f7"/>
        <path id="Trazado_101219" data-name="Trazado 101219" d="M3679.572-2116.25l.718.175.388-1.236-.881-.216Z" transform="translate(-3679.285 2138.702)" fill="#dad6f7"/>
        <path id="Trazado_101220" data-name="Trazado 101220" d="M3678.9-2109.452l.4.056.26-1.27-.564-.078Z" transform="translate(-3678.868 2134.514)" fill="#dad6f7"/>
        <path id="Trazado_101221" data-name="Trazado 101221" d="M3678.86-2102.644l.064,0,.13-1.287-.232-.008Z" transform="translate(-3678.823 2130.311)" fill="#dad6f7"/>
      </g>
      <circle id="Elipse_4740" data-name="Elipse 4740" cx="9.934" cy="9.934" r="9.934" transform="translate(3686.94 -2157.267)" fill="#dad6f7"/>
    </g>
  </g>
</svg>
