<svg xmlns="http://www.w3.org/2000/svg" width="101" height="101" viewBox="0 0 101 101">
  <g id="Grupo_137189" data-name="Grupo 137189" transform="translate(-750 -7628.396)">
    <circle id="Elipse_1147" data-name="Elipse 1147" cx="50.5" cy="50.5" r="50.5" transform="translate(750 7628.396)" fill="#ef6c00"/>
    <g id="Grupo_136942" data-name="Grupo 136942" transform="translate(-487.129 7568.961)">
      <path id="Trazado_153093" data-name="Trazado 153093" d="M1297.617,134.332q-1.211.737-2.442,1.447c-.219.127-.437.251-.658.374-1.91,1.086-3.851,2.115-5.845,3.048-1.111.519-2.241,1.005-3.4,1.426-.289.1-.578.211-.872.3s-.588.182-.883.264c-.148.046-.3.078-.447.116s-.3.074-.45.1-.3.059-.453.08l-.457.052a18.568,18.568,0,0,0,3.379-1.346c.272-.131.542-.273.812-.407l.805-.427c.146-.077.292-.158.438-.237q.581-.315,1.158-.637c1.937-1.1,3.846-2.242,5.738-3.412.174-.106.346-.211.519-.319l1.545-.966.994-.628.546-.345,1.534-.983.381-.249.131-.086.058-.038.082-.054.083-.058c.224-.164.45-.344.662-.531a6.319,6.319,0,0,0,1.1-1.228,2.2,2.2,0,0,0,.437-1.318,1.356,1.356,0,0,0-.189-.6,1.237,1.237,0,0,0-.088-.145l-.108-.14a1.685,1.685,0,0,0-.125-.136c-.044-.043-.083-.091-.134-.131a3.978,3.978,0,0,0-.345-.274,2.155,2.155,0,0,0-1.7-.355q-.883.185-1.769.379l-.367.081q-1.328.293-2.657.594l-.543.123c-.4.152-1.044.392-1.444.543-.422.226-.862.458-1.316.689a27.8,27.8,0,0,1-7.822,2.938,2.751,2.751,0,0,1-2.348-.479s-4.2-3.148-14.953,4.989q-.872.658-1.681,1.263c-9.456,7.062-9.324,6.735-9.324,6.735a4.24,4.24,0,0,0-1.3,5.61l3.707,6.484a2.418,2.418,0,0,0,3.69.627c2.766-2.416,4.464-4.52,9.885-6.874a21.35,21.35,0,0,1,6.639-1.812c10.23-.84,12.041-1.175,13.551-1.338a10.289,10.289,0,0,0,6.874-5.048,2.911,2.911,0,0,0,1.985-.131l.584-.257-1-2.273Z" transform="translate(0 -16.429)" fill="#fcecdf"/>
      <path id="Trazado_153094" data-name="Trazado 153094" d="M1335.576,113.24,1319.5,76.684a2.94,2.94,0,0,0-3.863-1.5l-15.57,6.847,11.817,26.872.125-.027-.084.118.231.528q1.458-.412,2.929-.782a.539.539,0,0,1,.338.027l.016.007c.26.11.518.23.771.368l-.257-.586h0l-1.338-3.044-.346-.787a.57.57,0,1,1,1.044-.459l.136.31,2.24,5.1h0l.027.061a.573.573,0,0,1-.057.56l.072.087a2.161,2.161,0,0,1,.158.236,2.531,2.531,0,0,1,.377,1.122,2.936,2.936,0,0,1-.14,1.15,4.178,4.178,0,0,1-.465.968,7.49,7.49,0,0,1-1.318,1.5,9.689,9.689,0,0,1-.763.616l-.1.073-.11.072-.194.125-.046.031.142.323h0l1.56,3.549,1.674,3.808,15.568-6.846A2.942,2.942,0,0,0,1335.576,113.24Zm-28.54-24.965-2.4-5.469a.569.569,0,1,1,1.042-.458l2.406,5.468a.57.57,0,0,1-1.044.459Zm3.212,7.305-2.406-5.469a.57.57,0,0,1,1.044-.459l2.4,5.469a.569.569,0,0,1-1.043.458Zm3.963,7.6a.568.568,0,0,1-.75-.292l-2.406-5.468a.57.57,0,0,1,1.044-.46l2.4,5.469A.569.569,0,0,1,1314.211,103.178Zm12.974,1.064a2.919,2.919,0,0,1,.178,1.81,3.672,3.672,0,0,0-2.514.164,3.625,3.625,0,0,0-.765.454h0a3.593,3.593,0,0,0-.321.279c-.05.049-.1.1-.146.151a3.72,3.72,0,0,0-.265.324,3.767,3.767,0,0,0-.224.35c-.034.06-.066.121-.1.183a2.892,2.892,0,0,1-.372-.255c-.059-.048-.116-.1-.172-.15a2.874,2.874,0,0,1-.364-.42c-.035-.049-.069-.1-.1-.15a2.858,2.858,0,0,1-.2-.382c-.01-.022-.016-.045-.025-.067a2.882,2.882,0,0,1-.207-.82,2.929,2.929,0,0,1,2.826-3.223c.052,0,.1,0,.156,0a2.95,2.95,0,0,1,1.2.287h0A2.923,2.923,0,0,1,1327.185,104.242Zm.332,8.036a2.931,2.931,0,1,1,1.5-3.863A2.93,2.93,0,0,1,1327.517,112.278Z" transform="translate(-14.905)" fill="#fcecdf"/>
      <path id="Trazado_153095" data-name="Trazado 153095" d="M1303.17,114.852c.367-.187.752-.389,1.2-.631l.093-.05.825-.311.718-.27.107-.041.345-.078-11.576-26.327-.583.257a2.94,2.94,0,0,0-1.505,3.864Z" transform="translate(-12.507 -3.895)" fill="#fcecdf"/>
    </g>
  </g>
</svg>
