<svg xmlns="http://www.w3.org/2000/svg" width="101" height="101" viewBox="0 0 101 101">
  <g id="Grupo_137190" data-name="Grupo 137190" transform="translate(-750 -7790.396)">
    <circle id="Elipse_1145" data-name="Elipse 1145" cx="50.5" cy="50.5" r="50.5" transform="translate(750 7790.396)" fill="#ef6c00"/>
    <g id="Grupo_136944" data-name="Grupo 136944" transform="translate(410.035 7529.872)">
      <path id="Trazado_153101" data-name="Trazado 153101" d="M368.765,351.321c-4.223,0-7.709-1.974-8.221-4.524a3.3,3.3,0,0,0-.065.649c0,2.857,3.71,5.173,8.286,5.173s8.286-2.316,8.286-5.173a3.339,3.339,0,0,0-.065-.649C376.474,349.348,372.989,351.321,368.765,351.321Z" transform="translate(0 -28.544)" fill="#fcecdf"/>
      <path id="Trazado_153102" data-name="Trazado 153102" d="M368.765,355.945c-4.223,0-7.709-1.974-8.221-4.524a3.291,3.291,0,0,0-.065.649c0,2.857,3.71,5.173,8.286,5.173s8.286-2.316,8.286-5.173a3.342,3.342,0,0,0-.065-.649C376.474,353.971,372.989,355.945,368.765,355.945Z" transform="translate(0 -30.57)" fill="#fcecdf"/>
      <path id="Trazado_153103" data-name="Trazado 153103" d="M368.765,360.568c-4.223,0-7.709-1.974-8.221-4.524a3.3,3.3,0,0,0-.065.649c0,2.857,3.71,5.173,8.286,5.173s8.286-2.316,8.286-5.173a3.334,3.334,0,0,0-.065-.649C376.474,358.594,372.989,360.568,368.765,360.568Z" transform="translate(0 -32.596)" fill="#fcecdf"/>
      <path id="Trazado_153104" data-name="Trazado 153104" d="M368.765,365.192c-4.223,0-7.709-1.974-8.221-4.524a3.291,3.291,0,0,0-.065.649c0,2.857,3.71,5.174,8.286,5.174s8.286-2.316,8.286-5.174a3.342,3.342,0,0,0-.065-.649C376.474,363.218,372.989,365.192,368.765,365.192Z" transform="translate(0 -34.622)" fill="#fcecdf"/>
      <path id="Trazado_153105" data-name="Trazado 153105" d="M368.765,369.815c-4.223,0-7.709-1.974-8.221-4.524a3.3,3.3,0,0,0-.065.649c0,2.857,3.71,5.174,8.286,5.174s8.286-2.316,8.286-5.174a3.339,3.339,0,0,0-.065-.649C376.474,367.841,372.989,369.815,368.765,369.815Z" transform="translate(0 -36.648)" fill="#fcecdf"/>
      <path id="Trazado_153106" data-name="Trazado 153106" d="M368.765,374.439c-4.223,0-7.709-1.974-8.221-4.524a3.291,3.291,0,0,0-.065.649c0,2.857,3.71,5.173,8.286,5.173s8.286-2.316,8.286-5.173a3.342,3.342,0,0,0-.065-.649C376.474,372.465,372.989,374.439,368.765,374.439Z" transform="translate(0 -38.674)" fill="#fcecdf"/>
      <path id="Trazado_153107" data-name="Trazado 153107" d="M368.765,379.062c-4.223,0-7.709-1.974-8.221-4.524a3.3,3.3,0,0,0-.065.649c0,2.857,3.71,5.173,8.286,5.173s8.286-2.316,8.286-5.173a3.339,3.339,0,0,0-.065-.649C376.474,377.089,372.989,379.062,368.765,379.062Z" transform="translate(0 -40.7)" fill="#fcecdf"/>
      <path id="Trazado_153108" data-name="Trazado 153108" d="M368.765,344.467c4.576,0,8.286-2.316,8.286-5.173s-3.709-5.173-8.286-5.173-8.286,2.316-8.286,5.173S364.189,344.467,368.765,344.467Zm-.242-4.537c-.87-.341-1.765-.844-1.765-1.972a1.88,1.88,0,0,1,1.358-1.8v-1.006h1.455v.914a2.692,2.692,0,0,1,.948.336l.328.192-.547,1.44-.456-.261a1.708,1.708,0,0,0-.91-.247c-.321,0-.506.119-.506.325,0,.13,0,.265.839.611a2.214,2.214,0,0,1,1.672,2.062,1.961,1.961,0,0,1-1.422,1.881v1.033h-1.464v-.946a2.817,2.817,0,0,1-1.189-.442l-.276-.2.524-1.463.478.319a1.962,1.962,0,0,0,1.047.311c.287,0,.622-.113.622-.433C369.26,340.452,369.26,340.229,368.523,339.93Z" transform="translate(0 -22.989)" fill="#fcecdf"/>
      <path id="Trazado_153109" data-name="Trazado 153109" d="M402.246,355.17c-.5,2.478-3.882,4.395-7.986,4.395a12.608,12.608,0,0,1-2.175-.186l-.005,1.26a12.663,12.663,0,0,0,2.18.188c4.445,0,8.049-2.25,8.049-5.025A3.191,3.191,0,0,0,402.246,355.17Z" transform="translate(-13.848 -32.213)" fill="#fcecdf"/>
      <path id="Trazado_153110" data-name="Trazado 153110" d="M392.134,343.037l-.036,9.685a12.672,12.672,0,0,0,2.17.186c4.445,0,8.049-2.25,8.049-5.025s-3.6-5.025-8.049-5.025A12.668,12.668,0,0,0,392.134,343.037Zm3.84,2.035.318.186-.531,1.4-.443-.254a1.664,1.664,0,0,0-.885-.239c-.312,0-.49.115-.49.316,0,.126,0,.256.815.593a2.151,2.151,0,0,1,1.624,2A1.906,1.906,0,0,1,395,350.9v1h-1.422v-.919a2.739,2.739,0,0,1-1.155-.43l-.268-.192.508-1.421.465.31a1.9,1.9,0,0,0,1.017.3c.279,0,.6-.11.6-.421,0-.129,0-.346-.716-.636-.845-.331-1.714-.82-1.714-1.916a1.826,1.826,0,0,1,1.32-1.748v-.978h1.413v.888A2.6,2.6,0,0,1,395.974,345.072Z" transform="translate(-13.856 -26.817)" fill="#fcecdf"/>
      <path id="Trazado_153111" data-name="Trazado 153111" d="M401.64,369.274a3.2,3.2,0,0,0-.063-.631c-.5,2.478-3.882,4.395-7.986,4.395a12.519,12.519,0,0,1-2.454-.239,11.2,11.2,0,0,1-.583,1.129,12.316,12.316,0,0,0,3.038.372C398.037,374.3,401.64,372.05,401.64,369.274Z" transform="translate(-13.179 -38.117)" fill="#fcecdf"/>
      <path id="Trazado_153112" data-name="Trazado 153112" d="M394.246,368.547a12.654,12.654,0,0,1-2.194-.189l0,1.26a12.641,12.641,0,0,0,2.2.192c4.445,0,8.049-2.25,8.049-5.026a3.193,3.193,0,0,0-.063-.631C401.735,366.63,398.35,368.547,394.246,368.547Z" transform="translate(-13.834 -36.149)" fill="#fcecdf"/>
      <path id="Trazado_153113" data-name="Trazado 153113" d="M402.239,359.661c-.5,2.478-3.882,4.395-7.986,4.395a12.661,12.661,0,0,1-2.184-.188l0,1.259a12.641,12.641,0,0,0,2.189.189c4.445,0,8.049-2.249,8.049-5.025A3.193,3.193,0,0,0,402.239,359.661Z" transform="translate(-13.841 -34.181)" fill="#fcecdf"/>
      <path id="Trazado_153114" data-name="Trazado 153114" d="M438.335,315.224h-20.86a.9.9,0,0,0,0,1.8h20.86a.9.9,0,0,0,0-1.8Z" transform="translate(-24.582 -14.708)" fill="#fcecdf"/>
      <path id="Trazado_153115" data-name="Trazado 153115" d="M438.335,327.834h-20.86a.9.9,0,0,0,0,1.8h20.86a.9.9,0,0,0,0-1.8Z" transform="translate(-24.582 -20.234)" fill="#fcecdf"/>
      <path id="Trazado_153116" data-name="Trazado 153116" d="M438.335,340.445h-20.86a.9.9,0,0,0,0,1.8h20.86a.9.9,0,0,0,0-1.8Z" transform="translate(-24.582 -25.76)" fill="#fcecdf"/>
      <path id="Trazado_153117" data-name="Trazado 153117" d="M438.335,353.055h-20.86a.9.9,0,0,0,0,1.8h20.86a.9.9,0,0,0,0-1.8Z" transform="translate(-24.582 -31.286)" fill="#fcecdf"/>
      <path id="Trazado_153118" data-name="Trazado 153118" d="M426.716,287.113l.819.975-7.529,6.318a.886.886,0,0,0-.109,1.244h0a.885.885,0,0,0,1.244.108l8.564-7.187a.883.883,0,1,0-1.135-1.352l-.275.231-.818-.975.994-.834a2.094,2.094,0,0,0,.257-2.942l-.247-.294a2.1,2.1,0,0,0-2.942-.257l-5.7,4.784,2.931,3.493Z" transform="translate(-25.948 0)" fill="#fcecdf"/>
      <path id="Trazado_153119" data-name="Trazado 153119" d="M405.659,296.129a.614.614,0,0,0-.613.613v1.6l2.633-2.209Z" transform="translate(-19.53 -6.34)" fill="#fcecdf"/>
      <path id="Trazado_153120" data-name="Trazado 153120" d="M405.046,316.837v13.646a10.017,10.017,0,0,1,1.227.621v-15.3Z" transform="translate(-19.53 -14.963)" fill="#fcecdf"/>
      <path id="Trazado_153121" data-name="Trazado 153121" d="M439.19,296.129H425l-1.462,1.227h15.042V341.3h-30a8.233,8.233,0,0,1-1.654,1.227H439.19a.614.614,0,0,0,.613-.614V296.742A.614.614,0,0,0,439.19,296.129Z" transform="translate(-20.353 -6.34)" fill="#fcecdf"/>
      <path id="Trazado_153122" data-name="Trazado 153122" d="M392.253,307.321c.027-.021.055-.039.081-.062l12.84-10.774-2.931-3.493L389.4,303.766c-.026.022-.05.047-.075.07-4.5,3.876-7.466,7.655-6.688,8.582S387.654,311.081,392.253,307.321Z" transform="translate(-9.657 -4.966)" fill="#fcecdf"/>
    </g>
  </g>
</svg>
