<svg xmlns="http://www.w3.org/2000/svg" width="101" height="101" viewBox="0 0 101 101">
  <g id="Grupo_137188" data-name="Grupo 137188" transform="translate(-750 -7467.396)">
    <circle id="Elipse_1146" data-name="Elipse 1146" cx="50.5" cy="50.5" r="50.5" transform="translate(750 7467.396)" fill="#ef6c00"/>
    <g id="Grupo_136943" data-name="Grupo 136943" transform="translate(-58.608 6990.806)">
      <path id="Rect치ngulo_35787" data-name="Rect치ngulo 35787" d="M1.744,0H6.588A1.744,1.744,0,0,1,8.332,1.744v0A1.744,1.744,0,0,1,6.588,3.488H1.744A1.744,1.744,0,0,1,0,1.744v0A1.744,1.744,0,0,1,1.744,0Z" transform="translate(877.815 531.956)" fill="#fcecdf"/>
      <path id="Trazado_153096" data-name="Trazado 153096" d="M886.385,492.894H830.831a1.765,1.765,0,0,0-1.765,1.765V548.1a1.765,1.765,0,0,0,1.765,1.764h55.554a1.765,1.765,0,0,0,1.765-1.764V494.659A1.765,1.765,0,0,0,886.385,492.894Zm1.527,16.375a3.307,3.307,0,0,1-3.3,3.3h-.972V530.19h.972a3.307,3.307,0,0,1,3.3,3.3v.412a3.306,3.306,0,0,1-3.3,3.3h-.972v9.2H833.579V496.352h50.058v9.2h.972a3.306,3.306,0,0,1,3.3,3.3Z" transform="translate(0 0)" fill="#fcecdf"/>
      <path id="Rect치ngulo_35788" data-name="Rect치ngulo 35788" d="M1.744,0H6.588A1.744,1.744,0,0,1,8.332,1.744v0A1.744,1.744,0,0,1,6.588,3.488H1.744A1.744,1.744,0,0,1,0,1.744v0A1.744,1.744,0,0,1,1.744,0Z" transform="translate(877.815 507.319)" fill="#fcecdf"/>
      <path id="Trazado_153097" data-name="Trazado 153097" d="M838.716,566.63a2.124,2.124,0,0,0,2.118,2.118h7.744a2.124,2.124,0,0,0,2.118-2.118V562.6h-11.98Z" transform="translate(-1.573 -11.362)" fill="#fcecdf"/>
      <path id="Trazado_153098" data-name="Trazado 153098" d="M876.359,566.63a2.124,2.124,0,0,0,2.118,2.118h7.743a2.124,2.124,0,0,0,2.118-2.118V562.6h-11.98Z" transform="translate(-7.709 -11.362)" fill="#fcecdf"/>
      <path id="Trazado_153099" data-name="Trazado 153099" d="M877.545,535.2v-.412a3.307,3.307,0,0,1,3.3-3.3h1.119V513.863h-1.119a3.307,3.307,0,0,1-3.3-3.3v-.412a3.306,3.306,0,0,1,3.3-3.3h1.119V501.69a.882.882,0,0,0-.882-.882H839.122a.882.882,0,0,0-.882.882v41.962a.882.882,0,0,0,.882.883h41.963a.882.882,0,0,0,.882-.883V538.5h-1.119A3.306,3.306,0,0,1,877.545,535.2Zm-26.439-11.617h-3.521a2.371,2.371,0,1,1,0-1.815h3.521a.908.908,0,0,1,0,1.815Zm23.212-.011-1.582-.28a.442.442,0,0,0-.154.87l1.584.279a7.649,7.649,0,0,1-.614,1.686l-1.392-.8a.441.441,0,1,0-.442.764l1.392.8a7.715,7.715,0,0,1-1.153,1.373l-1.033-1.23a.441.441,0,1,0-.675.567l1.034,1.232a7.713,7.713,0,0,1-1.554.9l-.55-1.512a.441.441,0,0,0-.829.3l.55,1.512a7.7,7.7,0,0,1-1.767.311v-1.607a.441.441,0,1,0-.882,0v1.607a7.692,7.692,0,0,1-1.767-.311l.55-1.512a.441.441,0,0,0-.829-.3l-.55,1.512a7.689,7.689,0,0,1-1.553-.9l1.034-1.232a.441.441,0,1,0-.676-.567l-1.032,1.23a7.72,7.72,0,0,1-1.154-1.373l1.392-.8a.441.441,0,1,0-.441-.764l-1.392.8a7.606,7.606,0,0,1-.614-1.686l1.583-.279a.442.442,0,1,0-.153-.87l-1.582.28a7.43,7.43,0,0,1,0-1.794l1.582.279a.4.4,0,0,0,.077.007.441.441,0,0,0,.076-.875l-1.583-.28a7.615,7.615,0,0,1,.614-1.685l1.392.8a.437.437,0,0,0,.22.059.441.441,0,0,0,.221-.823l-1.392-.8a7.718,7.718,0,0,1,1.154-1.373l1.032,1.23a.441.441,0,1,0,.676-.568l-1.034-1.232a7.686,7.686,0,0,1,1.553-.9l.55,1.512a.441.441,0,0,0,.829-.3l-.55-1.511a7.643,7.643,0,0,1,1.767-.311v1.607a.441.441,0,0,0,.882,0V515a7.65,7.65,0,0,1,1.767.311l-.55,1.511a.441.441,0,0,0,.264.566.43.43,0,0,0,.151.027.442.442,0,0,0,.415-.29l.55-1.512a7.71,7.71,0,0,1,1.554.9l-1.034,1.232a.441.441,0,0,0,.675.568l1.033-1.23a7.747,7.747,0,0,1,1.153,1.373l-1.392.8a.441.441,0,0,0,.442.764l1.392-.8a7.658,7.658,0,0,1,.614,1.685l-1.584.28a.441.441,0,0,0,.076.875.4.4,0,0,0,.078-.007l1.582-.279a7.531,7.531,0,0,1,0,1.794Z" transform="translate(-1.495 -1.29)" fill="#fcecdf"/>
      <path id="Trazado_153100" data-name="Trazado 153100" d="M871.564,522.825A3.435,3.435,0,1,0,875,526.26,3.435,3.435,0,0,0,871.564,522.825Z" transform="translate(-6.368 -4.879)" fill="#fcecdf"/>
    </g>
  </g>
</svg>
