<svg xmlns="http://www.w3.org/2000/svg" width="115" height="115" viewBox="0 0 115 115">
  <g id="Grupo_137186" data-name="Grupo 137186" transform="translate(6268 2932)">
    <circle id="Elipse_4988" data-name="Elipse 4988" cx="57.5" cy="57.5" r="57.5" transform="translate(-6268 -2932)" fill="#3e2ea6"/>
    <g id="Grupo_136811" data-name="Grupo 136811" transform="translate(-6501.481 -3148.294)">
      <path id="Trazado_152626" data-name="Trazado 152626" d="M313.028,256.938a3.273,3.273,0,0,0,.169.756,1.565,1.565,0,0,0,.395.559,3.971,3.971,0,0,0,1,.674,3.488,3.488,0,0,0,.646.237v-4.946a2.914,2.914,0,0,0-1.479.783A2.506,2.506,0,0,0,313.028,256.938Z" transform="translate(-24.991 -8.464)" fill="#dad6f7"/>
      <path id="Trazado_152627" data-name="Trazado 152627" d="M322.148,268.789v4.338a1.765,1.765,0,0,0,.31-.13,2.352,2.352,0,0,0,.713-.543,1.811,1.811,0,0,0,.291-.544,1.538,1.538,0,0,0,.1-.426v-.02a3.036,3.036,0,0,0-.535-2.07A2.473,2.473,0,0,0,322.148,268.789Z" transform="translate(-28.945 -14.78)" fill="#dad6f7"/>
      <path id="Trazado_152628" data-name="Trazado 152628" d="M322.247,251.79a17.1,17.1,0,1,0-17.105,17.1A17.123,17.123,0,0,0,322.247,251.79Zm-10.8,5a4.656,4.656,0,0,1-1.29,2.839,4.8,4.8,0,0,1-2.8,1.416v.419a1.42,1.42,0,0,1-.555,1.16,1.569,1.569,0,0,1-.944.324,1.506,1.506,0,0,1-.957-.347,1.419,1.419,0,0,1-.5-1.137V261.1a7.906,7.906,0,0,1-3.283-1.116,5.006,5.006,0,0,1-2.285-3.433,1.189,1.189,0,0,1,.239-1.069,1.213,1.213,0,0,1,1.091-.428,1.322,1.322,0,0,1,1.34,1.17,2.817,2.817,0,0,0,1.1,1.536,4,4,0,0,0,1.8.679l0-4.992a6.543,6.543,0,0,1-3.219-1.377,5.145,5.145,0,0,1-1.768-3.415,4.823,4.823,0,0,1,.306-2.214,5.06,5.06,0,0,1,1.215-1.789,5.538,5.538,0,0,1,1.937-1.188,7.4,7.4,0,0,1,1.529-.388v-.457a1.45,1.45,0,0,1,.445-1.08,1.469,1.469,0,0,1,1.974-.067,1.49,1.49,0,0,1,.539,1.147v.61a5.317,5.317,0,0,1,2.5,1.389,4.951,4.951,0,0,1,1.419,3.542c-.164.907-.626,1.364-1.256,1.444a1.275,1.275,0,0,1-1.439-1.2,4.125,4.125,0,0,0-.192-.927,2.311,2.311,0,0,0-.41-.742,3.49,3.49,0,0,0-.626-.592v5.06a6.072,6.072,0,0,1,1.787.744,4.966,4.966,0,0,1,1.514,1.427,4.7,4.7,0,0,1,.7,1.769A5.809,5.809,0,0,1,311.451,256.793Z" transform="translate(-14.161)" fill="#dad6f7"/>
      <path id="Trazado_152629" data-name="Trazado 152629" d="M344.544,302.232a14.565,14.565,0,0,1,3.168-3.012l.917-9.871a10,10,0,0,0-3.548,6.76Z" transform="translate(-38.652 -23.691)" fill="#dad6f7"/>
      <path id="Trazado_152630" data-name="Trazado 152630" d="M361.215,271.771a6.084,6.084,0,0,0-3.712,5.054L356.3,289.814a14.6,14.6,0,0,1,3.352-.777Z" transform="translate(-43.746 -16.072)" fill="#dad6f7"/>
      <path id="Trazado_152631" data-name="Trazado 152631" d="M360.794,260.347a1.212,1.212,0,0,0-1.223-.024,7.313,7.313,0,0,0-3.88,5.279l-1.7,18.8a3.547,3.547,0,0,1,1.337,4.764l-7.686,14.586a1.655,1.655,0,0,1-2.928-1.544l7.7-14.607-.189-.359H352.2a11.35,11.35,0,0,0-9.1,4.62l-4.015,5.463a17.6,17.6,0,0,0-3.433,10.488v16.134H350.04v-7.112a1.647,1.647,0,0,1,.181-.754l8.379-16.384a25.475,25.475,0,0,0,2.795-11.6V261.408A1.214,1.214,0,0,0,360.794,260.347Z" transform="translate(-34.798 -11.043)" fill="#dad6f7"/>
      <path id="Trazado_152632" data-name="Trazado 152632" d="M288.786,302.232l-.538-6.122a10,10,0,0,0-3.548-6.76l.917,9.871A14.556,14.556,0,0,1,288.786,302.232Z" transform="translate(-12.714 -23.691)" fill="#dad6f7"/>
      <path id="Trazado_152633" data-name="Trazado 152633" d="M276.4,289.814l-1.207-12.989a6.084,6.084,0,0,0-3.712-5.054l1.566,17.266A14.6,14.6,0,0,1,276.4,289.814Z" transform="translate(-6.983 -16.072)" fill="#dad6f7"/>
      <path id="Trazado_152634" data-name="Trazado 152634" d="M273.662,291.858a11.35,11.35,0,0,0-9.1-4.62h-.017l-.189.359,7.7,14.607a1.655,1.655,0,0,1-2.928,1.544l-7.686-14.586a3.547,3.547,0,0,1,1.337-4.764l-1.7-18.8a7.313,7.313,0,0,0-3.88-5.279,1.234,1.234,0,0,0-1.825,1.085v26.684a25.475,25.475,0,0,0,2.795,11.6l8.379,16.384a1.648,1.648,0,0,1,.181.754v7.112h14.388V307.809a17.6,17.6,0,0,0-3.433-10.488Z" transform="translate(0 -11.043)" fill="#dad6f7"/>
    </g>
  </g>
</svg>
