<svg xmlns="http://www.w3.org/2000/svg" width="84.513" height="84.514" viewBox="0 0 84.513 84.514">
  <g id="Grupo_137057" data-name="Grupo 137057" transform="translate(-310 -242)">
    <g id="Grupo_137056" data-name="Grupo 137056" transform="translate(310 242)">
      <g id="Grupo_137055" data-name="Grupo 137055">
        <path id="Trazado_153254" data-name="Trazado 153254" d="M358.659,257.061A2.56,2.56,0,0,0,356.1,254.5H345.854a2.56,2.56,0,0,0-2.561,2.561v35.854h15.366Zm21.769,5.122a2.56,2.56,0,0,0-2.561-2.561H367.623a2.56,2.56,0,0,0-2.561,2.561v30.732h15.366Zm10.244,37.135h-76.83a3.841,3.841,0,1,0,0,7.683h76.83a3.841,3.841,0,1,0,0-7.683Zm-53.781-29.452a2.56,2.56,0,0,0-2.561-2.561H324.086a2.56,2.56,0,0,0-2.561,2.561v23.049h15.366Z" transform="translate(-310 -222.487)" fill="#dad6f7"/>
        <path id="Trazado_153255" data-name="Trazado 153255" d="M378.678,242.023l-11.514,1.644a2.275,2.275,0,0,0-1.286,3.859l2.661,2.661-9.289,9.286L343.992,247.9a3.844,3.844,0,0,0-4.758.092l-24.33,20a3.842,3.842,0,1,0,4.876,5.939l21.986-18.073,15.512,11.763a3.838,3.838,0,0,0,5.035-.346l11.658-11.655,1.777,1.775a2.273,2.273,0,0,0,3.857-1.286l1.644-11.514A2.273,2.273,0,0,0,378.678,242.023Z" transform="translate(-304.537 -242)" fill="#dad6f7"/>
      </g>
    </g>
  </g>
</svg>
