<svg xmlns="http://www.w3.org/2000/svg" width="115" height="115" viewBox="0 0 115 115">
  <g id="Grupo_137183" data-name="Grupo 137183" transform="translate(-317 -8768)">
    <circle id="Elipse_4985" data-name="Elipse 4985" cx="57.5" cy="57.5" r="57.5" transform="translate(317 8768)" fill="#3e2ea6"/>
    <g id="Grupo_136808" data-name="Grupo 136808" transform="translate(-297.188 8151.995)">
      <path id="Trazado_152614" data-name="Trazado 152614" d="M694.325,641.763c.145,0,.275.014.417.016s.273-.016.417-.016Z" transform="translate(-23.054 0)" fill="#dad6f7"/>
      <path id="Trazado_152615" data-name="Trazado 152615" d="M696.263,690.576a5.675,5.675,0,0,0-3.091-4.435l-9.212-4.63s8.013-2,9.85-7.847c0,0-5.676.668-6.344-3.673-.662-4.309,3.6-27.855-15.776-28.2-19.374.342-15.114,23.889-15.776,28.2-.668,4.341-6.344,3.673-6.344,3.673,1.837,5.844,9.85,7.847,9.85,7.847l-9.212,4.63a5.675,5.675,0,0,0-3.091,4.435l-1.659,14.685h52.465Zm-24.573,10.246a1.779,1.779,0,0,1-1.52-.855l-8.015-13.189a1.779,1.779,0,1,1,3.041-1.849l6.494,10.686,6.492-10.685a1.779,1.779,0,1,1,3.041,1.847l-8.013,13.189A1.778,1.778,0,0,1,671.689,700.821Zm18.655-2.838H682.5a1.78,1.78,0,0,1,0-3.56h7.846a1.78,1.78,0,0,1,0,3.56Z" transform="translate(0 -0.015)" fill="#dad6f7"/>
    </g>
  </g>
</svg>
