<svg xmlns="http://www.w3.org/2000/svg" width="106" height="106" viewBox="0 0 106 106">
  <g id="Grupo_137180" data-name="Grupo 137180" transform="translate(-315 -4552)">
    <g id="Elipse_502" data-name="Elipse 502" transform="translate(315 4552)" fill="#3e2ea6" stroke="#707070" stroke-width="1">
      <circle cx="53" cy="53" r="53" stroke="none"/>
      <circle cx="53" cy="53" r="52.5" fill="none"/>
    </g>
    <g id="Grupo_136799" data-name="Grupo 136799" transform="translate(-2712.19 6768.029)">
      <path id="Trazado_101090" data-name="Trazado 101090" d="M3083.874-2135.8a1.327,1.327,0,0,0,.113.237,1.446,1.446,0,0,0,.062.133l11.886,15.935a9.98,9.98,0,0,1,1.713-2.142l-2.609-3.5,3.194,2.984a9.922,9.922,0,0,1,2.365-1.424l-14.578-13.618a1.334,1.334,0,0,0-.123-.078,1.411,1.411,0,0,0-.229-.14,1.337,1.337,0,0,0-.232-.082,1.319,1.319,0,0,0-.25-.039,1.243,1.243,0,0,0-.251.012,1.177,1.177,0,0,0-.24.053,1.287,1.287,0,0,0-.243.116,1.271,1.271,0,0,0-.131.061.867.867,0,0,0-.079.09c-.031.027-.069.038-.1.068a1.1,1.1,0,0,0-.075.124,1.217,1.217,0,0,0-.143.229,1.278,1.278,0,0,0-.08.231,1.258,1.258,0,0,0-.04.253,1.272,1.272,0,0,0,.011.246A1.364,1.364,0,0,0,3083.874-2135.8Z" transform="translate(-23.154 -31.896)" fill="#dad6f7"/>
      <path id="Trazado_101091" data-name="Trazado 101091" d="M3080.19-2190.037a34.542,34.542,0,0,0-34.5,34.5,34.563,34.563,0,0,0,1.381,9.66l.279.956H3071.5a10.012,10.012,0,0,1-.1-1.409,10.061,10.061,0,0,1,.08-1.245h-22.118a31.815,31.815,0,0,1-1.014-7.962,31.885,31.885,0,0,1,31.848-31.85,31.886,31.886,0,0,1,31.849,31.85,31.815,31.815,0,0,1-1.014,7.962h-19.856a10.06,10.06,0,0,1,.081,1.245,10.012,10.012,0,0,1-.1,1.409h21.885l.279-.956a34.526,34.526,0,0,0,1.38-9.66A34.541,34.541,0,0,0,3080.19-2190.037Z" fill="#dad6f7"/>
      <g id="Grupo_87421" data-name="Grupo 87421" transform="translate(3052.221 -2183.302)">
        <path id="Trazado_101092" data-name="Trazado 101092" d="M3180.949-2102.672l10.61-.378-.133-1.323-10.437.371Z" transform="translate(-3134.385 2131.266)" fill="#dad6f7"/>
        <path id="Trazado_101093" data-name="Trazado 101093" d="M3180.945-2109.668l10.174-1.4-.266-1.3-10,1.377Z" transform="translate(-3134.324 2136.125)" fill="#dad6f7"/>
        <path id="Trazado_101094" data-name="Trazado 101094" d="M3180.323-2116.546l9.644-2.35-.4-1.269-9.474,2.309Z" transform="translate(-3133.866 2140.858)" fill="#dad6f7"/>
        <path id="Trazado_101095" data-name="Trazado 101095" d="M3179.136-2123.233l9.024-3.21-.527-1.221-8.861,3.153Z" transform="translate(-3133.063 2145.415)" fill="#dad6f7"/>
        <path id="Trazado_101096" data-name="Trazado 101096" d="M3177.384-2129.653l8.335-3.971-.646-1.158-8.18,3.9Z" transform="translate(-3131.921 2149.738)" fill="#dad6f7"/>
        <path id="Trazado_101097" data-name="Trazado 101097" d="M3175.082-2135.74l7.59-4.622-.764-1.089-7.442,4.532Z" transform="translate(-3130.447 2153.788)" fill="#dad6f7"/>
        <path id="Trazado_101098" data-name="Trazado 101098" d="M3178.176-2147.6l-6.666,5.058.732,1.108,6.8-5.162Z" transform="translate(-3128.652 2157.527)" fill="#dad6f7"/>
        <path id="Trazado_101099" data-name="Trazado 101099" d="M3173.913-2153.189l-5.864,5.472.841,1.029,5.992-5.59Z" transform="translate(-3126.549 2160.919)" fill="#dad6f7"/>
        <path id="Trazado_101100" data-name="Trazado 101100" d="M3169.164-2158.155l-5.053,5.78.942.938,5.166-5.909Z" transform="translate(-3124.157 2163.936)" fill="#dad6f7"/>
        <path id="Trazado_101101" data-name="Trazado 101101" d="M3163.978-2162.458l-4.237,5.981,1.031.837,4.338-6.121Z" transform="translate(-3121.502 2166.55)" fill="#dad6f7"/>
        <path id="Trazado_101102" data-name="Trazado 101102" d="M3158.4-2166.055l-3.434,6.081,1.112.727,3.519-6.231Z" transform="translate(-3118.604 2168.734)" fill="#dad6f7"/>
        <path id="Trazado_101103" data-name="Trazado 101103" d="M3152.5-2168.918l-2.654,6.084,1.181.609,2.723-6.242Z" transform="translate(-3115.49 2170.474)" fill="#dad6f7"/>
        <path id="Trazado_101104" data-name="Trazado 101104" d="M3146.318-2171.02l-1.907,6,1.238.485,1.96-6.161Z" transform="translate(-3112.19 2171.75)" fill="#dad6f7"/>
        <path id="Trazado_101105" data-name="Trazado 101105" d="M3139.931-2172.342l-1.208,5.822,1.282.355,1.243-5.992Z" transform="translate(-3108.736 2172.553)" fill="#dad6f7"/>
        <path id="Trazado_101106" data-name="Trazado 101106" d="M3132.835-2167.309l1.312.22.585-5.744-1.328-.048Z" transform="translate(-3105.159 2172.881)" fill="#dad6f7"/>
        <path id="Trazado_101107" data-name="Trazado 101107" d="M3127.182-2172.816l-.178.009-.1.008-.208.017.094,5.255.208.01.1,0,.057,0c-.021,0,.084,0-.039,0l.029,0c.078.006.161.011.243.018l.664.048.039-5.428-.663.038Z" transform="translate(-3101.429 2172.873)" fill="#dad6f7"/>
        <path id="Trazado_101108" data-name="Trazado 101108" d="M3119.442-2172l.5,4.883,1.33-.047-.514-5.055Z" transform="translate(-3097.023 2172.482)" fill="#dad6f7"/>
        <path id="Trazado_101109" data-name="Trazado 101109" d="M3112.243-2170.482l.925,4.468,1.317-.183-.959-4.637Z" transform="translate(-3092.65 2171.638)" fill="#dad6f7"/>
        <path id="Trazado_101110" data-name="Trazado 101110" d="M3105.3-2168.234l1.276,4.019,1.291-.32-1.328-4.183Z" transform="translate(-3088.435 2170.352)" fill="#dad6f7"/>
        <path id="Trazado_101111" data-name="Trazado 101111" d="M3098.7-2165.288l1.546,3.548,1.248-.449-1.615-3.708Z" transform="translate(-3084.423 2168.638)" fill="#dad6f7"/>
        <path id="Trazado_101112" data-name="Trazado 101112" d="M3092.492-2161.694l1.732,3.07,1.2-.576-1.818-3.22Z" transform="translate(-3080.653 2166.527)" fill="#dad6f7"/>
        <path id="Trazado_101113" data-name="Trazado 101113" d="M3086.746-2157.5l1.837,2.594,1.133-.7-1.937-2.737Z" transform="translate(-3077.162 2164.044)" fill="#dad6f7"/>
        <path id="Trazado_101114" data-name="Trazado 101114" d="M3081.515-2152.746l1.865,2.132,1.056-.807-1.979-2.263Z" transform="translate(-3073.984 2161.22)" fill="#dad6f7"/>
        <path id="Trazado_101115" data-name="Trazado 101115" d="M3076.841-2147.511l1.819,1.7.968-.91-1.945-1.814Z" transform="translate(-3071.145 2158.095)" fill="#dad6f7"/>
        <path id="Trazado_101116" data-name="Trazado 101116" d="M3072.766-2141.846l1.707,1.294.87-1-1.844-1.4Z" transform="translate(-3068.669 2154.702)" fill="#dad6f7"/>
        <path id="Trazado_101117" data-name="Trazado 101117" d="M3069.326-2135.816l1.534.934.763-1.086-1.681-1.023Z" transform="translate(-3066.58 2151.081)" fill="#dad6f7"/>
        <path id="Trazado_101118" data-name="Trazado 101118" d="M3066.554-2129.489l1.307.624.649-1.159-1.465-.7Z" transform="translate(-3064.896 2147.272)" fill="#dad6f7"/>
        <path id="Trazado_101119" data-name="Trazado 101119" d="M3064.463-2122.932l1.039.37.528-1.22-1.2-.429Z" transform="translate(-3063.626 2143.316)" fill="#dad6f7"/>
        <path id="Trazado_101120" data-name="Trazado 101120" d="M3063.08-2116.217l.737.18.4-1.269-.9-.221Z" transform="translate(-3062.786 2139.256)" fill="#dad6f7"/>
        <path id="Trazado_101121" data-name="Trazado 101121" d="M3062.4-2109.418l.407.057.268-1.3-.579-.08Z" transform="translate(-3062.375 2135.136)" fill="#dad6f7"/>
        <path id="Trazado_101122" data-name="Trazado 101122" d="M3062.37-2102.61l.066,0,.133-1.321-.238-.009Z" transform="translate(-3062.331 2131.001)" fill="#dad6f7"/>
      </g>
      <circle id="Elipse_4737" data-name="Elipse 4737" cx="10.194" cy="10.194" r="10.194" transform="translate(3071.097 -2156.41)" fill="#dad6f7"/>
    </g>
  </g>
</svg>
