<svg xmlns="http://www.w3.org/2000/svg" width="579.039" height="368.44" viewBox="0 0 579.039 368.44">
  <g id="Grupo_137054" data-name="Grupo 137054" transform="translate(-423.303 -295.309)">
    <g id="Grupo_136950" data-name="Grupo 136950" transform="translate(986.478 370.255)">
      <g id="Grupo_136946" data-name="Grupo 136946" transform="translate(5.93 0)">
        <path id="Trazado_153123" data-name="Trazado 153123" d="M2587.577,581.584l.451,3.634a1.155,1.155,0,0,0,2.291-.285q-.226-1.817-.451-3.634a1.155,1.155,0,0,0-2.29.284Z" transform="translate(-2587.566 -580.324)" fill="#e3e3e3"/>
      </g>
      <g id="Grupo_136947" data-name="Grupo 136947" transform="translate(7.171 9.995)">
        <path id="Trazado_153124" data-name="Trazado 153124" d="M2592.3,619.593l.451,3.634a1.155,1.155,0,0,0,2.29-.284l-.451-3.634a1.155,1.155,0,0,0-2.29.284Z" transform="translate(-2592.285 -618.333)" fill="#e3e3e3"/>
      </g>
      <g id="Grupo_136948" data-name="Grupo 136948" transform="translate(0 7.171)">
        <path id="Trazado_153125" data-name="Trazado 153125" d="M2566.274,610.346l3.634-.451a1.155,1.155,0,0,0-.284-2.291l-3.634.451a1.155,1.155,0,0,0,.284,2.29Z" transform="translate(-2565.014 -607.594)" fill="#e3e3e3"/>
      </g>
      <g id="Grupo_136949" data-name="Grupo 136949" transform="translate(9.995 5.93)">
        <path id="Trazado_153126" data-name="Trazado 153126" d="M2604.284,605.627l3.634-.451a1.155,1.155,0,0,0-.285-2.29l-3.634.451a1.155,1.155,0,0,0,.284,2.29Z" transform="translate(-2603.024 -602.875)" fill="#e3e3e3"/>
      </g>
    </g>
    <g id="Grupo_136953" data-name="Grupo 136953" transform="translate(615.28 574.977)">
      <g id="Grupo_136951" data-name="Grupo 136951" transform="translate(5.886)">
        <path id="Trazado_153127" data-name="Trazado 153127" d="M1175.761,1360.04V1371.9a1.217,1.217,0,0,0,2.433,0V1360.04a1.217,1.217,0,0,0-2.433,0Z" transform="translate(-1175.761 -1358.864)" fill="#e3e3e3"/>
      </g>
      <g id="Grupo_136952" data-name="Grupo 136952" transform="translate(0 5.886)">
        <path id="Trazado_153128" data-name="Trazado 153128" d="M1154.551,1383.683h11.856a1.217,1.217,0,0,0,0-2.433h-11.856a1.217,1.217,0,0,0,0,2.433Z" transform="translate(-1153.376 -1381.25)" fill="#e3e3e3"/>
      </g>
    </g>
    <g id="Grupo_136957" data-name="Grupo 136957" transform="translate(423.303 295.309)">
      <g id="Grupo_136956" data-name="Grupo 136956" transform="translate(0)">
        <g id="Grupo_136955" data-name="Grupo 136955">
          <g id="Grupo_136954" data-name="Grupo 136954">
            <path id="Trazado_153129" data-name="Trazado 153129" d="M426.223,327.927l-.021,20.917,0,2.491-.042,45.334v.5l-.006,5.024a.033.033,0,0,1-.044.031,4.886,4.886,0,0,0-.8-.133c-.163-.013-.333-.023-.5-.027a1.5,1.5,0,0,0-.982.322,1.3,1.3,0,0,0-.468,1l-.02,19.825v3.266L423.32,444.4l-.01,8.477,0,1.17,0,6.059c0,.021,0,.042,0,.062a1.237,1.237,0,0,0,.374.849l.067.068a1.1,1.1,0,0,0,.357.226,1.285,1.285,0,0,0,.487.117h.067a5.347,5.347,0,0,0,1.4-.165.032.032,0,0,1,.039.03l0,3.151-.034,22.625-.006,3.068-.012,6.614-.007,3.769-.009,7.754L426,523.337,425.97,539.3v.915l-.027,17-.014,9.344-.092,60.48c0,.453,0,.906,0,1.357s0,.915,0,1.373c-.009.711-.009,1.429-.01,2.151l0,.079q-.006,1.231.006,2.452a29.283,29.283,0,0,0,15.189,25.83,26.7,26.7,0,0,0,12.432,3.219l30.176.042,95.829.128c.957,0,1.916.016,2.924.039,1.253.024,2.543.047,3.835.038a34.59,34.59,0,0,0,8.668-.985c12.194-3.262,20.731-14.963,20.766-28.459.006-.7.005-1.414,0-2.122l.007-2.183c0-.724,0-1.452,0-2.174,0-.75-.007-1.495,0-2.243l.119-131.448.021-24.719c0-.026.021-.042.039-.032a4.214,4.214,0,0,0,.938.146c.084,0,.171,0,.254,0a1.323,1.323,0,0,0,.959-.4,1.346,1.346,0,0,0,.4-.955l.036-36.784a1.323,1.323,0,0,0-.374-.937l-.014-.008a.2.2,0,0,0-.038-.035,1.3,1.3,0,0,0-.93-.373,4.214,4.214,0,0,0-1.187.158.036.036,0,0,1-.045-.032l0-5.081a.034.034,0,0,1,.044-.031,3.919,3.919,0,0,0,.942.153c.082,0,.164.008.248.007a1.366,1.366,0,0,0,1.359-1.355l.018-17.906.017-18.879a1.35,1.35,0,0,0-.241-.775,1.212,1.212,0,0,0-.129-.156l-.056-.05c0-.006,0-.011-.012-.013a1.307,1.307,0,0,0-.917-.365,4.522,4.522,0,0,0-1.193.162.032.032,0,0,1-.04-.03l.142-17.007c0-.021.023-.031.044-.031a3.887,3.887,0,0,0,.535.112c.045.006.092.007.138.012a1.465,1.465,0,0,0,1.028-.342,1.324,1.324,0,0,0,.443-1l.018-18.946a1.3,1.3,0,0,0-.379-.939,1.424,1.424,0,0,0-.929-.4,1.363,1.363,0,0,0-.3.012,3.7,3.7,0,0,0-.535.106.031.031,0,0,1-.04-.03l0-20.313a49.46,49.46,0,0,0-.416-6.763,28.381,28.381,0,0,0-4.253-12.009,27.73,27.73,0,0,0-21.865-12.8c-.962-.043-1.906-.035-2.818-.029-.349,0-.693.006-1.042.006l-130.218-.173c-.188,0-.369,0-.557,0a29.853,29.853,0,0,0-8.929,1.209A28.509,28.509,0,0,0,427.9,314.3C426.229,318.987,426.227,323.736,426.223,327.927Zm2.894-9.748A26.334,26.334,0,0,1,447.58,298.5a28.864,28.864,0,0,1,7.277-.824c.255,0,.52,0,.78,0l129.631.168c.337,0,.676,0,1.025,0,.7,0,1.406-.007,2.117,0a25.623,25.623,0,0,1,22.152,13.535c.23.429.446,3.051.637,7.492,1.086,24.7,1.62,105.7,1.884,178.063.239,66.121.256,125.03.254,127.173v0a.2.2,0,0,0,0,.053c.063,14.465-1.473,20.709-4.289,25.272-.108.172-.214.344-.325.513-.188.288-.381.57-.583.849a24.748,24.748,0,0,1-14.393,9.826,32.426,32.426,0,0,1-7.477.791c-1.386.011-2.772-.023-4-.058-1.112-.027-2.11-.052-3.083-.051l-97.722-.128-28.039-.04a24.488,24.488,0,0,1-12-3.277,27.162,27.162,0,0,1-13.364-23.589v-.625c0-.556,0-1.113,0-1.67-.005-.74-.005-1.479,0-2.2q0-4.649.015-9.3v-2.481q.012-4.421.013-8.84l.054-42.58.016-11.175.021-14.415,0-.682.022-13.853.026-19.568.01-8.107,0-3.209.007-4.68v-.676l.031-21.762.021-15.871v-1.7l.012-10.422.014-9.974,0-4.322.025-19.3.012-8.356,0-1.908.059-46.927,0-.4.025-20.739q.007-.646,0-1.3v-.047A38.834,38.834,0,0,1,429.117,318.18Z" transform="translate(-423.303 -295.309)" fill="#505050"/>
            <path id="Trazado_153130" data-name="Trazado 153130" d="M464.718,658.017v.045a21,21,0,0,0,10.273,18.293,18.439,18.439,0,0,0,9.04,2.468l125.683.167c1.067,0,2.167.028,3.23.055,1.252.032,2.545.063,3.8.053a26.43,26.43,0,0,0,6.067-.613,18.72,18.72,0,0,0,10.862-7.436c2.657-3.709,4.121-8.4,4.142-11.246l.392-306.416c-.009-7.309-.427-11.389-2.524-15.264a19.473,19.473,0,0,0-16.82-10.318c-.675-.006-1.354-.005-2.036,0-.352,0-.707,0-1.061,0l-129.614-.171c-.242,0-.485,0-.727,0a22.73,22.73,0,0,0-5.734.616,20.141,20.141,0,0,0-14.064,15.1,34.205,34.205,0,0,0-.521,7.654q.006.677.005,1.353l-.367,280.628q-.006,4.426-.014,8.848-.009,5.888-.015,11.773c0,.723,0,1.442,0,2.167C464.72,656.52,464.718,657.271,464.718,658.017Z" transform="translate(-453.824 -319.134)" fill="#f2f2f2"/>
            <path id="Trazado_153131" data-name="Trazado 153131" d="M442.428,324.8a38.835,38.835,0,0,0-.671,9v.047q.009.65,0,1.3l-.025,20.739,0,.4-.059,46.927,0,1.908-.012,8.356-.025,19.3,0,4.322-.014,9.974L441.6,457.5v1.7l-.021,15.871-.031,21.762v.676l-.007,4.68,0,3.209-.01,8.107-.026,19.568-.022,13.853,0,.682-.021,14.415-.016,11.175-.054,42.58q0,4.416-.013,8.84V627.1q-.013,4.655-.015,9.3c0,.723,0,1.461,0,2.2,0,.557,0,1.114,0,1.67v.625a27.163,27.163,0,0,0,13.364,23.589,24.488,24.488,0,0,0,12,3.277l28.039.04,97.723.128c.973,0,1.971.024,3.083.051,1.23.034,2.616.069,4,.058a32.425,32.425,0,0,0,7.477-.791,24.748,24.748,0,0,0,14.393-9.826c.2-.28.394-.561.583-.849.11-.168.218-.339.325-.513a27.747,27.747,0,0,0,4.384-13.451l.18-139.377.212-167.038a66.931,66.931,0,0,0-.587-10.05A24.552,24.552,0,0,0,623.873,318a25.623,25.623,0,0,0-22.152-13.535c-.71-.009-1.414-.005-2.117,0-.349,0-.687,0-1.025,0L468.948,304.3c-.26,0-.525,0-.78,0a28.864,28.864,0,0,0-7.277.824A26.334,26.334,0,0,0,442.428,324.8Zm5.988,1.344a20.148,20.148,0,0,1,14.062-15.1,22.631,22.631,0,0,1,5.734-.615c.245,0,.485,0,.729,0l129.616.17c.353,0,.707,0,1.061,0,.681,0,1.358,0,2.033,0a19.478,19.478,0,0,1,16.819,10.319,17.955,17.955,0,0,1,1.327,3.152c.961,3.091,1.195,6.726,1.2,12.111l-.214,166.871-.179,139.549a22.218,22.218,0,0,1-4.142,11.244,18.744,18.744,0,0,1-10.866,7.435,26.215,26.215,0,0,1-6.067.614c-1.25.008-2.544-.021-3.794-.055-1.066-.026-2.167-.056-3.233-.056l-103.281-.137-22.4-.028a18.414,18.414,0,0,1-9.038-2.469,20.987,20.987,0,0,1-10.272-18.292l0-.048c0-.744,0-1.492,0-2.247,0-.724-.008-1.443,0-2.164q0-5.892.013-11.774.012-4.421.014-8.845l0-2.059.037-29.787.018-13.469.018-13.51,0-.556.011-9.241.005-3.609.045-36.236.012-6.812,0-.9.009-7.192.047-37.374,0-.119.012-12.7,0-.182,0-1.924.019-12.688.024-18.492.007-5.923.057-45.721.008-5.382.023-16.75c0-.453,0-.9,0-1.353A34.284,34.284,0,0,1,448.416,326.149Z" transform="translate(-436.614 -301.934)" fill="#232323"/>
          </g>
        </g>
      </g>
    </g>
    <g id="Grupo_136961" data-name="Grupo 136961" transform="translate(795.77 295.309)">
      <g id="Grupo_136960" data-name="Grupo 136960" transform="translate(0)">
        <g id="Grupo_136959" data-name="Grupo 136959">
          <g id="Grupo_136958" data-name="Grupo 136958">
            <path id="Trazado_153132" data-name="Trazado 153132" d="M1842.684,327.927l-.021,20.917,0,2.491-.042,45.334v.5l-.006,5.024a.033.033,0,0,1-.044.031,4.893,4.893,0,0,0-.8-.133c-.163-.013-.333-.023-.5-.027a1.5,1.5,0,0,0-.982.322,1.3,1.3,0,0,0-.469,1l-.02,19.825v3.266l-.016,17.917-.01,8.477,0,1.17,0,6.059c0,.021,0,.042,0,.062a1.238,1.238,0,0,0,.374.849l.067.068a1.1,1.1,0,0,0,.357.226,1.284,1.284,0,0,0,.487.117h.068a5.345,5.345,0,0,0,1.4-.165.032.032,0,0,1,.04.03l-.005,3.151-.034,22.625-.006,3.068-.011,6.614-.007,3.769-.009,7.754-.025,15.064-.026,15.958v.915l-.027,17-.014,9.344-.092,60.48c0,.453,0,.906,0,1.357v1.373c-.009.711-.009,1.429-.01,2.151l0,.079q-.006,1.231.006,2.452a29.283,29.283,0,0,0,15.189,25.83,26.7,26.7,0,0,0,12.432,3.219l30.176.042,95.829.128c.957,0,1.916.016,2.925.039,1.253.024,2.543.047,3.835.038a34.593,34.593,0,0,0,8.668-.985c12.193-3.262,20.73-14.963,20.766-28.459.006-.7.005-1.414,0-2.122l.007-2.183c0-.724,0-1.452,0-2.174,0-.75-.006-1.495,0-2.243l.119-131.448.021-24.719c0-.026.02-.042.039-.032a4.209,4.209,0,0,0,.938.146c.083,0,.171,0,.254,0a1.323,1.323,0,0,0,.959-.4,1.344,1.344,0,0,0,.4-.955l.036-36.784a1.321,1.321,0,0,0-.374-.937l-.013-.008a.211.211,0,0,0-.039-.035,1.3,1.3,0,0,0-.93-.373,4.215,4.215,0,0,0-1.187.158.036.036,0,0,1-.044-.032l0-5.081a.033.033,0,0,1,.044-.031,3.918,3.918,0,0,0,.941.153c.082,0,.165.008.248.007a1.366,1.366,0,0,0,1.359-1.355l.018-17.906.017-18.879a1.352,1.352,0,0,0-.241-.775,1.223,1.223,0,0,0-.129-.156l-.056-.05c0-.006,0-.011-.012-.013a1.307,1.307,0,0,0-.917-.365,4.521,4.521,0,0,0-1.194.162.032.032,0,0,1-.04-.03l.142-17.007c0-.021.023-.031.044-.031a3.892,3.892,0,0,0,.535.112c.046.006.092.007.138.012a1.465,1.465,0,0,0,1.028-.342,1.324,1.324,0,0,0,.443-1l.018-18.946a1.3,1.3,0,0,0-.379-.939,1.423,1.423,0,0,0-.929-.4,1.363,1.363,0,0,0-.3.012,3.71,3.71,0,0,0-.535.106.031.031,0,0,1-.039-.03V327.078a49.468,49.468,0,0,0-.416-6.763,28.378,28.378,0,0,0-4.253-12.009,27.73,27.73,0,0,0-21.865-12.8c-.962-.043-1.906-.035-2.818-.029-.35,0-.693.006-1.042.006l-130.218-.173c-.187,0-.369,0-.557,0a29.853,29.853,0,0,0-8.929,1.209,28.509,28.509,0,0,0-18.049,17.779C1842.69,318.987,1842.688,323.736,1842.684,327.927Zm2.894-9.748a26.334,26.334,0,0,1,18.463-19.683,28.864,28.864,0,0,1,7.277-.824c.255,0,.52,0,.78,0l129.631.168c.337,0,.676,0,1.025,0,.7,0,1.406-.007,2.117,0a25.622,25.622,0,0,1,22.152,13.535c.23.429.446,3.051.637,7.492,1.086,24.7,1.62,105.7,1.884,178.063.239,66.121.256,125.03.254,127.173v0a.226.226,0,0,0,0,.053c.063,14.465-1.472,20.709-4.289,25.272-.108.172-.214.344-.325.513-.189.288-.381.57-.583.849a24.747,24.747,0,0,1-14.393,9.826,32.426,32.426,0,0,1-7.477.791c-1.386.011-2.772-.023-4-.058-1.112-.027-2.11-.052-3.083-.051l-97.723-.128-28.039-.04a24.489,24.489,0,0,1-12-3.277,27.163,27.163,0,0,1-13.364-23.589v-.625c0-.556,0-1.113,0-1.67-.005-.74-.005-1.479,0-2.2q0-4.649.015-9.3v-2.481q.012-4.421.013-8.84l.054-42.58.016-11.175.021-14.415,0-.682.022-13.853.026-19.568.01-8.107,0-3.209.007-4.68v-.676l.031-21.762.021-15.871v-1.7l.012-10.422.014-9.974,0-4.322.025-19.3.012-8.356,0-1.908.059-46.927,0-.4.025-20.739q.006-.646,0-1.3v-.047A38.851,38.851,0,0,1,1845.578,318.18Z" transform="translate(-1839.764 -295.309)" fill="#505050"/>
            <path id="Trazado_153133" data-name="Trazado 153133" d="M1881.179,658.017v.045a21,21,0,0,0,10.273,18.293,18.441,18.441,0,0,0,9.04,2.468l125.683.167c1.068,0,2.167.028,3.23.055,1.252.032,2.545.063,3.8.053a26.428,26.428,0,0,0,6.067-.613,18.719,18.719,0,0,0,10.862-7.436c2.658-3.709,4.121-8.4,4.142-11.246l.392-306.416c-.009-7.309-.428-11.389-2.524-15.264a19.473,19.473,0,0,0-16.82-10.318c-.676-.006-1.355-.005-2.036,0-.353,0-.707,0-1.062,0l-129.614-.171c-.241,0-.485,0-.727,0a22.731,22.731,0,0,0-5.734.616,20.142,20.142,0,0,0-14.064,15.1,34.208,34.208,0,0,0-.521,7.654q.005.677,0,1.353l-.366,280.628q-.006,4.426-.015,8.848-.009,5.888-.015,11.773c0,.723,0,1.442,0,2.167C1881.181,656.52,1881.179,657.271,1881.179,658.017Z" transform="translate(-1870.285 -319.134)" fill="#f2f2f2"/>
            <path id="Trazado_153134" data-name="Trazado 153134" d="M1858.889,324.8a38.851,38.851,0,0,0-.671,9v.047q.009.65,0,1.3l-.025,20.739,0,.4-.059,46.927,0,1.908-.012,8.356-.025,19.3,0,4.322-.014,9.974-.012,10.422v1.7l-.021,15.871-.031,21.762v.676l-.007,4.68,0,3.209-.01,8.107-.026,19.568-.022,13.853,0,.682-.021,14.415-.016,11.175-.054,42.58q0,4.416-.013,8.84V627.1q-.014,4.655-.015,9.3c0,.723,0,1.461,0,2.2,0,.557,0,1.114,0,1.67v.625a27.163,27.163,0,0,0,13.364,23.589,24.489,24.489,0,0,0,12,3.277l28.039.04,97.723.128c.973,0,1.971.024,3.083.051,1.23.034,2.616.069,4,.058a32.426,32.426,0,0,0,7.477-.791,24.747,24.747,0,0,0,14.393-9.826c.2-.28.394-.561.583-.849q.165-.252.325-.513a27.753,27.753,0,0,0,4.384-13.451l.18-139.377.213-167.038a66.946,66.946,0,0,0-.587-10.05,24.55,24.55,0,0,0-2.677-8.141,25.622,25.622,0,0,0-22.152-13.535c-.71-.009-1.414-.005-2.117,0-.348,0-.687,0-1.025,0l-129.631-.168c-.26,0-.525,0-.78,0a28.864,28.864,0,0,0-7.277.824A26.334,26.334,0,0,0,1858.889,324.8Zm5.988,1.344a20.149,20.149,0,0,1,14.063-15.1,22.632,22.632,0,0,1,5.734-.615c.245,0,.485,0,.729,0l129.615.17c.354,0,.707,0,1.062,0,.681,0,1.358,0,2.033,0a19.479,19.479,0,0,1,16.82,10.319,17.95,17.95,0,0,1,1.327,3.152c.961,3.091,1.195,6.726,1.2,12.111l-.214,166.871-.179,139.549a22.219,22.219,0,0,1-4.141,11.244,18.744,18.744,0,0,1-10.867,7.435,26.213,26.213,0,0,1-6.066.614c-1.25.008-2.544-.021-3.795-.055-1.065-.026-2.166-.056-3.232-.056l-103.281-.137-22.4-.028a18.414,18.414,0,0,1-9.038-2.469,20.987,20.987,0,0,1-10.272-18.292l0-.048c0-.744,0-1.492,0-2.247,0-.724-.008-1.443,0-2.164q0-5.892.013-11.774.012-4.421.015-8.845l0-2.059.037-29.787.018-13.469.018-13.51,0-.556.01-9.241.005-3.609.045-36.236.012-6.812,0-.9.009-7.192.047-37.374,0-.119.012-12.7,0-.182,0-1.924.019-12.688.024-18.492.007-5.923.057-45.721.008-5.382.023-16.75c0-.453,0-.9,0-1.353A34.281,34.281,0,0,1,1864.877,326.149Z" transform="translate(-1853.075 -301.934)" fill="#232323"/>
          </g>
        </g>
      </g>
    </g>
    <g id="Grupo_136997" data-name="Grupo 136997" transform="translate(438.133 360.801)">
      <path id="Trazado_153135" data-name="Trazado 153135" d="M739.978,687.985c-9.99,35.274-18.5,71.251-26.006,108.662q-26.09-9.177-54.341-19.987c13.034-33.226,27.392-65.486,43.52-97.537Q722.765,684.183,739.978,687.985Z" transform="translate(-612.318 -643.69)" fill="#b2b2b2" style="mix-blend-mode: multiply;isolation: isolate"/>
      <g id="Grupo_136972" data-name="Grupo 136972" transform="translate(49.965 33.908)">
        <g id="Grupo_136962" data-name="Grupo 136962">
          <path id="Trazado_153136" data-name="Trazado 153136" d="M713.234,673.319c-16.128,32.051-30.486,64.311-43.52,97.537q28.242,10.822,54.341,19.987c7.51-37.411,16.015-73.389,26.006-108.662Q732.854,678.365,713.234,673.319Z" transform="translate(-669.714 -673.319)" fill="#b1eb37"/>
        </g>
        <g id="Grupo_136963" data-name="Grupo 136963" transform="translate(4.46 3.294)">
          <path id="Trazado_153137" data-name="Trazado 153137" d="M759.618,693.874c-9.711,33.174-18.094,66.967-25.56,102q-22.853-8.007-47.382-17.269c12.069-31.574,25.312-62.28,40.107-92.755Q744.126,690.349,759.618,693.874Zm-26.68,100.1c7.431-33.959,15.745-66.766,25.318-98.99q-14.672-3.39-30.979-7.629c-14.208,29.751-26.956,59.741-38.595,90.557Q711.543,786.5,732.938,793.97Z" transform="translate(-686.676 -685.845)" fill="#86b54e"/>
        </g>
        <g id="Grupo_136964" data-name="Grupo 136964" transform="translate(25.278 37.455)">
          <path id="Trazado_153138" data-name="Trazado 153138" d="M790.749,816.346c-8.711-2.44-19.533,2.886-23.564,12.214s1.41,19.9,11.6,23.287c10.207,3.39,20.111-2.507,22.677-12.767C804.009,828.814,799.473,818.8,790.749,816.346Z" transform="translate(-765.843 -815.756)" fill="#86b54e"/>
        </g>
        <g id="Grupo_136965" data-name="Grupo 136965" transform="translate(50.054 17.504)">
          <path id="Trazado_153139" data-name="Trazado 153139" d="M867.628,740.019c-2.636-.676-5.839,1.28-7.088,4.4s.058,6.3,2.858,7.07,5.9-1.24,6.988-4.453S870.265,740.7,867.628,740.019Z" transform="translate(-860.064 -739.885)" fill="#86b54e"/>
        </g>
        <g id="Grupo_136966" data-name="Grupo 136966" transform="translate(26.901 82.305)">
          <path id="Trazado_153140" data-name="Trazado 153140" d="M776.813,998.51c-3.544-1.254-5.589-4.908-4.508-8.118a6.342,6.342,0,0,1,8.142-3.708,6.723,6.723,0,0,1,4.419,8.051C783.939,998.053,780.359,999.764,776.813,998.51Z" transform="translate(-772.016 -986.32)" fill="#86b54e"/>
        </g>
        <g id="Grupo_136967" data-name="Grupo 136967" transform="translate(39.881 4.046)">
          <path id="Trazado_153141" data-name="Trazado 153141" d="M835.35,691.021q-4.456-1.123-9.041-2.316-2.5,5.183-4.932,10.377C826.738,700.568,832.887,696.908,835.35,691.021Z" transform="translate(-821.377 -688.705)" fill="#86b54e"/>
        </g>
        <g id="Grupo_136968" data-name="Grupo 136968" transform="translate(67.585 9.923)">
          <path id="Trazado_153142" data-name="Trazado 153142" d="M927.521,711.054q4.241,1.01,8.351,1.953-1.659,5.628-3.269,11.281C927.766,723.091,925.384,717.114,927.521,711.054Z" transform="translate(-926.733 -711.054)" fill="#86b54e"/>
        </g>
        <g id="Grupo_136969" data-name="Grupo 136969" transform="translate(5.465 84.997)">
          <path id="Trazado_153143" data-name="Trazado 153143" d="M703.294,1012.04q-6.34-2.344-12.8-4.777,2.04-5.369,4.126-10.706C701.489,999.041,705.277,1005.9,703.294,1012.04Z" transform="translate(-690.498 -996.557)" fill="#86b54e"/>
        </g>
        <g id="Grupo_136970" data-name="Grupo 136970" transform="translate(39.107 99.891)">
          <path id="Trazado_153144" data-name="Trazado 153144" d="M818.433,1061.366q6.146,2.2,12.174,4.307,1.283-5.937,2.6-11.828C826.829,1051.711,820.121,1055,818.433,1061.366Z" transform="translate(-818.433 -1053.197)" fill="#86b54e"/>
        </g>
        <g id="Grupo_136971" data-name="Grupo 136971" transform="translate(31.489 46.54)">
          <path id="Trazado_153145" data-name="Trazado 153145" d="M796.1,866.016c-3.889-1.569-5.171-4.96-3.357-9.687,1.713-4.481,4.678-6.96,8.942-5.688,2.938.879,4.124,3.215,4.138,8.261.053,3.326.45,4.085,1.66,4.453a1.927,1.927,0,0,0,2.452-1.518,2.342,2.342,0,0,0-1.458-3.213q.78-2.482,1.568-4.958c3.325,1.088,4.477,4.355,3.1,9.2-1.25,4.392-4.129,6.7-7.93,5.514-3.086-.962-4.284-3.229-4.269-8.485,0-2.974-.488-3.93-1.853-4.348-1.11-.339-2.237-.126-2.921,1.743a2.775,2.775,0,0,0,1.638,3.8Q796.953,863.551,796.1,866.016Zm16.712-5.784q1.426.423,2.843.84-.581,2.065-1.156,4.135-1.439-.431-2.887-.868Q812.213,862.284,812.815,860.232Zm-21.824-6.648q1.549.484,3.089.961-.745,1.963-1.483,3.929-1.562-.492-3.134-.991Q790.224,855.532,790.991,853.584Z" transform="translate(-789.464 -850.308)" fill="#b1eb37"/>
        </g>
      </g>
      <g id="Grupo_136984" data-name="Grupo 136984" transform="translate(37.864 0)">
        <path id="Trazado_153146" data-name="Trazado 153146" d="M675.723,550.42c11.8,42.734,16.237,77.746,16.219,107.726-18.888,1.153-37,3.248-50.425,9.851-3.812-33.371-6.455-66.549-11.464-102.7C646.9,561.675,663.44,557.907,675.723,550.42Z" transform="translate(-628.38 -548.829)" fill="#b2b2b2" style="mix-blend-mode: multiply;isolation: isolate"/>
        <g id="Grupo_136983" data-name="Grupo 136983">
          <g id="Grupo_136973" data-name="Grupo 136973">
            <path id="Trazado_153147" data-name="Trazado 153147" d="M623.7,559.25c5.01,36.148,7.652,69.326,11.464,102.7,13.426-6.6,31.537-8.7,50.425-9.851.019-29.98-4.417-64.992-16.218-107.726C657.083,551.857,640.544,555.625,623.7,559.25Z" transform="translate(-623.695 -544.37)" fill="#b1eb37"/>
          </g>
          <g id="Grupo_136974" data-name="Grupo 136974" transform="translate(3.466 4.809)">
            <path id="Trazado_153148" data-name="Trazado 153148" d="M677.727,562.658C687.846,602,691.758,634.8,691.894,663.3c-16.494,1.15-32.318,3.09-44.812,8.244-3.05-31.063-5.487-62.349-10.206-96.453C651.7,571.935,666.216,568.6,677.727,562.658Zm12.621,99.608c-.2-27.817-3.9-59.629-13.313-97.494-11.077,5.318-24.675,8.446-38.584,11.39,4.59,33.177,6.943,63.613,9.694,93.669C660.135,665.258,674.933,663.4,690.349,662.266Z" transform="translate(-636.876 -562.658)" fill="#86b54e"/>
          </g>
          <g id="Grupo_136975" data-name="Grupo 136975" transform="translate(12.442 44.597)">
            <path id="Trazado_153149" data-name="Trazado 153149" d="M688.721,714.3c-10.7,1.858-18.587,11.349-17.632,21,.963,9.662,9.846,15.344,20.878,13.846,11.1-1.438,19.75-9.909,18.365-20.011C708.969,719.057,699.331,712.359,688.721,714.3Z" transform="translate(-671.01 -713.968)" fill="#86b54e"/>
          </g>
          <g id="Grupo_136976" data-name="Grupo 136976" transform="translate(21.809 23.105)">
            <path id="Trazado_153150" data-name="Trazado 153150" d="M711.887,632.4a6.954,6.954,0,0,0-5.2,7.5,5.815,5.815,0,0,0,7.058,4.837,6.542,6.542,0,0,0,5.153-7.5A5.723,5.723,0,0,0,711.887,632.4Z" transform="translate(-706.634 -632.235)" fill="#86b54e"/>
          </g>
          <g id="Grupo_136977" data-name="Grupo 136977" transform="translate(27.716 88.135)">
            <path id="Trazado_153151" data-name="Trazado 153151" d="M735.705,890.265c-3.556.538-6.442-1.3-6.6-4.274s2.548-5.882,6.155-6.377,6.7,1.57,6.806,4.5S739.26,889.726,735.705,890.265Z" transform="translate(-729.098 -879.539)" fill="#86b54e"/>
          </g>
          <g id="Grupo_136978" data-name="Grupo 136978" transform="translate(4.254 15.198)">
            <path id="Trazado_153152" data-name="Trazado 153152" d="M651.5,602.168c-3.819.9-7.711,1.748-11.628,2.577q.8,5.792,1.515,11.475A12.475,12.475,0,0,0,651.5,602.168Z" transform="translate(-639.872 -602.168)" fill="#86b54e"/>
          </g>
          <g id="Grupo_136979" data-name="Grupo 136979" transform="translate(34.174 5.871)">
            <path id="Trazado_153153" data-name="Trazado 153153" d="M753.657,570.808a88.306,88.306,0,0,0,9.8-4.11q1.688,6.653,3.136,13.051C761.008,581.826,755.057,577.715,753.657,570.808Z" transform="translate(-753.657 -566.698)" fill="#86b54e"/>
          </g>
          <g id="Grupo_136980" data-name="Grupo 136980" transform="translate(13.214 101.789)">
            <path id="Trazado_153154" data-name="Trazado 153154" d="M685.579,939.153a83.888,83.888,0,0,0-10.647,3.356q-.5-5.261-.985-10.535C679.824,930.094,685.357,933.644,685.579,939.153Z" transform="translate(-673.947 -931.466)" fill="#86b54e"/>
          </g>
          <g id="Grupo_136981" data-name="Grupo 136981" transform="translate(44.86 95.079)">
            <path id="Trazado_153155" data-name="Trazado 153155" d="M794.294,916.949c4.2-.468,8.5-.835,12.85-1.149q-.025-4.84-.2-9.853C799.8,906.527,794.25,911.6,794.294,916.949Z" transform="translate(-794.294 -905.947)" fill="#86b54e"/>
          </g>
          <g id="Grupo_136982" data-name="Grupo 136982" transform="translate(18.35 54.236)">
            <path id="Trazado_153156" data-name="Trazado 153156" d="M704,767.027c-4.465.37-7.106-1.8-7.531-6.536-.4-4.48,1.32-7.91,6.338-8.7,3.446-.548,5.822.94,8.029,5.2,1.49,2.781,2.2,3.244,3.611,3.047a2.061,2.061,0,0,0,1.929-2.318c-.2-1.948-1.645-2.141-2.892-2.1q-.256-2.442-.54-4.914c4-.547,6.693,1.781,7.231,6.518.481,4.284-1.673,7.381-6.037,7.957-3.555.469-5.624-.883-7.888-5.273-1.3-2.487-2.245-3.085-3.817-2.843a2.248,2.248,0,0,0-2.144,2.725c.15,1.676,1.3,2.512,3.316,2.448Q703.809,764.642,704,767.027Zm14.729-11.915q1.683-.259,3.354-.526.245,2.032.469,4.04-1.688.251-3.386.5Q718.954,757.128,718.726,755.112ZM693.478,759q1.729-.3,3.471-.58.18,1.966.349,3.918-1.74.284-3.466.583Q693.659,760.962,693.478,759Z" transform="translate(-693.478 -750.624)" fill="#b1eb37"/>
          </g>
        </g>
      </g>
      <g id="Grupo_136996" data-name="Grupo 136996" transform="translate(0 28.14)">
        <path id="Trazado_153157" data-name="Trazado 153157" d="M586.542,739.58c-10.637,8.578-21.987,17.775-33.87,27.324C524.426,743.9,506.9,703.823,479.7,685.119q21.5-17.6,41.3-33.733C543.783,676.121,558.749,718.39,586.542,739.58Z" transform="translate(-479.702 -651.386)" fill="#b2b2b2" style="mix-blend-mode: multiply;isolation: isolate"/>
        <g id="Grupo_136995" data-name="Grupo 136995" transform="translate(0.385 2.526)">
          <g id="Grupo_136985" data-name="Grupo 136985">
            <path id="Trazado_153158" data-name="Trazado 153158" d="M481.168,694.724c27.2,18.7,44.724,58.779,72.969,81.784,11.883-9.549,23.233-18.745,33.87-27.324-27.793-21.19-42.758-63.458-65.537-88.193Q502.679,677.11,481.168,694.724Z" transform="translate(-481.168 -660.991)" fill="#b1eb37"/>
          </g>
          <g id="Grupo_136986" data-name="Grupo 136986" transform="translate(4.807 4.026)">
            <path id="Trazado_153159" data-name="Trazado 153159" d="M535.452,676.3c21.367,23.922,36.177,62.732,61.809,83.906-9.444,7.569-19.427,15.6-29.83,23.915-26.106-22.5-43.036-59.492-67.981-78.59Q518.1,690.362,535.452,676.3Zm59.9,83.756c-24.687-21.1-39.39-58.4-60.127-81.916Q519,691.259,501.6,705.371c23.964,19.194,40.6,54.841,65.759,77.067C577.1,774.676,586.459,767.167,595.353,760.058Z" transform="translate(-499.45 -676.302)" fill="#86b54e"/>
          </g>
          <g id="Grupo_136987" data-name="Grupo 136987" transform="translate(36.742 39.532)">
            <path id="Trazado_153160" data-name="Trazado 153160" d="M627.7,814.6c-7.813,6.057-9.132,17.839-2.724,26.6,6.377,8.8,17.838,11.167,25.046,5.605,7.2-5.522,7.735-16.951,1.973-26.26C646.235,811.2,635.548,808.49,627.7,814.6Z" transform="translate(-620.896 -811.328)" fill="#86b54e"/>
          </g>
          <g id="Grupo_136988" data-name="Grupo 136988" transform="translate(27.898 24.264)">
            <path id="Trazado_153161" data-name="Trazado 153161" d="M589.6,754.691a5.749,5.749,0,0,0-.957,8.341,6.289,6.289,0,0,0,8.571.984,6.131,6.131,0,0,0,1-8.534A6.067,6.067,0,0,0,589.6,754.691Z" transform="translate(-587.264 -753.266)" fill="#86b54e"/>
          </g>
          <g id="Grupo_136989" data-name="Grupo 136989" transform="translate(70.084 81.836)">
            <path id="Trazado_153162" data-name="Trazado 153162" d="M757.8,982.587c-2.309,1.819-6.154,1.328-8.45-1.278s-2.164-6.3.177-8.111,5.976-1.042,8.243,1.55S760.108,980.765,757.8,982.587Z" transform="translate(-747.692 -972.207)" fill="#86b54e"/>
          </g>
          <g id="Grupo_136990" data-name="Grupo 136990" transform="translate(5.886 25.272)">
            <path id="Trazado_153163" data-name="Trazado 153163" d="M513.282,757.1q-4.82,3.911-9.729,7.9a94.882,94.882,0,0,1,8.138,7.229C516.907,768.1,517.717,761.032,513.282,757.1Z" transform="translate(-503.553 -757.098)" fill="#86b54e"/>
          </g>
          <g id="Grupo_136991" data-name="Grupo 136991" transform="translate(31.455 4.946)">
            <path id="Trazado_153164" data-name="Trazado 153164" d="M600.788,687.281q4.668-3.781,9.242-7.482c2.413,2.728,4.745,5.641,7.02,8.694A12.431,12.431,0,0,1,600.788,687.281Z" transform="translate(-600.788 -679.799)" fill="#86b54e"/>
          </g>
          <g id="Grupo_136992" data-name="Grupo 136992" transform="translate(64.254 100.643)">
            <path id="Trazado_153165" data-name="Trazado 153165" d="M742.161,1047.582q-4.024,3.221-8.141,6.508c-2.94-2.567-5.764-5.316-8.5-8.2C730.117,1042.3,737.316,1043.4,742.161,1047.582Z" transform="translate(-725.522 -1043.728)" fill="#86b54e"/>
          </g>
          <g id="Grupo_136993" data-name="Grupo 136993" transform="translate(90.343 79.966)">
            <path id="Trazado_153166" data-name="Trazado 153166" d="M828.449,979.081q3.857-3.091,7.607-6.093a94.711,94.711,0,0,1-8.276-7.894C823.6,968.344,823.629,975,828.449,979.081Z" transform="translate(-824.736 -965.094)" fill="#86b54e"/>
          </g>
          <g id="Grupo_136994" data-name="Grupo 136994" transform="translate(43.725 47.647)">
            <path id="Trazado_153167" data-name="Trazado 153167" d="M660.478,862.363c-3.192,2.03-6.663.89-9.752-3.5-2.931-4.152-3.439-8.053.1-10.772,2.428-1.862,5.066-1.38,9.069,1.916,2.66,2.139,3.454,2.333,4.4,1.609a2.122,2.122,0,0,0,.182-2.98c-1.193-1.82-2.381-1.467-3.31-.958q-1.5-2.27-2.994-4.532c2.852-2.043,6.044-.809,8.891,3.6,2.578,4,2.781,7.822-.085,10.011-2.337,1.788-4.71,1.231-8.949-2.184-2.405-1.924-3.471-2.13-4.563-1.3-.89.682-1.322,1.722-.122,3.448,1.085,1.561,2.481,1.938,4,1.114Q658.9,860.109,660.478,862.363Zm4.4-17.128,2.274-1.739q1.2,1.88,2.414,3.757l-2.255,1.723Q666.092,847.108,664.88,845.235Zm-17.431,13.338,2.463-1.884q1.274,1.815,2.554,3.636l-2.443,1.868Q648.733,860.381,647.449,858.573Z" transform="translate(-647.449 -842.19)" fill="#b1eb37"/>
          </g>
        </g>
      </g>
    </g>
    <g id="Grupo_137009" data-name="Grupo 137009" transform="translate(823.906 426.25)">
      <g id="Grupo_137007" data-name="Grupo 137007" transform="translate(0 0)">
        <g id="Grupo_137005" data-name="Grupo 137005">
          <path id="Trazado_153168" data-name="Trazado 153168" d="M2085.751,868.495a10.654,10.654,0,0,1-10.646,10.662l-48.59.036h-1.026l-68.015.052a10.654,10.654,0,0,1-10.662-10.647l-.028-37.446v-1.119l-.02-26.016a10.655,10.655,0,0,1,10.647-10.663l117.63-.087a10.655,10.655,0,0,1,10.663,10.646Z" transform="translate(-1946.763 -793.267)" fill="#ef6c00"/>
          <rect id="Rect치ngulo_35790" data-name="Rect치ngulo 35790" width="138.941" height="15.68" transform="translate(0.008 13.951)" fill="#282827"/>
          <path id="Trazado_153169" data-name="Trazado 153169" d="M2129.171,804.451l.048,64.58a10.655,10.655,0,0,1-10.648,10.664l-112.833.084c47.883-18.816,87.861-48.8,114.795-85.783A10.655,10.655,0,0,1,2129.171,804.451Z" transform="translate(-1990.23 -793.804)" fill="#fff" opacity="0.12"/>
          <rect id="Rect치ngulo_35791" data-name="Rect치ngulo 35791" width="111.877" height="14.103" transform="translate(6.965 35.902)" fill="#fff"/>
          <g id="Grupo_137004" data-name="Grupo 137004" transform="translate(12.676 64.482)">
            <g id="Grupo_136999" data-name="Grupo 136999" transform="translate(0.007)" style="mix-blend-mode: multiply;isolation: isolate">
              <g id="Grupo_136998" data-name="Grupo 136998">
                <path id="Trazado_153170" data-name="Trazado 153170" d="M1996.936,1042.37h1.847l4.982,0,7.386.005,9.011.007,9.835.007,10,.007,9.256.007,7.85.006,5.644,0c.889,0,1.779.011,2.668,0h.117a1.94,1.94,0,1,0,0-3.88h-1.847l-4.982,0-7.386-.005-9.011-.007-9.835-.007-10-.007-9.256-.007-7.85-.006-5.644,0c-.889,0-1.779-.011-2.668,0h-.116a1.94,1.94,0,0,0,0,3.88Z" transform="translate(-1994.996 -1038.486)" fill="#e6e6e6"/>
              </g>
            </g>
            <g id="Grupo_137001" data-name="Grupo 137001" transform="translate(39.755 9.483)">
              <g id="Grupo_137000" data-name="Grupo 137000">
                <path id="Trazado_153171" data-name="Trazado 153171" d="M2148.094,1078.435l1.9,0,4.566,0,5.526,0,4.78,0c.775,0,1.552.016,2.328,0h.034a1.94,1.94,0,1,0,0-3.88h-1.9l-4.567,0-5.526,0-4.78,0c-.776,0-1.553-.016-2.328,0h-.033a1.94,1.94,0,0,0,0,3.88Z" transform="translate(-2146.154 -1074.55)" fill="#e6e6e6" style="mix-blend-mode: multiply;isolation: isolate"/>
              </g>
            </g>
            <g id="Grupo_137003" data-name="Grupo 137003" transform="translate(0 9.452)">
              <g id="Grupo_137002" data-name="Grupo 137002">
                <path id="Trazado_153172" data-name="Trazado 153172" d="M1996.909,1078.318l2.793,0,6.706.005,8.08.006,6.983.005c1.133,0,2.267.021,3.4,0h.049a1.94,1.94,0,1,0,0-3.88l-2.793,0-6.706-.005-8.079-.006-6.983-.005c-1.133,0-2.267-.021-3.4,0h-.049a1.94,1.94,0,0,0,0,3.88Z" transform="translate(-1994.969 -1074.43)" fill="#e6e6e6" style="mix-blend-mode: multiply;isolation: isolate"/>
              </g>
            </g>
          </g>
        </g>
        <g id="Grupo_137006" data-name="Grupo 137006" transform="translate(90.17 40.15)">
          <path id="Trazado_153173" data-name="Trazado 153173" d="M2293.563,948.73l.94-.94.494-.494a.788.788,0,0,0-1.115-1.114l-1.434,1.434-.94-.94-.494-.494a.788.788,0,0,0-1.114,1.114l1.434,1.434-.939.94-.494.494a.788.788,0,0,0,1.114,1.115l1.434-1.434.939.94.494.494a.788.788,0,0,0,1.115-1.115Z" transform="translate(-2289.673 -945.954)" fill="#282827"/>
          <path id="Trazado_153174" data-name="Trazado 153174" d="M2319.93,948.73l.94-.94.494-.494a.788.788,0,0,0-1.114-1.114l-1.434,1.434-.939-.94-.494-.494a.788.788,0,0,0-1.115,1.114l1.434,1.434-.94.94-.494.494a.788.788,0,0,0,1.115,1.115l1.434-1.434.94.94.495.494a.788.788,0,0,0,1.114-1.115Z" transform="translate(-2309.106 -945.954)" fill="#282827"/>
          <path id="Trazado_153175" data-name="Trazado 153175" d="M2346.3,948.73l.939-.94.495-.494a.788.788,0,0,0-1.115-1.114l-1.434,1.434-.939-.94-.494-.494a.788.788,0,0,0-1.115,1.114l1.434,1.434-.94.94-.494.494a.788.788,0,0,0,1.115,1.115l1.434-1.434.94.94.494.494a.788.788,0,1,0,1.115-1.115Z" transform="translate(-2328.539 -945.954)" fill="#282827"/>
        </g>
      </g>
      <g id="Grupo_137008" data-name="Grupo 137008" transform="translate(104.861 60.566)">
        <circle id="Elipse_5236" data-name="Elipse 5236" cx="8.399" cy="8.399" r="8.399" transform="translate(0 17.166) rotate(-84.345)" fill="#f0154b"/>
        <circle id="Elipse_5237" data-name="Elipse 5237" cx="8.399" cy="8.399" r="8.399" transform="matrix(0.16, -0.987, 0.987, 0.16, 9.543, 16.58)" fill="#e3e3e3" style="mix-blend-mode: multiply;isolation: isolate"/>
      </g>
    </g>
    <g id="Grupo_137013" data-name="Grupo 137013" transform="translate(504.542 414.616)">
      <path id="Trazado_153176" data-name="Trazado 153176" d="M800.352,783.058a23.352,23.352,0,0,1,2.724,8.744,24.3,24.3,0,0,1,.069,4.431,25.94,25.94,0,0,1-.673,4.35,23.841,23.841,0,0,1-1.4,4.1c-.291.657-.623,1.284-.965,1.918s-.71,1.253-1.109,1.85a20.9,20.9,0,0,1-2.741,3.317c-.522.5-1.046,1-1.6,1.477a20.359,20.359,0,0,1-3.663,2.474q-.486.256-.981.484c-.325.159-.648.313-.977.456a20.655,20.655,0,0,1-4.074,1.29c-.7.146-1.41.252-2.118.336s-1.4.153-2.115.18a24,24,0,0,1-4.3-.232q-1.078-.155-2.153-.4c-.716-.168-1.409-.345-2.108-.566a24.977,24.977,0,0,1-4.089-1.694,23.709,23.709,0,0,1-7.167-5.714,20.873,20.873,0,0,1-4.983-12.623,20.086,20.086,0,0,1,.018-2.309,22.235,22.235,0,0,1,.283-2.293,23.982,23.982,0,0,1,1.29-4.562q.441-1.128,1-2.232a24.273,24.273,0,0,1,1.26-2.118,27.889,27.889,0,0,1,3.19-3.965c.3-.311.611-.621.931-.919s.658-.575,1-.854q1.025-.836,2.148-1.6t2.283-1.4a20.087,20.087,0,0,1,2.356-1.133,27.646,27.646,0,0,1,4.843-1.468q1.214-.249,2.423-.378a21.8,21.8,0,0,1,2.418-.1,24.007,24.007,0,0,1,4.686.507,21.143,21.143,0,0,1,14.3,10.652Z" transform="translate(-749.68 -765.883)" fill="#f3ad29"/>
      <g id="Grupo_137010" data-name="Grupo 137010" transform="translate(5.001 5.727)" style="mix-blend-mode: color-burn;isolation: isolate">
        <path id="Trazado_153177" data-name="Trazado 153177" d="M791.083,775.376a21.975,21.975,0,0,0-3.946-2.42,21.712,21.712,0,0,0-4.446-1.531,24.656,24.656,0,0,0-4.818-.611,22.558,22.558,0,0,0-2.493.057q-1.243.114-2.494.352a28.433,28.433,0,0,0-4.953,1.407,20.757,20.757,0,0,0-2.381,1.088q-1.165.61-2.281,1.325t-2.164,1.525q-.525.4-1.031.831c-.334.291-.657.6-.975.906a28.8,28.8,0,0,0-3.438,4.016,22.059,22.059,0,0,0-1.39,2.211q-.624,1.155-1.129,2.348a24.5,24.5,0,0,0-1.495,4.856,21.168,21.168,0,0,0-.367,4.959,21.465,21.465,0,0,0,.737,4.806,21.724,21.724,0,0,0,4.463,8.374,24.671,24.671,0,0,0,3.451,3.3,25.543,25.543,0,0,0,4.023,2.573,25.974,25.974,0,0,0,4.386,1.773,28.148,28.148,0,0,0,4.561.954,24.382,24.382,0,0,0,4.585.142q1.128-.073,2.227-.252c.727-.125,1.48-.246,2.2-.423a20.839,20.839,0,0,0,4.144-1.469c.328-.156.648-.324.97-.494s.648-.336.964-.516a20.733,20.733,0,0,0,1.831-1.174,20.491,20.491,0,0,0,1.693-1.36c.542-.482,1.05-1,1.563-1.515a21.613,21.613,0,0,0,2.711-3.427q.6-.927,1.105-1.919c.341-.657.668-1.311.956-1.994a24.875,24.875,0,0,0,1.368-4.254,27.273,27.273,0,0,0,.612-4.483,24.99,24.99,0,0,0-.147-4.509,23.94,23.94,0,0,0-2.747-8.58A21.915,21.915,0,0,0,791.083,775.376Zm8.513,15.462a23.618,23.618,0,0,1,.042,4.481,24.89,24.89,0,0,1-.745,4.41,24.563,24.563,0,0,1-3.7,7.812,20.067,20.067,0,0,1-2.8,3.146c-.523.46-1.032.937-1.58,1.361a19.971,19.971,0,0,1-1.692,1.2,19.14,19.14,0,0,1-1.806,1.014c-.619.306-1.26.572-1.888.838a20.581,20.581,0,0,1-3.96,1.158q-1.023.192-2.072.288c-.7.058-1.38.12-2.079.129a22.518,22.518,0,0,1-4.2-.312,25.372,25.372,0,0,1-4.144-1.051,23.985,23.985,0,0,1-3.894-1.71,22.872,22.872,0,0,1-6.583-5.4,20.421,20.421,0,0,1-4.753-11.859,20.919,20.919,0,0,1,.224-4.446,23.489,23.489,0,0,1,1.168-4.464,19.65,19.65,0,0,1,.936-2.174q.537-1.052,1.187-2.068a27.039,27.039,0,0,1,2.981-3.859,19.447,19.447,0,0,1,1.787-1.706q.941-.806,1.958-1.532t2.093-1.359a20.408,20.408,0,0,1,2.21-1.154A26.923,26.923,0,0,1,772.983,772a22.864,22.864,0,0,1,9.6-.222,20.314,20.314,0,0,1,8.44,3.675,20.653,20.653,0,0,1,3.335,3.086,21.948,21.948,0,0,1,2.581,3.713A22.952,22.952,0,0,1,799.6,790.838Z" transform="translate(-751.266 -770.803)" fill="#c3c3c3"/>
      </g>
      <g id="Grupo_137012" data-name="Grupo 137012">
        <path id="Trazado_153178" data-name="Trazado 153178" d="M788.252,763.348a29.419,29.419,0,0,1,3.177,11.009,31.856,31.856,0,0,1-.893,10.969c-.225.876-.5,1.714-.788,2.576s-.615,1.692-.976,2.508a29.579,29.579,0,0,1-10.051,12.141q-.937.633-1.912,1.167c-.324.179-.656.346-.983.513s-.648.336-.977.491a23.994,23.994,0,0,1-3.275,1.269c-1.119.344-2.274.6-3.4.828q-.773.15-1.557.249a26.438,26.438,0,0,1-3.177.229c-.769.018-1.561-.011-2.325-.039s-1.537-.093-2.31-.185a31.316,31.316,0,0,1-4.641-.916q-1.484-.4-2.947-.946c-.964-.354-1.911-.752-2.848-1.2a30.222,30.222,0,0,1-9.459-7.053,26.062,26.062,0,0,1-5.644-10.037,25.7,25.7,0,0,1-.671-11.457,29.8,29.8,0,0,1,.623-2.939,26.89,26.89,0,0,1,.966-2.871,33.351,33.351,0,0,1,2.851-5.577,34.234,34.234,0,0,1,4.086-5.056q.581-.6,1.194-1.175c.408-.387.828-.765,1.269-1.116q1.313-1.069,2.752-2.042,1.481-1,3.013-1.842l.767-.41c.259-.128.52-.249.781-.369q.783-.358,1.573-.676a34.3,34.3,0,0,1,6.359-1.89,32.078,32.078,0,0,1,6.864-.443q1.312.053,2.593.218,1.291.19,2.542.489a27.472,27.472,0,0,1,4.8,1.619,24.918,24.918,0,0,1,3.057,1.6q.734.445,1.436.942a26.136,26.136,0,0,1,5.516,5.315A27.856,27.856,0,0,1,788.252,763.348Zm-5.057,3.369-.277-.517a21.4,21.4,0,0,0-4.876-6.027c-.449-.388-.911-.752-1.395-1.1a21.051,21.051,0,0,0-3-1.806,18.8,18.8,0,0,0-2.31-.969,22.261,22.261,0,0,0-2.424-.689,23.965,23.965,0,0,0-5.131-.571q-.857-.005-1.726.049c-.576.041-1.149.116-1.726.2a26.432,26.432,0,0,0-3.464.78,26.734,26.734,0,0,0-3.71,1.387,29.359,29.359,0,0,0-3.548,2.055q-1.122.758-2.148,1.6-.512.418-1,.854c-.32.3-.629.608-.931.92a27.893,27.893,0,0,0-3.189,3.965,24.261,24.261,0,0,0-1.26,2.119q-.557,1.1-1,2.232a23.977,23.977,0,0,0-1.289,4.562,22.243,22.243,0,0,0-.284,2.293,20.086,20.086,0,0,0-.018,2.309,20.874,20.874,0,0,0,4.982,12.623,23.357,23.357,0,0,0,5.378,4.676,24.4,24.4,0,0,0,5.747,2.687c.766.248,1.525.443,2.312.626s1.573.323,2.361.427a23.894,23.894,0,0,0,4.7.16c.545-.038,1.083-.1,1.621-.172s1.092-.148,1.631-.251,1.088-.23,1.624-.381a20.23,20.23,0,0,0,3.371-1.254,22.086,22.086,0,0,0,3.231-1.792l.453-.312a20.341,20.341,0,0,0,1.67-1.333c.266-.233.519-.48.776-.719s.509-.481.754-.731a21.01,21.01,0,0,0,2.6-3.256q.569-.875,1.056-1.8c.332-.609.645-1.226.925-1.863a23.872,23.872,0,0,0,1.35-3.974,25.779,25.779,0,0,0,.663-4.216,24.358,24.358,0,0,0-.03-4.291A23.433,23.433,0,0,0,783.195,766.716Z" transform="translate(-732.247 -749.023)" fill="#fdcc30"/>
        <g id="Grupo_137011" data-name="Grupo 137011" transform="translate(16.123)" opacity="0.33">
          <path id="Trazado_153179" data-name="Trazado 153179" d="M799.789,936.694q-.248,2.93-.433,5.8-1.484-.4-2.947-.946c-.964-.354-1.911-.752-2.848-1.2.09-2.137.293-4.209.481-6.341A24.4,24.4,0,0,0,799.789,936.694Z" transform="translate(-793.561 -885.365)" fill="#fff"/>
          <path id="Trazado_153180" data-name="Trazado 153180" d="M834.7,749.054q-.987,3.01-1.913,5.987-.857-.005-1.726.049c-.576.041-1.149.116-1.726.2a26.432,26.432,0,0,0-3.464.78c.631-2.178,1.279-4.384,1.964-6.577A32.078,32.078,0,0,1,834.7,749.054Z" transform="translate(-817.372 -749.023)" fill="#fff"/>
          <path id="Trazado_153181" data-name="Trazado 153181" d="M854.659,947.231c-.261,1.955-.439,3.956-.608,5.924a26.465,26.465,0,0,1-3.178.229q.236-2.838.534-5.729c.545-.038,1.083-.1,1.621-.172S854.12,947.334,854.659,947.231Z" transform="translate(-835.803 -895.111)" fill="#fff"/>
          <path id="Trazado_153182" data-name="Trazado 153182" d="M894.719,759.584q-1.05,3.066-2.035,6.1a21.045,21.045,0,0,0-3-1.806q.959-2.929,1.979-5.89A24.922,24.922,0,0,1,894.719,759.584Z" transform="translate(-864.407 -755.629)" fill="#fff"/>
          <path id="Trazado_153183" data-name="Trazado 153183" d="M876.608,933.016q-.3,1.84-.567,3.662l-.265,1.816-.223,1.838a23.994,23.994,0,0,1-3.275,1.269c-1.119.344-2.274.6-3.4.828l.136-1.523c.05-.506.112-1,.169-1.506l.37-3.027a20.23,20.23,0,0,0,3.371-1.254,22.086,22.086,0,0,0,3.231-1.792Z" transform="translate(-849.074 -884.634)" fill="#fff"/>
          <path id="Trazado_153184" data-name="Trazado 153184" d="M911.554,780.441l-.277-.517A21.4,21.4,0,0,0,906.4,773.9q1-3.109,2.076-6.253a26.136,26.136,0,0,1,5.516,5.315C913.12,775.418,912.326,777.95,911.554,780.441Z" transform="translate(-876.729 -762.748)" fill="#fff"/>
        </g>
      </g>
      <path id="Trazado_153185" data-name="Trazado 153185" d="M822.805,818.915a6.4,6.4,0,0,0-4.132-3.086,10.371,10.371,0,0,0-3.128-.19,17.35,17.35,0,0,0-1.895.245q-.993.2-2.112.518c-3.952,1.069-5,.9-5.881-.381-.844-1.214-.389-2.579.9-3.447,2.155-1.456,3.448-.457,4.356.581.881-.613,1.8-1.162,2.7-1.74l2.718-1.715a6.428,6.428,0,0,0-3.983-2.874,7.382,7.382,0,0,0-2.609-.087,10.284,10.284,0,0,0-1.438.3,11.357,11.357,0,0,0-1.5.571l-1.473-2.23-4.528,3.06,1.474,2.132a10.727,10.727,0,0,0-1.123,1.164,10.406,10.406,0,0,0-.865,1.24,7.6,7.6,0,0,0-.973,2.558,6.529,6.529,0,0,0,1.333,5.11,6.224,6.224,0,0,0,4.3,2.718,10.7,10.7,0,0,0,3.1-.063,37.6,37.6,0,0,0,4.059-.891c3.489-.95,4.779-.65,5.738.808.779,1.19.915,2.546-1.022,3.854-1.75,1.182-3.482.921-5-.72l-5.016,3.625a8.14,8.14,0,0,0,4.662,2.868,7.4,7.4,0,0,0,2.668-.006,12.207,12.207,0,0,0,2.869-.957l1.895,2.74,3.969-2.681-1.829-2.77A12.845,12.845,0,0,0,823,826.951a7,7,0,0,0,1.042-2.442A7.553,7.553,0,0,0,822.805,818.915Z" transform="translate(-781.609 -790.563)" fill="#fdcc30"/>
      <path id="Trazado_153186" data-name="Trazado 153186" d="M859.406,784.844a23.351,23.351,0,0,1,2.724,8.744,24.353,24.353,0,0,1,.069,4.431,25.952,25.952,0,0,1-.673,4.351,23.847,23.847,0,0,1-1.4,4.1c-.291.657-.623,1.284-.965,1.918s-.71,1.253-1.109,1.85a20.9,20.9,0,0,1-2.74,3.317c-.522.5-1.046,1-1.6,1.477a20.339,20.339,0,0,1-3.6,2.442q-.47.25-.949.473c-.319.15-.628.306-.947.445a20.582,20.582,0,0,1-3.936,1.287q-1.012.223-2.048.349c-.683.092-1.358.167-2.046.2a23.706,23.706,0,0,1-4.156-.144,226.334,226.334,0,0,1,9.654-45.759,20.712,20.712,0,0,1,4.182,1.457,21.238,21.238,0,0,1,9.548,9.066Z" transform="translate(-808.734 -767.669)" fill="#eaeaea" opacity="0.3" style="mix-blend-mode: multiply;isolation: isolate"/>
    </g>
    <g id="Grupo_137017" data-name="Grupo 137017" transform="translate(587.546 366.214)">
      <path id="Trazado_153187" data-name="Trazado 153187" d="M1118.647,605.043a23.9,23.9,0,0,1-3.4,17.362q-.591.924-1.263,1.787c-.448.573-.92,1.124-1.412,1.673a22.625,22.625,0,0,1-7.008,5.241,21.767,21.767,0,0,1-6.464,2.071c-.373.058-.746.1-1.118.144s-.739.085-1.108.113a21.779,21.779,0,0,1-4.4-.115,25.03,25.03,0,0,1-8.3-2.607,24.047,24.047,0,0,1-11.624-13.316,21.358,21.358,0,0,1,1.651-17.734,23.212,23.212,0,0,1,6.2-7.089,26.816,26.816,0,0,1,4.208-2.628q.566-.285,1.15-.546c.391-.167.789-.321,1.192-.469q1.21-.443,2.486-.781a27.972,27.972,0,0,1,5.079-.857,25.5,25.5,0,0,1,4.95.192,25.21,25.21,0,0,1,4.655,1.081,19.283,19.283,0,0,1,2.177.876q1.061.5,2.056,1.087A21.467,21.467,0,0,1,1118.647,605.043Z" transform="translate(-1065.182 -581.386)" fill="#f3ad29"/>
      <g id="Grupo_137014" data-name="Grupo 137014" transform="translate(4.866 5.393)" style="mix-blend-mode: color-burn;isolation: isolate">
        <path id="Trazado_153188" data-name="Trazado 153188" d="M1111.528,595.4a22.525,22.525,0,0,0-6.709-6.337,23.156,23.156,0,0,0-4.325-2.1,25.275,25.275,0,0,0-4.768-1.19,26.043,26.043,0,0,0-5.031-.286,28.594,28.594,0,0,0-5.061.736q-1.252.3-2.477.708c-.408.136-.813.281-1.214.437s-.794.337-1.185.519a27.6,27.6,0,0,0-4.448,2.59,24.283,24.283,0,0,0-6.791,7.393,22.82,22.82,0,0,0-2.032,4.451,22.125,22.125,0,0,0,.184,14.192,23.99,23.99,0,0,0,4.861,8.144,24.9,24.9,0,0,0,3.5,3.192,25.363,25.363,0,0,0,4.016,2.513,25.652,25.652,0,0,0,8.862,2.531,22.092,22.092,0,0,0,4.534-.034q.56-.062,1.115-.152c.373-.052.745-.111,1.114-.18a21.962,21.962,0,0,0,6.33-2.221,23.925,23.925,0,0,0,3.779-2.4,23.187,23.187,0,0,0,3.277-3.1,26.683,26.683,0,0,0,2.692-3.621,25.167,25.167,0,0,0,3.264-8.441,23.767,23.767,0,0,0,0-9.016A22.052,22.052,0,0,0,1111.528,595.4Zm3.4,17.322a23.68,23.68,0,0,1-3.462,8.269q-.618.928-1.321,1.784c-.234.285-.474.562-.72.837s-.495.553-.75.819a22.75,22.75,0,0,1-3.328,2.856,22.994,22.994,0,0,1-3.765,2.11,21.307,21.307,0,0,1-4.047,1.387,20.338,20.338,0,0,1-2.1.38c-.706.088-1.416.141-2.119.184a21.648,21.648,0,0,1-4.236-.2,23.92,23.92,0,0,1-4.151-1.007,22.257,22.257,0,0,1-3.906-1.706,23.965,23.965,0,0,1-6.645-5.409,22.334,22.334,0,0,1-4.231-7.376,20.739,20.739,0,0,1,1.451-16.819,23.62,23.62,0,0,1,2.556-3.772,22.77,22.77,0,0,1,3.344-3.219,26.083,26.083,0,0,1,3.986-2.6,19.322,19.322,0,0,1,2.19-1q1.124-.443,2.292-.785a27.382,27.382,0,0,1,4.767-.945,23.977,23.977,0,0,1,4.849.027,25.187,25.187,0,0,1,4.693.95q.568.173,1.124.374c.371.138.739.291,1.1.449a22.814,22.814,0,0,1,2.113,1.058,21.455,21.455,0,0,1,6.838,6.093,20.55,20.55,0,0,1,2.228,3.943,22.178,22.178,0,0,1,1.333,4.326A22.806,22.806,0,0,1,1114.927,612.726Z" transform="translate(-1066.409 -585.464)" fill="#c3c3c3"/>
      </g>
      <g id="Grupo_137016" data-name="Grupo 137016" transform="translate(0 0)">
        <path id="Trazado_153189" data-name="Trazado 153189" d="M1107.316,587.512a29.236,29.236,0,0,1-.261,11.487,30.506,30.506,0,0,1-1.7,5.306q-.539,1.273-1.187,2.482-.641,1.23-1.384,2.39a29.977,29.977,0,0,1-3.341,4.312q-.926.991-1.938,1.887c-.67.61-1.365,1.2-2.088,1.745a26.7,26.7,0,0,1-4.649,2.833c-.829.381-1.665.779-2.535,1.1a26.255,26.255,0,0,1-2.674.862,32.077,32.077,0,0,1-4.549.818,26.9,26.9,0,0,1-7.267-.218q-.807-.115-1.6-.282a26.892,26.892,0,0,1-3.156-.842,32.59,32.59,0,0,1-8.486-4.29,30.828,30.828,0,0,1-4.693-4.081,30.305,30.305,0,0,1-3.584-4.644,28.8,28.8,0,0,1-2.654-5.409,27.369,27.369,0,0,1-1.422-5.685A26.026,26.026,0,0,1,1048,591.6a27.264,27.264,0,0,1,3.343-10.9,29.213,29.213,0,0,1,3.4-4.8,30.63,30.63,0,0,1,4.421-4.193,34.242,34.242,0,0,1,5.353-3.319,29.724,29.724,0,0,1,2.977-1.309q1.54-.562,3.165-.993,1.672-.443,3.342-.719a26.813,26.813,0,0,1,3.319-.368,34.132,34.132,0,0,1,6.46.3,27.941,27.941,0,0,1,6.516,1.738,29.439,29.439,0,0,1,4.588,2.258q1.08.656,2.086,1.4c.671.5,1.318,1.042,1.935,1.6a25.8,25.8,0,0,1,2.411,2.474q.563.652,1.08,1.343a26.52,26.52,0,0,1,3.653,6.7A27.913,27.913,0,0,1,1107.316,587.512Zm-5.84,1.678-.108-.576a21.569,21.569,0,0,0-2.811-7.224c-.308-.5-.635-.988-.988-1.461a20.957,20.957,0,0,0-2.284-2.614,22.388,22.388,0,0,0-3.953-3.059,23.763,23.763,0,0,0-2.242-1.208,19.556,19.556,0,0,0-2.388-.955,25.341,25.341,0,0,0-6.755-1.239q-.955-.048-1.924-.027c-.646.013-1.291.076-1.942.148a28.023,28.023,0,0,0-3.924.746q-1.275.337-2.486.782c-.4.148-.8.3-1.192.469s-.773.356-1.15.546a26.8,26.8,0,0,0-4.208,2.628,23.209,23.209,0,0,0-6.2,7.089,21.358,21.358,0,0,0-1.651,17.734,22.855,22.855,0,0,0,3.343,6.283,24.721,24.721,0,0,0,12.986,8.9,26.138,26.138,0,0,0,3.293.7c.561.079,1.131.139,1.7.172a21.475,21.475,0,0,0,3.708-.082,23.682,23.682,0,0,0,3.753-.659l.547-.15a24.969,24.969,0,0,0,7.667-3.9,23.1,23.1,0,0,0,3.115-2.893,25.745,25.745,0,0,0,2.584-3.36A23.956,23.956,0,0,0,1101.476,589.19Z" transform="translate(-1047.906 -564.956)" fill="#fdcc30"/>
        <g id="Grupo_137015" data-name="Grupo 137015" transform="translate(7.901 0.338)" opacity="0.33">
          <path id="Trazado_153190" data-name="Trazado 153190" d="M1085.218,730.351l-.66,1.311-.644,1.334-1.268,2.661a30.828,30.828,0,0,1-4.693-4.081q1.372-2.876,2.806-5.775A24.182,24.182,0,0,0,1085.218,730.351Z" transform="translate(-1077.952 -683.845)" fill="#fff"/>
          <path id="Trazado_153191" data-name="Trazado 153191" d="M1180.1,567.979l-1.808,2.522c-.6.838-1.194,1.677-1.779,2.54a25.341,25.341,0,0,0-6.755-1.239q1.884-2.774,3.827-5.56A27.938,27.938,0,0,1,1180.1,567.979Z" transform="translate(-1145.616 -566.241)" fill="#fff"/>
          <path id="Trazado_153192" data-name="Trazado 153192" d="M1133.977,760.334l-1.4,2.677c-.463.888-.906,1.81-1.353,2.711a26.892,26.892,0,0,1-3.156-.842q1.281-2.616,2.613-5.25A26.138,26.138,0,0,0,1133.977,760.334Z" transform="translate(-1114.892 -708.777)" fill="#fff"/>
          <path id="Trazado_153193" data-name="Trazado 153193" d="M1234.112,595.326l-1.886,2.569-.933,1.286-.922,1.309a20.952,20.952,0,0,0-2.284-2.614c1.187-1.679,2.386-3.386,3.614-5.024A25.814,25.814,0,0,1,1234.112,595.326Z" transform="translate(-1188.608 -585.854)" fill="#fff"/>
          <path id="Trazado_153194" data-name="Trazado 153194" d="M1157.028,759.575l-1.823,3.292-.9,1.642-.873,1.672a26.9,26.9,0,0,1-7.267-.218c.927-1.835,1.881-3.658,2.85-5.5a21.473,21.473,0,0,0,3.708-.082,23.68,23.68,0,0,0,3.753-.659Z" transform="translate(-1128.232 -708.737)" fill="#fff"/>
          <path id="Trazado_153195" data-name="Trazado 153195" d="M1243.45,620.449l-.108-.576a21.569,21.569,0,0,0-2.811-7.224c1.255-1.781,2.537-3.517,3.833-5.282a26.519,26.519,0,0,1,3.653,6.7Q1245.692,617.266,1243.45,620.449Z" transform="translate(-1197.78 -596.552)" fill="#fff"/>
        </g>
      </g>
      <path id="Trazado_153196" data-name="Trazado 153196" d="M1142.507,632.658a6.454,6.454,0,0,0-2.946-4.25,10.5,10.5,0,0,0-2.9-1.191,22.173,22.173,0,0,0-4.023-.559c-4.072-.3-4.992-.8-5.4-2.3a2.357,2.357,0,0,1,1.956-2.953c2.485-.657,3.379.711,3.9,1.989,2.052-.566,4.126-1.035,6.2-1.53a6.524,6.524,0,0,0-2.846-4.006,7.351,7.351,0,0,0-2.419-.932,10.866,10.866,0,0,0-3.013-.11l-.669-2.587-5.185,1.371.687,2.5a10.049,10.049,0,0,0-2.628,1.6,7.514,7.514,0,0,0-1.742,2.074,6.618,6.618,0,0,0-.451,5.259,6.194,6.194,0,0,0,3.121,4.011,10.621,10.621,0,0,0,2.941.981c.584.119,1.211.2,1.9.29s1.43.157,2.229.21c3.616.25,4.749.955,5.184,2.645.353,1.378.034,2.7-2.251,3.306a3.545,3.545,0,0,1-4.512-2.317l-5.983,1.747a8.007,8.007,0,0,0,3.435,4.264,7.457,7.457,0,0,0,2.547.881,12.061,12.061,0,0,0,3.07.037l.883,3.213,4.729-1.25-.831-3.213a11.814,11.814,0,0,0,2.607-1.5,7.026,7.026,0,0,0,1.8-1.978A7.429,7.429,0,0,0,1142.507,632.658Z" transform="translate(-1101.543 -601.27)" fill="#fdcc30"/>
      <path id="Trazado_153197" data-name="Trazado 153197" d="M1155.984,615.1a23.9,23.9,0,0,1-3.4,17.363q-.592.925-1.263,1.787c-.448.573-.92,1.124-1.412,1.673a22.617,22.617,0,0,1-7.007,5.241,21.754,21.754,0,0,1-6.394,2.06q-.542.086-1.084.143c-.359.045-.716.086-1.074.114a21.735,21.735,0,0,1-4.264-.072,25.157,25.157,0,0,1-4.151-.86,23.545,23.545,0,0,1-3.932-1.532,323.842,323.842,0,0,1,24.184-40.127A21.413,21.413,0,0,1,1155.984,615.1Z" transform="translate(-1102.519 -591.44)" fill="#eaeaea" opacity="0.3" style="mix-blend-mode: multiply;isolation: isolate"/>
    </g>
    <g id="Grupo_137021" data-name="Grupo 137021" transform="translate(671.715 353.912)">
      <path id="Trazado_153198" data-name="Trazado 153198" d="M1438.865,564.17a22.994,22.994,0,0,1-2.371,8.847,23.781,23.781,0,0,1-2.342,3.781,25.713,25.713,0,0,1-2.963,3.295,23.605,23.605,0,0,1-7.389,4.684,23.556,23.556,0,0,1-17.6,0,23.62,23.62,0,0,1-7.389-4.684,25.752,25.752,0,0,1-2.964-3.295,23.774,23.774,0,0,1-2.343-3.781,23,23,0,0,1-2.372-8.847,21.664,21.664,0,0,1,1.375-9.077,21.924,21.924,0,0,1,2.053-4.049,21.53,21.53,0,0,1,2.864-3.534,24.39,24.39,0,0,1,7.785-5.219,25.793,25.793,0,0,1,19.582,0,24.38,24.38,0,0,1,7.784,5.219,21.514,21.514,0,0,1,2.864,3.534,21.9,21.9,0,0,1,2.052,4.049A21.666,21.666,0,0,1,1438.865,564.17Z" transform="translate(-1385.017 -534.526)" fill="#f3ad29"/>
      <g id="Grupo_137018" data-name="Grupo 137018" transform="translate(4.762 5.199)" style="mix-blend-mode: color-burn;isolation: isolate">
        <path id="Trazado_153199" data-name="Trazado 153199" d="M1433.918,553.45a22.147,22.147,0,0,0-4.878-7.839,24.81,24.81,0,0,0-7.918-5.512,26.488,26.488,0,0,0-19.815-.464,25.5,25.5,0,0,0-8.425,5.352,22.32,22.32,0,0,0-1.667,1.8,23.361,23.361,0,0,0-1.452,1.978,22.252,22.252,0,0,0-3.611,13.705,23.872,23.872,0,0,0,2.5,9.157,24.6,24.6,0,0,0,2.532,4.02q.725.937,1.533,1.8c.538.58,1.1,1.141,1.691,1.668a24.217,24.217,0,0,0,7.956,4.762,24.1,24.1,0,0,0,17.748-.467,24.217,24.217,0,0,0,7.52-4.966,25.664,25.664,0,0,0,5.3-7.329,23.578,23.578,0,0,0,2.263-8.721A22.219,22.219,0,0,0,1433.918,553.45Zm-1.068,17.618a23.1,23.1,0,0,1-2.392,3.81,24.728,24.728,0,0,1-3.058,3.306,23.235,23.235,0,0,1-7.556,4.517,22.947,22.947,0,0,1-16.856-.468c-.658-.294-1.3-.6-1.932-.93s-1.244-.7-1.841-1.092a22.451,22.451,0,0,1-3.346-2.7,23.932,23.932,0,0,1-2.816-3.273,23.644,23.644,0,0,1-2.179-3.688,22.255,22.255,0,0,1-2.109-8.246,21.115,21.115,0,0,1,1.231-8.447,20.769,20.769,0,0,1,1.907-3.915,21.809,21.809,0,0,1,2.713-3.473,23.411,23.411,0,0,1,3.433-2.941q.939-.659,1.951-1.234a18.4,18.4,0,0,1,2.087-1.032,24.959,24.959,0,0,1,18.7-.464,23.865,23.865,0,0,1,7.977,5.047,20.979,20.979,0,0,1,2.964,3.55,21.351,21.351,0,0,1,2.1,4.082,21.037,21.037,0,0,1,1.162,4.39,22.149,22.149,0,0,1,.2,4.518A22.612,22.612,0,0,1,1432.85,571.068Z" transform="translate(-1386.107 -537.943)" fill="#c3c3c3"/>
      </g>
      <g id="Grupo_137020" data-name="Grupo 137020" transform="translate(0 0)">
        <path id="Trazado_153200" data-name="Trazado 153200" d="M1427.878,548.211a29.191,29.191,0,0,1-3.13,11.049,30.761,30.761,0,0,1-6.709,8.794c-.676.616-1.376,1.189-2.1,1.745s-1.474,1.092-2.243,1.584a28.472,28.472,0,0,1-4.85,2.489,32.327,32.327,0,0,1-5.266,1.576,28.315,28.315,0,0,1-13.876-.678,32.807,32.807,0,0,1-3.436-1.251q-.759-.329-1.493-.7a27.424,27.424,0,0,1-2.857-1.662q-1-.657-1.95-1.4c-.632-.485-1.246-.983-1.84-1.515a29.74,29.74,0,0,1-3.315-3.475,30.486,30.486,0,0,1-3.445-5.2,29.23,29.23,0,0,1-3.288-11.353,26.812,26.812,0,0,1,1.561-11.391,27.415,27.415,0,0,1,6.1-9.573,27.86,27.86,0,0,1,2.143-1.992q1.128-.926,2.362-1.752a31.956,31.956,0,0,1,5.31-2.859,29.177,29.177,0,0,1,5.967-1.808,31.815,31.815,0,0,1,13.11.038q1.6.326,3.139.795a28.216,28.216,0,0,1,2.983,1.124,31.179,31.179,0,0,1,5.827,3.319c.7.5,1.368,1.02,2.01,1.584s1.256,1.157,1.84,1.769a27.89,27.89,0,0,1,3.126,3.926,25.572,25.572,0,0,1,1.71,2.982q.381.768.707,1.563a26.29,26.29,0,0,1,1.855,7.4A28.061,28.061,0,0,1,1427.878,548.211Zm-6.077.19c.014-.2.027-.388.041-.585a21.674,21.674,0,0,0-.9-7.7c-.171-.567-.365-1.121-.587-1.672a21.41,21.41,0,0,0-1.547-3.128,21.191,21.191,0,0,0-3.043-3.947,23.8,23.8,0,0,0-3.915-3.242,25.032,25.032,0,0,0-2.952-1.686,21.943,21.943,0,0,0-3.227-1.245,25.644,25.644,0,0,0-17.482.742,24.377,24.377,0,0,0-7.784,5.219,21.493,21.493,0,0,0-2.864,3.534,21.9,21.9,0,0,0-2.053,4.049,21.66,21.66,0,0,0-1.375,9.078,22.772,22.772,0,0,0,1.538,6.953,23.219,23.219,0,0,0,3.1,5.561,24.543,24.543,0,0,0,7.128,6.472,23.88,23.88,0,0,0,3.019,1.5c.526.227,1.066.438,1.615.623a21.96,21.96,0,0,0,7.471,1.2l.573,0a22.128,22.128,0,0,0,8.481-1.813,23.466,23.466,0,0,0,7.137-4.578,25.611,25.611,0,0,0,2.881-3.187,23.788,23.788,0,0,0,2.3-3.642A23.05,23.05,0,0,0,1421.8,548.4Z" transform="translate(-1367.996 -518.171)" fill="#fdcc30"/>
        <g id="Grupo_137019" data-name="Grupo 137019" transform="translate(3.37 2.62)" opacity="0.33">
          <path id="Trazado_153201" data-name="Trazado 153201" d="M1388.186,662.913q-1.988,2.219-3.931,4.434a30.479,30.479,0,0,1-3.445-5.2q2.113-2.395,4.281-4.794A23.219,23.219,0,0,0,1388.186,662.913Z" transform="translate(-1380.81 -623.374)" fill="#fff"/>
          <path id="Trazado_153202" data-name="Trazado 153202" d="M1522.161,531.454q-2.388,2.007-4.73,4.017a25.04,25.04,0,0,0-2.952-1.686,21.943,21.943,0,0,0-3.227-1.245l2.527-2.231,2.554-2.174A31.182,31.182,0,0,1,1522.161,531.454Z" transform="translate(-1476.952 -528.135)" fill="#fff"/>
          <path id="Trazado_153203" data-name="Trazado 153203" d="M1427.906,704.611q-2.082,2.252-4.116,4.511a27.424,27.424,0,0,1-2.857-1.662q1.954-2.173,3.954-4.349A23.88,23.88,0,0,0,1427.906,704.611Z" transform="translate(-1410.383 -657.1)" fill="#fff"/>
          <path id="Trazado_153204" data-name="Trazado 153204" d="M1567.668,571.421q-2.48,2.034-4.91,4.073a21.41,21.41,0,0,0-1.547-3.128q2.351-1.965,4.747-3.927A25.581,25.581,0,0,1,1567.668,571.421Z" transform="translate(-1513.774 -557.841)" fill="#fff"/>
          <path id="Trazado_153205" data-name="Trazado 153205" d="M1449.756,712.39c-1.771,1.805-3.516,3.661-5.236,5.487a26.8,26.8,0,0,1-3.609-.85,32.794,32.794,0,0,1-3.436-1.251c1.394-1.545,2.806-3.1,4.238-4.592a21.96,21.96,0,0,0,7.471,1.2Z" transform="translate(-1422.575 -663.051)" fill="#fff"/>
          <path id="Trazado_153206" data-name="Trazado 153206" d="M1570.192,598.188c.014-.2.027-.388.041-.585a21.674,21.674,0,0,0-.9-7.7q2.489-2.093,5.03-4.183a26.3,26.3,0,0,1,1.855,7.4C1574.182,594.779,1572.173,596.5,1570.192,598.188Z" transform="translate(-1519.756 -570.578)" fill="#fff"/>
        </g>
      </g>
      <path id="Trazado_153207" data-name="Trazado 153207" d="M1464.342,588.479c.1-3.853-2.142-6.294-8.01-8.31a14.51,14.51,0,0,1-3.75-1.716,2.151,2.151,0,0,1-.867-1.88,2.394,2.394,0,0,1,2.645-2.386c2.562.022,3.072,1.586,3.249,2.954l6.367.078c-.02-3.7-2.354-6.178-6.69-6.974l.018-2.672-2.666-.032-2.666.029.016,2.592c-4.354.687-7.056,3.242-6.951,7.334.091,3.885,2.336,6,8.407,7.963.429.141.819.276,1.172.418s.671.29.954.435a5.747,5.747,0,0,1,1.332.887,2.7,2.7,0,0,1,.875,2.169c-.013,1.422-.663,2.614-3.034,2.584a3.493,3.493,0,0,1-3.769-3.353l-6.246.082c.428,4.167,2.984,6.764,7.42,7.388l.021,3.332,2.461-.028,2.461.031.022-3.319C1461.394,595.525,1464.215,593.192,1464.342,588.479Z" transform="translate(-1424.551 -554.559)" fill="#fdcc30"/>
      <path id="Trazado_153208" data-name="Trazado 153208" d="M1461.666,585.377a23,23,0,0,1-2.371,8.847,23.781,23.781,0,0,1-2.342,3.781,25.738,25.738,0,0,1-2.963,3.3,23.613,23.613,0,0,1-7.388,4.685,23.568,23.568,0,0,1-17.343.1,23.715,23.715,0,0,1-7.233-4.418q1.935-2.109,3.914-4.22c1.319-1.409,2.653-2.824,4-4.184,2.7-2.744,5.454-5.509,8.268-8.24q4.22-4.024,8.613-8.045c.732-.677,1.468-1.327,2.207-1.979l2.228-1.958q2.239-1.957,4.521-3.913a21.465,21.465,0,0,1,4.615,7.434A21.688,21.688,0,0,1,1461.666,585.377Z" transform="translate(-1407.818 -555.732)" fill="#eaeaea" opacity="0.3" style="mix-blend-mode: multiply;isolation: isolate"/>
    </g>
    <g id="Grupo_137025" data-name="Grupo 137025" transform="translate(766.508 366.213)">
      <path id="Trazado_153209" data-name="Trazado 153209" d="M1797.706,617.4a24.047,24.047,0,0,1-11.622,13.316,25.023,25.023,0,0,1-8.3,2.607,21.777,21.777,0,0,1-4.4.115q-.554-.042-1.108-.113c-.372-.04-.745-.086-1.118-.145a21.752,21.752,0,0,1-6.464-2.071,22.628,22.628,0,0,1-7.008-5.24c-.491-.549-.964-1.1-1.412-1.674s-.869-1.171-1.263-1.787a23.9,23.9,0,0,1-3.4-17.362,21.466,21.466,0,0,1,10.3-14.513q.994-.59,2.056-1.087a19.323,19.323,0,0,1,2.177-.876,25.732,25.732,0,0,1,9.6-1.274,27.929,27.929,0,0,1,5.077.856q1.275.337,2.487.782c.4.148.8.3,1.193.469s.773.356,1.15.546a26.828,26.828,0,0,1,4.209,2.628,23.208,23.208,0,0,1,6.2,7.089A21.36,21.36,0,0,1,1797.706,617.4Z" transform="translate(-1745.215 -581.385)" fill="#f3ad29"/>
      <g id="Grupo_137022" data-name="Grupo 137022" transform="translate(4.689 5.051)" style="mix-blend-mode: color-burn;isolation: isolate">
        <path id="Trazado_153210" data-name="Trazado 153210" d="M1795.284,606.161a21.972,21.972,0,0,0-2.65-8.848,23.66,23.66,0,0,0-6.255-7.408,27.552,27.552,0,0,0-4.233-2.75q-.565-.3-1.144-.572t-1.179-.492q-1.192-.467-2.43-.828a29.11,29.11,0,0,0-5.053-1,26.224,26.224,0,0,0-5.138.041,26.66,26.66,0,0,0-4.964,1.007,23.983,23.983,0,0,0-4.583,2.01,22.046,22.046,0,0,0-10.924,15.2,23.782,23.782,0,0,0,.123,9.472,25.249,25.249,0,0,0,3.661,8.725,24.708,24.708,0,0,0,2.942,3.611,23.91,23.91,0,0,0,3.5,3.017,23.321,23.321,0,0,0,3.961,2.223,22.294,22.294,0,0,0,4.254,1.466,21.961,21.961,0,0,0,2.207.4q.556.071,1.116.115t1.113.087a22.5,22.5,0,0,0,4.465-.209,25.613,25.613,0,0,0,8.5-2.844,25.913,25.913,0,0,0,7.036-5.68,23.682,23.682,0,0,0,4.511-7.79A22.124,22.124,0,0,0,1795.284,606.161Zm-5.742,16.69q-.753.838-1.584,1.6c-.554.51-1.134,1-1.733,1.458a23.79,23.79,0,0,1-3.806,2.38,22.634,22.634,0,0,1-4.121,1.583c-.7.188-1.417.364-2.137.5s-1.44.244-2.162.313a20.943,20.943,0,0,1-4.307-.042c-.708-.087-1.417-.186-2.12-.316a21.211,21.211,0,0,1-2.078-.5,20.655,20.655,0,0,1-3.94-1.617,23.075,23.075,0,0,1-9.226-8.675,23.632,23.632,0,0,1-3.066-7.983,22.5,22.5,0,0,1,.039-8.535,20.9,20.9,0,0,1,3.314-7.842,21.481,21.481,0,0,1,6.35-5.991,22.478,22.478,0,0,1,8.58-3.108,23.782,23.782,0,0,1,4.743-.272,26.877,26.877,0,0,1,4.776.686q1.182.281,2.339.665a19.427,19.427,0,0,1,2.265.895,26.092,26.092,0,0,1,4.2,2.44q.982.706,1.887,1.495a19.312,19.312,0,0,1,1.716,1.673,23.391,23.391,0,0,1,2.831,3.807,21.759,21.759,0,0,1,1.933,4.218,20.58,20.58,0,0,1,.6,2.21,20.94,20.94,0,0,1,.294,6.819,22.06,22.06,0,0,1-1.016,4.408A22.7,22.7,0,0,1,1789.542,622.851Z" transform="translate(-1746.315 -584.161)" fill="#c3c3c3"/>
      </g>
      <g id="Grupo_137024" data-name="Grupo 137024" transform="translate(0 0)">
        <path id="Trazado_153211" data-name="Trazado 153211" d="M1786.68,602.97a28.8,28.8,0,0,1-2.561,5.26,30.233,30.233,0,0,1-3.444,4.542,32.172,32.172,0,0,1-13.8,8.752,29.855,29.855,0,0,1-5.272,1.123,26.646,26.646,0,0,1-5.433.169c-.912-.06-1.816-.192-2.735-.331a26.26,26.26,0,0,1-7.1-2.143,26.9,26.9,0,0,1-6.219-3.793q-.642-.519-1.249-1.077a26.943,26.943,0,0,1-2.333-2.3,29.647,29.647,0,0,1-2.914-3.77,33.3,33.3,0,0,1-2.318-4.214,30.209,30.209,0,0,1-2.029-5.867,29.265,29.265,0,0,1-.338-11.819,26.628,26.628,0,0,1,8.093-14.932,25.416,25.416,0,0,1,4.6-3.445,29.956,29.956,0,0,1,5.327-2.482q1.411-.5,2.891-.868c.983-.232,1.984-.407,3-.543a34.216,34.216,0,0,1,6.283-.237,27.211,27.211,0,0,1,3.221.375q1.617.274,3.242.7,1.672.443,3.259,1.028a30.824,30.824,0,0,1,3.059,1.363,34.124,34.124,0,0,1,5.477,3.459,30.924,30.924,0,0,1,4.8,4.786,26.9,26.9,0,0,1,4.848,8.889,25.462,25.462,0,0,1,.856,3.341q.161.844.263,1.7a26.138,26.138,0,0,1-.2,7.617A27.955,27.955,0,0,1,1786.68,602.97Zm-5.9-1.454.2-.553a21.6,21.6,0,0,0,1.192-7.666c-.013-.594-.052-1.18-.12-1.772a20.045,20.045,0,0,0-.668-3.421,23.04,23.04,0,0,0-4.85-8.806,21.121,21.121,0,0,0-2.437-2.383,25.777,25.777,0,0,0-2.815-2.06,23.865,23.865,0,0,0-7.19-3.14,27.951,27.951,0,0,0-5.077-.856,25.477,25.477,0,0,0-4.95.193,25.207,25.207,0,0,0-4.654,1.081,19.306,19.306,0,0,0-2.177.876q-1.061.5-2.056,1.086a21.465,21.465,0,0,0-10.3,14.513,22.841,22.841,0,0,0-.259,7.115,23.745,23.745,0,0,0,1.582,6.2,24.214,24.214,0,0,0,2.236,4.286,26.819,26.819,0,0,0,3,3.742,23.693,23.693,0,0,0,2.511,2.25c.449.346.915.68,1.4.991a24.063,24.063,0,0,0,6.845,3.083l.55.14a23.689,23.689,0,0,0,8.579.435,25.062,25.062,0,0,0,8.035-2.571,24.652,24.652,0,0,0,3.6-2.311q.855-.659,1.655-1.4t1.529-1.524A23.165,23.165,0,0,0,1780.777,601.516Z" transform="translate(-1728.484 -564.951)" fill="#fdcc30"/>
        <g id="Grupo_137023" data-name="Grupo 137023" transform="translate(0.785 6.977)" opacity="0.33">
          <path id="Trazado_153212" data-name="Trazado 153212" d="M1738.4,688.178l-2.459,1.62-1.22.812-1.22.839a30.209,30.209,0,0,1-2.029-5.867c1.763-1.2,3.548-2.421,5.346-3.6A23.745,23.745,0,0,0,1738.4,688.178Z" transform="translate(-1731.47 -658.182)" fill="#fff"/>
          <path id="Trazado_153213" data-name="Trazado 153213" d="M1902.124,596.269q-2.855,1.283-5.658,2.585a21.14,21.14,0,0,0-2.437-2.383,25.812,25.812,0,0,0-2.815-2.06q3.026-1.474,6.111-2.929A30.918,30.918,0,0,1,1902.124,596.269Z" transform="translate(-1849.208 -591.483)" fill="#fff"/>
          <path id="Trazado_153214" data-name="Trazado 153214" d="M1766.5,738.337q-2.569,1.63-5.084,3.271a26.934,26.934,0,0,1-2.333-2.3c1.62-1.084,3.264-2.193,4.905-3.226A23.687,23.687,0,0,0,1766.5,738.337Z" transform="translate(-1751.821 -698.063)" fill="#fff"/>
          <path id="Trazado_153215" data-name="Trazado 153215" d="M1936.146,646.83q-2.951,1.28-5.844,2.581a20.045,20.045,0,0,0-.668-3.421c1.876-.871,3.752-1.672,5.656-2.5A25.462,25.462,0,0,1,1936.146,646.83Z" transform="translate(-1877.526 -629.814)" fill="#fff"/>
          <path id="Trazado_153216" data-name="Trazado 153216" d="M1785.328,751.637q-3.246,1.954-6.406,3.927a26.9,26.9,0,0,1-6.219-3.793q2.586-1.684,5.231-3.357a24.065,24.065,0,0,0,6.845,3.083Z" transform="translate(-1761.86 -707.148)" fill="#fff"/>
          <path id="Trazado_153217" data-name="Trazado 153217" d="M1927.35,673.531l.2-.553a21.593,21.593,0,0,0,1.192-7.666q2.964-1.338,5.988-2.654a26.142,26.142,0,0,1-.2,7.617Q1930.893,671.884,1927.35,673.531Z" transform="translate(-1875.842 -643.942)" fill="#fff"/>
        </g>
      </g>
      <path id="Trazado_153218" data-name="Trazado 153218" d="M1818.762,637.855a6.42,6.42,0,0,0-.435-5.144,10.427,10.427,0,0,0-1.925-2.468q-.636-.623-1.431-1.26c-.532-.421-1.125-.828-1.771-1.253-3.387-2.268-3.933-3.162-3.542-4.669a2.37,2.37,0,0,1,3.171-1.6c2.486.658,2.579,2.287,2.4,3.654,2.051.569,4.089,1.185,6.133,1.775a6.484,6.484,0,0,0-.473-4.884,7.32,7.32,0,0,0-1.637-2.006,10.238,10.238,0,0,0-2.551-1.625l.709-2.577-5.185-1.372-.651,2.509a10.968,10.968,0,0,0-3.065.046,7.551,7.551,0,0,0-2.544.94,6.656,6.656,0,0,0-3.015,4.342,6.164,6.164,0,0,0,.7,5.023,10.873,10.873,0,0,0,2.061,2.312,28.114,28.114,0,0,0,3.328,2.508c3.015,2,3.647,3.174,3.181,4.857-.381,1.37-1.318,2.363-3.6,1.759a3.524,3.524,0,0,1-2.761-4.24l-1.507-.4-1.517-.361-3.034-.721a7.958,7.958,0,0,0,.854,5.4,7.417,7.417,0,0,0,1.774,2.024,11.209,11.209,0,0,0,2.638,1.589l-.836,3.225,4.729,1.25.881-3.2a12.362,12.362,0,0,0,3,.022,7.07,7.07,0,0,0,2.545-.829A7.472,7.472,0,0,0,1818.762,637.855Z" transform="translate(-1780.95 -601.42)" fill="#fdcc30"/>
      <path id="Trazado_153219" data-name="Trazado 153219" d="M1809.288,653.633a24.05,24.05,0,0,1-11.622,13.317,25.032,25.032,0,0,1-8.3,2.607,21.788,21.788,0,0,1-4.4.115q-.553-.042-1.108-.113c-.372-.041-.745-.086-1.118-.145a21.727,21.727,0,0,1-6.339-2.009,23.551,23.551,0,0,1-3.672-2.184,24.977,24.977,0,0,1-5.83-6.121,323.722,323.722,0,0,1,41.022-22.69A21.319,21.319,0,0,1,1809.288,653.633Z" transform="translate(-1756.797 -617.619)" fill="#eaeaea" opacity="0.3" style="mix-blend-mode: multiply;isolation: isolate"/>
    </g>
    <g id="Grupo_137029" data-name="Grupo 137029" transform="translate(853.813 405.302)">
      <path id="Trazado_153220" data-name="Trazado 153220" d="M2124.781,774.454a23.724,23.724,0,0,1-7.166,5.714,24.987,24.987,0,0,1-4.089,1.694c-.7.222-1.391.4-2.108.567s-1.434.3-2.153.4a23.987,23.987,0,0,1-4.3.232q-1.066-.04-2.115-.18c-.708-.084-1.42-.19-2.118-.336a20.666,20.666,0,0,1-4.075-1.29c-.329-.143-.652-.3-.977-.456s-.658-.313-.981-.484a20.37,20.37,0,0,1-3.663-2.474c-.558-.473-1.082-.979-1.6-1.476a20.873,20.873,0,0,1-2.74-3.316q-.6-.9-1.109-1.85c-.342-.634-.674-1.261-.965-1.918a23.836,23.836,0,0,1-1.4-4.1,25.943,25.943,0,0,1-.674-4.351,24.355,24.355,0,0,1,.068-4.431,23.342,23.342,0,0,1,2.723-8.744,21.033,21.033,0,0,1,14.3-10.651,24.016,24.016,0,0,1,4.687-.507,21.81,21.81,0,0,1,2.418.1q1.206.13,2.422.378a27.68,27.68,0,0,1,4.842,1.468,20.08,20.08,0,0,1,2.355,1.133q1.158.639,2.282,1.4t2.148,1.6q.513.418,1,.854c.321.3.63.608.931.92a27.861,27.861,0,0,1,3.19,3.965,24.2,24.2,0,0,1,1.26,2.119q.557,1.1,1,2.232a23.96,23.96,0,0,1,1.289,4.562,22.207,22.207,0,0,1,.283,2.293,20.013,20.013,0,0,1,.018,2.309,20.87,20.87,0,0,1-4.983,12.623Z" transform="translate(-2076.695 -730.484)" fill="#f3ad29"/>
      <g id="Grupo_137026" data-name="Grupo 137026" transform="translate(4.596 4.998)" style="mix-blend-mode: color-burn;isolation: isolate">
        <path id="Trazado_153221" data-name="Trazado 153221" d="M2125.746,763.643a21.842,21.842,0,0,0,.83-6.934,22.6,22.6,0,0,0-.245-2.362,24.574,24.574,0,0,0-1.242-4.723q-.434-1.17-.989-2.316a23.884,23.884,0,0,0-1.262-2.2,28.634,28.634,0,0,0-3.175-4.091c-.3-.319-.6-.638-.919-.941s-.646-.589-.979-.873q-1-.853-2.08-1.622t-2.223-1.439a20.888,20.888,0,0,0-2.35-1.217,28.557,28.557,0,0,0-4.979-1.677q-1.27-.3-2.549-.472c-.861-.1-1.721-.152-2.576-.166a24.505,24.505,0,0,0-5.032.427,22.754,22.754,0,0,0-2.4.6,21.619,21.619,0,0,0-2.307.878,21.828,21.828,0,0,0-10.394,9.646,24.408,24.408,0,0,0-1.833,4.4,24.963,24.963,0,0,0-.936,4.677,25.237,25.237,0,0,0-.035,4.735c.066.784.174,1.553.308,2.327s.3,1.546.5,2.3a24.25,24.25,0,0,0,1.6,4.33q.5,1.027,1.082,1.99c.378.657.783,1.293,1.217,1.9a21.117,21.117,0,0,0,2.934,3.315c.548.486,1.089.977,1.66,1.428a20.436,20.436,0,0,0,3.667,2.324q.488.241.988.457c.33.147.656.3.99.431a21.365,21.365,0,0,0,4.166,1.221c.717.139,1.451.234,2.179.308s1.449.129,2.182.142a25.094,25.094,0,0,0,4.432-.325q1.11-.181,2.211-.458c.728-.179,1.44-.38,2.151-.618a25.724,25.724,0,0,0,4.134-1.795,24.315,24.315,0,0,0,7.006-5.676A21.6,21.6,0,0,0,2125.746,763.643Zm-11.326,13.538a24.252,24.252,0,0,1-4.146,1.688,27.014,27.014,0,0,1-4.343.927,22.8,22.8,0,0,1-4.351.127c-.716-.046-1.417-.134-2.119-.243s-1.411-.232-2.1-.4a19.824,19.824,0,0,1-3.938-1.409c-.616-.308-1.241-.617-1.843-.962a19.955,19.955,0,0,1-1.744-1.122,21.475,21.475,0,0,1-3.1-2.744,20.823,20.823,0,0,1-2.573-3.258q-.564-.881-1.048-1.821c-.161-.312-.313-.632-.463-.95s-.3-.632-.436-.953a22.394,22.394,0,0,1-1.291-4.029,25.088,25.088,0,0,1-.4-8.521,22.555,22.555,0,0,1,2.633-8.091,20.86,20.86,0,0,1,5.566-6.477,20.467,20.467,0,0,1,7.931-3.7,23.537,23.537,0,0,1,4.552-.583q.584-.018,1.174-.008c.39.012.779.039,1.17.074.781.069,1.567.178,2.352.326a26.832,26.832,0,0,1,4.668,1.315,25.681,25.681,0,0,1,4.394,2.272q1.05.672,2.042,1.435a19.45,19.45,0,0,1,1.895,1.63,27.14,27.14,0,0,1,3.243,3.784q.712,1.011,1.32,2.074a23.85,23.85,0,0,1,1.07,2.215,23.37,23.37,0,0,1,1.419,4.6,19.788,19.788,0,0,1,.375,4.675,20.564,20.564,0,0,1-.682,4.564,20.264,20.264,0,0,1-1.659,4.226,21.781,21.781,0,0,1-2.529,3.745A23.316,23.316,0,0,1,2114.42,777.182Z" transform="translate(-2077.974 -732.613)" fill="#c3c3c3"/>
      </g>
      <g id="Grupo_137028" data-name="Grupo 137028">
        <path id="Trazado_153222" data-name="Trazado 153222" d="M2113.147,761.542a30.178,30.178,0,0,1-9.155,6.906,33.734,33.734,0,0,1-10.469,3.179q-1.328.17-2.646.223c-.879.037-1.783.061-2.662.031a27.014,27.014,0,0,1-5.186-.651,26.189,26.189,0,0,1-5-1.551q-.6-.259-1.194-.552l-1.182-.606a24.017,24.017,0,0,1-2.319-1.384q-.937-.633-1.8-1.338-.43-.353-.841-.723c-.276-.245-.557-.482-.826-.733a24.423,24.423,0,0,1-2.426-2.584q-.558-.688-1.069-1.413-.255-.362-.5-.734c-.166-.243-.331-.485-.491-.732q-.437-.67-.829-1.367a26.616,26.616,0,0,1-1.425-2.888,32.56,32.56,0,0,1-2.422-9.117,31.641,31.641,0,0,1-.107-6.223,29.461,29.461,0,0,1,3.2-11.347,26.051,26.051,0,0,1,17.716-13.659,24.811,24.811,0,0,1,2.922-.5q1.475-.157,2.994-.169a32.8,32.8,0,0,1,6.168.546,33.373,33.373,0,0,1,12.11,5.116q1.482,1,2.833,2.108a30.285,30.285,0,0,1,2.525,2.373q1.189,1.236,2.232,2.546.521.654,1,1.323c.161.223.32.446.473.673l.444.7a32.365,32.365,0,0,1,3.017,6.264q.223.623.416,1.249c.128.419.238.852.342,1.279q.31,1.283.5,2.566a26.977,26.977,0,0,1,.279,5.082,23.075,23.075,0,0,1-.37,3.444q-.154.858-.37,1.7a25.624,25.624,0,0,1-2.981,7.062A27.585,27.585,0,0,1,2113.147,761.542Zm-4.947-3.523.382-.445a21.131,21.131,0,0,0,3.849-6.722c.2-.559.367-1.122.511-1.7a20.61,20.61,0,0,0,.575-3.459,19.878,19.878,0,0,0-.2-5.045,23.906,23.906,0,0,0-1.4-5,23.341,23.341,0,0,0-3.558-6.076,28.48,28.48,0,0,0-2.685-2.946,29.052,29.052,0,0,0-3.229-2.526q-1.122-.758-2.282-1.4a20.049,20.049,0,0,0-2.355-1.133,27.694,27.694,0,0,0-4.842-1.468q-1.215-.248-2.423-.378a21.741,21.741,0,0,0-2.418-.1,24,24,0,0,0-4.687.507,21.142,21.142,0,0,0-14.3,10.651,23.06,23.06,0,0,0-2.411,6.7,23.777,23.777,0,0,0-.388,6.335,24.682,24.682,0,0,0,2.376,9.212,30.744,30.744,0,0,0,1.615,2.887c.3.467.625.927.968,1.37a20.492,20.492,0,0,0,2.441,2.675,20.838,20.838,0,0,0,2.865,2.336l.458.3a23.489,23.489,0,0,0,16,3.35,26.213,26.213,0,0,0,8.1-2.539A23.84,23.84,0,0,0,2108.2,758.019Z" transform="translate(-2060.497 -713.605)" fill="#fdcc30"/>
        <g id="Grupo_137027" data-name="Grupo 137027" transform="translate(0 15.385)" opacity="0.33">
          <path id="Trazado_153223" data-name="Trazado 153223" d="M2066.337,810.758q-2.844.826-5.628,1.685a31.641,31.641,0,0,1-.107-6.223q3.026-.917,6.123-1.8A23.777,23.777,0,0,0,2066.337,810.758Z" transform="translate(-2060.497 -795.927)" fill="#fff"/>
          <path id="Trazado_153224" data-name="Trazado 153224" d="M2252.4,778.378q-3.194.17-6.326.394a23.341,23.341,0,0,0-3.558-6.076l3.422-.316c1.144-.1,2.305-.209,3.445-.266A32.365,32.365,0,0,1,2252.4,778.378Z" transform="translate(-2194.652 -772.114)" fill="#fff"/>
          <path id="Trazado_153225" data-name="Trazado 153225" d="M2077.711,866.437c-.968.251-1.923.5-2.884.76l-2.889.829a26.573,26.573,0,0,1-1.425-2.888q2.76-.811,5.583-1.589A30.692,30.692,0,0,0,2077.711,866.437Z" transform="translate(-2067.879 -839.506)" fill="#fff"/>
          <path id="Trazado_153226" data-name="Trazado 153226" d="M2266.411,838.077c-2.168.057-4.338.167-6.471.28a20.635,20.635,0,0,0,.575-3.459q3.1-.16,6.266-.264A23.107,23.107,0,0,1,2266.411,838.077Z" transform="translate(-2207.495 -818.193)" fill="#fff"/>
          <path id="Trazado_153227" data-name="Trazado 153227" d="M2090.761,885.055q-1.82.411-3.612.839c-1.195.285-2.376.57-3.58.9a24.418,24.418,0,0,1-2.426-2.584q-.558-.687-1.069-1.413-.255-.363-.5-.734c-.166-.243-.331-.485-.491-.732.992-.294,1.963-.552,2.946-.813l2.966-.773a20.492,20.492,0,0,0,2.441,2.675,20.847,20.847,0,0,0,2.865,2.336Z" transform="translate(-2074.197 -851.44)" fill="#fff"/>
          <path id="Trazado_153228" data-name="Trazado 153228" d="M2241.906,861.644l.382-.445a21.136,21.136,0,0,0,3.849-6.722l3.3-.17,1.664-.073,1.649-.033a25.61,25.61,0,0,1-2.981,7.062q-1.981.056-3.934.138c-.647.023-1.3.062-1.964.108Z" transform="translate(-2194.203 -832.615)" fill="#fff"/>
        </g>
      </g>
      <path id="Trazado_153229" data-name="Trazado 153229" d="M2142.227,794.761a6.378,6.378,0,0,0,1.335-4.978,10.351,10.351,0,0,0-.987-2.972,19.084,19.084,0,0,0-.931-1.671c-.367-.57-.792-1.153-1.266-1.768-2.465-3.267-2.7-4.3-1.838-5.6.812-1.236,2.25-1.322,3.535-.454,2.155,1.456,1.708,3.027,1.083,4.256.448.295.883.609,1.317.925l1.3.943,2.609,1.887a6.4,6.4,0,0,0,1.187-4.764,7.387,7.387,0,0,0-.9-2.457,10.191,10.191,0,0,0-1.9-2.408l1.522-2.2-4.528-3.06-1.431,2.162a12.576,12.576,0,0,0-1.495-.615,10.326,10.326,0,0,0-1.469-.338,7.587,7.587,0,0,0-2.731.053,6.558,6.558,0,0,0-4.25,3.138,6.211,6.211,0,0,0-.929,5c.421,1.784,1.627,3.726,3.547,6.292,2.182,2.881,2.384,4.189,1.388,5.622-.814,1.166-2.023,1.8-3.96.489-1.75-1.182-2.153-2.886-1.194-4.9-1.736-1.12-3.492-2.21-5.237-3.317a8.1,8.1,0,0,0-.929,5.392,7.4,7.4,0,0,0,1,2.477,9.276,9.276,0,0,0,.87,1.166,12.955,12.955,0,0,0,1.089,1.149l-1.839,2.779,3.969,2.681,1.89-2.728a12.5,12.5,0,0,0,2.782.991,7,7,0,0,0,2.649.054A7.591,7.591,0,0,0,2142.227,794.761Z" transform="translate(-2107.996 -755.501)" fill="#fdcc30"/>
      <path id="Trazado_153230" data-name="Trazado 153230" d="M2127.259,834.168a23.728,23.728,0,0,1-7.167,5.714,25,25,0,0,1-4.089,1.695c-.7.221-1.392.4-2.108.566s-1.434.3-2.153.4a23.964,23.964,0,0,1-4.3.232q-1.066-.04-2.115-.18c-.708-.084-1.42-.189-2.117-.336a20.641,20.641,0,0,1-4.075-1.29c-.329-.143-.652-.3-.977-.456s-.657-.313-.981-.484a20.362,20.362,0,0,1-3.61-2.43c-.545-.454-1.05-.948-1.559-1.426a20.842,20.842,0,0,1-2.686-3.188,25.253,25.253,0,0,1-3.489-7.556,226.36,226.36,0,0,1,46.2-7.912,21.572,21.572,0,0,1,.219,2.22,21.957,21.957,0,0,1-.035,2.237,20.854,20.854,0,0,1-4.959,12.188Z" transform="translate(-2079.172 -790.197)" fill="#eaeaea" opacity="0.3" style="mix-blend-mode: multiply;isolation: isolate"/>
    </g>
    <g id="Grupo_137032" data-name="Grupo 137032" transform="translate(850.372 532.658)">
      <g id="Grupo_137030" data-name="Grupo 137030">
        <circle id="Elipse_5238" data-name="Elipse 5238" cx="30.391" cy="30.391" r="30.391" transform="translate(0 42.979) rotate(-45)" fill="#6229dd"/>
      </g>
      <g id="Grupo_137031" data-name="Grupo 137031" transform="translate(24.47 31.443)">
        <path id="Trazado_153231" data-name="Trazado 153231" d="M2153.749,1345.614l-13.279-13.357,4.465-4.439,8.927,8.979,20.188-19.295,4.35,4.551Z" transform="translate(-2140.47 -1317.502)" fill="#f2f2f2"/>
      </g>
    </g>
    <g id="Grupo_137037" data-name="Grupo 137037" transform="translate(464.923 583.036)">
      <g id="Grupo_137033" data-name="Grupo 137033" transform="translate(0 0)">
        <path id="Trazado_153232" data-name="Trazado 153232" d="M693.6,1409.822v12.558a9.392,9.392,0,0,1-9.392,9.392H590.972a9.39,9.39,0,0,1-9.392-9.392v-12.558a9.392,9.392,0,0,1,9.392-9.392h93.237a9.392,9.392,0,0,1,9.392,9.392Z" transform="translate(-581.58 -1397.559)" fill="#f3ad29"/>
        <path id="Trazado_153233" data-name="Trazado 153233" d="M693.6,1398.9v12.557a9.393,9.393,0,0,1-9.392,9.392H590.972a9.389,9.389,0,0,1-9.392-9.392V1398.9a9.392,9.392,0,0,1,9.392-9.392h93.237a9.392,9.392,0,0,1,9.392,9.392Z" transform="translate(-581.58 -1389.511)" fill="#fdcc30"/>
        <path id="Trazado_153234" data-name="Trazado 153234" d="M690.294,1391.748c-42.879.3-86.461,11.211-107.307,24.659a9.344,9.344,0,0,1-1.407-4.947V1398.9a9.392,9.392,0,0,1,9.392-9.392h93.237A9.356,9.356,0,0,1,690.294,1391.748Z" transform="translate(-581.58 -1389.511)" fill="#f7f7f7" style="mix-blend-mode: multiply;isolation: isolate"/>
      </g>
      <g id="Grupo_137036" data-name="Grupo 137036" transform="translate(26.021 6.99)">
        <g id="Grupo_137034" data-name="Grupo 137034" transform="translate(1.195 1.195)" style="mix-blend-mode: multiply;isolation: isolate">
          <path id="Trazado_153235" data-name="Trazado 153235" d="M685.858,1433.906a9.774,9.774,0,0,0,4.247,1.056c1.759,0,2.689-.729,2.689-1.835,0-1.055-.8-1.659-2.84-2.387-2.815-.98-4.65-2.539-4.65-5,0-2.89,2.413-5.1,6.409-5.1a10.374,10.374,0,0,1,4.323.855l-.854,3.091a8.055,8.055,0,0,0-3.544-.8c-1.659,0-2.463.754-2.463,1.634,0,1.081.955,1.558,3.142,2.388,2.991,1.106,4.4,2.664,4.4,5.051,0,2.84-2.187,5.253-6.836,5.253a11.088,11.088,0,0,1-4.8-1.03Z" transform="translate(-685.079 -1420.636)" fill="#e6e6e6"/>
          <path id="Trazado_153236" data-name="Trazado 153236" d="M749.252,1431.463h-6.233v4.021h6.961v3.141H739.174v-16.939h10.455v3.141h-6.61v3.519h6.233Z" transform="translate(-724.949 -1421.411)" fill="#e6e6e6"/>
          <path id="Trazado_153237" data-name="Trazado 153237" d="M790.21,1438.626v-16.939h4.474l3.518,6.208a49.108,49.108,0,0,1,2.764,5.805h.075a62.838,62.838,0,0,1-.327-7.062v-4.951h3.518v16.939h-4.021l-3.619-6.534a62.923,62.923,0,0,1-2.94-5.981l-.075.025c.1,2.237.151,4.624.151,7.389v5.1Z" transform="translate(-762.565 -1421.411)" fill="#e6e6e6"/>
          <path id="Trazado_153238" data-name="Trazado 153238" d="M856.155,1421.561a34.173,34.173,0,0,1,5.177-.352c3.217,0,5.3.578,6.937,1.81a7.5,7.5,0,0,1,2.865,6.384,8.591,8.591,0,0,1-2.815,6.861c-1.784,1.483-4.5,2.187-7.816,2.187a33.1,33.1,0,0,1-4.348-.252ZM860,1435.384a7.034,7.034,0,0,0,1.332.076c3.468.025,5.73-1.885,5.73-5.931.025-3.519-2.036-5.378-5.328-5.378a7.961,7.961,0,0,0-1.734.151Z" transform="translate(-811.17 -1421.058)" fill="#e6e6e6"/>
        </g>
        <g id="Grupo_137035" data-name="Grupo 137035">
          <path id="Trazado_153239" data-name="Trazado 153239" d="M681.314,1429.362a9.773,9.773,0,0,0,4.247,1.056c1.759,0,2.689-.729,2.689-1.835,0-1.056-.8-1.659-2.84-2.387-2.815-.98-4.649-2.539-4.649-5,0-2.89,2.413-5.1,6.409-5.1a10.38,10.38,0,0,1,4.323.855l-.854,3.091a8.052,8.052,0,0,0-3.544-.8c-1.659,0-2.463.754-2.463,1.634,0,1.08.955,1.558,3.141,2.387,2.991,1.106,4.4,2.664,4.4,5.052,0,2.84-2.186,5.252-6.836,5.252a11.088,11.088,0,0,1-4.8-1.03Z" transform="translate(-680.535 -1416.092)" fill="#fff"/>
          <path id="Trazado_153240" data-name="Trazado 153240" d="M744.708,1426.921h-6.233v4.021h6.961v3.141H734.63v-16.939h10.455v3.141h-6.61v3.519h6.233Z" transform="translate(-720.405 -1416.867)" fill="#fff"/>
          <path id="Trazado_153241" data-name="Trazado 153241" d="M785.666,1434.083v-16.939h4.474l3.518,6.208a49.089,49.089,0,0,1,2.764,5.805h.075a62.852,62.852,0,0,1-.327-7.062v-4.951h3.518v16.939h-4.021l-3.619-6.534a62.913,62.913,0,0,1-2.94-5.981l-.075.025c.1,2.237.151,4.625.151,7.389v5.1Z" transform="translate(-758.021 -1416.867)" fill="#fff"/>
          <path id="Trazado_153242" data-name="Trazado 153242" d="M851.611,1417.017a34.206,34.206,0,0,1,5.177-.352c3.217,0,5.3.578,6.937,1.81a7.5,7.5,0,0,1,2.865,6.384,8.592,8.592,0,0,1-2.815,6.861c-1.784,1.483-4.5,2.187-7.816,2.187a33.151,33.151,0,0,1-4.348-.251Zm3.845,13.823a7.047,7.047,0,0,0,1.332.075c3.468.025,5.73-1.885,5.73-5.931.025-3.519-2.036-5.378-5.328-5.378a7.96,7.96,0,0,0-1.734.151Z" transform="translate(-806.626 -1416.514)" fill="#fff"/>
        </g>
      </g>
    </g>
    <g id="Grupo_137053" data-name="Grupo 137053" transform="translate(457.959 448.073)">
      <g id="Grupo_137040" data-name="Grupo 137040" transform="translate(0)">
        <g id="Grupo_137038" data-name="Grupo 137038">
          <path id="Trazado_153243" data-name="Trazado 153243" d="M681.874,887l-.058,77.37a10.652,10.652,0,0,1-10.661,10.644l-105.412-.078a10.653,10.653,0,0,1-10.646-10.66l.058-77.369a10.654,10.654,0,0,1,10.661-10.646l105.413.079A10.653,10.653,0,0,1,681.874,887Z" transform="translate(-555.097 -876.258)" fill="#5825c4"/>
        </g>
        <g id="Grupo_137039" data-name="Grupo 137039" transform="translate(10.539 90.188)" style="mix-blend-mode: multiply;isolation: isolate">
          <path id="Trazado_153244" data-name="Trazado 153244" d="M699.882,1221.29q-3.272.324-6.545.554c-2.182.161-4.363.295-6.544.422-4.363.248-8.726.433-13.089.584q-13.089.434-26.177.416t-26.176-.45c-4.363-.156-8.725-.349-13.088-.6-2.181-.131-4.362-.269-6.544-.434s-4.362-.347-6.544-.567q3.272-.325,6.544-.557c2.182-.161,4.363-.3,6.544-.424,4.363-.249,8.726-.434,13.089-.585q13.089-.433,26.177-.411t26.176.455c4.363.157,8.725.349,13.088.6,2.181.13,4.363.268,6.544.432S697.7,1221.072,699.882,1221.29Z" transform="translate(-595.176 -1219.236)" fill="#cacaca"/>
        </g>
      </g>
      <g id="Grupo_137052" data-name="Grupo 137052" transform="translate(5.893 7.511)">
        <g id="Grupo_137041" data-name="Grupo 137041" transform="translate(0.464 0.465)">
          <path id="Trazado_153245" data-name="Trazado 153245" d="M692.405,911.38l-.055,74.06a4.71,4.71,0,0,1-4.715,4.708l-103.655-.077a4.71,4.71,0,0,1-4.708-4.715l.055-74.06a4.71,4.71,0,0,1,4.715-4.708l103.655.077A4.71,4.71,0,0,1,692.405,911.38Z" transform="translate(-579.273 -906.588)" fill="#6229dd"/>
        </g>
        <g id="Grupo_137042" data-name="Grupo 137042">
          <path id="Trazado_153246" data-name="Trazado 153246" d="M686.334,989.31l-3.182,0a.465.465,0,0,1,0-.93l3.182,0a4.3,4.3,0,0,0,.761-.067.465.465,0,1,1,.165.915A5.217,5.217,0,0,1,686.334,989.31Zm-7.213-.005-4.031,0a.465.465,0,1,1,0-.93l4.031,0a.465.465,0,0,1,0,.93Zm-8.061-.006-4.031,0a.465.465,0,0,1,0-.93l4.031,0a.465.465,0,1,1,0,.93ZM663,989.292l-4.031,0a.465.465,0,0,1,0-.93l4.031,0a.465.465,0,1,1,0,.93Zm-8.061-.006-4.031,0a.465.465,0,0,1,0-.93l4.031,0a.465.465,0,1,1,0,.93Zm-8.061-.006-4.031,0a.465.465,0,1,1,0-.93l4.031,0a.465.465,0,1,1,0,.93Zm-8.061-.006-4.031,0a.465.465,0,0,1,0-.93l4.031,0a.465.465,0,1,1,0,.93Zm-8.061-.006-4.031,0a.465.465,0,0,1,0-.93l4.031,0a.465.465,0,0,1,0,.93Zm-8.061-.006-4.031,0a.465.465,0,0,1,0-.93l4.031,0a.465.465,0,1,1,0,.93Zm-8.061-.006-4.031,0a.465.465,0,0,1,0-.93l4.031,0a.465.465,0,1,1,0,.93Zm-8.061-.006-4.031,0a.465.465,0,0,1,0-.93l4.031,0a.465.465,0,1,1,0,.93Zm-8.061-.006-4.031,0a.465.465,0,1,1,0-.93l4.031,0a.465.465,0,1,1,0,.93Zm-8.061-.006-4.031,0a.465.465,0,1,1,0-.93l4.031,0a.465.465,0,1,1,0,.93Zm-8.061-.015h-.029a5.172,5.172,0,0,1-3.787-2.023.465.465,0,0,1,.739-.565,4.242,4.242,0,0,0,3.106,1.66.465.465,0,0,1-.029.929Zm108-2.218a.465.465,0,0,1-.4-.7,4.243,4.243,0,0,0,.595-2.165v-1.508a.465.465,0,0,1,.93,0v1.508a5.169,5.169,0,0,1-.726,2.64A.464.464,0,0,1,690.387,987.005Zm-112.416-3.44a.465.465,0,0,1-.465-.465l0-4.031a.465.465,0,0,1,.93,0l0,4.031A.465.465,0,0,1,577.972,983.565Zm113.08-4.5a.465.465,0,0,1-.465-.465l0-4.031a.465.465,0,1,1,.93,0l0,4.031A.465.465,0,0,1,691.052,979.064ZM577.978,975.5a.465.465,0,0,1-.465-.465l0-4.031a.465.465,0,0,1,.93,0l0,4.031A.465.465,0,0,1,577.978,975.5Zm113.08-4.5a.465.465,0,0,1-.465-.465l0-4.031a.465.465,0,0,1,.93,0l0,4.031A.465.465,0,0,1,691.058,971Zm-113.074-3.56a.465.465,0,0,1-.465-.465l0-4.031a.465.465,0,0,1,.93,0l0,4.031A.465.465,0,0,1,577.984,967.442Zm113.08-4.5a.465.465,0,0,1-.465-.465l0-4.031a.465.465,0,0,1,.93,0l0,4.031A.465.465,0,0,1,691.064,962.941Zm-113.074-3.56a.465.465,0,0,1-.465-.465l0-4.031a.465.465,0,1,1,.93,0l0,4.031A.465.465,0,0,1,577.99,959.381Zm113.08-4.5a.465.465,0,0,1-.465-.465l0-4.031a.465.465,0,0,1,.93,0l0,4.031A.465.465,0,0,1,691.07,954.879ZM578,951.319a.465.465,0,0,1-.465-.465l0-4.031a.465.465,0,0,1,.93,0l0,4.031A.466.466,0,0,1,578,951.319Zm113.08-4.5a.465.465,0,0,1-.465-.465l0-4.031a.465.465,0,1,1,.93,0l0,4.031A.465.465,0,0,1,691.076,946.818ZM578,943.258a.465.465,0,0,1-.465-.465l0-4.031a.465.465,0,1,1,.93,0l0,4.031A.466.466,0,0,1,578,943.258Zm113.08-4.5a.465.465,0,0,1-.465-.465l0-4.031a.465.465,0,1,1,.93,0l0,4.031A.465.465,0,0,1,691.082,938.757ZM578.008,935.2a.465.465,0,0,1-.465-.465l0-4.031a.465.465,0,0,1,.93,0l0,4.031A.465.465,0,0,1,578.008,935.2Zm113.081-4.5a.465.465,0,0,1-.465-.465l0-4.031a.465.465,0,1,1,.93,0l0,4.031A.465.465,0,0,1,691.088,930.7Zm-113.075-3.56a.465.465,0,0,1-.465-.465l0-4.031a.465.465,0,0,1,.93,0l0,4.031A.465.465,0,0,1,578.014,927.135Zm113.08-4.5a.465.465,0,0,1-.465-.465l0-4.031a.465.465,0,1,1,.93,0l0,4.031A.465.465,0,0,1,691.094,922.634Zm-113.074-3.56a.465.465,0,0,1-.465-.465l0-4.031a.465.465,0,0,1,.93,0l0,4.031A.465.465,0,0,1,578.02,919.074Zm113.08-4.5a.465.465,0,0,1-.465-.465l0-4.031a.465.465,0,0,1,.93,0l0,4.031A.465.465,0,0,1,691.1,914.572Zm-113.074-3.56a.465.465,0,0,1-.465-.465v-.555a5.163,5.163,0,0,1,1.348-3.48.465.465,0,1,1,.688.626,4.235,4.235,0,0,0-1.105,2.854v.555A.465.465,0,0,1,578.026,911.012Zm112.61-2.524a.465.465,0,0,1-.419-.262,4.246,4.246,0,0,0-2.71-2.251.465.465,0,1,1,.243-.9,5.177,5.177,0,0,1,3.3,2.743.465.465,0,0,1-.419.668Zm-7.023-2.663-4.031,0a.465.465,0,1,1,0-.93l4.031,0a.465.465,0,0,1,0,.93Zm-8.061-.006-4.031,0a.465.465,0,1,1,0-.93l4.031,0a.465.465,0,1,1,0,.93Zm-8.061-.006-4.031,0a.465.465,0,1,1,0-.93l4.031,0a.465.465,0,0,1,0,.93Zm-8.061-.006-4.031,0a.465.465,0,0,1,0-.93l4.031,0a.465.465,0,1,1,0,.93Zm-8.061-.006-4.031,0a.465.465,0,1,1,0-.93l4.031,0a.465.465,0,0,1,0,.93Zm-8.061-.006-4.031,0a.465.465,0,1,1,0-.93l4.031,0a.465.465,0,1,1,0,.93Zm-8.061-.006-4.031,0a.465.465,0,1,1,0-.93l4.031,0a.465.465,0,0,1,0,.93Zm-8.061-.006-4.031,0a.465.465,0,1,1,0-.93l4.031,0a.465.465,0,0,1,0,.93Zm-8.061-.006-4.031,0a.465.465,0,0,1,0-.93l4.031,0a.465.465,0,0,1,0,.93Zm-8.061-.006-4.031,0a.465.465,0,0,1,0-.93l4.031,0a.465.465,0,1,1,0,.93ZM603,905.765l-4.031,0a.465.465,0,1,1,0-.93l4.031,0a.465.465,0,0,1,0,.93Zm-8.061-.006-4.031,0a.465.465,0,1,1,0-.93l4.031,0a.465.465,0,1,1,0,.93Zm-8.061-.006-4.031,0a.465.465,0,1,1,0-.93l4.031,0a.465.465,0,0,1,0,.93Z" transform="translate(-577.507 -904.82)" fill="#d7fffe"/>
        </g>
        <g id="Grupo_137043" data-name="Grupo 137043" transform="translate(79.232 28.105)" style="mix-blend-mode: multiply;isolation: isolate">
          <path id="Trazado_153247" data-name="Trazado 153247" d="M893.306,1011.7a14.477,14.477,0,1,0-.022,28.953l27.147.02.022-28.953Z" transform="translate(-878.819 -1011.702)" fill="#b0b0b0"/>
        </g>
        <g id="Grupo_137044" data-name="Grupo 137044" transform="translate(80.627 29.655)">
          <path id="Trazado_153248" data-name="Trazado 153248" d="M924.363,1017.617l-.019,25.232-27.612-.021a12.616,12.616,0,1,1,.019-25.232Z" transform="translate(-884.126 -1017.597)" fill="#5825c4"/>
        </g>
        <g id="Grupo_137045" data-name="Grupo 137045" transform="translate(82.626 31.654)">
          <path id="Trazado_153249" data-name="Trazado 153249" d="M921.694,1046.448l-4.031,0a.465.465,0,1,1,0-.93l4.031,0a.465.465,0,0,1,0,.93Zm-8.061-.006-4.031,0a.465.465,0,1,1,0-.93l4.031,0a.465.465,0,0,1,0,.93Zm-8.061-.006-3.235,0c-.276,0-.555-.011-.83-.033a.465.465,0,0,1,.072-.927c.252.02.507.03.759.03l3.235,0a.465.465,0,0,1,0,.93Zm-7.879-1.132a.467.467,0,0,1-.213-.052,10.624,10.624,0,0,1-3.267-2.617.465.465,0,1,1,.712-.6,9.707,9.707,0,0,0,2.983,2.389.465.465,0,0,1-.214.878Zm-5.046-6.015a.465.465,0,0,1-.444-.327,10.588,10.588,0,0,1-.475-3.153c0-.337.016-.677.048-1.011a.465.465,0,1,1,.926.088c-.029.305-.044.616-.044.925a9.654,9.654,0,0,0,.434,2.876.465.465,0,0,1-.306.582A.46.46,0,0,1,892.646,1039.289Zm.75-7.815a.465.465,0,0,1-.409-.686,10.657,10.657,0,0,1,1.855-2.485,10.839,10.839,0,0,1,.818-.738.465.465,0,0,1,.587.722,9.969,9.969,0,0,0-.747.674,9.719,9.719,0,0,0-1.693,2.268A.465.465,0,0,1,893.4,1031.474Zm6.1-4.943a.465.465,0,0,1-.129-.912,10.669,10.669,0,0,1,2.982-.42h1.141a.465.465,0,0,1,0,.93H902.35a9.725,9.725,0,0,0-2.722.383A.464.464,0,0,1,899.5,1026.531Zm28.177-.383-4.031,0a.465.465,0,0,1,0-.93l4.031,0a.465.465,0,1,1,0,.93Zm-8.061-.006-4.031,0a.465.465,0,1,1,0-.93l4.031,0a.465.465,0,0,1,0,.93Zm-8.061-.006-4.031,0a.465.465,0,0,1,0-.93l4.031,0a.465.465,0,0,1,0,.93Zm18.2,19.388-4.031,0a.465.465,0,0,0,0,.93l4.031,0a.449.449,0,0,0,.194-.043v-.843A.446.446,0,0,0,929.755,1045.524Z" transform="translate(-891.727 -1025.199)" fill="#d7fffe"/>
        </g>
        <g id="Grupo_137046" data-name="Grupo 137046" transform="translate(0.468 0.465)" opacity="0.09">
          <path id="Trazado_153250" data-name="Trazado 153250" d="M664.079,906.648c-12.68,35-44.448,62.72-84.793,74.122l.052-69.474a4.71,4.71,0,0,1,4.715-4.708Z" transform="translate(-579.286 -906.588)" fill="#fff"/>
        </g>
        <g id="Grupo_137047" data-name="Grupo 137047" transform="translate(80.627 29.655)" opacity="0.09">
          <path id="Trazado_153251" data-name="Trazado 153251" d="M896.752,1017.6l27.612.021-.005,6.862c-8.278,7.187-22.311,12.02-38.356,12.359a12.617,12.617,0,0,1,10.749-19.242Z" transform="translate(-884.126 -1017.597)" fill="#fff"/>
        </g>
        <g id="Grupo_137051" data-name="Grupo 137051" transform="translate(83.438 31.659)">
          <g id="Grupo_137048" data-name="Grupo 137048">
            <circle id="Elipse_5239" data-name="Elipse 5239" cx="7.592" cy="7.592" r="7.592" transform="translate(0 12.232) rotate(-53.669)" fill="#b9d8d4"/>
          </g>
          <g id="Grupo_137049" data-name="Grupo 137049" transform="translate(2.535 2.535)">
            <circle id="Elipse_5240" data-name="Elipse 5240" cx="6.993" cy="6.993" r="6.993" transform="matrix(0.17, -0.985, 0.985, 0.17, 0, 13.782)" fill="#d7fffe"/>
          </g>
          <g id="Grupo_137050" data-name="Grupo 137050" transform="translate(5.045 4.79)">
            <path id="Trazado_153252" data-name="Trazado 153252" d="M920.7,1047.3a2.113,2.113,0,0,0-.939-3.828,5.242,5.242,0,0,0-5.7,4.006,2.113,2.113,0,0,0,3.282,2.183Z" transform="translate(-914.001 -1043.434)" fill="#b9d8d4"/>
          </g>
        </g>
      </g>
    </g>
  </g>
</svg>
