<svg xmlns="http://www.w3.org/2000/svg" width="610" height="459.768" viewBox="0 0 610 459.768">
  <g id="Grupo_137174" data-name="Grupo 137174" transform="translate(-810 -410.232)">
    <path id="Trazado_152320" data-name="Trazado 152320" d="M-5673.719-757.682c-.013-1.136-.043-2.268-.043-3.406,0-157.935,127.535-286.072,285.233-287.062v-169.3c-251.2.992-454.533,204.927-454.533,456.361,0,1.137.013,2.271.022,3.406Z" transform="translate(6808.528 1627.683)" fill="#fcecdf" opacity="0.637" style="isolation: isolate"/>
    <g id="Grupo_136788" data-name="Grupo 136788" transform="translate(970.743 189.426)">
      <g id="Grupo_136767" data-name="Grupo 136767" transform="translate(-160.743 259.584)">
        <rect id="Rectángulo_35688" data-name="Rectángulo 35688" width="284.842" height="194.355" rx="31.5" transform="translate(1.593 1.593)" fill="#fff"/>
        <g id="Grupo_136732" data-name="Grupo 136732" transform="translate(0 0)">
          <path id="Trazado_152258" data-name="Trazado 152258" d="M-159.15,348.193a1.593,1.593,0,0,1-1.593-1.593V303.326a21.69,21.69,0,0,1,21.666-21.666h169.9a1.593,1.593,0,1,1,0,3.186h-169.9a18.5,18.5,0,0,0-18.48,18.48V346.6A1.593,1.593,0,0,1-159.15,348.193Z" transform="translate(160.743 -281.66)" fill="#ccc2ff"/>
        </g>
        <g id="Grupo_136733" data-name="Grupo 136733" transform="translate(0 83.1)">
          <path id="Trazado_152259" data-name="Trazado 152259" d="M40.382,526.51H-139.077a21.691,21.691,0,0,1-21.666-21.666V413.662a1.593,1.593,0,0,1,1.593-1.593,1.593,1.593,0,0,1,1.593,1.593v91.182a18.5,18.5,0,0,0,18.48,18.48H40.382a1.593,1.593,0,0,1,0,3.186Z" transform="translate(160.743 -412.069)" fill="#ccc2ff"/>
        </g>
        <g id="Grupo_136734" data-name="Grupo 136734" transform="translate(214.825 194.355)">
          <path id="Trazado_152260" data-name="Trazado 152260" d="M186.254,589.846h-8.28a1.593,1.593,0,0,1,0-3.186h8.28a1.593,1.593,0,0,1,0,3.186Z" transform="translate(-176.381 -586.66)" fill="#ccc2ff"/>
        </g>
        <g id="Grupo_136735" data-name="Grupo 136735" transform="translate(238.399 48.262)">
          <path id="Trazado_152261" data-name="Trazado 152261" d="M241.338,506.676h-26.37a1.593,1.593,0,1,1,0-3.186h26.37a18.5,18.5,0,0,0,18.48-18.48V358.99a1.593,1.593,0,0,1,3.186,0V485.01A21.69,21.69,0,0,1,241.338,506.676Z" transform="translate(-213.375 -357.397)" fill="#ccc2ff"/>
        </g>
        <g id="Grupo_136736" data-name="Grupo 136736" transform="translate(171.733 8.921)">
          <path id="Trazado_152262" data-name="Trazado 152262" d="M128.59,297.572H109.713a.956.956,0,0,1,0-1.912H128.59a.956.956,0,0,1,0,1.912Z" transform="translate(-108.757 -295.66)" fill="#ddd6ff"/>
        </g>
        <g id="Grupo_136737" data-name="Grupo 136737" transform="translate(155.905 8.921)">
          <path id="Trazado_152263" data-name="Trazado 152263" d="M90.984,297.572h-6.11a.956.956,0,0,1,0-1.912h6.11a.956.956,0,0,1,0,1.912Z" transform="translate(-83.918 -295.66)" fill="#ddd6ff"/>
        </g>
        <g id="Grupo_136738" data-name="Grupo 136738" transform="translate(8.921 90.274)">
          <path id="Trazado_152264" data-name="Trazado 152264" d="M-145.787,435.646a.956.956,0,0,1-.956-.956V424.282a.956.956,0,0,1,.956-.956.956.956,0,0,1,.956.956V434.69A.955.955,0,0,1-145.787,435.646Z" transform="translate(146.743 -423.326)" fill="#ddd6ff"/>
        </g>
        <g id="Grupo_136739" data-name="Grupo 136739" transform="translate(8.921 112.869)">
          <path id="Trazado_152265" data-name="Trazado 152265" d="M-123.271,534.535H-134a12.759,12.759,0,0,1-12.745-12.745V459.74a.956.956,0,0,1,.956-.956.956.956,0,0,1,.956.956v62.051A10.845,10.845,0,0,0-134,532.624h10.727a.956.956,0,0,1,.956.956A.956.956,0,0,1-123.271,534.535Z" transform="translate(146.743 -458.784)" fill="#ddd6ff"/>
        </g>
        <g id="Grupo_136740" data-name="Grupo 136740" transform="translate(277.195 126.596)">
          <path id="Trazado_152266" data-name="Trazado 152266" d="M275.213,495.767a.956.956,0,0,1-.956-.956V481.282a.956.956,0,0,1,1.912,0v13.529A.956.956,0,0,1,275.213,495.767Z" transform="translate(-274.257 -480.326)" fill="#ddd6ff"/>
        </g>
        <g id="Grupo_136741" data-name="Grupo 136741" transform="translate(277.195 48.37)">
          <path id="Trazado_152267" data-name="Trazado 152267" d="M275.213,420.8a.956.956,0,0,1-.956-.956V358.522a.956.956,0,1,1,1.912,0v61.323A.955.955,0,0,1,275.213,420.8Z" transform="translate(-274.257 -357.566)" fill="#ddd6ff"/>
        </g>
        <g id="Grupo_136766" data-name="Grupo 136766" transform="translate(55.9 21.06)">
          <g id="Grupo_136742" data-name="Grupo 136742" transform="translate(103.61 92.12)">
            <path id="Trazado_152268" data-name="Trazado 152268" d="M154.6,516.057c-22.18,3.466-53.825-6.874-53.825-6.874L89.575,459.4h0a38.387,38.387,0,0,1,30.785,11.726c10.845,11.338,21.661,24.943,30.245,34.711Z" transform="translate(-89.575 -459.274)" fill="#ffc359"/>
          </g>
          <path id="Trazado_152269" data-name="Trazado 152269" d="M106.882,533.143s1.88.614,5.039,1.491a86.977,86.977,0,0,0-1.856-9.315l-3.65,5.745Z" transform="translate(7.927 -391.113)" fill="#ffa300"/>
          <g id="Grupo_136743" data-name="Grupo 136743" transform="translate(23.405 90.912)">
            <path id="Trazado_152270" data-name="Trazado 152270" d="M49.351,459.146l-21.9-1.769L3.919,459.168l-27.165,5.517a16.274,16.274,0,0,0-11.765,22.252l11.584,27.571,2.577,17.884H52.781l2.834-16.012,6.88-40.32A14.52,14.52,0,0,0,49.351,459.146Z" transform="translate(36.291 -457.377)" fill="#ffc359"/>
            <path id="Trazado_152271" data-name="Trazado 152271" d="M-12.628,523.087l-11.066,3.748,4.836,11.51,1.864,12.934C-12.226,539.546-12.628,523.087-12.628,523.087Z" transform="translate(31.721 -481.215)" fill="#ffa300"/>
          </g>
          <g id="Grupo_136746" data-name="Grupo 136746" transform="translate(51.96 86.691)">
            <g id="Grupo_136744" data-name="Grupo 136744" transform="translate(16.598 15.025)">
              <path id="Trazado_152272" data-name="Trazado 152272" d="M59.158,483.642l-13.076-9.311L34.567,485.514A27.511,27.511,0,0,0,47.925,494.2a3.56,3.56,0,0,0,3.225-.627A28.468,28.468,0,0,0,59.158,483.642Z" transform="translate(-34.567 -474.331)" fill="#3f327a"/>
              <path id="Trazado_152273" data-name="Trazado 152273" d="M68.621,545.627a504.044,504.044,0,0,0-11-51.767l-9.818.559a464.208,464.208,0,0,1,1.7,51.208Z" transform="translate(-39.369 -481.416)" fill="#3f327a"/>
            </g>
            <path id="Trazado_152274" data-name="Trazado 152274" d="M47.332,450.753A44.215,44.215,0,0,1,36.61,465.377a66.433,66.433,0,0,1-20.656-12.235,35.676,35.676,0,0,0-7.434,5.991A94.851,94.851,0,0,0,23.928,480.15c4.162-5.466,8.271-10.168,13.11-12.738A41.582,41.582,0,0,1,51.384,478.06c2.339-7.843,3.964-15.274,4.094-22.135A38.512,38.512,0,0,0,47.332,450.753Z" transform="translate(-8.52 -450.753)" fill="#ffc359"/>
            <g id="Grupo_136745" data-name="Grupo 136745" transform="translate(0.077 5.764)">
              <path id="Trazado_152275" data-name="Trazado 152275" d="M24,485.532a.363.363,0,0,0,.232-.615A94.786,94.786,0,0,1,9.322,464.78a.363.363,0,0,0-.635.351,95.526,95.526,0,0,0,15.025,20.292A.364.364,0,0,0,24,485.532Z" transform="translate(-8.641 -461.537)" fill="#ffa300"/>
              <path id="Trazado_152276" data-name="Trazado 152276" d="M75.607,481.7a.363.363,0,0,0,.32-.259c2.5-8.387,3.832-15.344,4.071-21.269a.363.363,0,1,0-.725-.029c-.236,5.864-1.557,12.762-4.041,21.09a.362.362,0,0,0,.244.451A.357.357,0,0,0,75.607,481.7Z" transform="translate(-32.793 -459.798)" fill="#ffa300"/>
            </g>
          </g>
          <g id="Grupo_136749" data-name="Grupo 136749" transform="translate(59.394 57.572)">
            <g id="Grupo_136747" data-name="Grupo 136747" transform="translate(0)">
              <path id="Trazado_152277" data-name="Trazado 152277" d="M20.186,436.565l1.682-29.716L45.4,405.058l6.161,29.118c-1.457,5.929-5.3,10.668-10.721,14.624C32.584,446.53,25.595,442.588,20.186,436.565Z" transform="translate(-20.186 -405.058)" fill="#ff9ec9"/>
            </g>
            <g id="Grupo_136748" data-name="Grupo 136748" transform="translate(1.348)">
              <path id="Trazado_152278" data-name="Trazado 152278" d="M22.3,412.752l.334-5.9,23.534-1.791,6.161,29.118S33.781,437.331,22.3,412.752Z" transform="translate(-22.302 -405.058)" fill="#f27290"/>
            </g>
          </g>
          <path id="Trazado_152279" data-name="Trazado 152279" d="M-37.24,468.346a28.841,28.841,0,0,0-21.066,17.533A280.447,280.447,0,0,0-73.02,535.917h30.847c4.973-8.274,10.762-20.4,11.651-33.142l-.558-35.68Z" transform="translate(73.02 -369.991)" fill="#ffc359"/>
          <g id="Grupo_136759" data-name="Grupo 136759" transform="translate(90.284 37.767)">
            <g id="Grupo_136758" data-name="Grupo 136758">
              <g id="Grupo_136750" data-name="Grupo 136750" transform="translate(11.584 6.349)">
                <path id="Trazado_152280" data-name="Trazado 152280" d="M100.51,411.079,86.841,400.462,98.888,385.3h0a5.807,5.807,0,0,1,5.934-.923l2.2.9A7.927,7.927,0,0,1,111.931,393l-.452,9.2,1.415,6.587-6.836,7.444Z" transform="translate(-86.841 -383.941)" fill="#ff9ec9"/>
              </g>
              <g id="Grupo_136753" data-name="Grupo 136753">
                <g id="Grupo_136751" data-name="Grupo 136751">
                  <rect id="Rectángulo_35689" data-name="Rectángulo 35689" width="17.408" height="33.878" rx="1.156" transform="translate(0 15.51) rotate(-62.996)" fill="#fff"/>
                </g>
                <g id="Grupo_136752" data-name="Grupo 136752" transform="translate(2.076 1.908)">
                  <rect id="Rectángulo_35690" data-name="Rectángulo 35690" width="14.83" height="26.612" transform="translate(0 13.213) rotate(-62.996)" fill="#3f327a"/>
                </g>
              </g>
              <g id="Grupo_136757" data-name="Grupo 136757" transform="translate(21.19 4.022)">
                <g id="Grupo_136754" data-name="Grupo 136754" transform="translate(0.035)">
                  <path id="Trazado_152281" data-name="Trazado 152281" d="M108.6,385.762l-4.953-1.952a2.653,2.653,0,0,1-1.68-2.434h0a1.072,1.072,0,0,1,1.465-1.011l6.315,2.488a1.562,1.562,0,0,1,.881,2.027h0A1.563,1.563,0,0,1,108.6,385.762Z" transform="translate(-101.971 -380.29)" fill="#ff9ec9"/>
                </g>
                <g id="Grupo_136755" data-name="Grupo 136755" transform="translate(0 3.295)">
                  <path id="Trazado_152282" data-name="Trazado 152282" d="M110.021,388.647l-5.413.246a2.718,2.718,0,0,1-2.59-1.573h0a1.086,1.086,0,0,1,.936-1.541l6.922-.315a1.594,1.594,0,0,1,1.664,1.519h0A1.594,1.594,0,0,1,110.021,388.647Z" transform="translate(-101.916 -385.461)" fill="#ff9ec9"/>
                </g>
                <g id="Grupo_136756" data-name="Grupo 136756" transform="translate(4.541 4.546)">
                  <path id="Trazado_152283" data-name="Trazado 152283" d="M116.5,390.534l-4.5.342a2.422,2.422,0,0,1-2.9-2.074h0c-.166-.4.036-.862.386-.891l5.976-.484a1.445,1.445,0,0,1,1.378,1.473h0C116.912,389.77,117.193,390.478,116.5,390.534Z" transform="translate(-109.042 -387.424)" fill="#ff9ec9"/>
                </g>
              </g>
            </g>
            <path id="Trazado_152284" data-name="Trazado 152284" d="M141.652,491.871c-15.268-12.115-20.144-54.16-33.36-70.4l10.969-8.879c24.623,28.714,43.759,56.789,49.019,73.64,2.476,7.931-1.967,12.527-7.375,12.938C153.875,499.706,147.769,496.725,141.652,491.871Z" transform="translate(-83.039 -387.986)" fill="#ff9ec9"/>
          </g>
          <g id="Grupo_136765" data-name="Grupo 136765" transform="translate(46.997)">
            <g id="Grupo_136760" data-name="Grupo 136760" transform="translate(7.194 12.253)">
              <path id="Trazado_152285" data-name="Trazado 152285" d="M63.747,346.259c2.174,18.593-.02,44.453-9.512,51.242s-32.954-6.04-37.374-16.193-8.888-34.431,1.6-41.1S61.63,328.148,63.747,346.259Z" transform="translate(-12.021 -333.939)" fill="#ff9ec9"/>
            </g>
            <path id="Trazado_152286" data-name="Trazado 152286" d="M60.026,338.784s-.786-4.659-4.99-6.19c-9.822-3.575-33.1-1.139-36.7,5.648-4.563,8.6,2.425,18.971-3.718,23.486L8.3,371.337c.6.949-9.865-25.634-5.093-43.359,3.583-13.309,34.861-17.247,48.375-8.875C57.375,322.694,59.211,328.078,60.026,338.784Z" transform="translate(-1.175 -314.71)" fill="#3f327a"/>
            <g id="Grupo_136762" data-name="Grupo 136762" transform="translate(0 40.141)">
              <g id="Grupo_136761" data-name="Grupo 136761">
                <ellipse id="Elipse_5212" data-name="Elipse 5212" cx="6.182" cy="9.684" rx="6.182" ry="9.684" transform="translate(0 2.942) rotate(-13.767)" fill="#ff9ec9"/>
              </g>
              <path id="Trazado_152287" data-name="Trazado 152287" d="M9.475,387.079a2.642,2.642,0,0,1,2.042.3,2.472,2.472,0,0,0-.968.075c-2,.581-2.941,3.6-2.112,6.749a8.007,8.007,0,0,0,1.757,3.355,6.68,6.68,0,0,1-2.726-4.064C6.679,390.5,7.578,387.631,9.475,387.079Z" transform="translate(-3.072 -381.071)" fill="#f27290"/>
            </g>
            <g id="Grupo_136764" data-name="Grupo 136764" transform="translate(12.39 37.024)">
              <g id="Grupo_136763" data-name="Grupo 136763" transform="translate(0 6.436)">
                <rect id="Rectángulo_35691" data-name="Rectángulo 35691" width="0.947" height="12.649" transform="translate(0 0.947) rotate(-89.048)" fill="#3f327a"/>
              </g>
              <path id="Trazado_152288" data-name="Trazado 152288" d="M72.472,379.4a5.636,5.636,0,0,1,5.186-6.041l7.027-.535a5.629,5.629,0,0,1,.855,11.226l-7.027.535A5.635,5.635,0,0,1,72.472,379.4Zm5.268-4.955a4.541,4.541,0,1,0,.689,9.055l7.028-.535a4.541,4.541,0,0,0-.689-9.055Z" transform="translate(-39.141 -372.811)" fill="#3f327a"/>
              <path id="Trazado_152289" data-name="Trazado 152289" d="M39.041,381.948a5.635,5.635,0,0,1,5.186-6.04l7.027-.535a5.629,5.629,0,0,1,.855,11.226l-7.028.535A5.635,5.635,0,0,1,39.041,381.948Zm5.269-4.955A4.541,4.541,0,1,0,45,386.048l7.028-.535a4.541,4.541,0,0,0-.689-9.056Z" transform="translate(-27.013 -373.734)" fill="#3f327a"/>
            </g>
          </g>
        </g>
        <rect id="Rectángulo_35692" data-name="Rectángulo 35692" width="12.792" height="12.792" transform="translate(16.826 23.541)" fill="#ddd6ff"/>
        <rect id="Rectángulo_35693" data-name="Rectángulo 35693" width="12.792" height="12.792" transform="translate(33.567 23.541)" fill="#ddd6ff"/>
        <path id="Trazado_152290" data-name="Trazado 152290" d="M-134.339,344.923v12.792h12.792V344.923Zm11.518,11.518h-10.243V346.2h10.243Z" transform="translate(151.164 -304.61)" fill="#ddd6ff"/>
        <path id="Trazado_152291" data-name="Trazado 152291" d="M-82.915,318.6v12.792h12.792V318.6ZM-71.4,330.119H-81.641V319.876H-71.4Z" transform="translate(132.509 -295.061)" fill="#ddd6ff"/>
      </g>
      <g id="Grupo_136777" data-name="Grupo 136777" transform="translate(43.598 220.807)">
        <rect id="Rectángulo_35694" data-name="Rectángulo 35694" width="141.29" height="78.677" rx="18.332" fill="#ff819f"/>
        <path id="Trazado_152292" data-name="Trazado 152292" d="M195.082,342.242v23.28l36.3-23.28Z" transform="translate(-172.681 -264.86)" fill="#ff819f"/>
        <g id="Grupo_136776" data-name="Grupo 136776" transform="translate(20.234 21.396)">
          <g id="Grupo_136770" data-name="Grupo 136770">
            <g id="Grupo_136768" data-name="Grupo 136768">
              <path id="Trazado_152293" data-name="Trazado 152293" d="M240.563,258.286h-46.93a1.952,1.952,0,1,1,0-3.9h46.93a1.952,1.952,0,1,1,0,3.9Z" transform="translate(-191.681 -254.383)" fill="#fff"/>
            </g>
            <g id="Grupo_136769" data-name="Grupo 136769" transform="translate(65.188)">
              <path id="Trazado_152294" data-name="Trazado 152294" d="M327.662,258.286H295.931a1.952,1.952,0,0,1,0-3.9h31.731a1.952,1.952,0,1,1,0,3.9Z" transform="translate(-293.98 -254.383)" fill="#fff"/>
            </g>
          </g>
          <g id="Grupo_136773" data-name="Grupo 136773" transform="translate(0 15.99)">
            <g id="Grupo_136771" data-name="Grupo 136771">
              <path id="Trazado_152295" data-name="Trazado 152295" d="M210.865,283.38H193.633a1.952,1.952,0,1,1,0-3.9h17.232a1.952,1.952,0,1,1,0,3.9Z" transform="translate(-191.681 -279.476)" fill="#fff"/>
            </g>
            <g id="Grupo_136772" data-name="Grupo 136772" transform="translate(35.491)">
              <path id="Trazado_152296" data-name="Trazado 152296" d="M310.755,283.38H249.328a1.952,1.952,0,0,1,0-3.9h61.428a1.952,1.952,0,0,1,0,3.9Z" transform="translate(-247.376 -279.476)" fill="#fff"/>
            </g>
          </g>
          <g id="Grupo_136775" data-name="Grupo 136775" transform="translate(0 31.983)">
            <g id="Grupo_136774" data-name="Grupo 136774">
              <path id="Trazado_152297" data-name="Trazado 152297" d="M261.122,308.476h-67.49a1.952,1.952,0,1,1,0-3.9h67.49a1.952,1.952,0,1,1,0,3.9Z" transform="translate(-191.681 -304.573)" fill="#fff"/>
            </g>
          </g>
        </g>
      </g>
      <g id="Grupo_136787" data-name="Grupo 136787" transform="translate(145.415 299.407)">
        <g id="Grupo_136778" data-name="Grupo 136778" transform="translate(22.387)">
          <path id="Trazado_152298" data-name="Trazado 152298" d="M481.263,391.608c-25.165-17.256-16.3-47.454,19.333-47.454,32.04,0,41.862,29.319,15.179,47.454C500.375,402.075,481.263,391.608,481.263,391.608Z" transform="translate(-395.498 -344.154)" fill="#3f327a"/>
          <path id="Trazado_152299" data-name="Trazado 152299" d="M479.4,401.617c19.546-13.861,33.328-10.958,46.85.3C515.165,408.665,489.232,407.547,479.4,401.617Z" transform="translate(-400.025 -361.623)" fill="#fff"/>
          <path id="Trazado_152300" data-name="Trazado 152300" d="M457.884,398.837c-32.344,0-88.177,38.312-75.6,79.81,13.042,43.037-5.55,50.125-20.958,71.426-17.1,23.641,3.353,51.642,18.443,56.672s145.871,0,145.871,0c30.962-28.672,44.037-33.009,16.347-65.977-32.741-38.983-8.551-40.995-8.551-73.942S487.787,398.837,457.884,398.837Z" transform="translate(-354.84 -363.991)" fill="#3f327a"/>
          <path id="Trazado_152301" data-name="Trazado 152301" d="M428.516,570.736c13.519,35.51-5.183,38.938-17.4,47.32s-14.054,32.176-14.054,32.176,131.89,15.952,143.3.27,1.834-32.128-13.7-41.433c-23.922-14.33-10.264-39.3-10.264-39.3Z" transform="translate(-370.157 -425.999)" fill="#332963"/>
        </g>
        <g id="Grupo_136779" data-name="Grupo 136779" transform="translate(98.353 166.746)">
          <path id="Trazado_152302" data-name="Trazado 152302" d="M524.628,639.109l-10-30.823H485.693l-10,30.823s-11.086,33.8,24.47,33.8S524.628,639.109,524.628,639.109Z" transform="translate(-474.054 -606.72)" fill="#ff95a9"/>
          <path id="Trazado_152303" data-name="Trazado 152303" d="M528.724,638.218l-7.676-32.39-32.988.277-2.717,14.025C499.906,643.821,528.722,638.218,528.724,638.218Z" transform="translate(-478.149 -605.828)" fill="#f27290"/>
        </g>
        <g id="Grupo_136780" data-name="Grupo 136780" transform="translate(0 197.483)">
          <path id="Trazado_152304" data-name="Trazado 152304" d="M567.953,761.644c-7.881-25.288-30.363-68.122-44.94-90.97a27.693,27.693,0,0,0-15.405-11.623l-8.455-2.534a58.286,58.286,0,0,0-30.516-.8h0s-3.588,20.136-21.1,25.762a11.017,11.017,0,0,1-6.74,0c-17.512-5.625-21.1-25.762-21.1-25.762h0a58.288,58.288,0,0,0-30.517.8l-8.455,2.534a27.693,27.693,0,0,0-15.405,11.623c-14.577,22.848-37.059,65.682-44.94,90.971a15.061,15.061,0,0,0,1.515,12.248c5.31,8.814,17.691,23.83,40.346,23.639H526.092c22.654.191,35.036-14.824,40.346-23.639A15.06,15.06,0,0,0,567.953,761.644Z" transform="translate(-319.708 -654.063)" fill="#ffc7be"/>
          <path id="Trazado_152305" data-name="Trazado 152305" d="M492.015,690.095a17.535,17.535,0,0,0,10.676,0c15.661-5.022,22.06-19.137,24.373-26.4a25.643,25.643,0,0,0,1.316-8.887,58.374,58.374,0,0,0-6.556,1.178s-3.589,20.147-21.113,25.766a11.054,11.054,0,0,1-6.713,0c-17.523-5.62-21.113-25.766-21.113-25.766a58.4,58.4,0,0,0-6.556-1.178,25.628,25.628,0,0,0,1.315,8.887C469.956,670.958,476.354,685.073,492.015,690.095Z" transform="translate(-372.895 -654.333)" fill="#fff"/>
        </g>
        <g id="Grupo_136785" data-name="Grupo 136785" transform="translate(58.357 52.954)">
          <path id="Trazado_152306" data-name="Trazado 152306" d="M536.77,484.833c5.111,41.582-33.685,80.378-51.107,80.378s-56.218-38.8-51.108-80.378c0,0-.7-41.815,51.108-41.815S536.77,484.833,536.77,484.833Z" transform="translate(-419.561 -432.973)" fill="#ff95a9"/>
          <path id="Trazado_152307" data-name="Trazado 152307" d="M483.174,427.254c-57.669,0-60.8,60.457-54.765,72.969l3.546-2.948c0-21.63,14.809-24.041,30.412-27s29.826-10.8,31.717-26.24c3.467,19.7,39.106,12.608,39.106,51l3.98,3.98S553.506,427.254,483.174,427.254Z" transform="translate(-416.711 -427.254)" fill="#3f327a"/>
          <g id="Grupo_136782" data-name="Grupo 136782" transform="translate(77.61 3.129)">
            <g id="Grupo_136781" data-name="Grupo 136781" transform="translate(36.375 47.773)">
              <path id="Trazado_152308" data-name="Trazado 152308" d="M593.351,541.6h0a5.076,5.076,0,0,1-3.015-6.083,60.629,60.629,0,0,0,1.6-22.7,5.074,5.074,0,0,1,3.839-5.6h0c2.52-.541,5.083,1.459,5.441,4.5a69.973,69.973,0,0,1-1.85,26.194C598.588,540.87,595.77,542.49,593.351,541.6Z" transform="translate(-590.163 -507.134)" fill="#fff"/>
              <path id="Trazado_152309" data-name="Trazado 152309" d="M594.029,539.776l-1.849-.527a62.1,62.1,0,0,0,1.8-25.455l1.905-.262c6.726-1.208,13.447,5.11,12.82,14.093h0C608.061,536.608,600.519,541.918,594.029,539.776Z" transform="translate(-590.894 -509.402)" fill="#fff"/>
            </g>
            <path id="Trazado_152310" data-name="Trazado 152310" d="M536.92,432.165a51.914,51.914,0,0,1,17.826,4.6,34.458,34.458,0,0,1,7.709,5.176,34.9,34.9,0,0,1,5.943,7.094,52.318,52.318,0,0,1,6.6,17,106.975,106.975,0,0,1,2.14,18l-2.594.078a104.67,104.67,0,0,0-1.77-17.626,50.288,50.288,0,0,0-6.038-16.451,33.045,33.045,0,0,0-5.5-6.813,32.688,32.688,0,0,0-7.23-5.039,50.443,50.443,0,0,0-17.226-4.747l-3.7-.315Z" transform="translate(-533.08 -432.165)" fill="#fff"/>
          </g>
          <g id="Grupo_136784" data-name="Grupo 136784" transform="translate(0 50.902)">
            <g id="Grupo_136783" data-name="Grupo 136783">
              <path id="Trazado_152311" data-name="Trazado 152311" d="M429.536,541.6h0a5.076,5.076,0,0,0,3.015-6.083,60.63,60.63,0,0,1-1.6-22.7,5.074,5.074,0,0,0-3.839-5.6h0c-2.52-.541-5.083,1.459-5.441,4.5a69.974,69.974,0,0,0,1.85,26.194C424.3,540.87,427.117,542.49,429.536,541.6Z" transform="translate(-414.875 -507.134)" fill="#fff"/>
              <path id="Trazado_152312" data-name="Trazado 152312" d="M426,539.776l1.849-.527a62.1,62.1,0,0,1-1.8-25.455l-1.905-.262c-6.726-1.208-13.447,5.11-12.82,14.093h0C411.97,536.608,419.512,541.918,426,539.776Z" transform="translate(-411.287 -509.402)" fill="#fff"/>
            </g>
            <path id="Trazado_152313" data-name="Trazado 152313" d="M432.735,555.907l.965,8.213c.07.7.182,1.332.284,1.975l.076.482.117.474.235.949c.171.628.408,1.237.612,1.857.273.591.5,1.208.806,1.782a20.776,20.776,0,0,0,4.8,6.154,20.5,20.5,0,0,0,6.8,3.879,18.7,18.7,0,0,0,1.9.544c.638.165,1.3.236,1.944.361l4.1.525,8.2,1.044,16.406,2.088-.148,1.266-16.443-1.771-8.221-.886-4.114-.447c-.708-.119-1.427-.187-2.127-.352a20.471,20.471,0,0,1-2.085-.554,22.478,22.478,0,0,1-7.551-4.118,22.926,22.926,0,0,1-5.435-6.706c-.354-.633-.621-1.31-.934-1.965-.243-.683-.517-1.359-.722-2.055l-.284-1.052-.14-.527-.1-.537c-.129-.715-.266-1.441-.345-2.11l-1.123-8.192Z" transform="translate(-418.151 -524.828)" fill="#fff"/>
            <path id="Trazado_152314" data-name="Trazado 152314" d="M511.819,604.712a58.674,58.674,0,0,1-12.028,0,2.9,2.9,0,0,1-2.718-3.246h0a3.025,3.025,0,0,1,3.306-2.459,52.976,52.976,0,0,0,10.853,0,3.025,3.025,0,0,1,3.306,2.459h0A2.9,2.9,0,0,1,511.819,604.712Z" transform="translate(-442.394 -540.457)" fill="#fff"/>
          </g>
        </g>
        <g id="Grupo_136786" data-name="Grupo 136786" transform="translate(21.609 235.216)">
          <path id="Trazado_152315" data-name="Trazado 152315" d="M545.535,904.308H394.878a2.65,2.65,0,0,1-2.552-1.935l-.792-2.827a1.644,1.644,0,0,1,1.584-2.088h154.2a1.644,1.644,0,0,1,1.583,2.091l-.793,2.815A2.669,2.669,0,0,1,545.535,904.308Z" transform="translate(-367.351 -780.092)" fill="#1b2333"/>
          <path id="Trazado_152316" data-name="Trazado 152316" d="M550.536,713.277H363.271a6.067,6.067,0,0,0-5.235,3l-3.265,5.578H559.036l-3.265-5.578A6.066,6.066,0,0,0,550.536,713.277Z" transform="translate(-354.037 -713.277)" fill="#fff"/>
          <path id="Trazado_152317" data-name="Trazado 152317" d="M530.6,834.85H382.368a6.856,6.856,0,0,1-6.7-5.395L353.782,729.136a6.946,6.946,0,0,1,6.786-8.426H552.4a6.945,6.945,0,0,1,6.786,8.426L537.3,829.455A6.856,6.856,0,0,1,530.6,834.85Z" transform="translate(-353.619 -715.973)" fill="#ccc2ff"/>
          <path id="Trazado_152318" data-name="Trazado 152318" d="M516.166,813.733h-26.46a8.041,8.041,0,0,1-8.041-8.041h0a8.042,8.042,0,0,1,8.041-8.042h26.46a8.042,8.042,0,0,1,8.042,8.042h0A8.042,8.042,0,0,1,516.166,813.733Z" transform="translate(-400.071 -743.885)" fill="#fff"/>
          <path id="Trazado_152319" data-name="Trazado 152319" d="M492.832,795.462a12.17,12.17,0,0,1-11.694,15.617h-26.46a12.147,12.147,0,0,1-9-4L385.109,822l6.04,27.681a2.721,2.721,0,0,0,2.643,2.129H542.026a2.723,2.723,0,0,0,2.644-2.129l15.444-70.787Z" transform="translate(-365.043 -737.079)" fill="#ddd6ff"/>
        </g>
      </g>
    </g>
  </g>
</svg>
