<svg xmlns="http://www.w3.org/2000/svg" xmlns:xlink="http://www.w3.org/1999/xlink" width="604" height="426.45" viewBox="0 0 604 426.45">
  <defs>
    <linearGradient id="linear-gradient" x1="0.5" y1="0.05" x2="0.5" y2="0.981" gradientUnits="objectBoundingBox">
      <stop offset="0.246" stop-color="#346bcd"/>
      <stop offset="1" stop-color="#102e63"/>
    </linearGradient>
    <radialGradient id="radial-gradient" cx="0.961" cy="0.403" r="1.652" gradientTransform="matrix(-0.577, 0, 0, 1, 0.653, 0)" gradientUnits="objectBoundingBox">
      <stop offset="0" stop-color="#39a5e3"/>
      <stop offset="0.188" stop-color="#389de0"/>
      <stop offset="0.473" stop-color="#3688d8"/>
      <stop offset="0.816" stop-color="#3367cb"/>
      <stop offset="1" stop-color="#3252c4"/>
    </radialGradient>
    <linearGradient id="linear-gradient-2" x1="0.017" y1="0.243" x2="0.979" y2="0.606" gradientUnits="objectBoundingBox">
      <stop offset="0" stop-color="#fff"/>
      <stop offset="0.087" stop-color="#f7f7f7"/>
      <stop offset="0.217" stop-color="#e2e2e2"/>
      <stop offset="0.376" stop-color="silver"/>
      <stop offset="0.556" stop-color="#919191"/>
      <stop offset="0.755" stop-color="#545454"/>
      <stop offset="0.967" stop-color="#0c0c0c"/>
      <stop offset="1"/>
    </linearGradient>
    <linearGradient id="linear-gradient-3" x1="-0.025" y1="0.035" x2="0.951" y2="0.962" gradientUnits="objectBoundingBox">
      <stop offset="0" stop-color="#278ad9"/>
      <stop offset="0.22" stop-color="#2d7ed1"/>
      <stop offset="1" stop-color="#4358ba"/>
    </linearGradient>
    <clipPath id="clip-path">
      <ellipse id="Elipse_4783" data-name="Elipse 4783" cx="86.406" cy="49.888" rx="86.406" ry="49.888" fill="url(#linear-gradient)"/>
    </clipPath>
    <linearGradient id="linear-gradient-5" x1="-131.698" y1="0.061" x2="-131.698" y2="0.901" gradientUnits="objectBoundingBox">
      <stop offset="0" stop-color="#4f8fff"/>
      <stop offset="1" stop-color="#102e63"/>
    </linearGradient>
    <linearGradient id="linear-gradient-6" x1="-116.745" y1="0.061" x2="-116.745" y2="0.901" xlink:href="#linear-gradient-5"/>
    <linearGradient id="linear-gradient-7" x1="-101.784" y1="0.061" x2="-101.784" y2="0.901" xlink:href="#linear-gradient-5"/>
    <linearGradient id="linear-gradient-8" x1="-86.828" y1="0.061" x2="-86.828" y2="0.901" xlink:href="#linear-gradient-5"/>
    <linearGradient id="linear-gradient-9" x1="-71.87" y1="0.061" x2="-71.87" y2="0.901" xlink:href="#linear-gradient-5"/>
    <linearGradient id="linear-gradient-10" x1="-56.914" y1="0.061" x2="-56.914" y2="0.901" xlink:href="#linear-gradient-5"/>
    <linearGradient id="linear-gradient-11" x1="-41.956" y1="0.061" x2="-41.956" y2="0.901" xlink:href="#linear-gradient-5"/>
    <linearGradient id="linear-gradient-12" x1="158.126" y1="0.061" x2="158.126" y2="0.901" xlink:href="#linear-gradient-5"/>
    <linearGradient id="linear-gradient-13" x1="173.086" y1="0.061" x2="173.086" y2="0.901" xlink:href="#linear-gradient-5"/>
    <linearGradient id="linear-gradient-14" x1="188.044" y1="0.061" x2="188.044" y2="0.901" xlink:href="#linear-gradient-5"/>
    <clipPath id="clip-path-2">
      <path id="Trazado_102026" data-name="Trazado 102026" d="M141.6,63.84H331.479V277.852h-7.288c1.309,13.675-7.069,27.6-25.162,38.047-33.744,19.482-88.453,19.482-122.2,0-18.092-10.446-26.472-24.372-25.162-38.047H141.6Z" transform="translate(-141.596 -63.84)" fill="none"/>
    </clipPath>
    <radialGradient id="radial-gradient-2" cx="0.5" cy="0.5" r="0.5" gradientTransform="matrix(-1, 0, 0, 1, -15.764, 0)" gradientUnits="objectBoundingBox">
      <stop offset="0" stop-color="#ade9ff"/>
      <stop offset="1"/>
    </radialGradient>
    <radialGradient id="radial-gradient-3" cx="0.5" cy="0.5" r="0.5" gradientTransform="matrix(-1, 0, 0, 1, 74.905, 0)" xlink:href="#radial-gradient-2"/>
    <radialGradient id="radial-gradient-4" cx="0.5" cy="0.5" r="0.5" gradientTransform="matrix(-1, 0, 0, 1, 61.57, 0)" gradientUnits="objectBoundingBox">
      <stop offset="0" stop-color="#fff"/>
      <stop offset="1"/>
    </radialGradient>
    <radialGradient id="radial-gradient-5" cx="0.5" cy="0.5" r="0.5" gradientTransform="matrix(-1, 0, 0, 1, 49.785, 0)" xlink:href="#radial-gradient-4"/>
    <radialGradient id="radial-gradient-6" cx="0.5" cy="0.5" r="0.5" gradientTransform="matrix(-1, 0, 0, 1, 19.67, 0)" xlink:href="#radial-gradient-4"/>
    <radialGradient id="radial-gradient-7" cx="0.5" cy="0.5" r="0.5" gradientTransform="matrix(-1, 0, 0, 1, 98.589, 0)" xlink:href="#radial-gradient-2"/>
    <radialGradient id="radial-gradient-8" cx="0.5" cy="0.5" r="0.5" gradientTransform="matrix(-1, 0, 0, 1, -7.502, 0)" xlink:href="#radial-gradient-2"/>
    <radialGradient id="radial-gradient-9" cx="0.5" cy="0.5" r="0.5" gradientTransform="matrix(-1, 0, 0, 1, 79.794, 0)" xlink:href="#radial-gradient-2"/>
    <radialGradient id="radial-gradient-10" cx="0.5" cy="0.5" r="0.5" gradientTransform="matrix(-1, 0, 0, 1, -68.132, 0)" xlink:href="#radial-gradient-2"/>
    <radialGradient id="radial-gradient-11" cx="0.5" cy="0.5" r="0.5" gradientTransform="matrix(-1, 0, 0, 1, 57.297, 0)" xlink:href="#radial-gradient-2"/>
    <radialGradient id="radial-gradient-12" cx="0.5" cy="0.5" r="0.5" gradientTransform="matrix(-1, 0, 0, 1, 8.315, 0)" xlink:href="#radial-gradient-2"/>
    <radialGradient id="radial-gradient-13" cx="0.5" cy="0.5" r="0.5" gradientTransform="matrix(-1, 0, 0, 1, -12.834, 0)" xlink:href="#radial-gradient-2"/>
    <radialGradient id="radial-gradient-14" cx="0.5" cy="0.5" r="0.5" gradientTransform="matrix(-1, 0, 0, 1, -80.348, 0)" xlink:href="#radial-gradient-2"/>
  </defs>
  <g id="Grupo_136874" data-name="Grupo 136874" transform="translate(-800 -4436)">
    <g id="Grupo_87732" data-name="Grupo 87732" transform="translate(895 4448.143)">
      <g id="Grupo_87691" data-name="Grupo 87691" transform="translate(21.21 33.237)">
        <g id="Grupo_87671" data-name="Grupo 87671" transform="translate(0 107.043)">
          <path id="Trazado_101948" data-name="Trazado 101948" d="M51.038,333.6c-8.426-4.869-8.55-12.726-.267-17.513L269.5,189.8c8.3-4.786,21.9-4.715,30.34.155L412.851,255.2c8.43,4.872,8.553,12.73.27,17.518L194.4,399.007c-8.3,4.8-21.895,4.718-30.341-.157Z" transform="translate(-44.635 -186.251)" fill="#231f20"/>
          <g id="Grupo_87663" data-name="Grupo 87663" transform="translate(276.899 24.856)">
            <path id="Trazado_101949" data-name="Trazado 101949" d="M362.01,216.6a1.061,1.061,0,0,0,0,2.011l37.6,21.706a3.858,3.858,0,0,0,3.486,0l2.615-1.508a1.065,1.065,0,0,0,0-2.013l-37.6-21.707a3.858,3.858,0,0,0-3.487,0Z" transform="translate(-361.287 -214.675)" fill="#404040"/>
            <path id="Trazado_101950" data-name="Trazado 101950" d="M361.718,218.356a1.574,1.574,0,0,1,.3-.255l2.61-1.513a3.859,3.859,0,0,1,3.487,0l37.6,21.707a1.6,1.6,0,0,1,.3.258c.6-.55.528-1.278-.3-1.755l-37.6-21.707a3.858,3.858,0,0,0-3.487,0l-2.61,1.512C361.18,217.079,361.114,217.806,361.718,218.356Z" transform="translate(-361.291 -214.675)" fill="#666"/>
          </g>
          <path id="Trazado_101951" data-name="Trazado 101951" d="M51.426,316.706l143.613,82.917,218.927-126.4L270.353,190.3Z" transform="translate(-45.488 -186.76)" fill="url(#radial-gradient)"/>
          <path id="Trazado_101952" data-name="Trazado 101952" d="M240,220.871l52.94-30.566,143.613,82.917L251.045,380.33C234.2,341.582,222.588,282.147,240,220.871Z" transform="translate(-68.077 -186.76)" opacity="0.4" fill="url(#linear-gradient-2)" style="mix-blend-mode: screen;isolation: isolate"/>
          <path id="Trazado_101953" data-name="Trazado 101953" d="M51.039,354.564a18.425,18.425,0,0,1-1.939-1.3c-6.534,4.823-5.87,11.9,1.939,16.408l113.018,65.252v-15.1Z" transform="translate(-44.637 -207.218)" fill="#9f9f9f"/>
          <path id="Trazado_101954" data-name="Trazado 101954" d="M211.542,429.529c-8.3,4.8-21.895,4.718-30.341-.157v15.1c8.446,4.876,22.037,4.955,30.341.158Z" transform="translate(-61.78 -216.773)" fill="#b6b6b6"/>
          <path id="Trazado_101955" data-name="Trazado 101955" d="M434.621,285.13,215.9,411.421v15.105L434.621,300.236Z" transform="translate(-66.136 -198.665)" fill="#9f9f9f"/>
          <path id="Trazado_101956" data-name="Trazado 101956" d="M466.023,299c4.086-2.363,6.049-5.47,6.05-8.6.083-.019.083-15.125.083-15.125,0,2.671-1.5,5.322-4.465,7.513a17.6,17.6,0,0,1-1.668,1.1Z" transform="translate(-97.537 -197.428)" fill="#838383"/>
          <path id="Trazado_101957" data-name="Trazado 101957" d="M215.867,411.421l-.211,8.067,218.927-126.4.008-7.957Z" transform="translate(-66.105 -198.665)" fill="url(#linear-gradient-3)"/>
          <path id="Trazado_101958" data-name="Trazado 101958" d="M51.036,353.489v15.093c-4.267-2.452-6.4-5.7-6.4-8.884V344.572c0,2.675,1.5,5.381,4.458,7.611A17.341,17.341,0,0,0,51.036,353.489Z" transform="translate(-44.635 -206.127)" fill="#bfbfbf"/>
          <g id="Grupo_87670" data-name="Grupo 87670" transform="translate(10.217 154.959)">
            <g id="Grupo_87664" data-name="Grupo 87664" transform="translate(37.765 22.503)">
              <path id="Trazado_101959" data-name="Trazado 101959" d="M118.821,405.388l-16.616-9.593a5.969,5.969,0,0,1-2.7-4.676c0-1.722,1.208-2.42,2.7-1.559l16.615,9.593a5.967,5.967,0,0,1,2.7,4.677C121.521,405.55,120.313,406.248,118.821,405.388Z" transform="translate(-99.506 -389.191)" fill="#404040"/>
              <path id="Trazado_101960" data-name="Trazado 101960" d="M120.754,404.336l-16.616-9.592a5.969,5.969,0,0,1-2.7-4.677,2.5,2.5,0,0,1,.139-.714c-1.18-.346-2.072.31-2.072,1.775a5.969,5.969,0,0,0,2.7,4.677l16.616,9.593c1.247.72,2.251.3,2.561-.845A2.486,2.486,0,0,1,120.754,404.336Z" transform="translate(-99.506 -389.199)" fill="#666"/>
            </g>
            <g id="Grupo_87665" data-name="Grupo 87665">
              <path id="Trazado_101961" data-name="Trazado 101961" d="M63.692,370.346c0,2.351-1.651,3.3-3.687,2.128a8.149,8.149,0,0,1-3.687-6.385c0-2.351,1.651-3.3,3.687-2.128A8.147,8.147,0,0,1,63.692,370.346Z" transform="translate(-56.319 -363.457)" fill="#404040"/>
              <path id="Trazado_101962" data-name="Trazado 101962" d="M61.939,371.416a8.15,8.15,0,0,1-3.687-6.385,3.359,3.359,0,0,1,.345-1.553c-1.336-.132-2.279.839-2.279,2.613a8.148,8.148,0,0,0,3.687,6.385c1.491.861,2.761.561,3.341-.575A3.52,3.52,0,0,1,61.939,371.416Z" transform="translate(-56.319 -363.458)" fill="#666"/>
            </g>
            <g id="Grupo_87669" data-name="Grupo 87669" transform="translate(80.742 45.735)">
              <g id="Grupo_87668" data-name="Grupo 87668">
                <g id="Grupo_87666" data-name="Grupo 87666">
                  <path id="Trazado_101963" data-name="Trazado 101963" d="M151.278,418.211c0,.837-.588,1.176-1.313.757a2.9,2.9,0,0,1-1.313-2.273c0-.837.588-1.176,1.313-.758A2.9,2.9,0,0,1,151.278,418.211Z" transform="translate(-148.653 -415.758)" fill="#404040"/>
                  <path id="Trazado_101964" data-name="Trazado 101964" d="M156.717,421.351c0,.837-.588,1.176-1.312.758a2.9,2.9,0,0,1-1.313-2.273c0-.837.588-1.176,1.313-.757A2.9,2.9,0,0,1,156.717,421.351Z" transform="translate(-149.336 -416.153)" fill="#404040"/>
                  <path id="Trazado_101965" data-name="Trazado 101965" d="M162.157,424.492c0,.837-.588,1.176-1.313.757a2.9,2.9,0,0,1-1.313-2.273c0-.837.588-1.176,1.313-.758A2.9,2.9,0,0,1,162.157,424.492Z" transform="translate(-150.019 -416.547)" fill="#404040"/>
                  <path id="Trazado_101966" data-name="Trazado 101966" d="M167.6,427.632c0,.837-.588,1.176-1.313.758a2.9,2.9,0,0,1-1.313-2.274c0-.837.588-1.176,1.313-.757A2.9,2.9,0,0,1,167.6,427.632Z" transform="translate(-150.702 -416.941)" fill="#404040"/>
                  <path id="Trazado_101967" data-name="Trazado 101967" d="M173.036,430.773c0,.837-.587,1.176-1.312.757a2.9,2.9,0,0,1-1.313-2.273c0-.837.588-1.176,1.313-.758A2.9,2.9,0,0,1,173.036,430.773Z" transform="translate(-151.385 -417.335)" fill="#404040"/>
                </g>
                <g id="Grupo_87667" data-name="Grupo 87667" transform="translate(0 4.736)">
                  <path id="Trazado_101968" data-name="Trazado 101968" d="M151.278,423.627c0,.837-.588,1.176-1.313.758a2.9,2.9,0,0,1-1.313-2.273c0-.837.588-1.176,1.313-.757A2.9,2.9,0,0,1,151.278,423.627Z" transform="translate(-148.653 -421.175)" fill="#404040"/>
                  <path id="Trazado_101969" data-name="Trazado 101969" d="M156.717,426.768c0,.837-.588,1.176-1.313.757a2.9,2.9,0,0,1-1.312-2.273c0-.837.588-1.176,1.312-.758A2.9,2.9,0,0,1,156.717,426.768Z" transform="translate(-149.336 -421.569)" fill="#404040"/>
                  <path id="Trazado_101970" data-name="Trazado 101970" d="M162.157,429.908c0,.837-.588,1.176-1.313.758a2.9,2.9,0,0,1-1.313-2.274c0-.837.588-1.176,1.313-.757A2.9,2.9,0,0,1,162.157,429.908Z" transform="translate(-150.019 -421.963)" fill="#404040"/>
                  <path id="Trazado_101971" data-name="Trazado 101971" d="M167.6,433.049c0,.837-.588,1.176-1.313.757a2.9,2.9,0,0,1-1.313-2.273c0-.837.588-1.176,1.313-.758A2.9,2.9,0,0,1,167.6,433.049Z" transform="translate(-150.702 -422.358)" fill="#404040"/>
                  <path id="Trazado_101972" data-name="Trazado 101972" d="M173.036,436.189c0,.837-.588,1.176-1.312.758a2.9,2.9,0,0,1-1.313-2.273c0-.837.588-1.176,1.313-.757A2.9,2.9,0,0,1,173.036,436.189Z" transform="translate(-151.385 -422.752)" fill="#404040"/>
                </g>
              </g>
              <path id="Trazado_101973" data-name="Trazado 101973" d="M159.012,421.6c-.464-.388-.845-.059-.845.61a2.9,2.9,0,0,0,1.312,2.273c.626.362,1.125.133,1.257-.469a1.249,1.249,0,0,1-.411-.142A2.9,2.9,0,0,1,159.012,421.6Zm-9.513-5.493c-.464-.388-.846-.059-.846.61a2.9,2.9,0,0,0,1.313,2.273c.626.361,1.125.133,1.257-.469a1.251,1.251,0,0,1-.412-.142A2.9,2.9,0,0,1,149.5,416.108Zm4.756,2.746c-.463-.388-.845-.058-.845.61a2.9,2.9,0,0,0,1.313,2.274c.626.361,1.125.133,1.256-.469a1.215,1.215,0,0,1-.411-.142A2.9,2.9,0,0,1,154.255,418.854Zm9.514,5.492c-.464-.387-.846-.058-.846.61a2.9,2.9,0,0,0,1.313,2.274c.626.361,1.125.133,1.257-.47a1.233,1.233,0,0,1-.412-.141A2.9,2.9,0,0,1,163.769,424.346Zm6.48,5.161a1.26,1.26,0,0,1-.411-.142,2.9,2.9,0,0,1-1.312-2.273c-.464-.388-.845-.059-.845.61a2.9,2.9,0,0,0,1.313,2.273C169.619,430.338,170.118,430.109,170.249,429.507Zm-6.48-.424c-.464-.388-.846-.059-.846.61a2.9,2.9,0,0,0,1.313,2.273c.626.361,1.125.133,1.256-.469a1.257,1.257,0,0,1-.411-.142A2.9,2.9,0,0,1,163.769,429.083Zm4.756,2.746c-.464-.387-.845-.058-.845.61a2.9,2.9,0,0,0,1.313,2.274c.626.361,1.125.133,1.256-.47a1.231,1.231,0,0,1-.411-.141A2.9,2.9,0,0,1,168.525,431.829Zm-14.27-8.238c-.464-.388-.845-.059-.845.61a2.9,2.9,0,0,0,1.312,2.273c.627.361,1.125.133,1.257-.469a1.252,1.252,0,0,1-.411-.142A2.9,2.9,0,0,1,154.255,423.591Zm4.757,2.746c-.464-.387-.846-.058-.846.61a2.9,2.9,0,0,0,1.313,2.274c.626.361,1.125.132,1.257-.47a1.218,1.218,0,0,1-.411-.141A2.9,2.9,0,0,1,159.012,426.337Zm-9.513-5.493c-.464-.388-.846-.059-.846.611a2.9,2.9,0,0,0,1.313,2.273c.626.361,1.125.132,1.257-.47a1.214,1.214,0,0,1-.412-.142A2.9,2.9,0,0,1,149.5,420.844Z" transform="translate(-148.653 -415.781)" fill="#666"/>
            </g>
          </g>
        </g>
        <g id="Grupo_87690" data-name="Grupo 87690" transform="translate(84.788)">
          <ellipse id="Elipse_4781" data-name="Elipse 4781" cx="91.176" cy="52.642" rx="91.176" ry="52.642" transform="translate(5.159 164.141)" fill="#fff" opacity="0.3" style="mix-blend-mode: screen;isolation: isolate"/>
          <g id="Grupo_87673" data-name="Grupo 87673" transform="translate(9.928 166.895)">
            <ellipse id="Elipse_4782" data-name="Elipse 4782" cx="86.406" cy="49.888" rx="86.406" ry="49.888" fill="url(#linear-gradient)"/>
            <g id="Grupo_87672" data-name="Grupo 87672" clip-path="url(#clip-path)">
              <rect id="Rectángulo_33984" data-name="Rectángulo 33984" width="1.023" height="94.942" transform="translate(167.51 10.4)" fill="url(#linear-gradient-5)"/>
              <rect id="Rectángulo_33985" data-name="Rectángulo 33985" width="1.023" height="94.942" transform="translate(159.86 10.4)" fill="url(#linear-gradient-6)"/>
              <rect id="Rectángulo_33986" data-name="Rectángulo 33986" width="1.023" height="94.942" transform="translate(152.211 10.4)" fill="url(#linear-gradient-7)"/>
              <rect id="Rectángulo_33987" data-name="Rectángulo 33987" width="1.023" height="94.942" transform="translate(144.561 10.4)" fill="url(#linear-gradient-8)"/>
              <rect id="Rectángulo_33988" data-name="Rectángulo 33988" width="1.023" height="94.942" transform="translate(136.912 10.4)" fill="url(#linear-gradient-9)"/>
              <rect id="Rectángulo_33989" data-name="Rectángulo 33989" width="1.023" height="94.942" transform="translate(129.262 10.4)" fill="url(#linear-gradient-10)"/>
              <rect id="Rectángulo_33990" data-name="Rectángulo 33990" width="1.023" height="94.942" transform="translate(121.613 10.4)" fill="url(#linear-gradient-11)"/>
              <rect id="Rectángulo_33991" data-name="Rectángulo 33991" width="1.023" height="94.942" transform="translate(19.285 10.4)" fill="url(#linear-gradient-12)"/>
              <rect id="Rectángulo_33992" data-name="Rectángulo 33992" width="1.023" height="94.942" transform="translate(11.635 10.4)" fill="url(#linear-gradient-13)"/>
              <rect id="Rectángulo_33993" data-name="Rectángulo 33993" width="1.023" height="94.942" transform="translate(3.985 10.4)" fill="url(#linear-gradient-14)"/>
            </g>
          </g>
          <g id="Grupo_87689" data-name="Grupo 87689">
            <g id="Grupo_87688" data-name="Grupo 87688" clip-path="url(#clip-path-2)">
              <g id="Grupo_87686" data-name="Grupo 87686" transform="translate(26.157 40.295)">
                <g id="Grupo_87681" data-name="Grupo 87681" transform="translate(29.467)">
                  <path id="Trazado_101974" data-name="Trazado 101974" d="M286.364,156.529c-1.733,5.279-7.69,11.913-9.875,15.306-.038.057-.08.115-.122.172-.072.093-.1.131-.137.17-.018.02-.037.043-.057.063s-.064.07-.1.107l-.061.061c-.036.036-.074.072-.113.108-.02.018-.041.038-.063.056l-.136.118c-.154.127-.26.206-.372.285-.037.029-.075.054-.114.081-.086.059-.16.106-.237.156-.114.071-.181.114-.251.154-.125.075-.2.115-.272.156-.129.072-.213.117-.3.16-.331.172-.658.326-1,.475-.2.087-.4.168-.606.249-.538.211-1.106.409-1.692.59a4.117,4.117,0,0,0-.708-.335c.016-.477.027-.954.029-1.429.005-.227.005-.45,0-.673q0-1.313-.07-2.612-.085-1.679-.281-3.332a47.645,47.645,0,0,0-3.472-13.2,72.4,72.4,0,0,0-13.766-21.206c-5.841-6.294-13-10.291-19.639-11.27a9.455,9.455,0,0,0-7.288,1.654q.618-.519,1.253-1.013.859-.676,1.746-1.306a49.879,49.879,0,0,1,23.7-8.986c9.951-1.054,15.606,2.941,18.32,4.524.618.36,1.249.72,1.873,1.075a37.064,37.064,0,0,1,4.97,3.166c1.209,1.022,1.232,1.95,2.318,3.148.778.86,2.167,1.654,3.58,2.866,3.166,2.714,4,9.5,4.524,13.119A48.122,48.122,0,0,1,286.364,156.529Z" transform="translate(-207.773 -110.071)" fill="#7d472a"/>
                  <g id="Grupo_87674" data-name="Grupo 87674" transform="translate(11.961 75.011)">
                    <path id="Trazado_101975" data-name="Trazado 101975" d="M266.74,210.8c-2.637,5.958-7.69,9.124-13.8,14.249-1.239,1.041-2.533,2.067-3.82,3.044-3.178,2.418-6.318,4.549-8.521,5.915a21.623,21.623,0,0,1-2.736,1.522l-.442.164c-1.5.552-3.2,1.149-3.48,2.246-.3,1.208-1.81,7.011-2.714,10.1-.885,3.028-4.956,14.084-12.347,28.279,2.54-5.745,5.985-26.813,6.692-31.068a32.358,32.358,0,0,0-.375-10.481c-.2-1.346.5-9.244.649-12.207a8.531,8.531,0,0,0,1.873-.094,15.151,15.151,0,0,0,2.35-.7c2.642-.952,6.542-2.669,9.69-4.125,2.033-.941,3.755-1.773,4.625-2.226,3.28-1.7,14.08-10.743,15.833-13.683a35.651,35.651,0,0,0,2.261-4.693,5.089,5.089,0,0,0,.138-1.292,7.3,7.3,0,0,1,2.463.122,52.032,52.032,0,0,0,.258,7.846c.032.312.063.623.1.925A21.583,21.583,0,0,0,266.74,210.8Z" transform="translate(-218.883 -195.701)" fill="#ffa85c"/>
                    <path id="Trazado_101976" data-name="Trazado 101976" d="M269.738,210.8c-2.637,5.958-7.69,9.124-13.8,14.249-1.239,1.041-2.533,2.067-3.82,3.044a20.91,20.91,0,0,0-9.362-10.449c2.033-.941,3.755-1.773,4.625-2.226,3.28-1.7,14.08-10.743,15.833-13.683a35.679,35.679,0,0,0,2.261-4.693,5.089,5.089,0,0,0,.138-1.292,7.3,7.3,0,0,1,2.463.122C267.779,200.322,268.683,208.991,269.738,210.8Z" transform="translate(-221.88 -195.701)" fill="#ff983e"/>
                    <path id="Trazado_101977" data-name="Trazado 101977" d="M240.6,237.751a21.617,21.617,0,0,1-2.736,1.522c-1.584.6-3.619,1.205-3.922,2.411s-1.81,7.011-2.714,10.1c-.885,3.028-4.956,14.084-12.347,28.279,2.54-5.745,5.985-26.814,6.692-31.068a32.358,32.358,0,0,0-.375-10.481c-.2-1.346.5-9.244.649-12.207a8.537,8.537,0,0,0,1.873-.094,15.149,15.149,0,0,0,2.35-.7A22.219,22.219,0,0,0,240.6,237.751Z" transform="translate(-218.883 -199.443)" fill="#ff983e"/>
                  </g>
                  <g id="Grupo_87675" data-name="Grupo 87675" transform="translate(0 45.28)">
                    <path id="Trazado_101978" data-name="Trazado 101978" d="M260.764,192.773a35.632,35.632,0,0,1-2.261,4.693c-1.753,2.941-12.553,11.988-15.833,13.684s-12.835,6.05-15.945,6.9c-3.41.931-7.449-.767-9.091-2.173-2.017-1.638-2.784-4.044-2.784-7.326-1.131-.679-1.64-2.149-1.47-4.015a4.212,4.212,0,0,1-1.413-2.149,3.466,3.466,0,0,1-2.714-2.093c-.452-.9,0-3,1.018-4.467-1.3-2.827-2.941-13.231-2.884-14.419s.509-3.732-.057-5.033-1.809-2.262-2.092-4.071c-.245-1.567.954-7.213,1.719-10.6,2.132,3.42,7.71,7.2,12,8.493,5.528,1.65,15.453,4.542,21.184,5.2,5.881.679,16.362,5.729,17.794,7.011.378.338,1.515.439,3.024.344C260.995,187.313,260.981,192.432,260.764,192.773Z" transform="translate(-205.205 -161.701)" fill="#ffba7b"/>
                    <path id="Trazado_101979" data-name="Trazado 101979" d="M261.589,193.937a35.638,35.638,0,0,1-2.261,4.693c-1.753,2.941-12.553,11.988-15.833,13.684s-12.835,6.05-15.945,6.9a10.382,10.382,0,0,1-6.532-.679c.789-9.769-3.277-12.6-4.173-15.362-1.735,0-3.922.3-4.9-1.357-.733-1.24,1.189-4.266,2.11-6.333a25.327,25.327,0,0,0,1.886-9.574,72.559,72.559,0,0,1,2.712-14.937c1.166.443,15.645,4.821,22.317,5.589,5.881.679,16.362,5.729,17.793,7.011.378.337,1.515.439,3.024.344C261.82,188.477,261.807,193.6,261.589,193.937Z" transform="translate(-206.03 -162.865)" fill="#ffad63"/>
                  </g>
                  <g id="Grupo_87678" data-name="Grupo 87678" transform="translate(0.732)">
                    <g id="Grupo_87676" data-name="Grupo 87676" transform="translate(0 3.636)">
                      <path id="Trazado_101980" data-name="Trazado 101980" d="M268.389,176.388c-4.283,1.334-9.452,1.862-10.347,1.061-1.432-1.282-11.913-6.333-17.794-7.011-4.822-.556-12.584-2.685-18.006-4.264-1.192-.348-2.268-.667-3.178-.938-5.053-1.508-12.053-6.586-12.818-10.4-.378-1.886-.378-4,1.283-9.5,1.5-4.978,6.263-12.5,12.9-18.857.172-.167.346-.332.52-.491q.567-.536,1.152-1.049c.17-.152.335-.3.5-.439.2-.172.4-.339.6-.506a9.455,9.455,0,0,1,7.288-1.654c6.634.979,13.8,4.976,19.639,11.27a72.4,72.4,0,0,1,13.766,21.207,47.648,47.648,0,0,1,3.472,13.2q.2,1.653.281,3.332.068,1.3.07,2.612c0,.222,0,.446,0,.672,0,.475-.013.952-.029,1.429A4.111,4.111,0,0,1,268.389,176.388Z" transform="translate(-206.042 -115.098)" fill="#7d472a"/>
                      <path id="Trazado_101981" data-name="Trazado 101981" d="M286.227,157.357c-1.733,5.279-7.69,11.913-9.875,15.306-.038.057-.08.115-.122.172-.072.093-.1.131-.137.17-.018.02-.037.043-.057.063s-.064.07-.1.107l-.061.061c-.036.036-.074.072-.113.108-.02.018-.041.038-.063.056l-.136.118c-.187.154-.332.26-.486.366-.086.059-.16.106-.237.156-.114.071-.181.114-.251.154-.125.075-.2.115-.272.157-.129.072-.213.117-.3.16a16.726,16.726,0,0,1-1.611.724c-4.485,1.758-11.022,2.56-12.039,1.651-1.432-1.282-11.913-6.333-17.793-7.011-4.822-.556-12.584-2.685-18.006-4.264,12.53-7.011,22.112-17.474,26.979-26.422,3.714-6.824,13.306-19.171,20.872-21.469a37.064,37.064,0,0,1,4.969,3.166c1.209,1.022,1.232,1.95,2.318,3.148.778.86,2.167,1.654,3.58,2.866,3.166,2.714,4,9.5,4.524,13.119A48.12,48.12,0,0,1,286.227,157.357Z" transform="translate(-208.368 -114.535)" fill="#6b2f0e"/>
                      <path id="Trazado_101982" data-name="Trazado 101982" d="M215.458,144.612a10.452,10.452,0,0,1,.243-1.58c1.938-7.054,8.523-15.133,14.276-19.84a40.751,40.751,0,0,1,15.172-8.307c.826-.219.971-.264,1.244-.311a25.028,25.028,0,0,1,3.105-.5c-2.217.662-1,.262-2.978.937-.371.121-.761.289-1.181.446C231.427,120.852,217.658,136.686,215.458,144.612Z" transform="translate(-207.224 -114.078)" fill="#6b2f0e"/>
                    </g>
                    <g id="Grupo_87677" data-name="Grupo 87677" transform="translate(62.457)">
                      <path id="Trazado_101983" data-name="Trazado 101983" d="M305.515,144.033a11.618,11.618,0,0,1-3.449,12.27c1.244,7.124-1.527,10.856-4.015,12.949.4,4.693-.791,10.574-6.163,14.08,2.94,7.633,2.77,19,.282,22.618a15.781,15.781,0,0,0-3.054,7.633c-.061.708-2.793-2.278-5.5-5.442-2.255-2.644-4.489-5.413-5.134-6.263-1.075-7.463-1.527-14.08-.227-18.773a42.136,42.136,0,0,0,.787-8.85,8.46,8.46,0,0,0,3.945-2.572c2.185-3.393,8.142-10.027,9.875-15.306a48.122,48.122,0,0,0,1.583-17.339c-.526-3.619-1.357-10.4-4.524-13.119-1.413-1.212-2.8-2.006-3.58-2.866a8.907,8.907,0,0,1-1.136-1.678,5,5,0,0,0-.861-1.187,25.136,25.136,0,0,0-4.261-2.856c-.52-2.586-.115-5.47,2.526-6.435,2.941-1.075,8.425-1.923,12.44,1.188s8.821,9.782,9.387,11.365C307.268,127.353,310.831,135.552,305.515,144.033Z" transform="translate(-277.466 -109.92)" fill="#59270c"/>
                      <path id="Trazado_101984" data-name="Trazado 101984" d="M305.863,144.033a11.618,11.618,0,0,1-3.449,12.27c1.244,7.124-1.527,10.856-4.015,12.949.4,4.693-.792,10.574-6.163,14.08,2.94,7.633,2.77,19,.282,22.618a15.78,15.78,0,0,0-3.054,7.633c-.061.708-2.793-2.278-5.5-5.442,2.093-5.985,4.029-14.536,2.386-20.286-2.262-7.916,4.524-12.214,4.524-19.791s7.916-17.246,11.817-20.412,3.393-10.744.905-16c1.64-4.354-3-14.136-6.277-15.776s-8.708.339-11.083,2.827l-.683,2.676a4.994,4.994,0,0,0-.861-1.187,25.134,25.134,0,0,0-4.261-2.856c-.52-2.586-.115-5.47,2.526-6.435,2.941-1.075,8.425-1.923,12.44,1.188s8.821,9.782,9.386,11.365C307.617,127.353,311.179,135.552,305.863,144.033Z" transform="translate(-277.814 -109.92)" fill="#783f20"/>
                    </g>
                    <path id="Trazado_101985" data-name="Trazado 101985" d="M284.559,120.839c1.209,1.022,1.231,1.949,2.317,3.148.748.827,2.065,1.6,3.424,2.734a4.544,4.544,0,0,0,.223-2.479,13.945,13.945,0,0,0-2.941-4.891,5.616,5.616,0,0,0-3.987-2.007,2.29,2.29,0,0,0-1.914,1.545A22.767,22.767,0,0,1,284.559,120.839Z" transform="translate(-215.538 -110.852)" fill="#c451ff"/>
                  </g>
                  <g id="Grupo_87680" data-name="Grupo 87680" transform="translate(15.12 9.433)">
                    <g id="Grupo_87679" data-name="Grupo 87679" transform="translate(7.753 65.418)">
                      <path id="Trazado_101986" data-name="Trazado 101986" d="M236.162,213.982l-.027-.679c22.133-.894,34.964-15.808,35.895-17.786l.615.289C271.692,197.828,258.62,213.074,236.162,213.982Z" transform="translate(-231.961 -195.517)" fill="#4aacd9"/>
                      <path id="Trazado_101987" data-name="Trazado 101987" d="M235.969,215.54a.788.788,0,0,1,.057,1.053c-.354.217-2.285.954-2.687,1.107s-1.364.227-1.728-.434a1.717,1.717,0,0,1,.031-1.842,1.245,1.245,0,0,1,1.369-.4A25.961,25.961,0,0,1,235.969,215.54Z" transform="translate(-231.362 -197.961)" fill="#131416"/>
                    </g>
                    <path id="Trazado_101988" data-name="Trazado 101988" d="M274.929,174.178c0,.228-.005.466-.018.707a15.926,15.926,0,0,1-.238,1.848c-.063.351-.133.7-.208,1.029-.027.109-.052.218-.077.324-.289,1.21-.61,2.221-.749,2.64q-.1-.662-.2-1.31c-.007-.031-.011-.066-.016-.1q-.312-2-.663-3.909c-.034-.181-.057-.31-.081-.441-.071-.379-.143-.76-.218-1.135-.248-1.279-.511-2.525-.792-3.746-.172-.756-.351-1.5-.536-2.233a75.332,75.332,0,0,0-14.516-29.8c-3.411-4.329-5.872-7.559-12.759-12.024a25.364,25.364,0,0,0-12.177-4.184,9.108,9.108,0,0,0-5.166.941,10.673,10.673,0,0,0-3.5,3.008c-.174.158-.348.324-.52.491a10.53,10.53,0,0,1,1.989-2.33,13.822,13.822,0,0,1,3.779-2.475,10.149,10.149,0,0,1,3.61-.766c14.143-.462,30.219,17,35.811,30.552a145.67,145.67,0,0,1,6.236,17.25c.19.721.348,1.383.479,1.993a28.472,28.472,0,0,1,.523,3.374C274.927,173.982,274.929,174.079,274.929,174.178Z" transform="translate(-222.496 -120.708)" fill="#131416"/>
                    <path id="Trazado_101989" data-name="Trazado 101989" d="M273.714,180.882c-.158-.315-.31-.631-.464-.941a7.83,7.83,0,0,0-2.721-3.585,4.114,4.114,0,0,0-.707-.335c.016-.477.027-.954.029-1.429.005-.226.005-.45,0-.672q0-1.313-.07-2.612-.085-1.679-.281-3.332a47.645,47.645,0,0,0-3.472-13.2,72.4,72.4,0,0,0-13.766-21.206c-5.841-6.294-13-10.291-19.639-11.27a9.456,9.456,0,0,0-7.288,1.654,10.056,10.056,0,0,0-1.092.941q-.59.518-1.156,1.054a10.674,10.674,0,0,1,3.5-3.008,9.108,9.108,0,0,1,5.166-.941,25.364,25.364,0,0,1,12.177,4.184c6.887,4.465,9.348,7.694,12.759,12.024a75.332,75.332,0,0,1,14.516,29.8c.185.736.364,1.477.536,2.233.281,1.222.543,2.468.791,3.746.075.375.147.756.218,1.135.025.131.047.26.072.391.242,1.321.464,2.624.672,3.959,0,.031.009.066.016.1Q273.617,180.22,273.714,180.882Z" transform="translate(-222.571 -120.864)" fill="#414d59"/>
                    <path id="Trazado_101990" data-name="Trazado 101990" d="M271.947,194.884a4.9,4.9,0,0,1-4.732.864,13.156,13.156,0,0,1-3.883-2.676c-1.622-2.866-.566-8.068,3.015-12.365a19.527,19.527,0,0,1,8.115-6.123q.2,1.653.281,3.332c-1.966,1.257-5.758,4.609-7.265,8.558-1.7,4.449-1.658,7.728.717,8.783A3.906,3.906,0,0,0,271.947,194.884Z" transform="translate(-227.53 -127.471)" fill="#131416"/>
                    <path id="Trazado_101991" data-name="Trazado 101991" d="M275.806,182.15c0,.475-.013.952-.029,1.429-5.44,4.386-5.145,9.927-2.642,11.513a3.228,3.228,0,0,0,.31.171.969.969,0,0,1-.443-.106C269.86,193.764,268.666,187.134,275.806,182.15Z" transform="translate(-228.526 -128.421)" fill="#2f3136"/>
                    <path id="Trazado_101992" data-name="Trazado 101992" d="M282.888,188.244c-.676,3.723-3.714,7.733-8.33,7.349a2.853,2.853,0,0,1-.694-.147l-.084-.032c-.07-.025-.14-.054-.208-.086a3.243,3.243,0,0,1-.31-.171c-2.5-1.586-2.8-7.127,2.642-11.513,1.732.629,2.576,2.181,3.4,3.863.181.366.332.683.49,1,.138-.419.459-1.43.749-2.637.025-.108.05-.217.077-.326.075-.334.145-.679.208-1.029a15.927,15.927,0,0,0,.238-1.848,3.223,3.223,0,0,1,1.027.867,3.571,3.571,0,0,1,.342.52A6.5,6.5,0,0,1,282.888,188.244Z" transform="translate(-228.653 -128.486)" fill="#212326"/>
                    <path id="Trazado_101993" data-name="Trazado 101993" d="M275.656,181.381c0,.222,0,.446,0,.673-7.14,4.984-5.946,11.614-2.8,13.008a2.267,2.267,0,0,1-2.906-.57c-.867-1.095-.944-3.732.378-6.937A14.2,14.2,0,0,1,275.656,181.381Z" transform="translate(-228.373 -128.325)" fill="#131416"/>
                    <path id="Trazado_101994" data-name="Trazado 101994" d="M272.537,194.686a2.788,2.788,0,0,0,.409.149l-.11.147a4.413,4.413,0,0,1-.357.38,3.906,3.906,0,0,1-3.752.373c-2.375-1.055-2.414-4.334-.717-8.783,1.507-3.949,5.3-7.3,7.265-8.558q.068,1.3.07,2.612a14.2,14.2,0,0,0-5.335,6.173c-1.321,3.2-1.244,5.842-.378,6.937A2.267,2.267,0,0,0,272.537,194.686Z" transform="translate(-228.062 -127.95)" fill="#4aacd9"/>
                    <path id="Trazado_101995" data-name="Trazado 101995" d="M283.918,180.812a3.689,3.689,0,0,0-2.135-3.436c-.131-.61-.289-1.272-.479-1.993a5.071,5.071,0,0,1,1.755,1.427A4.775,4.775,0,0,1,283.918,180.812Z" transform="translate(-229.879 -127.572)" fill="#131416"/>
                    <path id="Trazado_101996" data-name="Trazado 101996" d="M283.891,182.626c-.043.272-.1.539-.16.8a3.587,3.587,0,0,0-.342-.52c-.034-.046-.07-.088-.106-.129a2.847,2.847,0,0,0-1-2.567c-.1-.758-.234-1.59-.435-2.545a3.689,3.689,0,0,1,2.135,3.436A7.661,7.661,0,0,1,283.891,182.626Z" transform="translate(-229.948 -127.858)" fill="#4aacd9"/>
                    <path id="Trazado_101997" data-name="Trazado 101997" d="M283.346,183.137c-.05-.057-.1-.111-.152-.163a3.232,3.232,0,0,0-.769-.573c.013-.212.018-.422.018-.624,0-.129,0-.253-.007-.375-.025-.267-.054-.543-.088-.83A2.842,2.842,0,0,1,283.346,183.137Z" transform="translate(-230.01 -128.223)" fill="#131416"/>
                    <path id="Trazado_101998" data-name="Trazado 101998" d="M283.2,183.147a3.23,3.23,0,0,0-.769-.573c.013-.212.018-.422.018-.624A1.961,1.961,0,0,1,283.2,183.147Z" transform="translate(-230.021 -128.396)" fill="#2f3136"/>
                  </g>
                </g>
                <g id="Grupo_87685" data-name="Grupo 87685" transform="translate(0 77.25)">
                  <g id="Grupo_87682" data-name="Grupo 87682" transform="translate(40.729 3.577)">
                    <path id="Trazado_101999" data-name="Trazado 101999" d="M279.235,227.619c0-5.5-2.941-10.329-4.448-12.365-1.377-1.858-6.319-10.471-9.651-12.9.049.735.11,1.474.183,2.2a6.412,6.412,0,0,1,2.643,4.784c.191,2.827-2.375,11.345-4.636,16.247a63.22,63.22,0,0,0-4.3,12.966c-1.81,4.372-8.519,20.658-11.535,27.9s-8.745,26.614-11.309,34.153-7.54,24.88-9.047,28.65c-1.286,3.214-6.356,14.929-8.427,20.13,6.893-10.242,18.425-25.632,20.414-29.027,2.564-4.372,22.015-38.149,27.443-45.386s7.841-10.781,7.388-12.667-4.6-6.634-8.745-12.515c1.432-.075,8.67-.377,12.29-1.809C277.953,243.828,279.235,233.122,279.235,227.619Z" transform="translate(-218.163 -202.352)" fill="#e6b3ff"/>
                    <path id="Trazado_102000" data-name="Trazado 102000" d="M330.1,353.087H299.39c-2.067-5.917-2.766-11.752-3.8-17.038-1.206-6.183-5.277-28.349-6.03-29.856-3.469,7.839-7.237,14.625-7.69,18.244s-.6,5.429-1.66,8.294-2.864,3.015-1.959,7.539c.6,3.014,3.682,8.506,5.58,12.817h-65.7c-.016.045-.034.088-.05.131.195-.53.461-1.185.547-1.411,0,0,2.4-3.595,7-10.035,0,0,10.775-14.943,12.938-18.218,1.031-1.589,22.137-38.443,27.926-46.161,5.429-7.238,7.84-10.779,7.387-12.667s-4.6-6.634-8.745-12.514c1.431-.074,8.669-.378,12.289-1.809.489-4.484,2.038-17.368,1.66-21.892a20.542,20.542,0,0,0-1.983-6.826c4.984,3.474,16.454,11.934,18.8,13.338,2.636,1.583,15.832,9.5,17.641,12.062,3.166,2.866,5.591,11.5,5.881,21.864.15,5.429,4.673,25.484,5.881,36.037C326.373,314.4,329.008,344.467,330.1,353.087Z" transform="translate(-218.084 -204.779)" fill="#d174ff"/>
                    <path id="Trazado_102001" data-name="Trazado 102001" d="M284.574,350.638c.6,3.014,3.682,8.506,5.58,12.817H268.44c.717-7.987,2.269-16.658,3.165-22.919,1.66-11.612,15.683-32.117,21.338-36.265,0,1.508,1.658,8.521,2.94,12.29-3.469,7.839-7.237,14.625-7.69,18.244s-.6,5.429-1.66,8.294S283.669,346.115,284.574,350.638Z" transform="translate(-224.406 -215.147)" fill="#ad29ee"/>
                  </g>
                  <g id="Grupo_87683" data-name="Grupo 87683" transform="translate(6.434 5.778)">
                    <path id="Trazado_102002" data-name="Trazado 102002" d="M273.424,212.084a21.586,21.586,0,0,1-1.3-6.157C273.908,207.25,273.824,210.7,273.424,212.084Z" transform="translate(-190.573 -205.002)" fill="#889da6"/>
                    <path id="Trazado_102003" data-name="Trazado 102003" d="M266.009,225.9a63.219,63.219,0,0,0-4.3,12.966c-4.071,5.353-9.726,11.988-10.857,12.44s-2.789-2.036-4.824-5.352c-1.682-2.741-4.6-7.181-5.944-9.108l.442-.164a21.618,21.618,0,0,0,2.736-1.522c2.2-1.366,5.343-3.5,8.521-5.915,1.286-.977,2.58-2,3.82-3.044,6.107-5.125,11.16-8.292,13.8-14.249.4-1.383.484-4.834-1.3-6.157-.034-.3-.066-.613-.1-.925a6.412,6.412,0,0,1,2.643,4.784C270.836,212.48,268.271,221,266.009,225.9Z" transform="translate(-186.552 -204.869)" fill="#f0fbff"/>
                    <path id="Trazado_102004" data-name="Trazado 102004" d="M219.7,224.379c-1.223,2.024-3.937,6.645-4.286,7.193-.509,1.922-.961,5.089-.622,5.6s3,.339,4.127-.566a5.021,5.021,0,0,0,2.149-3.506c1.115-3.2,1.978-5.727,2.345-7.2A12.548,12.548,0,0,1,219.7,224.379Z" transform="translate(-183.362 -207.318)" fill="#f0fbff"/>
                    <path id="Trazado_102005" data-name="Trazado 102005" d="M226.145,242.7c-.16-1.864-.443-3.352-.555-4.1-.2-1.346.5-9.244.649-12.207.043,0-1.286-.127-1.965-.288l-2.285,7.218c1.075,2.149,3.375,4.75,4.128,9.424C226.127,242.725,226.136,242.71,226.145,242.7Z" transform="translate(-184.279 -207.534)" fill="#889da6"/>
                    <path id="Trazado_102006" data-name="Trazado 102006" d="M246.726,255.9c-1.131.452-2.789-2.036-4.824-5.352-1.682-2.741-4.6-7.181-5.944-9.108-1.5.552-3.2,1.149-3.48,2.247-.3,1.208-1.81,7.011-2.714,10.1-.868,2.974-4.811,13.686-11.949,27.51a5.247,5.247,0,0,1-.348.688c-.016.027-.031.054-.05.081-.489.784-3.447,4.913-3.956,6.722s-2.619,5.862-3.9,11.818-3.015,14.4-2.111,18.7,4.372,16.208,4.9,19.677c.47,3.088,2.017,9.344,1.764,16.586h2.653c-.236.592.414-1.054.5-1.28s.771-1.94,1.872-4.558c.1-.234,6.3-14.922,6.555-15.574,1.508-3.768,6.485-21.109,9.047-28.648s8.294-26.915,11.309-34.153,9.725-23.525,11.535-27.9C253.512,248.81,247.857,255.445,246.726,255.9Z" transform="translate(-182.422 -209.46)" fill="#b4eaff"/>
                    <path id="Trazado_102007" data-name="Trazado 102007" d="M220.551,249.89c-.707,4.254-4.152,25.322-6.692,31.068-.489.784-3.447,4.913-3.956,6.722s-2.619,5.862-3.9,11.817-3.015,14.4-2.111,18.7,4.372,16.208,4.9,19.677c.47,3.088,2.017,9.344,1.764,16.586H185.573c0-2.416-.184-6.487-.7-11.508-.536-5.252-1.307-10.61-2.051-14.389-1.584-8.029-3.166-23.24-3.732-28.5s-.113-10.517,2.149-14.815,7.181-12.1,8.822-14.928,10.291-17.132,11.761-20.243,7.777-15.126,9.1-17.472c-.509,1.922-.961,5.089-.622,5.6s3,.339,4.127-.566a5.021,5.021,0,0,0,2.149-3.506c1.075,2.15,3.375,4.75,4.128,9.425A24.178,24.178,0,0,1,220.551,249.89Z" transform="translate(-178.866 -208.351)" fill="#b4eaff"/>
                    <path id="Trazado_102008" data-name="Trazado 102008" d="M219.137,355.548c-1.1,2.615-1.773,4.326-1.868,4.553-.25.652-.709,1.8-.5,1.286h-2.653c.254-7.242-1.293-13.5-1.764-16.586-.527-3.469-3.995-15.38-4.9-19.677s.828-12.743,2.111-18.7,3.392-10.008,3.9-11.818,3.467-5.938,3.956-6.722c.018-.027.034-.054.05-.081-4.1,14.292-2.9,36.114-.595,44.179C218.649,338.2,219.445,347.2,219.137,355.548Z" transform="translate(-182.422 -215.281)" fill="#9ce3ff"/>
                  </g>
                  <g id="Grupo_87684" data-name="Grupo 87684">
                    <path id="Trazado_102009" data-name="Trazado 102009" d="M184.779,368.218H172.538c1.206-8.178,4.867-18.96,6.206-26.011a63.456,63.456,0,0,0,5.329,14.5c.008,0,.183,1.874.184,1.882C184.478,360.836,184.779,365.1,184.779,368.218Z" transform="translate(-171.637 -216.332)" fill="#d174ff"/>
                    <path id="Trazado_102010" data-name="Trazado 102010" d="M206.621,212.573c.17,1.357.4,6.955,1.132,8.878-3.28.962-9.386.453-10.065.848s-5.825,12.383-7.973,17.473c-1.73,4.1-13.279,24.389-18.073,39.523a69.635,69.635,0,0,1,1-8.649c1.584-8.708,12.779-31.478,16.925-39.168a34.318,34.318,0,0,1,2.054-14.677,86.775,86.775,0,0,1,4.582-9.524c3.148-6.1,6.953-8.025,9.137-9.016a14.67,14.67,0,0,0,.72,2.156c-1.018,1.47-1.47,3.563-1.018,4.467a3.461,3.461,0,0,0,2.714,2.093,4.212,4.212,0,0,0,1.413,2.149,6.727,6.727,0,0,0,0,1.334C207.9,211.038,206.477,211.413,206.621,212.573Z" transform="translate(-171.525 -198.261)" fill="#d174ff"/>
                    <path id="Trazado_102011" data-name="Trazado 102011" d="M214.284,222.851c-1.224,2.024-3.939,6.646-4.287,7.193-1.327,2.345-7.633,14.362-9.1,17.472s-10.121,17.416-11.761,20.243-6.559,10.631-8.822,14.928-2.713,9.556-2.148,14.815,2.148,20.469,3.732,28.5c.744,3.779,1.515,9.137,2.051,14.389a63.356,63.356,0,0,1-5.332-14.5c-.113-.339-3.053-13.684-5.315-23.861a78.312,78.312,0,0,1-1.675-20.98c4.795-15.134,16.344-35.427,18.073-39.523,2.149-5.089,7.295-17.076,7.973-17.473s6.785.114,10.065-.848c-.735-1.922-.962-7.52-1.132-8.878-.144-1.16,1.283-1.536,2.547-2.114a3.365,3.365,0,0,0,1.467,2.68c0,3.282.767,5.688,2.784,7.326A7.591,7.591,0,0,0,214.284,222.851Z" transform="translate(-171.508 -200.012)" fill="#e6b3ff"/>
                    <path id="Trazado_102012" data-name="Trazado 102012" d="M192.125,234.139a34.319,34.319,0,0,1,2.054-14.677c.337,2.9,1.047,6.227,1.189,6.987C195.594,227.656,194.237,230.068,192.125,234.139Z" transform="translate(-174.086 -200.923)" fill="#ad29ee"/>
                  </g>
                </g>
              </g>
              <g id="Grupo_87687" data-name="Grupo 87687" transform="translate(12.95 199.948)">
                <path id="Trazado_102013" data-name="Trazado 102013" d="M281.06,336.244a1.574,1.574,0,1,0,1.573-1.574A1.573,1.573,0,0,0,281.06,336.244Z" transform="translate(-172.055 -297.789)" opacity="0.6" fill="url(#radial-gradient-2)" style="mix-blend-mode: screen;isolation: isolate"/>
                <path id="Trazado_102014" data-name="Trazado 102014" d="M199.481,353.339a1.574,1.574,0,1,0,1.573-1.573A1.574,1.574,0,0,0,199.481,353.339Z" transform="translate(-161.813 -299.935)" opacity="0.6" fill="url(#radial-gradient-3)" style="mix-blend-mode: screen;isolation: isolate"/>
                <path id="Trazado_102015" data-name="Trazado 102015" d="M165.74,331a2.852,2.852,0,1,0,2.852-2.852A2.852,2.852,0,0,0,165.74,331Z" transform="translate(-157.577 -296.97)" opacity="0.6" fill="url(#radial-gradient-4)" style="mix-blend-mode: screen;isolation: isolate"/>
                <path id="Trazado_102016" data-name="Trazado 102016" d="M156.4,314.774a3.835,3.835,0,1,0,3.835-3.836A3.835,3.835,0,0,0,156.4,314.774Z" transform="translate(-156.405 -294.81)" opacity="0.6" fill="url(#radial-gradient-5)" style="mix-blend-mode: screen;isolation: isolate"/>
                <path id="Trazado_102017" data-name="Trazado 102017" d="M230.185,358.507a3.18,3.18,0,1,0,3.18-3.18A3.18,3.18,0,0,0,230.185,358.507Z" transform="translate(-165.668 -300.382)" opacity="0.6" fill="url(#radial-gradient-6)" style="mix-blend-mode: screen;isolation: isolate"/>
                <path id="Trazado_102018" data-name="Trazado 102018" d="M161.353,294.362a1.869,1.869,0,1,0,1.869-1.868A1.868,1.868,0,0,0,161.353,294.362Z" transform="translate(-157.026 -292.494)" opacity="0.6" fill="url(#radial-gradient-7)" style="mix-blend-mode: screen;isolation: isolate"/>
                <path id="Trazado_102019" data-name="Trazado 102019" d="M274.724,357.2a1.869,1.869,0,1,0,1.869-1.869A1.869,1.869,0,0,0,274.724,357.2Z" transform="translate(-171.259 -300.382)" opacity="0.6" fill="url(#radial-gradient-8)" style="mix-blend-mode: screen;isolation: isolate"/>
                <path id="Trazado_102020" data-name="Trazado 102020" d="M181.448,320.006a1.869,1.869,0,1,0,1.869-1.869A1.869,1.869,0,0,0,181.448,320.006Z" transform="translate(-159.549 -295.713)" opacity="0.6" fill="url(#radial-gradient-9)" style="mix-blend-mode: screen;isolation: isolate"/>
                <path id="Trazado_102021" data-name="Trazado 102021" d="M339.507,316.407a1.869,1.869,0,1,0,1.869-1.869A1.869,1.869,0,0,0,339.507,316.407Z" transform="translate(-179.392 -295.261)" opacity="0.6" fill="url(#radial-gradient-10)" style="mix-blend-mode: screen;isolation: isolate"/>
                <path id="Trazado_102022" data-name="Trazado 102022" d="M186.029,339.3a2.452,2.452,0,1,0,2.453-2.452A2.453,2.453,0,0,0,186.029,339.3Z" transform="translate(-160.124 -298.063)" opacity="0.6" fill="url(#radial-gradient-11)" style="mix-blend-mode: screen;isolation: isolate"/>
                <path id="Trazado_102023" data-name="Trazado 102023" d="M254.711,348.2a2.453,2.453,0,1,0,2.453-2.453A2.452,2.452,0,0,0,254.711,348.2Z" transform="translate(-168.747 -299.179)" opacity="0.6" fill="url(#radial-gradient-12)" style="mix-blend-mode: screen;isolation: isolate"/>
                <path id="Trazado_102024" data-name="Trazado 102024" d="M293.731,350.427a3.836,3.836,0,1,0,3.836-3.835A3.836,3.836,0,0,0,293.731,350.427Z" transform="translate(-173.645 -299.286)" opacity="0.4" fill="url(#radial-gradient-13)" style="mix-blend-mode: screen;isolation: isolate"/>
                <path id="Trazado_102025" data-name="Trazado 102025" d="M339.17,294.629a1.574,1.574,0,1,0,1.573-1.573A1.573,1.573,0,0,0,339.17,294.629Z" transform="translate(-179.35 -292.564)" opacity="0.6" fill="url(#radial-gradient-14)" style="mix-blend-mode: screen;isolation: isolate"/>
              </g>
            </g>
          </g>
        </g>
      </g>
      <g id="Grupo_87697" data-name="Grupo 87697" transform="translate(213.562 0)">
        <g id="Grupo_87692" data-name="Grupo 87692">
          <path id="Trazado_102027" data-name="Trazado 102027" d="M277.309,34.549l-1.487,2.623-5.457-2.234L264.6,32.578l3.265-1.894Z" transform="translate(-264.602 -26.44)" fill="#65c0f7"/>
          <path id="Trazado_102028" data-name="Trazado 102028" d="M297.636,71.233l-3.266,1.894-.94-6.876-.978-7.13,3.28-1.8Z" transform="translate(-268.098 -29.785)" fill="#3b9ad4"/>
          <path id="Trazado_102029" data-name="Trazado 102029" d="M291.455,40.466l-3.265,1.894-4.2-12.227-.825-2.407,3.265-1.894Z" transform="translate(-266.933 -25.831)" fill="#3b9ad4"/>
          <path id="Trazado_102030" data-name="Trazado 102030" d="M303.391,50.924l-3.265,1.894-.081-.062-11.134-8.3,3.265-1.894Z" transform="translate(-267.654 -27.932)" fill="#65c0f7"/>
          <path id="Trazado_102031" data-name="Trazado 102031" d="M292.236,53.641l-3.28,1.8.978,7.13.94,6.876L280.838,57.563l-10.036.3,1.918-11.8L264.6,32.241l5.764,2.359,5.457,2.234,1.487-2.623L280.838,28l.825,2.407,4.191,12.227,11.139,8.3.081.062Z" transform="translate(-264.602 -26.103)" fill="#33bbe8" opacity="0.4"/>
        </g>
        <g id="Grupo_87693" data-name="Grupo 87693" transform="translate(40.072 23.135)">
          <path id="Trazado_102032" data-name="Trazado 102032" d="M323.134,61.005l-1.486,2.623-5.457-2.234-5.764-2.359,3.266-1.894Z" transform="translate(-310.427 -52.897)" fill="#65c0f7"/>
          <path id="Trazado_102033" data-name="Trazado 102033" d="M343.461,97.689,340.2,99.583l-.94-6.876-.978-7.13,3.28-1.8Z" transform="translate(-313.923 -56.241)" fill="#3b9ad4"/>
          <path id="Trazado_102034" data-name="Trazado 102034" d="M337.28,66.922l-3.265,1.894-4.2-12.227-.825-2.407,3.266-1.894Z" transform="translate(-312.758 -52.287)" fill="#3b9ad4"/>
          <path id="Trazado_102035" data-name="Trazado 102035" d="M349.216,77.381l-3.265,1.894-.082-.062-11.134-8.3L338,69.023Z" transform="translate(-313.478 -54.388)" fill="#65c0f7"/>
          <path id="Trazado_102036" data-name="Trazado 102036" d="M338.061,80.1l-3.28,1.8.978,7.13.94,6.876L326.663,84.02l-10.036.3,1.918-11.8L310.427,58.7l5.764,2.359,5.457,2.234,1.486-2.623,3.529-6.214.825,2.407,4.191,12.227,11.139,8.3.082.062Z" transform="translate(-310.427 -52.559)" fill="#33bbe8" opacity="0.4"/>
        </g>
        <g id="Grupo_87694" data-name="Grupo 87694" transform="translate(80.144 46.27)">
          <path id="Trazado_102037" data-name="Trazado 102037" d="M368.959,87.461l-1.486,2.623-5.457-2.235-5.764-2.359,3.265-1.894Z" transform="translate(-356.252 -79.353)" fill="#65c0f7"/>
          <path id="Trazado_102038" data-name="Trazado 102038" d="M389.285,124.145l-3.265,1.894-.94-6.876-.978-7.13,3.28-1.8Z" transform="translate(-359.748 -82.697)" fill="#3b9ad4"/>
          <path id="Trazado_102039" data-name="Trazado 102039" d="M383.1,93.378l-3.265,1.894-4.2-12.227-.825-2.407,3.265-1.894Z" transform="translate(-358.583 -78.744)" fill="#3b9ad4"/>
          <path id="Trazado_102040" data-name="Trazado 102040" d="M395.041,103.837l-3.265,1.894-.081-.062-11.134-8.3,3.266-1.894Z" transform="translate(-359.303 -80.845)" fill="#65c0f7"/>
          <path id="Trazado_102041" data-name="Trazado 102041" d="M383.885,106.554l-3.28,1.8.978,7.13.94,6.876-10.036-11.882-10.036.3,1.918-11.8-8.118-13.824,5.764,2.359,5.457,2.234,1.486-2.623,3.529-6.214.825,2.407L377.5,95.544l11.139,8.3.082.062Z" transform="translate(-356.252 -79.016)" fill="#33bbe8" opacity="0.4"/>
        </g>
        <g id="Grupo_87695" data-name="Grupo 87695" transform="translate(120.216 69.405)">
          <path id="Trazado_102042" data-name="Trazado 102042" d="M414.783,113.918,413.3,116.54l-5.457-2.234-5.764-2.359,3.265-1.894Z" transform="translate(-402.077 -105.809)" fill="#65c0f7"/>
          <path id="Trazado_102043" data-name="Trazado 102043" d="M435.11,150.6l-3.266,1.894-.94-6.876-.978-7.13,3.28-1.8Z" transform="translate(-405.573 -109.153)" fill="#3b9ad4"/>
          <path id="Trazado_102044" data-name="Trazado 102044" d="M428.929,119.834l-3.265,1.894-4.2-12.227-.825-2.407,3.265-1.894Z" transform="translate(-404.407 -105.2)" fill="#3b9ad4"/>
          <path id="Trazado_102045" data-name="Trazado 102045" d="M440.865,130.293l-3.265,1.894-.081-.062-11.134-8.3,3.265-1.894Z" transform="translate(-405.128 -107.301)" fill="#65c0f7"/>
          <path id="Trazado_102046" data-name="Trazado 102046" d="M429.71,133.01l-3.28,1.8.978,7.13.94,6.876-10.036-11.882-10.036.3,1.918-11.8-8.118-13.824,5.764,2.359L413.3,116.2l1.486-2.623,3.529-6.214.825,2.407L423.328,122l11.139,8.3.081.062Z" transform="translate(-402.077 -105.472)" fill="#33bbe8" opacity="0.4"/>
        </g>
        <g id="Grupo_87696" data-name="Grupo 87696" transform="translate(160.287 92.539)">
          <path id="Trazado_102047" data-name="Trazado 102047" d="M460.608,140.374,459.122,143l-5.457-2.234L447.9,138.4l3.265-1.894Z" transform="translate(-447.901 -132.265)" fill="#65c0f7"/>
          <path id="Trazado_102048" data-name="Trazado 102048" d="M480.935,177.058l-3.265,1.894-.94-6.876-.978-7.13,3.28-1.8Z" transform="translate(-451.398 -135.61)" fill="#3b9ad4"/>
          <path id="Trazado_102049" data-name="Trazado 102049" d="M474.754,146.291l-3.266,1.894-4.2-12.227-.825-2.407,3.266-1.894Z" transform="translate(-450.232 -131.656)" fill="#3b9ad4"/>
          <path id="Trazado_102050" data-name="Trazado 102050" d="M486.69,156.749l-3.266,1.894-.082-.062-11.134-8.3,3.266-1.894Z" transform="translate(-450.953 -133.757)" fill="#65c0f7"/>
          <path id="Trazado_102051" data-name="Trazado 102051" d="M475.535,159.466l-3.28,1.8.978,7.13.94,6.876-10.036-11.882-10.036.3,1.918-11.8L447.9,138.066l5.764,2.359,5.457,2.234,1.486-2.623,3.529-6.214.825,2.407,4.191,12.227,11.139,8.3.082.062Z" transform="translate(-447.901 -131.928)" fill="#33bbe8" opacity="0.4"/>
        </g>
      </g>
      <g id="Grupo_87701" data-name="Grupo 87701" transform="translate(5.221 179.138)">
        <path id="Trazado_102052" data-name="Trazado 102052" d="M113.648,282.686V331l-87.3-50.412v-48.3l2.413,1.4Z" transform="translate(-26.35 -230.888)" fill="#33bbe8" opacity="0.4"/>
        <g id="Grupo_87700" data-name="Grupo 87700" transform="translate(1.464 25.189)" opacity="0.9" style="mix-blend-mode: screen;isolation: isolate">
          <path id="Trazado_102053" data-name="Trazado 102053" d="M41.5,271.2l41.185,23.777a7.859,7.859,0,0,1,3.542,6.135v7.547c0,2.263-1.6,3.169-3.542,2.044L46.2,289.636a7.838,7.838,0,0,1-3.542-6.135v-7.546a7.548,7.548,0,0,0-1.376-4.034C40.962,271.458,41.1,270.971,41.5,271.2Zm9.342,17.878,30.633,17.686c.722.417,1.307.08,1.307-.755a2.888,2.888,0,0,0-1.307-2.264L50.845,286.06c-.723-.417-1.307-.08-1.307.755A2.885,2.885,0,0,0,50.845,289.079Zm-3.187-8.065,33.82,19.526c.722.417,1.307.08,1.307-.755a2.888,2.888,0,0,0-1.307-2.264L47.658,278c-.722-.417-1.306-.08-1.306.755A2.885,2.885,0,0,0,47.658,281.014Z" transform="translate(-29.667 -260.955)" fill="#fff"/>
          <path id="Trazado_102054" data-name="Trazado 102054" d="M59.275,262.017c0-2.25,1.594-3.17,3.542-2.045L104,283.749c.4.23.54.883.226.983a2.312,2.312,0,0,0-1.377,2.443v7.547c0,2.263-1.594,3.169-3.542,2.044L62.817,275.7a7.838,7.838,0,0,1-3.542-6.135Zm21.3,20.566,17.482,10.092c.722.417,1.306.08,1.306-.755a2.888,2.888,0,0,0-1.306-2.264L80.573,279.564c-.722-.417-1.306-.08-1.306.755A2.887,2.887,0,0,0,80.573,282.583ZM64.236,267.177,98.055,286.7c.722.417,1.306.08,1.306-.755a2.887,2.887,0,0,0-1.306-2.264l-33.82-19.525c-.722-.417-1.307-.08-1.307.755A2.888,2.888,0,0,0,64.236,267.177Z" transform="translate(-31.948 -259.492)" fill="#fff"/>
          <g id="Grupo_87699" data-name="Grupo 87699" transform="translate(74.165 27.098)">
            <path id="Trazado_102055" data-name="Trazado 102055" d="M115.815,290.481a4.437,4.437,0,0,1,2.206.663,9.9,9.9,0,0,1,4.541,7.866c0,2.22-1.169,3.655-2.978,3.655a4.436,4.436,0,0,1-2.206-.663,9.9,9.9,0,0,1-4.541-7.866C112.838,291.916,114.006,290.481,115.815,290.481Zm1.884,10.966c2.331,1.346,4.221.254,4.221-2.437a9.329,9.329,0,0,0-4.221-7.31c-2.33-1.346-4.22-.254-4.22,2.437A9.33,9.33,0,0,0,117.7,301.447Z" transform="translate(-112.838 -290.481)" fill="#fff"/>
            <g id="Grupo_87698" data-name="Grupo 87698" transform="translate(1.489 2.729)">
              <path id="Trazado_102056" data-name="Trazado 102056" d="M116.281,294.923a4.093,4.093,0,0,0,1.851,3.207c1.023.59,1.852.112,1.852-1.07a4.091,4.091,0,0,0-1.852-3.207C117.11,293.264,116.281,293.743,116.281,294.923Z" transform="translate(-114.759 -293.602)" fill="#fff"/>
              <path id="Trazado_102057" data-name="Trazado 102057" d="M117.914,302.322a9,9,0,0,1-3.373-3.919,2.393,2.393,0,0,1,3.373-.48,8.907,8.907,0,0,1,3.374,4.375C120.518,303.043,119.3,303.121,117.914,302.322Z" transform="translate(-114.541 -294.085)" fill="#fff"/>
            </g>
          </g>
          <path id="Trazado_102058" data-name="Trazado 102058" d="M31,265.212a4.441,4.441,0,0,1,2.207.663,9.9,9.9,0,0,1,4.541,7.866c0,2.22-1.169,3.655-2.978,3.655a4.436,4.436,0,0,1-2.206-.663,9.9,9.9,0,0,1-4.541-7.867C28.025,266.647,29.193,265.212,31,265.212Zm1.885,2.981c-1.022-.59-1.851-.111-1.851,1.069a4.1,4.1,0,0,0,1.851,3.208c1.023.59,1.852.111,1.852-1.07A4.094,4.094,0,0,0,32.887,268.193Zm0,7.984c1.385.8,2.6.722,3.374-.024a10.717,10.717,0,0,0-1.891-3.089,1.481,1.481,0,0,1-.656.171,2.176,2.176,0,0,1-1.083-.322,4.3,4.3,0,0,1-1.507-1.588,2.236,2.236,0,0,0-1.611.931A8.989,8.989,0,0,0,32.887,276.177Z" transform="translate(-28.025 -260.21)" fill="#fff"/>
        </g>
        <path id="Trazado_102059" data-name="Trazado 102059" d="M116.061,281.084l-2.413,1.4-84.884-49-2.413-1.4,2.413-1.4Z" transform="translate(-26.35 -230.687)" fill="#65c0f7"/>
        <path id="Trazado_102060" data-name="Trazado 102060" d="M128.594,288.32v48.312l-2.413,1.4V289.72Z" transform="translate(-38.883 -237.922)" fill="#3b9ad4"/>
      </g>
      <g id="Grupo_87705" data-name="Grupo 87705" transform="translate(144.526 296.144)">
        <path id="Trazado_102061" data-name="Trazado 102061" d="M255.316,405.985v29.327l-69.661-40.228V365.769l1.926,1.117Z" transform="translate(-185.655 -364.652)" fill="#33bbe8" opacity="0.4"/>
        <g id="Grupo_87704" data-name="Grupo 87704" transform="translate(4.467 10.416)" opacity="0.9" style="mix-blend-mode: screen;isolation: isolate">
          <g id="Grupo_87702" data-name="Grupo 87702">
            <path id="Trazado_102062" data-name="Trazado 102062" d="M199.9,396.309a3.014,3.014,0,0,1-1.167-1.409l-4.863-11.509c-.416-.985-.231-1.872.414-1.981s1.506.6,1.923,1.588l3.646,8.63,6.161-8.4c.393-.536,1.245-.292,1.905.541a2.325,2.325,0,0,1,.484,2.48l-7.309,9.96a.849.849,0,0,1-1.169.109Z" transform="translate(-191.126 -377.029)" fill="#fff"/>
            <path id="Trazado_102063" data-name="Trazado 102063" d="M206.877,390.1l-1.392,1.9,0,5.862c0,1.364-.963,1.919-2.146,1.235l-9.039-5.225a4.744,4.744,0,0,1-2.142-3.714l.005-10.434c0-1.365.963-1.919,2.146-1.236l8.6,4.973.814-1.11c-.124-.087-.25-.169-.379-.243l-9.038-5.225c-1.949-1.126-3.536-.213-3.537,2.038l-.006,10.434a7.827,7.827,0,0,0,3.533,6.123l9.039,5.225c1.949,1.126,3.536.213,3.537-2.037Z" transform="translate(-190.763 -376.402)" fill="#fff"/>
          </g>
          <g id="Grupo_87703" data-name="Grupo 87703" transform="translate(25.383 13.355)">
            <path id="Trazado_102064" data-name="Trazado 102064" d="M252.942,416.061,219.79,396.92v-5.245l33.153,19.14Z" transform="translate(-219.79 -391.675)" fill="#fff"/>
            <path id="Trazado_102065" data-name="Trazado 102065" d="M252.942,428.887l-33.153-19.14V404.5l33.153,19.14Z" transform="translate(-219.79 -393.285)" fill="#fff"/>
          </g>
        </g>
        <path id="Trazado_102066" data-name="Trazado 102066" d="M257.242,404.707l-1.926,1.117-67.735-39.1-1.926-1.118,1.926-1.117Z" transform="translate(-185.655 -364.491)" fill="#65c0f7"/>
        <path id="Trazado_102067" data-name="Trazado 102067" d="M267.243,410.481v29.327l-1.926,1.117V411.6Z" transform="translate(-195.656 -370.265)" fill="#3b9ad4"/>
      </g>
      <g id="Grupo_87714" data-name="Grupo 87714" transform="translate(0 3.269)">
        <g id="Grupo_87708" data-name="Grupo 87708" transform="translate(0 6.485)">
          <g id="Grupo_87706" data-name="Grupo 87706" transform="translate(7.44 71.86)" opacity="0.4">
            <path id="Trazado_102068" data-name="Trazado 102068" d="M81.212,122.374l-40.65,23.474c-5.068,2.919-9.482,2.151-11.674-1.438a11.561,11.561,0,0,0,6.1-1.773l40.664-23.474Z" transform="translate(-28.888 -119.163)" fill="#0c69a3" opacity="0.4"/>
          </g>
          <path id="Trazado_102069" data-name="Trazado 102069" d="M26.324,127.925V99.9c0-8.4,5.9-18.607,13.168-22.806L99.9,42.216c3.636-2.1,6.927-2.3,9.31-.922l-5.943-3.431c-2.383-1.376-5.675-1.178-9.311.922L33.547,73.664C26.275,77.863,20.38,88.074,20.38,96.47v28.024c0,4.2,1.474,7.149,3.857,8.524l5.944,3.431C27.8,135.074,26.324,132.124,26.324,127.925Z" transform="translate(-20.38 -36.986)" fill="#65c0f7"/>
          <path id="Trazado_102070" data-name="Trazado 102070" d="M100.758,42.709,40.345,77.588C33.073,81.788,27.177,92,27.177,100.394v28.024c0,8.4,5.9,11.8,13.168,7.6L81,112.546l16.054,7.724V103.276l3.7-2.136c7.272-4.2,13.167-14.408,13.167-22.806V50.311C113.925,41.915,108.03,38.511,100.758,42.709Z" transform="translate(-21.233 -37.479)" fill="#1096e8" opacity="0.4"/>
          <g id="Grupo_87707" data-name="Grupo 87707" transform="translate(17.391 15.811)" opacity="0.9" style="mix-blend-mode: screen;isolation: isolate">
            <path id="Trazado_102071" data-name="Trazado 102071" d="M40.336,105.2a16.287,16.287,0,0,1,2.18-8.39,13.43,13.43,0,0,1,4.949-5.034q2.816-1.625,4.8-.334t1.987,4.543a22.829,22.829,0,0,1-1.294,7.223q-.7,2.137-3.293,7.853-.7,1.561-2.088,4.8l-.771,1.783q-.75,1.745-1.136,2.727a3.162,3.162,0,0,0-.182.577l8.425-4.864v4.851l-13.647,7.879v-4.545a21.952,21.952,0,0,1,.937-2.353q.433-1.009.981-2.241l1.117-2.5q.977-2.109,3.068-6.725a64.72,64.72,0,0,0,2.956-7.5,15.441,15.441,0,0,0,.8-4.418A2.683,2.683,0,0,0,49.4,96.4a1.7,1.7,0,0,0-2.043.079,5.934,5.934,0,0,0-2.544,3.855,7.842,7.842,0,0,0-.249,2.032v1.258l-4.224,2.438Z" transform="translate(-40.268 -59.561)" fill="#fff"/>
            <path id="Trazado_102072" data-name="Trazado 102072" d="M56.5,107.118l7.584-25.2,4.292-2.478v20.818l2.747-1.586v4.983l-2.747,1.585v7.079L64.081,114.8v-7.079L56.5,112.1Zm7.584-4.378V92.471l-3.544,12.315Z" transform="translate(-42.305 -58.127)" fill="#fff"/>
            <path id="Trazado_102073" data-name="Trazado 102073" d="M88.466,65.213l3.5-2.02L80.09,106l-3.5,2.021Z" transform="translate(-44.828 -56.087)" fill="#fff"/>
            <path id="Trazado_102074" data-name="Trazado 102074" d="M110.447,55.067v4.982l-6.018,31.372-4.212,2.431,6.018-31.371L97.55,67.495V62.513Z" transform="translate(-47.459 -55.067)" fill="#fff"/>
            <path id="Trazado_102075" data-name="Trazado 102075" d="M40.336,105.2a16.287,16.287,0,0,1,2.18-8.39,13.43,13.43,0,0,1,4.949-5.034q2.816-1.625,4.8-.334t1.987,4.543a22.829,22.829,0,0,1-1.294,7.223q-.7,2.137-3.293,7.853-.7,1.561-2.088,4.8l-.771,1.783q-.75,1.745-1.136,2.727a3.162,3.162,0,0,0-.182.577l8.425-4.864v4.851l-13.647,7.879v-4.545a21.952,21.952,0,0,1,.937-2.353q.433-1.009.981-2.241l1.117-2.5q.977-2.109,3.068-6.725a64.72,64.72,0,0,0,2.956-7.5,15.441,15.441,0,0,0,.8-4.418A2.683,2.683,0,0,0,49.4,96.4a1.7,1.7,0,0,0-2.043.079,5.934,5.934,0,0,0-2.544,3.855,7.842,7.842,0,0,0-.249,2.032v1.258l-4.224,2.438Z" transform="translate(-40.268 -59.561)" fill="#fff"/>
            <path id="Trazado_102076" data-name="Trazado 102076" d="M56.5,107.118l7.584-25.2,4.292-2.478v20.818l2.747-1.586v4.983l-2.747,1.585v7.079L64.081,114.8v-7.079L56.5,112.1Zm7.584-4.378V92.471l-3.544,12.315Z" transform="translate(-42.305 -58.127)" fill="#fff"/>
            <path id="Trazado_102077" data-name="Trazado 102077" d="M88.466,65.213l3.5-2.02L80.09,106l-3.5,2.021Z" transform="translate(-44.828 -56.087)" fill="#fff"/>
            <path id="Trazado_102078" data-name="Trazado 102078" d="M110.447,55.067v4.982l-6.018,31.372-4.212,2.431,6.018-31.371L97.55,67.495V62.513Z" transform="translate(-47.459 -55.067)" fill="#fff"/>
          </g>
        </g>
        <g id="Grupo_87710" data-name="Grupo 87710" transform="translate(87.808 0)">
          <path id="Trazado_102079" data-name="Trazado 102079" d="M144.411,148.194l-5.563-3.212v-15.9l5.563,3.212Z" transform="translate(-123.06 -42.062)" fill="#65c0f7"/>
          <path id="Trazado_102080" data-name="Trazado 102080" d="M143.132,132.29l-3.464,2c-4.232,2.442-8.88,2.415-11.045-1.522,3.043,0,5.344-1.615,8.937-3.687Z" transform="translate(-121.777 -42.062)" fill="#0c69a3" opacity="0.4"/>
          <path id="Trazado_102081" data-name="Trazado 102081" d="M133.117,63.9,189.66,31.253c3.4-1.965,6.484-2.151,8.714-.863l5.563,3.211c-2.23-1.287-5.311-1.1-8.714.864L138.68,67.11c-6.806,3.929-12.324,13.486-12.324,21.345v26.228c0,3.93,1.38,6.69,3.61,7.979l-5.562-3.212c-2.23-1.287-3.61-4.049-3.61-7.979V85.242C120.794,77.384,126.311,67.828,133.117,63.9Z" transform="translate(-120.794 -29.57)" fill="#65c0f7"/>
          <path id="Trazado_102082" data-name="Trazado 102082" d="M139.479,67.571l56.543-32.644c6.806-3.93,12.324-.744,12.324,7.115V68.269c0,7.86-5.517,17.416-12.323,21.345l-38.055,21.971-15.026,24.578v-15.9l-3.464,2c-6.806,3.929-12.323.743-12.324-7.115V88.915C127.155,81.057,132.672,71.5,139.479,67.571Z" transform="translate(-121.593 -30.031)" fill="#1096e8" opacity="0.4"/>
          <g id="Grupo_87709" data-name="Grupo 87709" transform="translate(34.849 23.727)" opacity="0.9" style="mix-blend-mode: screen;isolation: isolate">
            <path id="Trazado_102083" data-name="Trazado 102083" d="M173.1,59.075c7.258-4.19,11.754-2.845,11.754,4.159,0,9.444-8.341,15.511-8.341,22.829l-7.2,4.158c0-9.631,6.662-14.039,6.662-20.043,0-2.628-1.409-3-3.791-1.627-2.655,1.533-4.063,4.16-4.117,7.944l-7.421,4.284A24.792,24.792,0,0,1,173.1,59.075Zm4.334,36.587a9.859,9.859,0,0,1-4.658,8.131c-2.708,1.564-4.6.406-4.6-2.783a9.647,9.647,0,0,1,4.6-8.037C175.487,91.41,177.437,92.474,177.437,95.663Z" transform="translate(-160.646 -56.703)" fill="#fff"/>
          </g>
        </g>
        <g id="Grupo_87713" data-name="Grupo 87713" transform="translate(23.394 93.655)">
          <path id="Trazado_102084" data-name="Trazado 102084" d="M75.691,144.8c7.136-4.12,13.6-4.51,18.275-1.81L102.3,147.8c-4.677-2.7-11.139-2.31-18.275,1.81-14.274,8.241-25.845,28.282-25.845,44.764,0,8.241,2.893,14.032,7.57,16.732L57.416,206.3c-4.677-2.7-7.57-8.491-7.57-16.732C49.846,173.082,61.417,153.04,75.691,144.8Z" transform="translate(-47.473 -137.248)" fill="#a3a3a0"/>
          <ellipse id="Elipse_4784" data-name="Elipse 4784" cx="36.55" cy="21.102" rx="36.55" ry="21.102" transform="matrix(0.5, -0.866, 0.866, 0.5, 0, 63.306)" fill="#dbdcd6"/>
          <ellipse id="Elipse_4785" data-name="Elipse 4785" cx="31.011" cy="17.905" rx="31.011" ry="17.905" transform="matrix(0.5, -0.866, 0.866, 0.5, 5.539, 60.108)" fill="#fff"/>
          <path id="Trazado_102085" data-name="Trazado 102085" d="M86.09,206.045c12.11-6.992,21.928-24,21.928-37.98,0-6.823-2.342-11.66-6.142-14.019,4.138,2.217,6.717,7.19,6.717,14.351,0,13.983-9.818,30.988-21.929,37.98-6.2,3.58-11.8,3.834-15.786,1.358C74.821,209.846,80.18,209.456,86.09,206.045Z" transform="translate(-50.114 -138.851)" fill="#a3a3a0"/>
          <g id="Grupo_87712" data-name="Grupo 87712" transform="translate(15.916 18.03)">
            <path id="Trazado_102086" data-name="Trazado 102086" d="M89.743,181.508l-.676-.639,12.872-18.7c.247-.357.6-.5.784-.327s.138.609-.108.966Z" transform="translate(-68.313 -157.852)"/>
            <path id="Trazado_102087" data-name="Trazado 102087" d="M87.732,182.813l-1.214,2.868-7.648-1.293c-.519-.087-.667-.8-.332-1.593s1.027-1.363,1.546-1.276Z" transform="translate(-66.969 -160.33)"/>
            <g id="Grupo_87711" data-name="Grupo 87711" transform="translate(12.88 10.967)">
              <path id="Trazado_102088" data-name="Trazado 102088" d="M84.612,185.722a.508.508,0,0,1,.2-.426l20.356-15.41c.129-.1.25-.066.27.072a.51.51,0,0,1-.2.426l-20.356,15.41C84.753,185.892,84.632,185.86,84.612,185.722Z" transform="translate(-80.634 -169.83)" fill="#ba322d"/>
              <path id="Trazado_102089" data-name="Trazado 102089" d="M80.388,191.289q-.548-.237-.172-1.174l4.185-3.167q.515.261.171,1.173Z" transform="translate(-80.063 -171.979)" fill="#ba322d"/>
            </g>
            <path id="Trazado_102090" data-name="Trazado 102090" d="M90.359,183.463a3.68,3.68,0,0,1-1.665,2.884c-.92.531-1.665.1-1.665-.962a3.68,3.68,0,0,1,1.665-2.884C89.613,181.971,90.359,182.4,90.359,183.463Z" transform="translate(-68.058 -160.426)" fill="#ba322d"/>
            <path id="Trazado_102091" data-name="Trazado 102091" d="M88.852,165.436c-.189.108-.345.025-.351-.189L88.29,158.2a.771.771,0,0,1,.35-.621l.424-.245c.2-.115.357-.017.351.216l-.212,7.29A.777.777,0,0,1,88.852,165.436Z" transform="translate(-68.216 -157.289)" fill="#545454"/>
            <path id="Trazado_102092" data-name="Trazado 102092" d="M72.242,193.76a.778.778,0,0,1-.338.6L65.7,198.188c-.2.122-.363.034-.363-.2V197.5a.771.771,0,0,1,.363-.614l6.207-3.34C72.093,193.45,72.242,193.542,72.242,193.76Z" transform="translate(-65.334 -161.836)" fill="#545454"/>
            <path id="Trazado_102093" data-name="Trazado 102093" d="M88.852,202.853c.189-.108.344-.025.351.189l.212,7.045a.771.771,0,0,1-.351.621l-.423.245c-.2.114-.358.017-.351-.216l.212-7.289A.781.781,0,0,1,88.852,202.853Z" transform="translate(-68.216 -163.003)" fill="#545454"/>
            <path id="Trazado_102094" data-name="Trazado 102094" d="M104.632,175.025a.778.778,0,0,1,.338-.6l6.207-3.828c.2-.122.362-.033.362.2v.489a.772.772,0,0,1-.362.614l-6.207,3.339C104.782,175.337,104.632,175.244,104.632,175.025Z" transform="translate(-70.268 -158.953)" fill="#545454"/>
          </g>
        </g>
      </g>
      <g id="Grupo_87731" data-name="Grupo 87731" transform="translate(227.331 262.43)">
        <g id="Grupo_87718" data-name="Grupo 87718" transform="translate(0 94.351)">
          <g id="Grupo_87716" data-name="Grupo 87716" transform="translate(0 0)">
            <path id="Trazado_102095" data-name="Trazado 102095" d="M324.66,473.169c0-11.232-7.886-24.891-17.613-30.507-4.865-2.808-9.268-3.074-12.455-1.234l5.562-3.211c3.187-1.841,7.591-1.575,12.455,1.234,9.727,5.616,17.613,19.275,17.613,30.507,0,5.616-1.971,9.562-5.159,11.4l-5.562,3.212C322.688,482.732,324.66,478.785,324.66,473.169Z" transform="translate(-282.137 -434.237)" fill="#47d54c"/>
            <g id="Grupo_87715" data-name="Grupo 87715" opacity="0.4">
              <ellipse id="Elipse_4786" data-name="Elipse 4786" cx="14.382" cy="24.909" rx="14.382" ry="24.909" transform="translate(0 14.382) rotate(-30)" fill="#0cc312"/>
            </g>
          </g>
          <g id="Grupo_87717" data-name="Grupo 87717" transform="translate(13.975 14.056)" opacity="0.9" style="mix-blend-mode: screen;isolation: isolate">
            <path id="Trazado_102096" data-name="Trazado 102096" d="M307.657,474.576a3.73,3.73,0,0,1-1.446-1.745l-6.026-14.261c-.516-1.222-.287-2.321.513-2.455s1.866.747,2.382,1.968l4.519,10.694,7.635-10.4c.487-.666,1.543-.362,2.361.67s1.087,2.411.6,3.074l-9.057,12.341a1.051,1.051,0,0,1-1.449.135Z" transform="translate(-296.779 -450.686)" fill="#fff"/>
            <path id="Trazado_102097" data-name="Trazado 102097" d="M316.3,466.888l-1.725,2.352,0,7.264c0,1.69-1.194,2.378-2.659,1.53l-11.2-6.475a5.878,5.878,0,0,1-2.656-4.6l.007-12.93c0-1.691,1.193-2.379,2.658-1.531l10.662,6.162,1.009-1.376c-.154-.108-.31-.21-.469-.3l-11.2-6.475c-2.415-1.4-4.382-.264-4.384,2.525l-.007,12.93a9.7,9.7,0,0,0,4.378,7.588l11.2,6.475c2.414,1.4,4.381.264,4.383-2.524Z" transform="translate(-296.33 -449.908)" fill="#fff"/>
          </g>
        </g>
        <g id="Grupo_87724" data-name="Grupo 87724" transform="translate(46.289 62.901)">
          <g id="Grupo_87720" data-name="Grupo 87720" transform="translate(0 0)">
            <path id="Trazado_102098" data-name="Trazado 102098" d="M377.594,437.2c0-11.232-7.885-24.892-17.613-30.508-4.864-2.808-9.267-3.074-12.455-1.233l5.562-3.212c3.188-1.84,7.591-1.575,12.456,1.234,9.728,5.616,17.613,19.275,17.613,30.507,0,5.617-1.972,9.563-5.159,11.4l-5.563,3.212C375.623,446.766,377.594,442.82,377.594,437.2Z" transform="translate(-335.071 -398.272)" fill="#d265f7"/>
            <g id="Grupo_87719" data-name="Grupo 87719" opacity="0.4">
              <ellipse id="Elipse_4787" data-name="Elipse 4787" cx="14.382" cy="24.909" rx="14.382" ry="24.909" transform="translate(0 14.382) rotate(-30)" fill="#b110e8"/>
            </g>
          </g>
          <g id="Grupo_87723" data-name="Grupo 87723" transform="translate(10.59 11.237)" opacity="0.9" style="mix-blend-mode: screen;isolation: isolate">
            <g id="Grupo_87721" data-name="Grupo 87721">
              <path id="Trazado_102099" data-name="Trazado 102099" d="M345.651,413.355l4.936,8.493,4.475-2.636-4.936-8.493a6.814,6.814,0,0,1,1.856.754,14.634,14.634,0,0,1,6.655,11.448,6.237,6.237,0,0,1-.57,2.812l1.008,1.711-3.24,2.058-1.073-1.823a6.137,6.137,0,0,1-2.714-.877,14.635,14.635,0,0,1-6.655-11.449A7,7,0,0,1,345.651,413.355Zm22.6,29.669c.8,1.373.806,2.865.014,3.331l-.442.261c-.791.465-2.08-.271-2.878-1.645l-6.4-10.87,3.315-1.931Zm-2.74,1.129,1.035.591.727-.428-.007-1.2-.734-1.263-1.032-.589-.727.428,0,1.195Z" transform="translate(-345.394 -410.719)" fill="#fff"/>
              <path id="Trazado_102100" data-name="Trazado 102100" d="M371.546,425.079c1.049,1.806,1.057,3.765.018,4.377l-4.163,2.453c-1.894-1.373-3.089-.933-2.74.151l-.753.443-2.533-4.359.753-.443c.768.838,1.734,0,1.474-2.33l4.163-2.452C368.8,422.306,370.5,423.275,371.546,425.079Zm-5.592,3.9c-.215.127-.214.532,0,.907l.1.174c.217.374.568.574.783.448l4.184-2.464c.215-.127.214-.533,0-.906l-.1-.175c-.218-.374-.568-.574-.783-.448Zm-1.417-2.437c-.215.127-.213.533,0,.907l.1.174c.217.374.568.575.783.448l4.184-2.464c.215-.127.213-.533,0-.907l-.1-.174c-.217-.374-.567-.575-.783-.448Zm-11.5,8.006.3.38,8.549-5.431,1.1,1.892-8.745,5.094.185.447a1.643,1.643,0,0,1,.1,1.05.723.723,0,0,1-.561.553l-2.68.5-1.6-2.761,1.746-2.107a.719.719,0,0,1,.754-.222A1.616,1.616,0,0,1,353.038,434.551Z" transform="translate(-345.932 -412.227)" fill="#fff"/>
            </g>
            <g id="Grupo_87722" data-name="Grupo 87722">
              <path id="Trazado_102101" data-name="Trazado 102101" d="M345.651,413.355l4.936,8.493,4.475-2.636-4.936-8.493a6.814,6.814,0,0,1,1.856.754,14.634,14.634,0,0,1,6.655,11.448,6.237,6.237,0,0,1-.57,2.812l1.008,1.711-3.24,2.058-1.073-1.823a6.137,6.137,0,0,1-2.714-.877,14.635,14.635,0,0,1-6.655-11.449A7,7,0,0,1,345.651,413.355Zm22.6,29.669c.8,1.373.806,2.865.014,3.331l-.442.261c-.791.465-2.08-.271-2.878-1.645l-6.4-10.87,3.315-1.931Zm-2.74,1.129,1.035.591.727-.428-.007-1.2-.734-1.263-1.032-.589-.727.428,0,1.195Z" transform="translate(-345.394 -410.719)" fill="#fff"/>
              <path id="Trazado_102102" data-name="Trazado 102102" d="M371.546,425.079c1.049,1.806,1.057,3.765.018,4.377l-4.163,2.453c-1.894-1.373-3.089-.933-2.74.151l-.753.443-2.533-4.359.753-.443c.768.838,1.734,0,1.474-2.33l4.163-2.452C368.8,422.306,370.5,423.275,371.546,425.079Zm-5.592,3.9c-.215.127-.214.532,0,.907l.1.174c.217.374.568.574.783.448l4.184-2.464c.215-.127.214-.533,0-.906l-.1-.175c-.218-.374-.568-.574-.783-.448Zm-1.417-2.437c-.215.127-.213.533,0,.907l.1.174c.217.374.568.575.783.448l4.184-2.464c.215-.127.213-.533,0-.907l-.1-.174c-.217-.374-.567-.575-.783-.448Zm-11.5,8.006.3.38,8.549-5.431,1.1,1.892-8.745,5.094.185.447a1.643,1.643,0,0,1,.1,1.05.723.723,0,0,1-.561.553l-2.68.5-1.6-2.761,1.746-2.107a.719.719,0,0,1,.754-.222A1.616,1.616,0,0,1,353.038,434.551Z" transform="translate(-345.932 -412.227)" fill="#fff"/>
            </g>
          </g>
        </g>
        <g id="Grupo_87727" data-name="Grupo 87727" transform="translate(138.867 0)">
          <g id="Grupo_87726" data-name="Grupo 87726" transform="translate(0)">
            <path id="Trazado_102103" data-name="Trazado 102103" d="M483.463,365.272c0-11.232-7.885-24.891-17.613-30.507-4.864-2.808-9.267-3.074-12.455-1.234l5.562-3.211c3.188-1.841,7.591-1.575,12.456,1.233,9.728,5.617,17.613,19.275,17.613,30.508,0,5.616-1.972,9.562-5.159,11.4l-5.563,3.211C481.492,374.835,483.463,370.888,483.463,365.272Z" transform="translate(-440.94 -326.34)" fill="#ff9a5d"/>
            <g id="Grupo_87725" data-name="Grupo 87725" transform="translate(0)" opacity="0.4">
              <ellipse id="Elipse_4788" data-name="Elipse 4788" cx="14.382" cy="24.909" rx="14.382" ry="24.909" transform="translate(0 14.382) rotate(-30)" fill="#f85e00"/>
            </g>
          </g>
          <path id="Trazado_102104" data-name="Trazado 102104" d="M464.386,364.961c-7.13-4.758-12.644-12.416-12.318-17.111s6.377-4.642,13.506.114,12.641,12.416,12.313,17.11c-.152,2.191-1.554,3.347-3.725,3.473a7.28,7.28,0,0,0-1.2,1.279c-2.253,3.308-6.574,2.718-9.511,1.972,2.437-.184,3.645-.817,4.329-2.478a3.51,3.51,0,0,0-.05-2.43A28.664,28.664,0,0,1,464.386,364.961Zm-5.476-13.3c-1.1-.638-2-.121-2,1.154a4.418,4.418,0,0,0,2,3.463c1.1.637,2,.121,2-1.154A4.42,4.42,0,0,0,458.91,351.66Zm6.174,3.565c-1.1-.638-2-.121-2,1.154a4.416,4.416,0,0,0,2,3.462c1.1.637,2,.121,2-1.154A4.418,4.418,0,0,0,465.084,355.225Zm6.175,8.181c1.1.638,2,.121,2-1.154a4.417,4.417,0,0,0-2-3.462c-1.1-.637-2-.121-2,1.153A4.42,4.42,0,0,0,471.259,363.407Z" transform="translate(-440.772 -328.25)" fill="#fff" opacity="0.9" style="mix-blend-mode: screen;isolation: isolate"/>
        </g>
        <g id="Grupo_87730" data-name="Grupo 87730" transform="translate(92.578 31.45)">
          <g id="Grupo_87729" data-name="Grupo 87729" transform="translate(0 0)">
            <path id="Trazado_102105" data-name="Trazado 102105" d="M430.529,401.238c0-11.233-7.886-24.891-17.613-30.507-4.864-2.809-9.268-3.075-12.455-1.234l5.562-3.212c3.187-1.84,7.591-1.574,12.455,1.234,9.727,5.617,17.613,19.275,17.613,30.507,0,5.617-1.971,9.563-5.159,11.4l-5.562,3.211C428.557,410.8,430.529,406.854,430.529,401.238Z" transform="translate(-388.006 -362.306)" fill="#656bf7"/>
            <g id="Grupo_87728" data-name="Grupo 87728" transform="translate(0)" opacity="0.4">
              <ellipse id="Elipse_4789" data-name="Elipse 4789" cx="14.382" cy="24.909" rx="14.382" ry="24.909" transform="translate(0 14.382) rotate(-30)" fill="#1018e8"/>
            </g>
          </g>
          <path id="Trazado_102106" data-name="Trazado 102106" d="M401.305,374.081c.128.223.26.456.4.7,1.969,3.409,5.1,8.4,6.572,10.445a3.749,3.749,0,0,1-1.557.446c-2.029-2.232-5.268-8.223-6.25-10.068A1.882,1.882,0,0,1,401.305,374.081Zm4.629.63c6.2,3.824,9.031,9.5,12.1,14.82s6.583,10.607,6.8,17.892c.041,1.411-.449,3.387-1.526,4.177-1.989-3.372-5.124-9.258-6.168-11.6a5.285,5.285,0,0,1,.871-.41c.615-.213,1.29-1.314.614-3.193s-1.923-3.111-3.214-5.342-1.735-3.93-3.026-5.454-2.581-1.487-3.072-1.062a5.033,5.033,0,0,1-.79.553c-1.513-2.078-5.045-7.731-6.973-11.14C402.776,373.409,404.734,373.97,405.935,374.712Zm16.734,36.345.4.7a1.868,1.868,0,0,1-1.735-.034c-1.105-1.772-4.678-7.572-5.6-10.444a3.815,3.815,0,0,1,1.164-1.127C417.942,402.449,420.7,407.652,422.668,411.057Z" transform="translate(-388.007 -363.388)" fill="#fff" opacity="0.9" style="mix-blend-mode: screen;isolation: isolate"/>
        </g>
      </g>
    </g>
    <rect id="Rectángulo_35769" data-name="Rectángulo 35769" width="604" height="426" transform="translate(800 4436)" fill="none"/>
  </g>
</svg>
