<svg xmlns="http://www.w3.org/2000/svg" xmlns:xlink="http://www.w3.org/1999/xlink" width="785" height="387.317" viewBox="0 0 785 387.317">
  <defs>
    <linearGradient id="linear-gradient" x1="-6.54" y1="-10.541" x2="-6.538" y2="-10.548" gradientUnits="objectBoundingBox">
      <stop offset="0" stop-color="#fff"/>
      <stop offset="0.87" stop-color="#f5f4f3"/>
    </linearGradient>
  </defs>
  <g id="Grupo_137177" data-name="Grupo 137177" transform="translate(5839 8523.263)">
    <g id="Grupo_137164" data-name="Grupo 137164" transform="translate(-4363.004 -12874.72)">
      <path id="Trazado_153917" data-name="Trazado 153917" d="M-707.74,4724.89h-184.2c-.052-.725-.106-1.45-.165-2.18-.006-.077-.011-.142-.018-.218-.117-1.415-.247-2.817-.393-4.226-.078-.7-.149-1.408-.237-2.109q-.425-3.713-1-7.366a.066.066,0,0,0,0-.035q-.282-1.821-.6-3.641c.007-.006,0-.013,0-.025q-.316-1.819-.677-3.635c-.154-.789-.312-1.584-.472-2.368q-.963-4.713-2.174-9.329c-.241-.961-.495-1.9-.76-2.846-.371-1.372-.772-2.741-1.179-4.1q-.91-3.086-1.945-6.116-.335-1.024-.688-2.032-1.716-4.932-3.689-9.735c-.242-.594-.489-1.184-.743-1.78-.353-.836-.713-1.667-1.073-2.5-.529-1.226-1.084-2.439-1.644-3.647q-1.361-2.936-2.816-5.823a195.468,195.468,0,0,0-13.088-22.149q-.909-1.318-1.826-2.628-1.8-2.529-3.671-5.015c-.736-.961-1.479-1.927-2.233-2.881q-1.91-2.422-3.884-4.779c-.365-.448-.73-.884-1.107-1.32l130.266-130.267c.171.171.337.348.5.53.6.648,1.19,1.3,1.778,1.945s1.186,1.314,1.78,1.979c.171.183.337.371.508.567.871.977,1.743,1.967,2.6,2.958.93,1.06,1.843,2.127,2.756,3.193l.237.272q2.73,3.225,5.4,6.5c.954,1.178,1.9,2.351,2.846,3.542.3.382.6.766.907,1.154,1.008,1.267,1.992,2.546,2.982,3.831.041.053.088.111.13.164a380.007,380.007,0,0,1,37.494,59.733.413.413,0,0,0,.065.136q1.2,2.4,2.38,4.821c.637,1.307,1.273,2.627,1.892,3.953s1.249,2.651,1.849,3.983c.5,1.078.985,2.151,1.469,3.235l.707,1.591c.253.572.507,1.155.754,1.733q.689,1.572,1.349,3.152a.1.1,0,0,1,.024.059c.53,1.25,1.054,2.493,1.562,3.742.093.2.176.412.253.631q.768,1.863,1.5,3.729c.542,1.367,1.073,2.723,1.6,4.1s1.03,2.728,1.543,4.1c.436,1.179.865,2.375,1.29,3.554A376.716,376.716,0,0,1-707.74,4724.89Z" fill="#dad6f7"/>
      <path id="Trazado_153918" data-name="Trazado 153918" d="M-828.341,4461.456l-.016.016L-958.581,4591.7l-.009.009q-.823-.714-1.658-1.425l-.168-.142c-1.082-.917-2.166-1.816-3.266-2.709-.55-.441-1.1-.89-1.659-1.325q-2.925-2.325-5.916-4.5c-.008-.016-.016-.016-.024-.025q-1.489-1.086-3-2.149c0-.01-.009-.01-.018-.017q-1.511-1.062-3.049-2.092c-.667-.449-1.342-.9-2.009-1.342q-4.012-2.649-8.133-5.058c-.851-.508-1.692-.992-2.55-1.475-1.233-.708-2.483-1.392-3.733-2.066q-2.824-1.539-5.7-2.95c-.641-.326-1.285-.642-1.926-.951q-4.7-2.274-9.491-4.274c-.592-.25-1.183-.492-1.783-.734-.841-.341-1.684-.675-2.525-1.008-1.242-.492-2.492-.958-3.742-1.418q-3.039-1.111-6.109-2.124a195.4,195.4,0,0,0-24.915-6.408q-1.575-.289-3.151-.567-3.063-.513-6.141-.949c-1.2-.159-2.41-.317-3.617-.459-2.042-.242-4.084-.458-6.125-.634-.575-.058-1.142-.109-1.717-.149V4360.53c.242,0,.483.009.725.025.883.034,1.759.076,2.633.116s1.768.093,2.66.142c.248.01.5.026.757.043,1.308.074,2.624.157,3.933.249,1.409.093,2.81.2,4.209.309l.358.024q4.212.349,8.416.776c1.509.159,3.009.317,4.517.492l1.459.175c1.607.182,3.208.391,4.816.6l.208.026a379.976,379.976,0,0,1,68.75,15.724.393.393,0,0,0,.142.05q2.55.851,5.092,1.726c1.375.475,2.759.958,4.134,1.458s2.757.991,4.125,1.508c1.116.409,2.216.824,3.325,1.25l1.624.625c.584.225,1.175.459,1.759.693q1.6.624,3.183,1.274a.085.085,0,0,1,.058.025c1.258.508,2.508,1.016,3.75,1.542a6.724,6.724,0,0,1,.625.266q1.863.776,3.7,1.575c1.352.583,2.685,1.167,4.026,1.767s2.659,1.2,3.992,1.807c1.141.526,2.292,1.068,3.425,1.6A376.662,376.662,0,0,1-828.341,4461.456Z" fill="#fcecdf"/>
      <path id="Trazado_153919" data-name="Trazado 153919" d="M-1099.893,4360.457v184.2c-.724.053-1.45.1-2.18.164-.077.007-.141.013-.218.018-1.414.119-2.817.248-4.225.4-.7.077-1.408.147-2.109.235q-3.714.424-7.366,1a.075.075,0,0,0-.035,0q-1.821.285-3.642.6c-.006-.006-.012,0-.024,0-1.213.212-2.427.435-3.635.677-.789.154-1.585.312-2.369.471q-4.711.965-9.328,2.175c-.961.241-1.9.494-2.846.76-1.373.371-2.74.772-4.1,1.179q-3.084.909-6.116,1.944-1.026.335-2.033.689-4.93,1.715-9.735,3.69c-.594.24-1.183.488-1.779.742-.836.352-1.668.713-2.5,1.072-1.226.53-2.439,1.084-3.648,1.644q-2.932,1.362-5.822,2.817a195.339,195.339,0,0,0-22.149,13.087q-1.319.91-2.629,1.827-2.529,1.8-5.015,3.67c-.96.738-1.926,1.48-2.88,2.234q-2.422,1.909-4.779,3.883c-.449.367-.885.731-1.321,1.109l-130.266-130.268c.171-.171.347-.336.53-.494.648-.6,1.3-1.191,1.944-1.78s1.314-1.184,1.98-1.78c.183-.17.371-.335.566-.506.977-.872,1.968-1.745,2.959-2.6,1.059-.931,2.127-1.844,3.193-2.758l.271-.235q3.227-2.73,6.5-5.4c1.178-.955,2.35-1.905,3.542-2.847.381-.3.765-.6,1.153-.907,1.268-1.007,2.546-1.991,3.831-2.982.053-.042.111-.089.165-.13a379.963,379.963,0,0,1,59.733-37.494.427.427,0,0,0,.135-.064q2.406-1.2,4.821-2.381c1.307-.637,2.627-1.272,3.954-1.892s2.651-1.25,3.982-1.85c1.079-.5,2.151-.985,3.236-1.467l1.59-.707c.573-.254,1.156-.508,1.734-.755,1.047-.46,2.1-.907,3.151-1.35a.1.1,0,0,1,.06-.023c1.249-.53,2.492-1.055,3.742-1.561a6.67,6.67,0,0,1,.63-.253q1.865-.77,3.73-1.5c1.366-.543,2.723-1.074,4.094-1.6s2.729-1.031,4.1-1.544c1.179-.437,2.375-.866,3.554-1.291A376.688,376.688,0,0,1-1099.893,4360.457Z" fill="#dad6f7"/>
      <path id="Trazado_153920" data-name="Trazado 153920" d="M-1363.327,4481.056l.017.016,130.225,130.225.009.009c-.476.55-.951,1.1-1.426,1.658-.05.059-.092.109-.142.167-.917,1.083-1.816,2.166-2.709,3.267-.44.55-.89,1.1-1.324,1.658q-2.325,2.925-4.5,5.916c-.015.009-.015.017-.024.026q-1.087,1.488-2.15,3l-.016.016q-1.063,1.513-2.092,3.05c-.45.667-.9,1.342-1.343,2.009q-2.648,4.012-5.057,8.133c-.509.85-.993,1.691-1.476,2.55-.708,1.233-1.392,2.483-2.065,3.733q-1.539,2.826-2.951,5.7c-.326.642-.641,1.284-.951,1.925q-2.273,4.7-4.273,9.491c-.251.592-.492,1.184-.735,1.784-.341.842-.674,1.684-1.007,2.525-.492,1.243-.958,2.493-1.417,3.743q-1.113,3.036-2.124,6.107a195.334,195.334,0,0,0-6.41,24.917q-.286,1.575-.567,3.15-.513,3.063-.949,6.141c-.159,1.2-.317,2.409-.458,3.617-.242,2.042-.458,4.083-.634,6.125-.059.575-.108,1.142-.149,1.716h-184.226c0-.241.009-.483.024-.724.035-.883.076-1.758.118-2.633s.091-1.767.141-2.658c.009-.25.025-.5.042-.758.075-1.309.158-2.626.25-3.935.092-1.408.2-2.807.309-4.208.009-.117.016-.233.024-.358q.351-4.211.776-8.417c.158-1.508.317-3.009.491-4.517.058-.483.117-.966.176-1.458.182-1.608.39-3.208.6-4.816.009-.067.018-.142.027-.208a379.979,379.979,0,0,1,15.724-68.75.39.39,0,0,0,.05-.143q.849-2.55,1.726-5.091c.474-1.375.958-2.758,1.458-4.133s.991-2.759,1.508-4.125c.408-1.117.825-2.217,1.25-3.326q.312-.812.625-1.625c.225-.583.458-1.174.692-1.758q.625-1.6,1.275-3.183a.09.09,0,0,1,.025-.059c.508-1.257,1.016-2.507,1.541-3.75.076-.208.168-.416.266-.625q.777-1.863,1.576-3.7c.582-1.35,1.167-2.684,1.766-4.025s1.2-2.658,1.809-3.991c.525-1.143,1.067-2.292,1.6-3.426A376.744,376.744,0,0,1-1363.327,4481.056Z" fill="#fcecdf"/>
      <g id="Group_87933" data-name="Group 87933">
        <g id="Grupo_137162" data-name="Grupo 137162">
          <path id="Path_102603-2" data-name="Path 102603-2" d="M-890.735,4738.774c-.376-107.335-87.505-194.233-194.926-194.233s-194.55,86.9-194.926,194.233Z" fill="url(#linear-gradient)"/>
        </g>
      </g>
      <g id="Group_87933-2" data-name="Group 87933">
        <g id="Grupo_137163" data-name="Grupo 137163">
          <path id="Path_102603-2-2" data-name="Path 102603-2" d="M-904.669,4731.832c-.349-96.985-81.25-175.5-180.992-175.5s-180.643,78.519-180.992,175.5Z" fill="#f2f2f2"/>
        </g>
      </g>
    </g>
    <g id="Trazado_153938" data-name="Trazado 153938" transform="translate(-5839 -8334.263)" fill="#fff">
      <path d="M 55 109.5 C 47.64233016967773 109.5 40.50500106811523 108.0590972900391 33.78630065917969 105.2173309326172 C 30.55705642700195 103.8514709472656 27.44241523742676 102.160888671875 24.52888488769531 100.1925582885742 C 21.64290046691895 98.24282836914062 18.92904281616211 96.00368499755859 16.46268653869629 93.53731536865234 C 13.99631404876709 91.07095336914062 11.75717163085938 88.35710144042969 9.807442665100098 85.47111511230469 C 7.839114189147949 82.55758666992188 6.148528575897217 79.44293975830078 4.782671451568604 76.21369934082031 C 1.940899968147278 69.49500274658203 0.5 62.35766983032227 0.5 55 C 0.5 47.64233016967773 1.940899968147278 40.50500106811523 4.782671451568604 33.78630065917969 C 6.148528575897217 30.55705642700195 7.839114189147949 27.44241523742676 9.807442665100098 24.52888488769531 C 11.75717163085938 21.64290046691895 13.99631404876709 18.92904281616211 16.46268653869629 16.46268653869629 C 18.92904281616211 13.99631404876709 21.64290046691895 11.75717163085938 24.52888488769531 9.807442665100098 C 27.44241523742676 7.839114189147949 30.55705642700195 6.148528575897217 33.78630065917969 4.782671451568604 C 40.50500106811523 1.940899968147278 47.64233016967773 0.5 55 0.5 C 62.35766983032227 0.5 69.49500274658203 1.940899968147278 76.21369934082031 4.782671451568604 C 79.44293975830078 6.148528575897217 82.55758666992188 7.839114189147949 85.47111511230469 9.807442665100098 C 88.35710144042969 11.75717163085938 91.07095336914062 13.99631404876709 93.53731536865234 16.46268653869629 C 96.00368499755859 18.92904281616211 98.24282836914062 21.64290046691895 100.1925582885742 24.52888488769531 C 102.160888671875 27.44241523742676 103.8514709472656 30.55705642700195 105.2173309326172 33.78630065917969 C 108.0590972900391 40.50500106811523 109.5 47.64233016967773 109.5 55 C 109.5 62.35766983032227 108.0590972900391 69.49500274658203 105.2173309326172 76.21369934082031 C 103.8514709472656 79.44293975830078 102.160888671875 82.55758666992188 100.1925582885742 85.47111511230469 C 98.24282836914062 88.35710144042969 96.00368499755859 91.07095336914062 93.53731536865234 93.53731536865234 C 91.07095336914062 96.00368499755859 88.35710144042969 98.24282836914062 85.47111511230469 100.1925582885742 C 82.55758666992188 102.160888671875 79.44293975830078 103.8514709472656 76.21369934082031 105.2173309326172 C 69.49500274658203 108.0590972900391 62.35766983032227 109.5 55 109.5 Z" stroke="none"/>
      <path d="M 55 1 C 47.70959854125977 1 40.6378173828125 2.4276123046875 33.98107147216797 5.243171691894531 C 30.78157043457031 6.596458435058594 27.695556640625 8.271484375 24.80878448486328 10.22175598144531 C 21.94917297363281 12.15367126464844 19.26010131835938 14.37236785888672 16.81623077392578 16.81623077392578 C 14.37236785888672 19.26010131835938 12.15367126464844 21.94917297363281 10.22175598144531 24.80878448486328 C 8.271484375 27.695556640625 6.596458435058594 30.78157043457031 5.243171691894531 33.98107147216797 C 2.4276123046875 40.6378173828125 1 47.70959854125977 1 55 C 1 62.29040145874023 2.4276123046875 69.3621826171875 5.243171691894531 76.01892852783203 C 6.596458435058594 79.21842956542969 8.271484375 82.304443359375 10.22175598144531 85.19121551513672 C 12.15367126464844 88.05082702636719 14.37236785888672 90.73989868164062 16.81623077392578 93.18376922607422 C 19.26010131835938 95.62762451171875 21.94917297363281 97.84632873535156 24.80878448486328 99.77824401855469 C 27.695556640625 101.728515625 30.78157043457031 103.4035415649414 33.98107147216797 104.7568283081055 C 40.6378173828125 107.5723876953125 47.70959854125977 109 55 109 C 62.29040145874023 109 69.3621826171875 107.5723876953125 76.01892852783203 104.7568283081055 C 79.21842956542969 103.4035415649414 82.304443359375 101.728515625 85.19121551513672 99.77824401855469 C 88.05082702636719 97.84632873535156 90.73989868164062 95.62762451171875 93.18376922607422 93.18376922607422 C 95.62762451171875 90.73989868164062 97.84632873535156 88.05082702636719 99.77824401855469 85.19121551513672 C 101.728515625 82.304443359375 103.4035415649414 79.21842956542969 104.7568283081055 76.01892852783203 C 107.5723876953125 69.3621826171875 109 62.29040145874023 109 55 C 109 47.70959854125977 107.5723876953125 40.6378173828125 104.7568283081055 33.98107147216797 C 103.4035415649414 30.78157043457031 101.728515625 27.695556640625 99.77824401855469 24.80878448486328 C 97.84632873535156 21.94917297363281 95.62762451171875 19.26010131835938 93.18376922607422 16.81623077392578 C 90.73989868164062 14.37236785888672 88.05082702636719 12.15367126464844 85.19121551513672 10.22175598144531 C 82.304443359375 8.271484375 79.21842956542969 6.596458435058594 76.01892852783203 5.243171691894531 C 69.3621826171875 2.4276123046875 62.29040145874023 1 55 1 M 55 0 C 85.37565612792969 0 110 24.62434387207031 110 55 C 110 85.37565612792969 85.37565612792969 110 55 110 C 24.62434387207031 110 0 85.37565612792969 0 55 C 0 24.62434387207031 24.62434387207031 0 55 0 Z" stroke="none" fill="#fcecdf"/>
    </g>
    <g id="Trazado_153939" data-name="Trazado 153939" transform="translate(-5634 -8523.263)" fill="#fff">
      <path d="M 55 109.5 C 47.64233016967773 109.5 40.50500106811523 108.0590972900391 33.78630065917969 105.2173309326172 C 30.55705642700195 103.8514709472656 27.44241523742676 102.160888671875 24.52888488769531 100.1925582885742 C 21.64290046691895 98.24282836914062 18.92904281616211 96.00368499755859 16.46268653869629 93.53731536865234 C 13.99631404876709 91.07095336914062 11.75717163085938 88.35710144042969 9.807442665100098 85.47111511230469 C 7.839114189147949 82.55758666992188 6.148528575897217 79.44293975830078 4.782671451568604 76.21369934082031 C 1.940899968147278 69.49500274658203 0.5 62.35766983032227 0.5 55 C 0.5 47.64233016967773 1.940899968147278 40.50500106811523 4.782671451568604 33.78630065917969 C 6.148528575897217 30.55705642700195 7.839114189147949 27.44241523742676 9.807442665100098 24.52888488769531 C 11.75717163085938 21.64290046691895 13.99631404876709 18.92904281616211 16.46268653869629 16.46268653869629 C 18.92904281616211 13.99631404876709 21.64290046691895 11.75717163085938 24.52888488769531 9.807442665100098 C 27.44241523742676 7.839114189147949 30.55705642700195 6.148528575897217 33.78630065917969 4.782671451568604 C 40.50500106811523 1.940899968147278 47.64233016967773 0.5 55 0.5 C 62.35766983032227 0.5 69.49500274658203 1.940899968147278 76.21369934082031 4.782671451568604 C 79.44293975830078 6.148528575897217 82.55758666992188 7.839114189147949 85.47111511230469 9.807442665100098 C 88.35710144042969 11.75717163085938 91.07095336914062 13.99631404876709 93.53731536865234 16.46268653869629 C 96.00368499755859 18.92904281616211 98.24282836914062 21.64290046691895 100.1925582885742 24.52888488769531 C 102.160888671875 27.44241523742676 103.8514709472656 30.55705642700195 105.2173309326172 33.78630065917969 C 108.0590972900391 40.50500106811523 109.5 47.64233016967773 109.5 55 C 109.5 62.35766983032227 108.0590972900391 69.49500274658203 105.2173309326172 76.21369934082031 C 103.8514709472656 79.44293975830078 102.160888671875 82.55758666992188 100.1925582885742 85.47111511230469 C 98.24282836914062 88.35710144042969 96.00368499755859 91.07095336914062 93.53731536865234 93.53731536865234 C 91.07095336914062 96.00368499755859 88.35710144042969 98.24282836914062 85.47111511230469 100.1925582885742 C 82.55758666992188 102.160888671875 79.44293975830078 103.8514709472656 76.21369934082031 105.2173309326172 C 69.49500274658203 108.0590972900391 62.35766983032227 109.5 55 109.5 Z" stroke="none"/>
      <path d="M 55 1 C 47.70959854125977 1 40.6378173828125 2.4276123046875 33.98107147216797 5.243171691894531 C 30.78157043457031 6.596458435058594 27.695556640625 8.271484375 24.80878448486328 10.22175598144531 C 21.94917297363281 12.15367126464844 19.26010131835938 14.37236785888672 16.81623077392578 16.81623077392578 C 14.37236785888672 19.26010131835938 12.15367126464844 21.94917297363281 10.22175598144531 24.80878448486328 C 8.271484375 27.695556640625 6.596458435058594 30.78157043457031 5.243171691894531 33.98107147216797 C 2.4276123046875 40.6378173828125 1 47.70959854125977 1 55 C 1 62.29040145874023 2.4276123046875 69.3621826171875 5.243171691894531 76.01892852783203 C 6.596458435058594 79.21842956542969 8.271484375 82.304443359375 10.22175598144531 85.19121551513672 C 12.15367126464844 88.05082702636719 14.37236785888672 90.73989868164062 16.81623077392578 93.18376922607422 C 19.26010131835938 95.62762451171875 21.94917297363281 97.84632873535156 24.80878448486328 99.77824401855469 C 27.695556640625 101.728515625 30.78157043457031 103.4035415649414 33.98107147216797 104.7568283081055 C 40.6378173828125 107.5723876953125 47.70959854125977 109 55 109 C 62.29040145874023 109 69.3621826171875 107.5723876953125 76.01892852783203 104.7568283081055 C 79.21842956542969 103.4035415649414 82.304443359375 101.728515625 85.19121551513672 99.77824401855469 C 88.05082702636719 97.84632873535156 90.73989868164062 95.62762451171875 93.18376922607422 93.18376922607422 C 95.62762451171875 90.73989868164062 97.84632873535156 88.05082702636719 99.77824401855469 85.19121551513672 C 101.728515625 82.304443359375 103.4035415649414 79.21842956542969 104.7568283081055 76.01892852783203 C 107.5723876953125 69.3621826171875 109 62.29040145874023 109 55 C 109 47.70959854125977 107.5723876953125 40.6378173828125 104.7568283081055 33.98107147216797 C 103.4035415649414 30.78157043457031 101.728515625 27.695556640625 99.77824401855469 24.80878448486328 C 97.84632873535156 21.94917297363281 95.62762451171875 19.26010131835938 93.18376922607422 16.81623077392578 C 90.73989868164062 14.37236785888672 88.05082702636719 12.15367126464844 85.19121551513672 10.22175598144531 C 82.304443359375 8.271484375 79.21842956542969 6.596458435058594 76.01892852783203 5.243171691894531 C 69.3621826171875 2.4276123046875 62.29040145874023 1 55 1 M 55 0 C 85.37565612792969 0 110 24.62434387207031 110 55 C 110 85.37565612792969 85.37565612792969 110 55 110 C 24.62434387207031 110 0 85.37565612792969 0 55 C 0 24.62434387207031 24.62434387207031 0 55 0 Z" stroke="none" fill="#dad6f7"/>
    </g>
    <g id="Trazado_153940" data-name="Trazado 153940" transform="translate(-5340 -8523.263)" fill="#fff">
      <path d="M 55 109.5 C 47.64233016967773 109.5 40.50500106811523 108.0590972900391 33.78630065917969 105.2173309326172 C 30.55705642700195 103.8514709472656 27.44241523742676 102.160888671875 24.52888488769531 100.1925582885742 C 21.64290046691895 98.24282836914062 18.92904281616211 96.00368499755859 16.46268653869629 93.53731536865234 C 13.99631404876709 91.07095336914062 11.75717163085938 88.35710144042969 9.807442665100098 85.47111511230469 C 7.839114189147949 82.55758666992188 6.148528575897217 79.44293975830078 4.782671451568604 76.21369934082031 C 1.940899968147278 69.49500274658203 0.5 62.35766983032227 0.5 55 C 0.5 47.64233016967773 1.940899968147278 40.50500106811523 4.782671451568604 33.78630065917969 C 6.148528575897217 30.55705642700195 7.839114189147949 27.44241523742676 9.807442665100098 24.52888488769531 C 11.75717163085938 21.64290046691895 13.99631404876709 18.92904281616211 16.46268653869629 16.46268653869629 C 18.92904281616211 13.99631404876709 21.64290046691895 11.75717163085938 24.52888488769531 9.807442665100098 C 27.44241523742676 7.839114189147949 30.55705642700195 6.148528575897217 33.78630065917969 4.782671451568604 C 40.50500106811523 1.940899968147278 47.64233016967773 0.5 55 0.5 C 62.35766983032227 0.5 69.49500274658203 1.940899968147278 76.21369934082031 4.782671451568604 C 79.44293975830078 6.148528575897217 82.55758666992188 7.839114189147949 85.47111511230469 9.807442665100098 C 88.35710144042969 11.75717163085938 91.07095336914062 13.99631404876709 93.53731536865234 16.46268653869629 C 96.00368499755859 18.92904281616211 98.24282836914062 21.64290046691895 100.1925582885742 24.52888488769531 C 102.160888671875 27.44241523742676 103.8514709472656 30.55705642700195 105.2173309326172 33.78630065917969 C 108.0590972900391 40.50500106811523 109.5 47.64233016967773 109.5 55 C 109.5 62.35766983032227 108.0590972900391 69.49500274658203 105.2173309326172 76.21369934082031 C 103.8514709472656 79.44293975830078 102.160888671875 82.55758666992188 100.1925582885742 85.47111511230469 C 98.24282836914062 88.35710144042969 96.00368499755859 91.07095336914062 93.53731536865234 93.53731536865234 C 91.07095336914062 96.00368499755859 88.35710144042969 98.24282836914062 85.47111511230469 100.1925582885742 C 82.55758666992188 102.160888671875 79.44293975830078 103.8514709472656 76.21369934082031 105.2173309326172 C 69.49500274658203 108.0590972900391 62.35766983032227 109.5 55 109.5 Z" stroke="none"/>
      <path d="M 55 1 C 47.70959854125977 1 40.6378173828125 2.4276123046875 33.98107147216797 5.243171691894531 C 30.78157043457031 6.596458435058594 27.695556640625 8.271484375 24.80878448486328 10.22175598144531 C 21.94917297363281 12.15367126464844 19.26010131835938 14.37236785888672 16.81623077392578 16.81623077392578 C 14.37236785888672 19.26010131835938 12.15367126464844 21.94917297363281 10.22175598144531 24.80878448486328 C 8.271484375 27.695556640625 6.596458435058594 30.78157043457031 5.243171691894531 33.98107147216797 C 2.4276123046875 40.6378173828125 1 47.70959854125977 1 55 C 1 62.29040145874023 2.4276123046875 69.3621826171875 5.243171691894531 76.01892852783203 C 6.596458435058594 79.21842956542969 8.271484375 82.304443359375 10.22175598144531 85.19121551513672 C 12.15367126464844 88.05082702636719 14.37236785888672 90.73989868164062 16.81623077392578 93.18376922607422 C 19.26010131835938 95.62762451171875 21.94917297363281 97.84632873535156 24.80878448486328 99.77824401855469 C 27.695556640625 101.728515625 30.78157043457031 103.4035415649414 33.98107147216797 104.7568283081055 C 40.6378173828125 107.5723876953125 47.70959854125977 109 55 109 C 62.29040145874023 109 69.3621826171875 107.5723876953125 76.01892852783203 104.7568283081055 C 79.21842956542969 103.4035415649414 82.304443359375 101.728515625 85.19121551513672 99.77824401855469 C 88.05082702636719 97.84632873535156 90.73989868164062 95.62762451171875 93.18376922607422 93.18376922607422 C 95.62762451171875 90.73989868164062 97.84632873535156 88.05082702636719 99.77824401855469 85.19121551513672 C 101.728515625 82.304443359375 103.4035415649414 79.21842956542969 104.7568283081055 76.01892852783203 C 107.5723876953125 69.3621826171875 109 62.29040145874023 109 55 C 109 47.70959854125977 107.5723876953125 40.6378173828125 104.7568283081055 33.98107147216797 C 103.4035415649414 30.78157043457031 101.728515625 27.695556640625 99.77824401855469 24.80878448486328 C 97.84632873535156 21.94917297363281 95.62762451171875 19.26010131835938 93.18376922607422 16.81623077392578 C 90.73989868164062 14.37236785888672 88.05082702636719 12.15367126464844 85.19121551513672 10.22175598144531 C 82.304443359375 8.271484375 79.21842956542969 6.596458435058594 76.01892852783203 5.243171691894531 C 69.3621826171875 2.4276123046875 62.29040145874023 1 55 1 M 55 0 C 85.37565612792969 0 110 24.62434387207031 110 55 C 110 85.37565612792969 85.37565612792969 110 55 110 C 24.62434387207031 110 0 85.37565612792969 0 55 C 0 24.62434387207031 24.62434387207031 0 55 0 Z" stroke="none" fill="#fcecdf"/>
    </g>
    <g id="Trazado_153944" data-name="Trazado 153944" transform="translate(-5164 -8334.263)" fill="#fff">
      <path d="M 55 109.5 C 47.64233016967773 109.5 40.50500106811523 108.0590972900391 33.78630065917969 105.2173309326172 C 30.55705642700195 103.8514709472656 27.44241523742676 102.160888671875 24.52888488769531 100.1925582885742 C 21.64290046691895 98.24282836914062 18.92904281616211 96.00368499755859 16.46268653869629 93.53731536865234 C 13.99631404876709 91.07095336914062 11.75717163085938 88.35710144042969 9.807442665100098 85.47111511230469 C 7.839114189147949 82.55758666992188 6.148528575897217 79.44293975830078 4.782671451568604 76.21369934082031 C 1.940899968147278 69.49500274658203 0.5 62.35766983032227 0.5 55 C 0.5 47.64233016967773 1.940899968147278 40.50500106811523 4.782671451568604 33.78630065917969 C 6.148528575897217 30.55705642700195 7.839114189147949 27.44241523742676 9.807442665100098 24.52888488769531 C 11.75717163085938 21.64290046691895 13.99631404876709 18.92904281616211 16.46268653869629 16.46268653869629 C 18.92904281616211 13.99631404876709 21.64290046691895 11.75717163085938 24.52888488769531 9.807442665100098 C 27.44241523742676 7.839114189147949 30.55705642700195 6.148528575897217 33.78630065917969 4.782671451568604 C 40.50500106811523 1.940899968147278 47.64233016967773 0.5 55 0.5 C 62.35766983032227 0.5 69.49500274658203 1.940899968147278 76.21369934082031 4.782671451568604 C 79.44293975830078 6.148528575897217 82.55758666992188 7.839114189147949 85.47111511230469 9.807442665100098 C 88.35710144042969 11.75717163085938 91.07095336914062 13.99631404876709 93.53731536865234 16.46268653869629 C 96.00368499755859 18.92904281616211 98.24282836914062 21.64290046691895 100.1925582885742 24.52888488769531 C 102.160888671875 27.44241523742676 103.8514709472656 30.55705642700195 105.2173309326172 33.78630065917969 C 108.0590972900391 40.50500106811523 109.5 47.64233016967773 109.5 55 C 109.5 62.35766983032227 108.0590972900391 69.49500274658203 105.2173309326172 76.21369934082031 C 103.8514709472656 79.44293975830078 102.160888671875 82.55758666992188 100.1925582885742 85.47111511230469 C 98.24282836914062 88.35710144042969 96.00368499755859 91.07095336914062 93.53731536865234 93.53731536865234 C 91.07095336914062 96.00368499755859 88.35710144042969 98.24282836914062 85.47111511230469 100.1925582885742 C 82.55758666992188 102.160888671875 79.44293975830078 103.8514709472656 76.21369934082031 105.2173309326172 C 69.49500274658203 108.0590972900391 62.35766983032227 109.5 55 109.5 Z" stroke="none"/>
      <path d="M 55 1 C 47.70959854125977 1 40.6378173828125 2.4276123046875 33.98107147216797 5.243171691894531 C 30.78157043457031 6.596458435058594 27.695556640625 8.271484375 24.80878448486328 10.22175598144531 C 21.94917297363281 12.15367126464844 19.26010131835938 14.37236785888672 16.81623077392578 16.81623077392578 C 14.37236785888672 19.26010131835938 12.15367126464844 21.94917297363281 10.22175598144531 24.80878448486328 C 8.271484375 27.695556640625 6.596458435058594 30.78157043457031 5.243171691894531 33.98107147216797 C 2.4276123046875 40.6378173828125 1 47.70959854125977 1 55 C 1 62.29040145874023 2.4276123046875 69.3621826171875 5.243171691894531 76.01892852783203 C 6.596458435058594 79.21842956542969 8.271484375 82.304443359375 10.22175598144531 85.19121551513672 C 12.15367126464844 88.05082702636719 14.37236785888672 90.73989868164062 16.81623077392578 93.18376922607422 C 19.26010131835938 95.62762451171875 21.94917297363281 97.84632873535156 24.80878448486328 99.77824401855469 C 27.695556640625 101.728515625 30.78157043457031 103.4035415649414 33.98107147216797 104.7568283081055 C 40.6378173828125 107.5723876953125 47.70959854125977 109 55 109 C 62.29040145874023 109 69.3621826171875 107.5723876953125 76.01892852783203 104.7568283081055 C 79.21842956542969 103.4035415649414 82.304443359375 101.728515625 85.19121551513672 99.77824401855469 C 88.05082702636719 97.84632873535156 90.73989868164062 95.62762451171875 93.18376922607422 93.18376922607422 C 95.62762451171875 90.73989868164062 97.84632873535156 88.05082702636719 99.77824401855469 85.19121551513672 C 101.728515625 82.304443359375 103.4035415649414 79.21842956542969 104.7568283081055 76.01892852783203 C 107.5723876953125 69.3621826171875 109 62.29040145874023 109 55 C 109 47.70959854125977 107.5723876953125 40.6378173828125 104.7568283081055 33.98107147216797 C 103.4035415649414 30.78157043457031 101.728515625 27.695556640625 99.77824401855469 24.80878448486328 C 97.84632873535156 21.94917297363281 95.62762451171875 19.26010131835938 93.18376922607422 16.81623077392578 C 90.73989868164062 14.37236785888672 88.05082702636719 12.15367126464844 85.19121551513672 10.22175598144531 C 82.304443359375 8.271484375 79.21842956542969 6.596458435058594 76.01892852783203 5.243171691894531 C 69.3621826171875 2.4276123046875 62.29040145874023 1 55 1 M 55 0 C 85.37565612792969 0 110 24.62434387207031 110 55 C 110 85.37565612792969 85.37565612792969 110 55 110 C 24.62434387207031 110 0 85.37565612792969 0 55 C 0 24.62434387207031 24.62434387207031 0 55 0 Z" stroke="none" fill="#dad6f7"/>
    </g>
    <g id="Grupo_137166" data-name="Grupo 137166" transform="translate(-5907.348 -8614.231)">
      <path id="Trazado_153921" data-name="Trazado 153921" d="M111,312.123a7.725,7.725,0,1,0-7.725-7.727A7.725,7.725,0,0,0,111,312.123Z" transform="translate(9.881)" fill="#ef6c00"/>
      <path id="Trazado_153922" data-name="Trazado 153922" d="M116.99,318.444a20.373,20.373,0,0,1,14.927,3.494c-.172-1.124-.454-2.472-.857-4.187-1.52-6.478-2.038-7.246-9.231-7.25h-.059c-3.167,0-5.038.153-6.273.874.121.49.247,1.016.378,1.573C116.407,315.213,116.781,316.983,116.99,318.444Z" transform="translate(19.337 10.696)" fill="#ef6c00"/>
      <path id="Trazado_153923" data-name="Trazado 153923" d="M99.048,315.021a6.322,6.322,0,1,0-6.322-6.322A6.324,6.324,0,0,0,99.048,315.021Z" transform="translate(1.723 4.413)" fill="#ef6c00"/>
      <path id="Trazado_153924" data-name="Trazado 153924" d="M106.725,312.985c.131-.559.255-1.082.378-1.575-1.234-.722-3.107-.873-6.275-.873h-.059c-7.193,0-7.711.771-9.231,7.248-1.734,7.4-1.358,8.231,1.587,11.856,3.806,4.682,1.447,9.125,2.492,19.18.011.106.027.2.043.3h10.277c.016-.1.032-.2.043-.3,1.043-10.056-1.314-14.5,2.492-19.18.278-.344.534-.663.766-.961q-.237-.333-.5-.661C105,323.422,104.522,322.369,106.725,312.985Z" transform="translate(0 10.725)" fill="#ef6c00"/>
      <g id="Grupo_137165" data-name="Grupo 137165" transform="translate(121.98 333.52)">
        <path id="Trazado_153925" data-name="Trazado 153925" d="M123.688,317.616a16.44,16.44,0,0,0-8.912,28.292l-6.113,8.016a2.04,2.04,0,0,0,3.254,2.46l6.159-8.076a16.45,16.45,0,1,0,5.611-30.692Z" transform="translate(-108.25 -317.449)" fill="#ef6c00"/>
        <path id="Trazado_153926" data-name="Trazado 153926" d="M125.412,344.376a12.375,12.375,0,1,1,10.5-14A12.393,12.393,0,0,1,125.412,344.376Z" transform="translate(-105.9 -315.671)" fill="#fff"/>
      </g>
      <path id="Trazado_153927" data-name="Trazado 153927" d="M111,342.276a20.852,20.852,0,0,1,15.314-20.065,51.465,51.465,0,0,0-1.261-6.716c-1.928-8.211-2.582-9.187-11.7-9.192v0l-.037,0-.037,0v0c-9.121.005-9.777.981-11.7,9.192-2.2,9.387-1.726,10.439,2.009,15.036,4.827,5.938,1.836,11.57,3.16,24.325.014.133.034.261.055.381h8.757A20.713,20.713,0,0,1,111,342.276Z" transform="translate(7.542 7.448)" fill="#ef6c00"/>
      <path id="Trazado_153928" data-name="Trazado 153928" d="M121.835,314.965a6.321,6.321,0,1,0-6.321-6.321A6.321,6.321,0,0,0,121.835,314.965Z" transform="translate(19.349 4.372)" fill="#ef6c00"/>
    </g>
    <path id="Trazado_153929" data-name="Trazado 153929" d="M1117.8,273.626v37.342a3.941,3.941,0,0,0,3.938,3.939h52.86a5.364,5.364,0,0,0,2.714-.755,3.938,3.938,0,0,0,1.793-2.1l6.552-28.117a2.809,2.809,0,0,0,.142-.864,2.627,2.627,0,0,0-1.107-2.124,3.862,3.862,0,0,0-2.274-.678h-4.1v-2.448a3.942,3.942,0,0,0-3.942-3.939h-28.215a12.757,12.757,0,0,0-.72-2.451,10.419,10.419,0,0,0-2.506-3.876,4.272,4.272,0,0,0-2.82-1.13,1.731,1.731,0,0,0-.2.008h-16.722a4.428,4.428,0,0,0-3.167,1.3,6.885,6.885,0,0,0-1.53,2.514,12.332,12.332,0,0,0-.685,3.348Zm2.626.062c0-.015,0-.04,0-.076.007-.081.018-.2.037-.347a10.582,10.582,0,0,1,.207-1.177,5.443,5.443,0,0,1,1.188-2.484,1.772,1.772,0,0,1,1.323-.543h16.805l.037,0h.084a1.612,1.612,0,0,1,1.089.477,6,6,0,0,1,1.242,1.7,14.424,14.424,0,0,1,1.405,4.265l.233,1.02h30.292a1.317,1.317,0,0,1,1.315,1.312v2.448H1132.01a5.356,5.356,0,0,0-2.711.758,3.915,3.915,0,0,0-1.793,2.1l-7.083,21.766Z" transform="translate(-6730.797 -8758.931)" fill="#3e2ea6"/>
    <g id="Grupo_137169" data-name="Grupo 137169" transform="translate(-6837.651 -9062.918)">
      <g id="Grupo_137168" data-name="Grupo 137168">
        <path id="Trazado_153930" data-name="Trazado 153930" d="M1562.489,605.228h-7.056V592.946a2,2,0,0,0-1.991-1.991h-2.305a2,2,0,0,0-1.991,1.991v12.282h-7.058c-1.1,0-1.415.688-.715,1.528l9.637,11.508a1.613,1.613,0,0,0,2.559,0l9.633-11.508C1563.906,605.916,1563.586,605.228,1562.489,605.228Z" fill="#ef6c00"/>
        <g id="Grupo_137167" data-name="Grupo 137167">
          <path id="Trazado_153931" data-name="Trazado 153931" d="M1582.943,587.847a15.971,15.971,0,0,0-11.368-4.709h-.751a19.739,19.739,0,0,0-36.346,0h-.751a16.076,16.076,0,1,0,0,32.152h8.576l-2.8-3.342h-5.777a12.733,12.733,0,0,1,0-25.467h3.075l.394-1.114a16.4,16.4,0,0,1,30.91,0l.4,1.114h3.074a12.733,12.733,0,1,1,0,25.467h-6.5l-2.8,3.342h9.3a16.076,16.076,0,0,0,11.368-27.443Z" fill="#ef6c00"/>
        </g>
      </g>
    </g>
    <g id="Grupo_137172" data-name="Grupo 137172" transform="translate(-6565.651 -8671.466)">
      <g id="Grupo_137170" data-name="Grupo 137170">
        <path id="Trazado_153932" data-name="Trazado 153932" d="M1475.563,394.377c-.254,1.583-.574,3.233-.975,4.921l-.03.124c-.049.2-.1.4-.147.6-3.264,13.038-10.159,22.539-20.049,27.677-.169.088-.339.174-.509.26l-.194.095q-.2.1-.4.192l-.224.106q-.192.09-.385.177l-.221.1c-.165.074-.332.146-.5.218l-.1.041-.859.365-.858-.365-.1-.041c-.167-.072-.333-.144-.5-.218l-.221-.1c-.129-.058-.257-.117-.385-.177-.075-.035-.15-.07-.224-.106q-.2-.094-.4-.192l-.194-.095c-.17-.086-.34-.172-.509-.26-9.89-5.138-16.786-14.639-20.049-27.677q-.075-.3-.147-.6l-.03-.124a70.965,70.965,0,0,1-1.665-10.691,63.76,63.76,0,0,1-.108-9.7l.173-2.009h2.06c10.732-.011,20.607-4.088,22.056-4.712l.184-.081.907-.409.907.409.185.081a61.988,61.988,0,0,0,8.594,2.865q.157-.557.355-1.1a62.125,62.125,0,0,1-8.366-2.767c-.183-.078-.283-.123-.293-.127l-1.381-.624h0l-1.382.624c-.01,0-.11.049-.293.127a60.611,60.611,0,0,1-21.256,4.562l-.259,0h-3.071l-.263,3.059c-.012.148-.129,1.562-.132,3.85a74.286,74.286,0,0,0,1.931,16.9q.069.288.141.575c.037.153.076.3.115.456l.01.039h0c3.33,13.005,10.234,22.552,20.1,27.849h0l.013.007c.236.126.473.25.713.372l.031.016c.242.123.487.244.733.362l.054.026q.313.148.63.293l.181.082c.22.1.44.2.663.291l.032.014,1.308.555h0l1.308-.555.032-.014q.335-.143.664-.291l.181-.082q.316-.144.63-.293l.054-.026q.369-.177.733-.362l.031-.016q.359-.183.713-.372l.013-.007h0c9.867-5.3,16.77-14.844,20.1-27.849h0l.01-.039c.039-.152.077-.3.115-.456q.071-.287.14-.575c.429-1.8.765-3.565,1.03-5.251Q1476.155,394.367,1475.563,394.377Z" fill="#3e2ea6"/>
        <path id="Trazado_153933" data-name="Trazado 153933" d="M1483.241,371.62a1.18,1.18,0,0,0-.872-.146c-1.413,1.236-.8.587-1.736,1.454-1.447,1.342-3.179,2.857-4.292,4.133-.7.819-1.6,1.82-2.3,2.637a.2.2,0,0,1-.151.107.293.293,0,0,1-.2-.019,39.851,39.851,0,0,0-3.337-3.574c-1-.37-3.306,2.164-3.283,3.183-.124.382.285.861.806,1.432.373.408,1.233,1.322,1.639,1.784.8.9,2.242,2.417,2.993,3.2.589.613.995,1.06,1.247,1.062.678.176,1.029-.186,1.541-.868s1.139-1.541,1.5-2.02c2.6-3.3,4.545-6.455,7.5-9.143.525-.513.576-.891-.023-2.054A2.294,2.294,0,0,0,1483.241,371.62Z" fill="#3e2ea6"/>
        <path id="Trazado_153934" data-name="Trazado 153934" d="M1475.3,392.848a13.674,13.674,0,1,1,13.674-13.674A13.689,13.689,0,0,1,1475.3,392.848Zm0-25.8a12.126,12.126,0,1,0,12.126,12.126A12.14,12.14,0,0,0,1475.3,367.048Z" fill="#3e2ea6"/>
      </g>
      <g id="Grupo_137171" data-name="Grupo 137171">
        <path id="Trazado_153935" data-name="Trazado 153935" d="M1453.155,399.384a2.174,2.174,0,1,0-3.347,1.831l-.47,4.243a.421.421,0,0,0,.418.476h2.494a.421.421,0,0,0,.418-.476l-.473-4.27A2.172,2.172,0,0,0,1453.155,399.384Z" fill="#3e2ea6"/>
        <path id="Trazado_153936" data-name="Trazado 153936" d="M1460.1,379.174a15.317,15.317,0,0,1,.128-1.976,61.778,61.778,0,0,1-9.247-3.1h0a63.365,63.365,0,0,1-23.19,4.989s0,.046-.01.132l0,.035v.005l-.005.066v.019l0,.067v.008a70.046,70.046,0,0,0,1.825,19.689v0h0c2.422,9.941,7.791,21.044,19.5,26.87h0l.33.161.207.1.288.136.3.136.225.1c.181.08.363.16.546.238h0c.184-.078.366-.158.547-.238l.224-.1.3-.136.287-.136.208-.1.329-.161h0c11.7-5.826,17.075-16.929,19.5-26.87h0v0c.4-1.659.726-3.285.982-4.849A15.228,15.228,0,0,1,1460.1,379.174ZM1450.98,410.9a9.722,9.722,0,0,1-6.907-16.564v-4.4l.006-.218a4.461,4.461,0,0,1,1.971-3.24,8.944,8.944,0,0,1,9.859,0,4.462,4.462,0,0,1,1.972,3.24l.005.192v4.426a9.721,9.721,0,0,1-6.907,16.564Z" fill="#3e2ea6"/>
        <path id="Trazado_153937" data-name="Trazado 153937" d="M1450.98,391.452a9.691,9.691,0,0,1,4.141.924v-1.921a2.655,2.655,0,0,0-1.128-1.96,5.85,5.85,0,0,0-6.024,0,2.66,2.66,0,0,0-1.129,1.965v1.916A9.691,9.691,0,0,1,1450.98,391.452Z" fill="#3e2ea6"/>
      </g>
    </g>
    <path id="Trazado_153945" data-name="Trazado 153945" d="M.967,17V4.2H5.089a6.064,6.064,0,0,1,3.05.769,5.406,5.406,0,0,1,2.114,2.171,6.554,6.554,0,0,1,.769,3.142v.589a6.592,6.592,0,0,1-.743,3.151A5.429,5.429,0,0,1,8.187,16.2a5.93,5.93,0,0,1-3.01.8ZM4.052,6.585v8.042H5.124a2.4,2.4,0,0,0,2.039-.945,4.63,4.63,0,0,0,.712-2.808V10.32a4.592,4.592,0,0,0-.712-2.795,2.442,2.442,0,0,0-2.074-.94ZM17.824,17a3.344,3.344,0,0,1-.281-.853,2.754,2.754,0,0,1-2.285,1.028,3.374,3.374,0,0,1-2.285-.813,2.588,2.588,0,0,1-.94-2.043,2.66,2.66,0,0,1,1.143-2.338A5.821,5.821,0,0,1,16.5,11.19h.914v-.5q0-1.316-1.134-1.316a.927.927,0,0,0-1.055,1.042H12.261a2.655,2.655,0,0,1,1.173-2.239,4.931,4.931,0,0,1,2.993-.86A4.323,4.323,0,0,1,19.3,8.2a3.086,3.086,0,0,1,1.081,2.435v4.21a4.311,4.311,0,0,0,.4,2V17ZM15.97,15.066a1.652,1.652,0,0,0,.918-.237,1.487,1.487,0,0,0,.523-.536V12.772H16.55Q15,12.772,15,14.161a.848.848,0,0,0,.272.655A.986.986,0,0,0,15.97,15.066Zm9.5-9.94V7.49h1.564V9.547H25.471V13.9a1.111,1.111,0,0,0,.193.747,1.037,1.037,0,0,0,.765.211,4.345,4.345,0,0,0,.738-.053v2.118a5.466,5.466,0,0,1-1.67.255,3.1,3.1,0,0,1-2.259-.721,2.954,2.954,0,0,1-.729-2.188V9.547H21.3V7.49h1.213V5.126Zm2.092,7.031a5.613,5.613,0,0,1,.554-2.536,3.96,3.96,0,0,1,1.591-1.709,4.791,4.791,0,0,1,2.435-.6,4.373,4.373,0,0,1,3.366,1.323,5.076,5.076,0,0,1,1.23,3.6v.105A4.925,4.925,0,0,1,35.5,15.871a4.384,4.384,0,0,1-3.344,1.305A4.434,4.434,0,0,1,28.9,15.958a4.761,4.761,0,0,1-1.327-3.3Zm2.962.185a3.538,3.538,0,0,0,.413,1.934,1.376,1.376,0,0,0,1.222.615q1.582,0,1.617-2.435v-.3q0-2.558-1.635-2.558-1.485,0-1.608,2.206Zm20.83-.026a5.735,5.735,0,0,1-1,3.538,3.2,3.2,0,0,1-2.694,1.323,2.742,2.742,0,0,1-2.153-.958v4.438H42.548V7.49h2.769l.088.879a2.742,2.742,0,0,1,2.241-1.055,3.224,3.224,0,0,1,2.733,1.3,5.805,5.805,0,0,1,.976,3.564Zm-2.962-.185q0-2.531-1.477-2.531a1.394,1.394,0,0,0-1.406.756V14.1a1.439,1.439,0,0,0,1.424.791q1.415,0,1.459-2.443Zm8.868,5.045a4.889,4.889,0,0,1-3.542-1.305,4.507,4.507,0,0,1-1.354-3.4v-.246a5.84,5.84,0,0,1,.541-2.575,3.955,3.955,0,0,1,1.578-1.727,4.763,4.763,0,0,1,2.461-.611,4.117,4.117,0,0,1,3.164,1.244,4.887,4.887,0,0,1,1.16,3.467v1.151H55.38a2.135,2.135,0,0,0,.694,1.257,2.066,2.066,0,0,0,1.389.457,2.662,2.662,0,0,0,2.2-.984l1.354,1.6a3.784,3.784,0,0,1-1.569,1.217A5.3,5.3,0,0,1,57.261,17.176ZM56.927,9.6q-1.3,0-1.547,1.723h2.988v-.229a1.467,1.467,0,0,0-.36-1.1A1.434,1.434,0,0,0,56.927,9.6Zm11.285.571-.976-.07a1.752,1.752,0,0,0-1.793.879V17H62.481V7.49h2.777l.1,1.222a2.294,2.294,0,0,1,2.083-1.4,2.888,2.888,0,0,1,.826.105Zm6.047,4.157a.684.684,0,0,0-.4-.606,6.016,6.016,0,0,0-1.5-.475,6.853,6.853,0,0,1-1.828-.646,3.062,3.062,0,0,1-1.1-.971,2.319,2.319,0,0,1-.378-1.31,2.628,2.628,0,0,1,1.081-2.158,4.453,4.453,0,0,1,2.83-.848,4.934,4.934,0,0,1,3.023.853,2.666,2.666,0,0,1,1.143,2.241H74.162q0-1.143-1.2-1.143a1.194,1.194,0,0,0-.782.259.8.8,0,0,0-.316.646.737.737,0,0,0,.387.642,3.654,3.654,0,0,0,1.235.4,10.671,10.671,0,0,1,1.49.378,2.706,2.706,0,0,1,2.145,2.646,2.491,2.491,0,0,1-1.156,2.118,5.068,5.068,0,0,1-2.993.817,5.172,5.172,0,0,1-2.18-.439,3.645,3.645,0,0,1-1.494-1.2,2.707,2.707,0,0,1-.536-1.591h2.769a1.145,1.145,0,0,0,.439.962,1.808,1.808,0,0,0,1.081.3,1.422,1.422,0,0,0,.91-.246A.787.787,0,0,0,74.259,14.328Zm3.867-2.171a5.613,5.613,0,0,1,.554-2.536,3.96,3.96,0,0,1,1.591-1.709,4.791,4.791,0,0,1,2.435-.6,4.373,4.373,0,0,1,3.366,1.323,5.076,5.076,0,0,1,1.23,3.6v.105a4.925,4.925,0,0,1-1.235,3.529,4.384,4.384,0,0,1-3.344,1.305,4.434,4.434,0,0,1-3.261-1.217,4.761,4.761,0,0,1-1.327-3.3Zm2.962.185a3.538,3.538,0,0,0,.413,1.934,1.376,1.376,0,0,0,1.222.615q1.582,0,1.617-2.435v-.3q0-2.558-1.635-2.558-1.485,0-1.608,2.206ZM91.327,7.49l.1,1.116A3.225,3.225,0,0,1,94.14,7.314a2.713,2.713,0,0,1,2.219.888,4.226,4.226,0,0,1,.76,2.672V17H94.148V11a1.6,1.6,0,0,0-.29-1.059A1.342,1.342,0,0,0,92.8,9.6a1.413,1.413,0,0,0-1.292.686V17H88.55V7.49ZM104.115,17a3.344,3.344,0,0,1-.281-.853,2.754,2.754,0,0,1-2.285,1.028,3.374,3.374,0,0,1-2.285-.813,2.588,2.588,0,0,1-.94-2.043,2.66,2.66,0,0,1,1.143-2.338,5.821,5.821,0,0,1,3.322-.791h.914v-.5q0-1.316-1.134-1.316a.927.927,0,0,0-1.055,1.042H98.552a2.655,2.655,0,0,1,1.173-2.239,4.931,4.931,0,0,1,2.993-.86,4.323,4.323,0,0,1,2.874.888,3.086,3.086,0,0,1,1.081,2.435v4.21a4.311,4.311,0,0,0,.4,2V17Zm-1.854-1.934a1.652,1.652,0,0,0,.918-.237,1.487,1.487,0,0,0,.523-.536V12.772h-.861q-1.547,0-1.547,1.389a.848.848,0,0,0,.272.655A.986.986,0,0,0,102.261,15.066ZM111.437,17h-2.971V3.5h2.971Z" transform="translate(-5771 -8224.263)" fill="#12263f"/>
    <path id="Trazado_153941" data-name="Trazado 153941" d="M.967,17V4.2H5.089a6.064,6.064,0,0,1,3.05.769,5.406,5.406,0,0,1,2.114,2.171,6.554,6.554,0,0,1,.769,3.142v.589a6.592,6.592,0,0,1-.743,3.151A5.429,5.429,0,0,1,8.187,16.2a5.93,5.93,0,0,1-3.01.8ZM4.052,6.585v8.042H5.124a2.4,2.4,0,0,0,2.039-.945,4.63,4.63,0,0,0,.712-2.808V10.32a4.592,4.592,0,0,0-.712-2.795,2.442,2.442,0,0,0-2.074-.94ZM17.824,17a3.344,3.344,0,0,1-.281-.853,2.754,2.754,0,0,1-2.285,1.028,3.374,3.374,0,0,1-2.285-.813,2.588,2.588,0,0,1-.94-2.043,2.66,2.66,0,0,1,1.143-2.338A5.821,5.821,0,0,1,16.5,11.19h.914v-.5q0-1.316-1.134-1.316a.927.927,0,0,0-1.055,1.042H12.261a2.655,2.655,0,0,1,1.173-2.239,4.931,4.931,0,0,1,2.993-.86A4.323,4.323,0,0,1,19.3,8.2a3.086,3.086,0,0,1,1.081,2.435v4.21a4.311,4.311,0,0,0,.4,2V17ZM15.97,15.066a1.652,1.652,0,0,0,.918-.237,1.487,1.487,0,0,0,.523-.536V12.772H16.55Q15,12.772,15,14.161a.848.848,0,0,0,.272.655A.986.986,0,0,0,15.97,15.066Zm9.5-9.94V7.49h1.564V9.547H25.471V13.9a1.111,1.111,0,0,0,.193.747,1.037,1.037,0,0,0,.765.211,4.345,4.345,0,0,0,.738-.053v2.118a5.466,5.466,0,0,1-1.67.255,3.1,3.1,0,0,1-2.259-.721,2.954,2.954,0,0,1-.729-2.188V9.547H21.3V7.49h1.213V5.126Zm2.092,7.031a5.613,5.613,0,0,1,.554-2.536,3.96,3.96,0,0,1,1.591-1.709,4.791,4.791,0,0,1,2.435-.6,4.373,4.373,0,0,1,3.366,1.323,5.076,5.076,0,0,1,1.23,3.6v.105A4.925,4.925,0,0,1,35.5,15.871a4.384,4.384,0,0,1-3.344,1.305A4.434,4.434,0,0,1,28.9,15.958a4.761,4.761,0,0,1-1.327-3.3Zm2.962.185a3.538,3.538,0,0,0,.413,1.934,1.376,1.376,0,0,0,1.222.615q1.582,0,1.617-2.435v-.3q0-2.558-1.635-2.558-1.485,0-1.608,2.206Zm12.5,1.986a.684.684,0,0,0-.4-.606,6.016,6.016,0,0,0-1.5-.475A6.853,6.853,0,0,1,39.3,12.6a3.062,3.062,0,0,1-1.1-.971,2.319,2.319,0,0,1-.378-1.31A2.628,2.628,0,0,1,38.9,8.163a4.453,4.453,0,0,1,2.83-.848,4.934,4.934,0,0,1,3.023.853A2.666,2.666,0,0,1,45.9,10.408H42.926q0-1.143-1.2-1.143a1.194,1.194,0,0,0-.782.259.8.8,0,0,0-.316.646.737.737,0,0,0,.387.642,3.654,3.654,0,0,0,1.235.4,10.671,10.671,0,0,1,1.49.378,2.706,2.706,0,0,1,2.145,2.646,2.491,2.491,0,0,1-1.156,2.118,5.068,5.068,0,0,1-2.993.817,5.172,5.172,0,0,1-2.18-.439,3.645,3.645,0,0,1-1.494-1.2,2.707,2.707,0,0,1-.536-1.591h2.769a1.145,1.145,0,0,0,.439.962,1.808,1.808,0,0,0,1.081.3,1.422,1.422,0,0,0,.91-.246A.787.787,0,0,0,43.022,14.328Zm17.552-2.013a5.735,5.735,0,0,1-1,3.538,3.2,3.2,0,0,1-2.694,1.323,2.742,2.742,0,0,1-2.153-.958v4.438H51.768V7.49h2.769l.088.879a2.742,2.742,0,0,1,2.241-1.055,3.224,3.224,0,0,1,2.733,1.3,5.805,5.805,0,0,1,.976,3.564Zm-2.962-.185q0-2.531-1.477-2.531a1.394,1.394,0,0,0-1.406.756V14.1a1.439,1.439,0,0,0,1.424.791q1.415,0,1.459-2.443Zm9.932,3.841a3.054,3.054,0,0,1-2.54,1.2,3,3,0,0,1-2.369-.91,3.826,3.826,0,0,1-.8-2.615V7.49h2.962v6.179a1.065,1.065,0,0,0,1.187,1.222,1.548,1.548,0,0,0,1.45-.729V7.49h2.979V17H67.632ZM66.489,3.5h3.129L67.175,6.26l-2.417,0Zm14.37,8.824a5.8,5.8,0,0,1-.967,3.595,3.238,3.238,0,0,1-2.725,1.257,2.81,2.81,0,0,1-2.338-1.151L74.707,17H72.053V3.5h2.962V8.255a2.711,2.711,0,0,1,2.136-.94,3.239,3.239,0,0,1,2.742,1.274,5.826,5.826,0,0,1,.967,3.586Zm-2.971-.189a3.866,3.866,0,0,0-.365-1.952A1.229,1.229,0,0,0,76.4,9.6a1.418,1.418,0,0,0-1.389.763v3.773a1.426,1.426,0,0,0,1.406.755,1.258,1.258,0,0,0,1.327-1.018A7.309,7.309,0,0,0,77.889,12.135ZM85.289,17H82.318V3.5h2.971Zm4.948,0H87.267V7.49h2.971ZM87.091,5.029a1.334,1.334,0,0,1,.457-1.043,1.934,1.934,0,0,1,2.373,0,1.334,1.334,0,0,1,.457,1.043,1.334,1.334,0,0,1-.457,1.043,1.934,1.934,0,0,1-2.373,0A1.334,1.334,0,0,1,87.091,5.029Zm8.991,9.861a1.317,1.317,0,0,0,.967-.338,1.241,1.241,0,0,0,.334-.945h2.777a3.288,3.288,0,0,1-1.121,2.566,4.168,4.168,0,0,1-2.887,1,4.22,4.22,0,0,1-3.27-1.3,5.125,5.125,0,0,1-1.2-3.6v-.123A5.792,5.792,0,0,1,92.219,9.6a3.872,3.872,0,0,1,1.534-1.7,4.573,4.573,0,0,1,2.373-.593A4.116,4.116,0,0,1,99.07,8.343a3.647,3.647,0,0,1,1.09,2.786H97.383A1.626,1.626,0,0,0,97.022,10a1.244,1.244,0,0,0-.967-.4q-1.151,0-1.345,1.468a10.357,10.357,0,0,0-.062,1.283,4.068,4.068,0,0,0,.343,1.986A1.187,1.187,0,0,0,96.082,14.891Zm4.957-2.733a5.613,5.613,0,0,1,.554-2.536,3.96,3.96,0,0,1,1.591-1.709,4.791,4.791,0,0,1,2.435-.6,4.373,4.373,0,0,1,3.366,1.323,5.076,5.076,0,0,1,1.23,3.6v.105a4.925,4.925,0,0,1-1.235,3.529,4.384,4.384,0,0,1-3.344,1.305,4.434,4.434,0,0,1-3.261-1.217,4.761,4.761,0,0,1-1.327-3.3Zm2.962.185a3.538,3.538,0,0,0,.413,1.934,1.376,1.376,0,0,0,1.222.615q1.582,0,1.617-2.435v-.3q0-2.558-1.635-2.558-1.485,0-1.608,2.206Zm12.5,1.986a.684.684,0,0,0-.4-.606,6.016,6.016,0,0,0-1.5-.475,6.853,6.853,0,0,1-1.828-.646,3.062,3.062,0,0,1-1.1-.971,2.319,2.319,0,0,1-.378-1.31,2.628,2.628,0,0,1,1.081-2.158,4.453,4.453,0,0,1,2.83-.848,4.934,4.934,0,0,1,3.023.853,2.666,2.666,0,0,1,1.143,2.241H116.4q0-1.143-1.2-1.143a1.194,1.194,0,0,0-.782.259.8.8,0,0,0-.316.646.737.737,0,0,0,.387.642,3.654,3.654,0,0,0,1.235.4,10.671,10.671,0,0,1,1.49.378,2.706,2.706,0,0,1,2.145,2.646,2.491,2.491,0,0,1-1.156,2.118,5.068,5.068,0,0,1-2.993.817,5.172,5.172,0,0,1-2.18-.439,3.645,3.645,0,0,1-1.494-1.2A2.707,2.707,0,0,1,111,13.95h2.769a1.145,1.145,0,0,0,.439.962,1.808,1.808,0,0,0,1.081.3,1.422,1.422,0,0,0,.91-.246A.787.787,0,0,0,116.5,14.328Z" transform="translate(-5606 -8384.263)" fill="#12263f"/>
    <path id="Trazado_153942" data-name="Trazado 153942" d="M.967,17V4.2H5.089a6.064,6.064,0,0,1,3.05.769,5.406,5.406,0,0,1,2.114,2.171,6.554,6.554,0,0,1,.769,3.142v.589a6.592,6.592,0,0,1-.743,3.151A5.429,5.429,0,0,1,8.187,16.2a5.93,5.93,0,0,1-3.01.8ZM4.052,6.585v8.042H5.124a2.4,2.4,0,0,0,2.039-.945,4.63,4.63,0,0,0,.712-2.808V10.32a4.592,4.592,0,0,0-.712-2.795,2.442,2.442,0,0,0-2.074-.94ZM17.824,17a3.344,3.344,0,0,1-.281-.853,2.754,2.754,0,0,1-2.285,1.028,3.374,3.374,0,0,1-2.285-.813,2.588,2.588,0,0,1-.94-2.043,2.66,2.66,0,0,1,1.143-2.338A5.821,5.821,0,0,1,16.5,11.19h.914v-.5q0-1.316-1.134-1.316a.927.927,0,0,0-1.055,1.042H12.261a2.655,2.655,0,0,1,1.173-2.239,4.931,4.931,0,0,1,2.993-.86A4.323,4.323,0,0,1,19.3,8.2a3.086,3.086,0,0,1,1.081,2.435v4.21a4.311,4.311,0,0,0,.4,2V17ZM15.97,15.066a1.652,1.652,0,0,0,.918-.237,1.487,1.487,0,0,0,.523-.536V12.772H16.55Q15,12.772,15,14.161a.848.848,0,0,0,.272.655A.986.986,0,0,0,15.97,15.066Zm9.5-9.94V7.49h1.564V9.547H25.471V13.9a1.111,1.111,0,0,0,.193.747,1.037,1.037,0,0,0,.765.211,4.345,4.345,0,0,0,.738-.053v2.118a5.466,5.466,0,0,1-1.67.255,3.1,3.1,0,0,1-2.259-.721,2.954,2.954,0,0,1-.729-2.188V9.547H21.3V7.49h1.213V5.126Zm2.092,7.031a5.613,5.613,0,0,1,.554-2.536,3.96,3.96,0,0,1,1.591-1.709,4.791,4.791,0,0,1,2.435-.6,4.373,4.373,0,0,1,3.366,1.323,5.076,5.076,0,0,1,1.23,3.6v.105A4.925,4.925,0,0,1,35.5,15.871a4.384,4.384,0,0,1-3.344,1.305A4.434,4.434,0,0,1,28.9,15.958a4.761,4.761,0,0,1-1.327-3.3Zm2.962.185a3.538,3.538,0,0,0,.413,1.934,1.376,1.376,0,0,0,1.222.615q1.582,0,1.617-2.435v-.3q0-2.558-1.635-2.558-1.485,0-1.608,2.206Zm12.5,1.986a.684.684,0,0,0-.4-.606,6.016,6.016,0,0,0-1.5-.475A6.853,6.853,0,0,1,39.3,12.6a3.062,3.062,0,0,1-1.1-.971,2.319,2.319,0,0,1-.378-1.31A2.628,2.628,0,0,1,38.9,8.163a4.453,4.453,0,0,1,2.83-.848,4.934,4.934,0,0,1,3.023.853A2.666,2.666,0,0,1,45.9,10.408H42.926q0-1.143-1.2-1.143a1.194,1.194,0,0,0-.782.259.8.8,0,0,0-.316.646.737.737,0,0,0,.387.642,3.654,3.654,0,0,0,1.235.4,10.671,10.671,0,0,1,1.49.378,2.706,2.706,0,0,1,2.145,2.646,2.491,2.491,0,0,1-1.156,2.118,5.068,5.068,0,0,1-2.993.817,5.172,5.172,0,0,1-2.18-.439,3.645,3.645,0,0,1-1.494-1.2,2.707,2.707,0,0,1-.536-1.591h2.769a1.145,1.145,0,0,0,.439.962,1.808,1.808,0,0,0,1.081.3,1.422,1.422,0,0,0,.91-.246A.787.787,0,0,0,43.022,14.328Zm-37.213,25a.684.684,0,0,0-.4-.606,6.016,6.016,0,0,0-1.5-.475A6.853,6.853,0,0,1,2.083,37.6a3.062,3.062,0,0,1-1.1-.971,2.319,2.319,0,0,1-.378-1.31,2.628,2.628,0,0,1,1.081-2.158,4.453,4.453,0,0,1,2.83-.848,4.934,4.934,0,0,1,3.023.853,2.666,2.666,0,0,1,1.143,2.241H5.713q0-1.143-1.2-1.143a1.194,1.194,0,0,0-.782.259.8.8,0,0,0-.316.646.737.737,0,0,0,.387.642,3.654,3.654,0,0,0,1.235.4,10.671,10.671,0,0,1,1.49.378A2.706,2.706,0,0,1,8.666,39.24,2.491,2.491,0,0,1,7.51,41.358a5.068,5.068,0,0,1-2.993.817,5.172,5.172,0,0,1-2.18-.439,3.645,3.645,0,0,1-1.494-1.2A2.707,2.707,0,0,1,.308,38.95H3.076a1.145,1.145,0,0,0,.439.962,1.808,1.808,0,0,0,1.081.3,1.422,1.422,0,0,0,.91-.246A.787.787,0,0,0,5.81,39.328Zm8.842,2.848a4.889,4.889,0,0,1-3.542-1.305,4.507,4.507,0,0,1-1.354-3.4v-.246a5.84,5.84,0,0,1,.541-2.575,3.955,3.955,0,0,1,1.578-1.727,4.763,4.763,0,0,1,2.461-.611A4.117,4.117,0,0,1,17.5,33.558a4.887,4.887,0,0,1,1.16,3.467v1.151H12.771a2.135,2.135,0,0,0,.694,1.257,2.066,2.066,0,0,0,1.389.457,2.662,2.662,0,0,0,2.2-.984l1.354,1.6a3.784,3.784,0,0,1-1.569,1.217A5.3,5.3,0,0,1,14.651,42.176ZM14.317,34.6q-1.3,0-1.547,1.723h2.988v-.229a1.467,1.467,0,0,0-.36-1.1A1.434,1.434,0,0,0,14.317,34.6Zm8.332-2.109.1,1.116a3.27,3.27,0,0,1,2.716-1.292A2.407,2.407,0,0,1,27.9,33.747a3.165,3.165,0,0,1,2.795-1.433q2.892,0,2.971,3.5V42H30.691V36a1.813,1.813,0,0,0-.246-1.063,1.048,1.048,0,0,0-.9-.334,1.4,1.4,0,0,0-1.31.782l.009.123V42H25.277V36.015a1.906,1.906,0,0,0-.237-1.081,1.045,1.045,0,0,0-.905-.334,1.42,1.42,0,0,0-1.3.782V42H19.872V32.49ZM38.479,42H35.508V32.49h2.971ZM35.332,30.029a1.334,1.334,0,0,1,.457-1.043,1.934,1.934,0,0,1,2.373,0,1.42,1.42,0,0,1,0,2.087,1.934,1.934,0,0,1-2.373,0A1.334,1.334,0,0,1,35.332,30.029Zm13.8,7.286a5.735,5.735,0,0,1-1,3.538,3.2,3.2,0,0,1-2.694,1.323,2.742,2.742,0,0,1-2.153-.958v4.438H40.324V32.49h2.769l.088.879a2.742,2.742,0,0,1,2.241-1.055,3.224,3.224,0,0,1,2.733,1.3,5.805,5.805,0,0,1,.976,3.564Zm-2.962-.185q0-2.531-1.477-2.531a1.394,1.394,0,0,0-1.406.756V39.1a1.439,1.439,0,0,0,1.424.791q1.415,0,1.459-2.443Zm10.02-1.96-.976-.07a1.752,1.752,0,0,0-1.793.879V42H50.458V32.49h2.777l.1,1.222a2.294,2.294,0,0,1,2.083-1.4,2.888,2.888,0,0,1,.826.105ZM60.381,42H57.41V32.49h2.971ZM57.234,30.029a1.334,1.334,0,0,1,.457-1.043,1.934,1.934,0,0,1,2.373,0,1.42,1.42,0,0,1,0,2.087,1.934,1.934,0,0,1-2.373,0A1.334,1.334,0,0,1,57.234,30.029ZM66,38.476l1.5-5.985h3.12L67.518,42H64.494l-3.1-9.51h3.129ZM76.729,42a3.344,3.344,0,0,1-.281-.853,2.754,2.754,0,0,1-2.285,1.028,3.374,3.374,0,0,1-2.285-.813,2.588,2.588,0,0,1-.94-2.043,2.66,2.66,0,0,1,1.143-2.338A5.821,5.821,0,0,1,75.4,36.19h.914v-.5q0-1.316-1.134-1.316a.927.927,0,0,0-1.055,1.042H71.165a2.655,2.655,0,0,1,1.173-2.239,4.931,4.931,0,0,1,2.993-.86,4.323,4.323,0,0,1,2.874.888,3.086,3.086,0,0,1,1.081,2.435v4.21a4.311,4.311,0,0,0,.4,2V42Zm-1.854-1.934a1.652,1.652,0,0,0,.918-.237,1.487,1.487,0,0,0,.523-.536V37.772h-.861q-1.547,0-1.547,1.389a.848.848,0,0,0,.272.655A.986.986,0,0,0,74.874,40.066Zm5.678-2.892a5.809,5.809,0,0,1,.976-3.56,3.211,3.211,0,0,1,2.725-1.3,2.731,2.731,0,0,1,2.145,1V28.5h2.971V42H86.7l-.149-1.02a2.8,2.8,0,0,1-2.32,1.2,3.205,3.205,0,0,1-2.689-1.3A5.993,5.993,0,0,1,80.552,37.175Zm2.962.185q0,2.531,1.477,2.531a1.458,1.458,0,0,0,1.406-.826V35.443a1.419,1.419,0,0,0-1.389-.844q-1.371,0-1.485,2.215Zm7.163-.2a5.613,5.613,0,0,1,.554-2.536,3.96,3.96,0,0,1,1.591-1.709,4.791,4.791,0,0,1,2.435-.6,4.373,4.373,0,0,1,3.366,1.323,5.076,5.076,0,0,1,1.23,3.6v.105a4.925,4.925,0,0,1-1.235,3.529,4.384,4.384,0,0,1-3.344,1.305,4.434,4.434,0,0,1-3.261-1.217,4.761,4.761,0,0,1-1.327-3.3Zm2.962.185a3.538,3.538,0,0,0,.413,1.934,1.376,1.376,0,0,0,1.222.615q1.582,0,1.617-2.435v-.3q0-2.558-1.635-2.558-1.485,0-1.608,2.206Zm12.5,1.986a.684.684,0,0,0-.4-.606,6.016,6.016,0,0,0-1.5-.475,6.853,6.853,0,0,1-1.828-.646,3.062,3.062,0,0,1-1.1-.971,2.319,2.319,0,0,1-.378-1.31,2.628,2.628,0,0,1,1.081-2.158,4.453,4.453,0,0,1,2.83-.848,4.934,4.934,0,0,1,3.023.853,2.666,2.666,0,0,1,1.143,2.241H106.04q0-1.143-1.2-1.143a1.194,1.194,0,0,0-.782.259.8.8,0,0,0-.316.646.737.737,0,0,0,.387.642,3.654,3.654,0,0,0,1.235.4,10.671,10.671,0,0,1,1.49.378,2.706,2.706,0,0,1,2.145,2.646,2.491,2.491,0,0,1-1.156,2.118,5.068,5.068,0,0,1-2.993.817,5.172,5.172,0,0,1-2.18-.439,3.645,3.645,0,0,1-1.494-1.2,2.707,2.707,0,0,1-.536-1.591H103.4a1.145,1.145,0,0,0,.439.962,1.808,1.808,0,0,0,1.081.3,1.422,1.422,0,0,0,.91-.246A.787.787,0,0,0,106.137,39.328Z" transform="translate(-5387 -8406.263)" fill="#12263f"/>
    <path id="Trazado_153946" data-name="Trazado 153946" d="M.967,17V4.2H5.089a6.064,6.064,0,0,1,3.05.769,5.406,5.406,0,0,1,2.114,2.171,6.554,6.554,0,0,1,.769,3.142v.589a6.592,6.592,0,0,1-.743,3.151A5.429,5.429,0,0,1,8.187,16.2a5.93,5.93,0,0,1-3.01.8ZM4.052,6.585v8.042H5.124a2.4,2.4,0,0,0,2.039-.945,4.63,4.63,0,0,0,.712-2.808V10.32a4.592,4.592,0,0,0-.712-2.795,2.442,2.442,0,0,0-2.074-.94ZM17.824,17a3.344,3.344,0,0,1-.281-.853,2.754,2.754,0,0,1-2.285,1.028,3.374,3.374,0,0,1-2.285-.813,2.588,2.588,0,0,1-.94-2.043,2.66,2.66,0,0,1,1.143-2.338A5.821,5.821,0,0,1,16.5,11.19h.914v-.5q0-1.316-1.134-1.316a.927.927,0,0,0-1.055,1.042H12.261a2.655,2.655,0,0,1,1.173-2.239,4.931,4.931,0,0,1,2.993-.86A4.323,4.323,0,0,1,19.3,8.2a3.086,3.086,0,0,1,1.081,2.435v4.21a4.311,4.311,0,0,0,.4,2V17ZM15.97,15.066a1.652,1.652,0,0,0,.918-.237,1.487,1.487,0,0,0,.523-.536V12.772H16.55Q15,12.772,15,14.161a.848.848,0,0,0,.272.655A.986.986,0,0,0,15.97,15.066Zm9.5-9.94V7.49h1.564V9.547H25.471V13.9a1.111,1.111,0,0,0,.193.747,1.037,1.037,0,0,0,.765.211,4.345,4.345,0,0,0,.738-.053v2.118a5.466,5.466,0,0,1-1.67.255,3.1,3.1,0,0,1-2.259-.721,2.954,2.954,0,0,1-.729-2.188V9.547H21.3V7.49h1.213V5.126Zm2.092,7.031a5.613,5.613,0,0,1,.554-2.536,3.96,3.96,0,0,1,1.591-1.709,4.791,4.791,0,0,1,2.435-.6,4.373,4.373,0,0,1,3.366,1.323,5.076,5.076,0,0,1,1.23,3.6v.105A4.925,4.925,0,0,1,35.5,15.871a4.384,4.384,0,0,1-3.344,1.305A4.434,4.434,0,0,1,28.9,15.958a4.761,4.761,0,0,1-1.327-3.3Zm2.962.185a3.538,3.538,0,0,0,.413,1.934,1.376,1.376,0,0,0,1.222.615q1.582,0,1.617-2.435v-.3q0-2.558-1.635-2.558-1.485,0-1.608,2.206Zm12.5,1.986a.684.684,0,0,0-.4-.606,6.016,6.016,0,0,0-1.5-.475A6.853,6.853,0,0,1,39.3,12.6a3.062,3.062,0,0,1-1.1-.971,2.319,2.319,0,0,1-.378-1.31A2.628,2.628,0,0,1,38.9,8.163a4.453,4.453,0,0,1,2.83-.848,4.934,4.934,0,0,1,3.023.853A2.666,2.666,0,0,1,45.9,10.408H42.926q0-1.143-1.2-1.143a1.194,1.194,0,0,0-.782.259.8.8,0,0,0-.316.646.737.737,0,0,0,.387.642,3.654,3.654,0,0,0,1.235.4,10.671,10.671,0,0,1,1.49.378,2.706,2.706,0,0,1,2.145,2.646,2.491,2.491,0,0,1-1.156,2.118,5.068,5.068,0,0,1-2.993.817,5.172,5.172,0,0,1-2.18-.439,3.645,3.645,0,0,1-1.494-1.2,2.707,2.707,0,0,1-.536-1.591h2.769a1.145,1.145,0,0,0,.439.962,1.808,1.808,0,0,0,1.081.3,1.422,1.422,0,0,0,.91-.246A.787.787,0,0,0,43.022,14.328Zm17.552-2.013a5.735,5.735,0,0,1-1,3.538,3.2,3.2,0,0,1-2.694,1.323,2.742,2.742,0,0,1-2.153-.958v4.438H51.768V7.49h2.769l.088.879a2.742,2.742,0,0,1,2.241-1.055,3.224,3.224,0,0,1,2.733,1.3,5.805,5.805,0,0,1,.976,3.564Zm-2.962-.185q0-2.531-1.477-2.531a1.394,1.394,0,0,0-1.406.756V14.1a1.439,1.439,0,0,0,1.424.791q1.415,0,1.459-2.443Zm10.02-1.96-.976-.07a1.752,1.752,0,0,0-1.793.879V17H61.9V7.49h2.777l.1,1.222a2.294,2.294,0,0,1,2.083-1.4,2.888,2.888,0,0,1,.826.105ZM71.824,17H68.854V7.49h2.971ZM68.678,5.029a1.334,1.334,0,0,1,.457-1.043,1.934,1.934,0,0,1,2.373,0,1.334,1.334,0,0,1,.457,1.043,1.334,1.334,0,0,1-.457,1.043,1.934,1.934,0,0,1-2.373,0A1.334,1.334,0,0,1,68.678,5.029Zm8.763,8.446,1.5-5.985h3.12L78.961,17H75.938l-3.1-9.51h3.129ZM88.172,17a3.344,3.344,0,0,1-.281-.853,2.754,2.754,0,0,1-2.285,1.028,3.374,3.374,0,0,1-2.285-.813,2.588,2.588,0,0,1-.94-2.043,2.66,2.66,0,0,1,1.143-2.338,5.821,5.821,0,0,1,3.322-.791h.914v-.5q0-1.316-1.134-1.316a.927.927,0,0,0-1.055,1.042H82.608a2.655,2.655,0,0,1,1.173-2.239,4.931,4.931,0,0,1,2.993-.86,4.323,4.323,0,0,1,2.874.888,3.086,3.086,0,0,1,1.081,2.435v4.21a4.311,4.311,0,0,0,.4,2V17Zm-1.854-1.934a1.652,1.652,0,0,0,.918-.237,1.487,1.487,0,0,0,.523-.536V12.772H86.9q-1.547,0-1.547,1.389a.848.848,0,0,0,.272.655A.986.986,0,0,0,86.317,15.066ZM92,12.175a5.809,5.809,0,0,1,.976-3.56,3.211,3.211,0,0,1,2.725-1.3,2.731,2.731,0,0,1,2.145,1V3.5h2.971V17H98.147L98,15.98a2.8,2.8,0,0,1-2.32,1.2,3.205,3.205,0,0,1-2.689-1.3A5.993,5.993,0,0,1,92,12.175Zm2.962.185q0,2.531,1.477,2.531a1.458,1.458,0,0,0,1.406-.826V10.443A1.419,1.419,0,0,0,96.451,9.6q-1.371,0-1.485,2.215Zm7.163-.2a5.613,5.613,0,0,1,.554-2.536,3.96,3.96,0,0,1,1.591-1.709,4.791,4.791,0,0,1,2.435-.6,4.373,4.373,0,0,1,3.366,1.323,5.076,5.076,0,0,1,1.23,3.6v.105a4.925,4.925,0,0,1-1.235,3.529,4.384,4.384,0,0,1-3.344,1.305,4.434,4.434,0,0,1-3.261-1.217,4.761,4.761,0,0,1-1.327-3.3Zm2.962.185a3.538,3.538,0,0,0,.413,1.934,1.376,1.376,0,0,0,1.222.615q1.582,0,1.617-2.435v-.3q0-2.558-1.635-2.558-1.485,0-1.608,2.206Zm12.5,1.986a.684.684,0,0,0-.4-.606,6.016,6.016,0,0,0-1.5-.475,6.853,6.853,0,0,1-1.828-.646,3.062,3.062,0,0,1-1.1-.971,2.319,2.319,0,0,1-.378-1.31,2.628,2.628,0,0,1,1.081-2.158,4.453,4.453,0,0,1,2.83-.848,4.934,4.934,0,0,1,3.023.853,2.666,2.666,0,0,1,1.143,2.241h-2.971q0-1.143-1.2-1.143a1.194,1.194,0,0,0-.782.259.8.8,0,0,0-.316.646.737.737,0,0,0,.387.642,3.654,3.654,0,0,0,1.235.4,10.671,10.671,0,0,1,1.49.378,2.706,2.706,0,0,1,2.145,2.646,2.491,2.491,0,0,1-1.156,2.118,5.068,5.068,0,0,1-2.993.817,5.172,5.172,0,0,1-2.18-.439,3.645,3.645,0,0,1-1.494-1.2,2.707,2.707,0,0,1-.536-1.591h2.769a1.145,1.145,0,0,0,.439.962,1.808,1.808,0,0,0,1.081.3,1.422,1.422,0,0,0,.91-.246A.787.787,0,0,0,117.58,14.328Z" transform="translate(-5250 -8234.263)" fill="#12263f"/>
    <path id="Trazado_153943" data-name="Trazado 153943" d="M3.8,19V4.781h4.58a6.737,6.737,0,0,1,3.389.854,6.006,6.006,0,0,1,2.349,2.412,7.283,7.283,0,0,1,.854,3.491v.654a7.325,7.325,0,0,1-.825,3.5,6.032,6.032,0,0,1-2.324,2.422A6.589,6.589,0,0,1,8.477,19ZM7.227,7.428v8.936H8.418a2.666,2.666,0,0,0,2.266-1.05,5.145,5.145,0,0,0,.791-3.12v-.615a5.1,5.1,0,0,0-.791-3.105,2.713,2.713,0,0,0-2.3-1.045ZM22.529,19a3.716,3.716,0,0,1-.312-.947A3.06,3.06,0,0,1,19.678,19.2a3.749,3.749,0,0,1-2.539-.9,2.875,2.875,0,0,1-1.045-2.271,2.955,2.955,0,0,1,1.27-2.6,6.468,6.468,0,0,1,3.691-.879H22.07v-.559q0-1.462-1.26-1.462a1.03,1.03,0,0,0-1.172,1.158H16.348a2.95,2.95,0,0,1,1.3-2.487,5.479,5.479,0,0,1,3.325-.956,4.8,4.8,0,0,1,3.193.986,3.429,3.429,0,0,1,1.2,2.705v4.678a4.79,4.79,0,0,0,.449,2.227V19Zm-2.061-2.148a1.836,1.836,0,0,0,1.021-.264,1.653,1.653,0,0,0,.581-.6V14.3h-.957q-1.719,0-1.719,1.543a.942.942,0,0,0,.3.728A1.1,1.1,0,0,0,20.469,16.852ZM31.025,5.807V8.434h1.738v2.285H31.025v4.834a1.234,1.234,0,0,0,.215.83,1.152,1.152,0,0,0,.85.234,4.828,4.828,0,0,0,.82-.059v2.354a6.074,6.074,0,0,1-1.855.283,3.448,3.448,0,0,1-2.51-.8,3.282,3.282,0,0,1-.811-2.432V10.719H26.387V8.434h1.348V5.807Zm2.324,7.813a6.236,6.236,0,0,1,.615-2.817,4.4,4.4,0,0,1,1.768-1.9,5.323,5.323,0,0,1,2.705-.664,4.858,4.858,0,0,1,3.74,1.47,5.64,5.64,0,0,1,1.367,4v.117a5.472,5.472,0,0,1-1.372,3.921,4.871,4.871,0,0,1-3.716,1.45,4.927,4.927,0,0,1-3.623-1.353,5.29,5.29,0,0,1-1.475-3.667Zm3.291.205a3.932,3.932,0,0,0,.459,2.148,1.529,1.529,0,0,0,1.357.684q1.758,0,1.8-2.705v-.332q0-2.842-1.816-2.842-1.65,0-1.787,2.451Zm13.887,2.207a.76.76,0,0,0-.439-.674,6.685,6.685,0,0,0-1.67-.527,7.615,7.615,0,0,1-2.031-.718,3.4,3.4,0,0,1-1.221-1.079,2.577,2.577,0,0,1-.42-1.455,2.92,2.92,0,0,1,1.2-2.4,4.948,4.948,0,0,1,3.145-.942,5.482,5.482,0,0,1,3.359.947,2.962,2.962,0,0,1,1.27,2.49h-3.3q0-1.27-1.338-1.27a1.326,1.326,0,0,0-.869.288.892.892,0,0,0-.352.718.819.819,0,0,0,.43.713,4.06,4.06,0,0,0,1.372.449,11.857,11.857,0,0,1,1.655.42A3.007,3.007,0,0,1,53.7,15.934a2.767,2.767,0,0,1-1.284,2.354,5.632,5.632,0,0,1-3.325.908,5.747,5.747,0,0,1-2.422-.488,4.05,4.05,0,0,1-1.66-1.328,3.007,3.007,0,0,1-.6-1.768H47.49a1.272,1.272,0,0,0,.488,1.069,2.009,2.009,0,0,0,1.2.337,1.58,1.58,0,0,0,1.011-.273A.875.875,0,0,0,50.527,16.031Zm14.16.625a1.464,1.464,0,0,0,1.074-.376,1.379,1.379,0,0,0,.371-1.05h3.086a3.653,3.653,0,0,1-1.245,2.852A4.631,4.631,0,0,1,64.766,19.2a4.689,4.689,0,0,1-3.633-1.445,5.7,5.7,0,0,1-1.328-4v-.137a6.436,6.436,0,0,1,.591-2.827A4.3,4.3,0,0,1,62.1,8.9a5.081,5.081,0,0,1,2.637-.659,4.573,4.573,0,0,1,3.271,1.143,4.053,4.053,0,0,1,1.211,3.1H66.133a1.806,1.806,0,0,0-.4-1.26,1.382,1.382,0,0,0-1.074-.439q-1.279,0-1.494,1.631a11.507,11.507,0,0,0-.068,1.426,4.52,4.52,0,0,0,.381,2.207A1.319,1.319,0,0,0,64.688,16.656ZM70.2,13.619a6.236,6.236,0,0,1,.615-2.817,4.4,4.4,0,0,1,1.768-1.9,5.323,5.323,0,0,1,2.705-.664,4.858,4.858,0,0,1,3.74,1.47,5.64,5.64,0,0,1,1.367,4v.117a5.472,5.472,0,0,1-1.372,3.921A4.871,4.871,0,0,1,75.3,19.2a4.927,4.927,0,0,1-3.623-1.353,5.29,5.29,0,0,1-1.475-3.667Zm3.291.205a3.932,3.932,0,0,0,.459,2.148,1.529,1.529,0,0,0,1.357.684q1.758,0,1.8-2.705v-.332q0-2.842-1.816-2.842-1.65,0-1.787,2.451ZM84.863,8.434l.107,1.24a3.583,3.583,0,0,1,3.018-1.436,3.015,3.015,0,0,1,2.466.986,4.7,4.7,0,0,1,.845,2.969V19H88V12.33a1.783,1.783,0,0,0-.322-1.177,1.491,1.491,0,0,0-1.172-.376,1.569,1.569,0,0,0-1.436.762V19H81.777V8.434Zm12.09-2.627V8.434h1.738v2.285H96.953v4.834a1.234,1.234,0,0,0,.215.83,1.152,1.152,0,0,0,.85.234,4.828,4.828,0,0,0,.82-.059v2.354a6.074,6.074,0,0,1-1.855.283,3.448,3.448,0,0,1-2.51-.8,3.282,3.282,0,0,1-.811-2.432V10.719H92.314V8.434h1.348V5.807ZM105.1,19.2a5.432,5.432,0,0,1-3.936-1.45,5.008,5.008,0,0,1-1.5-3.774V13.7a6.489,6.489,0,0,1,.6-2.861,4.395,4.395,0,0,1,1.753-1.919,5.292,5.292,0,0,1,2.734-.679,4.574,4.574,0,0,1,3.516,1.382,5.43,5.43,0,0,1,1.289,3.853v1.279h-6.543a2.372,2.372,0,0,0,.771,1.4,2.3,2.3,0,0,0,1.543.508,2.958,2.958,0,0,0,2.441-1.094l1.5,1.777a4.2,4.2,0,0,1-1.743,1.353A5.891,5.891,0,0,1,105.1,19.2Zm-.371-8.418q-1.445,0-1.719,1.914h3.32v-.254a1.63,1.63,0,0,0-.4-1.226A1.593,1.593,0,0,0,104.727,10.777Zm9.258-2.344.107,1.24a3.633,3.633,0,0,1,3.018-1.436,2.675,2.675,0,0,1,2.705,1.592,3.517,3.517,0,0,1,3.105-1.592q3.213,0,3.3,3.887V19h-3.3V12.33a2.014,2.014,0,0,0-.273-1.182,1.164,1.164,0,0,0-1-.371,1.559,1.559,0,0,0-1.455.869l.01.137V19h-3.3V12.35a2.117,2.117,0,0,0-.264-1.2,1.161,1.161,0,0,0-1.006-.371,1.578,1.578,0,0,0-1.445.869V19H110.9V8.434Zm23.926,5.361a6.372,6.372,0,0,1-1.108,3.931,3.554,3.554,0,0,1-2.993,1.47,3.046,3.046,0,0,1-2.393-1.064v4.932h-3.291V8.434H131.2l.1.977a3.046,3.046,0,0,1,2.49-1.172,3.582,3.582,0,0,1,3.037,1.44,6.45,6.45,0,0,1,1.084,3.96Zm-3.291-.205q0-2.812-1.641-2.812a1.549,1.549,0,0,0-1.562.84v4.16a1.6,1.6,0,0,0,1.582.879q1.572,0,1.621-2.715ZM142.832,19h-3.3V4h3.3Zm7.979,0a3.716,3.716,0,0,1-.312-.947,3.06,3.06,0,0,1-2.539,1.143,3.749,3.749,0,0,1-2.539-.9,2.875,2.875,0,0,1-1.045-2.271,2.955,2.955,0,0,1,1.27-2.6,6.468,6.468,0,0,1,3.691-.879h1.016v-.559q0-1.462-1.26-1.462a1.03,1.03,0,0,0-1.172,1.158h-3.291a2.95,2.95,0,0,1,1.3-2.487,5.479,5.479,0,0,1,3.325-.956,4.8,4.8,0,0,1,3.193.986,3.429,3.429,0,0,1,1.2,2.705v4.678a4.79,4.79,0,0,0,.449,2.227V19Zm-2.061-2.148a1.836,1.836,0,0,0,1.021-.264,1.653,1.653,0,0,0,.581-.6V14.3h-.957q-1.719,0-1.719,1.543a.942.942,0,0,0,.3.728A1.1,1.1,0,0,0,148.75,16.852Zm6.309-3.213a6.455,6.455,0,0,1,1.084-3.955,3.568,3.568,0,0,1,3.027-1.445,3.035,3.035,0,0,1,2.383,1.113V4h3.3V19h-2.959l-.166-1.133A3.116,3.116,0,0,1,159.15,19.2a3.562,3.562,0,0,1-2.988-1.445A6.659,6.659,0,0,1,155.059,13.639Zm3.291.205q0,2.813,1.641,2.813a1.62,1.62,0,0,0,1.563-.918V11.715a1.576,1.576,0,0,0-1.543-.937q-1.523,0-1.65,2.461Zm7.959-.225a6.236,6.236,0,0,1,.615-2.817,4.4,4.4,0,0,1,1.768-1.9,5.323,5.323,0,0,1,2.705-.664,4.858,4.858,0,0,1,3.74,1.47,5.64,5.64,0,0,1,1.367,4v.117a5.472,5.472,0,0,1-1.372,3.921,4.871,4.871,0,0,1-3.716,1.45,4.927,4.927,0,0,1-3.623-1.353,5.29,5.29,0,0,1-1.475-3.667Zm3.291.205a3.932,3.932,0,0,0,.459,2.148,1.529,1.529,0,0,0,1.357.684q1.758,0,1.8-2.705v-.332q0-2.842-1.816-2.842-1.65,0-1.787,2.451Zm13.887,2.207a.76.76,0,0,0-.439-.674,6.685,6.685,0,0,0-1.67-.527,7.615,7.615,0,0,1-2.031-.718,3.4,3.4,0,0,1-1.221-1.079,2.577,2.577,0,0,1-.42-1.455,2.92,2.92,0,0,1,1.2-2.4,4.948,4.948,0,0,1,3.145-.942,5.482,5.482,0,0,1,3.359.947,2.962,2.962,0,0,1,1.27,2.49h-3.3q0-1.27-1.338-1.27a1.326,1.326,0,0,0-.869.288.892.892,0,0,0-.352.718.819.819,0,0,0,.43.713,4.06,4.06,0,0,0,1.372.449,11.857,11.857,0,0,1,1.655.42,3.007,3.007,0,0,1,2.383,2.939,2.767,2.767,0,0,1-1.284,2.354,5.632,5.632,0,0,1-3.325.908,5.747,5.747,0,0,1-2.422-.488,4.05,4.05,0,0,1-1.66-1.328,3.007,3.007,0,0,1-.6-1.768h3.076a1.272,1.272,0,0,0,.488,1.069,2.009,2.009,0,0,0,1.2.337,1.58,1.58,0,0,0,1.011-.273A.875.875,0,0,0,183.486,16.031ZM27.275,46.2a5.432,5.432,0,0,1-3.936-1.45,5.008,5.008,0,0,1-1.5-3.774V40.7a6.489,6.489,0,0,1,.6-2.861,4.395,4.395,0,0,1,1.753-1.919,5.292,5.292,0,0,1,2.734-.679,4.574,4.574,0,0,1,3.516,1.382,5.43,5.43,0,0,1,1.289,3.853v1.279H25.186a2.372,2.372,0,0,0,.771,1.4,2.3,2.3,0,0,0,1.543.508,2.958,2.958,0,0,0,2.441-1.094l1.5,1.777A4.2,4.2,0,0,1,29.7,45.692,5.891,5.891,0,0,1,27.275,46.2ZM26.9,37.777q-1.445,0-1.719,1.914h3.32v-.254a1.63,1.63,0,0,0-.4-1.226A1.593,1.593,0,0,0,26.9,37.777Zm9.17-2.344.107,1.24A3.583,3.583,0,0,1,39.2,35.238a3.015,3.015,0,0,1,2.466.986,4.7,4.7,0,0,1,.845,2.969V46h-3.3V39.33a1.783,1.783,0,0,0-.322-1.177,1.491,1.491,0,0,0-1.172-.376,1.569,1.569,0,0,0-1.436.762V46H32.988V35.434ZM52.783,46h-3.3V31h3.3Zm7.979,0a3.716,3.716,0,0,1-.312-.947A3.06,3.06,0,0,1,57.91,46.2a3.749,3.749,0,0,1-2.539-.9,2.875,2.875,0,0,1-1.045-2.271,2.955,2.955,0,0,1,1.27-2.6,6.468,6.468,0,0,1,3.691-.879H60.3v-.559q0-1.462-1.26-1.462a1.03,1.03,0,0,0-1.172,1.158H54.58a2.95,2.95,0,0,1,1.3-2.487,5.479,5.479,0,0,1,3.325-.956,4.8,4.8,0,0,1,3.193.986,3.429,3.429,0,0,1,1.2,2.705v4.678a4.79,4.79,0,0,0,.449,2.227V46ZM58.7,43.852a1.836,1.836,0,0,0,1.021-.264,1.653,1.653,0,0,0,.581-.6V41.3h-.957q-1.719,0-1.719,1.543a.942.942,0,0,0,.3.728A1.1,1.1,0,0,0,58.7,43.852ZM73.877,46h-3.3V31h3.3Zm7.139.2a5.432,5.432,0,0,1-3.936-1.45,5.008,5.008,0,0,1-1.5-3.774V40.7a6.489,6.489,0,0,1,.6-2.861,4.395,4.395,0,0,1,1.753-1.919,5.292,5.292,0,0,1,2.734-.679A4.574,4.574,0,0,1,84.18,36.62a5.43,5.43,0,0,1,1.289,3.853v1.279H78.926a2.372,2.372,0,0,0,.771,1.4,2.3,2.3,0,0,0,1.543.508,2.958,2.958,0,0,0,2.441-1.094l1.5,1.777a4.2,4.2,0,0,1-1.743,1.353A5.891,5.891,0,0,1,81.016,46.2Zm-.371-8.418q-1.445,0-1.719,1.914h3.32v-.254a1.63,1.63,0,0,0-.4-1.226A1.593,1.593,0,0,0,80.645,37.777Zm10.244,3.613,1.758-5.957h3.525L91.865,47.768l-.186.449a3.272,3.272,0,0,1-3.242,2.051,5.158,5.158,0,0,1-1.357-.195V47.729h.43a2.251,2.251,0,0,0,1.06-.2,1.216,1.216,0,0,0,.542-.718l.264-.7L85.7,35.434h3.516ZM114.043,46h-3.408V40.063h-5.049V46h-3.428V31.781h3.428v5.645h5.049V31.781h3.408Zm7.969,0a3.716,3.716,0,0,1-.312-.947A3.06,3.06,0,0,1,119.16,46.2a3.749,3.749,0,0,1-2.539-.9,2.875,2.875,0,0,1-1.045-2.271,2.955,2.955,0,0,1,1.27-2.6,6.468,6.468,0,0,1,3.691-.879h1.016v-.559q0-1.462-1.26-1.462a1.03,1.03,0,0,0-1.172,1.158H115.83a2.95,2.95,0,0,1,1.3-2.487,5.479,5.479,0,0,1,3.325-.956,4.8,4.8,0,0,1,3.193.986,3.429,3.429,0,0,1,1.2,2.705v4.678a4.79,4.79,0,0,0,.449,2.227V46Zm-2.061-2.148a1.836,1.836,0,0,0,1.021-.264,1.653,1.653,0,0,0,.581-.6V41.3H120.6q-1.719,0-1.719,1.543a.942.942,0,0,0,.3.728A1.1,1.1,0,0,0,119.951,43.852ZM136.484,40.8A6.44,6.44,0,0,1,135.41,44.8a3.6,3.6,0,0,1-3.027,1.4,3.122,3.122,0,0,1-2.6-1.279L129.648,46H126.7V31h3.291v5.283a3.013,3.013,0,0,1,2.373-1.045,3.6,3.6,0,0,1,3.047,1.416,6.473,6.473,0,0,1,1.074,3.984Zm-3.3-.21a4.3,4.3,0,0,0-.405-2.169,1.366,1.366,0,0,0-1.245-.648,1.576,1.576,0,0,0-1.543.848v4.192a1.585,1.585,0,0,0,1.563.838,1.4,1.4,0,0,0,1.475-1.131A8.121,8.121,0,0,0,133.184,40.595Zm9.863,5.6a5.432,5.432,0,0,1-3.936-1.45,5.008,5.008,0,0,1-1.5-3.774V40.7a6.489,6.489,0,0,1,.6-2.861,4.395,4.395,0,0,1,1.753-1.919,5.292,5.292,0,0,1,2.734-.679,4.574,4.574,0,0,1,3.516,1.382,5.43,5.43,0,0,1,1.289,3.853v1.279h-6.543a2.372,2.372,0,0,0,.771,1.4,2.3,2.3,0,0,0,1.543.508,2.958,2.958,0,0,0,2.441-1.094l1.5,1.777a4.2,4.2,0,0,1-1.743,1.353A5.891,5.891,0,0,1,143.047,46.2Zm-.371-8.418q-1.445,0-1.719,1.914h3.32v-.254a1.63,1.63,0,0,0-.4-1.226A1.593,1.593,0,0,0,142.676,37.777ZM154.775,46a3.716,3.716,0,0,1-.312-.947,3.06,3.06,0,0,1-2.539,1.143,3.749,3.749,0,0,1-2.539-.9,2.875,2.875,0,0,1-1.045-2.271,2.955,2.955,0,0,1,1.27-2.6,6.468,6.468,0,0,1,3.691-.879h1.016v-.559q0-1.462-1.26-1.462a1.03,1.03,0,0,0-1.172,1.158h-3.291a2.95,2.95,0,0,1,1.3-2.487,5.479,5.479,0,0,1,3.325-.956,4.8,4.8,0,0,1,3.193.986,3.429,3.429,0,0,1,1.2,2.705v4.678a4.79,4.79,0,0,0,.449,2.227V46Zm-2.061-2.148a1.836,1.836,0,0,0,1.021-.264,1.652,1.652,0,0,0,.581-.6V41.3h-.957q-1.719,0-1.719,1.543a.942.942,0,0,0,.3.728A1.1,1.1,0,0,0,152.715,43.852Zm12.256-.82a.76.76,0,0,0-.439-.674,6.685,6.685,0,0,0-1.67-.527,7.615,7.615,0,0,1-2.031-.718,3.4,3.4,0,0,1-1.221-1.079,2.577,2.577,0,0,1-.42-1.455,2.92,2.92,0,0,1,1.2-2.4,4.948,4.948,0,0,1,3.145-.942,5.482,5.482,0,0,1,3.359.947,2.962,2.962,0,0,1,1.27,2.49h-3.3q0-1.27-1.338-1.27a1.326,1.326,0,0,0-.869.288.892.892,0,0,0-.352.718.819.819,0,0,0,.43.713,4.06,4.06,0,0,0,1.372.449,11.857,11.857,0,0,1,1.655.42,3.007,3.007,0,0,1,2.383,2.939,2.767,2.767,0,0,1-1.284,2.354,5.632,5.632,0,0,1-3.325.908,5.747,5.747,0,0,1-2.422-.488,4.05,4.05,0,0,1-1.66-1.328,3.007,3.007,0,0,1-.6-1.768h3.076a1.272,1.272,0,0,0,.488,1.069,2.009,2.009,0,0,0,1.2.337,1.58,1.58,0,0,0,1.011-.273A.875.875,0,0,0,164.971,43.031ZM75.562,73V58.781h4.58a6.737,6.737,0,0,1,3.389.854,6.006,6.006,0,0,1,2.349,2.412,7.283,7.283,0,0,1,.854,3.491v.654a7.325,7.325,0,0,1-.825,3.5,6.032,6.032,0,0,1-2.324,2.422A6.589,6.589,0,0,1,80.239,73Zm3.428-11.572v8.936h1.191a2.666,2.666,0,0,0,2.266-1.05,5.145,5.145,0,0,0,.791-3.12v-.615a5.1,5.1,0,0,0-.791-3.105,2.713,2.713,0,0,0-2.3-1.045ZM94.292,73a3.716,3.716,0,0,1-.312-.947A3.06,3.06,0,0,1,91.44,73.2a3.749,3.749,0,0,1-2.539-.9,2.875,2.875,0,0,1-1.045-2.271,2.955,2.955,0,0,1,1.27-2.6,6.468,6.468,0,0,1,3.691-.879h1.016v-.559q0-1.462-1.26-1.462A1.03,1.03,0,0,0,91.4,65.681H88.11a2.95,2.95,0,0,1,1.3-2.487,5.479,5.479,0,0,1,3.325-.956,4.8,4.8,0,0,1,3.193.986,3.429,3.429,0,0,1,1.2,2.705v4.678a4.79,4.79,0,0,0,.449,2.227V73Zm-2.061-2.148a1.836,1.836,0,0,0,1.021-.264,1.653,1.653,0,0,0,.581-.6V68.3h-.957q-1.719,0-1.719,1.543a.942.942,0,0,0,.3.728A1.1,1.1,0,0,0,92.231,70.852Zm10.557-11.045v2.627h1.738v2.285h-1.738v4.834a1.234,1.234,0,0,0,.215.83,1.152,1.152,0,0,0,.85.234,4.828,4.828,0,0,0,.82-.059v2.354a6.074,6.074,0,0,1-1.855.283,3.448,3.448,0,0,1-2.51-.8,3.282,3.282,0,0,1-.811-2.432V64.719H98.149V62.434H99.5V59.807ZM111.772,73a3.716,3.716,0,0,1-.312-.947,3.06,3.06,0,0,1-2.539,1.143,3.749,3.749,0,0,1-2.539-.9,2.875,2.875,0,0,1-1.045-2.271,2.955,2.955,0,0,1,1.27-2.6,6.468,6.468,0,0,1,3.691-.879h1.016v-.559q0-1.462-1.26-1.462a1.03,1.03,0,0,0-1.172,1.158h-3.291a2.95,2.95,0,0,1,1.3-2.487,5.479,5.479,0,0,1,3.325-.956,4.8,4.8,0,0,1,3.193.986,3.429,3.429,0,0,1,1.2,2.705v4.678a4.79,4.79,0,0,0,.449,2.227V73Zm-2.061-2.148a1.836,1.836,0,0,0,1.021-.264,1.653,1.653,0,0,0,.581-.6V68.3h-.957q-1.719,0-1.719,1.543a.942.942,0,0,0,.3.728A1.1,1.1,0,0,0,109.712,70.852Z" transform="translate(-5544 -8250.263)" fill="#12263f"/>
  </g>
</svg>
