<svg xmlns="http://www.w3.org/2000/svg" width="78" height="78" viewBox="0 0 78 78">
  <g id="Grupo_137178" data-name="Grupo 137178" transform="translate(-1230 -1518.096)">
    <circle id="Elipse_501" data-name="Elipse 501" cx="39" cy="39" r="39" transform="translate(1230 1518.096)" fill="#ef6c00"/>
    <g id="Grupo_136791" data-name="Grupo 136791" transform="translate(612.374 1490.414)">
      <path id="Trazado_152321" data-name="Trazado 152321" d="M648.02,91.892a10.163,10.163,0,0,0-4.165-1.427V83.484l4.1,4.1A1.124,1.124,0,1,0,649.549,86l-6.023-6.022a1.125,1.125,0,0,0-1.591,0L635.913,86a1.124,1.124,0,0,0,1.591,1.589l4.1-4.1V90.45a10.185,10.185,0,0,0,1.125,20.308c.215,0,.426-.018.638-.032a14.8,14.8,0,0,1,4.651-18.834Z" transform="translate(0 -23.832)" fill="#fcecdf"/>
      <path id="Trazado_152322" data-name="Trazado 152322" d="M720.92,90.45V83.485l4.1,4.1A1.124,1.124,0,1,0,726.612,86l-6.022-6.022a1.125,1.125,0,0,0-1.591,0L712.977,86a1.124,1.124,0,0,0,1.591,1.589l4.1-4.1v6.981a10.167,10.167,0,0,0-4.165,1.427,14.8,14.8,0,0,1,4.651,18.834c.212.013.423.032.638.032A10.185,10.185,0,0,0,720.92,90.45Z" transform="translate(-49.273 -23.832)" fill="#fcecdf"/>
      <path id="Trazado_152323" data-name="Trazado 152323" d="M687.3,128.837a3.421,3.421,0,0,0,.172.771,1.722,1.722,0,0,0,.434.625,3.949,3.949,0,0,0,.993.67,4.181,4.181,0,0,0,.963.318v-5.251a3.142,3.142,0,0,0-1.812.864A2.579,2.579,0,0,0,687.3,128.837Z" transform="translate(-33.678 -52.327)" fill="#fcecdf"/>
      <path id="Trazado_152324" data-name="Trazado 152324" d="M699.884,145.925v4.744a2.413,2.413,0,0,0,.659-.226,2.476,2.476,0,0,0,.735-.564,1.917,1.917,0,0,0,.321-.593,1.647,1.647,0,0,0,.107-.477v-.015a3.023,3.023,0,0,0-.559-2.1A2.821,2.821,0,0,0,699.884,145.925Z" transform="translate(-41.422 -64.601)" fill="#fcecdf"/>
      <path id="Trazado_152325" data-name="Trazado 152325" d="M676.606,67.946V44.729l6.753,6.752a1.124,1.124,0,1,0,1.591-1.589l-8.673-8.672a1.158,1.158,0,0,0-1.591,0l-8.671,8.672a1.124,1.124,0,1,0,1.591,1.589l6.752-6.752V67.946a12.285,12.285,0,1,0,2.249,0Zm4.544,16.321A4.154,4.154,0,0,1,680,86.788a4.4,4.4,0,0,1-2.688,1.285v.6a1.064,1.064,0,0,1-.426.892,1.222,1.222,0,0,1-.733.252,1.167,1.167,0,0,1-.741-.27,1.091,1.091,0,0,1-.375-.874V88.1a7.25,7.25,0,0,1-3.193-1.033,4.45,4.45,0,0,1-2.031-3.054.881.881,0,0,1,.17-.8.9.9,0,0,1,.818-.312,1,1,0,0,1,1.028.882,2.867,2.867,0,0,0,1.126,1.6,4.243,4.243,0,0,0,2.082.722l-.005-5.179a5.89,5.89,0,0,1-3.107-1.262,4.587,4.587,0,0,1-1.569-3.041,4.264,4.264,0,0,1,.27-1.957,4.545,4.545,0,0,1,1.077-1.586,4.977,4.977,0,0,1,1.736-1.064,6.814,6.814,0,0,1,1.593-.378V71a1.13,1.13,0,0,1,1.874-.876,1.148,1.148,0,0,1,.405.876v.767a4.807,4.807,0,0,1,2.42,1.279,4.423,4.423,0,0,1,1.258,3.154c-.13.69-.485,1.044-.964,1.1a.947.947,0,0,1-1.069-.906,4.274,4.274,0,0,0-.191-.92,2.407,2.407,0,0,0-.433-.775,3.572,3.572,0,0,0-.763-.693,2.025,2.025,0,0,0-.258-.147v5.378a5.687,5.687,0,0,1,1.788.712,4.444,4.444,0,0,1,1.349,1.266,4.193,4.193,0,0,1,.616,1.563A5.229,5.229,0,0,1,681.15,84.267Z" transform="translate(-18.855)" fill="#fcecdf"/>
    </g>
  </g>
</svg>
